<?xml version="1.0" encoding="utf-8"?>
<!-- Generator: Adobe Illustrator 16.0.0, SVG Export Plug-In . SVG Version: 6.00 Build 0)  -->
<!DOCTYPE svg PUBLIC "-//W3C//DTD SVG 1.1//EN" "http://www.w3.org/Graphics/SVG/1.1/DTD/svg11.dtd">
<svg version="1.1" id="Layer_1" xmlns="http://www.w3.org/2000/svg" xmlns:xlink="http://www.w3.org/1999/xlink" x="0px" y="0px"
	 width="112.604px" height="105.882px" viewBox="0 0 112.604 105.882" enable-background="new 0 0 112.604 105.882"
	 xml:space="preserve">
<g>
	<path fill="#231F20" d="M18.514,100.949c16.818-3.446,16.395-17.395,16.231-27.133h0.039V7.09
		C17.966,10.537,18.39,24.49,18.553,34.224h-0.039V100.949z"/>
	<path fill="#231F20" d="M58.385,100.949c16.818-3.446,16.395-17.395,16.231-27.133h0.039V7.09
		C57.838,10.537,58.261,24.49,58.424,34.224h-0.039V100.949z"/>
	<path fill="#231F20" d="M4.517,54.641c0,0-2.473,34.083,21.77,24.419c24.245-9.663,61.794-64.188,81.281-45.552
		c0,0-7.602-13.224-31.372,0.29C52.43,47.311,21.249,88.889,4.517,54.641z"/>
</g>
</svg>
