<?xml version="1.0" encoding="utf-8"?>
<!-- Generator: Adobe Illustrator 16.0.0, SVG Export Plug-In . SVG Version: 6.00 Build 0)  -->
<!DOCTYPE svg PUBLIC "-//W3C//DTD SVG 1.1//EN" "http://www.w3.org/Graphics/SVG/1.1/DTD/svg11.dtd">
<svg version="1.1" id="Layer_1" xmlns="http://www.w3.org/2000/svg" xmlns:xlink="http://www.w3.org/1999/xlink" x="0px" y="0px"
	 width="704.198px" height="125.209px" viewBox="0 0 704.198 125.209" enable-background="new 0 0 704.198 125.209"
	 xml:space="preserve">
<g>
	<path display="none" fill="#B3B3B3" d="M20.431,117.107V10.512h23.735v47.325h23.735V10.512h23.592v106.595H67.901V69.776H44.166
		v47.331H20.431z"/>
	<path fill="#B3B3B3" d="M162.696,10.512h23.593v82.858c0,6.444-2.323,12.012-6.964,16.698c-4.644,4.692-10.187,7.038-16.629,7.038
		h-23.735c-6.444,0-12.009-2.321-16.7-6.965s-7.035-10.235-7.035-16.771V10.512h23.735v82.858c0,3.222,1.16,6.021,3.482,8.386
		c2.32,2.37,5.092,3.553,8.314,3.553c3.315,0,6.133-1.183,8.456-3.553c2.322-2.365,3.482-5.164,3.482-8.386V10.512z"/>
	<path fill="#B3B3B3" d="M210.022,117.107V10.512h23.734v94.797h35.531v11.798H210.022z"/>
	<path fill="#B3B3B3" d="M292.881,117.107V34.248c0-6.536,2.344-12.129,7.035-16.771c4.691-4.642,10.256-6.964,16.7-6.964h23.735
		c6.443,0,11.985,2.344,16.628,7.036c4.643,4.688,6.964,10.255,6.964,16.699v82.859H340.35V69.776h-23.735v47.331H292.881z
		 M316.615,57.837h23.735v-23.59c0-3.314-1.161-6.133-3.482-8.459c-2.323-2.316-5.141-3.479-8.456-3.479
		c-3.222,0-5.994,1.163-8.314,3.479c-2.323,2.326-3.482,5.145-3.482,8.459V57.837z"/>
	<path fill="#B3B3B3" d="M387.676,10.512h23.734v94.797h11.797c3.314,0,6.133-1.183,8.456-3.553
		c2.322-2.365,3.482-5.164,3.482-8.386V10.512h23.593v94.797h11.938c3.22,0,5.993-1.183,8.315-3.553
		c2.321-2.365,3.479-5.164,3.479-8.386V10.512h23.736v66.087c0,11.087-3.957,20.606-11.866,28.569
		c-7.913,7.957-17.46,11.938-28.639,11.938h-30.558v-3.699c-4.548,2.468-10.138,3.699-16.771,3.699h-30.698V10.512z"/>
	<path display="none" fill="#B3B3B3" d="M529.803,117.107V10.512h23.733v47.325h23.736V10.512h23.592v106.595h-23.592V69.776
		h-23.736v47.331H529.803z"/>
	<path fill="#B3B3B3" d="M648.332,10.512h23.735c6.441,0,11.985,2.344,16.628,7.036c4.641,4.688,6.965,10.255,6.965,16.699v59.123
		c0,6.444-2.324,12.012-6.965,16.698c-4.643,4.692-10.187,7.038-16.628,7.038h-23.735c-6.444,0-12.01-2.321-16.699-6.965
		c-4.691-4.644-7.035-10.235-7.035-16.771V34.248c0-6.536,2.344-12.129,7.035-16.771C636.322,12.834,641.888,10.512,648.332,10.512z
		 M648.332,34.248v59.123c0,3.222,1.158,6.021,3.482,8.386c2.321,2.37,5.093,3.553,8.314,3.553c3.314,0,6.133-1.183,8.457-3.553
		c2.318-2.365,3.481-5.164,3.481-8.386V34.248c0-3.314-1.163-6.133-3.481-8.459c-2.324-2.316-5.143-3.479-8.457-3.479
		c-3.222,0-5.993,1.163-8.314,3.479C649.49,28.115,648.332,30.933,648.332,34.248z"/>
	<g>
		<path d="M531.348,117.107c18.973-3.887,18.495-19.624,18.312-30.61h0.044V11.218c-18.974,3.888-18.496,19.629-18.312,30.611
			h-0.044V117.107z"/>
		<path d="M576.329,117.107c18.974-3.887,18.496-19.624,18.312-30.61h0.044V11.218c-18.973,3.888-18.496,19.629-18.312,30.611
			h-0.044V117.107z"/>
		<path d="M515.556,64.863c0,0-2.789,38.452,24.561,27.55c27.353-10.901,69.714-72.415,91.699-51.391c0,0-8.576-14.918-35.394,0.326
			C569.611,56.594,534.434,103.501,515.556,64.863z"/>
	</g>
	<g>
		<path d="M21.569,117.107c18.973-3.887,18.495-19.624,18.312-30.61h0.044V11.218c-18.974,3.888-18.496,19.629-18.312,30.611h-0.044
			V117.107z"/>
		<path d="M66.55,117.107c18.974-3.887,18.496-19.624,18.312-30.61h0.044V11.218C65.933,15.106,66.41,30.847,66.594,41.829H66.55
			V117.107z"/>
		<path d="M5.777,64.863c0,0-2.789,38.452,24.561,27.55c27.353-10.901,69.714-72.415,91.699-51.391c0,0-8.576-14.918-35.394,0.326
			C59.833,56.594,24.655,103.501,5.777,64.863z"/>
	</g>
</g>
</svg>
