<?xml version="1.0" encoding="UTF-8" standalone="no"?>
<!-- Created with Inkscape (http://www.inkscape.org/) -->

<svg
   xmlns:dc="http://purl.org/dc/elements/1.1/"
   xmlns:cc="http://creativecommons.org/ns#"
   xmlns:rdf="http://www.w3.org/1999/02/22-rdf-syntax-ns#"
   xmlns:svg="http://www.w3.org/2000/svg"
   xmlns="http://www.w3.org/2000/svg"
   xmlns:sodipodi="http://sodipodi.sourceforge.net/DTD/sodipodi-0.dtd"
   xmlns:inkscape="http://www.inkscape.org/namespaces/inkscape"
   width="19.843578"
   height="32"
   id="svg4014"
   version="1.1"
   inkscape:version="0.48.3.1 r9886"
   inkscape:export-filename="/home/umran/sweepdrive/graphics/favicon16.png"
   inkscape:export-xdpi="90"
   inkscape:export-ydpi="90"
   sodipodi:docname="icon32_svg.svg">
  <defs
     id="defs4016" />
  <sodipodi:namedview
     id="base"
     pagecolor="#ffffff"
     bordercolor="#666666"
     borderopacity="1.0"
     inkscape:pageopacity="0.0"
     inkscape:pageshadow="2"
     inkscape:zoom="21.78125"
     inkscape:cx="9.9217892"
     inkscape:cy="16"
     inkscape:current-layer="layer1"
     showgrid="true"
     inkscape:grid-bbox="true"
     inkscape:document-units="px"
     fit-margin-top="0"
     fit-margin-left="0"
     fit-margin-right="0"
     fit-margin-bottom="0"
     inkscape:window-width="1375"
     inkscape:window-height="876"
     inkscape:window-x="65"
     inkscape:window-y="24"
     inkscape:window-maximized="1" />
  <metadata
     id="metadata4019">
    <rdf:RDF>
      <cc:Work
         rdf:about="">
        <dc:format>image/svg+xml</dc:format>
        <dc:type
           rdf:resource="http://purl.org/dc/dcmitype/StillImage" />
        <dc:title />
      </cc:Work>
    </rdf:RDF>
  </metadata>
  <g
     id="layer1"
     inkscape:label="Layer 1"
     inkscape:groupmode="layer"
     transform="translate(-7.8932821,20.066147)">
    <text
       xml:space="preserve"
       style="font-size:8px;font-style:normal;font-variant:normal;font-weight:500;font-stretch:normal;line-height:125%;letter-spacing:0px;word-spacing:0px;fill:#000000;fill-opacity:1;stroke:none;font-family:Station;-inkscape-font-specification:Station Medium"
       x="-3.919307"
       y="9.5579205"
       id="text4066"
       sodipodi:linespacing="125%"><tspan
         sodipodi:role="line"
         id="tspan4068"
         x="-3.919307"
         y="9.5579205" /></text>
    <g
       style="font-size:30.43771744000000012px;font-style:normal;font-variant:normal;font-weight:500;font-stretch:normal;line-height:125%;letter-spacing:0px;word-spacing:0px;fill:#ffffff;fill-opacity:1;stroke:none;font-family:Station;-inkscape-font-specification:Station Medium"
       id="text4070">
      <path
         d="m 27.719413,-6.8982675 c -2.2e-5,0.049542 -0.005,0.089175 -0.01486,0.1188974 -0.01984,0.2179798 -0.07433,0.4210959 -0.163483,0.6093488 -0.0892,0.1882549 -0.208092,0.3566926 -0.356692,0.5053137 -0.148643,0.1387139 -0.322035,0.247703 -0.520176,0.3269677 -0.198183,0.079265 -0.406253,0.1188973 -0.624211,0.1188973 -0.237815,0 -0.460747,-0.044586 -0.668798,-0.1337595 -0.198181,-0.089173 -0.371573,-0.20807 -0.520176,-0.356692 -0.14864,-0.1585291 -0.267537,-0.336875 -0.356692,-0.535038 -0.08919,-0.2080691 -0.133778,-0.4260473 -0.133759,-0.6539354 l 0,-0.1486216 0,-6.1826609 c -1.9e-5,-1.387127 -0.168456,-2.368029 -0.505314,-2.942709 -0.346801,-0.584567 -0.916517,-0.876856 -1.709149,-0.876868 -0.92147,1.2e-5 -1.590267,0.346795 -2.006392,1.040351 -0.416155,0.703486 -0.624225,1.818148 -0.624212,3.343988 l 0,5.7665205 c -0.0099,0.019818 -0.01487,0.054496 -0.01486,0.1040352 -0.0099,0.2179798 -0.06442,0.42605 -0.163484,0.624211 -0.08919,0.1882549 -0.208083,0.3566926 -0.356692,0.5053137 -0.148634,0.1387139 -0.322026,0.252657 -0.520175,0.3418298 -0.198175,0.079265 -0.411199,0.1188974 -0.639074,0.1188974 -0.227898,0 -0.445876,-0.044587 -0.653935,-0.1337595 -0.198173,-0.089173 -0.376519,-0.20807 -0.535038,-0.356692 -0.148632,-0.1585292 -0.267529,-0.336875 -0.356692,-0.535038 -0.08918,-0.2080691 -0.13377,-0.4260474 -0.133759,-0.6539354 l 0,-0.044587 0,-6.2569722 c -1.1e-5,-2.576098 -0.738164,-3.864151 -2.214463,-3.864163 -0.93137,1.2e-5 -1.615029,0.351749 -2.050979,1.055214 -0.426055,0.693577 -0.639079,1.803285 -0.639073,3.329125 l -0.01486,5.7367962 c -5e-6,0.05945 -0.005,0.1040368 -0.01486,0.1337595 -0.0099,0.2179798 -0.05945,0.42605 -0.148621,0.624211 -0.08918,0.1882549 -0.208076,0.3566926 -0.356692,0.5053137 -0.148627,0.1387139 -0.322019,0.252657 -0.520176,0.3418298 -0.1981666,0.079265 -0.4062367,0.1188974 -0.6242112,0.1188974 -0.2278901,0 -0.4458683,-0.039632 -0.6539353,-0.1188974 C 8.7057443,-5.4120506 8.5323526,-5.5259937 8.3837336,-5.6647076 8.2351095,-5.8133287 8.1162123,-5.9867204 8.0270416,-6.1848834 7.9378665,-6.3830445 7.89328,-6.5960687 7.8932821,-6.8239566 l 0,-0.074311 0,-11.1020385 c -2.1e-6,-0.227874 0.044584,-0.440898 0.1337595,-0.639073 0.089171,-0.208057 0.2080679,-0.386403 0.356692,-0.535038 0.1585271,-0.158516 0.3368729,-0.282367 0.535038,-0.371554 0.208067,-0.08916 0.4260453,-0.133745 0.6539354,-0.13376 0.4260445,1.5e-5 0.792644,0.123866 1.0998,0.371554 0.307147,0.237809 0.490446,0.559822 0.5499,0.966041 l 0.01486,0.01486 c 0.644021,-0.673737 1.19392,-1.12951 1.6497,-1.367319 0.465674,-0.247688 1.075022,-0.371539 1.828047,-0.371554 1.624919,1.5e-5 2.912972,0.713398 3.864163,2.140152 1.050246,-1.426754 2.472058,-2.140137 4.265442,-2.140152 3.259748,1.5e-5 4.889631,1.971727 4.889653,5.915142 l -0.01486,7.2527375"
         style="fill:#ffffff"
         id="path2989" />
    </g>
    <g
       id="g4"
       transform="matrix(0.01550078,0,0,-0.01099862,7.8958615,10.778997)"
       style="fill:#ffffff;fill-opacity:1"
       inkscape:export-filename="/home/umran/sweepdrive/graphics/miocache-logo-32.png"
       inkscape:export-xdpi="90"
       inkscape:export-ydpi="90">
      <path
         style="fill:#ffffff;fill-opacity:1"
         inkscape:connector-curvature="0"
         id="path6"
         d="m 1164,1408 q 23,0 44,-9 33,-13 52.5,-41 19.5,-28 19.5,-62 V 7 q 0,-34 -19.5,-62 -19.5,-28 -52.5,-41 -19,-8 -44,-8 -48,0 -83,32 L 640,352 199,-72 q -36,-33 -83,-33 -23,0 -44,9 Q 39,-83 19.5,-55 0,-27 0,7 v 1289 q 0,34 19.5,62 19.5,28 52.5,41 21,9 44,9 h 1048 z" />
    </g>
  </g>
</svg>
