<?xml version="1.0" encoding="UTF-8" standalone="no"?>
<!-- Created with Inkscape (http://www.inkscape.org/) -->

<svg
   xmlns:dc="http://purl.org/dc/elements/1.1/"
   xmlns:cc="http://creativecommons.org/ns#"
   xmlns:rdf="http://www.w3.org/1999/02/22-rdf-syntax-ns#"
   xmlns:svg="http://www.w3.org/2000/svg"
   xmlns="http://www.w3.org/2000/svg"
   xmlns:sodipodi="http://sodipodi.sourceforge.net/DTD/sodipodi-0.dtd"
   xmlns:inkscape="http://www.inkscape.org/namespaces/inkscape"
   width="73.098244"
   height="32"
   id="svg4014"
   version="1.1"
   inkscape:version="0.48.3.1 r9886"
   inkscape:export-filename="/home/umran/sweepdrive/graphics/favicon16.png"
   inkscape:export-xdpi="90"
   inkscape:export-ydpi="90"
   sodipodi:docname="logo256_svg.svg">
  <defs
     id="defs4016" />
  <sodipodi:namedview
     id="base"
     pagecolor="#ffffff"
     bordercolor="#666666"
     borderopacity="1.0"
     inkscape:pageopacity="0.0"
     inkscape:pageshadow="2"
     inkscape:zoom="16.990832"
     inkscape:cx="36.549122"
     inkscape:cy="16"
     inkscape:current-layer="layer1"
     showgrid="true"
     inkscape:grid-bbox="true"
     inkscape:document-units="px"
     fit-margin-top="0"
     fit-margin-left="0"
     fit-margin-right="0"
     fit-margin-bottom="0"
     inkscape:window-width="1375"
     inkscape:window-height="876"
     inkscape:window-x="65"
     inkscape:window-y="24"
     inkscape:window-maximized="1" />
  <metadata
     id="metadata4019">
    <rdf:RDF>
      <cc:Work
         rdf:about="">
        <dc:format>image/svg+xml</dc:format>
        <dc:type
           rdf:resource="http://purl.org/dc/dcmitype/StillImage" />
        <dc:title></dc:title>
      </cc:Work>
    </rdf:RDF>
  </metadata>
  <g
     id="layer1"
     inkscape:label="Layer 1"
     inkscape:groupmode="layer"
     transform="translate(-13.793282,20.066148)">
    <text
       xml:space="preserve"
       style="font-size:8px;font-style:normal;font-variant:normal;font-weight:500;font-stretch:normal;line-height:125%;letter-spacing:0px;word-spacing:0px;fill:#000000;fill-opacity:1;stroke:none;font-family:Station;-inkscape-font-specification:Station Medium"
       x="-3.919307"
       y="9.5579205"
       id="text4066"
       sodipodi:linespacing="125%"><tspan
         sodipodi:role="line"
         id="tspan4068"
         x="-3.919307"
         y="9.5579205" /></text>
    <g
       style="font-size:30.43771744px;font-style:normal;font-variant:normal;font-weight:500;font-stretch:normal;line-height:125%;letter-spacing:0px;word-spacing:0px;fill:#ffffff;fill-opacity:1;stroke:none;font-family:Station;-inkscape-font-specification:Station Medium"
       id="text4070"
       transform="matrix(0.75781902,0,0,0.75781902,7.8116028,2.8901523)">
      <path
         d="m 27.719413,-6.8982675 c -2.2e-5,0.049542 -0.005,0.089175 -0.01486,0.1188974 -0.01984,0.2179798 -0.07433,0.4210959 -0.163483,0.6093488 -0.0892,0.1882549 -0.208092,0.3566926 -0.356692,0.5053137 -0.148643,0.1387139 -0.322035,0.247703 -0.520176,0.3269677 -0.198183,0.079265 -0.406253,0.1188973 -0.624211,0.1188973 -0.237815,0 -0.460747,-0.044586 -0.668798,-0.1337595 -0.198181,-0.089173 -0.371573,-0.20807 -0.520176,-0.356692 -0.14864,-0.1585291 -0.267537,-0.336875 -0.356692,-0.535038 -0.08919,-0.2080691 -0.133778,-0.4260473 -0.133759,-0.6539354 l 0,-0.1486216 0,-6.1826609 c -1.9e-5,-1.387127 -0.168456,-2.368029 -0.505314,-2.942709 -0.346801,-0.584567 -0.916517,-0.876856 -1.709149,-0.876868 -0.92147,1.2e-5 -1.590267,0.346795 -2.006392,1.040351 -0.416155,0.703486 -0.624225,1.818148 -0.624212,3.343988 l 0,5.7665205 c -0.0099,0.019818 -0.01487,0.054496 -0.01486,0.1040352 -0.0099,0.2179798 -0.06442,0.42605 -0.163484,0.624211 -0.08919,0.1882549 -0.208083,0.3566926 -0.356692,0.5053137 -0.148634,0.1387139 -0.322026,0.252657 -0.520175,0.3418298 -0.198175,0.079265 -0.411199,0.1188974 -0.639074,0.1188974 -0.227898,0 -0.445876,-0.044587 -0.653935,-0.1337595 -0.198173,-0.089173 -0.376519,-0.20807 -0.535038,-0.356692 -0.148632,-0.1585292 -0.267529,-0.336875 -0.356692,-0.535038 -0.08918,-0.2080691 -0.13377,-0.4260474 -0.133759,-0.6539354 l 0,-0.044587 0,-6.2569717 c -1.1e-5,-2.576098 -0.738164,-3.864151 -2.214463,-3.864163 -0.93137,1.2e-5 -1.615029,0.351749 -2.050979,1.055214 -0.426055,0.693577 -0.639079,1.803285 -0.639073,3.329125 l -0.01486,5.7367957 c -5e-6,0.05945 -0.005,0.1040368 -0.01486,0.1337595 -0.0099,0.2179798 -0.05945,0.42605 -0.148621,0.624211 -0.08918,0.1882549 -0.208076,0.3566926 -0.356692,0.5053137 -0.148627,0.1387139 -0.322019,0.252657 -0.520176,0.3418298 -0.1981666,0.079265 -0.4062367,0.1188974 -0.6242112,0.1188974 -0.2278901,0 -0.4458683,-0.039632 -0.6539353,-0.1188974 C 8.7057443,-5.4120506 8.5323526,-5.5259937 8.3837336,-5.6647076 8.2351095,-5.8133287 8.1162123,-5.9867204 8.0270416,-6.1848834 7.9378665,-6.3830445 7.89328,-6.5960687 7.8932821,-6.8239566 l 0,-0.074311 0,-11.1020384 c -2.1e-6,-0.227874 0.044584,-0.440898 0.1337595,-0.639073 0.089171,-0.208057 0.2080679,-0.386403 0.356692,-0.535038 0.1585271,-0.158516 0.3368729,-0.282367 0.535038,-0.371554 0.208067,-0.08916 0.4260453,-0.133745 0.6539354,-0.13376 0.4260445,1.5e-5 0.792644,0.123866 1.0998,0.371554 0.307147,0.237809 0.490446,0.559822 0.5499,0.966041 l 0.01486,0.01486 c 0.644021,-0.673737 1.19392,-1.12951 1.6497,-1.367319 0.465674,-0.247688 1.075022,-0.371539 1.828047,-0.371554 1.624919,1.5e-5 2.912972,0.713398 3.864163,2.140152 1.050246,-1.426754 2.472058,-2.140137 4.265442,-2.140152 3.259748,1.5e-5 4.889631,1.971727 4.889653,5.915142 l -0.01486,7.2527374"
         id="path3776"
         inkscape:connector-curvature="0"
         style="fill:#ffffff" />
    </g>
    <g
       id="g4"
       transform="matrix(0.01174679,0,0,-0.00833496,13.795237,11.058681)"
       style="fill:#ffffff;fill-opacity:1"
       inkscape:export-filename="/home/umran/sweepdrive/graphics/miocache-logo-32.png"
       inkscape:export-xdpi="90"
       inkscape:export-ydpi="90">
      <path
         style="fill:#ffffff;fill-opacity:1"
         inkscape:connector-curvature="0"
         id="path6"
         d="m 1164,1408 q 23,0 44,-9 33,-13 52.5,-41 19.5,-28 19.5,-62 V 7 q 0,-34 -19.5,-62 -19.5,-28 -52.5,-41 -19,-8 -44,-8 -48,0 -83,32 L 640,352 199,-72 q -36,-33 -83,-33 -23,0 -44,9 Q 39,-83 19.5,-55 0,-27 0,7 v 1289 q 0,34 19.5,62 19.5,28 52.5,41 21,9 44,9 h 1048 z" />
    </g>
  </g>
  <g
     inkscape:groupmode="layer"
     id="layer2"
     inkscape:label="iocache"
     transform="translate(-5.9000002,-14.964347)">
    <g
       style="font-size:30.43000031px;font-style:normal;font-variant:normal;font-weight:500;font-stretch:normal;line-height:125%;letter-spacing:0px;word-spacing:0px;fill:#333332;fill-opacity:1;stroke:none;font-family:Station;-inkscape-font-specification:Station Medium"
       id="text2988"
       transform="matrix(0.75781902,0,0,0.75781902,-4.3689319,38.369208)">
      <path
         d="m 35.05642,-24.064497 c -0.61415,1.8e-5 -1.129241,-0.212952 -1.545273,-0.638911 -0.435848,-0.435827 -0.653771,-0.955871 -0.65377,-1.560132 -10e-7,-0.574504 0.217922,-1.079689 0.65377,-1.515557 0.425938,-0.425918 0.936076,-0.638888 1.530415,-0.638911 0.584426,2.3e-5 1.099517,0.212993 1.545273,0.638911 0.425935,0.416057 0.638906,0.926195 0.638912,1.530415 -6e-6,0.604262 -0.212977,1.119352 -0.638912,1.545274 -0.41604,0.425959 -0.926178,0.638929 -1.530415,0.638911 m 0,3.80375 c 0.237731,1.4e-5 0.455654,0.04459 0.65377,0.133725 0.208013,0.08917 0.386313,0.212985 0.534902,0.37146 0.148579,0.148598 0.267446,0.326899 0.356602,0.534903 0.08914,0.198125 0.13372,0.411095 0.133725,0.638911 l 0,0.04458 0,11.0546487 c -0.0099,0.00991 -0.01486,0.024766 -0.01486,0.044575 -5e-6,0.2278302 -0.04458,0.4408004 -0.133726,0.6389111 -0.08915,0.1981128 -0.208022,0.3714606 -0.356601,0.520044 -0.148589,0.1485843 -0.32689,0.2674514 -0.534903,0.3566015 -0.198116,0.08915 -0.411086,0.1337256 -0.638911,0.1337256 -0.227832,0 -0.445755,-0.044575 -0.653769,-0.1337256 -0.198115,-0.08915 -0.371463,-0.2080172 -0.520044,-0.3566015 -0.148587,-0.1485834 -0.267454,-0.3219312 -0.356602,-0.520044 -0.08915,-0.2080163 -0.133727,-0.4259393 -0.133725,-0.6537695 l 0,-0.1783008 0,-10.9060645 0,-0.04458 c -2e-6,-0.227816 0.04457,-0.440786 0.133725,-0.638911 0.08915,-0.208004 0.208015,-0.386305 0.356602,-0.534903 0.148581,-0.158475 0.321929,-0.282295 0.520044,-0.37146 0.208014,-0.08913 0.425937,-0.133711 0.653769,-0.133725"
         style="letter-spacing:-4.52566338"
         id="path3761"
         inkscape:connector-curvature="0" />
      <path
         d="m 35.760913,-13.113857 c -1e-6,-2.090072 0.747871,-3.868126 2.243618,-5.334165 1.495741,-1.466015 3.318369,-2.199029 5.467891,-2.199043 2.159409,1.4e-5 3.991943,0.737981 5.497608,2.213901 1.485823,1.475945 2.228743,3.288668 2.228759,5.438174 -1.6e-5,2.169331 -0.747888,3.9870067 -2.243618,5.4530321 -1.505664,1.4561234 -3.353056,2.1841842 -5.542182,2.1841846 -2.169334,-4e-7 -3.987009,-0.7429196 -5.453033,-2.2287598 -1.466031,-1.4660254 -2.199044,-3.3084649 -2.199043,-5.5273239 m 3.417432,0.05943 c -5e-6,1.446224 0.386313,2.590319 1.158955,3.4322903 0.792441,0.8518845 1.837481,1.2778248 3.135122,1.2778223 1.307529,2.5e-6 2.352568,-0.420985 3.135122,-1.2629639 0.782529,-0.8419717 1.1738,-1.9662557 1.173814,-3.3728567 -1.4e-5,-1.406586 -0.391285,-2.530871 -1.173814,-3.372856 -0.792459,-0.85187 -1.837499,-1.277811 -3.135122,-1.277823 -1.27783,1.2e-5 -2.312964,0.425953 -3.105405,1.277823 -0.792453,0.851891 -1.188677,1.951411 -1.188672,3.298564"
         style="letter-spacing:-4.52566338"
         id="path3763"
         inkscape:connector-curvature="0" />
      <path
         d="m 59.941677,-8.9535058 c 0.217911,3.2e-6 0.420975,0.044578 0.609194,0.1337256 0.188194,0.079248 0.351636,0.193162 0.490327,0.3417432 0.138665,0.1386809 0.247627,0.3021232 0.326885,0.4903271 0.07923,0.1882084 0.118854,0.391273 0.118867,0.6091944 -1.3e-5,0.3466972 -0.104022,0.6537705 -0.312026,0.9212207 -0.198125,0.2674516 -0.45567,0.450705 -0.772637,0.5497607 -1.000477,0.3863181 -1.991036,0.5794771 -2.97168,0.5794776 -2.248578,-5e-7 -4.135593,-0.7280613 -5.66105,-2.1841846 -1.515558,-1.4660255 -2.273336,-3.2787479 -2.273335,-5.4381739 -1e-6,-2.159411 0.767682,-3.986992 2.303052,-5.482749 1.525457,-1.495731 3.407519,-2.243603 5.646192,-2.243618 1.030172,1.5e-5 2.02073,0.178315 2.971679,0.534902 0.307061,0.108976 0.559654,0.297182 0.757779,0.564619 0.208004,0.267465 0.312013,0.579491 0.312026,0.936079 -1.3e-5,0.217936 -0.04459,0.425954 -0.133726,0.624053 -0.07926,0.188219 -0.188219,0.356614 -0.326884,0.505186 -0.138691,0.13869 -0.307086,0.252604 -0.505186,0.341743 -0.188218,0.07926 -0.391283,0.118878 -0.609194,0.118867 -0.257557,1.1e-5 -0.505197,-0.06438 -0.74292,-0.193159 -0.544819,-0.257534 -1.154012,-0.386307 -1.827583,-0.386319 -1.267925,1.2e-5 -2.317917,0.430905 -3.149981,1.292681 -0.832075,0.891514 -1.24811,2.005892 -1.248105,3.34314 -5e-6,1.376884 0.401171,2.496215 1.20353,3.3579979 0.832064,0.8617901 1.877103,1.2926832 3.135122,1.2926807 0.74291,2.5e-6 1.406585,-0.1535341 1.991026,-0.4606104 0.217911,-0.099053 0.440787,-0.1485808 0.668628,-0.148584"
         style="letter-spacing:-4.52566338"
         id="path3765"
         inkscape:connector-curvature="0" />
      <path
         d="m 71.671101,-5.7738085 c -0.227842,0 -0.421001,-0.069339 -0.579478,-0.2080176 -0.158502,-0.1485836 -0.247652,-0.3367898 -0.267451,-0.5646191 l 0,-0.7429199 c -1.376889,1.2877281 -2.847869,1.9315914 -4.412944,1.9315918 -2.000937,-4e-7 -3.650218,-0.7231084 -4.947847,-2.1693262 -1.307541,-1.4660255 -1.96131,-3.3035125 -1.961308,-5.5124655 -2e-6,-2.169317 0.653767,-3.977087 1.961308,-5.423316 1.277818,-1.446203 2.897382,-2.169311 4.858696,-2.169326 1.664131,1.5e-5 3.164828,0.693406 4.502095,2.080176 -1.2e-5,-0.227816 0.04456,-0.440786 0.133726,-0.638911 0.08914,-0.208004 0.208004,-0.386305 0.356601,-0.534903 0.148571,-0.158475 0.321919,-0.282295 0.520044,-0.37146 0.208004,-0.08914 0.425927,-0.133711 0.65377,-0.133725 0.23772,1.4e-5 0.460595,0.04459 0.668628,0.133725 0.208002,0.08916 0.386303,0.212985 0.534902,0.37146 0.158474,0.148598 0.282294,0.326899 0.37146,0.534903 0.08913,0.198125 0.13371,0.411095 0.133726,0.638911 -1.6e-5,0.01982 -0.005,0.03468 -0.01486,0.04457 -1.6e-5,0.0099 -1.6e-5,0.01982 0,0.02972 l 0.01486,0 -0.01486,11.8718602 c -1.6e-5,0.2278294 -0.08421,0.4259412 -0.252592,0.5943359 -0.158506,0.1584897 -0.356617,0.2377344 -0.594336,0.2377344 l -1.664141,0 m -1.75329,-3.8483232 c 0.762718,-0.9014043 1.144084,-2.0157833 1.144097,-3.3431393 -1.3e-5,-1.347153 -0.381379,-2.461532 -1.144097,-3.34314 -0.762742,-0.861776 -1.758254,-1.292669 -2.986538,-1.292681 -1.129246,1.2e-5 -2.080183,0.430905 -2.852813,1.292681 -0.772642,0.891513 -1.15896,1.981128 -1.158955,3.268848 -5e-6,1.366978 0.376408,2.48631 1.129239,3.3579977 0.77263,0.8915069 1.728519,1.3372584 2.86767,1.3372559 1.228285,2.5e-6 2.228749,-0.4259378 3.001397,-1.2778223"
         style="letter-spacing:-4.52566338"
         id="path3767"
         inkscape:connector-curvature="0" />
      <path
         d="m 83.638259,-8.9535058 c 0.217912,3.2e-6 0.420976,0.044578 0.609195,0.1337256 0.188193,0.079248 0.351636,0.193162 0.490327,0.3417432 0.138665,0.1386809 0.247627,0.3021232 0.326885,0.4903271 0.07923,0.1882084 0.118853,0.391273 0.118867,0.6091944 -1.4e-5,0.3466972 -0.104022,0.6537705 -0.312027,0.9212207 -0.198124,0.2674516 -0.45567,0.450705 -0.772636,0.5497607 -1.000477,0.3863181 -1.991036,0.5794771 -2.97168,0.5794776 -2.248578,-5e-7 -4.135593,-0.7280613 -5.66105,-2.1841846 -1.515559,-1.4660255 -2.273336,-3.2787479 -2.273335,-5.4381739 -1e-6,-2.159411 0.767682,-3.986992 2.303052,-5.482749 1.525457,-1.495731 3.407519,-2.243603 5.646191,-2.243618 1.030172,1.5e-5 2.020731,0.178315 2.97168,0.534902 0.307061,0.108976 0.559654,0.297182 0.757778,0.564619 0.208005,0.267465 0.312013,0.579491 0.312027,0.936079 -1.4e-5,0.217936 -0.04459,0.425954 -0.133726,0.624053 -0.07926,0.188219 -0.188219,0.356614 -0.326885,0.505186 -0.138691,0.13869 -0.307086,0.252604 -0.505185,0.341743 -0.188219,0.07926 -0.391283,0.118878 -0.609194,0.118867 -0.257558,1.1e-5 -0.505197,-0.06438 -0.74292,-0.193159 -0.544819,-0.257534 -1.154013,-0.386307 -1.827583,-0.386319 -1.267925,1.2e-5 -2.317917,0.430905 -3.149981,1.292681 -0.832075,0.891514 -1.24811,2.005892 -1.248105,3.34314 -5e-6,1.376884 0.401171,2.496215 1.20353,3.3579979 0.832063,0.8617901 1.877103,1.2926832 3.135122,1.2926807 0.74291,2.5e-6 1.406585,-0.1535341 1.991025,-0.4606104 0.217912,-0.099053 0.440788,-0.1485808 0.668628,-0.148584"
         style="letter-spacing:-4.52566338"
         id="path3769"
         inkscape:connector-curvature="0" />
      <path
         d="m 97.09126,-7.6311083 c 0.0099,0.039624 0.0099,0.079247 0,0.1188672 -1.5e-5,0.029718 -1.5e-5,0.059435 0,0.08915 -1.5e-5,0.2377358 -0.04459,0.4606115 -0.133726,0.6686279 -0.07926,0.1981128 -0.193173,0.3714606 -0.341743,0.520044 -0.148598,0.1485843 -0.326899,0.2674513 -0.534902,0.3566015 -0.198126,0.08915 -0.416049,0.1337256 -0.65377,0.1337256 -0.227841,0 -0.445764,-0.044575 -0.65377,-0.1337256 -0.198124,-0.08915 -0.376424,-0.2080172 -0.534902,-0.3566015 -0.148595,-0.1485834 -0.267463,-0.3219312 -0.356601,-0.520044 -0.08916,-0.2080164 -0.133737,-0.4308921 -0.133726,-0.6686279 l 0,-0.014858 0,-0.074292 0,-6.8051469 c -1.1e-5,-1.158945 -0.203076,-1.995967 -0.609194,-2.511069 -0.416046,-0.534891 -1.07972,-0.802342 -1.991026,-0.802354 -1.168868,1.2e-5 -1.991032,0.366519 -2.466494,1.099522 -0.465569,0.713213 -0.69835,1.971223 -0.698345,3.774033 l 0,5.1410061 c -5e-6,0.039624 -5e-6,0.074294 0,0.1040088 0.0099,0.029718 0.01485,0.059435 0.01486,0.08915 -6e-6,0.2377358 -0.04458,0.4606115 -0.133726,0.6686279 -0.08916,0.1981128 -0.212975,0.3714606 -0.37146,0.520044 -0.148589,0.1485843 -0.326889,0.2674513 -0.534902,0.3566015 -0.198116,0.08915 -0.411087,0.1337256 -0.638911,0.1337256 -0.227833,0 -0.445756,-0.039622 -0.65377,-0.1188672 -0.198115,-0.08915 -0.376415,-0.2080173 -0.534902,-0.3566015 -0.148587,-0.1485834 -0.267454,-0.3219312 -0.356602,-0.520044 -0.08915,-0.1981108 -0.133727,-0.411081 -0.133725,-0.6389111 l 0,-0.014858 0,-0.014858 0,-0.014858 0,-0.014858 0,-21.6932621 c -2e-6,2.3e-5 -2e-6,-0.02474 0,-0.07429 -2e-6,-0.227805 0.04457,-0.440775 0.133725,-0.638911 0.08915,-0.207993 0.208015,-0.386294 0.356602,-0.534903 0.148581,-0.158464 0.321929,-0.282284 0.520044,-0.37146 0.208014,-0.08912 0.425937,-0.1337 0.653769,-0.133725 0.237731,2.5e-5 0.455654,0.0446 0.65377,0.133725 0.208013,0.08918 0.386313,0.208043 0.534902,0.356602 0.148579,0.148609 0.267446,0.326909 0.356602,0.534902 0.08915,0.198136 0.13372,0.416059 0.133725,0.65377 l 0,10.163145 c 1.188666,-1.069791 2.501156,-1.604693 3.937476,-1.604707 1.634413,1.4e-5 2.941951,0.529963 3.922617,1.589848 0.832056,0.921233 1.248091,2.397166 1.248106,4.427803 l 0,6.9983059 0,0"
         style="letter-spacing:-4.52566338"
         id="path3771"
         inkscape:connector-curvature="0" />
      <path
         d="m 108.74639,-7.6311083 c -0.47548,0.5150925 -1.00048,0.9558912 -1.57499,1.3223975 -0.55473,0.3268849 -1.15401,0.5745247 -1.79787,0.7429199 -0.63396,0.1584892 -1.33231,0.2377339 -2.09503,0.2377344 -2.16933,-5e-7 -3.907764,-0.6983445 -5.215298,-2.0950342 -1.307541,-1.3768753 -1.96131,-3.2292203 -1.961309,-5.5570413 -10e-7,-2.288184 0.633957,-4.140529 1.901875,-5.557041 1.267912,-1.396675 2.966722,-2.095019 5.096432,-2.095034 1.0797,1.5e-5 2.03559,0.16841 2.86767,0.505185 0.83206,0.326899 1.56012,0.837037 2.18418,1.530416 1.23819,1.347172 1.85729,3.209423 1.8573,5.586757 -0.0198,0.227836 -0.11393,0.420995 -0.28231,0.579478 -0.1585,0.158496 -0.35166,0.237741 -0.57947,0.237734 l -8.76646,0 c -0.0396,7e-6 -0.10401,0.005 -0.19316,0.01486 -0.0892,0.0099 -0.1783,0.03963 -0.267448,0.08915 -0.07925,0.03963 -0.143637,0.108968 -0.19316,0.208018 -0.04953,0.08916 -0.05944,0.217929 -0.02972,0.386318 0.158484,0.861792 0.510138,1.5700417 1.054948,2.1247511 0.69339,0.6933948 1.57498,1.0400904 2.6448,1.0400879 0.83206,2.5e-6 1.52545,-0.1981093 2.08017,-0.594336 0.14858,-0.1089583 0.30211,-0.2476366 0.46061,-0.4160351 0.16839,-0.1782971 0.34669,-0.3813617 0.53491,-0.6091944 0.14857,-0.2080135 0.33677,-0.3714555 0.56461,-0.4903275 0.23773,-0.118862 0.48537,-0.178296 0.74292,-0.1783 0.22782,4e-6 0.44079,0.04458 0.63892,0.133725 0.19809,0.07925 0.36649,0.193164 0.50518,0.341743 0.14857,0.1485885 0.26249,0.3219364 0.34174,0.5200443 0.0891,0.1981156 0.13372,0.406133 0.13373,0.6240527 -1e-5,0.3863212 -0.11888,0.7280641 -0.3566,1.0252295 -0.01,0.019813 -0.0198,0.034672 -0.0297,0.044575 -0.01,2.2e-6 -0.0198,0.00496 -0.0297,0.014858 l -0.23773,0.2823096 m -8.69216,-7.9641021 c -0.0198,0.04954 -0.0347,0.113924 -0.0446,0.193159 -0.0099,0.06935 0,0.138688 0.0297,0.208018 0.0297,0.06935 0.0842,0.133735 0.16344,0.193159 0.0892,0.04954 0.22287,0.0743 0.40118,0.07429 l 0.0446,0 5.24502,0 c 0.13866,-0.0099 0.24267,-0.03961 0.31202,-0.08915 0.0693,-0.05943 0.11391,-0.118858 0.13373,-0.178301 0.0297,-0.06933 0.0396,-0.133716 0.0297,-0.193159 -0.01,-0.06933 -0.0198,-0.128763 -0.0297,-0.178301 -0.55472,-1.366962 -1.60967,-2.050447 -3.16484,-2.050459 -0.43585,1.2e-5 -0.81722,0.0644 -1.1441,0.193159 -0.3566,0.118879 -0.68349,0.297179 -0.98065,0.534902 -0.14859,0.118879 -0.28727,0.247651 -0.41604,0.386319 -0.11887,0.128783 -0.22783,0.277367 -0.32688,0.445752 -0.0495,0.07925 -0.0941,0.158499 -0.13373,0.237734 -0.0396,0.06935 -0.0793,0.143641 -0.11886,0.222876"
         style="letter-spacing:-4.52566338"
         id="path3773"
         inkscape:connector-curvature="0" />
    </g>
  </g>
</svg>
