<?xml version="1.0" encoding="UTF-8" standalone="no"?>
<svg xmlns:dc="http://purl.org/dc/elements/1.1/" xmlns:cc="http://creativecommons.org/ns#" xmlns:rdf="http://www.w3.org/1999/02/22-rdf-syntax-ns#" xmlns:svg="http://www.w3.org/2000/svg" xmlns="http://www.w3.org/2000/svg" xmlns:sodipodi="http://sodipodi.sourceforge.net/DTD/sodipodi-0.dtd" xmlns:inkscape="http://www.inkscape.org/namespaces/inkscape" version="1.0" height="300" width="300" viewBox="0 0 429.22115 429.22117" id="svg2" inkscape:version="0.48.1 " sodipodi:docname="Federata_Shqiptare_e_Futbollit.svg">
  <metadata id="metadata90">
    <rdf:RDF>
      <cc:Work rdf:about="">
        <dc:format>image/svg+xml</dc:format>
        <dc:type rdf:resource="http://purl.org/dc/dcmitype/StillImage"/>
      </cc:Work>
    </rdf:RDF>
  </metadata>
  <defs id="defs88"/>
  <sodipodi:namedview pagecolor="#ffffff" bordercolor="#666666" borderopacity="1" objecttolerance="10" gridtolerance="10" guidetolerance="10" inkscape:pageopacity="0" inkscape:pageshadow="2" inkscape:window-width="1366" inkscape:window-height="706" id="namedview86" showgrid="false" inkscape:zoom="0.62107632" inkscape:cx="284.10456" inkscape:cy="305.72908" inkscape:window-x="-8" inkscape:window-y="-8" inkscape:window-maximized="1" inkscape:current-layer="svg2"/>
  <title id="title4">Federata Shqiptare e Futbollit</title>
  <g id="g3082">
    <g id="g6" transform="matrix(1.120572,0,0,1.120572,-218.17547,328.65032)">
      <g id="g8" transform="matrix(1.2730787,0,0,1.2730787,194.70008,-293.288)">
        <circle fill="#FFF" id="circle10" r="148.81" cx="150.44" cy="150.44" d="m 299.25,150.44 c 0,82.18549 -66.62451,148.81 -148.81,148.81 C 68.25451,299.25 1.6300049,232.62549 1.6300049,150.44 1.6300049,68.25451 68.25451,1.6300049 150.44,1.6300049 c 82.18549,0 148.81,66.6245051 148.81,148.8099951 z"/>
        <polygon fill="#000" id="polygon12" points="74.25,248.8,76.572,245.29,85.527,251.22,91.136,242.74,95.332,245.52,81.972,265.71,67.561,256.17,69.912,252.62,80.128,259.38,83.204,254.73"/>
        <polygon fill="#000" id="polygon14" points="67.971,238.36,72.32,233.9,62.712,224.53,65.753,221.41,78.906,234.23,61.989,251.59,49.26,239.18,52.256,236.11,61.441,245.06,65.032,241.38,56.602,233.16,59.539,230.14"/>
        <path fill="#000" id="path16" d="m36.189,220.53c-0.488-1.721-0.41-3.438,0.235-5.144,0.526-1.376,1.285-2.583,2.276-3.623,0.99-1.04,2.013-1.916,3.065-2.628,2.671-1.805,5.295-2.797,7.873-2.977,3.481-0.232,6.247,1.168,8.299,4.205l5.851,8.658-20.084,13.57-5.851-8.659c-0.821-1.256-1.376-2.39-1.664-3.402m8.251,5.631,13.107-8.855-2.618-3.877c-1.341-1.982-3.251-2.705-5.732-2.169-1.361,0.297-2.782,0.945-4.263,1.946-2.044,1.38-3.396,2.761-4.058,4.143-0.661,1.381-0.346,3.025,0.944,4.938l2.62,3.874z"/>
        <polygon fill="#000" id="polygon18" points="39.386,198.63,45.152,196.26,40.066,183.85,44.099,182.2,51.062,199.19,28.631,208.38,21.895,191.93,25.865,190.3,30.728,202.17,35.49,200.22,31.027,189.33,34.923,187.73"/>
        <path fill="#000" id="path20" d="m17.216,168.23c0.216-0.949,0.634-1.795,1.254-2.541,0.511-0.615,1.105-1.139,1.784-1.568,0.68-0.43,1.487-0.73,2.425-0.902,1.133-0.209,2.298-0.129,3.498,0.241,1.2,0.369,2.146,1.169,2.843,2.401,0.239-1.182,0.723-2.076,1.452-2.684,0.73-0.607,1.931-1.066,3.602-1.375l1.601-0.296c1.089-0.2,1.819-0.38,2.191-0.54,0.591-0.244,0.986-0.635,1.188-1.17l0.599-0.11,1.015,5.498c-0.501,0.249-0.907,0.435-1.219,0.56-0.645,0.252-1.316,0.449-2.015,0.589l-2.209,0.44c-1.518,0.301-2.482,0.75-2.896,1.35-0.414,0.599-0.492,1.59-0.237,2.979l0.897,4.863,9.347-1.723,0.897,4.867-23.836,4.396-2.102-11.401c-0.269-1.637-0.296-2.927-0.079-3.874m5.423,9.643,6.403-1.182-0.988-5.361c-0.195-1.064-0.473-1.84-0.83-2.322-0.626-0.859-1.607-1.166-2.944-0.919-1.444,0.267-2.331,0.9-2.659,1.903-0.185,0.564-0.184,1.357,0.005,2.381l1.013,5.5z"/>
        <path fill="#000" id="path22" d="m15.429,148.5,0.165-5.728,24.475-7.877-0.158,5.49-5.026,1.456-0.257,8.922,4.934,1.785-0.151,5.296-23.982-9.344zm15.063,0.767,0.179-6.205-9.622,2.787,9.443,3.418z"/>
        <polygon fill="#000" id="polygon24" points="21.925,125.84,20.45,132.97,16.247,132.1,20.222,112.88,24.424,113.74,22.957,120.85,42.49,124.88,41.458,129.88"/>
        <path fill="#000" id="path26" d="m23.983,102.58,2.127-5.321,25.69,1.034-2.039,5.1-5.221-0.364-3.313,8.288,4.017,3.376-1.968,4.919-19.293-17.032zm13.878,5.907,2.303-5.764-9.991-0.698,7.688,6.462z"/>
        <path fill="#000" id="path28" d="m53.552,82.154c0.972,0.554,1.814,0.816,2.528,0.787,1.304-0.054,2.579-0.886,3.823-2.498,0.746-0.965,1.248-1.83,1.505-2.592,0.485-1.451,0.186-2.596-0.898-3.434-0.634-0.49-1.341-0.59-2.119-0.298-0.771,0.3-1.757,0.954-2.956,1.969l-2.061,1.725c-2.028,1.692-3.603,2.715-4.722,3.069-1.883,0.609-3.766,0.186-5.648-1.27-1.717-1.327-2.655-3.063-2.814-5.205s0.709-4.439,2.603-6.889c1.581-2.046,3.466-3.377,5.653-3.994,2.188-0.615,4.328-0.171,6.421,1.334l-2.978,3.852c-1.208-0.821-2.427-0.939-3.654-0.354-0.816,0.393-1.591,1.064-2.327,2.017-0.818,1.058-1.263,2.063-1.335,3.017-0.071,0.952,0.267,1.718,1.012,2.294,0.686,0.53,1.438,0.613,2.257,0.254,0.535-0.227,1.456-0.871,2.763-1.936l3.396-2.752c1.488-1.207,2.806-1.953,3.956-2.24,1.785-0.445,3.532-0.009,5.241,1.313,1.752,1.354,2.684,3.156,2.795,5.406,0.11,2.249-0.79,4.61-2.7,7.082-1.952,2.525-4.057,4.069-6.315,4.634-2.259,0.565-4.386,0.077-6.381-1.466l2.955-3.825z"/>
        <polygon fill="#000" id="polygon30" points="65.894,44.946,69.714,41.67,85.491,60.07,81.672,63.346,74.629,55.132,67.476,61.266,74.519,69.479,70.699,72.755,54.922,54.353,58.741,51.08,64.757,58.094,71.909,51.961"/>
        <path fill="#000" id="path32" d="m104.39,41.437c0.275,1.427,0.263,2.742-0.041,3.942l3.688,1.01-1.041,3.672-3.866-1.075c-0.532,0.894-1.032,1.589-1.501,2.087-0.789,0.83-1.853,1.6-3.19,2.31-2.791,1.482-5.54,1.874-8.245,1.176-3.274-0.832-5.941-3.188-8.003-7.071-2.076-3.912-2.515-7.471-1.312-10.679,0.98-2.617,2.844-4.657,5.595-6.117,2.769-1.47,5.553-1.837,8.351-1.101,3.234,0.853,5.807,3.081,7.719,6.682,1.012,1.908,1.627,3.629,1.846,5.164m-6.59,7.184c0.226-0.207,0.496-0.506,0.809-0.897l-3.261-0.91,1.025-3.62,3.264,0.895c-0.031-0.877-0.119-1.613-0.261-2.208-0.203-0.896-0.582-1.868-1.138-2.914-1.274-2.401-2.752-3.996-4.431-4.786-1.68-0.79-3.464-0.684-5.352,0.319-1.772,0.94-2.852,2.32-3.238,4.139-0.388,1.819,0.085,3.982,1.416,6.49,1.557,2.934,3.429,4.634,5.613,5.1,1.415,0.304,2.806,0.093,4.171-0.632,0.513-0.273,0.973-0.597,1.381-0.976"/>
        <rect fill="#000" id="rect34" x="107.24" y="22.461" width="5.031" height="24.238" transform="matrix(-0.9458,0.3247,-0.3247,-0.9458,224.7872,31.6477)"/>
        <path fill="#000" id="path36" d="m134.03,30.354c-1.17,1.43-3.049,2.394-5.635,2.889l-4.956,0.952,1.643,8.56-4.942,0.948-4.567-23.804,10.22-1.961c2.356-0.453,4.352-0.2,5.989,0.759,1.637,0.958,2.701,2.724,3.195,5.297,0.54,2.809,0.224,4.929-0.947,6.36m-5.442-7.847c-0.731-0.407-1.664-0.501-2.799-0.284l-4.482,0.861,1.345,7.009,4.483-0.861c1.135-0.218,1.962-0.672,2.482-1.363,0.521-0.692,0.661-1.657,0.423-2.896-0.236-1.237-0.721-2.059-1.452-2.466"/>
        <polygon fill="#000" id="polygon38" points="146.6,20.172,139.31,20.176,139.31,15.884,158.94,15.877,158.95,20.168,151.7,20.171,151.7,40.118,146.61,40.12"/>
        <path fill="#000" id="path40" d="m169.77,17.404,5.646,0.98,4.298,25.35-5.411-0.94-0.724-5.183-8.792-1.529-2.473,4.628-5.221-0.907,12.677-22.399zm-2.912,14.799,6.115,1.063-1.385-9.92-4.73,8.857z"/>
        <path fill="#000" id="path42" d="m205.04,28.535c0.683,0.691,1.17,1.5,1.462,2.424,0.245,0.762,0.364,1.544,0.361,2.348-0.005,0.804-0.187,1.647-0.546,2.53-0.433,1.065-1.13,2.004-2.088,2.816s-2.142,1.179-3.554,1.101c0.866,0.838,1.358,1.728,1.479,2.67,0.119,0.942-0.142,2.201-0.782,3.774l-0.614,1.508c-0.418,1.026-0.658,1.738-0.726,2.137-0.112,0.629,0.003,1.172,0.346,1.631l-0.229,0.564-5.178-2.107c0.06-0.556,0.122-0.999,0.185-1.328,0.135-0.679,0.331-1.351,0.589-2.015l0.82-2.099c0.563-1.439,0.703-2.494,0.422-3.166-0.279-0.67-1.073-1.271-2.38-1.803l-4.582-1.866-3.584,8.803-4.584-1.866,9.14-22.45,10.738,4.371c1.519,0.657,2.622,1.33,3.305,2.023m-11.048-0.628-2.455,6.031,5.048,2.055c1.003,0.408,1.804,0.593,2.404,0.553,1.062-0.065,1.848-0.727,2.36-1.987,0.556-1.36,0.497-2.448-0.172-3.264-0.375-0.461-1.043-0.887-2.008-1.28l-5.177-2.108z"/>
        <polygon fill="#000" id="polygon44" points="213.37,47.925,209.9,53.097,221.03,60.583,218.6,64.2,203.36,53.953,216.88,33.837,231.63,43.753,229.24,47.315,218.59,40.16,215.72,44.432,225.5,51,223.15,54.494"/>
        <polygon fill="#000" id="polygon46" points="239.04,69.622,234.27,73.638,242.92,83.9,239.58,86.707,227.75,72.66,246.29,57.044,257.74,70.64,254.46,73.404,246.2,63.595,242.26,66.91,249.84,75.915,246.62,78.627"/>
        <polygon fill="#000" id="polygon48" points="265.56,105.67,261.73,107.42,257.28,97.648,248.03,101.86,245.94,97.287,267.97,87.244,275.14,102.97,271.26,104.74,266.18,93.59,261.11,95.902"/>
        <path fill="#000" id="path50" d="m277.51,109.82,1.173,5.01-14.495,3.393c-1.621,0.379-2.761,0.847-3.417,1.404-1.183,0.904-1.54,2.357-1.072,4.357,0.466,1.988,1.429,3.126,2.89,3.412,0.836,0.209,2.065,0.123,3.687-0.256l14.495-3.391,1.173,5.012-14.507,3.393c-2.509,0.588-4.554,0.655-6.134,0.204-2.9-0.85-4.828-3.315-5.784-7.396-0.953-4.081-0.321-7.151,1.9-9.211,1.216-1.104,3.078-1.95,5.586-2.538l14.505-3.393z"/>
        <polygon fill="#000" id="polygon52" points="278.77,142.89,278.52,135.61,282.81,135.46,283.48,155.09,279.19,155.23,278.94,147.98,259.01,148.66,258.83,143.56"/>
        <path fill="#000" id="path54" d="m277.56,179.41c-1.136,0.565-2.413,0.733-3.832,0.503-1.459-0.239-2.574-0.8-3.341-1.684-0.43-0.494-0.786-1.176-1.066-2.047-0.642,1.148-1.495,1.955-2.561,2.42-1.063,0.464-2.284,0.584-3.657,0.359-1.419-0.23-2.63-0.794-3.639-1.688-0.673-0.572-1.209-1.24-1.606-2-0.461-0.86-0.715-1.826-0.761-2.898-0.048-1.075,0.029-2.219,0.227-3.434l1.759-10.779,23.921,3.901-1.886,11.562c-0.519,2.91-1.706,4.838-3.558,5.785m-8.724-14.758-6.379-1.04-0.947,5.807c-0.168,1.037-0.159,1.869,0.027,2.492,0.348,1.133,1.257,1.819,2.729,2.06,1.246,0.203,2.184-0.166,2.813-1.106,0.352-0.523,0.618-1.299,0.796-2.323l0.961-5.89zm9.234,1.505-5.273-0.86-0.947,5.814c-0.172,1.038-0.11,1.914,0.18,2.627,0.289,0.712,0.936,1.15,1.942,1.313,1.113,0.182,1.919-0.125,2.417-0.924,0.37-0.699,0.646-1.62,0.834-2.767l0.847-5.203z"/>
        <path fill="#000" id="path56" d="m249.98,199.18c-1.063-2.403-0.943-5.212,0.355-8.423,1.298-3.212,3.164-5.313,5.6-6.303,3.065-1.409,6.614-1.298,10.649,0.334,4.116,1.664,6.744,4.052,7.887,7.163,1.063,2.402,0.944,5.212-0.354,8.423-1.299,3.212-3.165,5.313-5.6,6.304-2.98,1.432-6.527,1.315-10.644-0.349-4.035-1.632-6.667-4.015-7.893-7.149m4.601-1.553c0.931,1.646,2.66,2.982,5.19,4.007,2.521,1.019,4.689,1.26,6.511,0.726,1.816-0.536,3.104-1.734,3.856-3.594,0.751-1.859,0.665-3.621-0.259-5.284-0.924-1.662-2.651-3.005-5.181-4.029-2.531-1.024-4.707-1.258-6.525-0.705-1.822,0.553-3.107,1.759-3.859,3.619-0.751,1.858-0.664,3.611,0.267,5.26"/>
        <polygon fill="#000" id="polygon58" points="244.83,204.24,264.97,217.71,262.16,221.92,245.63,210.87,238.9,220.93,235.28,218.5"/>
        <polygon fill="#000" id="polygon60" points="233.48,220.48,250.9,237.34,247.38,240.98,233.09,227.15,224.67,235.85,221.54,232.82"/>
        <rect fill="#000" id="rect62" x="222.41" y="233.1" width="5.031" height="24.239" transform="matrix(0.7835,-0.6214,0.6214,0.7835,-103.6806,192.8618)"/>
        <polygon fill="#000" id="polygon64" points="217.82,259.83,224.08,256.09,226.28,259.78,209.42,269.85,207.22,266.16,213.45,262.44,203.22,245.32,207.59,242.7"/>
        <path fill="#000" id="path66" d="m113.15,262.65,0.75-3.101c1.45,0.282,2.478,0.43,3.082,0.441,0.964,0.017,1.806-0.208,2.526-0.676,0.494-0.32,0.925-0.803,1.294-1.447,0.218-0.388,0.352-0.682,0.399-0.885l3.805,0.92-5.604,23.176-4.667-1.128,3.864-15.983-5.449-1.317z"/>
        <path fill="#000" id="path68" d="m132.74,261.55c1.594-1.465,3.566-2.104,5.916-1.918,3.617,0.283,5.973,2.08,7.064,5.388,0.622,1.875,0.817,4.293,0.584,7.255-0.226,2.874-0.781,5.244-1.664,7.111-1.688,3.551-4.399,5.179-8.137,4.884-1.782-0.14-3.341-0.793-4.679-1.96-1.338-1.166-2.032-2.768-2.08-4.807l4.655,0.367c0.055,0.707,0.305,1.299,0.752,1.773,0.446,0.475,1.067,0.744,1.866,0.807,1.541,0.121,2.69-0.646,3.446-2.301,0.413-0.914,0.734-2.269,0.964-4.064-0.469,0.502-0.954,0.876-1.457,1.123-0.916,0.455-2.014,0.634-3.292,0.533-1.892-0.148-3.517-0.934-4.879-2.355-1.361-1.421-1.945-3.361-1.752-5.82,0.202-2.548,1.098-4.553,2.693-6.016m7.119,10.051c1.112-0.594,1.735-1.728,1.866-3.399,0.107-1.344-0.124-2.434-0.69-3.271-0.567-0.835-1.396-1.297-2.489-1.383-0.798-0.063-1.499,0.107-2.102,0.51-0.952,0.63-1.493,1.779-1.624,3.451-0.111,1.41,0.093,2.49,0.61,3.24,0.519,0.751,1.374,1.172,2.565,1.266,0.645,0.052,1.266-0.086,1.864-0.414"/>
        <path fill="#000" id="path70" d="m153.91,276.65c0.074,0.951,0.286,1.727,0.64,2.326,0.654,1.104,1.729,1.6,3.223,1.484,0.916-0.069,1.69-0.444,2.323-1.126,0.634-0.681,0.906-1.612,0.815-2.792-0.12-1.563-0.832-2.559-2.137-2.986-0.742-0.24-1.887-0.301-3.435-0.182l-0.255-3.346c1.513-0.138,2.558-0.365,3.136-0.686,0.998-0.539,1.445-1.507,1.338-2.906-0.07-0.906-0.39-1.625-0.963-2.152-0.572-0.527-1.339-0.755-2.298-0.682-1.1,0.084-1.883,0.497-2.347,1.235-0.465,0.739-0.641,1.693-0.529,2.861l-4.361,0.334c-0.047-1.185,0.068-2.319,0.348-3.408,0.311-0.958,0.846-1.862,1.604-2.712,0.569-0.604,1.262-1.086,2.08-1.446,0.818-0.359,1.839-0.587,3.061-0.68,2.271-0.175,4.148,0.273,5.631,1.341,1.482,1.068,2.299,2.592,2.45,4.57,0.107,1.399-0.217,2.611-0.975,3.638-0.479,0.641-0.994,1.093-1.545,1.354,0.427-0.033,1.066,0.287,1.92,0.958,1.277,1.013,1.988,2.476,2.136,4.39,0.152,2.01-0.407,3.832-1.683,5.464-1.274,1.632-3.278,2.552-6.007,2.761-3.364,0.258-5.785-0.662-7.263-2.758-0.779-1.117-1.278-2.617-1.5-4.502l4.593-0.352z"/>
        <path fill="#000" id="path72" d="m180.68,258.65c1.686,1.795,2.988,4.605,3.906,8.433,0.916,3.827,1.029,6.918,0.337,9.271-0.693,2.354-2.517,3.884-5.47,4.591-2.953,0.708-5.271,0.171-6.956-1.613-1.684-1.782-2.985-4.588-3.901-8.415-0.918-3.828-1.03-6.923-0.342-9.287,0.69-2.363,2.512-3.898,5.466-4.607,2.952-0.708,5.272-0.166,6.96,1.627m-5.31,17.11c0.775,1.309,1.841,1.8,3.194,1.476,1.354-0.325,2.072-1.243,2.155-2.758,0.083-1.514-0.196-3.604-0.835-6.268-0.67-2.793-1.375-4.812-2.119-6.054-0.743-1.242-1.792-1.701-3.145-1.377-1.355,0.325-2.09,1.212-2.204,2.66s0.162,3.568,0.832,6.361c0.638,2.666,1.347,4.653,2.122,5.96"/>
        <circle fill="none" stroke="#ffc20e" stroke-width="4" id="circle74" r="145.49" stroke-miterlimit="10" cx="150.44" cy="150.44" d="m 295.93001,150.44 c 0,80.35191 -65.1381,145.49001 -145.49001,145.49001 C 70.088091,295.93001 4.9499969,230.79191 4.9499969,150.44 4.9499969,70.088091 70.088091,4.9499969 150.44,4.9499969 c 80.35191,0 145.49001,65.1380941 145.49001,145.4900031 z"/>
        <circle fill="none" stroke="#000" stroke-width="4.08" id="circle76" r="148.4" stroke-miterlimit="10" cx="150.44" cy="150.44" d="m 298.84,150.44 c 0,81.95906 -66.44094,148.4 -148.4,148.4 C 68.480949,298.84 2.0400085,232.39906 2.0400085,150.44 2.0400085,68.480949 68.480949,2.0400085 150.44,2.0400085 c 81.95906,0 148.4,66.4409405 148.4,148.3999915 z"/>
        <path fill="#dd242d" id="path78" d="m246.23,150.44c0,52.904-42.886,95.791-95.788,95.791s-95.791-42.887-95.791-95.791c0-52.901,42.888-95.789,95.791-95.789s95.788,42.888,95.788,95.789" style="fill:#cc1100"/>
        <circle fill="none" stroke="#ffc20e" stroke-width="4.013" id="circle80" r="95.79" stroke-miterlimit="10" cx="150.44" cy="150.44" d="m 246.23,150.44 c 0,52.90336 -42.88664,95.79 -95.79,95.79 -52.903354,0 -95.789998,-42.88664 -95.789998,-95.79 0,-52.903354 42.886644,-95.789998 95.789998,-95.789998 52.90336,0 95.79,42.886644 95.79,95.789998 z"/>
      </g>
    </g>
    <g transform="matrix(0.47020809,0,0,0.47020809,143.12756,107.54747)" id="g3076">
      <path transform="matrix(3.0427746,0,0,3.0427746,-303.81385,-228.72314)" inkscape:connector-curvature="0" id="path16-1" d="m 125.59375,88.75 c -1.71085,-0.0078 -3.17261,0.531013 -4.09375,2 -4.14674,-0.231257 -9.13936,-0.487717 -8.21875,4.65625 0.82548,-0.07641 1.27506,-0.537647 1.53125,-1.0625 0.36519,-0.750078 1.58266,-0.887024 2.75,-0.46875 1.01713,0.363979 1.84402,0.911602 1.09375,1.8125 -0.38328,0.460503 -1.86064,0.697997 -2.78125,0.46875 -0.92141,-0.229246 -2.6298,-0.512388 -3.625,-0.625 -0.67165,-0.07642 -2.01065,-0.905289 -2.625,-2.09375 -0.61433,-1.190472 -2.18847,-2.625842 -3.1875,-1.78125 -0.99763,0.844592 0.18987,2.27345 1.1875,3.15625 0.99902,0.8828 3.05116,2 4.125,2 1.42194,0 2.80308,0.345158 3.53125,0.5 0.34567,2.71074 3.91097,3.92017 6.90625,3.84375 2.99368,-0.0764 6.94734,1.39407 10.59375,4.40625 4.72248,3.90181 8.04724,16.78125 0.0625,16.78125 -4.98953,0 -4.21574,-4.97125 -4.0625,-7.8125 0.15331,-2.84044 -1.37223,-5.92857 -4.75,-7.15625 -3.37776,-1.22848 -10.29972,-3.61165 -12.21875,-4.6875 -0.76818,-0.53692 -1.57831,1.3742 -1.6875,2.46875 -0.0779,0.76737 -0.93835,0.82041 -3.375,0.0625 -6.910161,-2.15009 -13.193832,-5.817103 -16.1875,-11.5 -2.99428,-5.680886 -8.649001,-0.0945 -5.84375,4.6875 3.379172,5.75529 14.672883,10.42234 21.8125,11.34375 3.31803,0.42732 3.25915,4.40134 0.125,4.84375 -6.52609,0.92221 -12.896377,0.79772 -16.875,-4.375 -3.071499,-3.99291 -6.082251,-0.38758 -4.75,2.78125 2.840435,6.75633 12.474692,9.60058 21.875,5.0625 2.22709,-1.07525 4.61518,-0.91067 2.6875,1.75 -4.8365,6.67992 -11.27246,7.72915 -19.34375,2.78125 -2.38014,-1.45793 -4.243929,-1.23471 -4.78125,-0.3125 -0.944929,1.6182 -1.346315,3.0767 1.40625,5.0625 6.064974,4.37599 13.077278,4.07452 18.71875,1.15625 2.2271,-1.15146 6.29531,-2.07258 2.6875,2.6875 -3.60881,4.76109 -12.83189,7.21846 -16.59375,4.53125 -3.762649,-2.68801 -8.431779,-0.24049 -5.4375,3.90625 2.994488,4.14534 9.222065,3.067 12.0625,1.53125 2.84126,-1.53575 7.21968,-3.59311 9.0625,-4.4375 1.84222,-0.8452 2.68169,0.60337 0.59375,3 -4.68407,5.37543 -9.494913,9.88501 -16.03125,7.75 -3.761845,-1.22787 -7.217782,-1.3883 -6.21875,3.21875 0.997632,4.60544 8.754879,4.89768 12.59375,2.59375 3.83968,-2.30312 7.28983,-4.89809 9.59375,-7.125 2.30312,-2.2263 4.621,-2.16026 2.0625,1.59375 -5.7579,8.44511 -10.663154,14.63827 -18.875,13.0625 -7.600732,-1.45933 -5.704226,3.1055 -4.0625,4.53125 4.683254,4.06892 12.891135,2.98983 22.71875,-9.0625 0.76678,-0.94192 2.05067,-0.64932 1.375,1.09375 -4.37599,11.28636 -11.654551,18.5783 -18.71875,16.8125 -3.673781,-0.919 -7.288357,1.12453 -3.5625,4.375 4.22296,3.68564 11.90985,2.29823 17.4375,-3.84375 5.52845,-6.1428 8.92776,-10.50857 10.15625,-12.8125 1.22788,-2.30231 3.04357,-2.40153 2.8125,0.59375 -0.23005,2.99368 -2.45931,8.83016 -6.375,10.75 -2.02662,0.9936 -3.83807,3.21727 0,4.90625 3.83968,1.68878 8.37686,-5.14413 12.0625,-15.125 0.43296,-1.17278 2.9908,-1.44968 2.9375,0.78125 -0.0771,3.14832 -1.62372,5.7455 -3.3125,7.28125 -1.68959,1.53555 -0.3812,4.12918 1.90625,3.09375 3.22452,-1.45873 5.26739,-3.61218 6.53125,-6.84375 0.69136,-1.76519 2.24292,-2.38219 1.375,0.375 -2.61019,8.29188 -8.44806,12.28693 -16.125,16.125 1.15165,1.15146 2.21316,2.43191 3.25,3.46875 -4.72167,2.41875 -9.67786,4.01224 -13.59375,5.625 -3.1099,-2.07308 -5.86908,-3.19781 -7.25,-5.15625 -0.46029,-2.6488 -3.706772,-3.80691 -5.78125,-2.65625 -3.568795,-1.38172 -6.082257,-1.05789 -6.3125,2.28125 2.073063,-0.34548 3.784102,-0.66375 5.28125,0.71875 0.68975,1.61277 2.89588,2.40992 4.96875,1.71875 2.30313,1.38172 4.24328,2.76689 5.625,3.6875 -4.37619,-0.1147 -7.602332,-0.36451 -9.90625,-0.59375 -2.186898,-2.1877 -4.262424,-2.18384 -5.875,-0.6875 -2.648801,-0.57574 -4.715084,0.66564 -5.40625,2.96875 1.996052,-0.23005 3.850752,-0.94136 5.15625,-0.25 1.074643,1.99605 4.048904,2.08293 5.96875,0.625 2.917462,-0.0779 8.60156,-0.15625 9.90625,-0.15625 -1.91904,1.15165 -4.22413,2.5276 -5.375,3.21875 -4.530021,-0.92141 -6.96352,0.8539 -6.65625,4.15625 -1.074642,1.68899 -1.025052,4.08262 0.28125,5.15625 0.305453,-1.3817 1.081012,-3.15861 2.15625,-4.15625 2.763634,0.53652 4.780601,-0.39746 5.625,-3.46875 1.7652,-1.15167 4.04814,-2.60442 4.96875,-3.21875 0.92221,-0.61333 1.6752,-1.31049 3.78125,-0.375 2.07287,0.92221 3.99087,1.68464 5.21875,2.375 0.69117,2.6872 3.27997,2.85427 4.96875,1.625 1.07545,0.61414 2.00985,1.6921 2.625,2.84375 0.99762,-1.766 0.45108,-4.16792 -1.46875,-4.78125 -0.69136,-2.07386 -3.14046,-2.74763 -4.90625,-1.75 -1.45873,-0.61354 -3.51609,-1.61591 -4.4375,-2 2.99428,-1.07384 10.59403,-3.91104 13.28125,-5.0625 2.53337,1.91964 5.36442,3.75586 7.4375,3.21875 0.30706,-1.84282 1.25331,-3.37072 2.53125,-6 2.03447,-4.18435 4.55274,-8.08065 6.625,-10.5 2.07367,-2.41875 4.17502,-1.05568 4.03125,2.28125 -0.34488,8.06103 -6.27827,20.13346 -15.03125,20.59375 -2.99288,0.15862 -4.17922,0.7745 -2.53125,3 1.53574,2.07287 6.28889,2.33244 8.9375,0.375 2.6488,-1.95826 3.56919,-1.82975 3.03125,0.78125 -0.53652,2.61039 -3.52773,3.59214 -5.75,3.75 -3.22454,0.23107 -6.90072,1.392 -3.90625,4.15625 2.99449,2.76281 7.89118,1.20763 11.5,-2.9375 1.25201,-1.43923 2.24573,-1.83758 2.15625,0.46875 -0.15315,3.99191 -2.54305,6.52598 -5,7.0625 -2.45636,0.53732 -4.90769,1.20005 -4.21875,2.625 1.15226,2.38014 5.00718,2.74441 7.15625,1.59375 2.1509,-1.15247 4.44435,-3.28905 4.90625,-4.59375 0.46031,-1.30571 1.40762,-0.57137 1.15625,1.21875 -0.53652,3.83887 -3.25,3.75793 -3.25,6.90625 0,3.14771 2.6178,6.23191 5.6875,9.6875 3.07271,-3.45559 5.6875,-6.53979 5.6875,-9.6875 0,-3.14832 -2.68183,-3.06738 -3.21875,-6.90625 -0.25137,-1.79012 0.69575,-2.52446 1.15625,-1.21875 0.46051,1.3047 2.75455,3.44128 4.90625,4.59375 2.14768,1.15066 5.97474,0.78639 7.125,-1.59375 0.68975,-1.42495 -1.76139,-2.08768 -4.21875,-2.625 -2.45535,-0.53652 -4.81592,-3.07059 -4.96875,-7.0625 -0.0906,-2.30633 0.87219,-1.90798 2.125,-0.46875 3.60762,4.14513 8.53697,5.70031 11.53125,2.9375 2.99428,-2.76425 -0.68272,-3.92518 -3.90625,-4.15625 -2.22208,-0.15782 -5.24232,-1.13961 -5.78125,-3.75 -0.53692,-2.611 0.38285,-2.73951 3.03125,-0.78125 2.6484,1.95742 7.43441,1.69787 8.96875,-0.375 1.64897,-2.2255 0.46102,-2.84133 -2.53125,-3 -8.75359,-0.46029 -14.71863,-12.53272 -15.0625,-20.59375 -0.14286,-3.33693 1.95597,-4.7 4.03125,-2.28125 2.07126,2.41935 4.62118,6.31565 6.65625,10.5 1.27694,2.62928 2.22357,4.15718 2.53125,6 2.07327,0.53711 4.90373,-1.29911 7.4375,-3.21875 2.68862,1.15146 10.28697,3.98866 13.28125,5.0625 -0.921,0.38409 -3.01083,1.38646 -4.46875,2 -1.7656,-0.99763 -4.21449,-0.32386 -4.90625,1.75 -1.91843,0.61333 -2.43492,3.01525 -1.4375,4.78125 0.61535,-1.15165 1.51791,-2.22961 2.59375,-2.84375 1.68919,1.22927 4.30824,1.0622 5,-1.625 1.22667,-0.69036 3.14548,-1.45279 5.21875,-2.375 2.10545,-0.93549 2.82698,-0.23833 3.75,0.375 0.921,0.61433 3.23239,2.06708 5,3.21875 0.84258,3.07129 2.83073,4.00527 5.59375,3.46875 1.07585,0.99764 1.85059,2.77453 2.15625,4.15625 1.30711,-1.07365 1.38835,-3.46728 0.3125,-5.15625 0.30767,-3.30236 -2.15888,-5.07766 -6.6875,-4.15625 -1.15226,-0.69115 -3.45456,-2.0671 -5.375,-3.21875 1.3051,0 6.99039,0.0786 9.90625,0.15625 1.92044,1.45793 4.92616,1.37105 6,-0.625 1.3051,-0.69136 3.13016,0.0199 5.125,0.25 -0.68975,-2.30311 -2.75785,-3.54449 -5.40625,-2.96875 -1.61277,-1.49634 -3.6871,-1.5002 -5.875,0.6875 -2.30252,0.22924 -5.53045,0.47913 -9.90625,0.59375 1.38151,-0.92061 3.35173,-2.30578 5.65625,-3.6875 2.07327,0.69117 4.24775,-0.10606 4.9375,-1.71875 1.49815,-1.3825 3.23922,-1.06423 5.3125,-0.71875 -0.22925,-3.33914 -2.77434,-3.66297 -6.34375,-2.28125 -2.07328,-1.15066 -5.28749,0.007 -5.75,2.65625 -1.3795,1.95844 -4.1411,3.08317 -7.25,5.15625 -3.91731,-1.61276 -8.87208,-3.20625 -13.59375,-5.625 1.03563,-1.03684 2.06849,-2.31729 3.21875,-3.46875 -7.67572,-3.83807 -13.51481,-7.83312 -16.125,-16.125 -0.86872,-2.75719 0.68324,-2.1402 1.375,-0.375 1.26488,3.23157 3.30772,5.38502 6.53125,6.84375 2.28844,1.03543 3.62669,-1.5582 1.9375,-3.09375 -1.68919,-1.53575 -3.23609,-4.13293 -3.3125,-7.28125 -0.0542,-2.23093 2.4739,-1.95403 2.90625,-0.78125 3.68604,9.98086 8.22363,16.81378 12.0625,15.125 3.83887,-1.68899 2.02702,-3.91264 0,-4.90625 -3.91529,-1.91984 -6.14374,-7.75632 -6.375,-10.75 -0.22924,-2.99529 1.61507,-2.89607 2.84375,-0.59375 1.22868,2.30393 4.59695,6.66971 10.125,12.8125 5.52806,6.14199 13.21454,7.52939 17.4375,3.84375 3.72626,-3.25048 0.14265,-5.29399 -3.53125,-4.375 -7.06441,1.7658 -14.37421,-5.52614 -18.75,-16.8125 -0.67568,-1.74308 0.64008,-2.03567 1.40625,-1.09375 9.82743,12.05233 18.0373,13.13142 22.71875,9.0625 1.64293,-1.42575 3.53883,-5.99059 -4.0625,-4.53125 -8.21265,1.57577 -13.14895,-4.61739 -18.90625,-13.0625 -2.55992,-3.75401 -0.21077,-3.82005 2.09375,-1.59375 2.30252,2.22691 5.75488,4.82188 9.59375,7.125 3.83887,2.30393 11.59432,2.01169 12.59375,-2.59375 0.99743,-4.60705 -2.4563,-4.44663 -6.21875,-3.21875 -6.53553,2.13501 -11.37903,-2.37457 -16.0625,-7.75 -2.08936,-2.39663 -1.21702,-3.8452 0.625,-3 1.84202,0.84439 6.22306,2.90175 9.0625,4.4375 2.84145,1.53575 9.03697,2.61409 12.03125,-1.53125 2.99428,-4.14674 -1.67705,-6.59426 -5.4375,-3.90625 -3.76245,2.68721 -12.98614,0.22984 -16.59375,-4.53125 -3.60963,-4.76008 0.4614,-3.83896 2.6875,-2.6875 5.64268,2.91826 12.68503,3.21974 18.75,-1.15625 2.75297,-1.9858 2.32014,-3.4443 1.375,-5.0625 -0.53692,-0.92221 -2.37107,-1.14543 -4.75,0.3125 -8.07189,4.9479 -14.50746,3.89867 -19.34375,-2.78125 -1.92849,-2.66066 0.4614,-2.82525 2.6875,-1.75 9.40111,4.53807 19.03355,1.69383 21.875,-5.0625 1.33325,-3.16883 -1.71056,-6.77416 -4.78125,-2.78125 -3.97964,5.17272 -10.34952,5.29721 -16.875,4.375 -3.13303,-0.4424 -3.16171,-4.41643 0.15625,-4.84375 7.13881,-0.92141 18.43414,-5.58846 21.8125,-11.34375 2.80525,-4.781999 -2.84746,-10.368385 -5.84375,-4.6875 -2.99427,5.682897 -9.30718,9.34991 -16.21875,11.5 -2.43725,0.75792 -3.29859,0.70488 -3.375,-0.0625 -0.11052,-1.09454 -0.91933,-3.00567 -1.6875,-2.46875 -1.91843,1.07585 -8.80913,3.45902 -12.1875,4.6875 -3.37837,1.22768 -4.93408,4.31581 -4.78125,7.15625 0.15283,2.84125 0.92864,7.8125 -4.0625,7.8125 -7.9834,0 -4.63001,-12.87944 0.0937,-16.78125 3.64582,-3.01218 7.59947,-4.48267 10.59375,-4.40625 2.99428,0.0764 6.56037,-1.13301 6.90625,-3.84375 0.72796,-0.154842 2.10952,-0.5 3.53125,-0.5 1.07384,0 3.09432,-1.1172 4.09375,-2 0.99743,-0.8828 2.18493,-2.311658 1.1875,-3.15625 -0.99943,-0.844592 -2.57417,0.590778 -3.1875,1.78125 -0.61534,1.188461 -1.92009,2.017334 -2.59375,2.09375 -0.9934,0.112612 -2.704,0.395754 -3.625,0.625 -0.92302,0.229247 -2.42841,-0.0082 -2.8125,-0.46875 -0.75008,-0.900898 0.0762,-1.448521 1.09375,-1.8125 1.16634,-0.418274 2.41526,-0.281328 2.78125,0.46875 0.25539,0.524853 0.70677,0.986085 1.53125,1.0625 0.921,-5.143967 -4.07221,-4.887507 -8.21875,-4.65625 -2.45736,-3.917298 -8.84296,-1.229522 -13.21875,0.84375 -2.07328,0.462515 -5.6094,0.205676 -7.375,-0.5625 -1.76561,-0.768177 -1.67583,0.155408 -1.0625,1 0.61534,0.844592 2.82899,2.395754 3.75,2.625 0.921,0.231257 0.61817,0.678412 0.3125,1.0625 -0.97128,1.214604 -3.12757,2.378419 -4.125,2.53125 -0.99742,0.154842 -1.31817,0.615912 -0.78125,1 0.53692,0.384088 1.29433,0.86249 2.0625,1.09375 0.76818,0.22925 0.7105,0.51167 0.25,1.125 -0.95117,1.26689 -3.46992,2.56109 -4.3125,2.40625 -0.84459,-0.15283 -0.93067,0.30341 -0.625,0.6875 0.30767,0.38409 1.47841,0.90625 2.09375,0.90625 0.61333,0 0.67105,0.12931 0.15625,0.78125 -0.55702,0.70604 -1.82948,2.22599 -2.9375,1.90625 -1.49815,-0.43275 -1.86675,-0.0707 -1.40625,0.5625 1.08389,1.49231 1.0267,2.1723 -1.125,2.53125 -2.14827,-0.35895 -2.2093,-1.03894 -1.125,-2.53125 0.4605,-0.63324 0.0906,-0.99525 -1.40625,-0.5625 -1.10841,0.31974 -2.34942,-1.20021 -2.90625,-1.90625 -0.51459,-0.65194 -0.4572,-0.78125 0.15625,-0.78125 0.61495,0 1.75624,-0.52216 2.0625,-0.90625 0.30727,-0.38409 0.21959,-0.84033 -0.625,-0.6875 -0.84439,0.15484 -3.33169,-1.13936 -4.28125,-2.40625 -0.46031,-0.61333 -0.54942,-0.89575 0.21875,-1.125 0.76738,-0.23126 1.55723,-0.709662 2.09375,-1.09375 0.53732,-0.384088 0.21717,-0.845158 -0.78125,-1 -0.99763,-0.152831 -3.18537,-1.316646 -4.15625,-2.53125 -0.30787,-0.384088 -0.6083,-0.831243 0.3125,-1.0625 0.92221,-0.229246 3.13565,-1.780408 3.75,-2.625 0.61414,-0.844592 0.70249,-1.768177 -1.0625,-1 -1.76581,0.768176 -5.30192,1.025015 -7.375,0.5625 -2.73499,-1.295795 -6.24234,-2.830809 -9.09375,-2.84375 z m 1.4375,4.65625 c 0.79081,0.0055 1.64868,0.230406 2.4375,0.625 1.07372,0.53886 0.68804,1.456273 -0.15625,1.6875 -0.84427,0.231224 -2.45917,0.227788 -3.6875,-0.15625 -1.22768,-0.384038 -0.98076,-1.445806 0.0937,-1.90625 0.40317,-0.172666 0.83801,-0.253311 1.3125,-0.25 z m 45.5625,0 c 0.47449,-0.0033 0.94058,0.07733 1.34375,0.25 1.07451,0.460444 1.29019,1.522212 0.0625,1.90625 -1.22833,0.384038 -2.84323,0.387474 -3.6875,0.15625 -0.84429,-0.231227 -1.22997,-1.14864 -0.15625,-1.6875 0.78882,-0.394594 1.64669,-0.619482 2.4375,-0.625 z" style="fill:#000000;fill-opacity:1;fill-rule:nonzero;stroke:none"/>
    </g>
  </g>
</svg>