<?xml version="1.0" encoding="UTF-8" standalone="no"?>
<!-- Created with Inkscape (http://www.inkscape.org/) -->

<svg
   xmlns:dc="http://purl.org/dc/elements/1.1/"
   xmlns:cc="http://creativecommons.org/ns#"
   xmlns:rdf="http://www.w3.org/1999/02/22-rdf-syntax-ns#"
   xmlns:svg="http://www.w3.org/2000/svg"
   xmlns="http://www.w3.org/2000/svg"
   xmlns:sodipodi="http://sodipodi.sourceforge.net/DTD/sodipodi-0.dtd"
   xmlns:inkscape="http://www.inkscape.org/namespaces/inkscape"
   version="1.0"
   width="1004.9"
   height="369.1785"
   id="svg2"
   xml:space="preserve"
   inkscape:version="0.48.5 r10040"
   sodipodi:docname="aut.svg"><metadata
     id="metadata10"><rdf:RDF><cc:Work
         rdf:about=""><dc:format>image/svg+xml</dc:format><dc:type
           rdf:resource="http://purl.org/dc/dcmitype/StillImage" /></cc:Work></rdf:RDF></metadata><sodipodi:namedview
     pagecolor="#ffffff"
     bordercolor="#666666"
     borderopacity="1"
     objecttolerance="10"
     gridtolerance="10"
     guidetolerance="10"
     inkscape:pageopacity="0"
     inkscape:pageshadow="2"
     inkscape:window-width="640"
     inkscape:window-height="480"
     id="namedview8"
     showgrid="false"
     inkscape:zoom="0.32970297"
     inkscape:cx="502.45005"
     inkscape:cy="184.58925"
     inkscape:window-x="0"
     inkscape:window-y="0"
     inkscape:window-maximized="0"
     inkscape:current-layer="svg2"
     fit-margin-top="0"
     fit-margin-left="0"
     fit-margin-right="0"
     fit-margin-bottom="0" /><defs
     id="defs5" /><g
     id="g2987"
     transform="translate(-2.54995,-2.91075)"><path
       style="fill:#ffffff;fill-opacity:1;fill-rule:nonzero;stroke:none"
       id="weiss"
       d="m 2.54995,187.50075 c 0,-101.946 224.9541,-184.59 502.4496,-184.59 277.497,0 502.45045,82.644 502.45045,184.59 0,101.9445 -224.95345,184.5885 -502.45045,184.5885 -277.4955,0 -502.4496,-82.644 -502.4496,-184.5885"
       inkscape:connector-curvature="0" /><path
       style="fill:#da262d;fill-opacity:1;fill-rule:evenodd;stroke:none"
       id="rot"
       d="m 505.7003,13.48185 c -269.418,0 -487.84375,77.55902 -487.84375,173.25 0,14.184 4.85385,28.04173 13.96875,41.34375 52.40505,76.3995 246.19499,134.48576 475.6875,132.71875 15.294,-0.117 41.58874,-0.10552 55.34375,-1.25 -8.7165,-0.888 -14.51725,-0.75301 -25.84375,-1.125 -190.4565,-6.219 -377.83305,-55.31402 -419.4375,-128.8125 -0.3369,-0.5055 -0.673,-1.01077 -1,-1.53125 -7.44495,-11.5815 -11.40625,-23.62777 -11.40625,-36.03125 0,-60.0795 90.60275,-112.82201 226.71875,-140.125 91.401,-18.336 160.9405,-26.03126 254.3125,-26.03125 56.9595,0 111.46425,3.69799 161.71875,10.4375 C 676.55055,21.7936 593.86429,13.48184 505.7003,13.48185 z m 119.53125,23.125 c -147.8595,0 -275.2965,36.3345 -333.375,88.6875 66.1005,-28.1505 162.69025,-43.59576 268.28125,-45.78125 222.12,-4.596 372.24997,63.067 372.25,140.875 0,2.5785 -0.16701,5.13448 -0.5,7.6875 -3.702,28.452 -27.81275,54.64924 -66.40625,76.15625 54.831,-19.7505 95.40799,-46.14127 114.5,-76.15625 7.9245,-12.459 12.15626,-25.53577 12.15625,-39.03125 0,-84.1815 -164.27726,-152.43749 -366.90625,-152.4375 z"
       inkscape:connector-curvature="0" /><path
       style="fill:#292526;fill-opacity:1;fill-rule:evenodd;stroke:none"
       id="ofb"
       d="m 286.5753,125.54435 c -38.20317,0.53852 -62.20356,9.27921 -74.125,15.75 -14.067,7.362 -33.28425,21.91448 -36.28125,48.625 -1.1745,10.488 0.6885,18.9825 4.125,25.875 l 40.90625,0.0312 -40.90625,0 c 5.136,10.3305 13.7905,17.03424 21.0625,21.34375 13.9245,8.3895 30.43675,11.97327 50.21875,14.03125 11.5335,1.194 21.8225,1.37498 26,1.375 42.06,0 66.84824,-10.43447 79.59375,-18.3125 6.051,-3.594 10.4845,-7.72574 12.0625,-9.09375 2.874,-2.538 6.09651,-5.571 9.125,-9.375 4.9425,-6.2145 9.36875,-14.48697 10.90625,-26.0625 3.2115,-24.1425 -6.704,-36.75478 -17.1875,-44.59375 -0.924,-0.6945 -2.09375,-1.40928 -2.84375,-1.78125 -21.129,-10.4025 -49.40349,-5.652 -67.5625,0.5625 -11.8755,4.0605 -24.30225,10.69824 -34.21875,18.53125 5.1525,-1.0005 11.37625,-1.6875 18.71875,-1.6875 2.3595,0 4.69275,0.0658 7.03125,0.21875 4.9275,0.2295 19.80651,1.30651 29.375,8.625 4.494,3.507 9.08575,8.99652 7.65625,19.75 -1.107,8.307 -5.53125,12.80375 -8.90625,15.78125 -0.7005,0.6075 -2.684,2.43226 -5.375,4.03125 -3.6315,2.247 -9.46425,4.9555 -18.09375,6.625 -4.8615,0.939 -10.59375,1.53125 -17.34375,1.53125 -1.8585,0 -6.45775,-0.0583 -11.59375,-0.59375 -2.3745,-0.2445 -4.6435,-0.5595 -6.8125,-0.9375 l -0.15625,0 c -5.8119,-1.01672 -10.8876,-2.61026 -15.375,-5.3125 -5.07,-3.0075 -11.6615,-8.61901 -11.375,-18.9375 -0.1275,-4.4025 -1.4995,-20.06472 24.3125,-42.84375 14.379,-12.6885 28.99325,-20.86874 32.09375,-23.15625 l -1.3125,0 c -1.26202,0 -2.48639,-0.0174 -3.71875,0 z m 161.96875,5.53125 -1.78125,0.0312 c -17.6715,0.9135 -34.1345,15.41273 -37.25,33.15625 l -8.96875,51.53125 -5.875,33.84375 60.21875,0 6.03125,-27.21875 77.09375,0.0312 c 7.047,0 12.59298,-2.58675 16.25,-6.65625 2.1795,-2.436 3.698,-5.39351 4.4375,-8.6875 1.9455,-8.6295 4.00001,-17.24998 4,-17.25 l -95.65625,0.0312 1.90625,-12.53125 c 1.398,-4.203 3.90525,-6.78451 8.53125,-7.5 l 78.0625,-0.0625 c 12.735,0 20.22974,-6.03024 22.59375,-16.65625 2.364,-10.656 5.25,-22.06251 5.25,-22.0625 l -134.84375,0 z m 187.4375,0 c -18.3315,0 -35.81374,14.85598 -39.03125,33.1875 l -9.34375,51.53125 -6.125,33.84375 143.375,0 c 18.3315,1e-5 50.335,-0.62275 55.5625,-32.78125 0.0615,-0.357 0.11425,-0.7145 0.15625,-1.0625 3.171,-25.056 -29.24998,-27.81252 -29.25,-27.8125 0,0 28.21675,0.44424 32.03125,-24.21875 3.8355,-24.831 -18.012,-32.68749 -40.5,-32.6875 l -106.875,0 z m 28.59375,28.03125 55.875,0.0625 c 4.75949,-2e-5 11.454,3.007 9.9375,9.625 l -0.21875,1.4375 c -2.03099,8.97298 -9.08575,9.15625 -13.84375,9.15625 l -65.90625,0 1.8125,-8.96875 c 1.36353,-7.31702 4.45075,-11.3125 12.34375,-11.3125 z m -17.65625,41.4375 67.4375,0 c 4.7595,0 11.45398,3.00252 9.9375,9.625 l -0.1875,1.4375 c -0.3825,1.689 -0.96626,3.07 -1.65625,4.1875 -2.97151,4.8405 -8.322,4.96875 -12.1875,4.96875 l -67.46875,0 1,-4.96875 3.125,-15.25 z"
       inkscape:connector-curvature="0" /><path
       style="fill:#292526;fill-opacity:1;fill-rule:evenodd;stroke:none"
       id="ball"
       d="m 788.13355,323.79525 c -0.261,-2.5485 3.5535,-1.5435 5.2845,-1.614 2.517,-0.1065 20.349,-5.2485 27.237,-8.538 l -0.1335,-2.2515 c 0,-2.2365 2.7825,-3.012 3.7575,-0.8625 0.1125,0.2445 0.732,1.9755 0.732,1.9755 5.5395,-0.807 13.6125,-1.878 19.623,-3.4935 l 1.506,-0.6315 c 1.1175,-0.597 3.9165,-2.7075 5.1675,-2.247 0.393,0.147 0.7035,0.582 1.0215,0.996 -12.0765,10.4625 -27.6405,17.268 -44.961,18.4785 -6.5865,0.459 -13.035,0.081 -19.2345,-1.0365 -0.036,-0.3525 0.009,-0.6795 0,-0.7755 z m -4.116,-31.0725 c -1.71,0.414 -2.4555,-1.659 -1.0725,-2.793 1.8435,-1.506 3.468,-3.222 5.433,-4.5795 0.48,-6.7455 1.3785,-15.063 2.7225,-25.128 -1.4355,-1.848 -2.655,-3.8295 -4.0455,-5.709 -0.9795,-1.3365 0.624,-2.823 1.962,-1.9605 2.6445,1.701 2.7825,1.359 5.6115,3.3345 8.4045,-2.298 13.623,-3.942 22.446,-6.5925 0.9405,-1.8735 2.4105,-4.2885 3.3,-6.3105 0.9435,-2.166 3.3645,-0.588 3.267,0.582 -0.168,2.0175 -0.5715,5.2035 -0.8775,7.374 6.597,7.9905 12.0855,15.3945 15.273,20.475 2.553,0.1635 5.019,0.414 7.5555,0.735 0.936,0.123 2.181,3.207 -0.321,3.4935 -2.538,0.291 -4.029,0.7245 -6.48,0.786 l -0.561,0.189 c -4.029,6.378 -10.917,15.987 -15.861,20.409 0,2.0025 0.4965,4.371 0.3945,6.057 -0.1185,1.812 -2.9205,2.2815 -3.375,0.627 -0.42,-1.527 -1.5525,-4.2435 -2.007,-5.76 -7.5015,-0.8775 -17.9235,-3.885 -25.4295,-7.4235 -3.078,0.663 -4.785,1.434 -7.935,2.1945 z m -54.6315,-25.4595 c 2.109,3.825 4.0095,6.3735 5.796,6.9855 l 5.025,-1.2405 c 0.756,-2.4405 1.8015,-5.3865 2.256,-6.387 0.72,-1.584 2.901,-0.7365 2.778,0.9795 -0.153,2.181 -0.8415,4.2585 -0.8265,6.48 5.2185,7.557 14.685,16.524 22.59,20.2815 l 0.5145,-0.03 1.68,-0.087 c 1.2615,-0.0765 4.83,-0.879 5.52,0.69 0.915,2.073 -4.0185,3.1455 -5.2335,3.5535 -0.603,4.932 1.557,13.0515 3.135,16.32 0.777,0.714 1.5885,2.0565 2.16,2.277 l 1.011,0.771 c 1.4295,0.633 1.8225,2.532 0.1125,3.4365 -23.8665,-8.5695 -42.3105,-28.62 -47.8245,-53.7735 0.414,-0.501 0.9705,-0.522 1.3065,-0.2565 z m 134.6865,24.516 c -1.0425,-1.062 0.5715,-3.942 0.858,-5.484 -0.5055,-3.126 -2.451,-9.4875 -4.983,-12.7455 -2.064,0.486 -4.086,1.0575 -5.9145,1.3185 -1.8375,0.2595 -2.604,-2.376 -0.939,-3.147 1.2825,-0.597 3.3855,-1.4145 5.301,-2.343 5.121,-6.618 8.685,-19.7775 9.375,-29.6775 -0.573,-2.109 -1.68,-3.585 -3.1515,-5.76 -1.0665,-1.572 0.69,-3.375 2.0325,-2.031 1.563,1.5615 2.982,2.772 4.2225,3.987 l 0.8535,-0.5205 c 0.663,-0.3885 0.756,-0.378 1.5975,-0.69 l -0.873,-5.82 c 0.015,-0.9345 0.6135,-1.605 1.389,-1.665 2.145,6.0555 3.513,12.489 3.984,19.1985 1.1835,16.9425 -3.549,32.961 -12.486,46.11 -0.495,-0.093 -0.99,-0.4455 -1.266,-0.7305 z m -54.5655,-110.0385 c -1.041,-1.8285 -5.5545,-1.665 -5.5035,-4.1565 22.881,0.4395 43.5405,10.9215 57.1785,27.363 -0.612,0.342 -1.149,0.5325 -1.521,0.5115 -0.879,-0.0405 -4.1355,-2.823 -4.8765,-2.001 -0.0555,3.267 0.219,4.263 0.4035,8.997 1.1895,1.9905 4.065,4.263 3.1395,5.9475 -1.2855,2.3445 -3.6405,-1.3575 -5.565,-2.3325 -4.698,1.347 -14.589,4.2015 -22.6515,6.9645 -0.7155,1.128 -3.054,5.1525 -3.054,5.1525 -1.2405,1.8885 -3.318,0.975 -3.1245,-0.684 0.2295,-1.947 0.384,-4.182 0.588,-5.904 -6.9555,-7.8675 -13.4505,-14.2515 -19.353,-17.253 -1.644,0.1575 -5.3775,0.495 -5.6475,0.4905 -1.5375,-0.0255 -2.154,-2.1915 -0.588,-2.835 0.327,-0.132 2.7375,-1.3635 4.0965,-2.1645 2.1285,-6.459 3.324,-8.808 4.0545,-11.136 0.75,-2.406 1.4445,-4.0545 2.424,-6.96"
       inkscape:connector-curvature="0" /></g></svg>