<?xml version="1.0" encoding="UTF-8" standalone="no"?>
<svg
   xmlns:dc="http://purl.org/dc/elements/1.1/"
   xmlns:cc="http://creativecommons.org/ns#"
   xmlns:rdf="http://www.w3.org/1999/02/22-rdf-syntax-ns#"
   xmlns:svg="http://www.w3.org/2000/svg"
   xmlns="http://www.w3.org/2000/svg"
   viewBox="0 0 98.706665 133.33333"
   height="133.33333"
   width="98.706665"
   xml:space="preserve"
   id="svg2"
   version="1.1"><metadata
     id="metadata8"><rdf:RDF><cc:Work
         rdf:about=""><dc:format>image/svg+xml</dc:format><dc:type
           rdf:resource="http://purl.org/dc/dcmitype/StillImage" /></cc:Work></rdf:RDF></metadata><defs
     id="defs6" /><g
     transform="matrix(1.3333333,0,0,-1.3333333,0,133.33333)"
     id="g10"><g
       transform="scale(0.1)"
       id="g12"><path
         id="path14"
         style="fill:#bc9e1b;fill-opacity:1;fill-rule:nonzero;stroke:none"
         d="m 373.863,918.246 c -1.672,4.227 -7.238,5.633 -11.015,3.332 -6.395,-3.512 -3.243,-15.16 4.402,-14.101 5.441,-0.731 9.023,6.277 6.613,10.769 z m 0,0 c -1.672,4.227 -7.238,5.633 -11.015,3.332 -6.395,-3.512 -3.243,-15.16 4.402,-14.101 5.441,-0.731 9.023,6.277 6.613,10.769 z m 0,0 c -1.672,4.227 -7.238,5.633 -11.015,3.332 -6.395,-3.512 -3.243,-15.16 4.402,-14.101 5.441,-0.731 9.023,6.277 6.613,10.769 z m 0,0 c -1.672,4.227 -7.238,5.633 -11.015,3.332 -6.395,-3.512 -3.243,-15.16 4.402,-14.101 5.441,-0.731 9.023,6.277 6.613,10.769 z m 0,0 c -1.672,4.227 -7.238,5.633 -11.015,3.332 -6.395,-3.512 -3.243,-15.16 4.402,-14.101 5.441,-0.731 9.023,6.277 6.613,10.769 z m 0,0 c -1.672,4.227 -7.238,5.633 -11.015,3.332 -6.395,-3.512 -3.243,-15.16 4.402,-14.101 5.441,-0.731 9.023,6.277 6.613,10.769 z m 0,0 c -1.672,4.227 -7.238,5.633 -11.015,3.332 -6.395,-3.512 -3.243,-15.16 4.402,-14.101 5.441,-0.731 9.023,6.277 6.613,10.769 z m 0,0 c -1.672,4.227 -7.238,5.633 -11.015,3.332 -6.395,-3.512 -3.243,-15.16 4.402,-14.101 5.441,-0.731 9.023,6.277 6.613,10.769 z m 0,0 c -1.672,4.227 -7.238,5.633 -11.015,3.332 -6.395,-3.512 -3.243,-15.16 4.402,-14.101 5.441,-0.731 9.023,6.277 6.613,10.769 z m 0,0 c -1.672,4.227 -7.238,5.633 -11.015,3.332 -6.395,-3.512 -3.243,-15.16 4.402,-14.101 5.441,-0.731 9.023,6.277 6.613,10.769 z m 0,0 c -1.672,4.227 -7.238,5.633 -11.015,3.332 -6.395,-3.512 -3.243,-15.16 4.402,-14.101 5.441,-0.731 9.023,6.277 6.613,10.769 z m 0,0 c -1.672,4.227 -7.238,5.633 -11.015,3.332 -6.395,-3.512 -3.243,-15.16 4.402,-14.101 5.441,-0.731 9.023,6.277 6.613,10.769 z m 0,0 c -1.672,4.227 -7.238,5.633 -11.015,3.332 -6.395,-3.512 -3.243,-15.16 4.402,-14.101 5.441,-0.731 9.023,6.277 6.613,10.769 z m 0,0 c -1.672,4.227 -7.238,5.633 -11.015,3.332 -6.395,-3.512 -3.243,-15.16 4.402,-14.101 5.441,-0.731 9.023,6.277 6.613,10.769 z m 0,0 c -1.672,4.227 -7.238,5.633 -11.015,3.332 -6.395,-3.512 -3.243,-15.16 4.402,-14.101 5.441,-0.731 9.023,6.277 6.613,10.769 z m 0,0 c -1.672,4.227 -7.238,5.633 -11.015,3.332 -6.395,-3.512 -3.243,-15.16 4.402,-14.101 5.441,-0.731 9.023,6.277 6.613,10.769 z m 0,0 c -1.672,4.227 -7.238,5.633 -11.015,3.332 -6.395,-3.512 -3.243,-15.16 4.402,-14.101 5.441,-0.731 9.023,6.277 6.613,10.769 z m 0,0 c -1.672,4.227 -7.238,5.633 -11.015,3.332 -6.395,-3.512 -3.243,-15.16 4.402,-14.101 5.441,-0.731 9.023,6.277 6.613,10.769 z m 0,0 c -1.672,4.227 -7.238,5.633 -11.015,3.332 -6.395,-3.512 -3.243,-15.16 4.402,-14.101 5.441,-0.731 9.023,6.277 6.613,10.769 z m 0,0 c -1.672,4.227 -7.238,5.633 -11.015,3.332 -6.395,-3.512 -3.243,-15.16 4.402,-14.101 5.441,-0.731 9.023,6.277 6.613,10.769 z m 0,0 c -1.672,4.227 -7.238,5.633 -11.015,3.332 -6.395,-3.512 -3.243,-15.16 4.402,-14.101 5.441,-0.731 9.023,6.277 6.613,10.769 z m 0,0 c -1.672,4.227 -7.238,5.633 -11.015,3.332 -6.395,-3.512 -3.243,-15.16 4.402,-14.101 5.441,-0.731 9.023,6.277 6.613,10.769 z m 0,0 c -1.672,4.227 -7.238,5.633 -11.015,3.332 -6.395,-3.512 -3.243,-15.16 4.402,-14.101 5.441,-0.731 9.023,6.277 6.613,10.769 z m 0,0 c -1.672,4.227 -7.238,5.633 -11.015,3.332 -6.395,-3.512 -3.243,-15.16 4.402,-14.101 5.441,-0.731 9.023,6.277 6.613,10.769 z m 0,0 c -1.672,4.227 -7.238,5.633 -11.015,3.332 -6.395,-3.512 -3.243,-15.16 4.402,-14.101 5.441,-0.731 9.023,6.277 6.613,10.769 z m 0,0 c -1.672,4.227 -7.238,5.633 -11.015,3.332 -6.395,-3.512 -3.243,-15.16 4.402,-14.101 5.441,-0.731 9.023,6.277 6.613,10.769 z m 0,0 c -1.672,4.227 -7.238,5.633 -11.015,3.332 -6.395,-3.512 -3.243,-15.16 4.402,-14.101 5.441,-0.731 9.023,6.277 6.613,10.769 z m 0,0 c -1.672,4.227 -7.238,5.633 -11.015,3.332 -6.395,-3.512 -3.243,-15.16 4.402,-14.101 5.441,-0.731 9.023,6.277 6.613,10.769 z m 0,0 c -1.672,4.227 -7.238,5.633 -11.015,3.332 -6.395,-3.512 -3.243,-15.16 4.402,-14.101 5.441,-0.731 9.023,6.277 6.613,10.769 z m 0,0 c -1.672,4.227 -7.238,5.633 -11.015,3.332 -6.395,-3.512 -3.243,-15.16 4.402,-14.101 5.441,-0.731 9.023,6.277 6.613,10.769 z m 0,0 c -1.672,4.227 -7.238,5.633 -11.015,3.332 -6.395,-3.512 -3.243,-15.16 4.402,-14.101 5.441,-0.731 9.023,6.277 6.613,10.769 z m 0,0 c -1.672,4.227 -7.238,5.633 -11.015,3.332 -6.395,-3.512 -3.243,-15.16 4.402,-14.101 5.441,-0.731 9.023,6.277 6.613,10.769 z m 0,0 c -1.672,4.227 -7.238,5.633 -11.015,3.332 -6.395,-3.512 -3.243,-15.16 4.402,-14.101 5.441,-0.731 9.023,6.277 6.613,10.769 z m 0,0 c -1.672,4.227 -7.238,5.633 -11.015,3.332 -6.395,-3.512 -3.243,-15.16 4.402,-14.101 5.441,-0.731 9.023,6.277 6.613,10.769 z m 0,0 c -1.672,4.227 -7.238,5.633 -11.015,3.332 -6.395,-3.512 -3.243,-15.16 4.402,-14.101 5.441,-0.731 9.023,6.277 6.613,10.769 z m 0,0 c -1.672,4.227 -7.238,5.633 -11.015,3.332 -6.395,-3.512 -3.243,-15.16 4.402,-14.101 5.441,-0.731 9.023,6.277 6.613,10.769 z m 0,0 c -1.672,4.227 -7.238,5.633 -11.015,3.332 -6.395,-3.512 -3.243,-15.16 4.402,-14.101 5.441,-0.731 9.023,6.277 6.613,10.769 z m 0,0 c -1.672,4.227 -7.238,5.633 -11.015,3.332 -6.395,-3.512 -3.243,-15.16 4.402,-14.101 5.441,-0.731 9.023,6.277 6.613,10.769 z m 0,0 c -1.672,4.227 -7.238,5.633 -11.015,3.332 -6.395,-3.512 -3.243,-15.16 4.402,-14.101 5.441,-0.731 9.023,6.277 6.613,10.769 z m 0,0 c -1.672,4.227 -7.238,5.633 -11.015,3.332 -6.395,-3.512 -3.243,-15.16 4.402,-14.101 5.441,-0.731 9.023,6.277 6.613,10.769 z m 0,0 c -1.672,4.227 -7.238,5.633 -11.015,3.332 -6.395,-3.512 -3.243,-15.16 4.402,-14.101 5.441,-0.731 9.023,6.277 6.613,10.769 z m 0,0 c -1.672,4.227 -7.238,5.633 -11.015,3.332 -6.395,-3.512 -3.243,-15.16 4.402,-14.101 5.441,-0.731 9.023,6.277 6.613,10.769 z m 0,0 c -1.672,4.227 -7.238,5.633 -11.015,3.332 -6.395,-3.512 -3.243,-15.16 4.402,-14.101 5.441,-0.731 9.023,6.277 6.613,10.769 z m 0,0 c -1.672,4.227 -7.238,5.633 -11.015,3.332 -6.395,-3.512 -3.243,-15.16 4.402,-14.101 5.441,-0.731 9.023,6.277 6.613,10.769 z m 0,0 c -1.672,4.227 -7.238,5.633 -11.015,3.332 -6.395,-3.512 -3.243,-15.16 4.402,-14.101 5.441,-0.731 9.023,6.277 6.613,10.769 z m 0,0 c -1.672,4.227 -7.238,5.633 -11.015,3.332 -6.395,-3.512 -3.243,-15.16 4.402,-14.101 5.441,-0.731 9.023,6.277 6.613,10.769 z m 0,0 c -1.672,4.227 -7.238,5.633 -11.015,3.332 -6.395,-3.512 -3.243,-15.16 4.402,-14.101 5.441,-0.731 9.023,6.277 6.613,10.769 z m 0,0 c -1.672,4.227 -7.238,5.633 -11.015,3.332 -6.395,-3.512 -3.243,-15.16 4.402,-14.101 5.441,-0.731 9.023,6.277 6.613,10.769 z m 0,0 c -1.672,4.227 -7.238,5.633 -11.015,3.332 -6.395,-3.512 -3.243,-15.16 4.402,-14.101 5.441,-0.731 9.023,6.277 6.613,10.769 z m 0,0 c -1.672,4.227 -7.238,5.633 -11.015,3.332 -6.395,-3.512 -3.243,-15.16 4.402,-14.101 5.441,-0.731 9.023,6.277 6.613,10.769 z m 0,0 c -1.672,4.227 -7.238,5.633 -11.015,3.332 -6.395,-3.512 -3.243,-15.16 4.402,-14.101 5.441,-0.731 9.023,6.277 6.613,10.769 z m 0,0 c -1.672,4.227 -7.238,5.633 -11.015,3.332 -6.395,-3.512 -3.243,-15.16 4.402,-14.101 5.441,-0.731 9.023,6.277 6.613,10.769 z m 0,0 c -1.672,4.227 -7.238,5.633 -11.015,3.332 -6.395,-3.512 -3.243,-15.16 4.402,-14.101 5.441,-0.731 9.023,6.277 6.613,10.769 z m 0,0 c -1.672,4.227 -7.238,5.633 -11.015,3.332 -6.395,-3.512 -3.243,-15.16 4.402,-14.101 5.441,-0.731 9.023,6.277 6.613,10.769 z m 0,0 c -1.672,4.227 -7.238,5.633 -11.015,3.332 -6.395,-3.512 -3.243,-15.16 4.402,-14.101 5.441,-0.731 9.023,6.277 6.613,10.769 z m 0,0 c -1.672,4.227 -7.238,5.633 -11.015,3.332 -6.395,-3.512 -3.243,-15.16 4.402,-14.101 5.441,-0.731 9.023,6.277 6.613,10.769 z m 0,0 c -1.672,4.227 -7.238,5.633 -11.015,3.332 -6.395,-3.512 -3.243,-15.16 4.402,-14.101 5.441,-0.731 9.023,6.277 6.613,10.769 z m 0,0 c -1.672,4.227 -7.238,5.633 -11.015,3.332 -6.395,-3.512 -3.243,-15.16 4.402,-14.101 5.441,-0.731 9.023,6.277 6.613,10.769 z m 0,0 c -1.672,4.227 -7.238,5.633 -11.015,3.332 -6.395,-3.512 -3.243,-15.16 4.402,-14.101 5.441,-0.731 9.023,6.277 6.613,10.769 z m 0,0 c -1.672,4.227 -7.238,5.633 -11.015,3.332 -6.395,-3.512 -3.243,-15.16 4.402,-14.101 5.441,-0.731 9.023,6.277 6.613,10.769 z m 0,0 c -1.672,4.227 -7.238,5.633 -11.015,3.332 -6.395,-3.512 -3.243,-15.16 4.402,-14.101 5.441,-0.731 9.023,6.277 6.613,10.769 z m 0,0 c -1.672,4.227 -7.238,5.633 -11.015,3.332 -6.395,-3.512 -3.243,-15.16 4.402,-14.101 5.441,-0.731 9.023,6.277 6.613,10.769 z m 0,0 c -1.672,4.227 -7.238,5.633 -11.015,3.332 -6.395,-3.512 -3.243,-15.16 4.402,-14.101 5.441,-0.731 9.023,6.277 6.613,10.769 z m 0,0 c -1.672,4.227 -7.238,5.633 -11.015,3.332 -6.395,-3.512 -3.243,-15.16 4.402,-14.101 5.441,-0.731 9.023,6.277 6.613,10.769 z m 0,0 c -1.672,4.227 -7.238,5.633 -11.015,3.332 -6.395,-3.512 -3.243,-15.16 4.402,-14.101 5.441,-0.731 9.023,6.277 6.613,10.769 z m 0,0 c -1.672,4.227 -7.238,5.633 -11.015,3.332 -6.395,-3.512 -3.243,-15.16 4.402,-14.101 5.441,-0.731 9.023,6.277 6.613,10.769 z m -6.613,-10.769 c 5.441,-0.731 9.023,6.277 6.613,10.769 -1.672,4.227 -7.238,5.633 -11.015,3.332 -6.395,-3.512 -3.243,-15.16 4.402,-14.101 z m 121.809,-22.11 c -1.25,-10.543 -7.59,-19.597 -14.805,-27.039 -6.672,2.484 -13.34,5.047 -19.844,7.996 5.567,11.231 11.219,23.625 22.215,30.516 6.094,1.406 13.379,-5.028 12.434,-11.473 z m -14.563,-51.926 c -3.777,-6.609 -13.953,0.539 -9.266,6.293 3.614,6.012 13.555,-0.55 9.266,-6.293 z m -30.176,40.004 c -3.093,1.621 -6.199,3.254 -9.265,4.875 0.125,1.66 0.332,5.02 0.476,6.7 3.918,-1.708 7.981,-3.11 12.207,-3.868 -1.152,-2.578 -2.304,-5.129 -3.418,-7.707 z m -0.34,-30.648 c -5.695,-2.539 -10.898,6.59 -5.136,9.664 6.64,5.844 12.722,-7.559 5.136,-9.664 z m -53.078,-66.473 c -29.812,-2.437 -60.05,-0.332 -89.027,7.156 42.273,20.504 92.359,17.415 136.449,4.458 -14.844,-7.008 -31.238,-9.84 -47.422,-11.614 z m -98.5,75.192 c 2.207,1.879 4.61,3.539 6.946,5.23 2.054,-3.125 6.48,-6.379 3.535,-10.375 -3.817,-5.387 -11.5,-0.625 -10.481,5.145 z m 32.051,8.898 c 5.883,5.387 13.16,-4.992 6.77,-9.051 -5.364,-4.238 -12.567,5.016 -6.77,9.051 z m 9.781,-32.879 c 0.672,-2.762 1.352,-5.519 2.051,-8.273 -10.058,-2.68 -20.023,-5.684 -29.996,-8.641 -0.934,3.035 -1.859,6.09 -2.809,9.125 10.227,2.703 20.473,5.309 30.754,7.789 z m -10.816,88.656 c 16.441,-4.183 25.02,-21.75 26.039,-37.515 -8.461,-1.25 -16.914,-2.578 -25.359,-3.688 -5.133,9.985 -11.848,19.723 -13.176,31.133 -1.977,6.883 6.437,12.317 12.496,10.07 z m 26.742,4.688 c 4.914,11.918 18.215,0.316 26.789,6.113 2.254,-2.656 4.481,-5.312 6.719,-7.965 -2.883,-7.406 -6.242,-14.746 -7.227,-22.711 -1.75,3.016 -3.097,6.739 -6.691,8.02 -4.246,0.801 -7.008,-3.074 -10.336,-4.84 -3.344,6.793 -10.504,13.289 -9.254,21.383 z m 11.703,-30.445 c 2.106,-0.332 6.297,-1.059 8.414,-1.43 1.243,1.019 3.743,3.051 4.961,4.058 -0.312,-3.585 -0.625,-7.171 -0.937,-10.773 -3.895,-0.254 -7.801,-0.559 -11.684,-0.879 -0.254,3.024 -0.523,6.035 -0.754,9.024 z m -5.14,-36.161 c -7.137,-0.878 -8.309,10.778 -0.922,11.528 7.047,0.152 8.469,-10.801 0.922,-11.528 z m 13.839,-22.785 c 4.551,-2.758 9.043,-5.629 13.497,-8.562 -4.395,-3.664 -9.036,-7.024 -13.782,-10.227 -4.3,3.434 -8.562,6.895 -12.754,10.43 4.34,2.785 8.684,5.555 13.039,8.359 z m 16.778,23.567 c -7.492,-2.91 -10.957,9.441 -3.078,11.09 6.379,1.113 9.55,-9.067 3.078,-11.09 z m 14.043,58.699 c 6.863,6.398 20.371,4.445 23.555,-4.926 1.874,-11.555 -0.293,-24.609 -8.899,-33.086 -9.266,-1.019 -18.613,2.262 -27.891,3.012 -0.789,12.805 2.805,26.715 13.235,35 z m 11.094,-52.145 c 7.195,2.579 10.82,-9.797 2.988,-11.023 -6.738,-1.648 -9.602,8.691 -2.988,11.023 z m 22.89,-38.789 c -0.578,-3.175 -1.183,-6.379 -1.738,-9.574 -10.567,1.512 -20.949,3.906 -31.348,6.27 0.477,2.476 1.473,7.441 1.961,9.918 10.442,-1.954 20.793,-4.246 31.125,-6.614 z m -171.605,34.481 c -9.09,5.59 -16.395,14.828 -18.664,25.359 -1.227,7.852 8.437,14.387 15.308,10.149 11.047,-5.782 16.782,-18.418 18.52,-30.289 -4.996,-1.739 -9.754,-5.668 -15.164,-5.219 z m 9.722,-22.824 c -6.507,-2.387 -9.621,7.57 -3.683,10.019 6.941,4.52 11.957,-9.598 3.683,-10.019 z m 224.45,32.218 c 3.332,10.95 8.918,22.731 4.453,34.18 -3.778,11.258 -17.43,15.941 -28.211,13.211 -9.778,-4.68 -14.512,-15.238 -20.969,-23.383 -3.164,4.539 -7.801,6.524 -13.309,5.719 1.27,12.305 -1.515,26.539 -12.628,33.719 -9.551,6.55 -21.747,3.793 -31.602,-0.524 -5.313,5.988 -11.609,10.953 -18.789,14.488 3.078,4.887 6.914,9.219 11.164,13.122 -2.5,6.625 -6.816,12.257 -11.094,17.824 3.758,4.133 4.59,9.566 5.059,14.879 -2.903,0.652 -5.781,1.277 -8.664,1.929 -0.235,2.028 -0.684,6.114 -0.906,8.141 -3.985,-0.047 -7.969,-0.113 -11.95,-0.164 -1.074,-5.359 -2.965,-10.449 -9.343,-10.555 0,-3.929 0.023,-7.89 0.05,-11.82 1.672,-0.156 5,-0.484 6.637,-0.649 -4.633,-5.953 -8.793,-12.281 -12.352,-18.906 3.481,-4.554 7.043,-9.008 10.692,-13.402 -6.84,-4.914 -13.199,-10.543 -18.863,-16.762 -11.297,8.094 -28.571,8.336 -37.657,-3.191 -7.566,-8.535 -3.691,-20.434 -1.914,-30.336 -6.215,1.605 -11.601,-1.879 -12.828,-8.067 -5.285,6.864 -9.89,14.434 -16.312,20.34 -14.606,9.758 -36.137,-0.926 -38.457,-17.894 -2.758,-9.918 3.851,-18.633 7.57,-27.239 -5.82,-0.941 -11.555,-2.656 -15.547,-7.257 4.938,-3.438 10.707,-6.09 14.258,-11.172 7.719,-10.66 18.644,-18.957 23.457,-31.578 6.484,-1.328 12.801,-3.235 18.789,-6.039 -2.629,-4.735 -5.309,-9.469 -7.988,-14.157 4.183,-2.484 8.375,-4.992 12.48,-7.593 1.176,-8.321 9.992,-9.727 16.606,-11.829 32.754,-9.425 67.359,-8.898 101.039,-6.714 16.66,3.535 34.726,4.707 49.336,14.257 5.343,5.411 9.855,11.704 16.671,15.485 -3.136,5.012 -6.269,10.027 -9.355,15.054 5.566,2.661 11.387,4.762 16.59,8.098 4.816,4.262 6.32,13.207 14.367,12.328 2.832,10.922 10.32,20.625 21.094,24.633 1.25,7.672 -5.43,10.328 -11.574,11.824 z m -124.071,51.551 c -1.672,4.227 -7.238,5.633 -11.015,3.332 -6.395,-3.512 -3.243,-15.16 4.402,-14.101 5.441,-0.731 9.023,6.277 6.613,10.769 z m 0,0 c -1.672,4.227 -7.238,5.633 -11.015,3.332 -6.395,-3.512 -3.243,-15.16 4.402,-14.101 5.441,-0.731 9.023,6.277 6.613,10.769 z m 0,0 c -1.672,4.227 -7.238,5.633 -11.015,3.332 -6.395,-3.512 -3.243,-15.16 4.402,-14.101 5.441,-0.731 9.023,6.277 6.613,10.769 z m 0,0 c -1.672,4.227 -7.238,5.633 -11.015,3.332 -6.395,-3.512 -3.243,-15.16 4.402,-14.101 5.441,-0.731 9.023,6.277 6.613,10.769 z m 0,0 c -1.672,4.227 -7.238,5.633 -11.015,3.332 -6.395,-3.512 -3.243,-15.16 4.402,-14.101 5.441,-0.731 9.023,6.277 6.613,10.769 z m 0,0 c -1.672,4.227 -7.238,5.633 -11.015,3.332 -6.395,-3.512 -3.243,-15.16 4.402,-14.101 5.441,-0.731 9.023,6.277 6.613,10.769 z m 0,0 c -1.672,4.227 -7.238,5.633 -11.015,3.332 -6.395,-3.512 -3.243,-15.16 4.402,-14.101 5.441,-0.731 9.023,6.277 6.613,10.769 z m 0,0 c -1.672,4.227 -7.238,5.633 -11.015,3.332 -6.395,-3.512 -3.243,-15.16 4.402,-14.101 5.441,-0.731 9.023,6.277 6.613,10.769 z m 0,0 c -1.672,4.227 -7.238,5.633 -11.015,3.332 -6.395,-3.512 -3.243,-15.16 4.402,-14.101 5.441,-0.731 9.023,6.277 6.613,10.769 z m 0,0 c -1.672,4.227 -7.238,5.633 -11.015,3.332 -6.395,-3.512 -3.243,-15.16 4.402,-14.101 5.441,-0.731 9.023,6.277 6.613,10.769 z m 0,0 c -1.672,4.227 -7.238,5.633 -11.015,3.332 -6.395,-3.512 -3.243,-15.16 4.402,-14.101 5.441,-0.731 9.023,6.277 6.613,10.769 z m 0,0 c -1.672,4.227 -7.238,5.633 -11.015,3.332 -6.395,-3.512 -3.243,-15.16 4.402,-14.101 5.441,-0.731 9.023,6.277 6.613,10.769 z m 0,0 c -1.672,4.227 -7.238,5.633 -11.015,3.332 -6.395,-3.512 -3.243,-15.16 4.402,-14.101 5.441,-0.731 9.023,6.277 6.613,10.769 z m 0,0 c -1.672,4.227 -7.238,5.633 -11.015,3.332 -6.395,-3.512 -3.243,-15.16 4.402,-14.101 5.441,-0.731 9.023,6.277 6.613,10.769 z m 0,0 c -1.672,4.227 -7.238,5.633 -11.015,3.332 -6.395,-3.512 -3.243,-15.16 4.402,-14.101 5.441,-0.731 9.023,6.277 6.613,10.769 z m 0,0 c -1.672,4.227 -7.238,5.633 -11.015,3.332 -6.395,-3.512 -3.243,-15.16 4.402,-14.101 5.441,-0.731 9.023,6.277 6.613,10.769 z m 0,0 c -1.672,4.227 -7.238,5.633 -11.015,3.332 -6.395,-3.512 -3.243,-15.16 4.402,-14.101 5.441,-0.731 9.023,6.277 6.613,10.769 z m 0,0 c -1.672,4.227 -7.238,5.633 -11.015,3.332 -6.395,-3.512 -3.243,-15.16 4.402,-14.101 5.441,-0.731 9.023,6.277 6.613,10.769 z m 0,0 c -1.672,4.227 -7.238,5.633 -11.015,3.332 -6.395,-3.512 -3.243,-15.16 4.402,-14.101 5.441,-0.731 9.023,6.277 6.613,10.769 z m 0,0 c -1.672,4.227 -7.238,5.633 -11.015,3.332 -6.395,-3.512 -3.243,-15.16 4.402,-14.101 5.441,-0.731 9.023,6.277 6.613,10.769 z m 0,0 c -1.672,4.227 -7.238,5.633 -11.015,3.332 -6.395,-3.512 -3.243,-15.16 4.402,-14.101 5.441,-0.731 9.023,6.277 6.613,10.769 z m 0,0 c -1.672,4.227 -7.238,5.633 -11.015,3.332 -6.395,-3.512 -3.243,-15.16 4.402,-14.101 5.441,-0.731 9.023,6.277 6.613,10.769 z m 0,0 c -1.672,4.227 -7.238,5.633 -11.015,3.332 -6.395,-3.512 -3.243,-15.16 4.402,-14.101 5.441,-0.731 9.023,6.277 6.613,10.769 z m 0,0 c -1.672,4.227 -7.238,5.633 -11.015,3.332 -6.395,-3.512 -3.243,-15.16 4.402,-14.101 5.441,-0.731 9.023,6.277 6.613,10.769 z m 0,0 c -1.672,4.227 -7.238,5.633 -11.015,3.332 -6.395,-3.512 -3.243,-15.16 4.402,-14.101 5.441,-0.731 9.023,6.277 6.613,10.769 z m 0,0 c -1.672,4.227 -7.238,5.633 -11.015,3.332 -6.395,-3.512 -3.243,-15.16 4.402,-14.101 5.441,-0.731 9.023,6.277 6.613,10.769 z m 0,0 c -1.672,4.227 -7.238,5.633 -11.015,3.332 -6.395,-3.512 -3.243,-15.16 4.402,-14.101 5.441,-0.731 9.023,6.277 6.613,10.769 z m 0,0 c -1.672,4.227 -7.238,5.633 -11.015,3.332 -6.395,-3.512 -3.243,-15.16 4.402,-14.101 5.441,-0.731 9.023,6.277 6.613,10.769 z m 0,0 c -1.672,4.227 -7.238,5.633 -11.015,3.332 -6.395,-3.512 -3.243,-15.16 4.402,-14.101 5.441,-0.731 9.023,6.277 6.613,10.769 z m 0,0 c -1.672,4.227 -7.238,5.633 -11.015,3.332 -6.395,-3.512 -3.243,-15.16 4.402,-14.101 5.441,-0.731 9.023,6.277 6.613,10.769 z m 0,0 c -1.672,4.227 -7.238,5.633 -11.015,3.332 -6.395,-3.512 -3.243,-15.16 4.402,-14.101 5.441,-0.731 9.023,6.277 6.613,10.769 z m 0,0 c -1.672,4.227 -7.238,5.633 -11.015,3.332 -6.395,-3.512 -3.243,-15.16 4.402,-14.101 5.441,-0.731 9.023,6.277 6.613,10.769 z m 0,0 c -1.672,4.227 -7.238,5.633 -11.015,3.332 -6.395,-3.512 -3.243,-15.16 4.402,-14.101 5.441,-0.731 9.023,6.277 6.613,10.769 z m 0,0 c -1.672,4.227 -7.238,5.633 -11.015,3.332 -6.395,-3.512 -3.243,-15.16 4.402,-14.101 5.441,-0.731 9.023,6.277 6.613,10.769 z m 0,0 c -1.672,4.227 -7.238,5.633 -11.015,3.332 -6.395,-3.512 -3.243,-15.16 4.402,-14.101 5.441,-0.731 9.023,6.277 6.613,10.769 z m 0,0 c -1.672,4.227 -7.238,5.633 -11.015,3.332 -6.395,-3.512 -3.243,-15.16 4.402,-14.101 5.441,-0.731 9.023,6.277 6.613,10.769 z m 0,0 c -1.672,4.227 -7.238,5.633 -11.015,3.332 -6.395,-3.512 -3.243,-15.16 4.402,-14.101 5.441,-0.731 9.023,6.277 6.613,10.769 z m 0,0 c -1.672,4.227 -7.238,5.633 -11.015,3.332 -6.395,-3.512 -3.243,-15.16 4.402,-14.101 5.441,-0.731 9.023,6.277 6.613,10.769 z m 0,0 c -1.672,4.227 -7.238,5.633 -11.015,3.332 -6.395,-3.512 -3.243,-15.16 4.402,-14.101 5.441,-0.731 9.023,6.277 6.613,10.769 z m 0,0 c -1.672,4.227 -7.238,5.633 -11.015,3.332 -6.395,-3.512 -3.243,-15.16 4.402,-14.101 5.441,-0.731 9.023,6.277 6.613,10.769 z m 0,0 c -1.672,4.227 -7.238,5.633 -11.015,3.332 -6.395,-3.512 -3.243,-15.16 4.402,-14.101 5.441,-0.731 9.023,6.277 6.613,10.769 z m 0,0 c -1.672,4.227 -7.238,5.633 -11.015,3.332 -6.395,-3.512 -3.243,-15.16 4.402,-14.101 5.441,-0.731 9.023,6.277 6.613,10.769 z m 0,0 c -1.672,4.227 -7.238,5.633 -11.015,3.332 -6.395,-3.512 -3.243,-15.16 4.402,-14.101 5.441,-0.731 9.023,6.277 6.613,10.769 z m 0,0 c -1.672,4.227 -7.238,5.633 -11.015,3.332 -6.395,-3.512 -3.243,-15.16 4.402,-14.101 5.441,-0.731 9.023,6.277 6.613,10.769 z m 0,0 c -1.672,4.227 -7.238,5.633 -11.015,3.332 -6.395,-3.512 -3.243,-15.16 4.402,-14.101 5.441,-0.731 9.023,6.277 6.613,10.769 z m 0,0 c -1.672,4.227 -7.238,5.633 -11.015,3.332 -6.395,-3.512 -3.243,-15.16 4.402,-14.101 5.441,-0.731 9.023,6.277 6.613,10.769 z m 0,0 c -1.672,4.227 -7.238,5.633 -11.015,3.332 -6.395,-3.512 -3.243,-15.16 4.402,-14.101 5.441,-0.731 9.023,6.277 6.613,10.769 z m 0,0 c -1.672,4.227 -7.238,5.633 -11.015,3.332 -6.395,-3.512 -3.243,-15.16 4.402,-14.101 5.441,-0.731 9.023,6.277 6.613,10.769 z m 0,0 c -1.672,4.227 -7.238,5.633 -11.015,3.332 -6.395,-3.512 -3.243,-15.16 4.402,-14.101 5.441,-0.731 9.023,6.277 6.613,10.769 z m 0,0 c -1.672,4.227 -7.238,5.633 -11.015,3.332 -6.395,-3.512 -3.243,-15.16 4.402,-14.101 5.441,-0.731 9.023,6.277 6.613,10.769 z m 0,0 c -1.672,4.227 -7.238,5.633 -11.015,3.332 -6.395,-3.512 -3.243,-15.16 4.402,-14.101 5.441,-0.731 9.023,6.277 6.613,10.769 z m 0,0 c -1.672,4.227 -7.238,5.633 -11.015,3.332 -6.395,-3.512 -3.243,-15.16 4.402,-14.101 5.441,-0.731 9.023,6.277 6.613,10.769 z m 0,0 c -1.672,4.227 -7.238,5.633 -11.015,3.332 -6.395,-3.512 -3.243,-15.16 4.402,-14.101 5.441,-0.731 9.023,6.277 6.613,10.769 z m 0,0 c -1.672,4.227 -7.238,5.633 -11.015,3.332 -6.395,-3.512 -3.243,-15.16 4.402,-14.101 5.441,-0.731 9.023,6.277 6.613,10.769 z m 0,0 c -1.672,4.227 -7.238,5.633 -11.015,3.332 -6.395,-3.512 -3.243,-15.16 4.402,-14.101 5.441,-0.731 9.023,6.277 6.613,10.769 z m 0,0 c -1.672,4.227 -7.238,5.633 -11.015,3.332 -6.395,-3.512 -3.243,-15.16 4.402,-14.101 5.441,-0.731 9.023,6.277 6.613,10.769 z m 0,0 c -1.672,4.227 -7.238,5.633 -11.015,3.332 -6.395,-3.512 -3.243,-15.16 4.402,-14.101 5.441,-0.731 9.023,6.277 6.613,10.769 z m 0,0 c -1.672,4.227 -7.238,5.633 -11.015,3.332 -6.395,-3.512 -3.243,-15.16 4.402,-14.101 5.441,-0.731 9.023,6.277 6.613,10.769 z m 0,0 c -1.672,4.227 -7.238,5.633 -11.015,3.332 -6.395,-3.512 -3.243,-15.16 4.402,-14.101 5.441,-0.731 9.023,6.277 6.613,10.769 z m 0,0 c -1.672,4.227 -7.238,5.633 -11.015,3.332 -6.395,-3.512 -3.243,-15.16 4.402,-14.101 5.441,-0.731 9.023,6.277 6.613,10.769 z m 0,0 c -1.672,4.227 -7.238,5.633 -11.015,3.332 -6.395,-3.512 -3.243,-15.16 4.402,-14.101 5.441,-0.731 9.023,6.277 6.613,10.769 z m 0,0 c -1.672,4.227 -7.238,5.633 -11.015,3.332 -6.395,-3.512 -3.243,-15.16 4.402,-14.101 5.441,-0.731 9.023,6.277 6.613,10.769 z m 0,0 c -1.672,4.227 -7.238,5.633 -11.015,3.332 -6.395,-3.512 -3.243,-15.16 4.402,-14.101 5.441,-0.731 9.023,6.277 6.613,10.769 z m 0,0 c -1.672,4.227 -7.238,5.633 -11.015,3.332 -6.395,-3.512 -3.243,-15.16 4.402,-14.101 5.441,-0.731 9.023,6.277 6.613,10.769 z m 0,0 c -1.672,4.227 -7.238,5.633 -11.015,3.332 -6.395,-3.512 -3.243,-15.16 4.402,-14.101 5.441,-0.731 9.023,6.277 6.613,10.769 z m 0,0 c -1.672,4.227 -7.238,5.633 -11.015,3.332 -6.395,-3.512 -3.243,-15.16 4.402,-14.101 5.441,-0.731 9.023,6.277 6.613,10.769 z m 0,0 c -1.672,4.227 -7.238,5.633 -11.015,3.332 -6.395,-3.512 -3.243,-15.16 4.402,-14.101 5.441,-0.731 9.023,6.277 6.613,10.769 z m 0,0 c -1.672,4.227 -7.238,5.633 -11.015,3.332 -6.395,-3.512 -3.243,-15.16 4.402,-14.101 5.441,-0.731 9.023,6.277 6.613,10.769" /><path
         id="path16"
         style="fill:#bc9e1b;fill-opacity:1;fill-rule:nonzero;stroke:none"
         d="m 310.77,955.43 c 9.054,6.48 17.355,-10.25 6.921,-13.426 -8.066,-4.238 -14.859,9.578 -6.921,13.426 v 0" /><path
         id="path18"
         style="fill:#bc9e1b;fill-opacity:1;fill-rule:nonzero;stroke:none"
         d="m 414.965,955.172 c 8.957,6.449 17.043,-9.809 7.031,-13.664 -8.613,-3.793 -14.91,9.5 -7.031,13.664 v 0" /><path
         id="path20"
         style="fill:#bc9e1b;fill-opacity:1;fill-rule:nonzero;stroke:none"
         d="m 331.449,950.199 c 5.129,3.278 12.805,-1.429 11.371,-7.621 0.184,-7.363 -11.941,-9.082 -14.281,-2.367 -2.133,3.148 -0.547,8.535 2.91,9.988 v 0" /><path
         id="path22"
         style="fill:#bc9e1b;fill-opacity:1;fill-rule:nonzero;stroke:none"
         d="m 394.234,949.082 c 7.391,6.785 17.84,-6.637 9.336,-12.023 -7.461,-6.684 -17.531,6.507 -9.336,12.023 v 0" /><path
         id="path24"
         style="fill:#bc9e1b;fill-opacity:1;fill-rule:nonzero;stroke:none"
         d="m 433.102,949.551 c 7.937,8.297 19.101,-6.949 9.472,-12.098 -7.472,-5.41 -15.695,6.086 -9.472,12.098 v 0" /><path
         id="path26"
         style="fill:#bc9e1b;fill-opacity:1;fill-rule:nonzero;stroke:none"
         d="m 290.504,946.973 c 4.316,4.113 12.539,2.211 13.164,-4.161 1.586,-6.246 -6.324,-11.812 -11.555,-7.933 -4.394,2.055 -4.449,8.66 -1.609,12.094 v 0" /><path
         id="path28"
         style="fill:#bc9e1b;fill-opacity:1;fill-rule:nonzero;stroke:none"
         d="m 464.32,936.098 c 5.52,4.941 14.805,-2.078 11.758,-8.637 -1.094,-5.723 -9.16,-6.527 -12.93,-3.121 -2.597,3.433 -2.753,9.265 1.172,11.758 v 0" /><path
         id="path30"
         style="fill:#bc9e1b;fill-opacity:1;fill-rule:nonzero;stroke:none"
         d="m 264.457,933.762 c 8.352,3.797 14.938,-10.489 6.191,-14.055 -9.105,-5.152 -16.285,10.668 -6.191,14.055 v 0" /><path
         id="path32"
         style="fill:#bc9e1b;fill-opacity:1;fill-rule:nonzero;stroke:none"
         d="m 446.637,933.785 c 6.367,3.356 14.09,-4.293 10.293,-10.539 -2.473,-5.305 -10.325,-5.226 -13.399,-0.519 -1.457,3.718 -1.504,9.628 3.106,11.058 v 0" /><path
         id="path34"
         style="fill:#bc9e1b;fill-opacity:1;fill-rule:nonzero;stroke:none"
         d="m 485.113,934.301 c 3.407,2.711 9.989,1.719 11.524,-2.781 3.015,-4.809 -1.516,-11.524 -7.024,-11 -6.98,-0.368 -10.019,10.011 -4.5,13.781 v 0" /><path
         id="path36"
         style="fill:#bc9e1b;fill-opacity:1;fill-rule:nonzero;stroke:none"
         d="m 243.047,931.805 c 9.418,4.941 16.312,-10.793 6.348,-14.332 -8.77,-3.301 -14.493,9.988 -6.348,14.332 v 0" /><path
         id="path38"
         style="fill:#bc9e1b;fill-opacity:1;fill-rule:nonzero;stroke:none"
         d="m 282.02,931.91 c 8.351,5.672 16.519,-8.922 7.804,-13.32 -8.269,-5.434 -16.676,8.668 -7.804,13.32 v 0" /><path
         id="path40"
         style="fill:#ffffff;fill-opacity:1;fill-rule:nonzero;stroke:none"
         d="m 367.25,907.477 c -7.645,-1.059 -10.797,10.589 -4.402,14.101 3.777,2.301 9.343,0.895 11.015,-3.332 2.41,-4.492 -1.172,-11.5 -6.613,-10.769" /><path
         id="path42"
         style="fill:#bc9e1b;fill-opacity:1;fill-rule:nonzero;stroke:none"
         d="m 503.141,923.82 c 9.129,7.231 17.761,-10.148 7.175,-13.297 -8.144,-3.925 -14.304,8.715 -7.175,13.297 v 0" /><path
         id="path44"
         style="fill:#bc9e1b;fill-opacity:1;fill-rule:nonzero;stroke:none"
         d="m 367.25,907.477 c -7.645,-1.059 -10.797,10.589 -4.402,14.101 3.777,2.301 9.343,0.895 11.015,-3.332 2.41,-4.492 -1.172,-11.5 -6.613,-10.769" /><path
         id="path46"
         style="fill:#bc9e1b;fill-opacity:1;fill-rule:nonzero;stroke:none"
         d="m 222.262,918.879 c 6.761,7.051 18.082,-4.371 10.613,-10.875 -6.453,-8.121 -18.629,4.551 -10.613,10.875 v 0" /><path
         id="path48"
         style="fill:#bc9e1b;fill-opacity:1;fill-rule:nonzero;stroke:none"
         d="m 446.527,915.367 c 9.317,5.379 16.231,-10.512 6.457,-13.922 -8.691,-4.164 -14.726,10.461 -6.457,13.922 v 0" /><path
         id="path50"
         style="fill:#bc9e1b;fill-opacity:1;fill-rule:nonzero;stroke:none"
         d="m 279.965,910.422 c 3.226,3.898 10.64,3.148 12.359,-1.848 3.328,-5.152 -2.312,-12.722 -8.277,-10.769 -5.981,-0.032 -8.426,8.949 -4.082,12.617 v 0" /><path
         id="path52"
         style="fill:#bc9e1b;fill-opacity:1;fill-rule:nonzero;stroke:none"
         d="m 511.227,902.484 c 8.308,6.61 17.8,-8.011 8.503,-12.75 -7.929,-5.773 -16.093,7.727 -8.503,12.75 v 0" /><path
         id="path54"
         style="fill:#bc9e1b;fill-opacity:1;fill-rule:nonzero;stroke:none"
         d="m 216.898,900.406 c 5.754,2.496 12.125,-3.879 9.782,-9.707 -1.637,-5.902 -10.821,-7.129 -13.684,-1.668 -2.781,3.824 -0.777,10.254 3.902,11.375 v 0" /><path
         id="path56"
         style="fill:#bc9e1b;fill-opacity:1;fill-rule:nonzero;stroke:none"
         d="m 506.285,879.254 c 7.363,5.98 17.254,-4.215 11.004,-11.32 -7.051,-7.754 -18.777,4.246 -11.004,11.32 v 0" /><path
         id="path58"
         style="fill:#bc9e1b;fill-opacity:1;fill-rule:nonzero;stroke:none"
         d="m 217.078,877.379 c 4.449,3.516 12.703,1.328 12.883,-4.918 2.027,-7.621 -10.043,-11.863 -13.813,-5.465 -2.476,3.176 -1.695,7.574 0.93,10.383 v 0" /><path
         id="path60"
         style="fill:#bc9e1b;fill-opacity:1;fill-rule:nonzero;stroke:none"
         d="m 702.504,579.434 c 3.312,11.781 11.875,21.152 21.855,27.812 -1.035,-12.828 -11.531,-21.699 -21.855,-27.812 z m 14.512,-36.036 c -4.266,-11.679 -13.028,-21.019 -23.516,-27.425 4.59,11.347 12.004,22.246 23.516,27.425 z m -49.52,128.274 c 10.399,-9.223 23.828,-18.641 24.531,-33.902 -11.054,8.652 -21.445,19.769 -24.531,33.902 z m -2.871,-64.094 c 11.785,-7.312 14.773,-22.555 17.352,-35.203 -8.348,10.199 -15.887,21.789 -17.352,35.203 z m 41.609,-127.402 c -4.218,-13.684 -14.414,-25.41 -27.683,-30.988 5.086,13.378 16.133,23.109 27.683,30.988 z m -36.609,30.754 c -11.945,11.472 -16.914,28.34 -16.789,44.543 11.523,-11.578 18.469,-28.078 16.789,-44.543 z m 18.867,-98.403 c -8.672,-14.976 -23.078,-26.035 -39.113,-32.156 9.992,13.633 21.074,29.375 39.113,32.156 z m -47.883,80.942 c 7.551,-9.934 14.102,-21.614 13.086,-34.59 -8.945,9.117 -14.668,21.609 -13.086,34.59 z m 20.547,-150.063 c -9.851,-16.914 -29.101,-24.668 -46.738,-30.711 11.523,15.078 27.16,28.582 46.738,30.711 z m -38.886,93.352 c 8.292,-13.328 9.367,-30.156 7.492,-45.403 -6.496,14.055 -10.879,29.946 -7.492,45.403 z M 597.426,313.047 c -8.563,16.015 -10.196,36.183 -2.5,52.891 9.758,-15.899 7.344,-35.77 2.5,-52.891 z m 26.972,-43.731 c -11.152,-15.586 -30.468,-21.472 -48.339,-25.273 9.14,18.086 30.949,20.344 48.339,25.273 z m -63.503,-10.144 c -3.536,16.258 -2.961,33.25 1.328,49.312 6.718,-15.339 7.097,-34.519 -1.328,-49.312 z m 23.21,-53.82 c -12.285,-13.309 -31.074,-17.598 -48.339,-19.778 12.851,12.551 30.468,19.399 48.339,19.778 z M 516.566,187.59 c 2.051,18.308 -3.925,38.738 6.661,55.164 3.535,-18.508 1.535,-38.125 -6.661,-55.164 z m 13.235,-49.778 c -12.824,-10.195 -30.774,-8.066 -46.153,-8.664 13.348,9.446 30.516,9.27 46.153,8.664 z m -45.156,61.829 c 4.207,-18.555 -2.297,-36.821 -9.766,-53.528 1.98,17.742 -3.711,39.207 9.766,53.528 z M 487.73,90.6836 c -17.5,-11.4531 -39.433,-6.7461 -58.476,-2.5859 16.934,13.6133 39.226,2.9648 58.476,2.5859 z m -72.714,10.8714 c 4.843,18.992 7.285,40.664 22.566,54.629 -0.398,-20.024 -5.449,-42.153 -22.566,-54.629 z m -108.379,50.242 c 12.175,-12.598 14.433,-30.918 15.34,-47.586 -10.454,13.504 -14.336,30.879 -15.34,47.586 z M 266.273,82.9688 c 15.051,7.414 32.473,5.5781 47.704,-0.1758 -14.11,-8.75 -32.969,-5.6133 -47.704,0.1758 z m 3.528,60.8862 c -9.696,14.028 -9.196,32.231 -5.266,48.11 9.297,-14.133 8.176,-32.18 5.266,-48.11 z m -49.082,-16.738 c 15.75,3.653 34.093,2.453 46.297,-9.246 -15.879,-3.391 -32.871,0.227 -46.297,9.246 z m 10.875,63.899 c -7.672,13.457 -7.699,29.433 -8.656,44.445 7.828,-13.273 12.066,-29.113 8.656,-44.445 z m -64.231,0.554 c 15.215,-0.308 31.274,-4.422 42.149,-15.742 -15.008,1.457 -31.426,4.067 -42.149,15.742 z m 15.711,58.703 c -8.586,16.219 -6.812,36.004 -0.98,52.832 9.254,-15.949 8.375,-36.347 0.98,-52.832 z m -58.683,6.368 c 16.668,-2.207 33.476,-10.774 42.765,-25.157 -17.062,1.719 -33.117,10.899 -42.765,25.157 z m 22.347,57.832 c -5.258,15.332 -1.379,31.672 3.012,46.679 6.59,-14.726 5.934,-33.066 -3.012,-46.679 z m -64.6638,19.922 c 19.8908,-1.883 35.4998,-16.797 45.4528,-33.079 -19.121,3.059 -38.1129,14.438 -45.4528,33.079 z m 40.2068,103.117 c 2.309,-16.621 0.75,-34.68 -8.386,-49.172 -4.11,16.863 1.875,33.789 8.386,49.172 z M 53.4023,395.781 c 17.0938,-6.562 34.375,-15.926 44.6016,-31.672 -18.8945,2.688 -35.1289,15.411 -44.6016,31.672 z m 37.0586,54.949 c -1.1992,13.606 3.6914,26.719 10.8481,38.032 0.461,-13.188 -0.024,-28.703 -10.8481,-38.032 z m -17.7695,63.708 c 0.625,14.628 4.7617,29.292 13.4414,41.191 0.3164,-14.578 -2.1055,-30.84 -13.4414,-41.191 z M 31.7812,469.883 c 17.129,-6.145 30.1368,-20.774 37.3868,-37.078 -17.0391,6.257 -31.3203,19.812 -37.3868,37.078 z m 28.8321,102.558 c 1.664,14.012 7.0234,27.965 17.5664,37.692 -1.1992,-14.11 -7.082,-27.992 -17.5664,-37.692 z M 18.75,542.875 C 33.6328,534.453 43.5,519.402 51.4023,504.688 35.6875,511.734 21.2812,525.105 18.75,542.875 Z m 37.3633,215.602 c -0.0781,-13.454 3.25,-29.704 -6.4219,-40.743 -2.4492,13.848 -0.8828,28.567 6.4219,40.743 z M 15.6875,596.949 c 13.1836,-7.765 22.0313,-21.004 27.0078,-35.207 -14.7812,5.539 -24.6719,19.899 -27.0078,35.207 z m -5.1563,57.934 c 14.2032,-6.192 20.6016,-21.547 24.1524,-35.625 -10.2539,9.918 -23.9531,19.887 -24.1524,35.625 z m 13.6055,60.566 c 8.6641,-10.699 12.4688,-24.586 10.6719,-38.219 -8.4258,10.778 -12.2305,24.641 -10.6719,38.219 z m 63.0703,-4.34 c -6.8945,-7.918 -17.414,-10.339 -27.2187,-12.472 5.9883,9 16.4179,13.879 27.2187,12.472 z m 23.203,82.266 c -2.156,-13.453 -11.3319,-24.547 -22.6327,-31.617 2.2383,13.277 9.6797,26.383 22.6327,31.617 z m 14.652,-51.965 c -8.64,-3.328 -18.761,-3.637 -27.4292,-0.305 8.5942,4.442 18.6372,3.895 27.4292,0.305 z m 39.649,61.192 c -4.109,-13.809 -18.035,-20.18 -30.523,-24.657 6.343,11.782 16.812,22.426 30.523,24.657 z m 16.078,-49.614 c -10.562,-1.605 -20.367,3.407 -28.184,10.047 10.075,-0.883 20.172,-3.609 28.184,-10.047 z m 46.438,18.164 c -13.809,-1.172 -26.204,5.883 -37.879,12.227 13.742,3.535 29.429,-0.317 37.879,-12.227 z M 68.7617,670.422 c -0.1055,-12.984 -7.6953,-24.285 -16.3164,-33.356 1.0352,12.707 7.3438,24.426 16.3164,33.356 z m 614.8753,55.75 c -10.196,7.441 -4.813,22.133 -2.989,32.433 4.161,-10.3 3.907,-21.558 2.989,-32.433 z m -37.489,-4.817 c 10.332,-1.769 20.399,-6.3 26.961,-14.753 -10.019,2.503 -21.882,4.507 -26.961,14.753 z m -16.464,74.282 c 11.101,-6.242 16.679,-18.293 18.496,-30.446 -8.868,8.094 -17.012,18.114 -18.496,30.446 z m -20.743,-49.539 c 10.262,4.136 22.051,5.039 32.344,0.574 -10.558,-1.981 -21.926,-4.637 -32.344,-0.574 z m -34.277,59.476 c 11.543,-2.472 19.258,-12.543 22.656,-23.316 -10.215,4.558 -18.476,12.902 -22.656,23.316 z M 557.875,760.43 c 9.414,7.238 21.992,5.511 33.125,6.32 -9.402,-7.379 -21.805,-7.52 -33.125,-6.32 z m -40.223,16.836 c 5.536,11.285 19.852,11.004 30.391,8.617 -8.867,-6.113 -19.641,-9.063 -30.391,-8.617 z m 195,-56.204 c 3.438,-10.894 -0.41,-22.132 -6.242,-31.421 -0.672,10.773 0.285,22.144 6.242,31.421 z m 12.305,-62.324 c -0.656,-12.523 -8.301,-23.703 -19.668,-28.91 2.676,11.731 9.57,22.274 19.668,28.91 z m 15.254,-28.078 c -16.387,-9.574 -29.094,-23.836 -42.617,-36.867 1.66,12.852 12.383,20.848 20.078,30.176 13.047,14.859 25.945,34.219 20.41,54.949 -14.316,-4.559 -25.977,-14.207 -35.754,-25.309 2.981,23.028 21.223,40.321 25.234,62.989 1.797,9.027 -1.23,17.949 -4.343,26.293 -7.207,-4.887 -14.328,-10.149 -19.59,-17.192 -6.457,-7.57 -6.016,-18.187 -10.149,-26.871 -3.828,18.93 5.235,37.442 2.629,56.344 -2.05,16.058 -14.648,29.922 -30.234,34.027 4.785,-12.711 3.797,-26.531 0.164,-39.375 -5.281,15.992 -8.965,32.778 -17.156,47.574 -8.977,12.176 -25.567,12.598 -39.024,15.926 4.063,-12.699 8.399,-25.289 14.082,-37.355 -15.605,9.965 -23.293,28.355 -39.035,38.234 -11.308,7.621 -26.484,7.242 -38.504,1.461 8.379,-5.976 16.551,-12.738 21.016,-22.266 -11.699,2.813 -23.664,7.278 -35.859,4.739 -16.836,-2.352 -34.278,-11.922 -39.864,-28.914 7.957,-1.848 15.731,-4.633 23.907,-5.305 21.289,-0.68 39.675,16.707 61.308,11.27 -14.113,-4.012 -30.039,-6.489 -40.344,-17.961 10.071,-3.09 20.481,-5.539 31.047,-5.844 15.867,-0.078 28.848,11.422 44.512,12.48 6.426,0.528 12.324,-2.336 17.793,-5.332 -14.941,-3.465 -33.84,-1.789 -43.156,-16.566 21.093,-14.629 47.14,-0.207 70.031,-6.945 6.941,-1.93 11.375,-8.071 14.031,-14.391 -12.91,5.773 -26.883,13.789 -41.316,8.059 6.582,-13.415 17.324,-26.09 32.148,-30.407 14.735,-3.051 23.934,-17.484 27.168,-31.301 -9.601,8.661 -17.324,20.965 -30.957,23.543 -0.422,-9.957 -2.375,-20.179 0.078,-29.996 5.516,-15.539 21.407,-23.91 28.692,-38.343 3.984,-7.289 1.484,-15.664 0.047,-23.297 -8.446,15 -20.418,27.328 -32.286,39.554 -3.484,-27.265 6.172,-53.773 17.481,-78.074 4.562,-9.219 7.363,-19.262 7.5,-29.59 -10.078,17.832 -15.645,38.637 -30.879,53.172 -8.223,-27.543 -7.09,-60.969 13.711,-82.828 7.871,-7.312 2.883,-18.531 1.125,-27.371 -7.375,16.086 -16.34,31.816 -28.164,45.016 -2.051,-11.325 -4.785,-22.75 -4.289,-34.325 1.711,-17.246 14.133,-30.64 19.57,-46.648 4.543,-12.488 -1.152,-25.938 -7.363,-36.785 0.773,22.82 -8.094,44.488 -21.074,62.859 -16.817,-26.015 -10.723,-58.562 -0.75,-85.879 5.554,-11.218 0.222,-23.601 -6.875,-32.668 -3.352,16.211 -6.953,33.078 -17.59,46.328 -8.145,-12.175 -14.149,-25.679 -18.602,-39.636 -4.922,-16.309 6.758,-30.977 9.414,-46.532 1.563,-8 -1.425,-16.371 -7.597,-21.652 -2.082,17.219 -4.993,34.578 -12.278,50.469 -10.613,-10.098 -17.82,-24.309 -16.961,-39.207 -0.5,-24.738 3.282,-52.817 -12.558,-73.906 -2.149,16.336 -2.453,33.054 -7.793,48.804 -11.731,-10.308 -20.852,-24.097 -22.949,-39.832 -4.465,-22.734 0.527,-48.789 -14.122,-68.508 3.926,20.762 5.879,42.7 -0.89,63.118 -8.692,-8.821 -17.969,-17.84 -22.422,-29.688 -8.016,-21.504 -4.832,-45.637 -13.809,-66.887 -3.464,-8.503 -10.125,-15.132 -17.597,-20.293 11.582,22.036 14.191,47.563 10.41,71.914 -26.746,-12.207 -34.754,-42.722 -43.387,-68.164 -5.078,-17.9253 -22.793,-27.0582 -38.281,-34.6753 -6.738,5.5664 -16.234,7.1679 -21.621,14.4335 -14.309,18.0278 -11.887,43.7818 -26.219,61.8168 -6.941,8.574 -12.598,18.82 -22.746,24.062 -3.379,-21.855 0.895,-43.828 8.117,-64.473 -6.547,4.766 -12.953,10.313 -16.066,17.989 -8.645,19.719 -3.434,42.168 -10.176,62.363 -3.047,10.059 -10.645,17.922 -19.797,22.754 -1.875,-11.777 -4.277,-23.484 -5.707,-35.332 -1.352,-10.039 2.809,-19.609 4.086,-29.414 -12.777,10.898 -14.258,29.219 -13.285,44.875 2.23,25.547 -9.496,50.894 -28.184,67.984 -7.047,-19.644 -2.34,-40.484 -0.23,-60.547 -7.52,8.645 -15.281,17.825 -18.473,29.004 0.91,17.383 5.438,34.68 3.356,52.2 -1.196,16.511 -9.086,33.3 -23.801,41.882 -1.75,-17.136 -9.477,-32.918 -11.145,-50.086 -14.133,26.496 8.539,54.981 -0.23,82.344 -4.942,12.957 -12.051,25.891 -24.125,33.469 2.375,-14.348 -2.36,-28.125 -6.992,-41.485 -1.153,-6.046 -5.235,-12.953 -0.805,-18.703 -3.957,0.633 -4.914,4.969 -6.219,8.125 -2.832,8.223 -5.179,17.137 -3.203,25.86 4.035,20.293 9.969,40.586 9.27,61.472 -0.821,12.602 -3.489,26.313 -12.907,35.469 -5.808,-20.215 -15.703,-39.156 -19.07,-60.055 -4.0351,6.637 -7.0547,14.208 -6.2031,22.118 1.4961,14.863 10.2891,27.5 14.6801,41.504 5.613,15.988 1.25,34.128 -7.047,48.336 -4.9534,-16.286 -13.5315,-30.993 -20.7425,-46.317 -8.7929,25.844 10.4688,48.524 15.086,72.926 2.3007,12.258 3.6795,26.988 -5.1407,37.058 C 77.5312,563.848 69.2344,544.781 63.2969,525.367 61.8164,539.57 64.332,554.48 72.1914,566.605 83.4688,585.934 93.9922,608.906 86.25,631.539 70.4688,620.254 61.793,602.484 52.1914,586.25 46.4102,623.738 85.3008,649.703 81.293,686.957 67.6133,684.23 59.1602,672.777 49.7656,663.629 c 1.6836,7.75 4.9649,15.656 11.9375,20.078 14.4258,10.145 34.9727,14.523 41.5119,32.992 -9.9962,3.141 -20.4923,2.309 -30.7619,1.84 5.1289,5.387 11.293,10.391 18.9883,11.016 19.1206,2.488 41.0626,-5.567 57.5276,8.043 -11.524,6.468 -23.879,11.433 -36.785,14.41 5.82,2.804 11.859,5.898 18.523,5.387 18.16,-0.731 33.531,-13.61 51.895,-13.098 6.64,0.141 12.375,3.703 17.91,6.902 -12.93,4.817 -24.047,13.16 -36.25,19.43 12.625,2.785 25.504,0.476 37.183,-4.656 13.453,-5.719 29.614,-9.957 43.004,-1.762 -8.297,12.977 -19.273,26.687 -35.461,29.187 -15.433,2.711 -29.394,-5.55 -43.23,-10.796 6.762,8.793 13.054,17.945 18.097,27.836 -11.027,1.906 -23.253,4.191 -33.375,-2.079 -19.828,-11.601 -26.234,-37.004 -46.617,-48.054 9.434,13.55 14.793,29.242 19.121,45.054 -8.144,-1.136 -16.339,-3.562 -22.746,-8.996 -15.1403,-11.832 -22.0075,-30.367 -31.2966,-46.515 -0.5234,11.261 2.0781,22.285 4.7852,33.136 -9.5,-3.164 -18.6719,-8.449 -24.1602,-17.089 -10.3672,-14.836 -10.7773,-33.532 -12.375,-50.868 -5.2695,6.383 -10.2187,13.043 -15.2383,19.621 -3.664,-6.5 -7.4648,-13.402 -7.2343,-21.128 -0.461,-22.997 15.7734,-41.801 18.4179,-64.227 C 22.0078,658.699 9.37109,666.461 0,677.832 0.125,667.312 -0.269531,656.621 1.70703,646.238 7.77344,627.379 28.5391,617.027 31.7578,596.781 21.0195,602.219 11.625,609.902 2.93359,618.176 4.33984,601.605 3.61328,581.488 17.8711,569.961 30.6211,558.746 50.7266,549.668 49.0156,529.473 34.9844,541.523 22.0547,554.773 8.5,567.309 6.81641,553.023 4.91406,536.992 14.1797,524.688 29.9961,501.609 63.5,489.695 66.0781,458.586 c -17.539,12.93 -34.2343,26.949 -51.8437,39.812 3.582,-16.765 6.9179,-34.121 15.4687,-49.187 11.5274,-18.75 34.6524,-24.113 50.0625,-38.637 5.8828,-5.242 9.293,-12.508 11.9453,-19.82 -20.5625,9.363 -41.1171,19.391 -58.4843,34.082 0.1523,-16.203 9.3281,-30.051 18.0468,-42.981 15.6914,-21.796 47.4805,-23.25 62.1326,-46.179 -16.6052,8.719 -36.6052,9.234 -51.5662,21.289 6.9219,-27.082 23.2344,-55.246 51.3512,-64.192 17.067,-5.957 36.789,-13.855 42.926,-32.675 -18.273,7.238 -37.461,11.711 -56.004,18.066 7.696,-23.777 23.981,-47.363 48.703,-55.352 22.161,-0.781 45.211,-9.472 57.914,-28.566 -22.554,10.598 -48.582,5.363 -71.519,14.707 16.699,-17.613 34.887,-36.082 58.973,-42.82 10.336,-3.262 22.015,0.129 31.691,-5.418 9.496,-4.809 16.621,-13.012 22.711,-21.574 -18.316,2.011 -36.711,0.3 -55.078,0.078 7.211,-10.723 17.129,-19.348 27.304,-27.157 16.868,-10.402 37.407,-4.621 55.665,-2.191 8.039,-1.797 14.878,-6.758 21.211,-11.8241 -19.883,0.3047 -40.493,-1.8242 -57.954,-12.1797 10.075,-10.6406 24.676,-14.4219 38.204,-18.6094 26.453,-8.1484 52.398,11.4727 78.992,3.3555 -17.336,-14.336 -33.485,-30.2813 -45.36,-49.5586 2.114,-5.8203 5.395,-11.13282 9.758,-15.56642 2.578,6.58982 5.356,13.17192 9.895,18.66012 11.574,15.1211 23.851,30.1485 39.23,41.5274 6.367,-2.9414 11.457,-8.9766 17.219,-13.2539 C 404.77,39.2852 410.98,17.832 421.605,0 c 4.368,5.01172 10.872,9.34766 12.227,16.1602 -12.703,22.7929 -30.723,43.1953 -53.105,56.8593 8.878,3.4571 17.902,9.5196 27.843,7.1485 21.571,-3.5352 43.231,-9.4258 65.274,-7.336 16.601,1.6407 33.406,11.5039 39.394,27.703 -18.664,-4.2967 -37.05,2.024 -55.031,6.36 23.105,14.929 53.105,4.492 76.809,17.812 11.492,6.719 23.25,16.492 24.187,30.801 -17.5,-7.969 -36.894,-9.446 -55.887,-9.524 17.461,26.078 51.465,27.063 77.43,39.575 13.059,5.828 22.852,17.156 27.844,30.437 -18.977,1.406 -38.274,0.996 -56.738,-3.926 5.964,6.211 12.929,11.621 21.277,14.2 28.742,11.269 59.68,26.64 73.098,56.281 -17.5,0.105 -35.039,-1.848 -51.77,-7.231 13.801,21.262 38.301,30.254 58.828,43.215 13.809,8.477 25.11,21.777 28.692,37.86 -16.289,1.679 -31.739,-4.012 -46.622,-9.676 18.137,22.234 46.27,33.457 63.868,56.179 6.515,8.098 9.843,18.118 11.425,28.262 -14.91,0 -28.64,-5.777 -41.902,-11.863 15.762,29.531 54.031,44.922 57.617,81.035 -16.965,-3.66 -31.347,-13.652 -44.562,-24.434 12.461,24.383 36.914,40.188 48.469,65.125 3.73,7.524 5,15.907 5.664,24.176 -16.829,-1.375 -30.149,-13.679 -41.106,-25.527 9.16,23.859 31.203,39.683 41.445,62.89 4.114,8.77 4.27,18.626 3.938,28.098" /><path
         id="path62"
         style="fill:#bc9e1b;fill-opacity:1;fill-rule:nonzero;stroke:none"
         d="m 91.8125,697.027 c 83.3595,33.25 173.1365,48.68 262.6645,49.926 96.054,1.641 192.812,-11.914 283.585,-43.863 4.708,-1.742 11.739,-3.461 10.907,-10.043 C 648.316,620.801 637.855,548.523 616.754,479.375 590.141,391.746 546.43,309.504 489.684,237.695 455.992,195.781 419.391,155.488 375.66,123.816 308.508,177.156 249.551,241.184 204.148,314.062 132.344,428.145 94.5703,562.551 91.8125,697.027 v 0" /><path
         id="path64"
         style="fill:#f5f014;fill-opacity:1;fill-rule:nonzero;stroke:none"
         d="m 276.324,725.051 c 63.403,7.051 127.637,7.515 191.074,0.308 0.204,-20.109 0.282,-40.246 0.067,-60.359 -1.113,-0.805 -3.328,-2.445 -4.442,-3.25 -8.691,6.945 -19.257,11.887 -30.675,10.379 -12.676,0.547 -23.887,-10.875 -23.446,-23.438 -0.754,-7.832 4.5,-14.179 7.188,-21.101 -2.766,0.23 -5.52,0.363 -8.254,0.363 -0.965,-2.887 -2.859,-8.637 -3.816,-11.527 -2.969,9.183 -7.708,17.797 -17.071,21.621 4.754,5.098 9.942,10.953 9.004,18.523 0.176,10.672 -9.973,17.535 -19.57,18.762 -19.563,2.859 -38.996,-2.344 -58.457,-3.773 0.078,-2.836 0.156,-5.668 0.258,-8.508 4.421,-0.207 8.824,-0.414 13.242,-0.676 2.008,-17.59 3.41,-35.227 4.996,-52.844 0.547,-6.633 -7.777,-8.765 -13.031,-8.554 -4.817,3.222 -3.7,11.734 -5.856,17.168 -2.863,-0.493 -5.723,-0.961 -8.586,-1.481 0.465,-4.734 0.676,-9.496 0.543,-14.285 -7.152,8.191 -10.687,20.762 -22.398,23.832 5.777,6.137 10.976,14.469 8.144,23.23 -2.211,8.719 -11.113,12.36 -18.914,14.497 0,20.371 0,40.742 0,61.113 v 0" /><path
         id="path66"
         style="fill:#ec1b2e;fill-opacity:1;fill-rule:nonzero;stroke:none"
         d="m 467.398,725.359 c 32.098,-3.773 64.024,-9.312 95.372,-17.328 23.132,-5.59 45.398,-14.281 68.347,-20.605 1.301,-93.969 -23.679,-186.254 -57.703,-273.18 -23.859,-56.844 -55.91,-110.105 -93.535,-158.902 -3.613,-4.77 -7.52,-9.321 -11.711,-13.614 0.078,63.692 0,127.411 0.031,191.09 -0.363,13.43 0.391,27.016 -2.472,40.2 0.05,2.792 0.05,5.542 -0.047,8.308 l 1.062,0.75 c 1.926,26.02 0.129,52.137 0.938,78.203 0.8,9.477 -2.235,18.551 -3.328,27.84 l 1.218,0.938 c 0.801,0.961 2.473,2.89 3.301,3.875 2.844,11.031 6.504,23.257 -1.297,33.277 4.422,13.141 6.864,26.82 6.738,40.687 -1.718,-0.46 -5.128,-1.429 -6.847,-1.898 0.215,20.113 0.137,40.25 -0.067,60.359 v 0" /><path
         id="path68"
         style="fill:#100f0d;fill-opacity:1;fill-rule:nonzero;stroke:none"
         d="m 139.504,696.531 c 44.535,13.977 90.512,22.922 136.82,28.52 0,-20.371 0,-40.742 0,-61.113 7.801,-2.137 16.703,-5.778 18.914,-14.497 2.832,-8.761 -2.367,-17.093 -8.144,-23.23 11.711,-3.07 15.246,-15.641 22.398,-23.832 0.133,4.789 -0.078,9.551 -0.543,14.285 2.863,0.52 5.723,0.988 8.586,1.481 2.156,-5.434 1.039,-13.946 5.856,-17.168 5.254,-0.211 13.578,1.921 13.031,8.554 -1.586,17.617 -2.988,35.254 -4.996,52.844 -4.418,0.262 -8.821,0.469 -13.242,0.676 -0.102,2.84 -0.18,5.672 -0.258,8.508 19.461,1.429 38.894,6.632 58.457,3.773 9.597,-1.227 19.746,-8.09 19.57,-18.762 0.938,-7.57 -4.25,-13.425 -9.004,-18.523 9.363,-3.824 14.102,-12.438 17.071,-21.621 0.957,2.89 2.851,8.64 3.816,11.527 2.734,0 5.488,-0.133 8.254,-0.363 -1.692,-16.473 13.055,-31.035 29.394,-29.707 6.688,-1.875 9.707,4.652 12.911,9.074 -9.348,13.766 -27.188,17.145 -42.305,20.633 -2.688,6.922 -7.942,13.269 -7.188,21.101 -0.441,12.563 10.77,23.985 23.446,23.438 11.418,1.508 21.984,-3.434 30.675,-10.379 1.114,0.805 3.329,2.445 4.442,3.25 1.719,0.469 5.129,1.438 6.847,1.898 0.126,-13.867 -2.316,-27.546 -6.738,-40.687 7.801,-10.02 4.141,-22.246 1.297,-33.277 -0.828,-0.985 -2.5,-2.914 -3.301,-3.875 l -1.218,-0.938 c -9.836,-0.023 -19.7,-3.121 -29.485,-0.859 -6.941,1.222 -12.566,5.773 -18.289,9.523 -3.566,-1.535 -6.758,-5.281 -10.949,-4.219 -1.922,3.489 -3.016,7.395 -5.156,10.75 -5.203,-0.336 -9.149,-5.754 -14.618,-6.089 -19.386,-2.266 -38.867,-3.719 -58.332,-4.969 -1.273,1.012 -3.773,3.047 -5.019,4.058 -7.57,-5.906 -17.797,-12.355 -27.316,-6.554 -7.547,8.09 -10.641,19.41 -18.473,27.422 -0.492,-9.184 -0.445,-18.372 -0.414,-27.579 2.078,0.235 6.187,0.727 8.246,0.961 l -0.133,-1.195 c -5.152,-1.043 -10.277,-2.293 -15.398,-3.465 -4.84,8.489 -7.887,17.778 -10.36,27.164 6.035,3.075 13.141,7.598 19.957,3.903 8.922,-6.661 9.938,-19.489 18.551,-26.407 8.066,-3.617 20.082,-0.336 22.684,8.715 -1.61,6.27 0.289,18.864 -9.364,17.227 -0.726,-4.555 6.008,-15.922 -2.293,-14.285 -6.187,5.492 -8.765,13.812 -14.671,19.488 -3.305,1.457 -6.817,2.266 -10.278,3.227 4.84,5.382 11.371,10.847 11.344,18.753 0.574,11.293 -12.281,21.106 -22.922,16.68 -19.406,-5.879 -38.008,-14.258 -56.586,-22.348 4.895,-7.156 15.945,3.25 19.07,-5.05 7.391,-16.672 13.348,-33.926 20.5,-50.676 -3.871,-2.996 -7.984,-5.621 -12.171,-8.172 0.804,-2.031 1.609,-4.059 2.418,-6.09 13.191,4.918 26.457,9.781 38.917,16.418 -2.312,-2.234 -4.835,-4.16 -7.363,-6.113 -0.203,-29.242 -0.226,-58.461 0.031,-87.703 6.063,-2.192 12.071,-4.446 18.133,-6.711 -0.183,-1.922 -0.547,-5.801 -0.73,-7.727 -5.903,0.696 -11.731,1.867 -17.613,2.754 0.804,-77.242 -1.375,-154.512 -0.286,-231.758 -33.195,38.481 -60.672,81.77 -84.113,126.809 -49.953,95.996 -76.047,203.297 -82.238,311.031 9.234,5.539 19.719,8.246 29.871,11.496 v 0" /><path
         id="path70"
         style="fill:#ffffff;fill-opacity:1;fill-rule:nonzero;stroke:none"
         d="m 320.527,670.309 c 18.832,1.64 37.875,6.898 56.762,3.328 9.629,-1.196 18.84,-9.492 17.149,-19.848 0.078,-7.262 -6.504,-11.5 -11.004,-16.156 5.332,-2.684 11.113,-5.332 14.57,-10.438 2.422,-5.8 1.269,-12.3 1.355,-18.441 -3.671,-4.445 -7.39,-10.043 -13.816,-10.199 -18.418,-1.977 -36.895,-3.539 -55.34,-4.84 -1.558,0.887 -4.68,2.652 -6.242,3.512 4.707,3.253 12.41,3.851 14.383,10.07 -2.184,18.055 -2.989,36.265 -5.278,54.324 -2.914,4.762 -9.937,1.609 -14.437,3.067 0.492,1.406 1.43,4.214 1.898,5.621 v 0" /><path
         id="path72"
         style="fill:#ffffff;fill-opacity:1;fill-rule:nonzero;stroke:none"
         d="m 424.848,669.504 c 11.847,3.461 24.855,0.805 34.297,-7.129 4.425,-4.707 9.492,2.211 14.101,3.125 -1.172,-10.727 -1.043,-21.809 -4.785,-32.059 -1.543,0.782 -4.629,2.371 -6.172,3.153 5.313,21.097 -30.769,37.465 -39.773,15.945 1.894,-3.355 2.968,-7.754 6.941,-9.262 8.535,-3.957 17.246,-7.57 26.203,-10.429 l 1.582,-1.172 1.856,-1.301 c 15.476,-7.105 15.886,-30.727 1.843,-39.418 -14.832,-6.738 -32.468,-2.758 -44.257,8.066 -3.614,-2.007 -7.098,-4.265 -10.801,-6.089 -2.488,10.929 -0.313,22.296 2.734,32.886 6.301,4.035 6.328,-5.746 7.649,-9.519 3.621,-16.262 22.461,-21.938 37.175,-19.489 2.813,4.188 7.579,9.34 3.938,14.465 -9.992,13.918 -30.656,10.696 -41.914,22.739 -10.176,11.004 -4.348,30.648 9.383,35.488 v 0" /><path
         id="path74"
         style="fill:#100f0d;fill-opacity:1;fill-rule:nonzero;stroke:none"
         d="m 349.066,664.324 c 7.286,1.567 15.297,4.555 22.454,1.067 6.941,-4.215 8.093,-14.567 2.656,-20.473 -6.246,-4.84 -14.649,-3.566 -22.012,-4.66 -1.59,7.933 -2.344,16.027 -3.098,24.066 v 0" /><path
         id="path76"
         style="fill:#f5f014;fill-opacity:1;fill-rule:nonzero;stroke:none"
         d="m 350.496,663.074 c 6.867,1.535 14.731,4.582 21.285,0.367 4.707,-3.953 5.617,-11.449 2.082,-16.523 -5.34,-5.617 -13.82,-4.16 -20.761,-4.941 -1.047,7 -1.875,14.046 -2.606,21.097 v 0" /><path
         id="path78"
         style="fill:#ffffff;fill-opacity:1;fill-rule:nonzero;stroke:none"
         d="m 215.078,638.023 c 18.578,8.09 37.18,16.469 56.586,22.348 10.641,4.426 23.496,-5.387 22.922,-16.68 0.027,-7.906 -6.504,-13.371 -11.344,-18.753 3.461,-0.961 6.973,-1.77 10.278,-3.227 5.906,-5.676 8.484,-13.996 14.671,-19.488 8.301,-1.637 1.567,9.73 2.293,14.285 9.653,1.637 7.754,-10.957 9.364,-17.227 -2.602,-9.051 -14.618,-12.332 -22.684,-8.715 -8.613,6.918 -9.629,19.746 -18.551,26.407 -6.816,3.695 -13.922,-0.828 -19.957,-3.903 2.473,-9.386 5.52,-18.675 10.36,-27.164 5.121,1.172 10.246,2.422 15.398,3.465 -0.156,-1.25 -0.445,-3.695 -0.602,-4.918 -12.46,-6.637 -25.726,-11.5 -38.917,-16.418 -0.809,2.031 -1.614,4.059 -2.418,6.09 4.187,2.551 8.3,5.176 12.171,8.172 -7.152,16.75 -13.109,34.004 -20.5,50.676 -3.125,8.3 -14.175,-2.106 -19.07,5.05 v 0" /><path
         id="path80"
         style="fill:#f5f014;fill-opacity:1;fill-rule:nonzero;stroke:none"
         d="m 424.75,651.133 c 0.441,8.535 11.027,12.336 18.262,9.109 11.972,-2.262 20.109,-13.738 17.695,-25.754 1.242,-0.55 3.723,-1.617 4.941,-2.14 -0.937,-0.828 -2.781,-2.469 -3.718,-3.301 l -2.832,1.328 -1.856,1.301 -1.582,1.172 c -8.957,8.011 -25.312,6.55 -30.91,18.285 v 0" /><path
         id="path82"
         style="fill:#ffffff;fill-opacity:1;fill-rule:nonzero;stroke:none"
         d="m 492.105,648.559 c 0.625,7.418 7.833,2.183 11.61,1.144 18.762,-7.828 37.695,-15.191 56.504,-23 -3.797,-9.23 -6.688,-18.836 -10.801,-27.969 -1.816,0.653 -5.438,1.93 -7.254,2.578 1.277,6.817 6.484,14.833 1.922,21.36 -6.629,7.23 -16.102,10.801 -25.234,13.66 -4.735,-7.414 -8.895,-15.219 -11.739,-23.574 4.426,-1.688 8.926,-3.981 13.848,-3.039 5.176,2.679 5.851,13.422 13.184,8.219 -3.633,-12.981 -8.993,-25.395 -14.305,-37.778 -9.211,3.356 -1.797,14.024 -4.66,21.024 -2.703,2.39 -6.082,4.546 -9.805,4.187 -5.301,-7.754 -9.492,-17.351 -8.504,-26.898 3.203,-3.305 7.52,-5.653 9.492,-10.02 -14.199,0.524 -26.504,8.535 -39.367,13.738 -0.391,1.325 -1.141,3.981 -1.531,5.305 4.531,-0.391 9.187,-2.73 13.711,-1.351 6.504,11.394 10.672,23.988 16.316,35.828 2.442,6.242 6.379,12.148 6.867,18.965 -2.109,3.874 -7.004,4.964 -10.254,7.621 v 0" /><path
         id="path84"
         style="fill:#100f0d;fill-opacity:1;fill-rule:nonzero;stroke:none"
         d="m 248.254,641.719 c 4.629,5.539 13.086,7.984 20.215,8.324 7.437,0.207 9.808,-7.285 12.222,-12.801 -0.75,0.102 -2.289,0.258 -3.039,0.336 3.434,-12.148 -13.086,-12.226 -20.527,-16.051 -4.141,6.141 -7.238,12.961 -8.871,20.192 v 0" /><path
         id="path86"
         style="fill:#ffffff;fill-opacity:1;fill-rule:nonzero;stroke:none"
         d="m 177.355,616.035 c 10.356,5.961 19.903,13.274 30.336,19.07 1.25,-0.543 3.77,-1.609 5.02,-2.132 -2.941,-3.743 -6.008,-7.364 -9.188,-10.899 6.223,-17.148 21.543,-29.008 27.532,-46.234 3.199,-8.324 -0.649,-17.434 -6.84,-23.207 -8.879,-8.403 -20.692,-15.793 -33.461,-13.629 -19.824,10.531 -26.93,33.457 -40.484,49.976 -5.618,0 -11.836,-9.546 -15.637,-2.238 10.019,10.617 23.027,18.028 36.113,24.227 1.039,-0.657 3.176,-1.953 4.215,-2.633 -3.902,-3.566 -7.887,-7.102 -11.399,-11.109 9.165,-14.539 18.84,-28.829 29.036,-42.641 10.277,-7.231 26.695,1.297 28.703,13.32 -5.184,17.977 -18.293,32.106 -28.18,47.586 -4.762,-0.758 -9.266,-2.422 -13.555,-4.578 -0.546,1.274 -1.668,3.852 -2.211,5.121 v 0" /><path
         id="path88"
         style="fill:#100f0d;fill-opacity:1;fill-rule:nonzero;stroke:none"
         d="m 352.242,630.012 c 8.637,1.586 18.809,4.734 26.59,-1.02 5.539,-6.058 6.27,-19.07 -2.469,-22.66 -6.925,-2.023 -14.261,-1.898 -21.363,-2.781 -1.562,8.738 -2.367,17.586 -2.758,26.461 v 0" /><path
         id="path90"
         style="fill:#f5f014;fill-opacity:1;fill-rule:nonzero;stroke:none"
         d="m 353.57,629.023 c 7.957,1.09 17.215,3.95 24.325,-1.382 4.757,-5.567 5.304,-17.563 -2.86,-20.239 -6.223,-1.59 -12.648,-1.695 -18.996,-2.242 -1.227,7.91 -1.953,15.899 -2.469,23.863 v 0" /><path
         id="path92"
         style="fill:#f5f014;fill-opacity:1;fill-rule:nonzero;stroke:none"
         d="m 416.09,627.59 c 15.117,-3.488 32.957,-6.867 42.305,-20.633 -3.204,-4.422 -6.223,-10.949 -12.911,-9.074 -16.339,-1.328 -31.086,13.234 -29.394,29.707 v 0" /><path
         id="path94"
         style="fill:#f5f014;fill-opacity:1;fill-rule:nonzero;stroke:none"
         d="m 276.715,617.184 c 7.832,-8.012 10.926,-19.332 18.473,-27.422 9.519,-5.801 19.746,0.648 27.316,6.554 1.246,-1.011 3.746,-3.046 5.019,-4.058 19.465,1.25 38.946,2.703 58.332,4.969 5.469,0.335 9.415,5.753 14.618,6.089 2.14,-3.355 3.234,-7.261 5.156,-10.75 4.191,-1.062 7.383,2.684 10.949,4.219 5.723,-3.75 11.348,-8.301 18.289,-9.523 9.785,-2.262 19.649,0.836 29.485,0.859 1.093,-9.289 4.128,-18.363 3.328,-27.84 -0.809,-26.066 0.988,-52.183 -0.938,-78.203 l -1.062,-0.75 c -14.727,2.18 -29.297,-1.328 -43.684,-3.828 -16.004,0.781 -31.953,-1.094 -47.82,-2.734 -1.016,-11.446 14.07,-7.395 16.492,-16.653 7.648,-14.976 13.398,-30.957 22.266,-45.269 0.234,-0.364 0.734,-1.067 0.968,-1.406 l 0.625,-1.504 c 1.141,-4.141 2.5,-8.274 4.754,-11.965 5.442,-0.633 11.301,-0.086 16.321,2.258 8.144,23.257 10.613,48.386 20.703,71.023 3.125,0.73 6.25,1.309 9.422,1.77 2.863,-13.184 2.109,-26.77 2.472,-40.2 -0.031,-63.679 0.047,-127.398 -0.031,-191.09 -1.113,-2.519 -2.879,-4.679 -4.551,-6.867 -26.902,-31.687 -56.406,-61.191 -88.457,-87.675 -36.113,30.019 -69.961,63.222 -99.176,100.007 -1.089,77.246 1.09,154.516 0.286,231.758 5.882,-0.887 11.71,-2.058 17.613,-2.754 0.183,1.926 0.547,5.805 0.73,7.727 -6.062,2.265 -12.07,4.519 -18.133,6.711 -0.257,29.242 -0.234,58.461 -0.031,87.703 2.528,1.953 5.051,3.879 7.363,6.113 0.157,1.223 0.446,3.668 0.602,4.918 l 0.133,1.195 c -2.059,-0.234 -6.168,-0.726 -8.246,-0.961 -0.031,9.207 -0.078,18.395 0.414,27.579 v 0" /><path
         id="path96"
         style="fill:#f5f014;fill-opacity:1;fill-rule:nonzero;stroke:none"
         d="m 401.676,614.086 c 5.566,1.328 1.484,-11.082 -1.047,-4.367 0.266,1.093 0.781,3.273 1.047,4.367 v 0" /><path
         id="path98"
         style="fill:#ffffff;fill-opacity:1;fill-rule:nonzero;stroke:none"
         d="m 583.891,613.227 c 5.05,-2.11 10.05,-4.372 14.941,-6.864 -4.109,-23.965 -6.016,-48.238 -10.223,-72.175 3.114,-2.993 6.348,-5.829 9.649,-8.637 -0.91,-0.86 -2.735,-2.578 -3.645,-3.438 -13.425,4.789 -25.058,13.274 -37.851,19.41 5.019,5.7 11.992,0.938 18.027,0.446 1.926,5.621 6.164,13.058 0.391,17.898 -6.797,4.317 -14.696,6.477 -21.961,9.891 -3.742,-2.996 -7.727,-5.856 -10.559,-9.785 -1.375,-7.129 17.402,-8.719 8.039,-14.778 -11.965,3.875 -23.058,10.094 -33.566,16.856 2.187,6.949 11.269,0 15.976,3.879 17.246,15.402 33.977,31.406 50.782,47.297 v 0" /><path
         id="path100"
         style="fill:#ec1b2e;fill-opacity:1;fill-rule:nonzero;stroke:none"
         d="m 561.207,576.285 c 6.453,7.699 13.633,14.727 21.231,21.309 0.261,-10.282 -1.407,-20.504 -4.504,-30.258 -5.821,2.523 -11.446,5.461 -16.727,8.949 v 0" /><path
         id="path102"
         style="fill:#ffffff;fill-opacity:1;fill-rule:nonzero;stroke:none"
         d="m 209.176,507.938 c 1.531,3.98 4.73,6.789 8.844,4.031 10.144,-3.949 20.601,-7.125 30.515,-11.657 3.539,-7.644 -7.097,-4.128 -10.976,-5.515 -4.739,-7.824 -8.356,-16.496 -10.668,-25.395 12.828,3.879 24.871,10.176 36.527,16.731 -4.27,2.832 -12.953,4.297 -7.051,10.742 12.305,-4.988 25.028,-8.992 37.074,-14.617 0.106,-8.789 -9.808,-1.848 -14.57,-1.977 -9.73,-2.547 -18.652,-7.754 -28.047,-11.375 4.371,-18.152 2.578,-40.636 18.918,-53.301 3.305,-1.843 0.805,-8.203 -3.148,-5.781 -11.555,4.031 -22.844,8.738 -34.321,12.988 -4.757,0.547 -1.898,5.047 -1.062,7.571 3.848,-0.344 7.754,-0.578 11.625,-0.735 -0.387,10.977 -4.137,21.368 -6.996,31.829 -5.723,-0.266 -10.59,-3.254 -15.43,-6.016 -2.234,-5.488 -3.926,-11.242 -4.348,-17.199 4.141,-2.801 14.29,-7.227 5.391,-11.399 -12.543,4.25 -24.613,9.707 -36.996,14.399 0.648,1.629 1.949,4.859 2.598,6.472 4.14,-0.886 8.3,-1.828 12.465,-2.754 9,18.575 15.714,38.165 21.804,57.856 -4.012,1.82 -8.094,3.465 -12.148,5.102 v 0" /><path
         id="path104"
         style="fill:#ffffff;fill-opacity:1;fill-rule:nonzero;stroke:none"
         d="m 518.539,501.453 c 10.149,3.442 25.5,0.32 28.203,-11.598 2.442,-7.082 -2.656,-13.293 -5.41,-19.359 6.973,-2.422 16.106,-3.641 19.512,-11.18 4.453,-7.863 4.035,-20.398 -4.891,-24.882 -17.949,-10.684 -38.43,-16.043 -58.144,-22.391 -7.551,5.176 5.019,7.281 8.164,10.379 -5.696,19.59 -13.137,38.738 -20.938,57.578 -4.484,0.906 -14.863,-5.52 -14.629,1.973 15.196,7.961 31.797,13.918 48.133,19.48 v 0" /><path
         id="path106"
         style="fill:#ec1b2e;fill-opacity:1;fill-rule:nonzero;stroke:none"
         d="m 500.922,486.262 c 7.734,3.64 17.121,9.422 25.578,4.453 5.828,-3.332 5.566,-10.649 5.203,-16.418 -6.191,-6.609 -14.805,-9.649 -23.672,-10.379 -2.422,7.437 -4.793,14.883 -7.109,22.344 v 0" /><path
         id="path108"
         style="fill:#100f0d;fill-opacity:1;fill-rule:nonzero;stroke:none"
         d="m 299.633,482.773 c 19.277,-4.597 40.148,-1.867 58.41,-10.507 8.48,-4.629 17.977,-13.496 14.305,-24.219 -1.317,-7.156 -8.036,-10.82 -13.547,-14.442 14.406,-8.214 13.996,-33.644 -2.242,-39.335 -10.852,-3.848 -22.039,2.292 -33.039,0.886 0.597,0.313 1.792,0.938 2.363,1.223 11.32,0.957 23.965,-5.805 34.191,1.48 6.395,4.161 8.141,12.231 7.438,19.36 0.238,7.625 -6.891,12.066 -11.891,16.57 6.039,3.582 13.527,7.023 15.32,14.57 3.411,10.379 -6.238,18.914 -14.64,22.969 -17.746,7.86 -37.703,6.277 -56.512,9.426 -0.156,-8.305 12.695,-6.301 11.891,-13.977 -2,-18.371 -5.278,-36.582 -7.957,-54.863 -5.262,-1.047 -10.516,-1.953 -15.774,-2.969 0.656,-1.125 1.953,-3.359 2.578,-4.472 10.328,-3.34 21.254,-4.012 31.793,-6.375 0.368,-0.293 1.094,-0.891 1.457,-1.172 -12.175,0.828 -24.066,4.187 -36.136,5.906 0.023,2.727 0.05,5.461 0.129,8.164 5.046,1.223 14.492,-1.406 15.089,6.035 2.653,16.524 5.282,33.098 7.336,49.699 1.016,5.516 -6.738,4.911 -10.066,6.551 -0.156,3.172 -0.34,6.348 -0.496,9.492 v 0" /><path
         id="path110"
         style="fill:#100f0d;fill-opacity:1;fill-rule:nonzero;stroke:none"
         d="m 421.996,477.5 c 14.387,2.5 28.957,6.008 43.684,3.828 0.097,-2.766 0.097,-5.516 0.047,-8.308 -3.172,-0.461 -6.297,-1.04 -9.422,-1.77 -10.09,-22.637 -12.559,-47.766 -20.703,-71.023 -5.02,-2.344 -10.879,-2.891 -16.321,-2.258 -2.254,3.691 -3.613,7.824 -4.754,11.965 0.235,-0.364 0.703,-1.125 0.938,-1.489 1.844,-3.172 3.613,-6.375 5.359,-9.644 4.68,0.703 9.387,1.402 14.074,2.234 6.426,23.723 10.946,48.047 19.747,71.074 2.91,0.813 5.722,1.922 8.378,3.36 2.051,3.484 -3.437,4.426 -5.441,5.691 -9.941,-1.187 -20.059,-1.402 -29.785,-4.004 -0.32,-0.672 -0.938,-2 -1.231,-2.676 0.5,-6.687 13.977,-0.496 12.286,-8.484 -1.141,-14.617 -4.786,-29.316 -10.957,-42.637 -0.418,-0.261 -1.27,-0.781 -1.688,-1.047 -8.273,14.29 -15.117,29.551 -18.215,45.825 4.035,1.968 10.07,1.16 12.102,5.957 l 0.203,2.129 c -13.426,1.089 -26.817,-1.196 -40.195,-2.192 -5.879,1.926 -4.188,-7.437 0.371,-6.707 2.804,-0.859 5.644,-1.64 8.507,-2.363 8.582,-17.695 17.637,-35.254 24.922,-53.523 -0.234,0.339 -0.734,1.042 -0.968,1.406 -8.868,14.312 -14.618,30.293 -22.266,45.269 -2.422,9.258 -17.508,5.207 -16.492,16.653 15.867,1.64 31.816,3.515 47.82,2.734 v 0" /><path
         id="path112"
         style="fill:#ffffff;fill-opacity:1;fill-rule:nonzero;stroke:none"
         d="m 299.789,480.754 c 18.809,-3.149 38.766,-1.566 56.512,-9.426 8.402,-4.055 18.051,-12.59 14.64,-22.969 -1.793,-7.547 -9.281,-10.988 -15.32,-14.57 5,-4.504 12.129,-8.945 11.891,-16.57 0.703,-7.129 -1.043,-15.199 -7.438,-19.36 -10.226,-7.285 -22.871,-0.523 -34.191,-1.48 l -2.106,0.547 c -0.363,0.281 -1.089,0.879 -1.457,1.172 -10.539,2.363 -21.465,3.035 -31.793,6.375 -0.625,1.113 -1.922,3.347 -2.578,4.472 5.258,1.016 10.512,1.922 15.774,2.969 2.679,18.281 5.957,36.492 7.957,54.863 0.804,7.676 -12.047,5.672 -11.891,13.977 v 0" /><path
         id="path114"
         style="fill:#ffffff;fill-opacity:1;fill-rule:nonzero;stroke:none"
         d="m 427.797,477.156 c 9.726,2.602 19.844,2.817 29.785,4.004 2.004,-1.265 7.492,-2.207 5.441,-5.691 -2.656,-1.438 -5.468,-2.547 -8.378,-3.36 -8.801,-23.027 -13.321,-47.351 -19.747,-71.074 -4.687,-0.832 -9.394,-1.531 -14.074,-2.234 -1.746,3.269 -3.515,6.472 -5.359,9.644 -0.235,0.364 -0.703,1.125 -0.938,1.489 l -0.625,1.504 c -7.285,18.269 -16.34,35.828 -24.922,53.523 -2.863,0.723 -5.703,1.504 -8.507,2.363 -4.559,-0.73 -6.25,8.633 -0.371,6.707 13.378,0.996 26.769,3.281 40.195,2.192 l -0.203,-2.129 c -2.032,-4.797 -8.067,-3.989 -12.102,-5.957 3.098,-16.274 9.942,-31.535 18.215,-45.825 0.418,0.266 1.27,0.786 1.688,1.047 6.171,13.321 9.816,28.02 10.957,42.637 1.691,7.988 -11.786,1.797 -12.286,8.484 0.293,0.676 0.911,2.004 1.231,2.676 v 0" /><path
         id="path116"
         style="fill:#f5f014;fill-opacity:1;fill-rule:nonzero;stroke:none"
         d="m 420.297,472.703 c 5.547,-1.765 11.301,-2.801 16.973,-4.156 -0.555,-15.063 -4.122,-30.442 -11.063,-43.867 -6.789,13.797 -14.133,27.683 -16.465,43.062 3.582,0.832 7.207,1.613 10.82,2.363 l -0.265,2.598 v 0" /><path
         id="path118"
         style="fill:#100f0d;fill-opacity:1;fill-rule:nonzero;stroke:none"
         d="m 328.723,468.496 c 8.613,-2.051 20.941,-0.105 25.441,-9.629 1.148,-7.004 -1.531,-16.418 -9.547,-17.922 6.324,4.289 12.203,14.746 5.125,20.969 -5.824,3.828 -13.265,3.672 -19.902,4.988 -1.278,-7.066 -2.473,-14.148 -3.613,-21.25 4.449,-1.172 8.867,-2.39 13.289,-3.64 -5.121,0.05 -10.09,1.25 -15.086,2.234 1.351,8.09 2.882,16.152 4.293,24.25 v 0" /><path
         id="path120"
         style="fill:#f5f014;fill-opacity:1;fill-rule:nonzero;stroke:none"
         d="m 329.84,466.902 c 6.637,-1.316 14.078,-1.16 19.902,-4.988 7.078,-6.223 1.199,-16.68 -5.125,-20.969 -1.719,0.285 -3.433,0.649 -5.101,1.067 -4.422,1.25 -8.84,2.468 -13.289,3.64 1.14,7.102 2.335,14.184 3.613,21.25 v 0" /><path
         id="path122"
         style="fill:#ec1b2e;fill-opacity:1;fill-rule:nonzero;stroke:none"
         d="m 513.004,453.816 c 8.32,4.844 18.984,9.661 28.359,4.739 5.567,-4.993 7.305,-14.356 2.489,-20.469 -6.004,-5.828 -14.461,-8.484 -22.762,-8.25 -2.598,8.016 -5.285,16.023 -8.086,23.98 v 0" /><path
         id="path124"
         style="fill:#100f0d;fill-opacity:1;fill-rule:nonzero;stroke:none"
         d="m 324.039,434.387 c 8.426,-1.457 18.445,-0.782 24.793,-7.539 4.348,-5.91 2.289,-14.68 -2.211,-19.883 -8.168,-4.524 -17.59,-0.332 -26.226,0.183 0,9.207 1.199,18.372 3.644,27.239 v 0" /><path
         id="path126"
         style="fill:#f5f014;fill-opacity:1;fill-rule:nonzero;stroke:none"
         d="m 324.898,432.773 c 8.067,-1.25 17.922,-1.062 23.493,-8.117 2.367,-6.328 0.726,-16.492 -7,-18.191 -6.633,-0.457 -13.215,1.172 -19.746,2.012 0.285,8.195 1.457,16.308 3.253,24.296 v 0" /><path
         id="path128"
         style="fill:#100f0d;fill-opacity:1;fill-rule:nonzero;stroke:none"
         d="m 406.566,266.238 c 7.305,-0.125 14.7,-0.183 21.875,1.457 0.032,-2.832 0.079,-5.691 0.157,-8.554 -5.516,-0.032 -11.024,-0.032 -16.524,-0.079 l 0.156,-2.761 c 7.11,-0.207 19.043,-1.047 18.352,-10.981 1.27,-15.086 -28.262,-16.179 -26.309,-0.437 7.051,5.722 10.36,-11.836 17.176,-4.141 3.821,2.395 0,8.035 -3.543,8.196 -4.004,0.835 -8.117,-0.02 -12.148,-0.161 0.418,5.832 0.672,11.633 0.808,17.461 v 0" /><path
         id="path130"
         style="fill:#100f0d;fill-opacity:1;fill-rule:nonzero;stroke:none"
         d="m 315.66,259.973 c 1.852,6.472 10.223,5.066 15.274,7.3 0.046,-9.207 0.023,-18.433 0,-27.671 1.484,-0.239 4.421,-0.735 5.902,-0.989 v -4.218 c -6.707,0 -13.422,0 -20.137,0 l -0.179,4.082 c 1.664,0.371 4.996,1.043 6.66,1.406 -0.028,6.269 0.289,12.597 -0.442,18.84 -1.769,0.308 -5.312,0.933 -7.078,1.25 v 0" /><path
         id="path132"
         style="fill:#100f0d;fill-opacity:1;fill-rule:nonzero;stroke:none"
         d="m 344.355,261.086 c 4.45,7.469 16.133,7.574 22.27,2.156 2.082,-3.816 -0.281,-7.773 -1.48,-11.445 3.253,-3.328 5.953,-8.242 3.199,-12.774 -5.41,-7.335 -18.395,-7.335 -24.223,-0.578 -3.406,4.25 0.496,8.332 3.281,11.457 -2.16,3.379 -4.84,7 -3.047,11.184 v 0" /><path
         id="path134"
         style="fill:#100f0d;fill-opacity:1;fill-rule:nonzero;stroke:none"
         d="m 372.582,253.074 c -2.957,14.367 19.699,19.016 25.684,7.492 3.41,-7.441 2.363,-18.054 -4.95,-22.89 -5.07,-3.594 -11.574,-3.535 -17.453,-4.348 v 4.914 c 5.52,0.891 10.801,2.781 15.508,5.781 -7,0.411 -17.851,-0.214 -18.789,9.051 v 0" /><path
         id="path136"
         style="fill:#f5f014;fill-opacity:1;fill-rule:nonzero;stroke:none"
         d="m 350.941,260.645 c 2.364,0.058 7.079,0.125 9.446,0.183 -0.5,-1.64 -1.485,-4.89 -1.985,-6.504 -3.429,0.805 -6.191,2.961 -7.461,6.321 v 0" /><path
         id="path138"
         style="fill:#f5f014;fill-opacity:1;fill-rule:nonzero;stroke:none"
         d="m 383.539,260.645 c 6.535,3.847 11.133,-7.911 4.523,-9.915 -5.82,-3.375 -10.011,7.051 -4.523,9.915 v 0" /><path
         id="path140"
         style="fill:#f5f014;fill-opacity:1;fill-rule:nonzero;stroke:none"
         d="m 351.898,240.715 c -3.714,1.773 0.579,7.937 3.829,6.043 3.277,-0.528 5.043,-3.543 7.101,-5.813 -3.488,-0.593 -7.75,-3.3 -10.93,-0.23 v 0" /></g></g></svg>