<?xml version="1.0" encoding="UTF-8" standalone="no"?>
<svg
   xmlns:dc="http://purl.org/dc/elements/1.1/"
   xmlns:cc="http://creativecommons.org/ns#"
   xmlns:rdf="http://www.w3.org/1999/02/22-rdf-syntax-ns#"
   xmlns:svg="http://www.w3.org/2000/svg"
   xmlns="http://www.w3.org/2000/svg"
   viewBox="0 0 779.89331 985.32001"
   height="985.32001"
   width="779.89331"
   xml:space="preserve"
   id="svg2"
   version="1.1"><metadata
     id="metadata8"><rdf:RDF><cc:Work
         rdf:about=""><dc:format>image/svg+xml</dc:format><dc:type
           rdf:resource="http://purl.org/dc/dcmitype/StillImage" /></cc:Work></rdf:RDF></metadata><defs
     id="defs6"><clipPath
       id="clipPath20"
       clipPathUnits="userSpaceOnUse"><path
         id="path18"
         d="M 0,0 H 5849 V 7389.86 H 0 Z" /></clipPath></defs><g
     transform="matrix(1.3333333,0,0,-1.3333333,0,985.32)"
     id="g10"><g
       transform="scale(0.1)"
       id="g12"><g
         id="g14"><g
           clip-path="url(#clipPath20)"
           id="g16"><path
             id="path22"
             style="fill:#d5ab68;fill-opacity:1;fill-rule:nonzero;stroke:none"
             d="m 1847.6,7388 c 307.2,3.8 614.6,0.41 921.9,1.5 410.91,-1 821.8,2 1232.7,-1.4 1.8,-80.2 22.31,-158.5 50.2,-233.3 67.4,-178.89 179,-339.8 318.41,-470.2 126.99,-116.4 272.9,-211.19 429.69,-282.19 328.3,-150.41 691.11,-202.91 1048.7,-223.61 -29.1,-187.2 -74.5,-371.4 -116.8,-556 -207.3,-865.6 -479.4,-1717.7 -846.1,-2529.5 -231.4,-510.6 -504.6,-1005 -846.9,-1450.1 -71.6,-91.09 -145.4,-180.5 -223.1,-266.49 -17.7,-12.31 -5.09,-31.81 -0.4,-47.71 43,-104.3 70.8,-216.7 69.8,-330.098 -88.1,145.498 -178.8,290.598 -290,419.908 -49.49,60.49 -105.5,115.09 -160.9,170 -36.2,36.09 -78.8,64.89 -113.7,102.39 31.7,32.7 62.21,66.71 90.2,102.61 49,-26.7 95.4,-58.21 136.61,-95.9 70.69,132.39 133.19,269.09 189.79,407.99 13.2,30 24,60.9 32.8,92.5 -104.5,-15 -208.8,-30.7 -313.6,-42.8 -19.3,-114.9 -37.3,-230.3 -62.3,-344.2 -13.3,-3.2 -30.09,-1.3 -38.7,-14.29 -153.6,-170.4 -294.5,-357.21 -378.89,-572.41 -29.51,-67.9 -47.31,-140 -70.71,-210.09 -3,-15.11 -19.2,-19.309 -31.1,-25.399 -99.1,-39.809 -205.8,-61.211 -312.7,-61.699 3.5,179.288 64.6,352.388 136.9,514.688 81.2,172.81 183.5,336.1 304.6,483.7 80.6,-2.8 156.81,-32.4 236.5,-40.89 5.6,64.39 20.31,127.39 31.2,190.99 75.31,444.01 136.7,890.31 192.2,1337.2 134.6,1100.1 237.71,2203.9 327.4,3308.41 12.1,165.39 27.6,330.59 36.4,496.09 -601.8,0.8 -1203.6,0 -1805.3,0.4 5,-152.1 22.6,-303.3 32.1,-455.1 86.8,-1068.9 185.2,-2137.1 313.2,-3202 57.9,-480.8 122.2,-960.99 202.2,-1438.7 12.7,-79.3 30.6,-157.8 39.5,-237.69 106.7,16.89 211.8,51.59 321.41,42.1 C 2872.4,1834.5 2805.2,1747.8 2751.3,1652.51 2619.5,1432.7 2524.5,1187.3 2502.5,930.41 2379.6,923 2253.8,922.109 2135.3,960.5 c 49.6,217.41 113,433.2 211.9,633.8 31,69.51 74.1,132.7 108.2,200.31 -20,120.4 -45.5,240.19 -63,361.19 -106,12.5 -211.8,26.8 -317.3,43.01 65,-169.71 138.7,-336.3 224.6,-496.61 18.6,10.6 37.1,21.2 55.7,31.8 -121.1,-239.3 -235.7,-487.8 -272.5,-756 -40.5,5.5 -80.7,12.012 -120.6,20.5 2,126.11 36.1,248.7 83.4,364.8 -237.2,257.6 -438,546.5 -620.7,844.61 C 1192.5,2593.2 996,2999.4 823.5,3414.8 547.102,4078.5 329.504,4765.8 156.105,5463.2 97.6016,5700.2 40.6016,5938 0,6178.9 c 49.5039,6.5 99.5039,8.3 149.402,10.3 330.399,28 663.2,93.4 961.598,243 207.1,103.4 395.1,250 531.6,438.2 109.2,151.4 194.1,328.8 205,517.6 v 0" /><path
             id="path24"
             style="fill:#2e62b5;fill-opacity:1;fill-rule:nonzero;stroke:none"
             d="m 2022.4,7218.1 c 601.7,-0.4 1203.5,0.4 1805.3,-0.4 -8.8,-165.5 -24.3,-330.7 -36.4,-496.09 C 3701.61,5617.1 3598.5,4513.3 3463.9,3413.2 3408.4,2966.31 3347.01,2520.01 3271.7,2076 c -10.89,-63.6 -25.6,-126.6 -31.2,-190.99 -79.69,8.49 -155.9,38.09 -236.5,40.89 -24.4,1.1 -48.8,0.6 -73.19,0.81 -109.61,9.49 -214.71,-25.21 -321.41,-42.1 -8.9,79.89 -26.8,158.39 -39.5,237.69 -80,477.71 -144.3,957.9 -202.2,1438.7 -128,1064.9 -226.4,2133.1 -313.2,3202 -9.5,151.8 -27.1,303 -32.1,455.1 v 0" /><path
             id="path26"
             style="fill:#eb2825;fill-opacity:1;fill-rule:nonzero;stroke:none"
             d="m 1871,6902.7 c 10.4,-79.6 13.8,-159.8 21.5,-239.7 5.8,-112.4 21.6,-224.2 24.5,-336.9 -127.4,1.3 -253.9,16.5 -381,23.5 -60.1,7.9 -121.3,6.8 -180.7,19.6 141.1,95 273.6,204.6 380.6,337.5 51,61.1 93.9,128.21 135.1,196 v 0" /><path
             id="path28"
             style="fill:#eb2825;fill-opacity:1;fill-rule:nonzero;stroke:none"
             d="m 3977.4,6906.3 c 123.81,-220.1 308.2,-404.2 522.11,-537.2 -139.1,-18.9 -279.81,-24.7 -419.81,-35.2 -48.89,-6.4 -98.3,-7.2 -147.5,-8 11.2,193.7 29.2,387 45.2,580.4 v 0" /><path
             id="path30"
             style="fill:#d5ab68;fill-opacity:1;fill-rule:nonzero;stroke:none"
             d="m 2554.7,6779.4 c 84,1 167.9,0.51 251.9,0.3 4.1,-127.2 -6.8,-255.2 6.2,-381.9 74.4,1.7 148.9,0.8 223.3,0.5 1.5,126.5 0.51,253.1 0.7,379.6 85.5,3.6 171.2,2.4 256.8,0.8 -0.29,-373.7 -0.29,-747.5 0.11,-1121.2 -31.31,-3.6 -62.9,-8.4 -94.31,-3.6 -54.3,0.8 -108.8,-7.4 -162.6,4.7 0.1,143.4 0.21,286.9 -0.4,430.3 -75.59,-0.1 -151.2,0.7 -226.8,-0.2 -7,-146.2 1.3,-292.8 -4.3,-439 -83.9,-1 -167.6,1.5 -251.2,7.2 0.7,374.2 -0.5,748.3 0.6,1122.5 v 0" /><path
             id="path32"
             style="fill:#ffffff;fill-opacity:1;fill-rule:nonzero;stroke:none"
             d="m 1120.8,6211.3 c 116.1,-1.1 231.1,-20.4 347,-26 155,-14.7 310.9,-21 465.8,-36.4 27.4,-301.2 51.8,-602.59 82.6,-903.4 -248.2,18.5 -495.8,45.3 -743.1,73.7 -53,259.8 -94.7,521.9 -139.5,783.2 -6.7,36 -10.4,72.4 -12.8,108.9 v 0" /><path
             id="path34"
             style="fill:#ffffff;fill-opacity:1;fill-rule:nonzero;stroke:none"
             d="m 4059,6160.6 c 222.7,16 445.51,31.8 667.5,55.9 -0.2,-25.4 -0.4,-50.9 -4.49,-76.1 -47.01,-273.9 -90.11,-548.6 -145.11,-821 -246.9,-29.5 -494.4,-53.8 -742.1,-75 26.6,301.4 54.5,602.8 81.01,904.2 47.39,7.9 95.29,9.2 143.19,12 v 0" /><path
             id="path36"
             style="fill:#eb2825;fill-opacity:1;fill-rule:nonzero;stroke:none"
             d="m 903.902,6159.4 c 15.602,4.6 31.496,8.3 47.403,11.8 36.898,-241.4 78.995,-481.9 122.095,-722.2 7.4,-35.8 13.1,-71.9 15.9,-108.3 -251.097,32.7 -502.398,65.4 -751.898,108.5 -42.097,168.5 -82.699,337.4 -118.797,507.4 -4.101,21.6 -6.402,43.6 -8.605,65.5 235.504,18.9 469.504,63 693.902,137.3 v 0" /><path
             id="path38"
             style="fill:#eb2825;fill-opacity:1;fill-rule:nonzero;stroke:none"
             d="m 4897.5,6171.4 c 66.1,-13.5 128.5,-40 194,-56 180.9,-49.9 367.1,-75.9 553.2,-96.4 -42,-190.5 -85.4,-380.8 -132.4,-570.19 -248.9,-42.91 -499.7,-73.41 -749.7,-109.21 -0.4,42.2 8.1,83.5 16.51,124.6 40.09,235.6 83.89,470.7 118.39,707.2 v 0" /><path
             id="path40"
             style="fill:#ffffff;fill-opacity:1;fill-rule:nonzero;stroke:none"
             d="m 388.805,5265.8 c 244.398,-35.7 488.597,-73.3 734.095,-100.7 42.5,-202.2 78.5,-405.8 122.4,-607.8 14.4,-74.4 34,-147.9 45,-223 -91.2,4.6 -181.1,21.8 -271.5,33.6 -127.898,19.7 -255.995,38.7 -383.601,60.3 -72.898,211.7 -133.797,427.3 -196.699,642.1 -16.199,65.2 -38.5,129 -49.695,195.5 v 0" /><path
             id="path42"
             style="fill:#ffffff;fill-opacity:1;fill-rule:nonzero;stroke:none"
             d="m 4725.5,5164.7 c 245.2,28.9 489.7,63.5 733.7,101.7 -7.3,-59.2 -27.7,-115.4 -42.8,-172.9 -61.7,-223.1 -128.2,-445 -201.5,-664.7 -144.49,-24.1 -289.09,-47.4 -434.2,-67.5 -73.69,-9.6 -146.9,-24.4 -221.3,-26.8 30.6,177.2 74,352.1 106.9,528.9 21,100.2 37.1,201.3 59.2,301.3 v 0" /><path
             id="path44"
             style="fill:#d5ab68;fill-opacity:1;fill-rule:nonzero;stroke:none"
             d="m 2554.1,5221.3 c 81.1,4 162.9,5.3 243.9,-1 67,-180.6 142,-358.2 209.91,-538.5 13.49,-36.3 28.09,-72.1 45,-106.9 5.69,105.9 -0.31,212 0.89,318 0.2,109.4 -0.8,218.7 -1.9,328.1 80.5,3.3 161.41,8.1 241.7,-0.7 -0.29,-374 -0.2,-748 0,-1122 -81,-1.7 -161.99,-0.8 -243,-0.7 -88.3,221.9 -175.7,444.1 -263,666.4 10.2,-76.5 1.9,-154 4.6,-231 3.3,-145 -0.2,-290 3,-435 -80.3,-1.2 -160.6,-0.6 -240.8,-0.4 -0.4,374.6 0.2,749.2 -0.3,1123.7 v 0" /><path
             id="path46"
             style="fill:#eb2825;fill-opacity:1;fill-rule:nonzero;stroke:none"
             d="m 1303.6,5140.3 c 135.7,-8.9 270.4,-28.99 406,-39.7 107.7,-12.4 216,-18.1 323.5,-30.9 26.2,-274.9 55.7,-549.4 84,-824.1 -73,-2 -145.1,10.6 -217.8,15.2 -141.3,13.4 -282.5,28 -423.3,46.5 -63.6,276.4 -117.3,554.9 -172.4,833 v 0" /><path
             id="path48"
             style="fill:#eb2825;fill-opacity:1;fill-rule:nonzero;stroke:none"
             d="m 4339.6,5121 c 68.8,5.1 137.01,17.4 206.1,18.6 -54.3,-278.1 -110.1,-556 -171.99,-832.5 -143.3,-18.6 -287.1,-33.4 -430.91,-46.8 -70.3,-5.8 -140.3,-15.7 -211,-15.7 29.5,274.7 58.3,549.5 83.9,824.6 174.3,19.2 349.6,31.3 523.9,51.8 v 0" /><path
             id="path50"
             style="fill:#eb2825;fill-opacity:1;fill-rule:nonzero;stroke:none"
             d="m 698.102,4241.9 c 193.902,-25 386.698,-59.1 580.998,-81.9 16.3,-2 33.2,-2.7 49,-7.9 10.4,-9.1 10.3,-24.8 14.9,-37.2 54.2,-244.3 115.6,-486.9 176.8,-729.49 -124.3,12.89 -246.9,38.59 -370.1,59.39 -55.2,9.3 -110.3,19.2 -164.798,32.2 -102.601,252.21 -202.004,506.1 -286.8,764.9 v 0" /><path
             id="path52"
             style="fill:#eb2825;fill-opacity:1;fill-rule:nonzero;stroke:none"
             d="m 4896.7,4205.3 c 85.1,10.9 169.11,29.2 254.7,36.6 -63.7,-197.7 -139.39,-391.3 -214.2,-585 -24,-56.8 -44.2,-115.3 -70.5,-171 -5.6,-14.8 -23.9,-13.7 -36.2,-17.6 -166.6,-30.2 -333.1,-61.7 -500.99,-83.29 64.49,254.79 128.49,509.79 185.09,766.49 127.3,18.5 255,33.9 382.1,53.8 v 0" /><path
             id="path54"
             style="fill:#ffffff;fill-opacity:1;fill-rule:nonzero;stroke:none"
             d="m 1515.8,4128.4 c 206.3,-22.7 413,-41.6 619.6,-61.1 31.1,-256.7 60.4,-513.7 92,-770.4 -174.3,16.8 -348.6,35.5 -521.8,61.4 -68.3,255.4 -131.1,512.3 -189.8,770.1 v 0" /><path
             id="path56"
             style="fill:#ffffff;fill-opacity:1;fill-rule:nonzero;stroke:none"
             d="m 3713.71,4067.2 c 205.69,19.4 411.49,38.2 616.79,61.2 -52.19,-258.8 -120.2,-514.4 -186.39,-770 -173.11,-25.7 -347.21,-44.59 -521.31,-61.69 30.4,256.79 60.6,513.69 90.91,770.49 v 0" /><path
             id="path58"
             style="fill:#d5ab68;fill-opacity:1;fill-rule:nonzero;stroke:none"
             d="m 2678.9,3604.1 c 70.1,76.1 180.8,100.91 280.5,90.2 69.4,-8.4 139.4,-32.1 189.8,-82.4 69.7,-71.2 102.1,-173.5 98.6,-272 -76.99,-0.8 -154,-0.29 -231,-0.2 -9.5,30.5 -17.6,65.5 -46.9,83.5 -42.7,31.41 -125.2,20 -134.8,-39.8 -10.4,-47 31.4,-80.6 69.3,-97.6 87.1,-38.1 183.7,-58.9 260.7,-117.4 C 3231,3113 3268,3029 3273,2943.81 c 7,-109.31 -6.6,-227.5 -75.09,-317.01 -53.91,-75.7 -148.11,-109.4 -237.5,-117.5 -98.21,-7.99 -204.51,18.3 -275.71,89.6 -75.6,78.5 -108.9,189.91 -109.7,297.1 78.9,-1.7 157.9,2.4 236.7,-1.79 22.3,-31.11 22.2,-78.61 58.4,-100.61 50,-28.8 136.6,-21 154.5,42.71 13.1,42.9 -17.7,80.59 -54.1,98.59 -97.7,48.91 -211.5,69.8 -295.4,143.6 -50.9,55.5 -82,129.7 -83.4,205.2 l -5.9,8.01 c -0.2,30.49 0.1,61.09 1.5,91.49 9.2,79.9 32,163.4 91.6,220.9 v 0" /><path
             id="path60"
             style="fill:#ffffff;fill-opacity:1;fill-rule:nonzero;stroke:none"
             d="m 1070.2,3280.8 c 41,-1.3 81.6,-7.89 121.8,-16.1 124.3,-20.7 248.5,-42.99 373.7,-58.6 32.2,-93.5 54.8,-189.9 84.2,-284.3 49.3,-167 102.7,-332.8 159.3,-497.5 -97.7,11 -192.4,38.3 -288.8,56.5 -19.1,4.61 -39.5,6.5 -56.7,16.4 -13.3,13.7 -22.4,30.71 -32,47.01 -131.6,239.89 -252.2,485.8 -361.5,736.59 v 0" /><path
             id="path62"
             style="fill:#ffffff;fill-opacity:1;fill-rule:nonzero;stroke:none"
             d="m 4347.8,3214.9 c 144.6,17.1 286.71,51.6 431.5,66.5 C 4694.6,3084 4599.9,2891.2 4501.61,2700.3 4461.4,2631 4429.9,2556.5 4383,2491.2 c -114.5,-19.09 -226.39,-52.9 -341.7,-67.39 84.2,249.39 161.9,500.89 231.61,754.69 4.79,36.91 48.19,30 74.89,36.4 v 0" /><path
             id="path64"
             style="fill:#eb2825;fill-opacity:1;fill-rule:nonzero;stroke:none"
             d="m 1753,3178.7 c 166.2,-22.8 333.6,-36.3 499.7,-59.49 31.2,-261.61 69.7,-522.41 111.7,-782.5 -64.1,1.49 -127.1,13.7 -190.3,22.29 -58.3,8.8 -117,15.4 -174.1,30 -56.5,174.5 -119.1,347.2 -169.3,523.7 -27.3,88.3 -51.2,177.6 -77.7,266 v 0" /><path
             id="path66"
             style="fill:#eb2825;fill-opacity:1;fill-rule:nonzero;stroke:none"
             d="m 3700.6,3133.1 c 132.2,12.1 263.8,29.81 395.61,45.4 -75.4,-266.39 -156.31,-531.39 -249.81,-792.1 -119.7,-19.69 -239.7,-42.3 -360.99,-49.29 38.79,234.49 70.69,470 102.19,705.49 4.5,25.8 3.5,53.6 14.5,77.7 31.5,10.11 65.81,7.61 98.5,12.8 v 0" /><path
             id="path68"
             style="fill:#eb2825;fill-opacity:1;fill-rule:nonzero;stroke:none"
             d="m 1580.3,2290.2 c 93.5,-16.9 186.4,-37.2 279.9,-54.4 22.2,-0.2 25.3,-24.7 33.3,-40.5 79.8,-213.4 172.5,-422.5 282.5,-622.2 -13,-16.9 -26,-34 -39,-50.99 -210.7,236.39 -394.9,495.99 -556.7,768.09 v 0" /><path
             id="path70"
             style="fill:#eb2825;fill-opacity:1;fill-rule:nonzero;stroke:none"
             d="m 4046.9,2247.11 c 74.5,12.79 148,31.29 222.7,42.9 C 4107.8,2018.7 3923.31,1760.7 3715,1523 c -13.7,16.8 -27.5,33.6 -41.2,50.3 105.6,191.4 194,391.9 272.2,595.91 8.2,20.69 15.1,42.19 27,61.2 23.3,10 49.1,11.89 73.9,16.7 v 0" /><path
             id="path72"
             style="fill:#d5ab68;fill-opacity:1;fill-rule:nonzero;stroke:none"
             d="m 3092.6,1359.5 c 51.3,111.4 117,217.9 206.51,302.8 156.7,-144 304.89,-299 426.3,-474.39 C 3784.4,1099.9 3844,1010.2 3885.3,912.512 3881.1,754.699 3831.21,597 3746.4,463.812 c -74.9,173.387 -160.3,343.297 -268.8,498.489 -96.2,140.609 -215,266.299 -351.6,368.199 -11.49,9.3 -22.5,19.2 -33.4,29 v 0" /><path
             id="path74"
             style="fill:#d5ab68;fill-opacity:1;fill-rule:nonzero;stroke:none"
             d="m 3060.2,1317.4 c 129.7,-81.3 236.3,-194.1 331.1,-313.19 130.1,-168.909 233.21,-357.409 315.1,-553.909 7.5,-16.602 13.9,-37 -1.5,-51.489 -69.3,-92.5 -151.7,-177.91 -251.3,-237.71 -55.4,153.8 -114.49,307.199 -197.1,448.91 C 3177.91,746.801 3073.8,867 2963.1,978.5 c 0.21,119.5 40.8,234.9 97.1,338.9 v 0" /><path
             id="path76"
             style="fill:#d5ab68;fill-opacity:1;fill-rule:nonzero;stroke:none"
             d="m 1962.2,941.711 c 95.6,-20.211 191.6,-38.801 288.4,-52.102 224.2,-29.109 454.4,-14.707 671.5,49.203 108.6,-59.41 182.6,-164.011 237.9,-271.91 -173.79,-85.8 -367.9,-122.691 -560.3,-133.09 -116.5,-11.21 -233.3,-1.41 -349.6,5.797 -68.7,5.801 -137.4,13.192 -205.2,26.293 -49.3,119.2 -82.4,246.207 -82.7,375.809 v 0" /><path
             id="path78"
             style="fill:#d5ab68;fill-opacity:1;fill-rule:nonzero;stroke:none"
             d="m 2886.2,525.5 c 102,22.699 201.3,57.301 295.3,102.902 53.5,-67.8 96.6,-143.203 134.2,-220.89 18.3,-34.211 34.6,-69.711 44.71,-107.41 C 3079.2,212 2786.1,149.301 2489.9,158.199 c -37.9,3.203 -79.8,-5.898 -114.2,14.203 -124.2,85.797 -227.1,201.7 -298.8,334.5 268.7,-29.5 543.7,-42.5 809.3,18.598 v 0" /><path
             id="path80"
             style="fill:#d5ab68;fill-opacity:1;fill-rule:nonzero;stroke:none"
             d="m 3027.6,154.902 c 117.4,20.508 232.5,53.5 343.7,96.2 16.2,-38.7 31.7,-77.7 44.4,-117.7 C 3268.4,49.3008 3100.41,-0.789062 2930.1,0.0117188 2781.8,0.902344 2630.5,30.1992 2500.1,102.699 c 176.2,12.403 353.2,21.301 527.5,52.203 v 0" /></g></g></g></g></svg>