<?xml version="1.0" encoding="UTF-8" standalone="no"?>
<!-- Created with Inkscape (http://www.inkscape.org/) -->

<svg
   xmlns:dc="http://purl.org/dc/elements/1.1/"
   xmlns:cc="http://creativecommons.org/ns#"
   xmlns:rdf="http://www.w3.org/1999/02/22-rdf-syntax-ns#"
   xmlns:svg="http://www.w3.org/2000/svg"
   xmlns="http://www.w3.org/2000/svg"
   xmlns:sodipodi="http://sodipodi.sourceforge.net/DTD/sodipodi-0.dtd"
   xmlns:inkscape="http://www.inkscape.org/namespaces/inkscape"
   width="827.24994"
   height="1118.7639"
   id="svg3498"
   version="1.1"
   inkscape:version="0.48.5 r10040"
   sodipodi:docname="Badge_of_the_Czech_Republic_football_team.svg">
  <defs
     id="defs3500" />
  <sodipodi:namedview
     id="base"
     pagecolor="#ffffff"
     bordercolor="#666666"
     borderopacity="1.0"
     inkscape:pageopacity="0.0"
     inkscape:pageshadow="2"
     inkscape:zoom="0.3"
     inkscape:cx="950.13969"
     inkscape:cy="563.71049"
     inkscape:document-units="px"
     inkscape:current-layer="layer1"
     showgrid="false"
     fit-margin-top="5"
     fit-margin-left="5"
     fit-margin-right="5"
     fit-margin-bottom="5"
     inkscape:window-width="1366"
     inkscape:window-height="706"
     inkscape:window-x="-8"
     inkscape:window-y="-8"
     inkscape:window-maximized="1" />
  <metadata
     id="metadata3503">
    <rdf:RDF>
      <cc:Work
         rdf:about="">
        <dc:format>image/svg+xml</dc:format>
        <dc:type
           rdf:resource="http://purl.org/dc/dcmitype/StillImage" />
        <dc:title />
      </cc:Work>
    </rdf:RDF>
  </metadata>
  <g
     id="layer1"
     inkscape:label="Layer 1"
     inkscape:groupmode="layer"
     transform="translate(-530.36255,-16.215212)">
    <path
       style="fill:#ffffff;stroke:#000000;stroke-width:1px;stroke-linecap:butt;stroke-linejoin:miter;stroke-opacity:1"
       d="m 476.66667,105.43058 c -2.22223,0.55556 -6.11111,3.88889 -6.66667,1.66667 -0.55556,-2.22222 8.28638,-0.047 6.66667,-1.66667 -1.96419,-1.96418 -5.55556,0 -8.33334,0 -2.77777,0 -5.55555,0 -8.33333,0 -0.55556,0 -1.27383,0.39284 -1.66667,0 -0.39283,-0.39283 0.39284,-1.27383 0,-1.66666 -0.39283,-0.39284 -1.11111,0 -1.66666,0 -4.44445,0 -8.88889,0 -13.33334,0 -10,0 -20,0 -30,0 -4.44444,0 -8.88889,0 -13.33333,0 -1.11111,0 -2.22222,0 -3.33333,0 -0.55556,0 -1.16977,-0.24846 -1.66667,0 -0.70273,0.35136 -0.96394,1.3153 -1.66667,1.66666 -0.4969,0.24845 -1.11111,0 -1.66666,0 -1.11111,0 -2.22223,0 -3.33334,0 -2.22222,0 -4.44444,0 -6.66666,0 -0.55556,0 -1.11111,0 -1.66667,0 -0.55556,0 -1.16976,-0.24845 -1.66667,0 -0.70272,0.35137 -0.96393,1.3153 -1.66666,1.66667 -0.49691,0.24845 -1.11111,0 -1.66667,0 -0.55556,0 -1.11111,0 -1.66667,0 -3.33333,0 -6.66666,0 -10,0 -0.55555,0 -1.11111,0 -1.66666,0 -0.55556,0 -1.27383,-0.39284 -1.66667,0 -0.39284,0.39284 0.39284,1.27383 0,1.66667 -0.39284,0.39283 -1.11111,0 -1.66667,0 -3.33333,0 -6.66666,0 -10,0 -1.66666,0 -3.38309,-0.40423 -5,0 -1.20517,0.30129 -2.15482,1.27383 -3.33333,1.66666 -1.049,0.34967 -6.83106,0 -8.33333,0 -6.66667,0 -13.33334,0 -20,0 -6.11111,0 -12.22223,0 -18.33334,0 -1.15923,0 -7.73061,-0.30136 -8.33333,0 -0.70273,0.35137 -0.96394,1.3153 -1.66667,1.66667 -0.451,0.2255 -9.28208,0 -10,0 -0.55555,0 -1.16976,-0.24845 -1.66666,0 -0.70273,0.35136 -0.92131,1.41821 -1.66667,1.66667 -1.94651,0.64883 -4.72015,-0.64884 -6.66667,0 -0.74535,0.24845 -0.90445,1.47611 -1.66666,1.66666 -1.61691,0.40423 -3.33334,0 -5,0 -0.55556,0 -1.13962,-0.17568 -1.66667,0 -1.17851,0.39284 -2.1152,1.42304 -3.33333,1.66667 -1.6343,0.32686 -3.33334,0 -5,0 -0.55556,0 -1.16977,-0.24845 -1.66667,0 -0.70273,0.35136 -0.92131,1.41821 -1.66667,1.66667 -0.97546,0.32515 -11.59526,-0.0179 -11.66666,0 -0.53897,0.13474 0.39283,1.27383 0,1.66666 -0.87841,0.87841 -2.15483,1.27383 -3.33334,1.66667 -1.049,0.34967 -6.83106,0 -8.33333,0 -0.55556,0 -1.27383,-0.39284 -1.66667,0 -0.78567,0.78567 0.78568,2.54766 0,3.33333 -0.83333,0.83334 -4.16666,-0.83333 -5,0 -3.44839,3.44839 5.2696,-0.1348 -1.66666,3.33334 -0.88966,0.44482 -2.44368,-0.44483 -3.33334,0 -0.70272,0.35136 -0.96393,1.3153 -1.66666,1.66666 -0.49691,0.24845 -1.27383,-0.39283 -1.66667,0 -3.44839,3.44839 5.2696,-0.1348 -1.66667,3.33334 -0.4969,0.24845 -1.66666,0.55555 -1.66666,0 0,-0.55556 1.66666,-0.55556 1.66666,0 0,1.11111 -2.54766,-0.78568 -3.33333,0 -0.39284,0.39283 0.39284,1.27383 0,1.66666 -0.39284,0.39284 -1.27383,-0.39283 -1.66667,0 -0.39283,0.39284 0.24846,1.16976 0,1.66667 -0.35136,0.70273 -1.3153,0.96394 -1.66666,1.66667 -0.24846,0.4969 0.39283,1.27383 0,1.66666 -0.39284,0.39284 -1.27383,-0.39283 -1.66667,0 -0.39284,0.39284 0.39284,1.27383 0,1.66667 -0.39284,0.39284 -1.16976,-0.24845 -1.66667,0 -0.70272,0.35136 -1.11111,1.11111 -1.66666,1.66667 -0.55556,0.55555 -1.31531,0.96393 -1.66667,1.66666 -1.47518,2.95037 2.47906,0.56952 -1.66667,3.33334 -1.03362,0.68908 -2.15482,1.27383 -3.33333,1.66666 -0.52705,0.17568 -1.41821,-0.4969 -1.66667,0 -5.58553,11.17106 18.75006,-11.06486 -8.33333,10 -13.78115,10.71868 -1.4449,1.53361 -10,6.66667 -1.71763,1.03058 -3.20839,2.43753 -5,3.33333 -1.57135,0.78568 -3.42865,0.88099 -5,1.66667 -12.28614,6.14307 -0.22655,0.22654 -6.66667,6.66667 -1.45629,1.45628 -7.03158,2.68246 -8.33333,3.33333 -0.70273,0.35136 -1.3153,0.96394 -1.66667,1.66667 -0.24845,0.4969 0.49691,1.41821 0,1.66666 -2.04878,1.0244 -4.53988,0.81596 -6.66666,1.66667 -8.47101,3.3884 8.40577,-0.0181 -5,3.33333 -1.07794,0.26949 -2.33953,-0.4969 -3.33334,0 -0.4969,0.24845 0,1.11111 0,1.66667 0,5.08179 -1.6892,0.0225 -3.33333,1.66667 -3.44839,3.44839 5.2696,-0.1348 -1.66667,3.33333 -0.4969,0.24845 -1.27383,-0.39284 -1.66666,0 -0.40105,0.40105 0.40105,6.26561 0,6.66667 -3.4484,3.44839 0.1348,-5.26961 -3.33334,1.66666 -0.44434,0.8887 0.44435,2.44464 0,3.33334 -0.35136,0.70272 -1.3153,0.96393 -1.66666,1.66666 -0.49691,0.99381 0.78567,2.54766 0,3.33334 -0.5407,0.54069 -2.79264,-0.5407 -3.33334,0 -0.51608,0.51607 0.51608,7.81725 0,8.33333 -0.39283,0.39284 -1.27383,-0.39284 -1.66666,0 -0.39284,0.39284 0,1.11111 0,1.66667 0,3.33333 0,6.66666 0,10 0,0.55555 0.39283,1.27383 0,1.66666 -0.39284,0.39284 -1.27383,-0.39283 -1.66667,0 -0.39284,0.39284 0.24845,1.16976 0,1.66667 -0.70273,1.40546 -2.46171,2.02589 -3.33333,3.33333 -0.68909,1.03363 -1.36538,2.12817 -1.66667,3.33334 -0.01393,0.0557 0.009,4.99114 0,5 -0.392837,0.39283 -1.27383,-0.39284 -1.666667,0 -0.392837,0.39283 0,1.11111 0,1.66666 0,0.55556 0,1.11111 0,1.66667 0,1.18134 0.215459,9.56908 0,10 -0.351364,0.70273 -1.418214,0.92131 -1.666666,1.66667 -0.0025,0.008 0.0016,4.9984 0,5 -3.448393,3.44839 0.1348,-5.26961 -3.333334,1.66666 -0.452073,0.90415 0.456037,6.21063 0,6.66667 -0.392837,0.39284 -1.273829,-0.39284 -1.666666,0 -0.392837,0.39284 0,1.11111 0,1.66667 0,0.55555 0,1.11111 0,1.66666 0,8.33334 0,16.66667 0,25 0,4.44445 0.555555,-0.55555 -1.666667,1.66667 -0.392837,0.39284 0,1.11111 0,1.66667 0,2.77777 0,5.55555 0,8.33333 0,0.61206 0.06707,6.5996 0,6.66667 -0.392837,0.39283 -1.27383,-0.39284 -1.666667,0 -0.392837,0.39283 -0.392837,1.27383 0,1.66666 0.878411,0.87841 2.454923,0.78826 3.333334,1.66667 0.785674,0.78567 -0.496904,2.33952 0,3.33333 0.351364,0.70273 1.315302,0.96394 1.666666,1.66667 0.248452,0.4969 0,1.11111 0,1.66667 0,0.55555 0.392837,1.27383 0,1.66666 -0.392837,0.39284 -1.273829,-0.39283 -1.666666,0 -0.392837,0.39284 0.392837,1.27383 0,1.66667 -0.392837,0.39284 -1.27383,-0.39284 -1.666667,0 -1.302877,1.30288 1.449709,2.89942 1.666667,3.33333 0.248452,0.49691 0,1.11111 0,1.66667 0,0.55555 0.392837,1.27383 0,1.66667 -3.448393,3.44839 0.1348,-5.26961 -3.333334,1.66666 -1.09378,2.18756 3.382352,3.28432 1.666667,5 -0.392837,0.39284 -1.27383,-0.39283 -1.666667,0 -0.785674,0.78568 0.496904,2.33953 0,3.33334 -0.351364,0.70272 -1.315302,0.96393 -1.666666,1.66666 -0.248452,0.49691 0.392837,1.27383 0,1.66667 -0.392837,0.39284 -1.666667,-0.55556 -1.666667,0 0,0.78567 1.666667,0.88099 1.666667,1.66667 0,0.5374 -2.870304,2.40727 -3.333334,3.33333 -0.977157,1.95431 0.989073,1.97814 1.666667,3.33333 0.506019,1.01204 -0.506019,8.98796 0,10 2.059504,4.11901 1.666667,-0.57529 1.666667,3.33334 0,4.44444 0.555555,-0.55556 -1.666667,1.66666 -0.392837,0.39284 0.392837,1.27383 0,1.66667 -0.392837,0.39284 -1.666667,0.55555 -1.666667,0 0,-0.55556 1.27383,-0.39284 1.666667,0 0.833333,0.83333 -0.833333,4.16667 0,5 0.392837,0.39284 1.27383,-0.39284 1.666667,0 0.392837,0.39284 0,1.11111 0,1.66667 0,0.55555 0.392837,1.27383 0,1.66666 -0.392837,0.39284 -1.27383,-0.39283 -1.666667,0 -1.896785,1.89679 3.563452,3.10322 1.666667,5 -0.392837,0.39284 -1.27383,-0.39283 -1.666667,0 -0.392837,0.39284 0,1.11111 0,1.66667 0,0.55555 -0.248452,1.16976 0,1.66667 0.351364,0.70272 1.666667,0.88099 1.666667,1.66666 0,0.78568 -1.315303,0.96394 -1.666667,1.66667 -0.446109,0.89222 0.44611,2.44111 0,3.33333 -0.351364,0.70273 -1.315302,0.96394 -1.666667,1.66667 -0.248452,0.4969 0,1.11111 0,1.66667 0,0.55555 -0.392837,1.27383 0,1.66666 0.392837,0.39284 1.27383,-0.39283 1.666667,0 0.392837,0.39284 0.392837,1.27383 0,1.66667 -0.392837,0.39284 -1.27383,-0.39284 -1.666667,0 -0.392837,0.39284 0,1.11111 0,1.66667 0,0.55555 -0.392837,1.27383 0,1.66666 0.392837,0.39284 1.27383,-0.39283 1.666667,0 0.392837,0.39284 0.392837,1.27383 0,1.66667 -0.392837,0.39284 -1.27383,-0.39284 -1.666667,0 -0.392837,0.39284 0.392837,1.27383 0,1.66667 -0.392837,0.39283 -1.273829,-0.39284 -1.666666,0 -0.392837,0.39283 -0.392837,1.27383 0,1.66666 0.392837,0.39284 1.666666,-0.55555 1.666666,0 0,0.78568 -1.315302,0.96394 -1.666666,1.66667 -0.248452,0.4969 0,1.11111 0,1.66667 0,0.55555 -0.248452,1.16976 0,1.66666 0.216958,0.43392 2.969543,2.03046 1.666666,3.33334 -0.392837,0.39283 -1.273829,-0.39284 -1.666666,0 -0.392837,0.39283 0.392837,1.27383 0,1.66666 -0.392837,0.39284 -1.666667,-0.55555 -1.666667,0 0,1.24226 1.666667,2.09108 1.666667,3.33334 0,0.55555 -1.169763,-0.24846 -1.666667,0 -0.702728,0.35136 -1.666667,0.88099 -1.666667,1.66666 0,0.65088 3.122956,1.87705 1.666667,3.33334 -0.392837,0.39283 -1.27383,-0.39284 -1.666667,0 -0.392837,0.39283 0.248452,1.16976 0,1.66666 -0.351364,0.70273 -1.666666,0.88099 -1.666666,1.66667 0,0.55555 1.273829,-0.39284 1.666666,0 0.392837,0.39284 0.392837,1.27383 0,1.66667 -0.392837,0.39283 -1.273829,-0.39284 -1.666666,0 -0.392837,0.39283 0,1.11111 0,1.66666 0,0.55556 -0.248452,1.16976 0,1.66667 0.351364,0.70273 1.315302,0.96394 1.666666,1.66667 1.481482,2.96296 -0.925926,0.92592 -1.666666,1.66666 -0.392837,0.39284 0.392837,1.27383 0,1.66667 -0.392837,0.39284 -1.666667,-0.55556 -1.666667,0 0,0.65087 3.122956,1.87704 1.666667,3.33333 -0.392837,0.39284 -1.27383,-0.39283 -1.666667,0 -0.392837,0.39284 0.392837,1.27383 0,1.66667 -0.392837,0.39284 -1.666667,-0.55556 -1.666667,0 0,0.78567 1.666667,0.88099 1.666667,1.66667 0,0.78567 -1.315302,0.96393 -1.666667,1.66666 -0.248452,0.49691 0.392837,1.27383 0,1.66667 -0.392837,0.39284 -1.666666,0.55555 -1.666666,0 0,-0.55556 1.273829,-0.39284 1.666666,0 0.392837,0.39284 0.392837,1.27383 0,1.66667 -0.392837,0.39283 -1.273829,-0.39284 -1.666666,0 -0.555435,0.55543 0.555434,2.77789 0,3.33333 -0.740741,0.74074 -3.148148,-1.2963 -1.666667,1.66667 0.216958,0.43391 2.969543,2.03045 1.666667,3.33333 -0.392837,0.39284 -1.27383,-0.39284 -1.666667,0 -0.392837,0.39284 0.392837,1.27383 0,1.66667 -0.392837,0.39283 -2.059504,-0.39284 -1.666667,0 0.878411,0.87841 2.454923,0.78825 3.333334,1.66666 0.392837,0.39284 -0.248452,1.16977 0,1.66667 0.0894,0.17881 3.243929,3.15452 3.333333,3.33333 1.833333,3.66667 -3.5,-0.33333 -1.666667,3.33334 0.351365,0.70272 1.315303,0.96393 1.666667,1.66666 0.248452,0.49691 -0.248452,1.16977 0,1.66667 0.351364,0.70273 1.315303,0.96394 1.666667,1.66667 0.666666,1.33333 -0.666667,3.66666 0,5 0.351364,0.70272 1.315302,0.96393 1.666666,1.66666 0.452073,0.90415 -0.456036,6.21063 0,6.66667 0.392837,0.39284 1.27383,-0.39284 1.666667,0 0.392837,0.39284 -0.392837,1.27383 0,1.66667 0.392837,0.39283 1.27383,-0.39284 1.666667,0 0.833333,0.83333 -0.833334,4.16666 0,5 0.87841,0.87841 2.454923,0.78825 3.333333,1.66666 0.392837,0.39284 -0.392837,1.27383 0,1.66667 0.392837,0.39284 1.27383,-0.39284 1.666667,0 0.34533,0.34533 -0.178159,6.57759 0,6.66667 0.993808,0.4969 2.339525,-0.49691 3.333333,0 0.514905,0.25745 -0.298103,4.40379 0,5 0.351364,0.70272 1.315303,0.96393 1.666667,1.66666 0.248452,0.49691 -0.392837,1.27383 0,1.66667 0.392837,0.39284 1.273829,-0.39284 1.666666,0 0.340728,0.34073 -0.33041,4.33918 0,5 0.0894,0.17881 3.24393,3.15452 3.333334,3.33333 0.444348,0.8887 -0.444348,2.44464 0,3.33334 0.351364,0.70272 1.315302,0.96393 1.666666,1.66666 0.248452,0.49691 -0.496904,1.41822 0,1.66667 0.993808,0.4969 2.339527,-0.4969 3.333337,0 0.5149,0.25745 -0.29811,4.40379 0,5 0.3039,0.60781 3.02942,2.72552 3.33333,3.33333 0.4969,0.99381 -0.78567,2.54766 0,3.33334 0.87841,0.87841 2.45492,0.78825 3.33333,1.66666 0.39284,0.39284 -0.24845,1.16977 0,1.66667 0.35137,0.70273 1.31531,0.96394 1.66667,1.66667 0.4969,0.9938 -0.4969,2.33952 0,3.33333 0.30391,0.60781 3.02943,2.72552 3.33333,3.33333 0.24846,0.49691 -0.39283,1.27383 0,1.66667 0.39284,0.39284 1.27383,-0.39284 1.66667,0 0.39284,0.39284 0,1.11111 0,1.66667 1.11111,1.11111 2.02589,2.4617 3.33333,3.33333 0.46225,0.30817 1.27383,-0.39284 1.66667,0 0.34073,0.34073 -0.33041,4.33918 0,5 0.35136,0.70273 1.3153,0.96394 1.66667,1.66667 0.24845,0.4969 -0.39284,1.27383 0,1.66666 0.39283,0.39284 1.27383,-0.39283 1.66666,0 0.32148,0.32148 -0.20065,6.5329 0,6.66667 1.46177,0.97451 3.53824,0.69216 5,1.66667 0.9245,0.61633 -0.4969,2.33952 0,3.33333 0.35137,0.70273 1.31531,0.96394 1.66667,1.66667 0.24845,0.4969 -0.24845,1.16976 0,1.66666 0.35136,0.70273 1.3153,0.96394 1.66667,1.66667 0.24845,0.4969 -0.39284,1.27383 0,1.66667 4.44444,4.44444 2.77777,-1.66667 5,5 0.39127,1.17381 -0.44727,6.21939 0,6.66666 0.39283,0.39284 1.27383,-0.39283 1.66666,0 0.40106,0.40105 -0.40105,6.26562 0,6.66667 0.39284,0.39284 1.27383,-0.39284 1.66667,0 0.39284,0.39284 -0.24845,1.16976 0,1.66667 0.35136,0.70272 1.3153,0.96393 1.66667,1.66666 0.4969,0.99381 -0.78568,2.54766 0,3.33334 3.44839,3.44839 -0.1348,-5.26961 3.33333,1.66666 0.52377,1.04754 -0.52377,5.61913 0,6.66667 0.35136,0.70273 1.3153,0.96394 1.66667,1.66667 0.4969,0.9938 -0.49691,2.33952 0,3.33333 0.35136,0.70273 1.3153,0.96394 1.66666,1.66667 0.24846,0.4969 -0.24845,1.16976 0,1.66666 0.70273,1.40546 2.63061,1.92788 3.33334,3.33334 0.45207,0.90414 -0.45604,6.21063 0,6.66666 0.87841,0.87841 2.45492,0.78826 3.33333,1.66667 0.78567,0.78567 -0.78567,2.54766 0,3.33333 0.87841,0.87841 2.45492,0.78826 3.33333,1.66667 0.34073,0.34073 -0.33041,4.33918 0,5 0.70273,1.40546 2.83643,1.84262 3.33334,3.33333 0.003,0.008 -0.002,4.99841 0,5 2.02997,2.02997 3.72368,0.78071 5,3.33334 0.26824,0.53648 -0.23306,4.84463 0,5 1.46176,0.9745 3.53823,0.69215 5,1.66666 0.46225,0.30817 0,1.11111 0,1.66667 0,0.40421 -0.0536,4.9464 0,5 0.39283,0.39284 1.27383,-0.39284 1.66666,0 0.78568,0.78567 -0.78567,2.54766 0,3.33333 0.39284,0.39284 1.27383,-0.39283 1.66667,0 0.39284,0.39284 -0.24845,1.16977 0,1.66667 3.46813,6.93627 -0.11506,-1.78173 3.33333,1.66667 0.39284,0.39283 -0.39283,1.27383 0,1.66666 0.87841,0.87841 2.45493,0.78826 3.33334,1.66667 0.83333,0.83333 -0.83334,4.16667 0,5 0.87841,0.87841 2.45492,0.78826 3.33333,1.66667 0.39284,0.39283 -0.4969,1.41821 0,1.66666 0.99381,0.49691 2.33953,-0.4969 3.33333,0 0.49691,0.24845 -0.24845,1.16977 0,1.66667 1.09535,2.1907 2.23799,1.14263 3.33334,3.33333 0.4969,0.99381 -0.78568,2.54766 0,3.33334 1.11111,0.55555 2.22222,1.11111 3.33333,1.66666 0,0.55556 -0.39284,1.27383 0,1.66667 0.39284,0.39284 1.41821,-0.4969 1.66667,0 0.4969,0.99381 -0.26949,2.2554 0,3.33333 0.60258,2.41034 2.54766,4.30965 3.33333,6.66667 0.35136,1.05409 -0.78567,2.54766 0,3.33333 0.87841,0.87841 2.45492,0.78826 3.33333,1.66667 0.34073,0.34073 -0.33041,4.33918 0,5 0.70273,1.40546 2.63061,1.92788 3.33334,3.33333 0.45207,0.90415 -0.45604,6.21063 0,6.66667 0.39283,0.39284 1.27383,-0.39284 1.66666,0 0.39284,0.39284 -0.24845,1.16976 0,1.66667 0.35137,0.70272 1.66667,0.88099 1.66667,1.66666 0,0.55556 -1.27383,-0.39283 -1.66667,0 -0.39283,0.39284 -0.39283,1.27383 0,1.66667 0.39284,0.39284 1.27383,-0.39284 1.66667,0 0.39284,0.39284 -0.39284,1.27383 0,1.66667 0.87841,0.87841 2.29971,0.97758 3.33333,1.66666 0.65372,0.43582 0.96394,1.3153 1.66667,1.66667 0.4969,0.24845 1.27383,-0.39284 1.66667,0 0.78567,0.78567 -0.78568,2.54766 0,3.33333 0.39283,0.39284 1.16976,-0.24845 1.66666,0 0.70273,0.35137 0.96394,1.3153 1.66667,1.66667 0.4969,0.24845 1.27383,-0.39284 1.66667,0 0.39283,0.39284 -0.39284,1.27383 0,1.66667 0.39283,0.39283 1.27383,-0.39284 1.66666,0 0.39284,0.39283 -0.39283,1.27383 0,1.66666 0.39284,0.39284 1.27383,-0.39283 1.66667,0 0.39284,0.39284 -0.39284,1.27383 0,1.66667 1.11111,0.55555 2.22222,1.11111 3.33333,1.66667 0,0.55555 -0.39283,1.27383 0,1.66666 0.87841,0.87841 2.45493,0.78826 3.33334,1.66667 0.39283,0.39284 -0.24846,1.16976 0,1.66667 0.35136,0.70272 1.11111,1.11111 1.66666,1.66666 0.55556,0.55556 0.96394,1.3153 1.66667,1.66667 0.4969,0.24845 1.27383,-0.39284 1.66667,0 0.39283,0.39284 -0.24846,1.16976 0,1.66667 0.35136,0.70272 1.3153,0.96393 1.66666,1.66666 0.24846,0.49691 -0.39283,1.27383 0,1.66667 0.39284,0.39284 1.27383,-0.39284 1.66667,0 0.39284,0.39284 -0.24845,1.16976 0,1.66667 2.16544,4.33088 2.76155,-1.71535 5,5 0.36899,1.10696 -0.51934,3.16022 0,3.33333 1.58114,0.52705 3.41886,-0.52705 5,0 0.52705,0.17568 -0.39284,1.27383 0,1.66667 0.39284,0.39283 1.27383,-0.39284 1.66667,0 0.39283,0.39283 -0.24846,1.16976 0,1.66666 0.35136,0.70273 1.3153,0.96394 1.66666,1.66667 0.24846,0.4969 -0.39283,1.27383 0,1.66667 0.39284,0.39283 1.16977,-0.24846 1.66667,0 1.40546,0.70272 1.92788,2.6306 3.33333,3.33333 0.49691,0.24845 1.16977,-0.24845 1.66667,0 0.70273,0.35136 0.96394,1.3153 1.66667,1.66667 0.4969,0.24845 1.27383,-0.39284 1.66666,0 3.4484,3.44839 -5.2696,-0.1348 1.66667,3.33333 0.99381,0.4969 2.54766,-0.78568 3.33333,0 0.39284,0.39284 -0.39283,1.27383 0,1.66667 0.39284,0.39283 1.27383,-0.39284 1.66667,0 0.39284,0.39283 -0.39284,1.27383 0,1.66666 0.39284,0.39284 1.13962,-0.17568 1.66667,0 1.17851,0.39284 2.29971,0.97759 3.33333,1.66667 3.30176,-0.16637 0.78826,2.45492 1.66667,3.33333 0.39283,0.39284 1.16976,-0.24845 1.66666,0 0.70273,0.35137 0.96394,1.31531 1.66667,1.66667 0.4969,0.24845 1.27383,-0.39284 1.66667,0 3.44839,3.44839 -5.2696,-0.1348 1.66666,3.33333 4.44445,0 -0.55555,-0.55555 1.66667,1.66667 0.39284,0.39284 1.27383,-0.39284 1.66667,0 0.39283,0.39284 -0.39284,1.27383 0,1.66667 1.75682,1.75682 4.90984,1.57651 6.66666,3.33333 3.4484,3.44839 -5.2696,-0.1348 1.66667,3.33333 0.4969,0.24845 1.16976,-0.24845 1.66667,0 0.44251,0.22126 4.77874,4.55748 5,5 0.24845,0.49691 -0.39284,1.27383 0,1.66667 0.78567,0.78567 2.54766,-0.78568 3.33333,0 3.44839,3.44839 -5.2696,-0.1348 1.66667,3.33333 0.4969,0.24845 1.16976,-0.24845 1.66666,0 0.70273,0.35137 0.96394,1.31531 1.66667,1.66667 0.4969,0.24845 1.27383,-0.39284 1.66667,0 0.39283,0.39284 -0.39284,1.27383 0,1.66667 0.39283,0.39283 1.16976,-0.24846 1.66666,0 2,1 3,4 5,5 0.49691,0.24845 1.27383,-0.39284 1.66667,0 0.39284,0.39283 -0.39284,1.27383 0,1.66666 3.44839,3.4484 -0.1348,-5.2696 3.33333,1.66667 0.24846,0.4969 -0.46225,1.3585 0,1.66667 1.46177,0.9745 3.29564,1.24057 5,1.66666 0.53897,0.13474 1.27383,-0.39283 1.66667,0 0.78567,0.78568 -0.78567,2.54766 0,3.33334 0.39284,0.39283 1.27383,-0.39284 1.66667,0 0.39283,0.39283 -0.39284,1.27383 0,1.66666 0.78567,0.78568 2.54766,-0.78567 3.33333,0 0.39284,0.39284 -0.39284,1.27383 0,1.66667 0.78567,0.78567 2.33953,-0.4969 3.33333,0 0.70273,0.35136 0.96394,1.3153 1.66667,1.66667 0.99381,0.4969 2.33953,-0.49691 3.33333,0 0.70273,0.35136 0.96394,1.3153 1.66667,1.66666 0.4969,0.24845 1.27383,-0.39283 1.66667,0 0.39283,0.39284 -0.46225,1.3585 0,1.66667 1.46176,0.97451 3.29563,1.24057 5,1.66667 0.53896,0.13474 1.27383,-0.39284 1.66666,0 0.39284,0.39283 -0.39283,1.27383 0,1.66666 0.39284,0.39284 1.13962,-0.17568 1.66667,0 1.17851,0.39284 2.12816,1.36538 3.33333,1.66667 1.07794,0.26948 2.27924,-0.35136 3.33334,0 5.2022,1.73407 -0.55556,1.11111 1.66666,3.33333 0.83334,0.83334 4.16667,-0.83333 5,0 0.39284,0.39284 -0.39283,1.27383 0,1.66667 0.39284,0.39284 1.13962,-0.17568 1.66667,0 2.35702,0.78567 4.30964,2.54766 6.66667,3.33333 1.14638,0.38213 4.01663,-0.49168 5,0 0.70273,0.35137 0.96394,1.31531 1.66666,1.66667 0.43092,0.21546 8.81867,0 10,0 7.77778,0 15.55556,0 23.33334,0 8.33333,0 16.66666,0 25,0 0.40421,0 4.9464,0.0536 5,0 0.39283,-0.39284 -0.39284,-1.27383 0,-1.66667 0.55925,-0.55925 2.77408,0.55925 3.33333,0 0.39284,-0.39283 -0.39284,-1.27383 0,-1.66666 0.83333,-0.83334 4.16667,0.83333 5,0 0.39284,-0.39284 -0.39284,-1.27383 0,-1.66667 0.39284,-0.39284 1.27383,0.39284 1.66667,0 2.05246,-2.05246 -5.08635,-3.33333 3.33333,-3.33333 0.65087,0 1.87704,3.12295 3.33333,1.66666 0.39284,-0.39283 -0.39283,-1.27383 0,-1.66666 0.78568,-0.78568 2.54766,0.78567 3.33334,0 0.99605,-0.99606 -1.80147,-3.33334 1.66666,-3.33334 1.75682,0 3.24318,1.66667 5,1.66667 0.78568,0 0.96394,-1.3153 1.66667,-1.66667 0.4969,-0.24845 1.16976,0.24845 1.66667,0 0.70273,-0.35136 0.92131,-1.41821 1.66666,-1.66666 1.0541,-0.35137 2.22223,0 3.33334,0 0.55555,0 -2.12892,0.30816 -1.66667,0 2.06725,-1.37817 4.35985,-2.41061 6.66667,-3.33334 0.51582,-0.20633 1.66666,0.55556 1.66666,0 0,-0.78567 -1.66666,-0.88099 -1.66666,-1.66666 0,-0.55556 1.11111,0 1.66666,0 1.11111,0 2.27924,0.35136 3.33334,0 0.74535,-0.24846 0.96394,-1.31531 1.66666,-1.66667 0.90415,-0.45207 6.21063,0.45604 6.66667,0 0.39284,-0.39284 -0.39284,-1.27383 0,-1.66667 0.39284,-0.39283 1.11111,0 1.66667,0 1.66666,0 3.38309,0.40423 5,0 0.76221,-0.19055 0.96394,-1.3153 1.66666,-1.66666 1.95432,-0.97716 1.97815,0.98907 3.33334,1.66666 0.4969,0.24845 1.11111,0 1.66666,0 0.55556,0 1.27383,0.39284 1.66667,0 0.39284,-0.39283 -0.39284,-1.27383 0,-1.66666 0.39284,-0.39284 1.27383,0.39283 1.66667,0 0.39283,-0.39284 -0.39284,-1.27383 0,-1.66667 0.39283,-0.39284 1.27383,0.39284 1.66666,0 0.39284,-0.39284 -0.24845,-1.16976 0,-1.66667 0.35137,-0.70273 1.31531,-0.96394 1.66667,-1.66666 0.24845,-0.49691 -0.39284,-1.27383 0,-1.66667 0.78567,-0.78567 2.54766,0.78567 3.33333,0 0.39284,-0.39284 -0.39283,-1.27383 0,-1.66667 0.83334,-0.83333 4.16667,0.83334 5,0 0.78568,-0.78567 -0.78567,-2.54766 0,-3.33333 0.78568,-0.78567 2.54766,0.78567 3.33334,0 0.39283,-0.39284 0,-1.11111 0,-1.66667 0.55555,0 1.16976,0.24845 1.66666,0 3.6851,-1.84254 0.51721,-1.0344 1.66667,-3.33333 0.35136,-0.70273 1.3153,-0.96394 1.66667,-1.66667 0.24845,-0.4969 -0.39284,-1.27383 0,-1.66666 0.78567,-0.78568 2.54766,0.78567 3.33333,0 0.39284,-0.39284 -0.39284,-1.27383 0,-1.66667 0.55383,-0.55383 2.7795,0.55383 3.33333,0 0.83334,-0.83333 -0.83333,-4.16667 0,-5 0.78568,-0.78568 2.33953,0.4969 3.33334,0 0.70273,-0.35136 0.96394,-1.3153 1.66666,-1.66667 0.49691,-0.24845 1.27383,0.39284 1.66667,0 0.83333,-0.83333 -0.83333,-4.16666 0,-5 0.78567,-0.78567 2.33953,0.49691 3.33333,0 6.93627,-3.46813 -1.78172,0.11506 1.66667,-3.33333 0.55383,-0.55383 2.7795,0.55383 3.33333,0 0.78568,-0.78568 -0.78567,-2.54766 0,-3.33333 1.24226,-1.24226 3.24318,1.66666 5,1.66666 0.55556,0 -0.39283,-1.27383 0,-1.66666 0.39284,-0.39284 1.27383,0.39283 1.66667,0 0.39284,-0.39284 -0.39284,-1.27383 0,-1.66667 0.39284,-0.39284 1.27383,0.39284 1.66667,0 0.39283,-0.39284 -0.24846,-1.16976 0,-1.66667 0.35136,-0.70273 1.3153,-0.96394 1.66666,-1.66666 0.24846,-0.49691 -0.39283,-1.27383 0,-1.66667 0.78568,-0.78568 2.54766,0.78567 3.33334,0 0.39283,-0.39284 -0.39284,-1.27383 0,-1.66667 0.55763,-0.55763 2.77569,0.55764 3.33333,0 0.83333,-0.83333 -0.83333,-4.16666 0,-5 0.78567,-0.78567 2.54766,0.78568 3.33333,0 0.39284,-0.39283 -0.39283,-1.27383 0,-1.66666 0.39284,-0.39284 1.11111,0 1.66667,0 0,-0.55556 -0.39284,-1.27383 0,-1.66667 0.39284,-0.39284 1.27383,0.39284 1.66667,0 0.39283,-0.39284 -0.24846,-1.16976 0,-1.66667 0.35136,-0.70273 1.3153,-0.96394 1.66666,-1.66666 0.24846,-0.49691 -0.39283,-1.27383 0,-1.66667 0.39284,-0.39284 1.11111,0 1.66667,0 0.55556,-0.55556 1.26244,-0.99296 1.66667,-1.66667 1.27827,-2.13046 1.84262,-4.67905 3.33333,-6.66666 0.33333,-0.44445 1.20442,0.30816 1.66667,0 1.30744,-0.87163 2.22222,-2.22223 3.33333,-3.33334 0.55556,-0.55555 1.3153,-0.96394 1.66667,-1.66666 0.24845,-0.49691 -0.39284,-1.27383 0,-1.66667 0.87841,-0.87841 2.29971,-0.97759 3.33333,-1.66667 0.65372,-0.43581 1.11111,-1.11111 1.66667,-1.66666 0.55555,-0.55556 1.41821,-0.92131 1.66666,-1.66667 0.35137,-1.05409 -0.4969,-2.33953 0,-3.33333 0.24846,-0.49691 1.11111,0 1.66667,0 0,-1.11112 -0.35136,-2.27924 0,-3.33334 0.63816,-1.91447 3.97904,-2.31237 5,-3.33333 0.58176,-0.58176 -0.69182,-4.65409 0,-5 5.28087,-2.64044 1.551,3.449 6.66667,-1.66667 0.40105,-0.40105 -0.40105,-6.26561 0,-6.66666 0.78567,-0.78568 2.54766,0.78567 3.33333,0 0.87841,-0.87841 0.97759,-2.29971 1.66667,-3.33334 -0.16637,-3.30176 2.45492,-0.78825 3.33333,-1.66666 1.89679,-1.89679 -3.56345,-3.10322 -1.66667,-5 0.39284,-0.39284 1.11111,0 1.66667,0 0,-0.55556 -0.39284,-1.27383 0,-1.66667 0.39284,-0.39284 1.27383,0.39284 1.66667,0 0.34072,-0.34073 -0.33041,-4.33918 0,-5 0.35136,-0.70273 1.3153,-0.96394 1.66666,-1.66667 0.49691,-0.99381 -0.78567,-2.54766 0,-3.33333 0.39284,-0.39284 1.27383,0.39284 1.66667,0 0.78567,-0.78568 -0.78567,-2.54766 0,-3.33333 0.39284,-0.39284 1.27383,0.39283 1.66667,0 0.39283,-0.39284 -0.39284,-1.27383 0,-1.66667 0.39283,-0.39284 1.66666,-0.55556 1.66666,0 0,0.55555 -1.27383,0.39284 -1.66666,0 -0.39284,-0.39284 -0.39284,-1.27383 0,-1.66667 0.39283,-0.39283 1.27383,0.39284 1.66666,0 0.39284,-0.39283 -0.39283,-1.27383 0,-1.66666 0.39284,-0.39284 1.27383,0.39283 1.66667,0 0.002,-0.002 -0.003,-4.99245 0,-5 0.24845,-0.74536 1.3153,-0.96394 1.66667,-1.66667 0.34925,-0.6985 -0.21787,-6.55774 0,-6.66667 0.9938,-0.4969 2.717,0.9245 3.33333,0 8.88889,-13.33333 -2.96296,-0.74074 0,-6.66666 0.35136,-0.70273 1.66667,-0.881 1.66667,-1.66667 0,-0.65087 -3.12296,-1.87705 -1.66667,-3.33333 3.44839,-3.4484 -0.1348,5.2696 3.33333,-1.66667 0.33041,-0.66082 -0.34072,-4.65927 0,-5 0.39284,-0.39284 1.27383,0.39284 1.66667,0 0.51608,-0.51608 -0.51608,-7.81726 0,-8.33333 0.55383,-0.55383 2.7795,0.55383 3.33333,0 0.39284,-0.39284 0,-1.11112 0,-1.66667 0,-0.55556 0.24846,-1.16976 0,-1.66667 -0.35136,-0.70273 -1.3153,-0.96394 -1.66666,-1.66666 -0.97716,-1.95432 0.98907,-1.97815 1.66666,-3.33334 0.24846,-0.4969 -0.39283,-1.27383 0,-1.66666 0.39284,-0.39284 1.27383,0.39283 1.66667,0 2.77778,-2.77778 -4.44444,-0.55556 -1.66667,-3.33334 0.39284,-0.39283 1.27383,0.39284 1.66667,0 0.39284,-0.39283 -0.39284,-1.27383 0,-1.66666 0.39284,-0.39284 1.27383,0.39283 1.66667,0 0.78567,-0.78568 -0.78568,-2.54766 0,-3.33334 2.05246,-2.05246 3.33333,5.08635 3.33333,-3.33333 0,-0.78568 -1.66667,-0.88099 -1.66667,-1.66667 0,-0.5374 2.87031,-2.40727 3.33334,-3.33333 0.52377,-1.04754 -0.52377,-5.61913 0,-6.66667 0.35136,-0.70273 1.3153,-0.96394 1.66666,-1.66666 0.33041,-0.66082 -0.34072,-4.65928 0,-5 0.99606,-0.99606 3.33334,1.80146 3.33334,-1.66667 0,-0.65087 -3.12296,-1.87705 -1.66667,-3.33333 0.39284,-0.39284 1.11111,0 1.66667,0 0.55555,-1.11112 1.27383,-2.15483 1.66666,-3.33334 1.28881,-3.8664 -5.13323,0.13323 -1.66666,-3.33333 0.39283,-0.39284 1.27383,0.39284 1.66666,0 0.39284,-0.39284 -0.39283,-1.27383 0,-1.66667 0.39284,-0.39283 1.27383,0.39284 1.66667,0 0.39284,-0.39283 -0.39284,-1.27383 0,-1.66666 0.39284,-0.39284 1.27383,0.39283 1.66667,0 3.44839,-3.4484 -5.2696,0.1348 1.66666,-3.33334 0.49691,-0.24845 1.27383,0.39284 1.66667,0 0.39284,-0.39283 -0.39284,-1.27383 0,-1.66666 0.78567,-0.78568 3.33333,1.11111 3.33333,0 0,-0.78568 -1.66666,-0.881 -1.66666,-1.66667 0,-0.55556 1.16976,0.24845 1.66666,0 0.70273,-0.35137 1.31531,-0.96394 1.66667,-1.66667 0.45207,-0.90414 -0.45604,-6.21063 0,-6.66666 0.39284,-0.39284 1.27383,0.39283 1.66667,0 0.40105,-0.40106 -0.40105,-6.26562 0,-6.66667 0.39283,-0.39284 1.27383,0.39284 1.66666,0 0.45604,-0.45604 -0.45207,-5.76252 0,-6.66667 0.46303,-0.92606 3.33334,-2.79593 3.33334,-3.33333 0,-0.55556 -1.66667,0.55555 -1.66667,0 0,-0.78568 1.3153,-0.96394 1.66667,-1.66667 0.24845,-0.4969 -0.39284,-1.27383 0,-1.66666 0.39283,-0.39284 1.27383,0.39283 1.66666,0 1.71569,-1.71569 -2.76044,-2.81244 -1.66666,-5 0.70273,-1.40546 2.6306,-1.92788 3.33333,-3.33334 1.45629,-2.91258 -1.66667,-0.62295 -1.66667,-3.33333 0,-0.78568 1.31531,-0.96394 1.66667,-1.66667 0.24845,-0.4969 -0.39284,-1.27383 0,-1.66666 0.39284,-0.39284 1.27383,0.39283 1.66667,0 C 688.12296,577.30763 685,576.08146 685,575.43058 c 0,-0.78567 1.11111,-1.11111 1.66667,-1.66666 0.55555,-0.55556 0.96394,-1.31531 1.66666,-1.66667 0.49691,-0.24845 1.66667,0.55555 1.66667,0 0,-0.78568 -1.66667,-0.88099 -1.66667,-1.66667 0,-0.78567 1.11111,-1.11111 1.66667,-1.66666 0.55556,-0.55556 0.96394,-1.31531 1.66667,-1.66667 0.4969,-0.24845 1.27383,0.39284 1.66666,0 0.87841,-0.87841 0.78826,-2.45492 1.66667,-3.33333 0.39284,-0.39284 1.27383,0.39283 1.66667,0 C 698.12296,562.30763 695,561.08146 695,560.43058 c 0,-0.78567 1.23085,-1.01294 1.66667,-1.66666 0.68908,-1.03363 0.97758,-2.29971 1.66666,-3.33334 0.43582,-0.65372 1.11111,-1.11111 1.66667,-1.66666 0.55556,-0.55556 0.96394,-1.31531 1.66667,-1.66667 0.4969,-0.24845 1.66666,0.55555 1.66666,0 0,-4.44445 -4.44444,1.11111 0,-3.33333 0.55556,-0.55556 0.96394,-1.31531 1.66667,-1.66667 0.4969,-0.24845 1.66667,0.55555 1.66667,0 0,-0.65087 -3.12296,-1.87705 -1.66667,-3.33333 0.39284,-0.39284 1.11111,0 1.66667,0 0,-0.55556 -0.39284,-1.27383 0,-1.66667 0.39283,-0.39284 1.66666,0.55555 1.66666,0 0,-1.75682 -2.90892,-3.75774 -1.66666,-5 0.99605,-0.99605 3.33333,1.80147 3.33333,-1.66667 0,-1.24226 -1.66667,-2.09107 -1.66667,-3.33333 0,-1.57135 4.03607,-1.92788 3.33334,-3.33333 -0.55556,-1.11112 -2.45493,-0.78826 -3.33334,-1.66667 -0.39283,-0.39284 1.16977,0.24845 1.66667,0 0.70273,-0.35137 0.96394,-1.3153 1.66667,-1.66667 0.4969,-0.24845 1.27383,0.39284 1.66666,0 0.39284,-0.39283 0.39284,-1.27383 0,-1.66666 -0.87841,-0.87841 -2.45492,-0.78826 -3.33333,-1.66667 -0.39284,-0.39284 1.66667,0.55555 1.66667,0 0,-1.24226 -1.27383,-2.15482 -1.66667,-3.33333 -0.17568,-0.52705 0.24845,-1.16977 0,-1.66667 -0.35136,-0.70273 -1.66667,-0.88099 -1.66667,-1.66667 0,-0.55555 1.16977,0.24845 1.66667,0 0.70273,-0.35136 0.96394,-1.3153 1.66667,-1.66666 0.4969,-0.24846 1.27383,0.39283 1.66666,0 0.39284,-0.39284 0.39284,-1.27383 0,-1.66667 -0.87841,-0.87841 -2.77777,-0.55556 -3.33333,-1.66667 -0.35136,-0.70273 1.11111,-1.11111 1.66667,-1.66666 0.55555,-0.55556 0.96394,-1.31531 1.66666,-1.66667 0.49691,-0.24845 1.27383,0.39284 1.66667,0 0.39284,-0.39284 -0.39284,-1.27383 0,-1.66667 0.87841,-0.87841 2.9405,-0.48815 3.33333,-1.66666 0.39284,-1.17852 -1.66666,-2.09108 -1.66666,-3.33334 0,-0.78567 1.11111,-1.11111 1.66666,-1.66666 0.55556,-0.55556 0.96394,-1.31531 1.66667,-1.66667 0.4969,-0.24845 1.27383,0.39284 1.66667,0 0.39283,-0.39284 -0.24845,-1.16976 0,-1.66667 3.46813,-6.93627 -0.11506,1.78173 3.33333,-1.66666 0.39284,-0.39284 -0.24845,-1.16977 0,-1.66667 0.35136,-0.70273 0.96394,-1.3153 1.66667,-1.66667 0.4969,-0.24845 1.91512,0.49691 1.66666,0 -0.70272,-1.40545 -2.6306,-1.92787 -3.33333,-3.33333 -0.24845,-0.4969 1.16976,0.24845 1.66667,0 0.70273,-0.35137 1.11111,-1.11111 1.66666,-1.66667 0.55556,-0.55555 2.01803,-0.96394 1.66667,-1.66666 -0.55556,-1.11112 -2.77778,-0.55556 -3.33333,-1.66667 -0.35137,-0.70273 1.11111,-1.11111 1.66666,-1.66667 0.55556,-0.55555 0.96394,-1.3153 1.66667,-1.66666 0.4969,-0.24846 1.41822,0.4969 1.66667,0 0.4969,-0.99381 -0.35137,-2.27925 0,-3.33334 0.54207,-1.62622 2.73965,-1.18736 1.66666,-3.33333 -0.35136,-0.70273 -1.66666,-0.88099 -1.66666,-1.66667 0,-0.78567 1.3153,-0.96394 1.66666,-1.66666 0.24846,-0.49691 -0.39283,-1.27383 0,-1.66667 0.39284,-0.39284 1.66667,0.55555 1.66667,0 0,-0.78568 -1.66667,-0.88099 -1.66667,-1.66667 0,-0.78567 1.31531,-0.96394 1.66667,-1.66666 0.24845,-0.49691 -0.24845,-1.16977 0,-1.66667 0.35136,-0.70273 1.66667,-0.88099 1.66667,-1.66667 0,-0.55555 -1.27383,0.39284 -1.66667,0 -0.39284,-0.39283 -0.39284,-1.27383 0,-1.66666 0.39284,-0.39284 1.27383,0.39283 1.66667,0 0.55925,-0.55925 -0.55925,-2.77409 0,-3.33334 0.39283,-0.39283 1.27383,0.39284 1.66666,0 0.39284,-0.39283 -0.39283,-1.27383 0,-1.66666 0.39284,-0.39284 1.66667,0.55555 1.66667,0 0,-0.78568 -1.3153,-0.96394 -1.66667,-1.66667 -0.97715,-1.95432 0.98908,-1.97815 1.66667,-3.33333 0.75308,-1.50616 -1.43548,-4.30645 -1.66667,-5 -1.11111,-3.33334 0.55556,-0.55556 1.66667,-1.66667 0.78567,-0.78568 -0.78567,-2.54766 0,-3.33333 0.99605,-0.99606 3.33333,1.80146 3.33333,-1.66667 0,-0.55556 -1.27383,0.39284 -1.66666,0 -1.30288,-1.30288 1.44971,-2.89942 1.66666,-3.33333 0.24846,-0.49691 -0.39283,-1.27383 0,-1.66667 0.39284,-0.39284 1.27383,0.39284 1.66667,0 1.45629,-1.45629 -1.66667,-2.68246 -1.66667,-3.33333 0,-1.1185 3.33334,-2.21484 3.33334,-3.33334 0,-0.78567 -1.66667,-0.88099 -1.66667,-1.66666 0,-0.78568 1.3153,-0.96394 1.66667,-1.66667 0.0436,-0.0872 0.0436,-4.91281 0,-5 -0.6776,-1.35519 -2.64383,-1.37902 -1.66667,-3.33333 0.35136,-0.70273 1.3153,-0.96394 1.66667,-1.66667 0.24845,-0.49691 -0.39284,-1.27383 0,-1.66667 0.39283,-0.39283 1.66666,-0.55555 1.66666,0 0,0.55556 -1.27383,0.39284 -1.66666,0 -0.39284,-0.39283 -0.39284,-1.27383 0,-1.66666 0.39283,-0.39284 1.27383,0.39283 1.66666,0 0.39284,-0.39284 -0.39283,-1.27383 0,-1.66667 0.39284,-0.39284 1.66667,-0.55556 1.66667,0 0,0.55555 -1.27383,0.39284 -1.66667,0 -0.78567,-0.78568 0.78568,-2.54766 0,-3.33333 -0.39283,-0.39284 -1.27383,0.39283 -1.66666,0 -0.39284,-0.39284 -0.39284,-1.27383 0,-1.66667 0.39283,-0.39284 1.27383,0.39284 1.66666,0 0.39284,-0.39284 -0.39283,-1.27383 0,-1.66667 0.39284,-0.39283 1.66667,-0.55555 1.66667,0 0,0.55556 -1.27383,0.39284 -1.66667,0 -0.39283,-0.39283 0,-1.11111 0,-1.66666 0,-0.55556 0,-1.11112 0,-1.66667 0,-1.15923 -0.30136,-7.73061 0,-8.33333 0.35137,-0.70273 1.31531,-0.96394 1.66667,-1.66667 0.4969,-0.99381 -0.78567,-2.54766 0,-3.33333 0.39284,-0.39284 1.27383,0.39283 1.66667,0 0.39283,-0.39284 -0.24845,-1.16977 0,-1.66667 0.35136,-0.70273 1.66666,-0.88099 1.66666,-1.66667 0,-0.55555 -1.66666,0.55556 -1.66666,0 0,-0.78567 1.3153,-0.96394 1.66666,-1.66666 0.33041,-0.66082 -0.34072,-4.65928 0,-5 0.39284,-0.39284 1.27383,0.39283 1.66667,0 0.39284,-0.39284 0,-1.11112 0,-1.66667 0,-0.55556 0.24845,-1.16976 0,-1.66667 -0.35136,-0.70273 -1.3153,-0.96394 -1.66667,-1.66666 -0.4969,-0.99381 0.35137,-2.27925 0,-3.33334 -0.39283,-1.17851 -1.27383,-2.15482 -1.66666,-3.33333 -0.17569,-0.52705 0.17568,-1.13962 0,-1.66667 -0.39284,-1.17851 -1.27383,-2.15482 -1.66667,-3.33333 -0.30629,-0.91888 0.35633,-6.31034 0,-6.66667 -0.87841,-0.87841 -2.64425,-0.63304 -3.33333,-1.66666 -3.33334,-5 1.66666,-1.66667 0,-5 -0.89581,-1.79162 -2.43753,-3.20839 -3.33334,-5 -0.24845,-0.49691 0.24846,-1.16977 0,-1.66667 -0.35136,-0.70273 -1.11111,-1.11111 -1.66666,-1.66667 -1.11111,-1.11111 -2.46171,-2.02589 -3.33334,-3.33333 -0.30816,-0.46225 0.30817,-1.20442 0,-1.66667 -0.87162,-1.30744 -2.4617,-2.02589 -3.33333,-3.33333 -0.51474,-0.77211 0.51474,-2.56122 0,-3.33333 -0.87163,-1.30745 -2.39052,-2.07626 -3.33333,-3.33334 -3.58415,-1.34234 -0.39607,-4.76076 -1.66667,-6.66666 -0.68908,-1.03363 -2.64425,-0.63305 -3.33333,-1.66667 -0.61634,-0.9245 0.4969,-2.33953 0,-3.33333 -0.70273,-1.40546 -2.22223,-2.22223 -3.33334,-3.33334 -0.55555,-0.55555 -1.41821,-0.92131 -1.66666,-1.66666 -0.35137,-1.0541 0.35136,-2.27925 0,-3.33334 -0.24845,-0.74535 -1.19527,-1.03813 -1.66667,-1.66666 -1.20185,-1.60247 -2.13148,-3.39754 -3.33333,-5 -0.47141,-0.62854 -1.23086,-1.01295 -1.66667,-1.66667 -0.68908,-1.03362 -1.27383,-2.15482 -1.66667,-3.33333 -0.35136,-1.0541 0.78568,-2.54766 0,-3.33334 -2.02997,-2.02997 -3.72368,-0.7807 -5,-3.33333 -0.4969,-0.99381 0.78568,-2.54766 0,-3.33333 -0.87841,-0.87841 -2.45492,-0.78826 -3.33333,-1.66667 -0.39284,-0.39284 0.24845,-1.16976 0,-1.66667 -0.35136,-0.70273 -1.3153,-0.96394 -1.66667,-1.66666 -0.4969,-0.99381 0.9245,-2.717 0,-3.33334 -1.46176,-0.97451 -3.29563,-1.24057 -5,-1.66666 -0.53896,-0.13475 -1.27383,0.39283 -1.66666,0 -0.78568,-0.78568 0.78567,-2.54766 0,-3.33334 -4.44445,0 0.55555,0.55556 -1.66667,-1.66666 -0.39284,-0.39284 -1.13962,0.17568 -1.66667,0 -1.17851,-0.39284 -2.45492,-0.78826 -3.33333,-1.66667 -0.39284,-0.39284 0.24845,-1.16976 0,-1.66667 -3.46813,-6.93627 0.11506,1.78173 -3.33333,-1.66666 -0.39284,-0.39284 0.39283,-1.27383 0,-1.66667 -0.87841,-0.87841 -2.29971,-0.97759 -3.33334,-1.66667 -1.30744,-0.87163 -1.92787,-2.6306 -3.33333,-3.33333 -0.4969,-0.24845 -1.27383,0.39284 -1.66667,0 -0.78567,-0.78568 0.78568,-2.54766 0,-3.33333 -8.16661,-4.08331 -1.39405,0.54523 -3.33333,-3.33334 -0.35136,-0.70273 -1.11111,-1.11111 -1.66667,-1.66666 -0.55555,-0.55556 -1.01294,-1.23086 -1.66666,-1.66667 -1.03363,-0.68908 -2.45493,-0.78826 -3.33334,-1.66667 -0.39283,-0.39283 0.24846,-1.16976 0,-1.66666 -0.35136,-0.70273 -1.23085,-1.01295 -1.66666,-1.66667 -0.68908,-1.03362 -0.97759,-2.29971 -1.66667,-3.33333 -0.87163,-1.30745 -2.46171,-2.0259 -3.33333,-3.33334 -0.68908,-1.03362 -0.78826,-2.45492 -1.66667,-3.33333 -1.41639,-1.4164 -3.58361,-1.91694 -5,-3.33333 -0.87841,-0.87841 -0.78826,-2.45493 -1.66667,-3.33334 -0.39283,-0.39283 -1.27383,0.39284 -1.66666,0 -0.39284,-0.39283 0.30816,-1.20441 0,-1.66666 -1.74326,-2.61489 -4.92342,-4.05179 -6.66667,-6.66667 -0.30817,-0.46225 0.46225,-1.3585 0,-1.66667 -1.46176,-0.97451 -3.59454,-0.61257 -5,-1.66666 -0.99381,-0.74536 -0.89063,-2.3633 -1.66667,-3.33334 -1.47242,-1.84052 -3.33333,-3.33333 -5,-5 -1.11111,-1.11111 -2.4617,-2.02589 -3.33333,-3.33333 -0.30817,-0.46225 0.46225,-1.3585 0,-1.66667 -1.46176,-0.97451 -3.59454,-0.61257 -5,-1.66666 -0.99381,-0.74536 -0.78826,-2.45493 -1.66667,-3.33334 -0.39283,-0.39283 -1.13962,0.17568 -1.66666,0 -1.17851,-0.39283 -2.45493,-0.78825 -3.33334,-1.66666 -0.39283,-0.39284 0.39284,-1.27383 0,-1.66667 -0.10345,-4.6929 -3.75774,-0.42441 -5,-1.66667 -0.39283,-0.39283 0.17569,-1.13962 0,-1.66666 -0.39283,-1.17852 -0.78825,-2.45493 -1.66666,-3.33334 -3.4484,-3.44839 0.1348,5.2696 -3.33334,-1.66666 -0.24845,-0.49691 0.39284,-1.27383 0,-1.66667 -0.10345,-4.6929 -3.75774,-0.42441 -5,-1.66667 -0.87841,-0.87841 -0.78825,-2.45492 -1.66666,-3.33333 -0.39284,-0.39284 -1.13962,0.17568 -1.66667,0 -12.07236,-4.02412 2.62768,0.4805 -5,-3.33333 -0.4969,-0.24846 -1.27383,0.39283 -1.66667,0 -0.87841,-0.87841 -0.78825,-2.45493 -1.66666,-3.33334 -0.78568,-0.78567 -2.33953,0.49691 -3.33334,0 -1.40545,-0.70273 -2.02589,-2.4617 -3.33333,-3.33333 -1.03362,-0.68908 -2.15482,-1.27383 -3.33333,-1.66667 -0.52705,-0.17568 -1.27383,0.39284 -1.66667,0 -0.39284,-0.39283 0.24845,-1.16976 0,-1.66666 -3.46813,-6.93627 0.11506,1.78172 -3.33333,-1.66667 -0.39284,-0.39284 0.39283,-1.27383 0,-1.66667 -0.10346,-4.69289 -3.75774,-0.4244 -5,-1.66666 -0.83334,-0.83334 0.83333,-4.16667 0,-5 -0.39284,-0.39284 -1.27383,0.39283 -1.66667,0 -0.39284,-0.39284 0,-1.11112 0,-1.66667 -1.11111,-0.55556 -2.15482,-1.27383 -3.33333,-1.66667 -0.52705,-0.17568 -1.27383,0.39284 -1.66667,0 -3.44839,-3.44839 5.2696,0.1348 -1.66667,-3.33333 -2.29892,-1.14947 -1.49078,2.01842 -3.33333,-1.66667 -0.24845,-0.4969 0.39284,-1.27383 0,-1.66666 -0.39284,-0.39284 -1.16976,0.24845 -1.66667,0 -1.40545,-0.70273 -1.92787,-2.63061 -3.33333,-3.33334 -0.4969,-0.24845 -1.27383,0.39284 -1.66667,0 -0.39283,-0.39283 0.39284,-1.27383 0,-1.66666 -0.39283,-0.39284 -1.13962,0.17568 -1.66666,0 -1.17851,-0.39284 -2.15483,-1.27383 -3.33334,-1.66667 -0.52704,-0.17568 -1.27383,0.39284 -1.66666,0 -0.39284,-0.39284 0.39283,-1.27383 0,-1.66667 -0.34073,-0.34073 -4.33918,0.33041 -5,0 -5.0826,-2.5413 3.04824,-1.32127 -5,-3.33333 -1.07794,-0.26949 -2.2554,0.26948 -3.33334,0 -8.04824,-2.01206 0.0826,-0.79203 -5,-3.33333 -0.4969,-0.24846 -1.16976,0.24845 -1.66666,0 -0.70273,-0.35137 -1.01295,-1.23086 -1.66667,-1.66667 -1.03362,-0.68908 -2.45492,-0.78826 -3.33333,-1.66667 -0.39284,-0.39283 0.39283,-1.27383 0,-1.66666 -3.4484,-3.4484 0.1348,5.2696 -3.33334,-1.66667 -0.24845,-0.49691 0.49691,-1.41822 0,-1.66667 -0.9938,-0.4969 -2.33952,0.49691 -3.33333,0 -0.99381,-0.4969 0.78567,-2.54766 0,-3.33333 -0.39284,-0.39284 -1.16976,0.24845 -1.66667,0 -0.70272,-0.35137 -0.96393,-1.3153 -1.66666,-1.66667 -1.33334,-0.66666 -3.66667,0.66667 -5,0 -0.70273,-0.35136 -0.96394,-1.3153 -1.66667,-1.66666 -1.33333,-0.66667 -3.66667,0.66666 -5,0 -0.70273,-0.35137 -0.96394,-1.31531 -1.66667,-1.66667 -0.4969,-0.24845 -1.16976,0.24845 -1.66666,0 -0.70273,-0.35137 -0.96394,-1.3153 -1.66667,-1.66667 -0.90415,-0.45207 -6.21063,0.45604 -6.66667,0 -0.39283,-0.39283 0.39284,-1.27383 0,-1.66666 -0.39283,-0.39284 -1.11111,0 -1.66666,0 -0.55556,0 -1.11867,-0.0913 -1.66667,0 -2.79425,0.4657 -5.55556,1.11111 -8.33333,1.66666 z"
       id="path3000"
       inkscape:connector-curvature="0"
       transform="translate(530.36255,16.215212)" />
    <path
       d="m 651.09991,67.764055 c 193.3375,-33.925 395.13479,-35.865121 588.48479,-1.965121 2.4875,24.0625 13.6625,50.420826 31.125,67.158326 16.05,15.65001 36.4667,24.91667 58.7167,27.61668 0.013,139.53749 -0.6,284.07499 -0.625,423.61248 -0.038,45.90001 -17.4375,90.5 -40,130.02501 -21.5375,37.75 -49.1625,71.69999 -79.375,102.8125 -50.675,51.9625 -108.7625,96.12499 -169.525,135.59999 -30.4125,19.67501 -61.63755,38.11251 -93.62505,55.13748 -1.3,0.4875 -2.75,1.975 -4.15,0.875 -38.425,-20.23747 -75.6375,-42.73747 -111.7625,-66.82497 -42.2375,-28.37501 -83.0125,-59.0875 -120.6125,-93.40001 -34.2625,-31.29999 -66.1625,-65.4625 -92.6375,-103.65 -27.175,-39.4125 -48.8125,-83.85 -55.35,-131.6875 -2.6875,-17.84999 -1.9,-35.92499 -2.0125,-53.91249 0.0125,-131.2 -0.58926,-267.98543 -0.57676,-399.18542 23.475,-2.8375 43.48048,-10.14484 59.80548,-27.25735 15.975,-16.4625 26.38213,-27.76839 28.74463,-50.568391 m 295.78915,63.223661 c -3.1625,5.97501 -1.65,13.07501 0.25,19.20001 -5.5,-0.1 -12.55,1.3625 -14.35,7.4125 -2.175,5.875 1.7375,11.5125 6.4125,14.725 -8.5875,-0.0125 -17.175,-0.0375 -25.7625,0.0125 3.4625,-4.44999 6.8875,-11.21249 2.6125,-16.27499 -4.1,-5.2125 -11.2875,-3.73751 -16.9,-2.55 -1.15,-3.85001 -2.4125,-7.6625 -3.8,-11.42501 -6.3125,-1.83749 -12.525,-4.02499 -18.875,-5.74999 1.75,5.28749 4.525,10.12499 6.975,15.1 4.9,9.7375 8.8125,19.92499 12.575,30.15 17.1125,0.2625 34.25,-0.025 51.3625,0.1375 -0.35,0.7 -1.075,2.1125 -1.4375,2.8125 -16.2,0.3 -32.425,0.0125 -48.625,0.125 1.05,3.05 2.125,6.1 3.2125,9.1375 -4.5,3.4125 -7.9375,9.54999 -14.225,9.42499 -6.2875,0.79999 -12.5875,1.55 -18.85,2.54999 -1.675,7.06251 -2.725,14.4 -4.95,21.2625 -11.9125,6.8375 -24.15,13.125 -36.325,19.4875 1.6625,3.9 4.45,7.48751 4.7125,11.85001 0.4,3.69999 0.7625,7.4125 1.225,11.11249 4.3875,2.825 8.825,5.575 13.1125,8.56251 8.7875,-2.62501 17.425,-5.7375 26.15,-8.5875 5.8375,2.3625 11.7625,4.5375 17.475,7.1875 -14.7875,3.95 -25.3,16.575 -40.0625,20.5875 -7.825,2.4 -17.025,1.4125 -23.3375,-4.0875 -8,-6.9 -11.7,-17.2 -14.5375,-27.0625 -1.775,11.075 -2.85,22.9625 1.475,33.6125 2.5875,6.7125 9.25,11.3375 16.3625,11.8625 9.0875,0.8 17.5875,-3.3875 25.2875,-7.7125 5.8875,-3.15 11.4375,-7.4375 18.2,-8.4875 8.5,-1.35 17.175,-0.325 25.5875,1.2375 -3.9375,4.25 -8.4125,8.725 -14.3125,9.8375 -5.9375,0.9125 -11.95,0.95 -17.9125,1.5875 -1.6,4.1375 -3.375,8.45 -7.6375,10.4875 1.675,4.9375 7.0125,7.1625 11.925,6.75 8.5875,-0.6625 17,-3.125 24.8625,-6.61251 4.7,-1.8875 7.6125,-6.2375 11.375,-9.4125 1.475,3.5375 2.1125,7.32501 2.1625,11.15001 2.6375,-1.83751 5.5125,-3.3875 7.95,-5.52501 2.5125,-3.19999 4.3375,-6.88749 6.5625,-10.2875 3.125,3.0375 6.4125,5.975 10.45,7.7625 2.8875,-5 5.05,-10.4 4.1,-16.2875 4.1375,0.325 8.3,0.48751 12.4625,0.27501 -2.8625,-3.63751 -5.625,-7.35 -7.9875,-11.325 4.9125,-0.475 9.8625,-0.9125 14.6375,-2.225 -1.25,-1.4625 -2.6375,-2.8125 -4.15,-3.9875 -5.7625,-3.3625 -3.125,-11.2875 -6.35,-16.25 -2.475,-3.6375 -5.4,-6.9625 -7.6625,-10.7375 4.8,2.65 9.6375,6.025 12.05,11.125 1.9125,3.9 1.3125,8.425 2.7625,12.4375 3.2375,2.8875 7.25,4.75 10.7875,7.225 -5.225,2.3375 -10.525,4.77499 -16.35,5.09999 1.8,3.88751 5.125,6.63751 8,9.6875 -4.65,2.25 -9.875,2.55001 -14.7875,2.86251 -0.9125,6.05 -3.3125,11.625 -6.975,16.51249 -3.3625,-1.8125 -6.8375,-3.52499 -9.5125,-6.3 -2.7125,2.675 -4.625,6.05 -7.4125,8.63751 -3.625,2.1375 -7.55,3.725 -11.2875,5.6375 -0.275,-2.71251 -0.7,-5.4 -1.2625,-8.05001 -2.0375,1.2875 -4.0875,2.55001 -6.1625,3.775 -0.1,2.71251 -0.2125,5.425 -0.325,8.15 -13.2375,6.75 -28.4875,6.075 -42.9,6.85 -7.9625,0.20001 -15.7875,1.76251 -23.725,2.1625 4,6.16251 9.7,11.23751 16.225,14.61251 7.45,3.1875 15.7125,3.5625 23.6875,4.22499 -0.7875,6.52501 -1.7375,13.125 -4.2625,19.2375 -5.7,12.9375 -17.3625,23.03751 -31.05,26.6875 3.7125,3.63751 9.1375,4.7125 14.1375,5.175 9.8875,0.5125 20.7875,-1.01249 28.2375,-8.16249 8.225,-7.9 14.125,-17.8 20.4,-27.23751 -4.65,12.2125 -11.025,24.12501 -21.325,32.48751 9.975,1.18749 20.5625,3.1875 30.1875,-0.77501 4.5125,-1.7625 9.5875,-4.975 10.0875,-10.26249 0.8375,-8.9 2.1,-19.2375 9.675,-25.1125 -7.5625,11.95 -5.675,26.675 -3.925,39.9625 1.2625,7.925 -0.8125,15.9625 -4.65,22.9 7.7,-4.1125 15.175,-8.9875 20.9625,-15.5875 6.5625,-7.425 9.5,-17.525 9.6,-27.2875 0.25,-1.725 1.125,-3.3 1.7125,-4.9375 -0.025,2.4 -0.075,4.8125 -0.175,7.225 l -0.8,-0.175 c -0.0375,4.3125 0.0875,8.65 -0.3375,12.9625 -0.9375,4.9 -3.9125,9.05 -6.55,13.175 8.2625,-4.6 16.775,-8.85 24.5875,-14.2125 5.6375,-3.875 7,-11.175 6.625,-17.575 -0.475,-5.7875 1.5625,-11.35 4.175,-16.4 0.325,8.8375 -1.1875,17.8 0.8,26.5375 1.4875,8.225 7.8,14.6875 8.425,23.1875 6,-11.325 10.6,-23.45 12.7875,-36.1 1.075,-5.4125 -0.3375,-10.8625 -0.25,-16.3 1.6875,4.6625 2.85,9.5 4.58745,14.1625 2.4,6.325 7.3625,11.225 12.425,15.5375 0.9,-6.425 1.5125,-13.075 4.375,-18.9875 3.05,-5.6375 7.9375,-9.9625 12.625,-14.225 -3.325,-6.275 -6.5,-12.725 -11.15,-18.1375 -3.0125,-3.6125 -6.1,-7.15 -9.075,-10.7625 12.175,7.3375 19.325,20.0125 25.525,32.325 5.9375,-17.7125 4.075,-36.825 1.675,-55.0125 -8.65,-0.275 -19.125,-1.9375 -23.6375,-10.3375 12.7875,8.25 29.4625,8.15 43.4876,3.3875 -4.05,-5.0125 -8.4626,-10.1625 -10.1001,-16.5375 -1.325,-5.15 1.15,-10.05 2.5001,-14.8875 -2.2876,-3.825 -5.3376,-7.125 -8.0251,-10.65 -3.1375,1.6125 -6.1875,3.3875 -9.45,4.7125 -4.2,0.3375 -8.3875,-0.55 -12.55,-0.975 5.05,-0.4875 10.2375,-1.125 14.7875,-3.5375 7.3375,-4.525 12.2875,-11.9 17.2251,-18.775 -12.3126,2.5 -27.6376,-0.025 -34.4751,-11.7375 7.5375,5.3125 16.3625,9.375 25.7625,9.1875 -0.15,-6.675 -0.6875,-13.7625 -4.4125,-19.525 -3.775,-5.425 -9.5125,-8.9625 -14.8625,-12.65 -6.8125,-4.7125 -12.45,-10.87499 -17.5875,-17.32499 0.075,-7.975 0.275,-16 1.875,-23.8375 2.55,-12.7 8.3875,-24.3625 13.05,-36.36251 -4.2875,1.4125 -8.55,2.85001 -12.7875,4.41251 -0.9375,4.6875 -1.9625,9.35 -2.9,14.0375 -5.94995,0.2625 -12.81245,1.7875 -16.03745,7.3625 -2.5875,4.5625 -0.45,9.9125 1.8375,14.125 -5.875,0.125 -11.725,0.325 -17.5875,0.3375 4.675,-3.25 8.1875,-9.1125 6.025,-14.8875 -1.25,-4.075 -5.5,-5.5375 -8.975,-7.1375 1.0375,-6.2125 2.1625,-13.0875 -0.95,-18.92501 -2.0375,-4.025 -6.6875,-5.9125 -11.0125,-5.8625 -5.7,-0.2 -12.5125,1.1875 -15.5,6.6125 m -220.8,76.9875 c 2.4125,3.3875 4.66886,11.32527 4.79386,15.57527 2.4875,-2.15 5.4589,-6.4759 8.6339,-7.1134 -1.525,-2.125 -3.35276,-5.22437 -4.94026,-7.31187 -2.825,-0.3875 -5.65,-0.7875 -8.4875,-1.15 m -17.4375,11.825 c -1.825,2.15 -3.05,5.475 -1.5375,8.1125 1.9,4.15 3.7625,8.3875 6.7,11.95 -5.6625,-0.425 -11.5375,-0.8625 -17.0625,0.7875 -6.3,2.8125 -11.425,8.725 -12.725,15.575 4.25,4.4625 7.825,10.65 14.325,11.8375 4.9875,-2.4375 9.625,-5.55 14.75,-7.6875 -8.2875,7.9625 -7.1875,20.0125 -7.775,30.5 -0.0125,5.1625 -3.675,9.175 -5.725,13.6625 0.4125,1.775 0.85,3.575 1.275,5.3625 4.6125,1.6 8.9625,-0.2 13.1,-2.15 -2.3125,4.05 -7.1375,6.0625 -11.675,5.325 -3.9875,-0.1625 -7.2625,-3.1125 -11.1375,-3.3625 -5.6125,1.95 -11.85,4.825 -14.2875,10.6375 -2.2625,6.6375 2.5,14.0875 8.9875,16.0375 5.7625,1.7625 12.275,1.0125 17.65,-1.675 8.05,-5.5875 15.5,-12.0125 23.6375,-17.4875 -5.2,5.175 -10.575,10.3 -14.4625,16.575 -1.6375,2.525 -2.4375,5.525 -2.2375,8.5375 0.4,8.6 2.7375,16.95 5.0125,25.2125 2.0875,-2.9125 3.9875,-5.95 5.875,-9 2.4875,0.1 4.9875,0.2125 7.475,0.325 -0.225,3.3 -0.4625,6.6 -0.7125,9.9125 2.45,4.225 5.2625,8.525 5.625,13.5375 0.4375,4.9625 0.3125,9.95 0.4625,14.925 3.9625,-4.2 7.925,-8.9 9.025,-14.75 0.9375,-4.75 2.925,-9.25 3.4,-14.0875 0.675,-5.45 -1.1875,-10.7625 -1.2625,-16.1875 3.1375,5.9625 4.0875,12.65 3.725,19.3125 2.6375,1.275 5.375,2.375 7.85,3.975 2.3375,3.325 3.9,7.125 5.9125,10.6625 2.825,-3.7875 5.925,-7.375 8.4375,-11.3875 1.95,-5 3,-10.3 4.5375,-15.4375 0.35,5.2 -1.0875,10.3125 -1.1875,15.5 0.825,4.07499 1.775,8.14999 2.05,12.325 5.2375,-8.675 8.25,-18.3375 11.7625,-27.775 -0.525,11 -0.8375,22.0875 1.1,32.975 10.425,-5.2375 20.6625,-10.875 31.525,-15.1875 8.6,-3.375 17.15,-7.6 26.4875,-8.3375 -12.15,4.15 -24.1,9.15 -35.1375,15.7875 -6.7875,3.85 -13.775,7.325 -20.8625,10.5875 -8.8625,4.25 -19.2875,2.6375 -28.1875,6.7625 -5.975,2.8375 -10.0625,8.2875 -15.4625,11.925 -4.3125,1.7125 -9.2,1.25 -13.525,2.8875 -1.65,1.475 -3.0375,3.2125 -4.525,4.85 -4.025,-6.3 -8.6375,-12.475 -14.9125,-16.6875 -5.75,-3.95 -13.0125,-5.1 -19.85,-4.5375 -5.5375,0.4625 -11.5125,2.95 -14.075,8.2 -1.725,3.5625 -2.575,8.175 -0.2125,11.675 2.45,3.55 6.9375,4.7 11,5.2 -4.725,0.875 -11.1125,1.625 -12.6125,7.1375 -1.1,5.725 -0.675,12.275 2.8,17.1625 2.6125,3.6875 7.2375,4.7125 11.4875,4.9375 -2.675,1.2375 -5.3625,2.4375 -8.075,3.5875 0.3625,6.525 0.7625,13.0625 1.2,19.5875 15.58867,1.88207 20.88528,-5.95233 29.6875,-14.35 2.175,-0.0125 4.35,0 6.5375,0.0125 -1.425,6.3375 -6.5125,11.9125 -5.0625,18.7375 1.175,5.9 6.8125,9.4 12.0625,11.325 4.1375,1.575 9.8125,1.375 12.3125,-2.8375 4.0625,-6.7625 6.175,-14.475 8.1,-22.0625 2.8875,1.9375 6.0125,4.0125 9.65,3.925 3.8625,-0.0875 8.1125,-1.7875 11.675,0.5125 4.3,2.375 5.7,7.3625 8.0125,11.35 0.1875,-0.075 0.5625,-0.225 0.75,-0.2875 1.8,-6.2375 0.1125,-12.95 -3.8,-18 1.025,-4.6875 2.1875,-9.325 2.9625,-14.05 0.1125,3.35 0.3625,6.6875 0.5875,10.0375 16.1125,-15.275 34.5875,-28.9125 56.075,-35.4125 5.0875,-1.4375 10.25,-3.175 15.625,-2.925 -8.3125,2.9375 -16.4125,6.4125 -24.65,9.55 -1.1,3.325 -1.3875,7.15 -3.8625,9.85 -3.05,3.5875 -6.1875,7.8875 -5.55,12.8875 0.675,5.2375 2.35,10.375 4.85,15.025 1.55,-5.95 4.85,-11.6625 10.325,-14.775 8.5375,-4.8625 18.6375,-5.4125 28.2375,-5.7625 -8.8125,2.125 -18.1125,3.375 -25.975,8.1875 -2.525,1.475 -4.525,4.1375 -4.3,7.2 -0.025,10.9 3.7125,21.4875 3.4375,32.4 -0.45,9.775 -9.275,16.525 -10.225,26.15 -1.1375,8.5875 2.1,18.0125 9.575,22.85 0.6,-5.975 -0.1625,-12.0875 0.775,-18 4.675,-5 10.475,-8.9625 14.4125,-14.6625 3.175,-4.3375 3.8,-9.975 7.025,-14.3 2.775,-4.175 6.9875,-7.1 11.475,-9.1875 -3.9125,3.55 -8.6875,6.8375 -10.1875,12.2 -1.725,7.0375 -0.95,14.375 -0.5125,21.525 3.0125,-7.5125 6.2625,-14.9625 10.425,-21.925 3.9375,-2.9375 8.4625,-5.05 12.875,-7.1875 -4.85,5.0625 -11.925,8.85 -13.5625,16.2125 -1.8,5.45 1.2875,11.2375 6.1,13.9125 8.1375,4.95 15.4625,11.075 22.1375,17.8375 6.5125,6.6125 13.7875,12.5875 22.25,16.5375 14.6375,6.875 30.6,10.7 46.65,12.3625 0.4,-3.025 0.875,-6.0375 1.475,-9.0125 1.6625,12.4875 11.5125,22.9625 9.675,36.1125 -2.525,14.4625 -9.55,28.525 -7.5,43.5625 1.95,11.5375 11.5875,20.025 21.6375,24.9625 -4.8125,-0.5 -9.1125,-3.5625 -13.925,-3.5125 -3.5375,0.9 -1.5125,5.35 -0.4625,7.5375 4.8625,8.275 7.0875,17.825 7.6375,27.35 0.3875,4.45 -1.5375,8.6125 -2.6125,12.85 3.425,-0.8 6.85,-1.575 10.3,-2.2625 2.525,1.9625 5.1125,3.8625 7.7125,5.75 1.0875,-4.95 2.1375,-9.9125 3.2,-14.8625 3.37495,0.2875 6.76245,0.6 10.14995,0.9125 0.2375,-5.7625 -0.5125,-11.6125 0.375,-17.3 3.6,-4.6875 9.675,-6.2875 15.2375,-7.15 -2.1,1.675 -4.5875,2.775 -6.8375,4.225 -1.7625,2.3125 -2.8875,5.025 -4.1875,7.6125 4.1875,4.6 8.9125,8.9875 14.85,11.2 3.9875,1.3875 7.6625,4.0875 9.35,8.075 2.575,5.55 0.975,11.8125 -0.45,17.4625 -2.2125,8.125 -3.6125,16.4625 -4.225,24.8625 -0.3375,2.35 -0.1125,4.975 -1.4625,7.0625 -2.9625,1.425 -5.6,-1.4125 -7.975,-2.7625 -4.7625,-3.6625 -10.925,-4.65 -16.7625,-4.7125 -5.81245,0.0125 -12.08745,0.975 -16.44995,5.15 0.75,5.3375 1.3125,10.7 1.975,16.05 1.95,0.275 3.9125,0.5375 5.8875,0.8125 -4.375,1.5125 -9.575,3.475 -11.1,8.3375 -1.6625,6.4 3.3625,13.05 9.8625,13.725 -1.475,3.25 -2.9125,6.5125 -4.325,9.8 0.4375,1.7125 0.8875,3.45 1.35,5.175 4.8625,-0.275 9.76245,0.325 14.23745,2.3375 2.9625,-3.15 5.8625,-6.35 8.8625,-9.45 3.5125,-0.2875 7.025,-0.575 10.55,-0.75 2.1,3.4625 4.7,6.8375 8.4875,8.575 6.35,3.075 14.975,-0.125 17.4501,-6.825 3.175,-8.4875 1.2375,-17.8625 -1.25,-26.2625 1.7875,2.1125 3.4,4.3875 4.95,6.725 5.1125,-4.4625 10.1,-9.05 15.2375,-13.4875 -4.625,-4.2625 -8.1,-9.5125 -10.725,-15.1875 8.0375,8.4875 16.6125,19.5875 29.725,18.55 -3.4,-2.3 -5.95,-5.6625 -6.6,-9.775 -0.625,-4.35 -3.5,-7.7 -6.4,-10.775 0.1125,-4.4 0.3875,-8.8 0.45,-13.1875 -2.8125,-2.675 -5.8,-5.1875 -8.3375,-8.125 -1.775,-3.1125 -2.5125,-6.6875 -3.7,-10.025 3.2875,4.5875 6.5375,9.35 11.0875,12.8125 6.3875,4.7875 13.975,7.5875 21.4875,10.0875 -2.7375,-7.4375 -2.9375,-15.575 -6.375,-22.7625 -2.525,-6.2875 -7.0375,-11.4 -11.4125,-16.4375 5.5875,3.0625 10.5375,7.375 14.2875,12.55 4.0875,1.3625 8.225,2.525 12.425,3.5125 -1.75,-3.8 -3.4375,-7.7875 -3.5125,-12.0375 -0.325,-4.4625 0.4125,-9.3875 -2.1125,-13.35 -3.925,-4.075 -8.5375,-7.4375 -12.6125,-11.3625 0.45,-6.0125 0.225,-12.2625 -2.175,-17.875 -1.55,-3.2375 -4.475,-5.5 -7.1375,-7.775 -10.575,-8.425 -22.3,-15.225 -33.5001,-22.7375 -2.8,-1.7125 -5.1375,-4.6875 -4.6625,-8.15 0.7,-6.25 4.2375,-11.6375 6.8,-17.2375 1.4,-2.65 2.3751,-5.725 4.7126,-7.725 2.6625,-0.35 5.075,1.4625 7.625,2.05 16.925,5.1 34.8,7.5875 52.4625,6.1375 14.6125,-1.2125 29.35,-6.45 39.775,-17.0875 14.25,-13.6 20.075,-34.3375 17.675,-53.6125 9.4375,-6.85 15.725,-18.2125 15.0375,-30.025 -0.8125,-13.125 -3.4375,-26.0625 -6.425,-38.85 -1.3375,-5.35 -0.6125,-10.9 -0.625,-16.325 -2.85,1.5125 -5.7875,2.8625 -8.425,4.7375 -1.825,1.975 -2.85,4.525 -4.25,6.8 -1.15,-2.95 0.625,-6.225 2.525,-8.4625 6.4125,-6.1 16.375,-7.2875 21.9375,-14.45 3.5625,-6.275 2.6625,-13.9375 2.3875,-20.8625 -2.4625,2.375 -4.7125,5 -7.3625,7.1625 -4.4,0.4375 -8.8375,-2.1625 -13.2125,-0.5875 -1.8,1.025 -2.8875,2.9375 -4.3,4.4 -1.525,-2.3625 -3.2,-4.65 -4.35,-7.2125 0.7125,-5.5875 5.1375,-9.7 10.1875,-11.6125 -2.725,-1.6 -4.375,-4.225 -5.625,-7.025 8.125,5.725 19.0625,11.5375 28.9,6.4875 2.5625,-2.85 4.15,-6.425 6.2875,-9.5875 -3.85,2.3875 -8.05,4.7 -12.725,4.5125 -6.7,-0.275 -12.8,-3.9375 -17.4125,-8.6125 5.0875,1.2 10.175,2.4375 15.275,3.6625 2.125,-3.125 4.225,-6.275 6.2875,-9.4625 -3.9125,0.5125 -7.775,1.35 -11.6875,1.6875 -4.25,-0.4375 -8.375,-1.6125 -12.6,-2.1625 6.3375,-0.875 12.7875,-0.9875 19.0875,-2.275 11.4375,-1.9875 22,-8.4875 29.1,-17.65 7.4375,-9.5375 9.5125,-23.25 4.3875,-34.3125 -3.125,-6.875 -8.9125,-12.1375 -15.3875,-15.825 0.275,6.8 0.85,13.8625 -1.35,20.425 -0.825,2.4375 -2.6625,4.9625 -5.4625,5.05 -8.0625,0.8 -16.325,-0.875 -24.25,1.3375 -7.75,1.925 -13.9875,7.325 -19.4375,12.925 -10.9125,11.4875 -19.3,25.8625 -21.9,41.6375 -2.75,18.45 2.75,37.8625 14.6375,52.2375 -8.6625,1.4125 -16,-5.35 -20.075,-12.2875 -3.25,8.875 -3.4125,19.325 1.2125,27.7625 4.8875,8.4875 12.175,16.0125 21.3125,19.8375 6.0125,2.55 11.8625,-1.65 17.15,-4.0875 -1.6625,4.55 -5.225,7.6125 -9.6875,9.225 -0.15,5.475 -0.075,10.9625 -0.4375,16.4375 -11.2625,-11.275 -25.15,-19.4875 -36.325,-30.85 -3.15,-3.275 -6.4,-6.8375 -7.4875,-11.375 -1.7375,-6.1125 -2.1125,-13.2125 -7.0125,-17.825 -3.425,-2.8125 -7.2,-5.15 -10.8,-7.7125 0.975,7.4375 2.4625,15.675 8.3375,20.9125 -4.85,-2.175 -9.9375,-4.8 -15.4375,-4.125 -5.2875,0.6875 -9.7,4.1625 -12.8875,8.2625 3.7125,1.8375 7.475,3.6375 11.175,5.55 0.2625,3.55 0.55,7.1 0.8625,10.6625 -7.7125,-0.7375 -15.4875,0.275 -22.775,2.825 -11.05,3.8 -23.05,5.8875 -34.6125,3.35 -6.65,-1.4875 -12.2251,-6.5 -14.6376,-12.85 -2.8,-7.225 -3.175,-15.325 -1.65,-22.875 1.1625,-5.075 3.9875,-10.875 9.5876,-12.025 4.7625,1.45 8.7375,4.8 13.2,7.0125 -0.35,-1.8875 -0.725,-3.7625 -1.1125,-5.6375 -0.5375,-3.75 -4.3875,-5.5 -6.45,-8.3375 4.875,1.475 9.6625,4.8875 10.875,10.1125 1.725,6.825 -2.0625,13.3625 -2.1625,20.125 -0.1376,5.4125 3.975,10.75 9.4249,11.55 5.6876,0.8625 11.1626,-1.75 15.8876,-4.65 -1.4875,-2.7375 -2.9375,-5.4875 -4.3875,-8.225 1.2125,-6.2625 2.425,-12.525 3.6875,-18.775 -1.8625,-3.7875 -3.9,-7.475 -5.6,-11.325 3.2375,2.275 5.6125,5.7875 9.075,7.675 3.7375,-0.5625 7.675,-0.95 11.1625,-2.3625 3.4875,-4.4375 6.425,-9.275 9.725,-13.85 -6.9875,-0.475 -14.0375,-0.3625 -21,-1.0875 -2.775,-1.375 -5.1125,-3.4625 -7.4875,-5.425 7.625,0.8625 15.85,0.7625 22.6625,-3.225 6.125,-3.725 11.2125,-8.9 15.9125,-14.25 11.575,-13.55 19.9875,-30.4125 21.175,-48.375 0.8625,-17.2 -2.9625,-35.05 -13.1125,-49.1875 -3.05,-4.85 -7.9875,-9.575 -7,-15.8125 0.225,-4.1 2.65,-7.5 5.3375,-10.3875 -13.1375,3.575 -27.4,9.725 -33.925,22.475 -4.0875,10.1375 -4.725,22.475 1.0125,32.1375 3.15,5.4875 7.925,9.8875 10.75,15.5875 2.075,3.9875 3.45,8.275 4.7,12.5875 -1.3,-1.65 -2.4875,-3.425 -4.175,-4.6875 -2.8125,-1.9 -6.475,-2.2875 -8.95,-4.7125 -2.75,-2.6375 -4.225,-6.225 -5.65,-9.6625 -2.8375,4.9875 -5.525,11 -3.4375,16.7625 2.85,7.375 9.4875,12.75 11.525,20.5 1.1875,5.675 0.05,11.575 -2.025,16.9 -2.6875,-1.7 -5.2875,-3.5375 -7.8125,-5.475 -0.7375,-4.8875 -1.2625,-9.8 -2.225,-14.65 -1.275,-3.7125 -3.575,-6.9625 -5.4625,-10.3625 -4.1,4.95 -8.1875,9.9 -12.4251,14.7375 -3.6125,3.8875 -3.5999,10.8 0.6375,14.2375 3.6001,2.575 7.4876,4.9125 10.0626,8.65 -5.1625,0.2625 -10.3375,0.1375 -15.4875,0.6125 -2.0876,4.6125 -4.4001,9.125 -6.7376,13.6125 -0.8249,-2.2875 -1.3375,-4.6875 -1.7875,-7.0625 -10.5625,4.025 -18.5,12.5875 -25.55,21.0875 -10.42495,13.525 -13.79995,32.0625 -9.52495,48.5125 3.77495,15.05 17.38745,27.5 33.01245,28.8375 5.3251,0.2375 9.4876,4.725 14.9251,4.2625 8.325,-0.575 15.375,-7.0875 24.0375,-5.4125 -3.9375,2.4875 -8.5375,3.5625 -12.5875,5.8 -2.625,2.1 -4.5375,4.925 -7.05,7.1375 -2.9625,0.6375 -6.0751,-0.075 -9.0875,-0.05 2.875,2.825 5.825,5.575 8.65,8.4625 5.6125,-1.225 11.35,-2.55 16.125,-5.925 1.2875,1.1 2.575,2.225 3.8375,3.3875 -2.55,0.35 -5.0875,0.6625 -7.6375,0.95 -2.875,3.35 -4.75,7.6875 -4.0875,12.175 1.1625,11.15 9.4,20.275 19.025,25.325 -2.475,-5.4125 -6.375,-11.6375 -3.8625,-17.7125 3.6875,-5.7875 12.05,-5.9625 15.7375,-11.8 4.775,-7.7875 2.1625,-17.8625 6.7375,-25.7 2.9625,-4.5875 9.0125,-4.1 13.7625,-4.1625 10.7,-0.0875 21.7125,3.4625 29.2625,11.2625 5.15,5.375 10.3,10.975 13.6875,17.65 3.975,13.225 -0.25,28.425 -10.1875,37.975 -10.7875,10.7625 -26.7375,14.175 -41.4875,14.175 -11.0125,-0.275 -22.7625,-1.9625 -31.8875,-8.625 -6.775,-6.2 -12.6,-13.3875 -18.25,-20.6125 0.1375,6.7875 -1.375,13.3375 -3.15,19.8375 0.45,-9.325 1.5375,-18.85 -0.875,-28.0125 -1.8625,-6.8875 -6.4375,-12.575 -11.075,-17.825 -11.8,-12.95 -25.9375,-23.4375 -40.00005,-33.7625 -7.625,-5.6375 -15.375,-12.2625 -18.3375,-21.6125 -2.425,-8.025 -3.1625,-16.625 -1.875,-24.925 1.9875,-12.2875 9.2,-22.95 17.375,-32.025 7.20005,-7.8 13.76255,-16.4625 17.50005,-26.5 -4.4125,-3.6375 -7.6625,-8.35 -11.13755,-12.8125 -1.8875,15.025 -8.7375,28.8875 -17.15,41.2875 -0.6,-5.7625 -1.0625,-11.8375 -4.2875,-16.8375 -2.375,-3.6125 -4.375,-7.4625 -5.625,-11.6125 -1.7125,4.5375 -6,7.1 -9.875,9.575 -8.375,5.15 -17.1,9.675 -25.4875,14.7875 -10.6875,6.625 -21.175,13.55 -31.75,20.3375 7.1,-11.95 12.2375,-25.8875 9.4,-39.9625 -10.675,7.75 -24.6625,9.5875 -37.325,6.425 -6.275,-2.1375 -12.325,1.35 -18.5625,1.8125 -12.1,1.75 -25.4625,-0.5875 -34.65,-9.1625 9.7875,-1.325 18.8625,-6.125 25.8875,-13 7.95,-7.425 12.075,-18.1125 13.45,-28.725 -8.225,-0.45 -16.5875,-1.925 -23.9,-5.8625 -6.8125,-3.7875 -11.6375,-10.15 -15.7625,-16.6 -9.9125,-2.15 -20.6125,-4.6 -27.5,-12.7 -5.5375,-5.3375 -11.6,-10.175 -18.275,-14.025 -10.1,-5.6625 -18.975,-13.5 -25.95,-22.725 -7.2875,-9.3125 -8.6875,-21.6375 -9.2125,-33.0625 -0.525,-9.625 8.475,-18.6125 3.8625,-28.125 -3.45,-3.9125 -9.1875,-4.8625 -13.55,-7.55 -2.425,2.85 -4.775,5.7625 -7.225,8.5875 0.5875,5.15 6.4125,7.8625 5.75,13.4 -6.1125,-4.3625 -9.9125,-11.05 -12.45,-17.9625 -2.0625,-5.525 -10.1,-7.35 -14.325,-3.3125 m -8.475,0.15 c -3.5375,3.7375 -7.325,7.325 -10.275,11.575 4.575,-0.5875 11.12376,-1.11335 15.69876,-1.68835 0.5625,-2.9 -1.81685,-5.64172 0.49172,-9.18137 -0.0625,-2.6125 -4.60298,-2.16778 -5.91548,-0.70528 m -18.0625,42.2625 c -2.85,8.325 0.6125,17.8 6.3,24.125 -1.6625,-6.1 -0.3125,-12.175 1.2875,-18.1125 0.9125,-3.7875 -4.325,-9.775 -7.5875,-6.0125 m 164.7125,18.0875 c 2.6875,2.85 5.4875,5.5875 8.35,8.275 -0.275,-3.7375 -0.5875,-7.475 -0.8875,-11.2 -2.4875,0.9625 -4.9875,1.95 -7.4625,2.925 m -168.0375,14.63749 c -3.2,4.67501 -6.075,10.15001 -5.4375,16.01251 -0.025,2.0125 1.75,4.41249 3.9875,3.5 4.125,-2.2375 7.7625,-5.3125 11.8,-7.71251 -1.7875,-1.625 -3.675,-3.13749 -5.3375,-4.88749 -1.2375,-2.92501 -1.425,-6.15001 -2.275,-9.18751 -1.5,-0.5125 -1.9,1.475 -2.7375,2.275 m 180.2875,8.125 c -1.1875,3.375 -2.325,6.8875 -1.7375,10.5125 1.7125,-0.16249 3.4375,-0.325 5.1625,-0.49999 0.05,-3.7 -0.8875,-7.26251 -3.425,-10.01251 m -191.9625,107.57501 c -1.6375,4.7625 -3.3625,9.48749 -4.725,14.32499 4.025,-3.85 8.8625,-6.6875 14.6,-6.5375 0.05,-3.25 0.125,-6.4875 0.225,-9.72499 -3.375,0.625 -6.7375,1.275 -10.1,1.9375 m 1.1375,45.6125 c 4.425,-1.575 9.0125,-2.6625 13.75,-2.275 -4.0125,-5.7875 -5.575,-12.5875 -6.375,-19.475 -6.7125,4.8 -7.325,14.1875 -7.375,21.75 m 14.0125,20.0375 c -0.55,3.425 -1.075,6.8375 -1.675,10.2625 2.625,3.25 5.3875,6.375 8.225,9.45 -0.2125,-2.1375 -0.3375,-4.275 -0.4,-6.4125 1.2125,-2.875 3.5125,-5.125 5.225,-7.7125 -5.52041,-1.12305 -7.80064,-1.39771 -11.375,-5.5875 m 33.625,22.075 c 0.7625,3.025 1.5,6.05 2.2375,9.0875 3.175,-3.85 6.3625,-7.7 10.075,-11.05 -2.5,-1.5875 -4.975,-3.1875 -7.4375,-4.8 -1.6875,2.2125 -3.3125,4.4625 -4.875,6.7625 m 189.275,78.1125 c -12.0875,2.8375 -24.6375,3.9875 -36.225,8.6875 -15.875,6.1875 -30.5875,17.675 -37.325,33.675 -2.5375,5.2125 -1.5375,11.075 -1.3875,16.625 -3.2125,-1.475 -3.925,-5.2625 -5.6875,-8 -1.2,4.0625 -2.5875,8.0625 -3.7875,12.125 -1.2125,3.125 2.4125,5.925 5.25,6.2 7.0625,0.55 12.8,-4.3375 17.725,-8.7375 -1.6,2.25 -3.1125,4.5875 -5.0125,6.6125 -3.025,3.1375 -8.15,3.1875 -10.9125,6.5875 -2.1625,3.025 -0.0125,6.375 0.9875,9.3875 0.375,-3.3625 1.425,-7.25 4.9,-8.6375 4.5625,-1.5 9.4375,-1.825 14.1875,-2.425 -1.8875,1.35 -3.8125,2.625 -5.7375,3.925 0.4875,10.5375 1.95,21.125 0.625,31.6625 -1.0875,8.575 -7.925,16.5375 -16.675,17.7 -5.9,0.2375 -11.8,-0.2375 -17.7,-0.1375 3.5875,3.8375 7.7875,7 11.55,10.6625 -5.6375,-2.575 -10.9875,-5.725 -16.45,-8.625 -4.8625,-3.325 -11.1875,-1.3375 -16.05,0.975 -6.4375,2.8875 -8.8375,12.5 -3.9875,17.725 5.325,3.4 12.2375,-0.45 17.8125,2.6375 -6.3,1.575 -12.6375,3 -18.9375,4.5375 0.8,6.0125 2.8875,11.7125 6.0125,16.9125 4.6,-0.775 9.3625,-1.4625 13.075,-4.525 0.85,4.1875 0.7125,8.5 1.1125,12.75 3.3125,2.6 6.625,5.2 9.9625,7.7875 4.4,-1.925 8.85,-3.7375 13.25,-5.6625 1.2625,-0.4125 2.1625,-1.225 2.7125,-2.425 2.9875,-5.05 4.6125,-11.0875 9.1375,-15.1 -0.7625,6.0625 -1.8125,12.1 -2.8625,18.125 4.95,2.275 9.8,4.85 14.975,6.5625 7.9,-0.3625 14.35,-7.6125 13.7625,-15.5125 -0.5875,-8.7875 -2.1125,-17.5 -2.6125,-26.3 -1.8875,-5.4 -2.875,-11.0125 -1.2875,-16.6375 0.9625,7.45 2.175,14.9375 5.1125,21.9 3.35,4.2 7.2125,7.9875 10.775,12.0125 0.55,-11.1875 -0.05,-22.3875 0.4625,-33.5625 1.25,3.575 2.175,7.25 3.175,10.9125 5.8375,4.5625 11.4,9.5125 17.675,13.5 -1.5875,-5.975 -4.3,-11.7875 -3.9375,-18.1125 0.2875,-5.3625 -1.1125,-10.4875 -2.875,-15.475 3.55,4.5375 5.5875,10.425 10.5625,13.7125 3.8375,2.7125 8.625,3.3875 13.225,3.5 -4.375,-5.65 -8.7625,-11.8875 -9.225,-19.2625 -0.275,-7.9 2.1125,-15.8875 0.0125,-23.675 -2.225,-8.4375 -9.575,-14.275 -12.2375,-22.4875 -1.1875,-3.7875 3.1875,-5.975 6.2875,-6.15 8.4375,-0.55 16.725,1.6625 25.0875,2.4625 13.1875,1.775 26.4875,0.05 39.575,-1.75 -0.9125,-8.4375 1.4875,-16.6875 3.45,-24.8 -5.2875,-4.375 -10.35,-9.05 -16.175,-12.7125 -2.65,-1.5 -3.2875,-4.6875 -4.525,-7.2125 2.3625,2.0625 4.725,4.1125 7.175,6.075 1.4125,-5.825 3.025,-11.6 4.6,-17.3875 -2.2375,-2.9375 -4.55,-5.8125 -6.6625,-8.825 2.75,1.8625 5.4125,3.85 8.275,5.5625 1.125,-3.0875 2.275,-6.1625 3.425,-9.2375 -10.225,-0.5875 -20.3625,-2.1375 -30.4,-4.05 -9.25,1.075 -18.35,3.2 -27.2375,5.925 m 60.35,-1.0375 c -1.5,8.3375 -7.2875,15.05 -9.1125,23.225 -1.4375,7.85 6.7625,11.8125 10.7875,17.225 1.5875,-7.375 4.1875,-14.6875 3.9625,-22.3125 -0.1625,-6.45 -2.8,-12.475 -5.6375,-18.1375 m -194.05,139.075 c -1.05,3.63749 -2.125,7.275 -3.1625,10.91249 3.875,-1.8 7.95,-3.41249 11.225,-6.25 -0.225,-2.19999 -0.4375,-4.41249 -0.6375,-6.59999 -2.4875,0.61249 -4.9625,1.2625 -7.425,1.9375 m 3.9125,30.18749 c -0.7375,5.27501 2.575,9.9125 5.5375,13.9375 -0.3375,-4.725 1.4125,-8.95 4.3625,-12.5125 -1.6875,-2.5 -3.3375,-5.0125 -4.95,-7.54999 -2.4125,1.23749 -4.6,3.28749 -4.95,6.12499 m 26.0875,13.45 c -3.4625,7.5875 1.4625,15.5 7.6375,19.8625 -1.6125,-4.8625 -1.0625,-9.7 1.4875,-14.1 -3.05,-1.93749 -6.05,-3.9125 -9.125,-5.7625 m 179.9125,6.9625 c -1.3125,3.61251 -2.0625,7.4 -3.05,11.11251 4.0375,-1.86251 9.77078,-2.49819 13.89578,-4.17319 -0.675,-3.4875 -1.22265,-11.85538 -2.17265,-15.26788 -2.25,1.55 -6.69813,6.40356 -8.67313,8.32856 m -142.925,-0.99999 c -0.475,9.275 7.675,15.6 13.5625,21.5875 -0.525,-6.51251 -1.3,-12.9875 -2.45,-19.4125 -3.775,-0.375 -7.45,-1.2625 -11.1125,-2.175 m 141.775,25.8 c 0.2875,4.05 0.575,8.1125 1.0375,12.175 2.8125,-3.68751 5.21832,-6.70995 8.63082,-9.89745 -1.0625,-2.15 -2.70052,-4.45667 -2.80517,-7.16219 -2.2125,1.65 -4.75065,3.10964 -6.86315,4.88464 m 48.21255,27.39999 c 0.1125,4.1 0.825,8.15 1.1375,12.2375 3.175,-5.6375 5.0689,-11.35835 10.2189,-15.63335 -4.2856,-0.98442 -7.5182,-3.86823 -9.6794,-6.73763 -0.7125,3.65 -1.302,6.42098 -1.677,10.13348 m -32.62232,-5.23441 c 1.6875,2.95 2.62227,8.05795 4.60977,10.85795 2.275,1.7875 4.88755,1.93896 7.35005,3.46396 -2.152,-8.55399 0.7828,-12.59101 0.5412,-12.9768 -2.5653,-0.80028 -9.65287,-2.25375 -12.50102,-1.34511 z"
       id="path3092"
       inkscape:connector-curvature="0"
       style="fill:#ed1b2c"
       sodipodi:nodetypes="cccccccccccccccccccccccccccccccccccccccccccccccccccccccccccccccccccccccccccccccccccccccccccccccccccccccccccccccccccccccccccccccccccccccccccccccccccccccccccccccccccccccccccccccccccccccccccccccccccccccccccccccccccccccccccccccccccccccccccccccccccccccccccccccccccccccccccccccccccccccccccccccccccccccccccccccccccccccccccccccccccccccccccccccccccccccccccccccccccccccccccccccccccccccccccccccccccccccccccccccccccccccccccccccccccccccccccccccccccccccccccccccccccccccccccccccccccccccccccccccccccccccccccccccccccccccccccccccccccccccccccccccccccccccccccccccccccccccccccccccccccccccccccccccccccccccccccccccccccccccccc" />
    <path
       style="fill:#0060af"
       inkscape:connector-curvature="0"
       d="m 599.32294,747.66244 c 28.25547,40.16315 61.20744,76.41685 96.48212,109.68096 35.40231,33.30474 73.12732,63.76857 112.26894,91.94635 43.65945,31.19442 88.7993,60.17045 135.81518,85.30455 34.82801,-17.9645 68.15012,-39.05399 100.97442,-60.80624 70.307,-47.35978 137.3596,-101.06388 195.0829,-164.99484 17.4203,-19.34433 33.8325,-39.73027 48.9558,-61.15783 -8.2572,40.92068 -20.9966,81.56824 -43.0369,116.06336 -37.6996,58.50636 -86.8466,110.13824 -139.1972,153.72395 -49.5684,40.7042 -107.21243,72.3773 -162.77902,103.2335 -34.53447,-19.439 -67.98416,-41.0019 -100.34906,-64.2557 -37.86541,-27.2984 -82.6603,-53.5633 -116.45457,-86.34047 -32.9009,-31.97901 -65.14578,-66.15473 -90.21071,-105.41157 -21.82334,-34.29221 -29.34582,-76.36294 -37.5519,-116.98602 z"
       id="path3217"
       sodipodi:nodetypes="cccccccccccccc" />
    <path
       style="fill:#ffffff"
       inkscape:connector-curvature="0"
       d="m 646.12505,47.204112 c 97.5875,-17.125001 196.65,-25.825001 295.725,-25.987501 107.12495,-0.1375 214.24995,9.8625 319.56245,29.5125 0.025,6.825 -0.25,13.675 0.6625,20.462495 2.325,18.8125 11.9375,36.562504 26.2375,48.975014 12.975,11.3875 29.7875,18.3125 47.0375,19.2625 5.7125,0.325 11.4375,0.1875 17.1625,0.2 0.038,36.1875 -0.175,72.375 0.1,108.5625 -0.325,114.1125 0.1375,228.225 -0.2375,342.3375 -1.825,52.1625 -21.0125,102.3625 -48.2125,146.4125 -3.125,4.6375 -3.5625,10.325 -4.8125,15.6375 -2.975,13.4375 -5.4625,27.0125 -9.45,40.2125 -2.0625,7 -4.475,13.9 -7.025,20.7375 -8.3125,21.4125 -19.05,41.85 -31.4625,61.175 -4.5875,7.025 -9.3125,13.9625 -14.275,20.75 -21.6125,29.525 -46.575,56.4875 -73.375,81.36249 -2.9125,2.725 -5.8375,5.425 -8.7625,8.15 -14.9875,13.4375 -30.4125,26.38749 -46.2375,38.82499 -16.125,12.575 -32.5625,24.7375 -49.35,36.4 -37,25.525 -75.34996,49.2 -115.31245,69.7875 -10.5875,-5.175 -20.8625,-10.925 -31.125,-16.675 -0.725,-0.4125 -2.175,-1.225 -2.9,-1.6375 -23.3375,-13.3 -46.1125,-27.5625 -68.45,-42.4625 -30.45,-20.65 -60.1,-42.5375 -88.15,-66.3375 -12.0375,-10.12499 -23.6875,-20.69999 -35.1375,-31.47499 -40.6375,-38.89999 -77.5125,-82.72499 -102.5625,-133.38749 -8.6,-17.75 -15.6625,-36.25 -20.625,-55.3375 -1.625,-6.5125 -2.925,-13.0875 -4.4,-19.6125 -2.1,-8.1125 -2.525,-16.7625 -5.95,-24.45 -24.575,-39.825 -43.05,-84.2625 -48,-131.0875 -1.825,-16.225 -1.3125,-32.5625 -1.375,-48.85 -0.025,-34.025 0.0375,-68.0375 -0.025,-102.0625 -0.0125,-40.8 0.0625,-81.6 -0.0375,-122.3875 0.0125,-0.7375 0.0125,-2.2125 0.025,-2.9375 0.05,-46.6125 0.025,-93.2125 0.025,-139.8125 -0.0125,-14.8625 0.0125,-29.7375 -0.0375,-44.6 0.025,-2.45 0.05,-4.9 0.05,-7.35 9.725,0.2 19.575,0.45 29.125,-1.7125 16.35,-3.4875 31.4625,-12.4125 42.4625,-25 9.9875,-11.26251 16.5625,-25.512514 18.675,-40.425014 1.125,-7.162495 0.775,-14.437495 0.8,-21.662495 6.5375,-1.174999 13.0875,-2.324999 19.6375,-3.512499 m 4.9,24.349994 c -2.3625,22.8 -12.475,44.712514 -28.45,61.175014 -16.325,17.1125 -38.6875,28.25 -62.1625,31.0875 -0.0125,131.2 0,262.3875 -0.0125,393.5875 0.1125,17.9875 -0.675,36.0625 2.0125,53.9125 6.5375,47.8375 28.175,92.275 55.35,131.6875 26.475,38.1875 58.375,72.35 92.6375,103.65 37.6,34.3125 78.375,65.025 120.6125,93.4 36.125,24.0875 73.3375,46.58749 111.7625,66.82498 1.4,1.1 2.85,-0.3875 4.15,-0.875 31.98749,-17.02499 63.21245,-35.46249 93.62495,-55.13748 60.7625,-39.475 118.85,-83.6375 169.525,-135.6 30.2125,-31.1125 57.8375,-65.0625 79.375,-102.8125 22.5625,-39.525 38.0875,-84.125 38.125,-130.025 0.025,-139.5375 0.013,-279.075 0,-418.6125 -22.25,-2.7 -43.5,-12.8 -59.55,-28.45 -17.4625,-16.7375 -28.6375,-39.762514 -31.125,-63.825014 -193.35,-33.899994 -392.53745,-33.912494 -585.87495,0.0125 m -44.725,698.500014 c 8.0375,37.5375 25.2,72.5625 46.575,104.25 24.55,36.275 54.5,68.625 86.725,98.17499 33.1,30.28749 68.8125,57.63749 105.9,82.86249 31.7,21.4875 64.4625,41.4125 98.2875,59.375 54.42499,-28.5125 105.98745,-62.4 154.53745,-100.0125 51.275,-40.27499 99.4125,-85.67498 136.3375,-139.73748 21.5875,-31.875 38.9625,-67.125 47.05,-104.9375 -14.8125,19.8 -30.8875,38.6375 -47.95,56.5125 -56.5375,59.075 -122.2125,108.7 -191.075,152.46249 -32.15,20.1 -64.78746,39.58749 -98.89995,56.18749 -46.05,-23.225 -90.2625,-49.99999 -133.025,-78.82498 -38.3375,-26.0375 -75.2875,-54.1875 -109.9625,-84.9625 -34.55,-30.7375 -66.825,-64.2375 -94.5,-101.35 z"
       id="path3032" />
    <path
       style="fill:#ed1b2c"
       inkscape:connector-curvature="0"
       d="m 877.92637,242.42617 c 11.8625,0.1375 23.725,0.9 35.575,0.7 -6.65,6.5125 -12.3375,15.65 -22.3125,17.15 -4.2,-4.375 -6.975,-10.5875 -12.4,-13.475 -0.3,-1.4625 -0.5875,-2.925 -0.8625,-4.375 m 17.2,3.0125 c -1.5375,3.8625 -3.425,7.6625 -7.025,10.0125 1.025,0.45 3.0875,1.3625 4.1125,1.825 7.2125,-1.475 12.0625,-7.625 16.75,-12.8 -4.625,0.3 -9.225,0.675 -13.8375,0.9625 m -11.3125,1.25 c 0.9,2.1625 1.825,4.325 2.7375,6.5 3.3625,-1.575 6.0625,-4.0875 7.4125,-7.625 -3.4,0.3 -6.7875,0.675 -10.15,1.125 z"
       id="path3098" />
    <path
       style="fill:#ed1b2c"
       inkscape:connector-curvature="0"
       d="m 979.97157,221.90943 c 4.675,-1.1125 9.475,-1.6 14.175,-2.575 -4.175,13.325 1.78749,27.5625 -3.075,40.7125 -3.0875,9.0875 -12.0375,15.75 -21.6125,16.175 8.625,-2.3125 16.4625,-8.425 19.375,-17.0625 4.35,-11.5625 -1.1625,-23.85 1.7,-35.6625 -3.625,0.65 -7.325,0.95 -10.8875,1.9 -3.15,2.175 -5.675,5.125 -8.7375,7.4125 2.85,-3.75 5.6,-7.7 9.0625,-10.9 z"
       id="path3094" />
    <path
       style="fill:#ed1b2c"
       inkscape:connector-curvature="0"
       d="m 969.38197,246.16465 c 3.2,-4.65 8.6625,-7.025 13.85,-8.775 -5.225,3.6625 -12.825,8.5875 -10.2375,16.0875 2.7125,0.6125 5.4,1.3125 8.0875,2.0625 -2.225,2.8625 -7,3.7375 -9.7875,1.2 -2.8875,-2.55 -4.3,-7.225 -1.9125,-10.575 z"
       id="path3096" />
    <path
       style="fill:#ed1b2c"
       inkscape:connector-curvature="0"
       d="m 996.54797,703.57913 c 1.875,-2.475 3.82503,-4.9 5.96253,-7.15 -0.5625,2.8 -1.225,5.575 -1.9,8.35 -1.01253,-0.3 -3.03753,-0.9 -4.06253,-1.2 z"
       id="path3100" />
    <path
       style="fill:#ed1b2c"
       inkscape:connector-curvature="0"
       d="m 1012.7724,798.46455 c 2.45,-1.8 4.925,-3.5875 7.5375,-5.1625 -3.8625,4.5 -6.95,9.575 -8.225,15.4375 -0.038,-3.45 0.2625,-6.875 0.6875,-10.275 z"
       id="path3102" />
  </g>
</svg>
