<?xml version="1.0" encoding="UTF-8" standalone="no"?>
<svg
   xmlns:dc="http://purl.org/dc/elements/1.1/"
   xmlns:cc="http://creativecommons.org/ns#"
   xmlns:rdf="http://www.w3.org/1999/02/22-rdf-syntax-ns#"
   xmlns:svg="http://www.w3.org/2000/svg"
   xmlns="http://www.w3.org/2000/svg"
   viewBox="0 0 800 799.91998"
   height="799.91998"
   width="800"
   xml:space="preserve"
   id="svg2"
   version="1.1"><metadata
     id="metadata8"><rdf:RDF><cc:Work
         rdf:about=""><dc:format>image/svg+xml</dc:format><dc:type
           rdf:resource="http://purl.org/dc/dcmitype/StillImage" /></cc:Work></rdf:RDF></metadata><defs
     id="defs6" /><g
     transform="matrix(1.3333333,0,0,-1.3333333,0,799.92)"
     id="g10"><g
       transform="scale(0.1)"
       id="g12"><path
         id="path14"
         style="fill:#af9740;fill-opacity:1;fill-rule:nonzero;stroke:none"
         d="m 2709.38,5986.4 c 358.3,32.01 722.82,6.09 1070.48,-88.4 526.64,-140.57 1012.53,-429.5 1388.3,-824.02 C 5543.48,4683.68 5809.31,4189.36 5927.52,3661 6041.7,3147 6021.4,2602.7 5863.64,2100.11 5627.97,1339.19 5073.99,685.102 4363.52,325.41 3934.17,105.82 3450.47,-8.98047 2968.02,0.550781 2418.57,0.851562 1871.46,163.289 1406.66,455.352 948.586,741.949 570.309,1154.58 325.258,1636.09 110.348,2056.06 -3.51172,2527.88 0.0859375,2999.88 -4.75781,3622.74 196.246,4244.19 560.781,4748.81 1055.1,5444.45 1858.66,5910.34 2709.38,5986.4 v 0" /><path
         id="path16"
         style="fill:#25602d;fill-opacity:1;fill-rule:nonzero;stroke:none"
         d="m 2736.71,5914.87 c 406.85,36.54 821.37,-12.49 1207.92,-145.1 492.13,-166.96 936.32,-469.95 1274.91,-864 349.54,-405.61 585.07,-908.67 669.26,-1437.66 89.95,-550.39 18.57,-1126.39 -205.69,-1637.27 C 5364.64,1093.35 4728.36,501.262 3969.31,237.48 3455.48,56.1406 2890.71,23.5117 2359.22,142.992 1835.55,259.961 1345.44,524.852 961.855,900.16 613.105,1236.57 350.875,1661.87 206.246,2124.48 22.8906,2705.64 28.1992,3344.42 221.711,3922.29 c 186.172,564.45 551.32,1066.73 1027.369,1422.05 430.29,323.14 951.62,523.05 1487.63,570.53 v 0" /><path
         id="path18"
         style="fill:#af9740;fill-opacity:1;fill-rule:nonzero;stroke:none"
         d="m 3569.01,5728.39 c 36.24,27.64 73.88,55.13 117.46,70.44 35.3,7.18 59.65,-33.12 40.44,-62.47 -49.98,-20.63 -105.58,-10.47 -157.9,-7.97 v 0" /><path
         id="path20"
         style="fill:#af9740;fill-opacity:1;fill-rule:nonzero;stroke:none"
         d="m 2832.3,5758.06 c 33.12,14.37 69.81,9.22 104.8,10.16 81.06,-2.04 163.52,4.68 243.01,-14.53 73.1,-19.06 109.8,-113.23 69.35,-176.96 -15.92,-31.39 -51.06,-42.63 -80.11,-57.48 50.9,-75.11 96.83,-156.33 167.42,-215.06 -49.98,-1.09 -100.12,-1.55 -150.08,-0.61 -57.79,71.06 -94.66,163.05 -169.94,217.4 0.62,-62.01 -9.85,-126.67 5.32,-187.27 19.98,-9.83 40.6,-18.74 60.75,-28.42 -81.37,-4.22 -162.9,-2.5 -244.28,-0.79 19.22,10.94 38.74,21.57 57.17,34.05 11.4,36.24 5.16,75.44 6.56,112.77 -2.5,88.4 3.59,177.11 -2.34,265.35 -1.73,33.58 -47.01,28.74 -67.63,41.39 v 0" /><path
         id="path22"
         style="fill:#af9740;fill-opacity:1;fill-rule:nonzero;stroke:none"
         d="m 3347.38,5751.81 c 84.35,-16.24 172.6,-24.05 251.77,-58.72 -22.8,-0.31 -45.44,-1.72 -67.93,-3.9 -24.99,-30.14 -24.99,-73.57 -35.15,-110.12 -13.11,-79.49 -40.76,-157.11 -43.41,-238.18 12.49,-79.18 133.07,-97.29 178.36,-35.76 32.95,46.85 38.41,105.74 51.23,160.09 9.36,55.92 29.67,110.58 29.67,167.58 -9.22,26.56 -41.86,36.24 -61.54,54.51 61.38,-7.49 122.14,-19.99 180.86,-39.51 -29.83,-7.97 -76.84,-2.35 -83.54,-42.64 -28.13,-93.55 -35.15,-192.88 -68.89,-285.04 -27.65,-75.9 -122.29,-100.26 -193.98,-79.96 -67.32,10.16 -139.31,57.64 -141.81,131.82 3.76,106.51 42.63,208.03 57,313.14 11.56,36.08 -33.26,46.71 -52.64,66.69 v 0" /><path
         id="path24"
         style="fill:#af9740;fill-opacity:1;fill-rule:nonzero;stroke:none"
         d="m 2506.04,5738.54 c 90.42,-119.32 161.8,-252.08 247.54,-374.84 18.12,-26.7 46.86,-42.64 73.41,-59.82 -79.5,-9.99 -157.74,-28.42 -237.87,-33.58 20.62,13.59 41.54,26.56 62.48,39.67 -18.28,30.3 -36.55,60.6 -55.14,90.74 -52.78,-8.74 -105.73,-17.33 -158.68,-25.45 -3.9,-33.26 -26.08,-70.28 -5.15,-101.52 21.71,-5.15 43.73,-9.53 65.91,-13.28 -52.01,-23.89 -110.11,-23.58 -165.71,-32.32 25.77,27.96 52.32,57.32 60.6,95.57 38.26,138.08 74.81,276.77 112.61,414.83 v 0" /><path
         id="path26"
         style="fill:#25602d;fill-opacity:1;fill-rule:nonzero;stroke:none"
         d="m 3015.34,5737.91 c 42.65,-1.71 98.09,2.81 121.67,-41.7 19.52,-44.83 20.3,-110.58 -24.51,-140.87 -29.21,-17.03 -64.82,-12.5 -97.16,-15.78 -0.3,66.07 -0.3,132.29 0,198.35 v 0" /><path
         id="path28"
         style="fill:#af9740;fill-opacity:1;fill-rule:nonzero;stroke:none"
         d="m 1939.25,5557.53 c 73.09,30.45 153.84,64.81 233.81,41.23 160.24,-44.2 225.84,-288.79 89.18,-394.67 -88.41,-66.07 -198.2,-96.84 -300.82,-134.48 18.59,22.65 64.35,41.55 45.93,77.94 -40.61,107.76 -84.66,214.43 -129.33,320.63 -9.68,42.8 -58.88,17.97 -88.4,19.84 44.36,33.89 99.49,47.02 149.63,69.51 v 0" /><path
         id="path30"
         style="fill:#af9740;fill-opacity:1;fill-rule:nonzero;stroke:none"
         d="m 3848.26,5555.64 c 105.58,58.42 240.84,25.94 325.66,-54.34 21.85,-26.87 51.53,-5.94 76.99,2.34 -20.77,-53.57 -38.58,-108.08 -59.19,-161.64 -25.94,43.57 -17.97,100.73 -53.74,139.31 -46.06,65.75 -151.49,85.28 -208.65,22.8 -62.17,-69.19 -97.46,-163.36 -97.78,-256.15 4.22,-80.27 86.69,-124.78 159.48,-125.25 13.89,42.17 28.26,84.18 42.62,126.04 -17.79,16.24 -35.6,32.49 -52.94,49.2 77.93,-20.77 155.87,-45.92 227.25,-83.72 -23.58,-7.8 -63.72,6.72 -70.91,-27.02 -17.97,-34.36 -23.58,-74.8 -46.55,-106.35 -122.75,-1.88 -267.06,30.3 -335.31,142.75 -72.16,110.58 -21.87,272.22 93.07,332.03 v 0" /><path
         id="path32"
         style="fill:#25602d;fill-opacity:1;fill-rule:nonzero;stroke:none"
         d="m 1976.26,5544.72 c 48.74,11.71 107.77,24.2 146.81,-17.18 65.6,-64.35 102.93,-157.12 107.15,-248.33 2.81,-59.51 -48.58,-100.28 -101.99,-111.52 -54.5,124.01 -106.52,249.42 -151.97,377.03 v 0" /><path
         id="path34"
         style="fill:#25602d;fill-opacity:1;fill-rule:nonzero;stroke:none"
         d="m 2490.1,5563.14 c 31.09,-44.19 59.51,-90.11 87.62,-136.03 -42.32,-6.87 -84.8,-13.43 -127.13,-19.84 11.4,52.33 24.99,104.18 39.51,155.87 v 0" /><path
         id="path36"
         style="fill:#af9740;fill-opacity:1;fill-rule:nonzero;stroke:none"
         d="m 1626.25,5393.68 c 54.83,19.37 124.95,-9.98 140.88,-68.09 12.66,-40.29 -14.05,-76.68 -33.73,-109.17 39.83,4.84 83.55,18.28 121.67,-1.56 46.07,-26.39 67.93,-87.93 46.85,-137.29 -23.59,-64.66 -85.43,-101.98 -140.41,-137.44 -57.32,-34.98 -110.26,-77.62 -172.26,-104.33 14.99,19.68 30.61,38.74 46.38,57.8 -60.13,110.26 -133.22,213.02 -201.79,318.13 -17.33,36.23 -60.75,7.35 -90.58,7.66 91.52,61.85 180.39,132.13 282.99,174.29 v 0" /><path
         id="path38"
         style="fill:#af9740;fill-opacity:1;fill-rule:nonzero;stroke:none"
         d="m 4568.91,5317.78 c 43.25,8.13 86.98,19.22 131.5,17.65 38.56,-0.78 45.91,-75.59 1.25,-71.84 -47.96,5.93 -94.5,24.67 -132.75,54.19 v 0" /><path
         id="path40"
         style="fill:#25602d;fill-opacity:1;fill-rule:nonzero;stroke:none"
         d="m 1553.17,5319.35 c 62.47,32.17 131.82,-38.27 117.76,-100.74 -9.53,-28.89 -32.02,-55.92 -61.54,-64.97 -34.05,44.66 -65.6,91.83 -91.84,141.5 8.6,12.18 20.46,20.3 35.62,24.21 v 0" /><path
         id="path42"
         style="fill:#af9740;fill-opacity:1;fill-rule:nonzero;stroke:none"
         d="m 4347.58,5318.41 c 159.46,65.44 363.75,-85.9 338.14,-259.27 -13.75,-126.5 -135.89,-232.08 -264.11,-219.12 -91.51,12.49 -177.89,73.88 -214.9,159.15 -50.61,121.51 20.15,272.38 140.87,319.24 v 0" /><path
         id="path44"
         style="fill:#25602d;fill-opacity:1;fill-rule:nonzero;stroke:none"
         d="m 4472.7,5273.27 c 74.48,30.77 155.38,-53.88 127.9,-127.91 -30.46,-92.15 -89.34,-180.08 -171.03,-234.12 -58.1,-43.73 -148.37,1.72 -154.61,71.84 -2.66,59.98 28.26,114.33 59.67,162.9 36.07,51.23 77.29,104.96 138.07,127.29 v 0" /><path
         id="path46"
         style="fill:#af9740;fill-opacity:1;fill-rule:nonzero;stroke:none"
         d="m 2061.07,5064.15 c 417.79,190.85 894.3,247.85 1345.82,165.86 497.61,-88.4 961.3,-351.73 1293.97,-731.71 300.03,-338.46 494.63,-769.05 548.37,-1218.23 60.12,-478.87 -35.92,-976.6 -275.2,-1396.11 C 4701.34,1399.02 4244.2,1021.05 3715.36,847.52 3574.17,803.949 3428.45,760.699 3280.7,755.223 c 84.97,25.769 166.97,60.289 243.33,105.898 564.76,133.52 1062.52,507.109 1363.32,1001.749 -81.84,89.18 -192.42,144.62 -307.06,178.99 21.56,-66.85 38.12,-135.58 41.08,-206.16 -19.52,-0.16 -38.89,-0.47 -58.42,-0.79 -12.33,110.11 -46.86,224.43 -134,298.78 -154.31,131.66 -380.15,152.28 -569.13,94.17 -15.93,25.93 -32.63,51.23 -48.73,76.69 -12.02,44.2 -20.92,91.06 -49.03,128.39 -31.86,46.07 -83.56,71.07 -129.65,100.1 55.76,19.07 114.48,24.37 173.06,21.09 -1.41,72.94 -1.71,145.73 -1.87,218.66 -106.67,0.46 -213.34,0.15 -320.02,1.09 -29.83,-1.24 -61.22,0.62 -89.02,-11.88 -34.67,-24.82 -63.57,-56.69 -98.09,-81.83 -8.43,153.06 -1.87,306.42 -3.9,459.49 1.87,69.35 -9.52,140.57 13.11,207.73 38.9,-35.62 70.61,-94.81 130.58,-93.71 88.7,-3.44 177.43,1.4 266.29,-1.41 32.33,3.28 71.05,-7.65 99.33,9.68 5.93,131.04 0.47,262.39 1.88,393.43 -81.06,-1.1 -162.12,2.34 -243.03,-0.47 -66.68,4.22 -102.45,-61.38 -152.9,-93.24 -3.59,222.09 -3.9,444.18 0.17,666.11 47.78,-28.89 77.76,-89.96 138.21,-93.71 85.6,-7.02 171.65,-0.77 257.55,-2.18 -1.1,91.21 3.12,182.27 -0.63,273.32 1.41,62.32 -60.29,94.64 -92.3,140.26 221.01,7.8 442.46,3.58 663.62,2.33 -25.15,-50.75 -90.28,-80.12 -89.5,-142.44 -4.05,-90.27 1.57,-180.7 -2.5,-271.12 87.63,-2.66 175.55,-6.72 263.03,-0.17 60.59,3.44 90.41,64.82 138.51,93.56 3.91,-221.93 3.75,-444.03 0,-665.96 -39.2,26.08 -68.55,66.53 -110.87,87.3 -95.59,14.99 -193.05,3.13 -289.42,5.63 0.63,-133.69 0,-267.55 0.47,-401.24 107.77,-0.62 215.38,0.16 323.15,-1.09 31.07,1.71 64.65,-2.34 93.54,11.87 32.81,25.77 59.82,58.72 96.84,79.34 4.38,-192.88 -0.15,-385.77 2.51,-578.5 -2.19,-27.18 4.67,-59.51 -17.18,-80.59 -39.52,32.64 -69.98,87.62 -127.62,87.46 -122.74,4.84 -245.66,-1.88 -368.58,2.82 -3.91,-74.51 -3.29,-149.33 -3.43,-223.98 58.87,6.72 118.69,3.76 174.75,-17.17 -48.1,-31.09 -102.45,-58.25 -133.37,-108.56 -28.42,-40.75 -38.42,-90.1 -46.54,-138.21 101.67,-31.24 192.73,-91.53 258.95,-175.23 143.22,-23.13 277.53,-89.18 382.5,-189.45 235.2,413.57 327.66,905.54 262.06,1376.59 -59.65,447.46 -263.94,873.21 -572.09,1202.6 -402.33,435.28 -985.99,694.08 -1578.55,701.26 -0.6,-829.33 -0.15,-1658.5 -0.3,-2487.84 -20.62,0.17 -41.23,0.17 -61.7,0 -0.62,20.94 -1.24,41.72 -1.71,62.32 -719.53,-0.31 -1439.07,-0.78 -2158.599,0.33 13.113,-147.13 45.601,-291.6 86.679,-433.27 440.9,-1.55 881.81,-0.14 1322.71,-0.62 -16.09,-22.02 -32.17,-44.04 -47.64,-66.68 -35.76,2.49 -71.68,4.36 -107.61,4.51 -381.86,-1.08 -763.57,0.48 -1145.44,-0.77 49.824,-142.12 112.92,-279.73 190.55,-409.03 9.67,-27.19 40.76,-22.5 63.87,-24.53 278.48,0.92 556.95,0.32 835.43,0.47 -2.82,-20 -5.63,-40 -8.44,-60.14 -279.57,3.76 -559.29,0.79 -838.85,1.57 106.04,-159 231.61,-304.71 373.43,-432.95 176.49,-0.61 353.13,-0.3 529.61,0 9.21,-20.45 18.43,-40.91 27.96,-61.38 -160.71,-2.96 -321.43,0 -482.14,-1.71 179.77,-147.12 383.12,-265.67 600.05,-348.749 83.1,-31.242 166.96,-62.942 255.37,-75.43 80.74,-49.992 167.89,-89.18 258.79,-116.84 -473.39,49.508 -924.29,266.909 -1271.48,590.369 -353.13,329.08 -597.712,773.27 -682.525,1248.84 -82.773,455.43 -24.516,936.16 170.09,1356.6 C 1163.65,4438 1569.56,4841.9 2061.07,5064.15 v 0" /><path
         id="path48"
         style="fill:#a81c23;fill-opacity:1;fill-rule:nonzero;stroke:none"
         d="m 1774,4825.18 c 347.04,243.5 771.7,368.91 1194.18,377.18 0.15,-126.5 0.31,-252.86 0,-379.21 -397.96,0.94 -796.22,-3.28 -1194.18,2.03 v 0" /><path
         id="path50"
         style="fill:#a81c23;fill-opacity:1;fill-rule:nonzero;stroke:none"
         d="m 3031.11,5202.52 c 592.56,-7.18 1176.22,-265.98 1578.55,-701.26 308.15,-329.39 512.44,-755.14 572.09,-1202.6 65.6,-471.05 -26.86,-963.02 -262.06,-1376.59 -104.97,100.27 -239.28,166.32 -382.5,189.45 -66.22,83.7 -157.28,143.99 -258.95,175.23 8.12,48.11 18.12,97.46 46.54,138.21 30.92,50.31 85.27,77.47 133.37,108.56 -56.06,20.93 -115.88,23.89 -174.75,17.17 0.14,74.65 -0.48,149.47 3.43,223.98 122.92,-4.7 245.84,2.02 368.58,-2.82 57.64,0.16 88.1,-54.82 127.62,-87.46 21.85,21.08 14.99,53.41 17.18,80.59 -2.66,192.73 1.87,385.62 -2.51,578.5 -37.02,-20.62 -64.03,-53.57 -96.84,-79.34 -28.89,-14.21 -62.47,-10.16 -93.54,-11.87 -107.77,1.25 -215.38,0.47 -323.15,1.09 -0.47,133.69 0.16,267.55 -0.47,401.24 96.37,-2.5 193.83,9.36 289.42,-5.63 42.32,-20.77 71.67,-61.22 110.87,-87.3 3.75,221.93 3.91,444.03 0,665.96 -48.1,-28.74 -77.92,-90.12 -138.51,-93.56 -87.48,-6.55 -175.4,-2.49 -263.03,0.17 4.07,90.42 -1.55,180.85 2.5,271.12 -0.78,62.32 64.35,91.69 89.5,142.44 -221.16,1.25 -442.61,5.47 -663.62,-2.33 32.01,-45.62 93.71,-77.94 92.3,-140.26 3.75,-91.05 -0.47,-182.11 0.63,-273.32 -85.9,1.41 -171.95,-4.84 -257.55,2.18 -60.45,3.75 -90.43,64.82 -138.21,93.71 -4.07,-221.93 -3.76,-444.02 -0.17,-666.11 50.45,31.86 86.22,97.46 152.9,93.24 80.91,2.81 161.97,-0.63 243.03,0.47 -1.41,-131.04 4.05,-262.39 -1.88,-393.43 -28.28,-17.33 -67,-6.4 -99.33,-9.68 -88.86,2.81 -177.59,-2.03 -266.29,1.41 -59.97,-1.1 -91.68,58.09 -130.58,93.71 -22.63,-67.16 -11.24,-138.38 -13.11,-207.73 2.03,-153.07 -4.53,-306.43 3.9,-459.49 34.52,25.14 63.42,57.01 98.09,81.83 27.8,12.5 59.19,10.64 89.02,11.88 106.68,-0.94 213.35,-0.63 320.02,-1.09 0.16,-72.93 0.46,-145.72 1.87,-218.66 -58.58,3.28 -117.3,-2.02 -173.06,-21.09 46.09,-29.03 97.79,-54.03 129.65,-100.1 28.11,-37.33 37.01,-84.19 49.03,-128.39 -180.7,245.05 -474,406.7 -780.28,410.13 0.15,829.34 -0.3,1658.51 0.3,2487.84 v 0" /><path
         id="path52"
         style="fill:#25602d;fill-opacity:1;fill-rule:nonzero;stroke:none"
         d="m 1627.04,5128.49 c 33.89,11.09 69.19,39.83 106.05,24.53 57.47,-17.81 98.39,-95.43 58.72,-147.75 -13.12,-19.53 -42.64,-47.02 -66.53,-29.84 -37.79,47.32 -68.88,100.12 -98.24,153.06 v 0" /><path
         id="path54"
         style="fill:#af9740;fill-opacity:1;fill-rule:nonzero;stroke:none"
         d="m 1089.3,5014.79 c 137.14,-55.44 271.6,-117.29 408.26,-174.14 31.08,-15.31 66.07,-9.85 99.18,-7.35 -58.73,-55.29 -115.89,-112.6 -178.37,-163.83 9.54,22.18 19.37,44.19 29.37,66.22 -31.86,17.18 -64.66,32.49 -98.24,45.76 -35.76,-38.89 -82.62,-67.94 -112.14,-111.82 5,-32.96 23.9,-60.92 42.64,-87.62 23.12,10.46 46.54,20.77 70.13,30.3 -33.43,-48.11 -79.66,-84.81 -124.32,-122.14 5.77,33.42 15.93,68.25 3.12,101.36 -43.27,142.13 -100.27,280.04 -139.63,423.26 v 0" /><path
         id="path56"
         style="fill:#25602d;fill-opacity:1;fill-rule:nonzero;stroke:none"
         d="m 1171.14,4859.23 c 46.23,-24.2 104.8,-32.01 141.35,-70.44 -27.33,-29.98 -58.89,-55.76 -89.65,-82.15 -16.4,51.23 -33.58,101.98 -51.7,152.59 v 0" /><path
         id="path58"
         style="fill:#ffffff;fill-opacity:1;fill-rule:nonzero;stroke:none"
         d="m 1676.86,4759.9 c 430.28,1.09 860.57,-0.31 1290.85,0.78 1.25,-144.63 0.31,-289.09 0.62,-433.72 -574.9,0.15 -1149.81,-0.31 -1724.72,0.31 123.23,163.84 270.2,308.78 433.25,432.63 v 0" /><path
         id="path60"
         style="fill:#af9740;fill-opacity:1;fill-rule:nonzero;stroke:none"
         d="m 5026.35,4612.77 c 34.68,74.81 142.44,91.22 203.2,38.74 46.08,-34.98 57.79,-94.33 69.5,-147.44 12.18,-1.71 36.55,-5 48.72,-6.71 -44.51,-35.62 -89.33,-71.22 -139.62,-98.24 27.18,53.88 72.93,114.95 40.76,177.27 -14.37,48.09 -86.52,78.7 -115.57,26.55 -29.51,-93.87 38.57,-199.29 -11.24,-290.66 -39.37,-71.22 -141.98,-83.71 -204.14,-36.08 -55.14,36.23 -70.75,103.71 -89.65,162.43 -17.49,4.22 -34.99,8.59 -52.31,12.81 49.35,41.85 102.59,79.03 159.76,109.33 -25.13,-49.83 -68.08,-97.3 -61.84,-157.12 2.19,-49.67 39.04,-102.93 92.46,-104.33 35.61,3.12 59.81,39.35 59.35,73.25 1.09,79.8 -35.13,163.52 0.62,240.2 v 0" /><path
         id="path62"
         style="fill:#af9740;fill-opacity:1;fill-rule:nonzero;stroke:none"
         d="m 612.168,4412.24 c 47.945,74.18 98.863,147.12 156.332,214.28 -6.707,-23.58 -14.832,-46.7 -23.738,-69.65 36.55,-43.27 85.277,-72.63 130.261,-105.74 63.407,-45.45 125.257,-93.09 190.387,-135.88 35.92,35.14 70.6,74.65 85.9,123.38 9.84,57.48 -35.62,103.55 -55.45,153.53 50.92,-29.67 91.05,-73.25 135.41,-111.52 -83.55,-111.67 -157.59,-231.61 -250.356,-335.63 2.965,26.39 30.926,63.25 0.774,83.71 -82.458,64.66 -169.762,123.07 -253.168,186.33 -17.961,10.78 -34.356,28.74 -55.606,30.92 -21.391,-9.21 -40.602,-22.49 -60.746,-33.73 v 0" /><path
         id="path64"
         style="fill:#ffffff;fill-opacity:1;fill-rule:nonzero;stroke:none"
         d="m 3824.69,4499.23 c 146.97,-0.62 294.09,-0.93 441.06,0.16 -17.2,-28.9 -34.69,-59.66 -32.19,-94.65 -0.92,-108.08 0,-216 0.33,-324.08 103.7,1.56 207.57,-1.71 311.41,1.25 34.07,-0.31 63.42,18.43 91.21,36.08 -1.71,-148.06 -1.71,-296.12 0,-444.18 -28.73,14.05 -57.31,31.86 -90.26,31.86 -104.34,2.03 -208.52,-0.16 -312.69,0.46 -0.14,-169.14 -0.3,-338.44 0,-507.59 135.26,0.31 270.67,-0.94 406.08,0.31 39.82,-2.02 76.22,15 109.65,34.98 -0.63,-147.9 -0.95,-295.64 0.15,-443.55 -29.21,15.62 -58.88,35.15 -93.4,33.12 -140.87,1.23 -281.59,-0.32 -422.32,0.46 -1.24,-100.9 1.25,-201.94 -1.55,-302.83 -20.46,-22.03 -40.15,-44.84 -58.88,-68.26 -24.68,59.82 -70.28,106.98 -127.14,137.13 -57.79,-29.53 -101.82,-77.78 -129,-136.35 -20,25.92 -40.93,50.76 -62.78,74.81 0.45,98.39 0.3,196.95 0.3,295.34 -139.79,-0.3 -279.57,0.78 -419.34,-0.15 -34.36,1.71 -63.73,-17.96 -92.78,-33.27 1.09,148.21 0.93,296.43 0.16,444.8 32.95,-21.7 69.97,-38.1 110.57,-36.06 133.7,-1.42 267.71,-0.48 401.54,-0.17 -0.15,168.99 -0.15,337.99 0,506.97 -103.07,0 -206.16,1.88 -309.08,-0.15 -33.11,0 -61.7,-17.81 -90.26,-31.86 1.71,148.06 1.71,296.12 0,444.18 27.16,-17.18 55.74,-35.93 89.18,-35.93 103.22,-3.27 206.62,0 310.01,-1.09 -0.15,108.08 0.31,216.32 0.31,324.39 2.81,34.52 -15.3,64.51 -30.29,93.87 v 0" /><path
         id="path66"
         style="fill:#af9740;fill-opacity:1;fill-rule:nonzero;stroke:none"
         d="m 5255.31,4329.78 c 40.62,28.1 86.85,45.6 132.3,64.03 60.59,-106.05 120.25,-212.72 177.26,-320.8 -168.99,5.62 -337.66,18.28 -506.49,23.74 32.31,-56.85 56.53,-123.39 111.5,-162.9 47.48,-32.33 106.68,-18.58 160.09,-17.02 -52.48,-32.49 -110.58,-54.51 -168.67,-74.5 -65.61,124.95 -136.51,246.92 -203.52,371.08 169.48,-6.09 338.93,-17.8 508.55,-24.2 -23.13,42.16 -41.55,89.64 -79.35,121.04 -37.33,29.99 -87.93,17.33 -131.67,19.53 v 0" /><path
         id="path68"
         style="fill:#a81c23;fill-opacity:1;fill-rule:nonzero;stroke:none"
         d="m 960.609,3835.14 c 65.131,150.87 141.491,297.68 238.641,430.44 589.59,-2.65 1179.34,-0.15 1768.93,-1.24 0,-144.47 0.78,-289.1 -0.47,-433.72 -645.19,0.46 -1290.38,0.61 -1935.73,0 -23.89,0.46 -47.628,2.49 -71.371,4.52 v 0" /><path
         id="path70"
         style="fill:#af9740;fill-opacity:1;fill-rule:nonzero;stroke:none"
         d="m 5395.88,3910.27 c 122.44,32.95 256.3,-52.48 281.44,-176.03 38.9,-106.66 -10.45,-236.45 -114.63,-284.24 -99.04,-51.55 -234.75,-32.18 -304.1,58.88 -59.03,80.59 -79.34,198.19 -26.38,286.91 35.29,59.18 96.51,100.58 163.67,114.48 v 0" /><path
         id="path72"
         style="fill:#af9740;fill-opacity:1;fill-rule:nonzero;stroke:none"
         d="m 415.375,3881.37 c 49.82,29.36 120.566,17.03 155.246,-29.83 19.367,-25.45 20.613,-59.03 27.957,-89.18 84.188,34.83 181.172,44.52 252.86,104.95 -11.715,-49.66 -25.93,-98.86 -42.176,-147.27 -80.742,-29.53 -164.457,-51.39 -244.735,-82.31 -0.152,-5.94 -0.312,-17.81 -0.465,-23.74 54.04,-21.71 110.887,-35.77 168.047,-46.85 13.59,17.8 27.332,35.6 41.399,53.1 -22.192,-79.5 -31.238,-169.62 -80.129,-237.56 2.035,14.53 5.937,43.73 7.809,58.26 -56.696,37.95 -125.258,47.94 -188.825,69.34 -66.527,18.12 -130.566,46.39 -199.133,55.92 -18.429,-17.34 -34.05,-37.17 -50.449,-56.38 19.84,84.17 47.793,166.17 73.407,248.79 16.246,45.77 33.582,98.09 79.187,122.76 v 0" /><path
         id="path74"
         style="fill:#af9740;fill-opacity:1;fill-rule:nonzero;stroke:none"
         d="m 5689.97,3850.29 c 45.29,45.45 112.31,-37.64 61.22,-74.02 -46.39,-37.33 -109.63,35.91 -61.22,74.02 v 0" /><path
         id="path76"
         style="fill:#25602d;fill-opacity:1;fill-rule:nonzero;stroke:none"
         d="m 5426.48,3787.51 c 55.62,14.36 118.25,28.73 172.44,1.71 53.26,-22.8 74.81,-100.58 36.86,-145.87 -36.24,-48.57 -95.9,-69.66 -151.18,-88.09 -57.17,-17.65 -119.8,-31.23 -178.53,-13.58 -57,16.08 -87.15,91.67 -54.5,141.8 39.06,59.2 109.95,84.19 174.91,104.03 v 0" /><path
         id="path78"
         style="fill:#25602d;fill-opacity:1;fill-rule:nonzero;stroke:none"
         d="m 396.008,3778.13 c 44.195,23.12 100.89,3.13 134.629,-29.67 33.265,-35.14 8.75,-84.96 2.191,-125.89 -63.262,18.44 -126.043,38.43 -189.609,55.77 9.996,36.38 18.746,78.09 52.789,99.79 v 0" /><path
         id="path80"
         style="fill:#ffffff;fill-opacity:1;fill-rule:nonzero;stroke:none"
         d="m 936.711,3768.92 c 677.209,-0.78 1354.419,0 2031.469,-0.47 0.31,-144.31 0.15,-288.78 0.15,-433.1 -715.16,0 -1430.47,-0.46 -2145.631,0.33 22.953,147.74 60.446,293.45 114.012,433.24 v 0" /><path
         id="path82"
         style="fill:#af9740;fill-opacity:1;fill-rule:nonzero;stroke:none"
         d="m 5722.77,3727.69 c 44.83,45.6 114.94,-27.96 68.87,-69.35 -43.56,-42.32 -111.03,24.68 -68.87,69.35 v 0" /><path
         id="path84"
         style="fill:#af9740;fill-opacity:1;fill-rule:nonzero;stroke:none"
         d="m 5727.93,3515.28 c 10.92,-79.65 19.52,-159.62 20.61,-240.05 -12.02,21.4 -22.33,43.89 -31.69,66.38 -92.93,-43.74 -184.77,-91.22 -271.62,-146.35 85.43,-27.95 168.68,-63.72 255.99,-85.27 41.07,-11.09 41.86,42.32 57.63,67.15 7.96,-54.19 11.09,-108.85 14.99,-163.36 -26.39,25.61 -52,54.66 -88.4,65.75 -137.12,49.5 -275.5,95.43 -412.48,145.4 131.52,92.15 283.94,151.19 419.21,237.87 16.24,14.06 23.88,34.99 35.76,52.48 v 0" /><path
         id="path86"
         style="fill:#af9740;fill-opacity:1;fill-rule:nonzero;stroke:none"
         d="m 521.578,3258.2 c 65.285,28.43 140.41,47.33 182.891,109.33 -1.246,-78.71 -3.746,-157.59 -6.563,-236.3 -9.058,20.93 -17.804,41.86 -26.707,62.78 -32.953,-9.99 -67,-18.12 -96.672,-36.08 -15.461,-50.59 -4.996,-105.73 -8.277,-158.21 25.141,-11.4 49.664,-25.14 76.84,-30.92 37.48,-4.06 31.551,42.79 44.824,65.44 15.148,-53.25 6.715,-109.17 7.188,-163.68 -19.528,20.77 -37.489,43.25 -60.754,59.97 -134.325,73.26 -280.825,123.54 -411.86,202.57 99.801,41.7 199.446,83.4 299.09,125.1 v 0" /><path
         id="path88"
         style="fill:#a81c23;fill-opacity:1;fill-rule:nonzero;stroke:none"
         d="m 815.828,3273.98 c 716.712,-2.03 1433.442,-2.19 2150.322,0 4.84,-144.63 1.1,-289.56 2.03,-434.35 -722.04,0 -1444.22,-1.56 -2166.41,0.79 -7.497,144.46 -8.278,290.18 14.058,433.56 v 0" /><path
         id="path90"
         style="fill:#25602d;fill-opacity:1;fill-rule:nonzero;stroke:none"
         d="m 389.922,3083.75 c 49.656,20.3 99.324,40.76 150.238,57.47 -0.148,-42.17 -0.312,-84.33 -0.465,-126.51 -51.535,19.69 -101.05,43.42 -149.773,69.04 v 0" /><path
         id="path92"
         style="fill:#af9740;fill-opacity:1;fill-rule:nonzero;stroke:none"
         d="m 5283.27,2630.03 c 14.37,135.73 10.16,274.11 36.09,407.96 9.06,-26.24 4.68,-75.6 44.65,-74.97 112.31,-11.09 225.38,-16.72 337.99,-24.83 44.04,-11.87 51.39,40.6 69.82,67.94 -2.66,-132.29 -18.13,-263.95 -24.21,-396.25 -48.73,5.16 -100.59,-1.24 -146.05,19.99 35.62,14.22 82.17,17.03 103.57,53.75 25.46,41.22 21.55,91.51 24.51,137.74 -61.85,4.7 -123.85,9.53 -186.02,9.68 -2.03,-69.18 67.01,-87.78 117.61,-111.51 -87.93,2.96 -178.66,-0.78 -263.95,22.65 47.65,12.79 124.79,20.93 120.58,87.93 -58.89,13.11 -126.35,24.83 -184.61,6.56 -17.34,-55.29 -16.87,-121.99 19.68,-169.62 26.25,-25.31 57.94,-43.58 85.9,-66.83 -52.47,6.85 -104.03,18.27 -155.56,29.81 v 0" /><path
         id="path94"
         style="fill:#af9740;fill-opacity:1;fill-rule:nonzero;stroke:none"
         d="m 221.086,2910.23 c 65.125,-71.68 163.992,-89.5 247.391,-131.65 58.101,-32.34 125.109,-10.64 186.168,0.45 40.609,4.07 24.527,58.89 35.925,84.19 24.368,-89.8 32.328,-183.51 41.387,-275.97 -14.992,24.68 -21.551,56.22 -44.668,74.65 -44.199,0.16 -88.871,-4.69 -131.508,-16.88 -32.48,-16.85 -59.812,-41.84 -89.179,-63.4 -62.317,-50.13 -138.692,-88.71 -175.86,-163.52 -5.156,75.74 -33.109,151.8 -22.18,227.4 7.184,-11.24 21.555,-33.74 28.899,-45.14 68.09,38.42 126.66,90.89 190.387,136.04 -73.41,30.29 -144.004,71.53 -223.5,83.09 -4.067,-20.77 -5.778,-43.42 -19.524,-60.76 -10.308,50.13 -16.09,100.89 -23.738,151.5 v 0" /><path
         id="path96"
         style="fill:#ffffff;fill-opacity:1;fill-rule:nonzero;stroke:none"
         d="m 808.801,2777.33 c 719.529,-1.11 1439.069,-0.64 2158.599,-0.33 0.47,-20.6 1.09,-41.38 1.71,-62.32 20.47,0.17 41.08,0.17 61.7,0 306.28,-3.43 599.58,-165.08 780.28,-410.13 16.1,-25.46 32.8,-50.76 48.73,-76.69 136.66,-226.3 174.31,-507.59 109.18,-763.1 -62.95,-248.96 -227.25,-468.24 -444.97,-603.639 -76.36,-45.609 -158.36,-80.129 -243.33,-105.898 -180.54,-54.825 -376.09,-52.004 -557.57,-3.442 -90.9,27.66 -178.05,66.848 -258.79,116.84 -161.65,102.77 -293.31,251.759 -373.28,425.889 -9.53,20.47 -18.75,40.93 -27.96,61.38 -176.48,-0.3 -353.12,-0.61 -529.61,0 -141.82,128.24 -267.39,273.95 -373.43,432.95 279.56,-0.78 559.28,2.19 838.85,-1.57 2.81,20.14 5.62,40.14 8.44,60.14 20.45,153.21 75.59,301.9 163.2,429.35 15.47,22.64 31.55,44.66 47.64,66.68 -440.9,0.48 -881.81,-0.93 -1322.71,0.62 -41.078,141.67 -73.566,286.14 -86.679,433.27 v 0" /><path
         id="path98"
         style="fill:#af9740;fill-opacity:1;fill-rule:nonzero;stroke:none"
         d="m 2852.29,2674.86 c 203.34,30.61 416.69,-3.13 598.66,-99.95 260.03,-134.63 451.51,-393.43 502.89,-681.9 30.15,-177.1 17.04,-363.59 -49.96,-531.34 -95.44,-247.39 -297.7,-451.361 -544.78,-548.19 -212.71,-84.808 -455.89,-90.73 -672.67,-16.871 -218.82,72.793 -408.11,228.341 -524.31,427.151 -149.31,249.74 -172.58,568.2 -69.19,839.33 119.63,320.17 420.6,563.51 759.36,611.77 v 0" /><path
         id="path100"
         style="fill:#ffffff;fill-opacity:1;fill-rule:nonzero;stroke:none"
         d="m 2246.93,2283.15 c 99.33,148.54 255.99,257.87 423.26,318.78 109.01,-53.73 219.9,-103.56 329.23,-156.5 105.73,47.48 209.59,99.02 315.17,146.81 21.71,14.99 44.98,-0.3 65.91,-8.12 147.91,-67.32 280.5,-170.24 377.33,-301.28 -8.28,-114.48 -15.29,-229.12 -20.29,-343.75 71.52,-74.19 142.43,-149 212.09,-224.91 -3.75,-176.48 -52.48,-352.51 -146.65,-502.44 -104.96,-30.61 -210.69,-58.26 -315.81,-87.93 -76.37,-106.67 -152.43,-213.341 -227.25,-321.111 -169.29,-47.32 -352.49,-48.719 -520.86,3.121 -80.59,96.211 -132.76,215.07 -212.72,311.9 -108.55,35.46 -220.22,60.91 -329.54,93.87 -93.25,151.19 -143.54,326.89 -146.5,504.47 72.15,74.97 143.05,151.33 215.06,226.62 -5,113.55 -15.31,226.93 -18.43,340.47 v 0" /><path
         id="path102"
         style="fill:#af9740;fill-opacity:1;fill-rule:nonzero;stroke:none"
         d="m 5272.8,2552.56 c 2.03,-24.05 2.83,-48.11 3.76,-72.3 54.96,-28.89 116.2,-40.93 175.23,-58.73 73.26,-20 145.09,-44.98 219.91,-58.57 2.66,29.69 7.66,59.35 5.47,89.03 -19.52,31.71 -50.45,53.57 -75.61,80.28 45.31,-9.37 89.81,-21.86 134.18,-35.15 -37.64,-133.85 -76.53,-267.38 -114.33,-401.22 -43.27,12.17 -86.67,23.73 -129.32,37.95 30.14,23.73 74.96,8.58 103.54,34.81 24.53,20.33 27.81,54.05 37.17,82.33 -111.5,30.76 -222.56,63.09 -333.75,95.26 -19.22,2.82 -41.54,15.16 -59.51,3.27 -14.84,-17.49 -26.39,-37.47 -39.2,-56.36 15.77,88.39 42.18,174.93 72.46,259.4 v 0" /><path
         id="path104"
         style="fill:#af9740;fill-opacity:1;fill-rule:nonzero;stroke:none"
         d="m 2331.89,2264.42 c 92.31,105.1 203.19,199.14 337.05,245.37 94.96,-47.34 192.1,-90.13 287.68,-136.36 0.46,-56.85 0.46,-113.86 -1.09,-170.7 -141.81,-100.44 -281.91,-202.89 -423.1,-304.25 -60.29,20.61 -123.23,34.98 -181.01,62.47 -10.78,100.74 -11.09,202.41 -19.53,303.47 v 0" /><path
         id="path106"
         style="fill:#af9740;fill-opacity:1;fill-rule:nonzero;stroke:none"
         d="m 3042.37,2372.18 c 99.94,45.6 198.03,95.11 299.25,137.91 127.28,-54.97 240.83,-139.47 328.91,-246.61 -7.66,-101.99 -11.09,-204.14 -18.9,-305.97 -60.44,-20.45 -121.19,-40.45 -182.25,-58.87 -141.98,101.67 -284.26,202.72 -426.7,303.61 -0.31,56.7 -0.31,113.39 -0.31,169.93 v 0" /><path
         id="path108"
         style="fill:#af9740;fill-opacity:1;fill-rule:nonzero;stroke:none"
         d="m 545.004,2486.51 c 16.09,-16.1 31.551,-32.96 49.668,-46.86 44.039,5.31 85.586,21.55 127.598,34.82 81.222,-98.54 142.441,-238.8 89.804,-364.53 -43.262,-112.75 -183.512,-168.04 -294.715,-128.22 -75.125,23.13 -135.097,84.81 -159.3,159.16 -22.18,53.57 -15.305,112.29 -17.028,168.67 -14.683,12.19 -30.929,21.88 -48.886,29.06 55.753,23.26 113.707,40.44 172.585,53.25 -32.484,-45.44 -83.093,-82.63 -90.589,-141.65 -17.024,-79.35 44.199,-166.97 128.382,-166.34 92.301,-0.63 191.793,26.55 259.27,92.45 51.066,52.64 30.762,134.16 -9.219,186.8 -37.336,-11.57 -75.441,-20.45 -111.359,-36.08 -30.77,-10.78 -12.188,-53.41 -20.613,-76.21 -34.989,74.96 -53.887,156.02 -75.598,235.68 v 0" /><path
         id="path110"
         style="fill:#a81c23;fill-opacity:1;fill-rule:nonzero;stroke:none"
         d="m 917.5,2280.5 c 381.87,1.25 763.58,-0.31 1145.44,0.77 35.93,-0.15 71.85,-2.02 107.61,-4.51 -87.61,-127.45 -142.75,-276.14 -163.2,-429.35 -278.48,-0.15 -556.95,0.45 -835.43,-0.47 -23.11,2.03 -54.2,-2.66 -63.87,24.53 -77.63,129.3 -140.726,266.91 -190.55,409.03 v 0" /><path
         id="path112"
         style="fill:#25602d;fill-opacity:1;fill-rule:nonzero;stroke:none"
         d="m 3859.82,2227.86 c 188.98,58.11 414.82,37.49 569.13,-94.17 87.14,-74.35 121.67,-188.67 134,-298.78 19.53,0.32 38.9,0.63 58.42,0.79 -2.96,70.58 -19.52,139.31 -41.08,206.16 114.64,-34.37 225.22,-89.81 307.06,-178.99 C 4586.55,1368.23 4088.79,994.641 3524.03,861.121 3741.75,996.52 3906.05,1215.8 3969,1464.76 c 65.13,255.51 27.48,536.8 -109.18,763.1 v 0" /><path
         id="path114"
         style="fill:#af9740;fill-opacity:1;fill-rule:nonzero;stroke:none"
         d="m 5147.56,2198.2 c 57.94,-26.71 122.74,-42.8 172.58,-84.35 -71.23,8.28 -158.37,4.53 -200.54,-63.4 -34.52,-43.1 -13.12,-126.98 50.61,-120.89 89.17,23.9 139.77,122.14 234.58,135.1 85.74,14.82 164.14,-74.03 144.46,-157.6 -6.71,-57.95 -53.25,-96.82 -91.53,-135.71 7.04,-10.62 21.1,-31.56 28.13,-42.18 -54.36,21.09 -112.15,36.54 -159.16,72.47 67.16,-5.77 153.06,5.15 182.11,76.38 22.8,38.9 -8.28,103.7 -57.94,89.66 -86.22,-30.31 -138.38,-125.12 -233.03,-138.09 -79.33,-11.39 -150.71,60.62 -149.31,138.54 -4.36,70.9 43.57,127.29 91.37,173.05 -3.12,14.22 -9.21,42.8 -12.33,57.02 v 0" /><path
         id="path116"
         style="fill:#af9740;fill-opacity:1;fill-rule:nonzero;stroke:none"
         d="m 845.652,2150.39 c 42.328,-68.55 83.25,-138.99 111.368,-214.9 -16.407,15.47 -32.336,31.71 -49.672,46.07 -30.61,-18.89 -49.821,-50.9 -73.559,-77.15 23.891,-48.41 49.508,-96.05 74.816,-143.84 31.86,4.84 66.84,2.82 94.645,21.39 1.4,24.68 0.62,49.2 -2.5,73.56 29.67,-38.42 50.13,-82.77 71.68,-126.03 43.26,-84.04 126.2,-139.78 166.65,-225.38 -24.98,12.49 -51.23,53.26 -80.59,27.48 -88.71,-71.51 -177.428,-143.83 -260.974,-221.45 141.654,37.64 279.564,87.93 420.904,126.35 -57.32,-135.26 -136.5,-260.21 -192.89,-395.92 84.97,67.78 168.06,137.91 250.21,208.82 35.61,25.76 6.56,67.15 -0.15,99.64 44.03,-40.92 82.77,-87.15 115.42,-137.6 -22.65,9.85 -44.36,22.64 -68.73,27.64 -41.07,-20.77 -73.25,-54.51 -108.7,-83.24 -64.97,-56.7 -134.79,-108.07 -195.86,-169.451 9.37,-22.969 18.6,-45.93 27.03,-69.359 -48.27,43.73 -90.28,94.5 -127.92,147.44 30.77,102.61 97.61,193.36 139.79,292.53 -100.9,-31.71 -202.577,-61.07 -301.749,-97.77 -47.012,47.48 -92.152,97.62 -126.82,154.93 22.027,-9.83 41.387,-28.26 66.222,-31.08 74.657,53.11 141.036,116.99 212.567,174.3 30.45,26.71 66.69,48.89 88.71,83.87 -7.19,46.39 -40.61,99.49 -94.18,93.24 -153.366,-2.65 -306.116,-19.83 -459.335,-27.17 62.949,92.47 136.82,176.65 204.758,265.35 39.828,54.99 99.648,103.87 98.859,177.73 v 0" /><path
         id="path118"
         style="fill:#af9740;fill-opacity:1;fill-rule:nonzero;stroke:none"
         d="m 2591.31,1838.35 c 137.44,97.14 273.01,196.93 410.14,294.55 135.88,-98.22 272.07,-196 408.1,-294.25 -53.89,-158.36 -102.62,-318.6 -158.68,-476.19 -167.9,1.71 -335.8,1.24 -503.69,0.16 -52.48,158.36 -109.48,315.49 -155.87,475.73 v 0" /><path
         id="path120"
         style="fill:#af9740;fill-opacity:1;fill-rule:nonzero;stroke:none"
         d="m 5026.97,1908.63 c -2.65,-24.83 -6.86,-49.51 -6.86,-74.51 51.53,-44.35 114.16,-72.76 171.17,-109.48 55.92,-31.08 107.61,-70.59 166.81,-95.73 24.04,9.21 41.86,29.51 63.24,43.1 -61.37,-117.59 -134.78,-228.65 -202.09,-342.98 -42.79,24.38 -85.43,49.36 -123.55,80.59 34.85,-1.25 70.29,-10.46 104.95,-3.57 49.36,22.48 73.74,74.48 98.25,119.62 -54.19,30.92 -105.88,66.22 -162.59,92.62 -3.28,-21.87 -9.52,-43.89 -7.65,-66.37 18.13,-30.32 43.26,-56.07 62.79,-85.76 -79.19,40.45 -159.62,82.47 -227.72,140.1 54.36,-12.34 117.14,-31.86 157.43,20.47 -52.31,38.42 -106.98,74.64 -167.89,98.07 -25.46,-40.61 -58.42,-80.9 -60.75,-130.88 -6.26,-49.98 29.51,-89.81 50.28,-131.66 -47.32,25.15 -87.45,61.07 -127.75,95.9 71.21,116.35 139.16,234.89 211.93,350.47 v 0" /><path
         id="path122"
         style="fill:#af9740;fill-opacity:1;fill-rule:nonzero;stroke:none"
         d="m 2317.99,1876.77 c 63.41,-17.65 125.26,-39.52 188.36,-58.26 55.76,-165.25 114.94,-329.54 162.74,-497.43 -44.36,-36.4 -86.21,-75.92 -128.54,-114.64 -96.83,25.3 -193.5,51.53 -290.5,76.06 -59.66,104.8 -98.71,221.61 -109.33,342.03 0.16,23.27 -10.15,51.54 9.22,70.29 53.73,62.63 114.48,119 168.05,181.95 v 0" /><path
         id="path124"
         style="fill:#af9740;fill-opacity:1;fill-rule:nonzero;stroke:none"
         d="m 3496.07,1815.7 c 59.67,25.45 123.23,40.6 184.93,60.75 57.31,-69.66 132.59,-126.98 180.86,-202.42 -5.46,-135.71 -38.9,-277.21 -115.89,-390.28 -94.34,-29.83 -191.48,-50.13 -286.76,-77.16 -43.72,39.05 -87.15,78.25 -129.93,118.24 46.23,146.02 97.92,290.02 142.74,436.53 7.34,18.1 9.99,39.97 24.05,54.34 v 0" /><path
         id="path126"
         style="fill:#25602d;fill-opacity:1;fill-rule:nonzero;stroke:none"
         d="m 713.84,1749.47 c 31.859,42.95 65.285,84.98 99.488,126.05 21.238,-38.12 41.699,-76.84 60.758,-116.21 -53.422,-3.43 -106.836,-6.86 -160.246,-9.84 v 0" /><path
         id="path128"
         style="fill:#af9740;fill-opacity:1;fill-rule:nonzero;stroke:none"
         d="m 5291.7,1343.57 c 2.51,50.91 26.71,98.07 51.39,141.49 9.38,-46.07 23.9,-93.08 18.89,-140.41 -5.3,-32.01 -68.71,-37.95 -70.28,-1.08 v 0" /><path
         id="path130"
         style="fill:#af9740;fill-opacity:1;fill-rule:nonzero;stroke:none"
         d="m 4626.99,1386.67 c 88.71,71.84 231.46,76.53 314.4,-7.19 99.79,-87.47 102.3,-254.73 12.81,-350.32 -38.12,-49.031 -98.09,-69.488 -149.94,-99.648 -1.55,-14.043 -4.84,-41.84 -6.41,-55.903 -43.1,41.071 -86.2,82.61 -120.24,131.501 48.71,-11.868 98.69,-33.579 149.77,-21.548 64.18,13.899 124.62,71.848 117.44,141.658 -6.08,65.12 -50.13,119.01 -93.86,164.15 -41.7,37.96 -89.33,78.86 -148.22,82.15 -59.82,0.46 -100.74,-48.57 -134.01,-91.84 31.24,-33.9 56.7,-77.31 99.97,-96.83 20.62,6.71 41.08,13.74 61.52,21.56 -52.31,-62.02 -112.44,-117.61 -174.91,-169.14 5.31,14.99 16.24,44.97 21.7,59.81 -27.18,37.32 -68.25,66.05 -88.7,106.83 28.26,72.31 78.55,135.87 138.68,184.76 v 0" /><path
         id="path132"
         style="fill:#a81c23;fill-opacity:1;fill-rule:nonzero;stroke:none"
         d="m 1608.92,1292.8 c 160.71,1.71 321.43,-1.25 482.14,1.71 79.97,-174.13 211.63,-323.119 373.28,-425.889 -88.41,12.488 -172.27,44.188 -255.37,75.43 -216.93,83.079 -420.28,201.629 -600.05,348.749 v 0" /><path
         id="path134"
         style="fill:#af9740;fill-opacity:1;fill-rule:nonzero;stroke:none"
         d="m 2608.18,1154.1 c 47.79,41.1 89.02,90.76 142.12,125.27 166.65,5.15 333.77,0.48 500.57,2.03 47.63,-46.7 97.93,-90.73 143.21,-139.79 -65.9,-87.3 -124.47,-180.86 -195.85,-263.469 -133.05,-39.36 -278.31,-34.2 -412.63,-2.34 -58.1,93.539 -119.32,184.909 -177.42,278.299 v 0" /><path
         id="path136"
         style="fill:#af9740;fill-opacity:1;fill-rule:nonzero;stroke:none"
         d="m 1616.26,867.039 c 75.6,37.34 171.33,-32.629 156.5,-116.027 -7.66,-84.973 -122.45,-127.133 -183.67,-68.571 -60.13,48.891 -44.67,155.25 27.17,184.598 v 0" /><path
         id="path138"
         style="fill:#af9740;fill-opacity:1;fill-rule:nonzero;stroke:none"
         d="m 4189.99,809.25 c 73.26,42.801 175.4,-21.539 164.16,-106.66 -2.67,-82.309 -107.29,-130.891 -173.37,-82.778 -66.85,42.79 -61.38,153.52 9.21,189.438 v 0" /><path
         id="path140"
         style="fill:#af9740;fill-opacity:1;fill-rule:nonzero;stroke:none"
         d="m 2182.27,741.32 c 58.73,-3.75 117.61,-1.09 175.86,6.41 C 2324.55,596.852 2281.6,448 2248.18,297.141 c -10.78,-31.231 21.09,-50.922 36.23,-73.411 -75.59,20.301 -153.68,32.489 -226.47,62.481 22.18,2.648 44.05,5.93 66.07,9.68 19.37,33.57 23.9,72.941 33.74,109.789 19.68,89.652 45.29,177.73 62.94,267.711 11.09,30.609 -23.43,47.629 -38.42,67.929 v 0" /><path
         id="path142"
         style="fill:#af9740;fill-opacity:1;fill-rule:nonzero;stroke:none"
         d="m 3460.78,649.789 c 47.64,36.391 104.95,57.023 156.34,87.481 27.18,-136.821 58.42,-272.848 86.05,-409.68 6.1,-22.801 7.96,-48.41 22.65,-67.93 19.68,-7.34 40.15,-12.969 61.07,-16.719 -74.81,-25.3 -153.37,-36.402 -230.37,-52.312 19.2,22.32 59.67,38.883 45.29,74.492 -27.96,125.258 -51.39,251.91 -86.84,375.461 -13.58,2.199 -40.59,6.867 -54.19,9.207 v 0" /><path
         id="path144"
         style="fill:#af9740;fill-opacity:1;fill-rule:nonzero;stroke:none"
         d="m 2516.81,640.281 c 91.21,83.699 262.85,56.539 311.28,-62.011 51.07,-120.579 34.2,-281.75 -68.89,-370.481 -85.58,-71.207 -211,-61.84 -307.21,-17.937 8.13,56.539 16.41,113.058 32.03,168.039 28.26,-40.77 28.26,-99.641 72.62,-128.692 30.92,-23.91 77.31,-30.457 110.26,-6.558 45.45,29.359 58.57,84.968 71.85,133.679 -74.19,-36.851 -173.06,-35.601 -235.53,23.43 -72,68.879 -58.25,196.652 13.59,260.531 v 0" /><path
         id="path146"
         style="fill:#af9740;fill-opacity:1;fill-rule:nonzero;stroke:none"
         d="m 3114.83,649.16 c 64.05,19.531 135.56,-9.668 176.81,-60.269 48.41,-59.672 67.63,-138.86 63.87,-214.602 -1.55,-71.68 -22.65,-150.25 -81.99,-195.848 -67.16,-54.671 -176.49,-46.39 -232.4,20.469 -68.41,74.492 -79.5,183.969 -63.41,279.711 14.68,73.731 62.15,148.059 137.12,170.539 v 0" /><path
         id="path148"
         style="fill:#25602d;fill-opacity:1;fill-rule:nonzero;stroke:none"
         d="m 2628.17,639.332 c 51.69,27.027 95.12,-30.762 99.8,-77.301 7.34,-61.84 5.78,-139.011 -45.61,-182.429 -44.35,-33.27 -91.99,16.398 -100.73,59.347 -15.15,66.371 -10.94,155.25 46.54,200.383 v 0" /><path
         id="path150"
         style="fill:#25602d;fill-opacity:1;fill-rule:nonzero;stroke:none"
         d="m 3129.67,590.289 c 31.72,32.492 68.56,-7.18 76.37,-39.668 22.65,-82.152 25.62,-169.301 21.72,-254.269 -4.38,-37.95 -10.16,-91.832 -55.29,-101.672 -60.59,20.472 -61.54,98.402 -70.6,151.652 -2.03,80.129 -22.18,174.93 27.8,243.957 v 0" /></g></g></svg>