<?xml version="1.0" encoding="UTF-8" standalone="no"?>
<svg
   xmlns:dc="http://purl.org/dc/elements/1.1/"
   xmlns:cc="http://creativecommons.org/ns#"
   xmlns:rdf="http://www.w3.org/1999/02/22-rdf-syntax-ns#"
   xmlns:svg="http://www.w3.org/2000/svg"
   xmlns="http://www.w3.org/2000/svg"
   xmlns:sodipodi="http://sodipodi.sourceforge.net/DTD/sodipodi-0.dtd"
   xmlns:inkscape="http://www.inkscape.org/namespaces/inkscape"
   viewBox="0 0 420.04158 425.75763"
   height="425.75763"
   width="420.0416"
   xml:space="preserve"
   id="svg2"
   version="1.1"
   inkscape:version="0.48.5 r10040"
   sodipodi:docname="football-association-of-ireland--2008--vector-logo.svg"><sodipodi:namedview
     pagecolor="#ffffff"
     bordercolor="#666666"
     borderopacity="1"
     objecttolerance="10"
     gridtolerance="10"
     guidetolerance="10"
     inkscape:pageopacity="0"
     inkscape:pageshadow="2"
     inkscape:window-width="640"
     inkscape:window-height="480"
     id="namedview76"
     showgrid="false"
     fit-margin-top="0"
     fit-margin-left="0"
     fit-margin-right="0"
     fit-margin-bottom="0"
     inkscape:zoom="0.295"
     inkscape:cx="210.02109"
     inkscape:cy="212.87934"
     inkscape:window-x="0"
     inkscape:window-y="0"
     inkscape:window-maximized="0"
     inkscape:current-layer="svg2" /><metadata
     id="metadata8"><rdf:RDF><cc:Work
         rdf:about=""><dc:format>image/svg+xml</dc:format><dc:type
           rdf:resource="http://purl.org/dc/dcmitype/StillImage" /></cc:Work></rdf:RDF></metadata><defs
     id="defs6"><clipPath
       id="clipPath18"
       clipPathUnits="userSpaceOnUse"><path
         id="path16"
         d="M 0,600 H 800 V 0 H 0 z"
         inkscape:connector-curvature="0" /></clipPath></defs><g
     transform="matrix(1.3333333,0,0,-1.3333333,-323.31228,612.87829)"
     id="g10"><g
       id="g12"><g
         clip-path="url(#clipPath18)"
         id="g14"><g
           transform="translate(554.7324,329.4312)"
           id="g20"><path
             id="path22"
             style="fill:#ffffff;fill-opacity:1;fill-rule:nonzero;stroke:none"
             d="m 0,0 c -5.893,3.303 -12.967,6.391 -21.111,9.196 -0.317,-6.719 -0.961,-13.386 -1.883,-19.964 -1.301,-9.15 -3.178,-18.114 -5.582,-26.898 -2.138,-7.775 -4.689,-15.388 -7.641,-22.813 -3.189,-8.003 -6.798,-15.796 -10.864,-23.317 -24.245,-44.973 -63.618,-80.761 -110.875,-99.474 -45.877,19.975 -83.735,56.192 -106.708,101.103 -3.868,7.572 -7.329,15.416 -10.337,23.453 -2.766,7.448 -5.147,15.089 -7.109,22.87 -1.923,7.674 -3.433,15.496 -4.531,23.442 -0.904,6.571 -1.504,13.228 -1.793,19.958 -8.121,-3.071 -15.054,-6.419 -20.613,-9.994 -0.645,6.572 -1.013,13.223 -1.069,19.919 5.745,3.852 13.075,7.454 21.762,10.728 1.272,24.596 6.656,48.083 15.479,69.817 46.816,23.436 103.359,34.057 162.362,27.135 26.361,-4.807 51.267,-13.132 73.906,-24.466 8.941,-22.045 14.359,-45.905 15.519,-70.868 0.731,-0.254 1.443,-0.514 2.16,-0.773 C -11.443,26.348 -4.867,23.42 0.605,20.297 0.623,19.177 0.65,18.075 0.65,16.966 0.65,11.266 0.43,5.61 0,0"
             inkscape:connector-curvature="0" /></g><g
           transform="translate(557.4824,349.7285)"
           id="g24"><path
             id="path26"
             style="fill:#51a221;fill-opacity:1;fill-rule:nonzero;stroke:none"
             d="m 0,0 c -0.42,27.141 -5.848,53.065 -15.406,76.892 -28.475,14.025 -60.463,23.735 -94.836,27.87 l -0.889,0.102 c 1.463,-0.267 2.921,-0.549 4.375,-0.838 -1.867,0.26 -3.738,0.509 -5.619,0.736 l -0.888,0.102 c 26.361,-4.808 51.267,-13.132 73.906,-24.466 8.941,-22.045 14.359,-45.905 15.519,-70.868 0.731,-0.255 1.443,-0.514 2.16,-0.773 C -14.193,6.051 -7.617,3.123 -2.145,0 -2.127,-1.12 -2.1,-2.223 -2.1,-3.331 c 0,-5.701 -0.22,-11.356 -0.65,-16.966 -0.49,-6.521 -1.283,-12.968 -2.34,-19.348 -0.48,-2.957 -1.041,-5.881 -1.646,-8.799 -1.659,-7.992 -3.733,-15.852 -6.239,-23.527 -2.724,-8.342 -5.91,-16.468 -9.552,-24.358 -24.159,-52.268 -68.033,-93.579 -122.207,-112.679 0.355,-0.124 0.711,-0.256 1.068,-0.38 54.676,18.929 98.941,60.447 123.266,113.059 3.648,7.89 6.843,16.016 9.552,24.358 2.506,7.675 4.592,15.535 6.25,23.527 0.598,2.918 1.147,5.842 1.651,8.799 1.041,6.38 1.838,12.827 2.324,19.348 0.418,5.61 0.656,11.265 0.656,16.966 C 0.033,-2.223 0.01,-1.12 0,0"
             inkscape:connector-curvature="0" /></g><g
           transform="translate(533.6211,338.627)"
           id="g28"><path
             id="path30"
             style="fill:#003822;fill-opacity:1;fill-rule:nonzero;stroke:none"
             d="m 0,0 c -0.316,-6.719 -0.961,-13.386 -1.883,-19.964 -1.301,-9.15 -3.178,-18.114 -5.582,-26.897 -2.138,-7.776 -4.688,-15.389 -7.64,-22.814 -3.19,-8.003 -6.798,-15.796 -10.865,-23.317 -24.245,-44.973 -63.618,-80.761 -110.875,-99.474 4.874,-2.138 9.847,-4.078 14.897,-5.82 54.671,18.929 98.965,60.446 123.282,113.058 3.643,7.89 6.828,16.017 9.553,24.359 2.506,7.675 4.58,15.535 6.238,23.526 0.605,2.919 1.166,5.843 1.646,8.8 1.057,6.379 1.85,12.827 2.34,19.347 C 15.219,-5.893 8.145,-2.805 0,0"
             inkscape:connector-curvature="0" /></g><g
           transform="translate(244.6162,346.9121)"
           id="g32"><path
             id="path34"
             style="fill:#ff9e0f;fill-opacity:1;fill-rule:nonzero;stroke:none"
             d="m 0,0 c -0.012,0.724 -0.034,1.437 -0.034,2.155 0,28.362 5.48,55.44 15.433,80.228 28.482,14.032 60.469,23.736 94.843,27.87 29.4,3.531 58.188,2.687 85.486,-1.904 1.144,-0.121 2.288,-0.236 3.435,-0.37 -28.685,5.193 -59.066,6.284 -90.109,2.58 C 74.397,106.419 42.139,96.714 13.426,82.66 3.404,57.833 -2.132,30.732 -2.132,2.33 c 0,-0.724 0.017,-1.431 0.017,-2.155 0.068,-6.707 0.435,-13.363 1.086,-19.941 0.644,-6.407 1.566,-12.736 2.754,-18.99 0.266,-1.454 0.56,-2.925 0.876,-4.384 1.708,-8.155 3.88,-16.169 6.47,-23.984 2.828,-8.523 6.165,-16.825 9.959,-24.856 24.636,-52.115 69.008,-93.202 123.736,-112 0.192,0.065 0.381,0.137 0.572,0.204 -54.109,18.823 -97.992,59.804 -122.374,111.728 -3.766,8.031 -7.068,16.317 -9.874,24.828 -2.579,7.822 -4.728,15.813 -6.43,23.962 -0.3,1.465 -0.583,2.924 -0.866,4.383 5.486,3.206 12.086,6.215 19.682,8.992 -0.905,6.571 -1.505,13.228 -1.793,19.958 C 13.562,-12.996 6.628,-16.344 1.069,-19.918 0.424,-13.347 0.057,-6.696 0,0"
             inkscape:connector-curvature="0" /></g><g
           transform="translate(354.8579,457.1655)"
           id="g36"><path
             id="path38"
             style="fill:#003822;fill-opacity:1;fill-rule:nonzero;stroke:none"
             d="m 0,0 c -34.374,-4.134 -66.361,-13.839 -94.842,-27.871 -9.953,-24.787 -15.434,-51.865 -15.434,-80.228 0,-0.718 0.023,-1.43 0.034,-2.154 5.746,3.851 13.075,7.454 21.762,10.728 1.273,24.595 6.657,48.083 15.479,69.817 C -26.185,-6.272 30.358,4.349 89.362,-2.573 60.921,2.607 30.794,3.699 0,0"
             inkscape:connector-curvature="0" /></g><g
           transform="translate(290.0688,247.2637)"
           id="g40"><path
             id="path42"
             style="fill:#003822;fill-opacity:1;fill-rule:nonzero;stroke:none"
             d="m 0,0 c -3.868,7.572 -7.329,15.416 -10.338,23.453 -2.766,7.448 -5.147,15.089 -7.109,22.87 -1.923,7.675 -3.433,15.496 -4.53,23.442 -7.595,-2.777 -14.195,-5.786 -19.681,-8.992 0.283,-1.459 0.566,-2.918 0.865,-4.383 1.703,-8.149 3.852,-16.14 6.43,-23.961 2.806,-8.512 6.109,-16.797 9.875,-24.828 24.432,-52.031 68.443,-93.079 122.707,-111.849 2.85,0.978 5.683,2.036 8.489,3.145 C 60.83,-81.128 22.973,-44.91 0,0"
             inkscape:connector-curvature="0" /></g><g
           transform="translate(325.3252,418.6572)"
           id="g44"><path
             id="path46"
             style="fill:#003822;fill-opacity:1;fill-rule:nonzero;stroke:none"
             d="m 0,0 v -0.967 c 3.082,-0.277 2.997,-1.109 4.377,-3.665 l -16.661,-34.373 h 2.093 l 4.405,8.895 c 5.147,-3.868 8.314,-7.555 11.911,-7.555 2.138,0 3.908,0.65 9.015,7.686 l -0.521,0.825 c -2.941,-2.76 -4.394,-3.268 -6.475,-3.268 -2.415,0 -5.469,3.472 -11.147,8.172 l 8.426,17.684 15.225,-32.439 h 6.849 L 9.077,0 z"
             inkscape:connector-curvature="0" /></g><g
           transform="translate(401.3398,397.438)"
           id="g48"><path
             id="path50"
             style="fill:#51a221;fill-opacity:1;fill-rule:nonzero;stroke:none"
             d="m 0,0 h -14.229 c 1.477,5.028 4.785,6.758 7.788,6.758 4.671,0 6.848,-3.279 6.848,-5.197 C 0.407,1.086 0.295,0.667 0,0 m -5.423,8.02 c -9.451,0 -14.422,-6.934 -14.422,-13.574 0,-7.476 5.854,-12.979 13.421,-12.979 5.186,0 9.506,2.268 11.451,4.117 l -1.713,1.624 c -1.001,-1.381 -3.851,-4.129 -7.68,-4.129 -5.203,0 -10.394,5.378 -10.394,13.212 0,0.78 0.118,1.798 0.237,2.584 H 6.086 V 0 C 6.051,0.571 5.734,2.482 4.202,4.128 3.665,4.666 0.701,8.02 -5.423,8.02"
             inkscape:connector-curvature="0" /></g><g
           transform="translate(441.3301,384.877)"
           id="g52"><path
             id="path54"
             style="fill:#51a221;fill-opacity:1;fill-rule:nonzero;stroke:none"
             d="m 0,0 c -2.008,-2.205 -3.965,-3.767 -6.317,-3.767 -7.041,0 -10.814,7.477 -10.814,13.399 0,5.689 4.129,9.687 8.693,9.687 4.004,0 7.069,-2.748 8.438,-4.241 z m -6.379,20.581 c -13.166,0 -15.83,-10.113 -15.83,-13.336 0,-4.971 3.852,-12.86 13.771,-12.86 3.709,0 5.956,1.368 8.438,3.89 v -3.472 h 5.084 v 22.243 c -5.508,-0.3 -4.903,3.535 -11.463,3.535"
             inkscape:connector-curvature="0" /></g><g
           transform="translate(348.4331,419.3247)"
           id="g56"><path
             id="path58"
             style="fill:#003822;fill-opacity:1;fill-rule:nonzero;stroke:none"
             d="m 0,0 -0.005,-0.86 c 3.217,-0.741 6.837,-4.298 6.837,-8.754 v -29.862 h 5.44 V -3.767 C 6.38,-4.089 7.019,0 0,0"
             inkscape:connector-curvature="0" /></g><g
           transform="translate(466.5312,405.0952)"
           id="g60"><path
             id="path62"
             style="fill:#51a221;fill-opacity:1;fill-rule:nonzero;stroke:none"
             d="m 0,0 c -5.131,0 -7.144,-3.472 -7.912,-4.728 v 4.31 0.085 c -3.354,-1.097 -4.389,-3.049 -9.508,-2.839 v -0.815 c 4.022,-1.069 4.484,-3.105 4.484,-5.492 v -15.936 h 5.086 v 14.885 c 0,4.122 1.424,8.67 6.079,8.67 3.314,0 5.802,-2.15 5.802,-7.352 V -25.415 H 9.094 V -8.969 C 9.094,-3.529 5.209,0 0,0"
             inkscape:connector-curvature="0" /></g><g
           transform="translate(500.8711,382.6094)"
           id="g64"><path
             id="path66"
             style="fill:#51a221;fill-opacity:1;fill-rule:nonzero;stroke:none"
             d="m 0,0 c -1.945,-1.25 -3.711,-1.725 -5.543,-1.725 -5.266,0 -11.519,4.892 -11.519,13.387 0,6.996 5.327,9.925 8.753,9.925 3.53,0 6.425,-2.449 8.309,-4.36 z m -4.711,32.236 v -0.022 -0.82 C -3.185,31.15 0,30.681 0,26.903 v -5.91 c -0.939,0.481 -3.416,1.855 -7.138,1.855 -7.973,0 -14.999,-6.102 -14.999,-13.765 0,-6.391 5.266,-12.431 14.157,-12.431 4.626,0 6.921,1.623 7.98,2.211 v -1.792 h 5.096 v 37.982 0.078 C 1.629,34.006 0.576,32.016 -4.711,32.236"
             inkscape:connector-curvature="0" /></g><g
           transform="translate(405.8193,414.8003)"
           id="g68"><path
             id="path70"
             style="fill:#51a221;fill-opacity:1;fill-rule:nonzero;stroke:none"
             d="M 0,0 V -0.005 -0.843 C 1.413,-1.023 4.609,-1.51 4.609,-6.227 V -35.12 H 9.683 V 2.862 2.867 C 6.267,1.747 5.214,-0.22 0,0"
             inkscape:connector-curvature="0" /></g><g
           transform="translate(377.7402,405.0952)"
           id="g72"><path
             id="path74"
             style="fill:#51a221;fill-opacity:1;fill-rule:nonzero;stroke:none"
             d="m 0,0 c -3.297,0 -4.779,-1.742 -5.774,-3.472 v 3.054 h -0.018 c -3.02,-0.996 -3.958,-2.726 -8.573,-2.528 v -0.029 -0.837 c 4.032,-1.08 3.501,-3.54 3.501,-5.033 v -16.57 h 5.09 v 18.058 c 0,3.229 2.183,5.497 4.122,5.497 1.692,0 3.263,-1.561 3.694,-4.344 0.723,1.505 1.679,2.918 2.85,4.202 C 4.089,-1.035 2.765,0 0,0"
             inkscape:connector-curvature="0" /></g><g
           transform="translate(317.3281,398.3149)"
           id="g76"><path
             id="path78"
             style="fill:#003822;fill-opacity:1;fill-rule:nonzero;stroke:none"
             d="m 0,0 h -16.949 v 13.228 c 2.251,2.765 4.637,4.626 8.375,4.626 4.242,0 8.783,-4.258 10.571,-7.59 l 3.591,5.984 c -2.115,2.839 -5.537,5.056 -10.57,5.056 -5.673,0 -8.936,-2.902 -11.967,-6.069 v 5.107 l 0.028,0.204 c -4.621,-1.504 -6.017,-4.157 -13.07,-3.851 v -0.973 c 1.889,0 6.849,0 6.849,-7.244 v -27.141 h 6.193 v 16.796 l 16.949,0 z"
             inkscape:connector-curvature="0" /></g><g
           transform="translate(415.5654,190.4355)"
           id="g80"><path
             id="path82"
             style="fill:#51a221;fill-opacity:1;fill-rule:nonzero;stroke:none"
             d="M 0,0 C 4.446,6.133 8.298,11.367 11.729,15.836 11.141,15.784 10.583,15.807 10.021,15.813 9.251,14.598 8.452,13.348 7.608,12.045 6.958,10.635 6.187,9.279 5.277,7.995 4.748,7.251 4.171,6.556 3.576,5.883 2.364,4.049 1.113,2.163 -0.22,0.165 -0.716,0.567 -1.187,0.955 -1.67,1.346 -2.104,1.062 -2.56,0.804 -3.015,0.541 c 0.698,-0.465 1.392,-0.927 2.112,-1.413 -1.108,-1.647 -2.236,-3.341 -3.416,-5.105 1.238,1.727 2.433,3.384 3.596,4.978 C 3.829,-4.071 8.839,-7.56 14.413,-11.461 9.058,-7.258 4.272,-3.467 0,0"
             inkscape:connector-curvature="0" /></g><g
           transform="translate(423.8711,346.0371)"
           id="g84"><path
             id="path86"
             style="fill:#003822;fill-opacity:1;fill-rule:nonzero;stroke:none"
             d="m 0,0 c -0.202,1.688 -2.559,2.975 -6.357,3.769 1.088,-0.453 1.73,-1.013 1.808,-1.673 0.342,-2.817 -9.576,-6.372 -22.143,-7.951 -12.59,-1.563 -23.064,-0.545 -23.406,2.272 -0.213,1.724 3.406,3.72 9.116,5.369 -9.848,-2.402 -16.497,-5.871 -16.126,-8.909 0.482,-4.113 13.69,-5.848 29.458,-3.879 C -11.882,-9.026 0.504,-4.105 0,0"
             inkscape:connector-curvature="0" /></g><g
           transform="translate(460.1719,319.5405)"
           id="g88"><path
             id="path90"
             style="fill:#003822;fill-opacity:1;fill-rule:nonzero;stroke:none"
             d="m 0,0 c -9.81,14.248 -20.629,23.754 -24.189,21.232 -3.561,-2.5 1.491,-16.084 11.283,-30.334 9.795,-14.24 20.636,-23.74 24.192,-21.232 C 14.846,-27.821 9.801,-14.248 0,0"
             inkscape:connector-curvature="0" /></g><g
           transform="translate(365.4297,328.936)"
           id="g92"><path
             id="path94"
             style="fill:#003822;fill-opacity:1;fill-rule:nonzero;stroke:none"
             d="m 0,0 c -8.3,6.716 -23.201,0.04 -33.979,-14.877 10.603,12.583 24.057,17.372 30.514,10.696 6.627,-6.895 3.314,-23.402 -7.435,-36.875 -10.747,-13.475 -24.86,-18.8 -31.514,-11.904 -0.534,0.554 -0.995,1.177 -1.401,1.849 0.863,-3.093 2.383,-5.658 4.592,-7.447 8.606,-6.969 24.363,0.485 35.194,16.661 C 6.81,-25.73 8.606,-6.969 0,0"
             inkscape:connector-curvature="0" /></g><g
           transform="translate(459.2969,320.2627)"
           id="g96"><path
             id="path98"
             style="fill:#ffffff;fill-opacity:1;fill-rule:nonzero;stroke:none"
             d="m 0,0 c -7.986,11.837 -16.512,19.845 -19.043,17.886 -2.539,-1.97 1.888,-13.175 9.86,-25.01 C -1.203,-18.983 7.342,-26.991 9.865,-25.018 12.393,-23.039 7.986,-11.85 0,0"
             inkscape:connector-curvature="0" /></g><g
           transform="translate(484.7695,290.1582)"
           id="g100"><path
             id="path102"
             style="fill:#51a221;fill-opacity:1;fill-rule:nonzero;stroke:none"
             d="m 0,0 c -0.939,-1.304 -1.858,-2.565 -2.746,-3.813 -24.454,31.335 -24.758,32.621 -15.488,42.945 -10.884,-8.069 -12.112,-7.641 -36.473,22.097 1.744,0.198 3.561,0.403 5.504,0.61 -1.973,-0.169 -3.821,-0.346 -5.592,-0.508 -0.574,0.701 -1.143,1.394 -1.745,2.132 0.579,-0.738 1.11,-1.439 1.666,-2.142 -31.838,-2.911 -32.922,-2.248 -34.897,7.355 -0.465,-10.398 -1.477,-10.79 -38.838,-14.994 37.421,3.506 38.477,3.32 40.615,-6.815 0.389,9.854 1.343,10.732 33.203,14.351 23.705,-30.398 23.902,-31.747 14.725,-41.956 11.019,8.128 12.154,7.605 37.293,-23.105 -3.919,-5.415 -7.39,-10.17 -10.525,-14.346 0.21,-0.333 0.437,-0.645 0.616,-1.003 2.885,4.486 6.213,9.512 10.022,15.209 0.308,-0.369 0.599,-0.731 0.904,-1.099 -0.305,0.384 -0.588,0.746 -0.887,1.13 C -1.787,-2.662 -0.906,-1.357 0,0"
             inkscape:connector-curvature="0" /></g><g
           transform="translate(367.3364,341.2744)"
           id="g104"><path
             id="path106"
             style="fill:#51a221;fill-opacity:1;fill-rule:nonzero;stroke:none"
             d="m 0,0 c -25.185,-34.566 -26.386,-35.136 -46.128,-21.677 18.066,-15.848 17.915,-17.226 -5.978,-52.81 25.188,34.588 26.391,35.156 46.159,21.704 C -24.042,-36.94 -23.889,-35.57 0,0"
             inkscape:connector-curvature="0" /></g><g
           transform="translate(448.9023,294.6436)"
           id="g108"><path
             id="path110"
             style="fill:#51a221;fill-opacity:1;fill-rule:nonzero;stroke:none"
             d="m 0,0 c 0,0.876 -0.025,1.805 -0.083,2.762 -2.82,13.154 -14.25,22.99 -27.952,22.99 -10.108,0 -18.979,-5.377 -24.072,-13.473 4.722,5.5 11.611,8.991 19.336,8.991 14.22,0 25.74,-11.787 25.74,-26.33 0,-14.544 -11.52,-26.336 -25.74,-26.336 -0.233,0 -0.452,0.029 -0.694,0.036 -0.232,-0.007 -0.463,-0.036 -0.713,-0.036 -1.01,0 -3.627,0.082 -6.759,0.729 2.921,-0.875 5.997,-1.387 9.199,-1.387 C -14.027,-32.054 0,-17.678 0,0"
             inkscape:connector-curvature="0" /></g><g
           transform="translate(404.7959,252.7744)"
           id="g112"><path
             id="path114"
             style="fill:#51a221;fill-opacity:1;fill-rule:nonzero;stroke:none"
             d="m 0,0 c 5.576,-4.438 10.147,-9.572 13.581,-14.995 2.333,5.321 5.555,10.855 9.647,16.212 0.496,0.65 1.003,1.29 1.522,1.931 C 19.614,0.647 13.827,-0.746 7.704,-0.746 5.067,-0.746 2.487,-0.496 0,0"
             inkscape:connector-curvature="0" /></g><g
           transform="translate(343.1841,173.2051)"
           id="g116"><path
             id="path118"
             style="fill:#51a221;fill-opacity:1;fill-rule:nonzero;stroke:none"
             d="m 0,0 c 6.791,9.395 12.203,16.73 17.078,22.09 -1.139,0.843 -2.214,1.734 -3.233,2.664 C 10.759,18.027 6.065,10.071 0,0"
             inkscape:connector-curvature="0" /></g><g
           transform="translate(318.5933,261.6074)"
           id="g120"><path
             id="path122"
             style="fill:#51a221;fill-opacity:1;fill-rule:nonzero;stroke:none"
             d="m 0,0 c 8.406,-6.604 15.442,-12.185 21.226,-17.106 0.14,0.659 0.28,1.317 0.466,1.96 C 15.581,-10.98 8.48,-5.933 0,0"
             inkscape:connector-curvature="0" /></g><g
           transform="translate(473.6719,216.8076)"
           id="g124"><path
             id="path126"
             style="fill:#51a221;fill-opacity:1;fill-rule:nonzero;stroke:none"
             d="M 0,0 C -5.123,4.683 -9.078,8.416 -11.773,11.953 -12.662,10.883 -13.566,9.85 -14.494,8.885 -10.457,7.156 -5.863,4.073 0,0"
             inkscape:connector-curvature="0" /></g><g
           transform="translate(416.2578,316.2886)"
           id="g128"><path
             id="path130"
             style="fill:#ff9e0f;fill-opacity:1;fill-rule:nonzero;stroke:none"
             d="m 0,0 c -7.684,0 -14.541,-3.512 -19.246,-9.057 -3.953,-4.669 -6.372,-10.767 -6.372,-17.464 0,-0.17 0.019,-0.317 0.029,-0.479 1.033,12.344 11.452,22.036 24.189,22.036 13.412,0 24.293,-10.752 24.293,-24.036 0,-13.039 -10.496,-23.636 -23.577,-24.005 0.233,-0.007 0.455,-0.037 0.684,-0.037 14.154,0 25.652,11.505 25.695,26.432 C 25.738,-11.954 14.154,0 0,0"
             inkscape:connector-curvature="0" /></g><g
           transform="translate(468.5879,268.2773)"
           id="g132"><path
             id="path134"
             style="fill:#51a221;fill-opacity:1;fill-rule:nonzero;stroke:none"
             d="m 0,0 c -7.396,5.797 -22.513,-1.439 -33.756,-16.158 -11.237,-14.728 -14.344,-31.352 -6.948,-37.157 3.196,-2.498 7.84,-2.559 12.992,-0.64 -3.276,-0.517 -6.234,0 -8.485,1.752 -6.742,5.289 -4.593,19.551 4.806,31.869 9.393,12.302 22.514,18.04 29.227,12.714 1.809,-1.43 2.653,-3.967 2.805,-4.684 1.036,-3.686 0.744,-8.627 -1.121,-13.592 -0.932,-2.498 -2.171,-4.723 -3.569,-6.592 3.256,4.167 5.565,10.361 5.565,10.361 0,0 1.275,3.725 1.689,5.503 C 4.879,-9.286 3.954,-3.091 0,0"
             inkscape:connector-curvature="0" /></g><g
           transform="translate(393.9395,246.8975)"
           id="g136"><path
             id="path138"
             style="fill:#51a221;fill-opacity:1;fill-rule:nonzero;stroke:none"
             d="m 0,0 c -16.874,12.277 -38.047,11.688 -47.266,-1.323 -9.137,-12.898 -3.124,-33.128 13.398,-45.45 -4.595,4.175 -8.025,9.042 -10.064,14.078 1.835,-3.518 4.517,-6.709 7.988,-9.24 0.838,-0.613 1.705,-1.144 2.579,-1.637 10.25,-5.806 22.813,-4.029 30.022,4.373 -7.209,-6.578 -18.92,-6.989 -27.961,-0.419 -2.535,1.842 -4.627,4.071 -6.228,6.516 -4.9,7.437 -5.342,16.92 -0.34,23.971 5.285,7.462 15.057,9.934 23.997,6.881 0.177,-0.052 0.335,-0.11 0.503,-0.164 0.03,-0.007 0.055,-0.013 0.08,-0.021 4.589,-1.534 9.271,-4.306 13.634,-8.136 4.169,-3.368 7.484,-7.307 9.858,-11.483 5.21,-9.172 5.834,-19.393 0.605,-26.778 -0.358,-0.515 -0.778,-0.977 -1.18,-1.445 1.596,1.277 3.037,2.768 4.248,4.486 1.666,2.344 2.814,4.933 3.506,7.679 C 20.496,-25.644 13.842,-10.062 0,0"
             inkscape:connector-curvature="0" /></g><g
           transform="translate(362.5781,198.0293)"
           id="g140"><path
             id="path142"
             style="fill:#003822;fill-opacity:1;fill-rule:nonzero;stroke:none"
             d="M 0,0 C -0.867,0.68 -1.707,1.389 -2.507,2.095 -3.5,2.835 -4.451,3.605 -5.364,4.399 -3.715,2.909 -2.005,1.457 -0.146,0.104 -0.097,0.067 -0.053,0.036 0,0"
             inkscape:connector-curvature="0" /></g><g
           transform="translate(354.4795,204.9902)"
           id="g144"><path
             id="path146"
             style="fill:#003822;fill-opacity:1;fill-rule:nonzero;stroke:none"
             d="M 0,0 C 0.869,-0.878 1.782,-1.733 2.734,-2.562 1.804,-1.719 0.869,-0.878 0,0"
             inkscape:connector-curvature="0" /></g><g
           transform="translate(428.0234,253.9912)"
           id="g148"><path
             id="path150"
             style="fill:#003822;fill-opacity:1;fill-rule:nonzero;stroke:none"
             d="m 0,0 c -4.092,-5.356 -7.313,-10.891 -9.646,-16.212 -3.434,5.423 -8.005,10.557 -13.582,14.995 2.488,-0.496 5.068,-0.746 7.705,-0.746 6.123,0 11.91,1.394 17.045,3.895 C 1.004,1.29 0.496,0.65 0,0 m 41.139,20.664 c -5.277,4.124 -14.061,2.413 -23.256,-3.598 3.187,5.494 5.023,11.829 5.023,18.592 0,6.533 -1.703,12.677 -4.695,18.031 0,0 -0.016,0.016 -0.016,0.022 0,-0.006 0.016,-0.022 0.016,-0.022 -0.024,0.022 -0.024,0.053 -0.053,0.082 1.379,-3.127 2.288,-6.521 2.631,-10.095 0.071,-1.055 0.09,-2.065 0.09,-3.024 0,-17.677 -14.027,-32.053 -31.738,-32.053 -9.843,0 -18.654,4.433 -24.547,11.403 -2.305,2.743 -4.171,5.877 -5.459,9.289 -1.232,3.478 -1.907,7.224 -1.907,11.125 0,7.234 2.307,13.939 6.212,19.344 5.852,7.801 15.189,12.854 25.701,12.854 0.773,0 1.545,-0.043 2.309,-0.088 -1.13,0.206 -2.28,0.362 -3.435,0.464 0.356,0.022 0.712,0.03 1.073,0.03 -1.513,0.177 -3.052,0.287 -4.611,0.287 -6.016,0 -11.718,-1.364 -16.787,-3.783 -12.947,-6.031 -21.898,-18.91 -21.898,-33.821 0,-10.126 4.134,-19.316 10.846,-26.049 -16.398,5.168 -32.555,2.035 -40.64,-9.352 -9.438,-13.334 -4.752,-33.636 10.067,-48.89 -11.851,12.276 -15.343,28.981 -7.415,40.171 9.219,13.012 30.392,13.601 47.266,1.323 16.883,-12.282 23.104,-32.767 13.873,-45.791 -1.211,-1.718 -2.652,-3.209 -4.248,-4.486 -7.144,-8.229 -20.592,-9.439 -33.072,-3.499 19.391,-10.135 40.658,-8.351 50.35,5.309 1.697,2.394 2.943,5.02 3.744,7.818 6.669,-0.554 15.496,3.499 24.042,10.927 -2.669,-1.503 -5.3,-2.478 -7.752,-2.853 C 7.7,-41.588 3.057,-41.527 -0.14,-39.029 -7.535,-33.224 -4.429,-16.6 6.809,-1.872 18.052,12.847 33.168,20.083 40.564,14.286 44.519,11.195 45.443,5 43.77,-2.338 46.938,7.883 46.295,16.616 41.139,20.664"
             inkscape:connector-curvature="0" /></g></g></g></g></svg>