<?xml version="1.0" encoding="UTF-8" standalone="no"?>
<svg
   xmlns:dc="http://purl.org/dc/elements/1.1/"
   xmlns:cc="http://creativecommons.org/ns#"
   xmlns:rdf="http://www.w3.org/1999/02/22-rdf-syntax-ns#"
   xmlns:svg="http://www.w3.org/2000/svg"
   xmlns="http://www.w3.org/2000/svg"
   viewBox="0 0 807.44 734.69336"
   height="734.69336"
   width="807.44"
   xml:space="preserve"
   id="svg2"
   version="1.1"><metadata
     id="metadata8"><rdf:RDF><cc:Work
         rdf:about=""><dc:format>image/svg+xml</dc:format><dc:type
           rdf:resource="http://purl.org/dc/dcmitype/StillImage" /></cc:Work></rdf:RDF></metadata><defs
     id="defs6"><clipPath
       id="clipPath20"
       clipPathUnits="userSpaceOnUse"><path
         id="path18"
         d="M 0,0 H 6055.82 V 5510 H 0 Z" /></clipPath></defs><g
     transform="matrix(1.3333333,0,0,-1.3333333,0,734.69333)"
     id="g10"><g
       transform="scale(0.1)"
       id="g12"><g
         id="g14"><g
           clip-path="url(#clipPath20)"
           id="g16"><path
             id="path22"
             style="fill:#ffffff;fill-opacity:1;fill-rule:nonzero;stroke:none"
             d="M 5233.77,25 30.8203,25.7617 1103.72,5112.89 c 342.13,174.5 720.85,302.51 1102.61,349 267.46,32 1014.99,88.39 1085.86,-285.75 357.37,10.66 730.75,72.39 1090.43,120.4 126.48,43.43 262.13,67.05 403.09,67.05 685.79,0 1245.11,-559.31 1245.11,-1244.35 0,-96.02 -11.44,-190.5 -32.77,-283.47 L 5233.77,25" /><path
             id="path24"
             style="fill:none;stroke:#e6e6ea;stroke-width:50;stroke-linecap:butt;stroke-linejoin:miter;stroke-miterlimit:4;stroke-dasharray:none;stroke-opacity:1"
             d="M 5233.77,25 30.8203,25.7617 1103.72,5112.89 c 342.13,174.5 720.85,302.51 1102.61,349 267.46,32 1014.99,88.39 1085.86,-285.75 357.37,10.66 730.75,72.39 1090.43,120.4 126.48,43.43 262.13,67.05 403.09,67.05 685.79,0 1245.11,-559.31 1245.11,-1244.35 0,-96.02 -11.44,-190.5 -32.77,-283.47 z" /><path
             id="path26"
             style="fill:#e42a3c;fill-opacity:1;fill-rule:nonzero;stroke:none"
             d="m 2843.36,3569.08 c 6.86,30.48 27.44,96 35.06,152.39 3.81,24.38 6.85,38.87 4.57,51.06 1.52,27.43 -58.67,98.29 -115.06,118.11 -27.43,9.14 -192.03,44.96 -403.11,51.82 -493.01,16 -1034.03,-118.12 -1450.086,-378.72 l 140.216,587.5 c 513.59,288.8 1242.82,479.3 1828.8,315.47 88.4,-24.38 126.49,-67.05 137.93,-111.25 2.28,-21.33 -54.1,-174.5 -31.25,-172.97 82.3,5.33 191.27,-5.34 267.47,-0.77 98.28,3.05 191.25,17.53 288.03,23.62 -3.8,-66.29 -2.28,-134.87 4.58,-212.6 13.72,-152.39 46.48,-238.5 99.81,-376.42 0,0 -259.83,-35.06 -356.61,-44.2 -67.06,-6.09 -450.35,-3.04 -450.35,-3.04" /><path
             id="path28"
             style="fill:#2f62b6;fill-opacity:1;fill-rule:nonzero;stroke:none"
             d="m 3568.79,4376.03 c -99.82,-11.43 -195.07,-22.09 -287.27,-22.09 -97.55,0 -190.49,1.52 -259.84,1.52 7.62,35.05 19.8,120.39 27.43,172.98 5.33,25.14 -27.43,97.53 -152.41,127.25 -589.79,140.97 -1299.2,4.57 -1811.28,-312.42 l 143.26,673.61 c 0,0 461.78,239.26 994.42,304.04 392.43,47.24 708.66,-16.77 754.38,-27.43 246.89,-57.15 154.69,-262.13 193.55,-262.13 293.36,3.81 578.36,28.19 867.92,80.01 -237.75,-179.07 -408.43,-437.39 -470.16,-735.34" /><path
             id="path30"
             style="fill:#2f62b6;fill-opacity:1;fill-rule:nonzero;stroke:none"
             d="m 1848.19,3095.11 c 535.7,29.72 694.95,-13.72 738.38,-28.96 107.44,-36.58 124.97,-163.83 77.73,-195.83 -53.34,-35.82 -409.2,-59.44 -409.2,-59.44 0,0 -96.77,-21.33 0,-42.67 89.92,-19.81 140.97,-38.09 379.47,-38.09 238.52,0 779.53,9.9 1124.73,57.14 140.2,19.05 521.21,54.86 726.94,124.97 -315.47,64.77 -615.69,326.9 -752.09,545.59 -25.91,-3.05 -322.33,-38.1 -418.34,-46.48 -25.91,-2.29 -146.3,-8.39 -184.4,-9.14 -112.79,-5.33 -212.6,2.28 -304.81,3.04 -22.85,0.77 16.76,140.21 16.76,163.84 -11.43,37.33 -46.48,84.57 -102.86,113.53 -21.34,11.43 -128.02,48.77 -290.32,62.49 -523.5,41.91 -1117.1,-96.78 -1566.68,-354.33 L 740.238,2717.91 c 0,0 572.262,348.24 1107.952,377.2" /><path
             id="path32"
             style="fill:#2f62b6;fill-opacity:1;fill-rule:nonzero;stroke:none"
             d="m 5118.71,167.5 480.05,2430.78 H 4924.39 L 4444.33,167.5 h 674.38" /><path
             id="path34"
             style="fill:#2f62b6;fill-opacity:1;fill-rule:nonzero;stroke:none"
             d="m 1143.34,1529.96 h -6.86 L 1355.94,2596 H 703.668 L 205.316,168.262 H 856.062 L 1122,1459.08 h 6.86 L 1638.64,168.262 h 808.49 L 1849.72,1526.91 2880.7,2596 H 2108.03 L 1143.34,1529.96" /><path
             id="path36"
             style="fill:#2f62b6;fill-opacity:1;fill-rule:nonzero;stroke:none"
             d="m 4556.35,1881.25 c 154.69,586.74 -294.14,765.8 -765.81,765.8 -477.79,0 -982.98,-158.5 -1123.2,-735.33 -52.57,-262.89 17.53,-485.39 227.07,-592.85 449.59,-232.41 931.94,-162.29 866.4,-492.229 -32.76,-161.559 -235.45,-243.09 -381,-243.09 -227.84,0 -360.42,124.969 -312.42,354.32 h -631.7 c -122.68,-660.641 313.19,-826 843.54,-826 528.83,0 1052.33,243.07 1153.68,755.141 131.05,657.618 -417.59,698.008 -779.53,802.398 -158.51,47.23 -349.76,104.38 -313.96,282.7 24.4,121.91 170.7,222.5 316.24,222.5 107.45,0 184.41,-26.68 228.6,-76.97 46.47,-51.04 60.96,-121.92 38.87,-216.39 h 633.22" /><path
             id="path38"
             style="fill:#2f62b6;fill-opacity:1;fill-rule:nonzero;stroke:none"
             d="m 5622.39,2730.12 134.11,677.41 c -177.55,-266.71 -459.49,-443.48 -771.15,-510.54 l -32.76,-166.87 h 669.8" /><path
             id="path40"
             style="fill:#2f62b6;fill-opacity:1;fill-rule:nonzero;stroke:none"
             d="m 4977.73,5199 -81.53,-224.79 200.41,-238.51 306.32,52.58 67.05,188.22 c -140.96,112.01 -310.13,189.73 -492.25,222.5" /><path
             id="path42"
             style="fill:#2f62b6;fill-opacity:1;fill-rule:nonzero;stroke:none"
             d="m 5879.18,4213.73 c -7.62,85.34 -24.38,167.64 -49.52,246.12 l -211.85,-37.33 -103.63,-288.04 200.41,-237.75 151.64,25.91 c 16.77,93.73 22.1,191.27 12.95,291.09" /><path
             id="path44"
             style="fill:#2f62b6;fill-opacity:1;fill-rule:nonzero;stroke:none"
             d="m 5089.75,3573.65 -103.64,-287.28 169.17,-201.93 c 172.98,61.73 326.9,165.35 448.05,301.75 l -204.98,241.56 -308.6,-54.1" /><path
             id="path46"
             style="fill:#2f62b6;fill-opacity:1;fill-rule:nonzero;stroke:none"
             d="m 3846.92,3743.57 -41.9,-116.59 c 75.44,-150.11 183.63,-279.65 314.7,-380.23 l 131.06,22.86 103.63,294.13 -198.11,233.94 -309.38,-54.11" /><path
             id="path48"
             style="fill:#2f62b6;fill-opacity:1;fill-rule:nonzero;stroke:none"
             d="m 3780.63,4557.39 102.1,-121.15 306.33,51.81 103.63,294.9 -174.51,205.73 c -146.29,-112.77 -262.87,-261.36 -337.55,-431.29" /><path
             id="path50"
             style="fill:#2f62b6;fill-opacity:1;fill-rule:nonzero;stroke:none"
             d="m 4908.4,4434.71 -309.39,-54.87 -103.62,-288.03 200.41,-237.75 307.08,51.82 103.63,294.9 -198.11,233.93" /><path
             id="path52"
             style="fill:#2f62b6;fill-opacity:1;fill-rule:nonzero;stroke:none"
             d="m 2603.34,2918.32 c 17.52,8.38 19.8,33.53 3.05,55.63 -35.82,47.25 -169.93,49.53 -209.55,52.58 -41.16,3.04 -90.69,6.1 -150.12,6.85 l -27.43,-163.82 c 105.15,16 320.04,18.29 384.05,48.76" /></g></g></g></g></svg>