<?xml version="1.0" encoding="UTF-8" standalone="no"?>
<svg
   xmlns:dc="http://purl.org/dc/elements/1.1/"
   xmlns:cc="http://creativecommons.org/ns#"
   xmlns:rdf="http://www.w3.org/1999/02/22-rdf-syntax-ns#"
   xmlns:svg="http://www.w3.org/2000/svg"
   xmlns="http://www.w3.org/2000/svg"
   viewBox="0 0 800 798.74664"
   height="798.74664"
   width="800"
   xml:space="preserve"
   id="svg2"
   version="1.1"><metadata
     id="metadata8"><rdf:RDF><cc:Work
         rdf:about=""><dc:format>image/svg+xml</dc:format><dc:type
           rdf:resource="http://purl.org/dc/dcmitype/StillImage" /></cc:Work></rdf:RDF></metadata><defs
     id="defs6"><clipPath
       id="clipPath20"
       clipPathUnits="userSpaceOnUse"><path
         id="path18"
         d="M 0,5990.63 V 0 h 6000 v 5990.63 z" /></clipPath></defs><g
     transform="matrix(1.3333333,0,0,-1.3333333,0,798.74667)"
     id="g10"><g
       transform="scale(0.1)"
       id="g12"><g
         id="g14"><g
           clip-path="url(#clipPath20)"
           id="g16"><path
             id="path22"
             style="fill:#f8d03f;fill-opacity:1;fill-rule:nonzero;stroke:none"
             d="m 2113.5,5990.63 h 1773.19 c -168.84,-228.09 -322.51,-487.88 -337.88,-778.22 383.91,-93.19 739.97,-291.28 1031.06,-557.25 223.31,-207.66 404.53,-459.75 528.47,-738.37 56.45,-121.6 94.87,-250.22 135.47,-377.62 42.57,0.65 85.13,-1.23 127.69,1.21 45.46,2.44 85.97,25.03 127.03,42.38 175.69,73.49 347.72,159.65 501.47,272.9 V 2101.68 c -74.44,59.35 -157.78,105.85 -239.53,154.14 -74.9,44.71 -153.18,83.62 -233.16,118.49 -53.53,20.26 -106.68,46.79 -165,47.82 -42.18,1.31 -84.27,0 -126.46,0.84 -88.69,-336.94 -249.76,-655.11 -473.54,-922.68 C 4542.66,1235.36 4261.12,1022.44 3946.12,883.602 3821.25,826.039 3689.62,785.352 3557.9,746.82 3575.81,469.129 3701.34,205.031 3886.78,0 H 2115 c 184.5,205.5 310.97,468.672 328.13,746.441 -131.72,38.438 -263.26,79.5 -388.32,136.688 -325.4,143.071 -617.15,363.381 -839.43,641.151 -211.22,262.13 -365.068,570.95 -444.192,898.32 -68.903,-2.91 -140.442,9.09 -206.907,-14.53 C 437.152,2364.85 317.996,2301.57 202.691,2233.6 133.316,2192.45 63.9336,2150.53 0,2101.13 v 1756.41 c 174.941,-131.44 375.375,-223.51 577.031,-305.72 58.313,-20.91 121.407,-9.94 181.969,-12.1 64.969,218.44 149.246,432.66 269.63,626.91 310.03,519.28 835.31,905.25 1423.4,1045.87 -1.22,112.5 -33.75,221.16 -72.75,325.6 -66.94,162.19 -158.16,314.16 -265.78,452.53 v 0" /><path
             id="path24"
             style="fill:#31469b;fill-opacity:1;fill-rule:nonzero;stroke:none"
             d="m 2354.34,5839.6 c 432.75,-0.19 865.5,-0.56 1298.16,0.19 -116.34,-180.1 -187.22,-387.29 -222.09,-598.22 -93.1,15.75 -186.29,31.59 -280.5,38.72 -78.01,3.93 -156,3.46 -234.01,2.15 -114.37,-1.59 -227.24,-22.12 -339.74,-40.87 -34.97,210.93 -107.16,416.91 -221.82,598.03 v 0" /><path
             id="path26"
             style="fill:#f8d03f;fill-opacity:1;fill-rule:nonzero;stroke:none"
             d="m 2901.66,5728.79 c 1.12,27.93 24.37,49.96 50.81,55.5 24,7.87 46.88,-6.66 68.25,-15.48 25.49,9.76 55.5,27.38 82.32,11.44 38.99,-15.75 54.83,-67.69 30.92,-102.37 -22.3,-33.29 -49.5,-63.19 -69.64,-97.97 32.99,23.16 61.4,51.66 90.55,79.12 17.06,16.88 42.76,9.38 64.22,9.48 26.82,-34.78 29.35,-80.54 10.51,-119.63 21.18,-37.59 14.34,-82.22 -9.57,-116.72 -20.06,-2.34 -43.41,-10.78 -60.28,5.06 -38.16,33.66 -73.31,71.63 -118.03,96.94 -7.32,-66.84 22.5,-128.63 29.63,-193.59 -27.38,-9.19 -56.16,-11.35 -83.63,-1.22 -2.53,5.72 -7.6,16.96 -10.03,22.69 20.81,55.03 33.56,113.34 27.47,172.4 -45.28,-27.94 -82.97,-65.53 -122.53,-100.49 -24.09,-21.01 -60.75,-6.57 -72.66,20.62 -18.09,29.43 -6.75,63.65 3.37,93.56 -11.05,30.66 -22.21,66.85 -1.31,96.09 15.37,31.51 61.97,33.1 83.63,7.69 26.43,-26.72 53.15,-53.53 85.31,-73.5 -23.81,51.84 -88.6,86.91 -79.31,150.38 v 0" /><path
             id="path28"
             style="fill:#fdfdfb;fill-opacity:1;fill-rule:nonzero;stroke:none"
             d="m 1995.19,4904.26 c 283.5,149.53 600.75,232.4 920.62,246.65 373.59,13.59 750.65,-69.94 1082.26,-242.72 453.75,-235.4 820.02,-635.81 1010.44,-1110.56 35.52,-83.91 59.99,-171.66 88.39,-258.09 -212.52,-3.09 -425.14,-3.09 -637.58,-8.63 -18.1,33.94 -32.64,69.66 -47.63,105 -61.69,128.16 -140.34,247.78 -231.94,356.63 -122.25,135.56 -263.81,255.84 -424.97,342.75 -406.78,230.9 -920.72,256.03 -1351.5,76.97 -388.59,-162.2 -710.25,-485.72 -856.97,-881.73 -215.15,-3.18 -430.22,-2.62 -645.372,-2.05 41.906,135.93 85.124,272.15 149.442,399.46 199.4,415.5 537.09,762.28 944.81,976.32 v 0" /><path
             id="path30"
             style="fill:#31469b;fill-opacity:1;fill-rule:nonzero;stroke:none"
             d="m 2826.47,5017.41 c 88.12,26.72 186.84,-34.97 205.5,-123.94 15.19,-70.87 9.85,-157.22 -48.56,-207.93 -55.04,-60.38 -160.13,-65.44 -220.04,-9.85 -106.49,90.85 -80.15,303.09 63.1,341.72 v 0" /><path
             id="path32"
             style="fill:#31469b;fill-opacity:1;fill-rule:nonzero;stroke:none"
             d="m 3228.75,5002.32 c 59.9,24.84 131.06,2.91 173.54,-44.25 62.99,-81.94 60.55,-210.76 -12.39,-285.76 -62.15,-67.12 -186.66,-57.18 -235.77,20.72 -68.72,97.22 -41.91,261.95 74.62,309.29 v 0" /><path
             id="path34"
             style="fill:#fdfdfb;fill-opacity:1;fill-rule:nonzero;stroke:none"
             d="m 2843.15,4994.07 c 29.73,10.03 63.48,0.56 86.26,-20.44 40.87,-31.87 44.15,-89.06 47.15,-136.69 0.47,-57.19 -4.87,-127.68 -59.25,-160.59 -45.65,-30.75 -111.19,-7.6 -133.59,40.87 -27.94,64.32 -29.06,139.13 -8.63,205.6 8.53,33.46 35.34,60.75 68.06,71.25 v 0" /><path
             id="path36"
             style="fill:#fdfdfb;fill-opacity:1;fill-rule:nonzero;stroke:none"
             d="m 3255.84,4981.79 c 38.44,14.15 84.19,-2.44 105.01,-37.6 25.5,-43.03 29.34,-95.15 24.93,-143.9 -4.87,-43.88 -14.8,-91.03 -47.24,-123.38 -19.6,-20.71 -50.17,-29.72 -77.83,-23.43 -36.18,5.81 -60.37,39 -72.17,71.34 -18.67,59.62 -14.73,124.97 4.87,183.84 10.78,30.66 30.65,61.41 62.43,73.13 v 0" /><path
             id="path38"
             style="fill:#31469b;fill-opacity:1;fill-rule:nonzero;stroke:none"
             d="m 2395.59,4925.06 c 68.07,16.13 135.94,32.73 204.47,46.51 7.13,-29.35 15,-58.69 19.22,-88.69 -31.78,0.56 -47.91,39 -76.22,51.93 -34.59,-7.21 -69.19,-14.9 -103.68,-22.96 9.93,-45.28 21.09,-90.19 29.8,-135.66 24.95,8.91 54.85,10.69 74.35,30.56 8.63,15.1 8.35,33.19 11.34,49.88 5.82,1.41 11.63,2.91 17.44,4.31 9.75,-42.37 20.91,-84.75 26.07,-127.97 -1.69,-4.87 -5.06,-14.62 -6.75,-19.5 -13.69,17.25 -21.29,41.16 -41.25,52.59 -26.25,2.64 -52.13,-4.31 -77.82,-8.71 13.32,-43.03 17.34,-88.87 34.69,-130.6 16.69,-5.34 34.41,-6.18 51.75,-8.53 -0.46,-4.31 -1.31,-12.84 -1.69,-17.15 -47.25,-8.72 -93.09,-24.56 -140.72,-30.38 -4.12,3 -12.18,9 -16.21,12.1 16.3,8.71 36.56,12.56 49.49,26.72 -10.12,67.78 -30.84,133.49 -44.81,200.52 -6.56,25.69 -8.06,53.16 -20.25,77.07 -18.65,5.62 -38.15,7.59 -57.09,11.81 17.62,18.84 44.43,20.06 67.87,26.15 v 0" /><path
             id="path40"
             style="fill:#31469b;fill-opacity:1;fill-rule:nonzero;stroke:none"
             d="m 3555.28,4850.63 c 11.35,30.65 23.16,61.12 34.31,91.78 89.81,-36.37 180.84,-69.93 270.28,-107.43 -12.65,-31.69 -11.8,-76.32 -45.47,-94.04 -4.87,29.25 -2.99,61.13 -17.34,87.85 -14.53,16.03 -36.75,21.46 -55.6,30.75 -27.74,-96.1 -73.31,-186.47 -96.18,-283.78 14.25,-17.44 37.12,-29.44 39.85,-54.1 -51.38,18.37 -101.91,39.66 -152.54,59.91 -7.59,38.53 47.07,-6.28 59.34,19.59 36.95,91.5 68.26,185.44 101.82,278.35 -18.84,6.37 -37.31,13.96 -57,16.77 -28.31,-8.53 -46.59,-33.65 -66.47,-53.71 -3.76,1.97 -11.25,6 -15,8.06 v 0" /><path
             id="path42"
             style="fill:#31469b;fill-opacity:1;fill-rule:nonzero;stroke:none"
             d="m 1989.94,4749.28 c 43.5,28.88 87,58.32 133.68,81.85 -0.09,-4.97 -0.28,-14.9 -0.37,-19.88 -9.75,-14.15 -37.41,-27.47 -21,-46.87 43.87,-77.63 91.41,-153.19 135.47,-230.81 4.78,-1.78 14.44,-5.35 19.22,-7.12 16.22,5.71 33.74,11.62 48.09,-1.98 -38.81,-24.93 -78.09,-49.41 -117.1,-73.87 -9.18,-7.78 -19.59,-0.38 -28.96,2.25 12.75,12.94 25.87,25.5 39,38.06 -23.81,43.12 -49.31,85.22 -74.53,127.41 -44.44,-32.07 -93.47,-57 -138.75,-87.85 28.87,-37.68 43.31,-85.31 77.34,-119.06 14.44,-0.18 27.76,6.66 41.34,10.78 3.01,-4.03 9.1,-12.19 12.1,-16.21 -43.32,-26.72 -87,-52.79 -129.56,-80.73 -1.78,4.79 -5.44,14.44 -7.32,19.23 11.16,10.31 22.13,20.9 32.91,31.59 -35.25,63.37 -73.5,124.97 -110.25,187.4 -12.56,21.1 -22.97,44.07 -39.66,62.35 -21.09,1.59 -42.28,-1.03 -63.18,2.44 41.71,32.34 87.65,58.68 132.75,85.96 2.34,-4.03 6.94,-12.09 9.28,-16.12 -11.53,-11.72 -22.78,-23.72 -33.56,-36.19 21.84,-36 44.06,-71.71 64.31,-108.65 47.62,26.62 93.93,55.59 139.12,86.24 -21.19,33 -36.18,69.85 -60.84,100.41 -19.03,8.16 -47.91,-12.94 -59.53,9.37 v 0" /><path
             id="path44"
             style="fill:#31469b;fill-opacity:1;fill-rule:nonzero;stroke:none"
             d="m 3939.84,4789.04 c 3.85,5.06 7.79,10.21 11.72,15.28 49.97,-34.88 103.13,-64.97 152.72,-100.41 23.43,-17.06 40.51,-43.31 44.53,-72.19 1.88,-40.03 -32.25,-75.75 -70.87,-80.9 -20.35,-3.19 -38.99,6.65 -58.04,11.53 21.19,-26.53 46.98,-53.91 48.66,-89.91 2.16,-45.47 -33.93,-96.84 -83.43,-93.65 -56.92,-7.88 -99.66,34.68 -144.39,61.68 -29.8,20.53 -67.77,34.41 -84.93,68.53 19.31,-2.9 38.25,-7.68 57.1,-13.03 49.03,66.85 87.75,140.63 133.03,210 9.37,14.91 20.15,29.82 22.97,47.72 -8.44,12.75 -18.94,23.91 -29.07,35.35 v 0" /><path
             id="path46"
             style="fill:#fdfdfb;fill-opacity:1;fill-rule:nonzero;stroke:none"
             d="m 4026.65,4728.48 c 23.44,-17.72 56.16,-29.82 65.45,-60.38 5.53,-37.5 -22.23,-74.44 -55.79,-88.31 -31.51,-7.69 -58.03,16.68 -83.24,31.4 24.46,39.19 46.87,79.6 73.58,117.29 v 0" /><path
             id="path48"
             style="fill:#fdfdfb;fill-opacity:1;fill-rule:nonzero;stroke:none"
             d="m 3882.93,4498.22 c 20.45,30.66 37.98,63.1 58.97,93.38 22.5,-15.19 48.57,-27.47 64.79,-50.16 38.53,-55.31 -28.79,-145.21 -92.72,-118.87 -17.91,8.71 -34.88,21.18 -45.1,38.53 -2.15,14.25 7.78,25.5 14.06,37.12 v 0" /><path
             id="path50"
             style="fill:#31469b;fill-opacity:1;fill-rule:nonzero;stroke:none"
             d="m 1710.66,4537.88 c 5.43,12.18 11.06,24.38 17.15,36.29 30.28,-31.6 59.91,-63.85 89.72,-96.01 -30.46,-16.03 -54.65,15.47 -82.88,21.84 -36.84,14.91 -85.87,-1.5 -97.87,-41.43 -15,-37.22 22.6,-77.44 60.37,-72.94 59.91,7.31 114.57,50.91 177.01,35.06 49.5,-17.72 84,-75.93 65.81,-127.59 -16.13,-55.88 -70.59,-89.25 -123.38,-105 -4.87,-12.19 -9.84,-24.38 -15,-36.47 -27.46,30 -58.87,56.62 -83.25,89.25 -0.46,3.75 -1.21,11.44 -1.68,15.28 39.09,-2.62 71.81,-33.85 112.12,-28.03 39.56,2.72 81.47,31.78 81.85,74.62 -5.91,34.22 -37.32,63.48 -73.13,60.66 -56.34,-6.75 -106.97,-49.22 -165.84,-36.37 -53.07,15.66 -91.32,79.68 -65.06,132.28 15.55,45.09 60.65,67.87 104.06,78.56 v 0" /><path
             id="path52"
             style="fill:#31469b;fill-opacity:1;fill-rule:nonzero;stroke:none"
             d="m 4086.66,4343.81 c 95.43,45.57 188.43,96.01 283.31,142.79 3.56,-3 10.78,-9.1 14.43,-12.09 -36.83,-105 -81.56,-207.1 -119.24,-311.82 -8.82,-22.59 9.56,-43.31 15.28,-64.12 -23.53,0.47 -37.88,20.24 -53.62,34.59 -22.97,23.34 -49.22,44.34 -64.41,73.88 19.03,-6.1 37.68,-13.5 56.34,-20.91 10.6,30.1 21.93,59.81 35.07,88.97 -27,28.12 -56.08,54 -84.01,81 -26.53,-12.75 -51.84,-27.75 -75.46,-45.28 8.05,-18.75 17.14,-37.13 24.18,-56.35 l -12.65,-1.97 c -31.6,26.91 -61.5,56.07 -89.53,86.54 l 3.85,11.9 c 22.02,-3.09 44.61,-19.78 66.46,-7.13 v 0" /><path
             id="path54"
             style="fill:#fdfdfb;fill-opacity:1;fill-rule:nonzero;stroke:none"
             d="m 4191.29,4368.85 c 41.43,18.94 81.45,40.69 121.12,62.91 -15.1,-44.54 -30.94,-88.97 -49.5,-132.29 -24.29,22.79 -47.91,46.13 -71.62,69.38 v 0" /><path
             id="path56"
             style="fill:#31469b;fill-opacity:1;fill-rule:nonzero;stroke:none"
             d="m 2751.19,4386.29 c 226.31,46.59 466.31,32.15 683.16,-48.76 0.28,-310.49 -0.2,-621.09 0.28,-931.59 589.59,-0.47 1179.28,0.1 1768.87,-0.28 119.71,-3.47 236.06,32.25 348.09,70.78 113.54,37.6 218.81,95.06 322.51,153.76 0.37,-432.19 0.28,-864.38 0.09,-1296.57 -171.66,120.56 -372.66,195.28 -578.82,230.15 -52.31,8.26 -105.47,5.35 -158.24,5.73 -543.57,0 -1087.13,-0.09 -1630.79,0.08 -23.9,0 -47.9,-0.84 -71.81,-1.77 0,-310.6 -0.57,-621.19 0.37,-931.79 -273.55,-104.05 -585.46,-100.96 -859.3,0.1 0.93,310.5 1.02,620.99 0,931.5 -302.16,4.41 -604.41,0.66 -906.57,1.88 -268.78,0 -537.56,0 -806.342,0 -56.344,0 -113.25,2.71 -168.75,-9.01 -200.622,-41.25 -395.25,-115.68 -568.032,-226.4 -0.375,432 -0.472,863.91 0,1295.9 115.317,-63.18 234,-121.68 360.282,-159.74 98.16,-30.19 198.187,-60.28 301.5,-64.41 595.962,-0.28 1192.032,0.09 1788.002,-0.19 2.06,309.1 -1.6,618.38 1.78,927.38 51.09,30.93 114.94,41.34 173.72,53.25 v 0" /><path
             id="path58"
             style="fill:#31469b;fill-opacity:1;fill-rule:nonzero;stroke:none"
             d="m 1471.88,4331.44 c 16.49,18.38 30.37,41.72 55.68,48.85 -6.09,-20.44 -14.34,-40.13 -22.78,-59.72 43.22,-45.75 93.56,-83.82 140.16,-125.91 26.62,-21.56 49.97,-47.62 79.41,-65.44 20.53,8.26 39.74,19.51 61.03,25.97 -23.72,-44.53 -61.32,-79.5 -92.25,-118.87 -6.76,-12.28 -19.22,-12.57 -31.41,-10.13 9,16.97 20.16,32.91 26.53,51.1 -28.12,34.87 -65.72,60.46 -98.53,90.74 -41.06,34.41 -78.56,73.41 -123.66,102.66 -18.37,-11.91 -37.31,-22.97 -58.12,-30 12.84,35.53 40.78,61.88 63.94,90.75 v 0" /><path
             id="path60"
             style="fill:#31469b;fill-opacity:1;fill-rule:nonzero;stroke:none"
             d="m 4558.13,4288.69 c 4.31,0.09 12.93,0.28 17.15,0.38 26.62,-39.38 54.93,-77.72 81,-117.47 -3.57,-5.81 -7.4,-11.35 -11.25,-16.88 -12.94,11.91 -26.16,23.44 -39.65,34.6 -53.91,-40.04 -108.94,-78.47 -162.94,-118.5 -24.84,-18.66 -53.53,-33.66 -72.85,-58.69 5.82,-37.13 36.66,-63.38 59.16,-91.41 34.97,-2.15 69.75,5.16 104.73,2.63 -15.67,-35.9 -62.07,-46.97 -92.44,-69.28 -50.73,77.62 -106.04,152.16 -155.83,230.34 3.85,2.44 11.64,7.41 15.57,9.85 9.85,-10.88 19.87,-21.76 30,-32.44 66.38,41.34 126.85,91.31 191.53,135.19 16.41,11.53 32.9,23.53 45.84,39.18 -2.15,17.72 -6.55,35.06 -10.02,52.5 v 0" /><path
             id="path62"
             style="fill:#31469b;fill-opacity:1;fill-rule:nonzero;stroke:none"
             d="m 1264.97,4059.57 c 21.93,31.41 52.12,67.03 94.13,65.15 33.93,2.54 64.96,-20.72 80.8,-49.21 15.29,-28.13 6.01,-60.48 -0.18,-89.82 55.59,3.1 111.56,1.41 167.06,6.75 20.34,1.22 35.06,15.85 48.66,29.16 4.59,-1.97 13.69,-5.91 18.28,-7.78 -19.5,-26.82 -37.6,-54.47 -55.59,-82.22 -61.41,0.84 -122.82,2.53 -184.22,-0.47 -18.38,2.16 -26.91,-15.93 -38.16,-26.81 37.12,-25.59 73.78,-52.13 112.87,-74.81 14.82,10.49 25.51,32.24 46.04,31.03 5.53,-16.79 -12.29,-30.01 -19.23,-43.88 -25.3,-31.31 -40.3,-73.96 -78.75,-92.16 1.97,19.41 16.13,39.57 10.23,58.88 -30.19,29.44 -68.53,49.12 -102.01,74.54 -46.68,27.65 -86.24,67.3 -136.4,88.68 -18.29,-8.16 -35.16,-19.03 -54.47,-24.66 23.63,50.07 60.85,91.6 90.94,137.63 v 0" /><path
             id="path64"
             style="fill:#fdfdfb;fill-opacity:1;fill-rule:nonzero;stroke:none"
             d="m 1304.16,4060.41 c 42.56,23.25 98.43,-12 105.94,-57.56 7.68,-32.16 -14.73,-59.91 -30.01,-85.88 -43.31,25.88 -82.87,57.28 -124.87,85.03 13.12,21.57 24.56,47.25 48.94,58.41 v 0" /><path
             id="path66"
             style="fill:#31469b;fill-opacity:1;fill-rule:nonzero;stroke:none"
             d="m 4782.75,3910.13 c 3.56,20.16 2.82,41.16 10.13,60.56 26.62,-47.06 46.21,-97.78 68.81,-146.9 -4.5,-1.6 -13.51,-4.88 -18.1,-6.57 -11.34,11.91 -18.75,30.19 -35.25,35.72 -26.43,-3.18 -49.86,-17.06 -74.15,-27 -63.28,-28.97 -131.44,-47.81 -191.34,-83.53 -8.91,-29.25 10.69,-59.81 24.08,-85.32 20.82,-38.24 71.26,-29.71 107.63,-35.71 0.85,-4.41 2.53,-13.03 3.38,-17.34 -33.38,-11.63 -66.66,-23.06 -100.41,-33.57 -34.5,88.69 -77.62,173.91 -109.5,263.53 21.47,-0.27 31.03,-19.87 42.18,-34.96 44.36,8.05 83.82,31.31 125.44,47.53 48.95,21.18 101.16,35.9 147.1,63.56 v 0" /><path
             id="path68"
             style="fill:#31469b;fill-opacity:1;fill-rule:nonzero;stroke:none"
             d="m 1131.75,3824.54 c 4.13,-0.75 12.19,-2.35 16.22,-3.09 -1.6,-18.38 -2.72,-36.85 -3.09,-55.41 85.59,-28.22 171.09,-56.72 256.59,-85.13 27.94,-13.21 37.59,22.22 50.06,39.66 l 16.69,-5.07 c -22.4,-53.15 -23.25,-119.05 -65.25,-161.62 -0.28,16.22 0.37,32.34 1.78,48.38 -0.75,4.68 -2.25,14.06 -3,18.65 -88.78,33.1 -179.63,59.81 -269.44,89.63 -15.09,-17.54 -26.81,-40.41 -51.19,-46.79 11.44,55.13 33.47,107.26 50.63,160.79 v 0" /><path
             id="path70"
             style="fill:#f8d03f;fill-opacity:1;fill-rule:nonzero;stroke:none"
             d="m 397.781,3184.51 c 29.719,21.65 67.973,13.87 99.469,0.65 26.535,8.62 56.25,21 83.531,7.87 29.531,-8.81 54.192,-46.78 32.153,-74.43 -32.622,-41.25 -73.688,-75.94 -99.278,-122.72 66.754,-6.93 127.875,24.75 193.125,28.97 7.5,-27 17.813,-58.97 -2.719,-83.16 -19.312,-13.78 -42.941,-0.75 -63.187,4.32 -40.313,15.37 -84.094,16.12 -126.656,13.21 28.219,-51.37 71.902,-91.3 110.347,-134.71 -3.566,-20.63 -3.289,-48 -26.16,-57.76 -31.035,-19.5 -67.687,-9.83 -100.125,0.1 -30,-11.43 -64.219,-18.56 -93.652,-1.41 -30.941,11.54 -35.906,55.88 -13.875,78 26.156,29.82 56.625,55.97 78.273,89.53 -35.156,-19.31 -65.625,-45.65 -98.339,-68.62 -35.809,-24 -89.25,-8.15 -104.438,32.72 -15,25.5 3.75,51.66 9.844,76.6 -4.496,27.37 -24.473,54.84 -9.184,82.68 15.371,41.53 71.059,51.84 106.215,29.72 30.469,-20.44 57.285,-46.04 88.316,-65.91 -16.129,32.62 -42.472,57.84 -68.253,82.88 -23.715,20.71 -24.465,65.15 4.593,81.47 v 0" /><path
             id="path72"
             style="fill:#f8d03f;fill-opacity:1;fill-rule:nonzero;stroke:none"
             d="m 5386.12,3157.79 c 14.35,37.78 63.01,48.93 97.97,34.59 35.91,-14.44 72.47,17.91 108.19,0.1 38.44,-8.91 47.25,-61.32 21.28,-87.48 -26.15,-27.47 -55.86,-52.3 -73.87,-86.43 31.96,18 59.34,42.75 88.49,64.87 31.89,22.6 83.17,20.07 105.94,-14.34 19.5,-27.28 9.94,-62.82 -4.69,-90 11.54,-29.91 26.45,-67.03 3.67,-95.44 -21.2,-33.84 -69.85,-38.43 -100.79,-15.74 -30.38,21.93 -59.24,46.12 -91.87,64.87 21.19,-33.65 53.06,-58.31 78,-88.88 18.19,-20.91 10.12,-49.32 3.09,-73.04 -35.07,-16.68 -74.16,-20.43 -110.07,-3.93 -29.99,-9.09 -63.08,-18.94 -92.8,-3.47 -30.01,7.69 -42.28,49.5 -22.88,72.94 31.31,41.25 73.22,74.16 98.16,120.47 -66.57,7.69 -127.59,-22.59 -192.09,-29.62 -13.51,29.15 -11.72,61.4 0.55,90.56 27.76,-0.47 54.75,-6.94 81.11,-15.56 35.71,-11.63 73.68,-10.41 110.71,-8.07 -22.5,35.07 -49.13,67.22 -79.22,95.81 -18.18,17.26 -37.22,41.07 -28.88,67.79 v 0" /><path
             id="path74"
             style="fill:#fdfdfb;fill-opacity:1;fill-rule:nonzero;stroke:none"
             d="m 1222.31,3153.48 c 46.03,9.84 96.57,-3.66 127.04,-40.6 45.84,-46.69 47.8,-117.19 40.77,-178.31 -6.28,-61.79 -52.68,-120.19 -114.93,-132.28 -56.72,-9.47 -117.28,23.15 -140.91,75.28 -32.62,65.9 -28.87,147.28 5.62,211.68 18.01,30.47 47.73,55.6 82.41,64.23 v 0" /><path
             id="path76"
             style="fill:#fdfdfb;fill-opacity:1;fill-rule:nonzero;stroke:none"
             d="m 781.031,3143.16 c 34.317,6.75 69.567,4.13 104.344,3.75 47.715,-75.38 94.313,-151.5 142.025,-226.88 0.1,53.64 2.16,107.45 -0.56,160.98 0.56,31.31 -31.586,44.9 -51.086,63.65 41.716,3.66 83.716,3.75 125.436,0.19 -14.82,-12.94 -33,-22.41 -44.91,-38.25 -5.53,-16.03 -4.87,-33.38 -5.44,-50.16 0.29,-82.3 0.29,-164.72 0.19,-247.12 -11.34,0 -22.78,0 -34.12,0 -52.879,87.09 -107.91,172.87 -161.348,259.59 -1.031,-54.28 -0.75,-108.56 -0.656,-162.94 -0.187,-22.03 3.282,-44.16 11.442,-64.68 15.371,-6.66 31.777,-13.13 39.371,-29.45 -41.344,-1.96 -82.688,-2.24 -124.035,-0.09 7.972,16.79 25.781,21.57 41.628,27.57 17.442,77.25 5.344,157.77 8.157,236.44 2.254,32.99 -30.657,47.53 -50.438,67.4 v 0" /><path
             id="path78"
             style="fill:#fdfdfb;fill-opacity:1;fill-rule:nonzero;stroke:none"
             d="m 1419.75,3146.82 c 61.22,-0.94 122.91,4.22 183.84,-2.91 43.88,-4.03 71.35,-50.81 63.29,-92.06 -3.1,-36.57 -31.41,-62.34 -62.35,-77.71 39.75,-52.89 58.5,-127.23 123.65,-155.91 -34.4,-12.2 -71.06,-7.03 -106.58,-7.13 -31.88,52.88 -53.54,113.07 -97.13,157.97 -1.31,-42.66 -5.44,-86.16 2.06,-128.44 11.44,-6.19 23.82,-10.5 35.91,-15.57 -1.13,-3.55 -3.28,-10.77 -4.41,-14.43 -47.82,0.37 -95.72,-1.03 -143.53,0.94 9,16.68 27.38,21.28 43.31,28.22 1.78,91.78 2.16,183.56 0,275.24 -11.9,5.63 -23.81,11.16 -35.72,16.6 -0.56,3.75 -1.78,11.44 -2.34,15.19 v 0" /><path
             id="path80"
             style="fill:#fdfdfb;fill-opacity:1;fill-rule:nonzero;stroke:none"
             d="m 1711.12,3147.19 c 84.01,0.1 168.01,-0.28 252.1,0.19 0.75,-34.69 1.31,-69.38 -1.59,-103.97 -14.25,22.5 -24.29,47.53 -39.66,69.28 -11.44,16.31 -34.5,11.35 -51.28,16.31 0.37,-90.09 -1.69,-180.19 0.56,-270.18 -4.03,-27.48 31.41,-26.53 47.25,-39.1 -25.31,-11.35 -53.34,-9.37 -80.35,-9.56 -26.81,0.28 -54.74,-1.97 -79.68,10.13 16.96,11.25 52.22,10.41 47.06,38.81 1.13,89.9 0.37,179.81 0,269.72 -14.15,-1.69 -28.22,-4.03 -42.09,-7.32 -21.38,-17.34 -28.69,-45.56 -39.75,-69.75 -3.1,-0.46 -9.28,-1.31 -12.47,-1.69 0.37,32.35 0.28,64.79 -0.1,97.13 v 0" /><path
             id="path82"
             style="fill:#fdfdfb;fill-opacity:1;fill-rule:nonzero;stroke:none"
             d="m 1973.44,3144.66 c 49.69,4.59 99.65,2.06 149.53,2.16 -0.56,-3.85 -1.78,-11.72 -2.44,-15.57 -11.99,-3.84 -23.9,-7.87 -35.81,-11.9 -2.06,-41.06 -1.13,-82.12 -1.22,-123.19 37.78,0.56 75.66,0.38 113.53,0.28 -0.47,38.63 2.72,77.53 -2.44,115.79 -13.77,9.84 -29.15,17.06 -43.78,25.4 10.13,6.75 21.47,10.78 33.84,9.66 41.07,0.37 82.32,1.21 123.19,-3.38 -14.71,-10.03 -29.9,-19.31 -45.09,-28.59 -0.66,-90.47 -4.41,-181.41 1.69,-271.68 13.5,-10.6 28.78,-18.75 40.78,-31.32 -51.47,1.49 -107.72,-13.13 -155.72,9.47 15.47,6.09 31.32,11.34 47.16,16.78 0.94,44.91 0.37,89.81 0.46,134.72 -37.87,0.18 -75.65,0.18 -113.53,0.38 -0.65,-44.45 -0.93,-88.98 1.22,-133.41 15.75,-7.03 33.94,-11.82 42.85,-28.31 -51.66,1.59 -106.88,-11.53 -155.81,9.27 15.65,6.38 31.68,12.1 47.62,17.82 0.94,91.12 1.68,182.34 -0.37,273.46 -16.22,9.38 -33.29,17.72 -45.66,32.16 v 0" /><path
             id="path84"
             style="fill:#fdfdfb;fill-opacity:1;fill-rule:nonzero;stroke:none"
             d="m 2318.62,3144.94 c 79.13,4.79 158.45,1.13 237.76,2.25 -0.19,-31.31 0.09,-62.72 -3.76,-93.93 -16.4,22.87 -26.24,51.74 -49.4,69 -24.09,6.47 -49.31,3.93 -73.97,4.87 -2.44,-44.81 -1.88,-89.63 0.19,-134.44 18.37,3.95 42.46,-1.31 55.69,15.38 11.8,16.59 19.21,35.81 29.43,53.43 4.88,-50.43 2.16,-101.15 2.35,-151.68 -3.1,1.31 -9.19,3.84 -12.28,5.15 -5.35,17.35 -10.97,34.51 -16.97,51.67 -19.04,3.83 -38.26,7.4 -57.38,10.4 -2.81,-46.41 -6.84,-93.85 3.47,-139.59 29.35,-8.45 60.28,-4.22 90.19,-1.6 15.28,29.44 29.06,59.81 48.37,86.9 2.63,-37.31 -0.19,-74.62 -1.97,-111.92 -84,0.74 -168.09,-2.46 -252,1.49 10.22,14.53 26.82,20.34 42.47,26.52 6.1,84.66 3,169.79 2.53,254.54 1.32,26.72 -30.18,34.12 -44.72,51.56 v 0" /><path
             id="path86"
             style="fill:#fdfdfb;fill-opacity:1;fill-rule:nonzero;stroke:none"
             d="m 2595.75,3145.88 c 53.82,2.72 107.81,1.5 161.63,0.75 34.12,0 72.93,-16.59 83.43,-51.66 6.28,-29.99 4.88,-64.97 -15.56,-89.62 -12.75,-13.41 -29.91,-21.38 -45.47,-31.04 25.78,-39.18 50.25,-79.22 74.91,-119.15 10.31,-18.55 31.97,-32.24 53.53,-23.35 26.62,3.47 27.09,35.16 28.97,55.78 1.4,62.26 1.4,124.7 0,186.85 0.84,27.94 -22.69,45 -43.79,58.03 -0.46,3.57 -1.4,10.88 -1.87,14.54 32.16,-0.1 64.59,2.24 96.75,-1.22 51.93,-72.19 93.19,-151.88 143.91,-225.1 -0.57,64.22 6.56,129.56 -7.6,192.94 -11.9,5.63 -23.81,11.25 -35.62,16.79 -0.38,4.12 -1.22,12.37 -1.59,16.49 38.43,0.47 76.87,0.38 115.31,-0.19 -1.31,-3.46 -4.14,-10.49 -5.53,-13.96 -20.07,-7.22 -42.47,-17.07 -41.16,-42.29 -4.03,-93.65 -0.47,-187.59 -1.6,-281.34 -8.42,0.09 -25.31,0.37 -33.83,0.56 -52.13,87.66 -108.57,172.69 -161.17,259.97 2.63,-75.75 -8.9,-153.19 9.57,-227.53 15.56,-7.41 32.91,-13.97 41.34,-30.56 -70.69,-2.44 -141.47,0.18 -212.15,-1.32 -28.5,54.94 -56.63,110.73 -94.69,159.95 -1.59,-41.73 -5.44,-84.1 1.12,-125.55 12.38,-11.33 26.53,-20.8 39,-32.23 -51,-2.82 -102,-2.07 -152.99,-0.85 8.53,18.18 28.68,21.56 45.37,28.31 2.34,90.94 1.69,181.97 0.47,272.9 -13.41,10.51 -42.56,11.63 -40.69,33.1 v 0" /><path
             id="path88"
             style="fill:#fdfdfb;fill-opacity:1;fill-rule:nonzero;stroke:none"
             d="m 3303.28,3134.54 c 3.94,2.91 11.91,8.81 15.84,11.81 45.75,2.9 91.7,0.18 137.54,0.66 -0.66,-4.04 -1.88,-12.2 -2.53,-16.22 -13.04,-3.75 -25.89,-7.69 -38.73,-11.82 -2.81,-92.62 -1.86,-185.34 -0.47,-277.97 16.79,-7.31 35.63,-12.56 46.6,-28.68 -52.97,-2.72 -106.22,-3.19 -159.19,0.1 11.91,14.62 30.47,19.5 46.21,28.58 3.38,91.41 1.7,183.1 0.76,274.5 -15.37,6.29 -30.84,12.57 -46.03,19.04 v 0" /><path
             id="path90"
             style="fill:#fdfdfb;fill-opacity:1;fill-rule:nonzero;stroke:none"
             d="m 3472.88,3136.69 c 16.96,15.28 40.68,9.76 61.5,10.79 40.96,-1.13 82.21,2.15 123.09,-2.63 31.12,-3.94 64.49,-25.97 66.93,-59.82 2.07,-23.15 2.72,-48.36 -9,-69.37 -12.46,-19.41 -34.12,-29.72 -52.59,-42.37 28.78,-41.92 52.5,-87.09 81.84,-128.44 17.63,-23.72 49.97,-13.31 74.16,-8.54 1.41,85.88 1.13,171.85 0.47,257.73 5.06,23.53 -20.81,28.49 -35.72,38.53 -0.56,3.56 -1.68,10.69 -2.25,14.25 76.87,0.66 153.85,0.37 230.82,0.28 1.59,-31.12 3.27,-62.91 -5.44,-93.28 -16.96,22.31 -23.99,55.4 -50.91,68.44 -23.15,5.9 -47.44,3.84 -71.06,5.06 -0.84,-45 -0.94,-90.09 -0.09,-135.19 18.65,2.82 37.4,6 55.97,10.13 9.18,20.05 18.08,40.21 29.16,59.24 5.33,-50.34 2.61,-101.06 2.53,-151.68 -3.01,1.31 -9.1,3.75 -12.1,4.97 -5.53,18 -11.25,35.71 -17.91,53.24 -19.13,3.19 -38.26,6.01 -57.38,8.35 -1.31,-46.6 -1.86,-93.38 2.16,-139.97 29.63,-2.44 61.04,-8.44 89.73,1.32 21.93,25.21 30.84,58.78 52.4,84.37 1.5,-37.12 -1.79,-74.25 -3.38,-111.27 -115.31,-0.67 -230.53,0.55 -345.84,-0.58 -27.94,54.94 -55.87,110.73 -94.78,158.92 -1.6,-41.54 -5.06,-83.64 1.12,-124.89 12.94,-10.96 27.66,-19.77 39.66,-31.96 -50.81,-2.63 -101.91,-2.82 -152.72,0 10.12,15.75 28.87,19.77 43.6,29.53 4.77,83.71 1.59,168 1.87,251.9 5.53,28.13 -29.16,30.57 -45.84,42.94 v 0" /><path
             id="path92"
             style="fill:#fdfdfb;fill-opacity:1;fill-rule:nonzero;stroke:none"
             d="m 4050.66,3146.63 c 48.84,0.94 97.69,0.56 146.53,0.47 -0.37,-3.56 -1.32,-10.69 -1.69,-14.25 -13.31,-8.34 -40.5,-9.38 -37.97,-30.1 -0.09,-88.87 -3.74,-177.93 2.44,-266.72 32.06,-0.46 80.63,-17.43 98.62,19.03 12.66,22.98 22.6,47.44 36.47,69.86 1.87,-33.1 0.66,-66.2 1.7,-99.29 37.87,16.22 44.7,59.25 56.34,94.22 21.09,78.48 51.36,154.12 73.78,232.12 12.18,0.29 24.37,0.48 36.74,0.56 27.94,-99.37 61.5,-197.06 91.79,-295.78 9.18,-39.74 79.12,-34.78 79.49,7.41 4.97,67.12 0.95,134.62 2.16,201.94 4.5,36.56 -29.72,56.91 -52.22,78.94 34.03,2.34 68.34,3.93 102.47,0.93 53.16,-71.43 92.9,-152.24 144.57,-224.9 -1.23,64.32 8.8,130.4 -8.91,193.12 -11.44,5.62 -22.88,11.16 -34.22,16.79 -0.75,3.93 -2.26,11.81 -3,15.84 38.06,0.47 76.13,0.56 114.19,0.09 -0.75,-3.84 -2.34,-11.53 -3.09,-15.28 -12.01,-4.78 -23.82,-9.84 -35.44,-15.19 -13.31,-101.9 -3.85,-205.13 -6.38,-307.59 -11.81,0.37 -23.44,0.75 -35.06,1.03 -52.6,87 -106.32,173.35 -161.35,258.85 1.79,-69 -4.6,-138.67 4.69,-207.29 2.16,-21.56 25.41,-27.56 41.26,-36.75 -0.75,-3.56 -2.17,-10.59 -2.92,-14.16 -84.75,0.85 -169.59,-1.31 -254.34,1.31 7.97,17.82 27.19,21.01 43.6,26.91 -5.91,28.5 -13.79,56.54 -22.88,84.1 -31.59,0.28 -63.09,0.18 -94.59,0.18 -8.34,-27.56 -14.82,-55.68 -18.94,-84.37 13.88,-3.66 27.84,-7.22 41.82,-10.97 -0.67,-4.31 -1.97,-12.93 -2.73,-17.25 -112.96,0.09 -225.93,0.47 -338.99,-0.09 -0.66,4.03 -2.07,12.19 -2.81,16.22 13.31,3.85 26.62,7.59 39.93,11.53 1.5,92.34 1.31,184.78 0.18,277.12 -12.37,5.16 -24.74,10.22 -37.21,15.1 -1.04,4.12 -3.01,12.18 -4.03,16.31 v 0" /><path
             id="path94"
             style="fill:#fdfdfb;fill-opacity:1;fill-rule:nonzero;stroke:none"
             d="m 4915.88,3147.1 c 63.18,-3.47 128.71,8.72 190.4,-8.72 110.44,-41.44 126.38,-201.19 54.84,-284.06 -37.97,-37.6 -94.6,-45.38 -145.68,-43.97 -36.01,2.07 -74.53,-6.66 -107.81,10.87 14.53,5.63 29.15,10.87 43.96,15.76 4.41,85.5 2.06,171.27 2.16,256.77 5.16,23.63 -19.49,30.1 -35.25,39.29 -0.65,3.56 -1.98,10.59 -2.62,14.06 v 0" /><path
             id="path96"
             style="fill:#31469b;fill-opacity:1;fill-rule:nonzero;stroke:none"
             d="m 1230.09,3128.35 c 21.19,13.97 49.41,3.74 63.28,-15.66 28.23,-37.59 27.57,-87 29.34,-131.72 -0.74,-46.78 -2.34,-97.4 -29.43,-137.44 -23.62,-32.7 -79.22,-21.28 -90.47,16.6 -22.78,64.21 -22.03,134.9 -10.22,201.37 5.54,24.85 12.38,54.66 37.5,66.85 v 0" /><path
             id="path98"
             style="fill:#31469b;fill-opacity:1;fill-rule:nonzero;stroke:none"
             d="m 1523.25,3128.35 c 21.94,-2.72 49.22,-1.78 61.5,-24.28 17.06,-30.28 15,-71.44 -4.03,-100.41 -11.62,-20.25 -37.59,-18.27 -57.47,-22.12 -0.84,48.93 -0.65,97.87 0,146.81 v 0" /><path
             id="path100"
             style="fill:#31469b;fill-opacity:1;fill-rule:nonzero;stroke:none"
             d="m 2701.97,3128.82 c 24.09,-3.66 55.87,-5.91 65.72,-32.91 9.47,-29.06 8.9,-64.03 -7.22,-90.75 -12.56,-19.5 -38.16,-19.5 -58.5,-23.44 -0.94,49.04 -0.66,98.07 0,147.1 v 0" /><path
             id="path102"
             style="fill:#31469b;fill-opacity:1;fill-rule:nonzero;stroke:none"
             d="m 3584.63,3129.75 c 25.12,-5.62 59.53,-8.71 67.3,-38.52 5.91,-30.19 7.33,-66.01 -13.31,-91.14 -13.78,-14.81 -35.81,-14.62 -54.09,-18.92 -1.6,49.49 -1.78,99.08 0.1,148.58 v 0" /><path
             id="path104"
             style="fill:#31469b;fill-opacity:1;fill-rule:nonzero;stroke:none"
             d="m 5018.72,2868 c -0.47,86.54 -0.47,173.16 0.28,259.7 37.41,2.52 77.62,-11.07 93.84,-47.63 24,-68.16 25.32,-146.44 -0.84,-214.22 -13.31,-40.03 -96.56,-52.12 -93.28,2.15 v 0" /><path
             id="path106"
             style="fill:#31469b;fill-opacity:1;fill-rule:nonzero;stroke:none"
             d="m 4381.41,2946.85 c 13.96,39.76 26.25,80.15 40.41,119.81 11.43,-40.59 25.03,-80.43 38.15,-120.47 -26.26,0.38 -52.41,0.47 -78.56,0.66 v 0" /><path
             id="path108"
             style="fill:#fdfdfb;fill-opacity:1;fill-rule:nonzero;stroke:none"
             d="m 4466.9,2432.07 c 210.67,12.38 422.35,8.15 633.38,12.47 -51.18,-184.41 -119.06,-365.16 -215.9,-530.81 C 4590.57,1390.32 4069.03,999.852 3482.44,870.289 3376.79,841.781 3267.66,832.121 3159.09,821.82 c -162.19,-11.351 -325.22,-3.851 -486.28,17.621 -353.25,55.789 -693.09,197.339 -978,414.189 -236.44,178.49 -435.56,406.12 -580.59,664.6 -94.22,162.94 -161.72,339.93 -211.693,521.06 210.003,-4.6 420.103,-7.22 630.193,-7.41 28.03,-57.47 47.53,-118.78 79.22,-174.38 187.03,-367.21 525.28,-654.84 919.22,-777 92.25,-25.96 185.06,-52.68 280.87,-61.12 199.6,-19.49 404.35,-12.37 597.84,44.06 419.35,110.53 782.82,408.66 979.51,794.44 32.61,55.04 49.5,117.18 77.52,174.19 v 0" /><path
             id="path110"
             style="fill:#31469b;fill-opacity:1;fill-rule:nonzero;stroke:none"
             d="m 4486.88,2157.09 c 4.5,-1.5 13.59,-4.59 18.09,-6.08 -6.65,-17.35 -13.79,-34.69 -17.81,-52.98 11.25,-23.14 33.85,-37.12 53.81,-51.93 79.78,-58.04 162.94,-111.47 240.94,-171.85 -12.47,-5.34 -23.91,-14.99 -38.16,-14.81 -125.72,-3.27 -251.34,-8.06 -376.97,-10.3 47.54,-35.54 97.51,-67.6 145.5,-102.57 23.16,-14.82 45.01,-32.91 71.54,-41.44 33.18,-12.65 49.4,42.37 83.71,25.4 -31.59,-45.55 -62.43,-91.69 -95.71,-136.02 -4.6,1.68 -13.78,4.87 -18.38,6.46 5.82,19.5 15,38.72 15.19,59.35 -20.82,30.09 -54.1,48.19 -82.78,69.74 -49.32,32.36 -94.41,71.25 -146.63,98.82 -29.73,13.98 -55.4,-11.43 -77.62,-27.57 -6.1,3.57 -12.1,7.23 -18.1,10.78 22.5,31.14 45.28,62.16 66.74,94.05 123.01,3.08 245.92,4.3 368.82,9.18 -69.09,41.16 -129,97.03 -201.28,132.84 -32.81,20.71 -51.47,-46.59 -80.44,-21.93 25.5,46.31 59.54,87.37 89.54,130.86 v 0" /><path
             id="path112"
             style="fill:#31469b;fill-opacity:1;fill-rule:nonzero;stroke:none"
             d="m 1237.59,2076.28 c 116.91,11.17 231.57,41.35 348.85,48.84 0.65,-4.96 1.87,-14.9 2.53,-19.87 -50.63,-64.78 -103.22,-128.06 -153.84,-192.93 -23.63,-31.41 -53.16,-58.78 -71.16,-94.12 -2.81,-21.1 0.09,-42.47 -1.31,-63.85 -40.03,39.75 -56.54,95.71 -88.22,141.47 4.03,3.09 12.19,9.18 16.21,12.28 11.82,-12.94 23.82,-25.78 36.38,-38.15 21.94,26.24 43.6,52.77 66.1,78.55 -18.94,38.25 -41.91,74.35 -61.5,112.22 -31.79,-2.24 -63.19,-8.43 -93.19,-19.22 1.97,-24.37 11.81,-49.86 1.03,-73.68 -30,44.06 -55.5,91.31 -75.84,140.44 28.03,-3.75 44.53,-35.26 73.96,-31.98 v 0" /><path
             id="path114"
             style="fill:#fdfdfb;fill-opacity:1;fill-rule:nonzero;stroke:none"
             d="m 1358.25,2065.41 c 49.13,7.41 98.06,16.03 147.09,23.81 -33.46,-38.06 -63.09,-79.4 -95.53,-118.31 -16.68,31.78 -33.37,63.66 -51.56,94.5 v 0" /><path
             id="path116"
             style="fill:#31469b;fill-opacity:1;fill-rule:nonzero;stroke:none"
             d="m 1596.93,1800.94 c 8.26,63.65 82.79,106.32 141.95,80.91 49.4,-14.16 78.18,-61.31 91.12,-108.1 6.37,-1.12 19.22,-3.28 25.69,-4.3 2.06,-3.94 6.28,-11.82 8.34,-15.66 -32.53,-25.78 -58.31,-58.97 -91.78,-83.63 -3.66,1.97 -11.06,6 -14.72,7.97 9.56,35.16 34.22,66 35.06,103.31 -4.96,34.03 -30.28,72.84 -68.06,73.31 -26.53,3.1 -47.16,-19.5 -58.03,-41.05 -11.44,-34.79 8.53,-68.82 20.91,-100.41 17.43,-40.13 31.21,-88.13 11.53,-130.03 -25.22,-45.09 -84,-66.57 -132.94,-51.48 -59.53,12.67 -95.16,70.13 -113.71,123.75 -13.13,3.85 -26.16,7.7 -39.29,11.63 32.25,35.25 66,69.09 102,100.5 15.84,-27.84 -8.91,-53.25 -14.91,-80.07 -18.19,-49.3 10.41,-109.77 59.91,-126.56 48.28,-11.25 94.97,43.22 81.46,89.81 -13.12,50.44 -48.93,95.82 -44.53,150.1 v 0" /><path
             id="path118"
             style="fill:#31469b;fill-opacity:1;fill-rule:nonzero;stroke:none"
             d="m 4147.69,1728.66 c 118.31,44.63 243.19,-57.65 266.71,-171.74 23.91,-100.51 -56.25,-208.89 -158.52,-218.08 -137.63,-16.4 -260.25,133.32 -223.13,265.13 12.56,58.42 61.41,102.66 114.94,124.69 v 0" /><path
             id="path120"
             style="fill:#fdfdfb;fill-opacity:1;fill-rule:nonzero;stroke:none"
             d="m 4146.09,1694.82 c 47.91,16.41 95.81,-12.56 131.25,-42.66 41.44,-42.56 82.04,-91.69 90.75,-152.53 10.41,-46.22 -15.83,-96.56 -59.61,-114.75 -44.08,-24.38 -94.6,-0.28 -130.51,27.37 -50.07,42.19 -90.84,99 -104.82,163.59 -10.59,51.48 22.89,104.72 72.94,118.98 v 0" /><path
             id="path122"
             style="fill:#31469b;fill-opacity:1;fill-rule:nonzero;stroke:none"
             d="m 1824.38,1566.38 c -7.97,58.97 48.46,115.13 107.34,109.04 58.22,0.45 102.28,-45.95 124.22,-95.91 13.5,-1.04 28.49,-0.19 37.12,-13.04 -22.12,-33.1 -49.5,-62.15 -73.03,-94.12 -5.53,1.21 -16.5,3.75 -21.94,4.97 11.63,36.93 30.76,75.84 18.66,115.21 -12.19,29.54 -43.5,52.88 -76.03,50.91 -32.91,-2.72 -55.13,-37.13 -50.91,-68.44 10.32,-61.22 72.47,-103.59 69.1,-168.56 3.46,-45.56 -36.28,-80.06 -75.19,-94.77 -75.56,-22.69 -152.16,33.09 -180.94,100.95 -14.63,2.73 -29.16,5.54 -43.68,8.45 26.62,36.28 54.18,71.9 81.47,107.62 7.4,-4.78 14.43,-10.02 21.09,-15.75 -14.16,-33.66 -29.16,-71.81 -15.19,-108.19 10.13,-36.75 43.5,-64.49 81.56,-67.68 41.63,1.3 76.41,45.75 64.41,86.34 -16.5,50.44 -62.25,88.31 -68.06,142.97 v 0" /><path
             id="path124"
             style="fill:#31469b;fill-opacity:1;fill-rule:nonzero;stroke:none"
             d="m 3783,1465.69 c 46.87,30.75 92.25,64.97 143.25,88.97 -2.06,-22.51 -20.34,-37.13 -31.6,-55.21 12.94,-45.95 41.91,-85.41 64.41,-127.13 26.62,-45.94 47.35,-96.09 81.28,-137.53 18.75,2.53 37.03,8.15 55.87,10.68 2.26,-21.36 -21.74,-26.9 -35.05,-37.88 -36.94,-21.09 -69.2,-55.02 -112.78,-61.4 12.27,18.38 26.71,35.06 40.59,52.22 -43.03,85.88 -91.23,169.22 -139.31,252.29 -11.82,31.39 -62.63,-21.19 -66.66,14.99 v 0" /><path
             id="path126"
             style="fill:#31469b;fill-opacity:1;fill-rule:nonzero;stroke:none"
             d="m 2179.5,1465.03 c 58.41,17.9 124.31,4.88 172.79,-31.87 59.9,-39.46 85.86,-119.43 68.24,-187.87 -11.34,-40.31 -28.87,-80.26 -59.72,-109.6 -82.22,-88.97 -249.56,-71.15 -307.87,36.47 -63.85,108.47 10.69,258 126.56,292.87 v 0" /><path
             id="path128"
             style="fill:#fdfdfb;fill-opacity:1;fill-rule:nonzero;stroke:none"
             d="m 2218.97,1434.19 c 37.97,15.56 82.5,4.13 113.72,-20.82 31.97,-30.18 40.22,-78.27 29.9,-119.7 -17.06,-68.64 -50.06,-140.45 -115.5,-174.76 -55.87,-29.73 -131.9,1.96 -152.81,60.75 -16.31,51 2.06,104.92 25.03,150.76 23.44,42.08 51.47,87.37 99.66,103.77 v 0" /><path
             id="path130"
             style="fill:#31469b;fill-opacity:1;fill-rule:nonzero;stroke:none"
             d="m 3420.2,1338.47 c 103.12,33.75 203.79,74.53 306.18,110.44 12.18,-31.49 24.18,-63 36,-94.69 -5.53,-2.99 -10.97,-6.09 -16.4,-9.27 -21.48,20.52 -41.63,44.43 -70.42,54.56 -23.44,-0.95 -45.28,-10.5 -67.31,-17.25 24.19,-64.88 49.12,-129.47 70.4,-195.48 13.51,-34.21 21.57,-71.43 43.04,-101.9 20.72,-2.25 41.53,0.28 62.34,0.84 -0.38,-4.41 -1.03,-13.22 -1.4,-17.63 -55.4,-20.43 -110.64,-41.05 -166.69,-59.43 -1.32,4.13 -3.85,12.56 -5.16,16.69 16.88,10.04 35.81,17.99 48.85,33.28 -1.88,27 -15.01,51.47 -23.54,76.69 -29.62,74.53 -52.31,151.4 -81.93,225.93 -20.25,-8.43 -43.13,-12.92 -60.19,-27.37 -18.1,-26.73 -18,-60.18 -20.82,-91.13 -4.49,-0.47 -13.49,-1.4 -17.99,-1.87 -12.01,32.45 -24.38,64.68 -34.96,97.59 v 0" /><path
             id="path132"
             style="fill:#31469b;fill-opacity:1;fill-rule:nonzero;stroke:none"
             d="m 2599.4,1311 c 57.2,26.45 126.76,19.59 179.54,-14.06 17.43,-14.72 39.19,-0.09 58.4,1.79 -6.84,-45.48 -13.87,-91.03 -19.97,-136.69 -8.62,0.93 -17.15,1.69 -25.59,2.34 -5.81,38.06 -8.91,80.71 -36.47,110.34 -48.28,44.15 -134.72,26.82 -165.37,-30.1 -42.56,-69.18 -58.6,-167.05 -6,-235.49 28.4,-43.028 87.94,-53.251 134.53,-38.81 30.56,8.821 51.28,34.87 69.38,59.34 5.34,-3.76 16.11,-11.16 21.47,-14.9 -29.45,-43.408 -75.1,-78.088 -129.1,-80.819 -65.43,-3.839 -138.47,24.469 -171.47,83.809 -60.37,98.35 -17.16,247.79 90.65,293.25 v 0" /><path
             id="path134"
             style="fill:#31469b;fill-opacity:1;fill-rule:nonzero;stroke:none"
             d="m 3236.35,1306.23 c 6.18,0.28 18.45,0.75 24.56,0.92 52.6,-95.8 108.28,-189.84 162,-284.99 11.05,-24.66 37.97,-30.84 61.88,-36.101 0.18,-4.11 0.37,-12.36 0.55,-16.411 -53.43,-3.828 -105.94,-15.367 -159.47,-18.168 9.84,20.622 33.09,24.93 51.47,34.122 -14.9,29.808 -31.22,58.968 -46.31,88.588 -42.47,-5.35 -84.85,-10.87 -127.12,-17.24 -6.48,-30.57 -12.56,-61.321 -13.51,-92.731 18.95,-2.61 37.98,-4.867 57.1,-6.93 0,-4.879 0.1,-14.629 0.19,-19.5 -49.14,-4.969 -97.69,-16.219 -147.28,-15.937 14.35,25.308 52.22,30.468 57.37,61.589 28.04,107.159 54.94,214.589 78.57,322.789 v 0" /><path
             id="path136"
             style="fill:#31469b;fill-opacity:1;fill-rule:nonzero;stroke:none"
             d="m 2898.19,1294.04 c 49.69,0.94 99.37,1.22 149.06,0.18 12.94,1.51 24,-3.75 32.81,-13.02 -18.84,-6.11 -38.54,-9.57 -56.62,-17.63 -8.82,-26.53 -5.81,-55.03 -6.56,-82.6 0.75,-69.09 -2.35,-138.37 -0.19,-207.56 1.5,-26.898 34.78,-25.219 53.71,-32.898 0.28,-4.313 0.75,-12.942 1.04,-17.16 -56.44,-1.692 -112.88,0.277 -169.22,-0.09 -0.1,4.777 -0.28,14.328 -0.38,19.117 18.29,3.66 36.57,7.402 54.84,11.441 3.57,101.91 4.88,204 2.45,305.81 -21.28,9.56 -48.1,12.47 -60.94,34.41 v 0" /><path
             id="path138"
             style="fill:#fdfdfb;fill-opacity:1;fill-rule:nonzero;stroke:none"
             d="m 3243,1222.97 c 26.16,-41.05 48.38,-84.37 72.74,-126.56 -34.96,-2.63 -69.73,-6.65 -104.33,-12.37 11.06,46.21 19.87,92.9 31.59,138.93 v 0" /><path
             id="path140"
             style="fill:#31469b;fill-opacity:1;fill-rule:nonzero;stroke:none"
             d="m 3224.25,689.82 c 69.75,8.711 139.22,19.68 209.06,28.782 33.18,-208.321 105.09,-412.231 221.53,-588.942 -432.85,0.469 -865.78,0.371 -1298.72,0.09 115.13,177.289 188.06,380.352 221.25,588.66 100.22,-12.379 199.79,-30.75 300.66,-37.969 115.31,-5.441 231.57,-5.992 346.22,9.379 v 0" /><path
             id="path142"
             style="fill:#f8d03f;fill-opacity:1;fill-rule:nonzero;stroke:none"
             d="m 2974.4,622.781 c 26.54,7.688 59.16,16.789 82.6,-3.472 14.53,-20.809 -0.09,-46.02 -5.44,-67.68 -14.25,-38.707 -15,-80.617 -11.35,-121.41 45.39,21.011 76.89,60.472 114.66,91.601 19.88,19.032 55.13,19.68 71.72,-3.929 25.87,-29.262 15.48,-71.352 3.47,-104.45 13.13,-33 22.4,-75.941 -4.69,-104.722 -16.02,-21.938 -50.43,-21.098 -69.56,-3.66 -31.12,26.171 -57.09,58.312 -91.78,80.363 20.81,-48.203 70.5,-79.891 81.19,-132.57 9.84,-53.442 -57.28,-95.442 -102.48,-67.223 -29.52,17.723 -57.93,-17.16 -88.68,-7.129 -26.99,5.629 -53.43,25.781 -52.22,55.969 -8.15,60.011 52.69,91.691 73.41,141.293 -38.35,-20.91 -63.18,-58.68 -99.75,-81.571 -28.6,-15.839 -59.9,7.879 -70.03,34.688 -13.5,27.371 -0.28,57.18 8.44,83.621 -16.69,37.129 -23.34,92.16 18.65,115.031 37.41,19.969 69.28,-15.371 92.63,-40.109 22.41,-23.543 49.68,-41.551 77.52,-57.953 -0.18,42.293 -3.55,85.043 -17.15,125.25 -7.78,21.941 -10.97,45 -11.16,68.062 v 0" /></g></g></g></g></svg>