<?xml version="1.0" encoding="UTF-8" standalone="no"?>
<svg
   xmlns:dc="http://purl.org/dc/elements/1.1/"
   xmlns:cc="http://creativecommons.org/ns#"
   xmlns:rdf="http://www.w3.org/1999/02/22-rdf-syntax-ns#"
   xmlns:svg="http://www.w3.org/2000/svg"
   xmlns="http://www.w3.org/2000/svg"
   viewBox="0 0 800 800"
   height="800"
   width="800"
   xml:space="preserve"
   id="svg2"
   version="1.1"><metadata
     id="metadata8"><rdf:RDF><cc:Work
         rdf:about=""><dc:format>image/svg+xml</dc:format><dc:type
           rdf:resource="http://purl.org/dc/dcmitype/StillImage" /></cc:Work></rdf:RDF></metadata><defs
     id="defs6" /><g
     transform="matrix(1.3333333,0,0,-1.3333333,0,800)"
     id="g10"><g
       transform="scale(0.1)"
       id="g12"><path
         id="path14"
         style="fill:#ffffff;fill-opacity:1;fill-rule:nonzero;stroke:none"
         d="m 0,6000 h 2990.62 c -566,-2.92 -1130.46,-167.69 -1606.01,-475.07 C 818.773,5163.54 380.004,4607.24 163.227,3971.54 58.9258,3670.92 6.30859,3353.7 0,3035.85 V 6000" /><path
         id="path16"
         style="fill:#100f0d;fill-opacity:1;fill-rule:nonzero;stroke:none"
         d="m 2990.62,6000 h 60.3 C 3645.39,5990.77 4236,5802.77 4722.77,5460.92 5123.38,5182 5454.77,4803.99 5678.15,4369.85 5857.54,4022.77 5967.24,3640 6000,3250.77 V 2734 C 5959.07,2258.93 5803.54,1794 5548,1391.39 5309.84,1013.69 4986.31,690.16 4608.61,452 4205.69,196.309 3740.31,40.6094 3264.92,0 H 2738.15 C 2174.31,50.7617 1625.85,262.922 1177.54,609.07 782.152,911.84 463.695,1314.15 260.922,1768.93 93.8477,2140.16 7.23828,2545.85 0,2952.46 v 83.39 c 6.30859,317.85 58.9258,635.07 163.227,935.69 216.777,635.7 655.546,1192 1221.383,1553.39 475.55,307.38 1040.01,472.15 1606.01,475.07 v 0" /><path
         id="path18"
         style="fill:#ffffff;fill-opacity:1;fill-rule:nonzero;stroke:none"
         d="M 3050.92,6000 H 6000 V 3250.77 c -32.76,389.23 -142.46,772 -321.85,1119.08 C 5454.77,4803.99 5123.38,5182 4722.77,5460.92 4236,5802.77 3645.39,5990.77 3050.92,6000 v 0" /><path
         id="path20"
         style="fill:#ffffff;fill-opacity:1;fill-rule:nonzero;stroke:none"
         d="m 2791.24,5885.08 c 41.99,45.54 111.99,-26.15 67.69,-67.7 -41.55,-45.53 -114.32,25.7 -67.69,67.7 v 0" /><path
         id="path22"
         style="fill:#ffffff;fill-opacity:1;fill-rule:nonzero;stroke:none"
         d="m 2975.23,5888.15 c 21.23,27.24 69.55,18.47 80.32,-14.15 18.61,-39.08 -32.47,-83.23 -68.01,-58.46 -26.15,12.76 -32.46,51.84 -12.31,72.61 v 0" /><path
         id="path24"
         style="fill:#ffffff;fill-opacity:1;fill-rule:nonzero;stroke:none"
         d="m 3173.38,5890.93 c 50.93,35.23 102.93,-52.47 48.93,-81.39 -51.24,-35.39 -104.61,53.23 -48.93,81.39 v 0" /><path
         id="path26"
         style="fill:#ffffff;fill-opacity:1;fill-rule:nonzero;stroke:none"
         d="m 2618.31,5876.16 c 58.46,32 99.84,-71.55 35.23,-88.31 -53.54,-20.62 -88.31,65.85 -35.23,88.31 v 0" /><path
         id="path28"
         style="fill:#ffffff;fill-opacity:1;fill-rule:nonzero;stroke:none"
         d="m 3358.15,5872.46 c 50.62,34 103.39,-50 50.92,-80.46 -50.61,-38.15 -105.99,50.93 -50.92,80.46 v 0" /><path
         id="path30"
         style="fill:#ffffff;fill-opacity:1;fill-rule:nonzero;stroke:none"
         d="m 2434.46,5846.46 c 30.62,15.84 70.31,-10 68.46,-44.3 1.07,-37.24 -47.23,-60.78 -76.15,-37.7 -28.77,19.54 -24.3,68 7.69,82 v 0" /><path
         id="path32"
         style="fill:#ffffff;fill-opacity:1;fill-rule:nonzero;stroke:none"
         d="m 3542.61,5841.85 c 49.4,33.69 102.46,-48.92 51.55,-79.85 -50.32,-40 -108.47,49.85 -51.55,79.85 v 0" /><path
         id="path34"
         style="fill:#ffffff;fill-opacity:1;fill-rule:nonzero;stroke:none"
         d="m 2238.46,5793.85 c 37.39,44.3 108.93,-14.62 74.15,-59.85 -35.69,-56.31 -121.54,13.39 -74.15,59.85 v 0" /><path
         id="path36"
         style="fill:#ffffff;fill-opacity:1;fill-rule:nonzero;stroke:none"
         d="m 3724.61,5800.15 c 50.17,30.47 101.7,-49.84 51.08,-81.07 -51.7,-39.08 -107.99,50.15 -51.08,81.07 v 0" /><path
         id="path38"
         style="fill:#ffffff;fill-opacity:1;fill-rule:nonzero;stroke:none"
         d="m 2067.38,5746.01 c 28.92,24.29 77.08,-1.7 75.38,-38.78 1.24,-32.3 -36.14,-57.69 -65.38,-43.84 -34.46,11.07 -40.92,63.54 -10,82.62 v 0" /><path
         id="path40"
         style="fill:#ffffff;fill-opacity:1;fill-rule:nonzero;stroke:none"
         d="m 3887.23,5729.84 c 29.07,51.55 114,0.46 81.08,-49.22 -28,-58.31 -119.7,-2.16 -81.08,49.22 v 0" /><path
         id="path42"
         style="fill:#ffffff;fill-opacity:1;fill-rule:nonzero;stroke:none"
         d="m 1898,5684.46 c 49.23,29.85 98.61,-49.85 50.31,-80.61 -51.85,-42.16 -110.16,52.3 -50.31,80.61 v 0" /><path
         id="path44"
         style="fill:#ffffff;fill-opacity:1;fill-rule:nonzero;stroke:none"
         d="m 4067.08,5671.23 c 42.31,46.46 113.69,-27.07 67.38,-68.15 -41.69,-43.69 -112.76,26 -67.38,68.15 v 0" /><path
         id="path46"
         style="fill:#ffffff;fill-opacity:1;fill-rule:nonzero;stroke:none"
         d="m 2747.23,5648.15 c 502.62,48.93 1019.07,-46.61 1468.62,-277.53 C 4713.07,5118.15 5126.78,4705.23 5380,4208.46 5604.61,3772.62 5702.76,3273.54 5663.85,2784.91 5628.15,2310.92 5461.24,1848 5186.61,1460.01 4910.77,1067.38 4527.07,751.391 4088.46,556.922 3638.93,355.84 3132.62,285.691 2644.92,352.152 2094.46,425.082 1570.3,678.012 1169.08,1061.39 797.844,1412.92 530.77,1873.54 412.613,2371.07 284.922,2902.93 324.617,3474.31 528.461,3982.15 746.77,4532.77 1155.54,5004.93 1668.31,5301.38 c 328.92,191.7 699.84,310.62 1078.92,346.77 v 0" /><path
         id="path48"
         style="fill:#ffffff;fill-opacity:1;fill-rule:nonzero;stroke:none"
         d="m 1729.23,5608.46 c 56.46,30.93 98.15,-64.77 39.69,-87.38 -54.61,-25.24 -94.61,63.53 -39.69,87.38 v 0" /><path
         id="path50"
         style="fill:#ffffff;fill-opacity:1;fill-rule:nonzero;stroke:none"
         d="m 4236.61,5593.85 c 25.55,28.46 77.08,10.76 81.7,-26.47 7.7,-38.77 -41.85,-71.08 -73.53,-46.92 -25.7,14.31 -28.93,53.38 -8.17,73.39 v 0" /><path
         id="path52"
         style="fill:#ffffff;fill-opacity:1;fill-rule:nonzero;stroke:none"
         d="m 1558.15,5517.54 c 51.08,38.61 107.85,-50 52.01,-80 -49.39,-34.77 -102.32,48.15 -52.01,80 v 0" /><path
         id="path54"
         style="fill:#100f0d;fill-opacity:1;fill-rule:nonzero;stroke:none"
         d="m 2790.46,5514 c 76.92,20.46 170.31,-16.46 197.85,-94.62 24.14,-69.23 27.99,-156.3 -21.08,-215.84 -66,-77.23 -203.39,-78.31 -265.85,3.84 -70.61,99.24 -47.53,280.32 89.08,306.62 v 0" /><path
         id="path56"
         style="fill:#100f0d;fill-opacity:1;fill-rule:nonzero;stroke:none"
         d="m 3082.92,5521.54 c 36.01,-3.39 72.01,-6.77 108.01,-10.15 12.61,-95.54 25.07,-191.09 38,-286.62 30.3,91.38 60,183.07 90,274.46 35.53,-3.39 71.23,-6.61 106.91,-10 -11.22,-117.84 -22.15,-235.69 -33.54,-353.54 -23.07,2.16 -45.99,4.15 -68.92,6.31 9.24,99.54 19.08,199.07 27.85,298.62 -31.53,-97.24 -63.07,-194.61 -94.45,-292 -24.31,2.15 -48.47,4.46 -72.63,6.61 -12.77,101.39 -23.69,202.93 -37.84,304 -8.61,-99.23 -18.47,-198.46 -27.84,-297.84 -17.24,1.69 -51.56,4.92 -68.77,6.61 11.07,117.85 22.15,235.7 33.22,353.54 v 0" /><path
         id="path58"
         style="fill:#ffffff;fill-opacity:1;fill-rule:nonzero;stroke:none"
         d="m 4395.07,5497.7 c 29.39,51.99 112.92,1.99 82.47,-48.62 -28.62,-57.39 -119.84,-3.85 -82.47,48.62 v 0" /><path
         id="path60"
         style="fill:#100f0d;fill-opacity:1;fill-rule:nonzero;stroke:none"
         d="m 2287.54,5414.93 c 73.38,14.15 145.08,41.07 220,44.61 81.84,-2.77 120,-118.16 57.23,-170.31 72.15,-17.69 46.3,-111.23 94.46,-152.3 -27.54,-6.01 -55.07,-12.47 -82.61,-19.08 -18.16,38.3 -19.24,86.15 -45.7,119.23 -40.46,13.38 -82.92,-10.01 -123.23,-16.16 10.62,-45.07 21.08,-90.15 31.69,-135.22 -23.69,-5.39 -47.22,-10.93 -70.77,-16.47 -27.07,115.23 -53.99,230.46 -81.07,345.7 v 0" /><path
         id="path62"
         style="fill:#ffffff;fill-opacity:1;fill-rule:nonzero;stroke:none"
         d="m 2806.62,5453.08 c 99.07,27.38 144.3,-98.16 118.76,-175.08 -13.23,-71.69 -117.84,-94.92 -159.69,-35.23 -42.46,62.77 -44.92,183.23 40.93,210.31 v 0" /><path
         id="path64"
         style="fill:#100f0d;fill-opacity:1;fill-rule:nonzero;stroke:none"
         d="m 3411.39,5132 c 71.23,103.54 142.3,207.08 213.53,310.62 27.54,-7.39 55.24,-14.62 82.78,-22 9.83,-125.08 19.84,-250.32 29.68,-375.39 -25.99,6.93 -52.15,13.7 -77.99,20.62 -1.08,25.53 -2.16,51.08 -3.08,76.46 -42.16,11.39 -84.32,22.61 -126.46,34 -14.47,-21.54 -28.77,-43.08 -43.24,-64.62 -25.07,6.78 -50.15,13.54 -75.22,20.31 v 0" /><path
         id="path66"
         style="fill:#ffffff;fill-opacity:1;fill-rule:nonzero;stroke:none"
         d="m 1390.77,5411.08 c 37.23,47.54 113.08,-14.93 74,-60.31 -36.16,-52.46 -117.38,14.16 -74,60.31 v 0" /><path
         id="path68"
         style="fill:#ffffff;fill-opacity:1;fill-rule:nonzero;stroke:none"
         d="m 4560.16,5408 c 25.37,26.16 74.16,9.69 79.83,-25.54 8.01,-30.92 -22.75,-62.76 -53.84,-56.15 -38.61,3.23 -55.08,56.46 -25.99,81.69 v 0" /><path
         id="path70"
         style="fill:#ffffff;fill-opacity:1;fill-rule:nonzero;stroke:none"
         d="m 2372.46,5371.85 c 34.62,7.85 68.92,18.15 104.31,22.46 44.46,9.39 68.77,-65.23 28.77,-84.62 -35.38,-15.84 -74.31,-20.92 -111.69,-30.3 -7.08,30.92 -14.31,61.68 -21.39,92.46 v 0" /><path
         id="path72"
         style="fill:#ffffff;fill-opacity:1;fill-rule:nonzero;stroke:none"
         d="m 3645.23,5355.84 c 2.46,-49.53 4.62,-99.07 6.62,-148.77 -29.08,7.86 -58.16,15.54 -87.23,23.39 26.77,41.85 53.69,83.69 80.61,125.38 v 0" /><path
         id="path74"
         style="fill:#100f0d;fill-opacity:1;fill-rule:nonzero;stroke:none"
         d="m 3899.53,5361.39 c 23.85,-10.47 47.71,-20.93 71.7,-31.39 9.84,-94.92 19.38,-190 29.69,-284.92 33.7,75.84 66.61,152 100,228 21.24,-9.38 42.47,-18.77 63.7,-28.31 -47.85,-108.31 -95.69,-216.77 -143.55,-325.23 -22.6,10.16 -45.06,20.3 -67.69,30.46 -10.3,97.23 -20.62,194.61 -31.07,291.85 -34,-77.85 -68.32,-155.55 -102.78,-233.23 -21.06,9.38 -42.14,18.61 -63.22,27.84 47.84,108.31 95.69,216.62 143.22,324.93 v 0" /><path
         id="path76"
         style="fill:#ffffff;fill-opacity:1;fill-rule:nonzero;stroke:none"
         d="m 1253.39,5313.84 c 32.77,19.7 78.61,-14.3 68.46,-51.38 -4.93,-31.38 -44.77,-49.69 -71.7,-31.84 -30.77,17.53 -29.69,68.92 3.24,83.22 v 0" /><path
         id="path78"
         style="fill:#ffffff;fill-opacity:1;fill-rule:nonzero;stroke:none"
         d="m 4713.07,5299.85 c 32.78,34.46 96,-8.62 76.47,-52.01 -10.61,-34 -61.24,-42.76 -81.84,-13.69 -17.54,18.01 -13.54,50.01 5.37,65.7 v 0" /><path
         id="path80"
         style="fill:#100f0d;fill-opacity:1;fill-rule:nonzero;stroke:none"
         d="m 1915.08,5266.77 c 25.85,12 51.69,24 77.54,36 87.53,-90 174.92,-179.84 262.46,-269.84 -24,-11.08 -47.84,-22.31 -71.39,-34.16 -18.3,18.46 -35.69,37.84 -53.07,57.07 -39.55,-18.3 -79.08,-36.76 -118.77,-55.07 2.61,-25.54 5.38,-51.23 8,-76.77 -23.55,-10.92 -47.08,-21.7 -70.62,-32.62 -11.53,125.08 -22.92,250.31 -34.15,375.39 v 0" /><path
         id="path82"
         style="fill:#ffffff;fill-opacity:1;fill-rule:nonzero;stroke:none"
         d="m 1986.3,5212.77 c 33.39,-36.61 66.62,-73.38 100,-110 -27.54,-12.62 -54.91,-25.23 -82.31,-37.84 -5.84,49.22 -11.83,98.46 -17.69,147.84 v 0" /><path
         id="path84"
         style="fill:#ffffff;fill-opacity:1;fill-rule:nonzero;stroke:none"
         d="m 1110.46,5197.39 c 35.38,18.15 80.61,-20.93 65.39,-58.46 -8.77,-37.24 -65.69,-45.08 -84.47,-11.7 -17.54,22.92 -6.31,58.46 19.08,70.16 v 0" /><path
         id="path86"
         style="fill:#ffffff;fill-opacity:1;fill-rule:nonzero;stroke:none"
         d="m 4853.85,5178.3 c 28.01,34.32 88.76,5.24 82.15,-37.37 -1.09,-33.55 -45.23,-56.01 -72,-35.7 -26.77,13.38 -31.24,52.77 -10.15,73.07 v 0" /><path
         id="path88"
         style="fill:#100f0d;fill-opacity:1;fill-rule:nonzero;stroke:none"
         d="m 1686.46,5141.38 c 21.23,12.62 42.46,25.39 63.69,38.01 60.47,-101.7 121.39,-203.23 182,-304.93 -21.23,-12.77 -42.46,-25.38 -63.68,-38.16 -60.93,101.55 -121.39,203.39 -182.01,305.08 v 0" /><path
         id="path90"
         style="fill:#100f0d;fill-opacity:1;fill-rule:nonzero;stroke:none"
         d="m 4031.86,4916.15 c 98.91,77.54 197.83,155.08 296.91,232.62 23.99,-15.23 48.15,-30.47 72.15,-45.69 -27.84,-122.46 -56,-244.77 -84.01,-367.08 -22.75,14.46 -45.68,28.77 -68.44,43.08 6.91,24.15 13.83,48.15 20.91,72.3 -36.46,24.93 -73.99,48.47 -111.68,71.7 -20,-16.16 -39.85,-32.31 -59.7,-48.62 -22.16,14 -44.15,27.84 -66.14,41.69 v 0" /><path
         id="path92"
         style="fill:#100f0d;fill-opacity:1;fill-rule:nonzero;stroke:none"
         d="m 1414.93,4952.92 c 77.83,56.47 155.84,112.93 233.84,169.23 12.31,-16.92 24.61,-33.84 36.92,-50.92 -29.07,-20.92 -58,-41.84 -86.92,-62.77 56.92,-78.92 114.15,-157.84 171.39,-236.77 -20.16,-14.45 -40.16,-29.07 -60.16,-43.54 -57.23,78.77 -114.16,157.85 -171.39,236.78 -28.92,-20.93 -57.99,-41.85 -86.92,-62.77 -12.31,16.92 -24.61,33.84 -36.76,50.76 v 0" /><path
         id="path94"
         style="fill:#ffffff;fill-opacity:1;fill-rule:nonzero;stroke:none"
         d="m 975.691,5070.46 c 54.929,25.84 94.469,-63.69 39.079,-87.69 -56.313,-28.46 -97.54,65.54 -39.079,87.69 v 0" /><path
         id="path96"
         style="fill:#100f0d;fill-opacity:1;fill-rule:nonzero;stroke:none"
         d="m 2793.38,5049.08 c 456.32,48 927.69,-61.54 1314.61,-308.62 391.25,-246.61 695.86,-627.85 847.85,-1064.92 142.31,-404.46 153.23,-853.55 31.71,-1264.62 -129.24,-441.99 -412.47,-836 -788.17,-1101.69 -359.54,-257.08 -803.7,-392.46 -1245.53,-379.988 -438.77,9.367 -872.32,165.378 -1217.39,436.298 -365.07,283.99 -631.23,693.23 -738.616,1143.39 -106.77,439.07 -64.461,913.22 121.076,1325.53 177.23,398.31 484.31,737.08 862.77,953.24 248.31,142.76 526.77,232.15 811.69,261.38 v 0" /><path
         id="path98"
         style="fill:#ffffff;fill-opacity:1;fill-rule:nonzero;stroke:none"
         d="m 4322.16,5059.69 c -12.62,-47.84 -25.39,-95.69 -38.16,-143.54 -25.54,16 -51.24,32.16 -76.61,48.16 38.15,31.84 76.46,63.69 114.77,95.38 v 0" /><path
         id="path100"
         style="fill:#ffffff;fill-opacity:1;fill-rule:nonzero;stroke:none"
         d="m 5002,5059.85 c 36.61,23.23 86.31,-22.77 66.14,-61.23 -12.76,-32.62 -62.45,-38.77 -81.99,-9.54 -18.3,21.54 -9.84,58.92 15.85,70.77 v 0" /><path
         id="path102"
         style="fill:#2f66b8;fill-opacity:1;fill-rule:nonzero;stroke:none"
         d="m 1738.31,4567.85 c 376.62,305.07 866.77,470.92 1351.68,443.84 -476.29,-66.15 -921.38,-347.23 -1170.76,-760.46 -154.46,-261.23 -238.15,-563.38 -244.92,-866.46 -5.84,-294.93 70,-595.54 240.62,-838.62 143.38,-209.69 348.61,-368.76 568.15,-492 348,-186.3 791.23,-166.45 1124.31,43.85 -213.08,-267.84 -539.69,-420.16 -867.39,-494.15 -559.38,-127.7 -1168.31,107.22 -1528.46,546.77 -36.16,46.3 -76.77,90.45 -102.31,143.83 -140,375.39 -162.312,792.94 -66.77,1181.86 103.84,427.08 353.38,816.31 695.85,1091.54 v 0" /><path
         id="path104"
         style="fill:#f9e706;fill-opacity:1;fill-rule:nonzero;stroke:none"
         d="m 1939.84,4198.77 c 284,498.15 858.62,806.77 1429.54,783.08 477.86,-83.23 918.62,-352.01 1219.23,-731.69 284.61,-355.7 442.78,-810.32 438.46,-1266.01 0.32,-534 -224.92,-1062.45 -608.46,-1433.53 223.24,294.3 346.48,663.85 337.55,1033.7 -6.78,407.69 -170.01,810.76 -452.62,1105.22 -278.76,294.92 -668.01,483.69 -1073.38,512.31 -112.31,6.46 -227.08,11.69 -336.93,-16.31 -240.62,-23.85 -472.15,-127.23 -650.31,-290.77 -217.23,-196.62 -353.23,-479.84 -368.15,-772.62 -14.61,-244.92 55.23,-491.68 190.31,-696 -173.54,188.16 -287.23,428.62 -327.08,681.09 -59.23,372.6 18.62,762.92 201.84,1091.53 v 0" /><path
         id="path106"
         style="fill:#ffffff;fill-opacity:1;fill-rule:nonzero;stroke:none"
         d="m 849.234,4934.92 c 53.231,24.46 92.77,-62.3 39.379,-86.92 -57.386,-32.15 -99.843,66.31 -39.379,86.92 v 0" /><path
         id="path108"
         style="fill:#ffffff;fill-opacity:1;fill-rule:nonzero;stroke:none"
         d="m 5126.78,4921.85 c 30.14,22.15 76.6,-7.08 72.3,-43.7 -0.47,-36.77 -49.84,-58.45 -77.09,-34.15 -26.31,18.3 -23.84,63.08 4.79,77.85 v 0" /><path
         id="path110"
         style="fill:#100f0d;fill-opacity:1;fill-rule:nonzero;stroke:none"
         d="m 4423.99,4648.46 c 82.32,84.92 164.47,170.15 246.94,255.08 48.45,-53.08 112.45,-94.47 148,-158.15 39.22,-110.93 -68.63,-222.01 -172.31,-242.47 -100.94,-12.92 -154.01,91.24 -222.63,145.54 v 0" /><path
         id="path112"
         style="fill:#100f0d;fill-opacity:1;fill-rule:nonzero;stroke:none"
         d="m 1259.07,4810.16 c 20.93,19.38 41.7,38.92 62.62,58.31 111.23,-58.31 222.62,-116.31 333.7,-174.78 -19.7,-18.15 -39.39,-36.45 -59.09,-54.76 -22.3,12.76 -44.45,25.22 -66.76,37.84 -31.84,-29.69 -63.85,-59.39 -95.69,-89.07 10.61,-23.39 21.23,-46.93 31.69,-70.32 -19.24,-17.84 -38.31,-35.85 -57.39,-53.84 -49.22,115.84 -99.53,231.07 -149.08,346.62 v 0" /><path
         id="path114"
         style="fill:#ffffff;fill-opacity:1;fill-rule:nonzero;stroke:none"
         d="m 4518.61,4641.85 c 54,55.68 107.85,111.54 161.86,167.22 29.83,-34.14 86.3,-63.84 75.22,-117.07 -17.08,-52.46 -61.38,-95.85 -112,-116.31 -54.31,-20.61 -90.31,35.54 -125.08,66.16 v 0" /><path
         id="path116"
         style="fill:#ffffff;fill-opacity:1;fill-rule:nonzero;stroke:none"
         d="m 713.074,4779.38 c 42.156,49.7 116.156,-27.38 66.93,-67.69 -40.617,-43.08 -109.848,26.77 -66.93,67.69 v 0" /><path
         id="path118"
         style="fill:#ffffff;fill-opacity:1;fill-rule:nonzero;stroke:none"
         d="m 1343.54,4781.24 c 43.23,-24.47 86.3,-48.78 129.23,-73.55 -22.15,-20.61 -44.16,-41.07 -66.31,-61.54 -21.08,44.92 -42,90.01 -62.92,135.09 v 0" /><path
         id="path120"
         style="fill:#ffffff;fill-opacity:1;fill-rule:nonzero;stroke:none"
         d="m 5251.39,4781.08 c 34.3,16.92 77.99,-22.32 63.38,-58.16 -8.61,-37.54 -65.53,-45.84 -84.61,-12.46 -18.32,23.23 -6.31,60.93 21.23,70.62 v 0" /><path
         id="path122"
         style="fill:#ffffff;fill-opacity:1;fill-rule:nonzero;stroke:none"
         d="m 621.539,4639.69 c 53.387,25.7 93.848,-64.92 38.004,-86.92 -55.234,-32.31 -99.078,66.93 -38.004,86.92 v 0" /><path
         id="path124"
         style="fill:#100f0d;fill-opacity:1;fill-rule:nonzero;stroke:none"
         d="m 1087.23,4620.46 c 63.39,53.85 172.62,-12 153.39,-93.54 68.31,26.31 105.84,-54.92 167.22,-65.53 -17.07,-20.93 -34,-42.01 -50.76,-63.39 -38.31,19.23 -68.62,56.61 -110.78,65.54 -39.06,-16.15 -58.15,-59.08 -85.53,-89.08 36.15,-28.77 72.31,-57.69 108.46,-86.61 -15.07,-18.93 -30.15,-37.85 -45.23,-56.77 -92.77,73.69 -185.23,147.53 -277.848,221.39 47.696,55.37 86.928,118.61 141.078,167.99 v 0" /><path
         id="path126"
         style="fill:#100f0d;fill-opacity:1;fill-rule:nonzero;stroke:none"
         d="m 4934.91,4637.23 c 53.7,-68.46 107.1,-137.38 160.48,-206.15 -16.62,-12.93 -33.23,-25.69 -49.71,-38.62 -38.6,49.54 -77.07,99.39 -115.52,148.92 -19.7,-15.22 -39.39,-30.46 -58.93,-45.69 35.23,-45.69 70.62,-91.23 106.16,-136.62 -16.62,-12.92 -33.08,-25.84 -49.55,-38.77 -35.68,45.55 -71.06,91.24 -106.46,136.94 -24.31,-18.78 -48.45,-37.7 -72.61,-56.47 40.16,-51.84 80.47,-103.69 120.61,-155.54 -16.45,-12.92 -32.92,-25.85 -49.23,-38.61 -55.53,70.61 -110.31,142 -165.54,212.92 93.39,72.77 186.93,145.08 280.3,217.69 v 0" /><path
         id="path128"
         style="fill:#ffffff;fill-opacity:1;fill-rule:nonzero;stroke:none"
         d="m 5357.08,4628 c 35.08,21.08 81.23,-21.08 66.3,-58.3 -10.76,-35.7 -64.15,-43.24 -84.45,-12.46 -18,22.6 -8.31,59.68 18.15,70.76 v 0" /><path
         id="path130"
         style="fill:#ffffff;fill-opacity:1;fill-rule:nonzero;stroke:none"
         d="m 1107.69,4553.85 c 31.54,36.15 99.55,-15.08 71.85,-55.08 -18.62,-31.39 -43.54,-58.31 -65.84,-86.92 -24.78,19.68 -49.39,39.53 -74.01,59.38 22.46,27.7 42.77,57.23 68,82.62 v 0" /><path
         id="path132"
         style="fill:#ffffff;fill-opacity:1;fill-rule:nonzero;stroke:none"
         d="m 511.688,4475.85 c 32.003,26.62 85.699,-6.46 75.39,-46.93 -3.539,-33.84 -49.539,-52.3 -75.082,-29.69 -26.461,17.23 -24.766,58.46 -0.308,76.62 v 0" /><path
         id="path134"
         style="fill:#ffffff;fill-opacity:1;fill-rule:nonzero;stroke:none"
         d="m 5452.62,4468.31 c 28.15,17.69 70.46,-4.47 70.31,-38.16 6.31,-37.84 -42.77,-66 -73.4,-43.54 -29.69,18.31 -27.83,66 3.09,81.7 v 0" /><path
         id="path136"
         style="fill:#100f0d;fill-opacity:1;fill-rule:nonzero;stroke:none"
         d="m 754.922,4135.38 c 43.39,75.39 86.766,150.78 130.152,226.16 18.156,-10.31 36.313,-20.61 54.461,-30.92 -30.918,-54.62 -62.461,-109.08 -93.691,-163.7 21.539,-12.31 43.078,-24.76 64.465,-37.22 28.921,50.14 57.687,100.14 86.609,150.14 18.012,-10.46 36.162,-20.91 54.152,-31.38 -28.76,-50 -57.531,-100 -86.144,-150 26.617,-15.23 53.074,-30.46 79.534,-45.85 32.92,56.93 65.54,113.85 98.3,170.62 18.16,-10.31 36.32,-20.76 54.47,-31.23 -44.62,-78 -89.54,-155.84 -134.62,-233.69 -102.454,59.23 -205.227,117.85 -307.688,177.07 v 0" /><path
         id="path138"
         style="fill:#ffffff;fill-opacity:1;fill-rule:nonzero;stroke:none"
         d="m 424.766,4312.15 c 32.925,26.62 87.386,-10.46 73.238,-51.07 -6.461,-33.23 -52.469,-47.85 -76.926,-24.16 -23.543,18.62 -21.387,58.92 3.688,75.23 v 0" /><path
         id="path140"
         style="fill:#ffffff;fill-opacity:1;fill-rule:nonzero;stroke:none"
         d="m 5543.22,4305.54 c 29.24,15.08 70.17,-10 67.24,-43.24 4.63,-39.07 -49.39,-63.37 -77.54,-37.07 -27.37,20.46 -20.76,66.93 10.3,80.31 v 0" /><path
         id="path142"
         style="fill:#100f0d;fill-opacity:1;fill-rule:nonzero;stroke:none"
         d="m 4904.32,4068.92 c 105.69,52.93 211.06,106.77 316.61,160 38.14,-75.07 75.99,-150.31 114.15,-225.38 -18.78,-9.54 -37.39,-18.93 -55.84,-28.47 -27.09,53.08 -53.85,106.32 -81.09,159.24 -23.84,-12.16 -47.53,-24.15 -71.23,-36.16 23.55,-46.46 46.93,-92.92 70.62,-139.22 -18.77,-9.55 -37.38,-19.09 -55.85,-28.62 -23.69,46.46 -47.24,92.92 -70.76,139.54 -44.47,-22.46 -88.93,-45.08 -133.38,-67.55 -11.09,22.16 -22.17,44.31 -33.23,66.62 v 0" /><path
         id="path144"
         style="fill:#ffffff;fill-opacity:1;fill-rule:nonzero;stroke:none"
         d="m 347.844,4142.46 c 27.539,21.69 72.926,0.31 74.465,-34.62 4.921,-34.92 -36.004,-64.61 -67.539,-48.15 -32.922,13.69 -37.387,64.31 -6.926,82.77 v 0" /><path
         id="path146"
         style="fill:#e42124;fill-opacity:1;fill-rule:nonzero;stroke:none"
         d="M 3317.53,4147.53 C 3730.62,4094.61 4116.62,3870 4372.31,3542.16 4611.39,3239.08 4732.15,2846.92 4709.54,2461.84 4686.77,2025.22 4475.54,1602 4139.38,1322.46 3777.54,1072.77 3330.77,950 2892.16,976.012 c -409.24,22.91 -808.93,176.608 -1131.08,429.208 -238.93,187.24 -436.93,427.4 -570.46,700.33 252.92,-294.01 608.46,-499.09 992.15,-560.32 396.31,-65.85 812.46,31.08 1150.46,244.47 146.01,96.76 285.7,216.91 367.39,374.61 176.77,138 312.3,328.3 381.85,541.69 97.07,292.61 66.45,624.62 -82.77,894.46 -142.92,263.38 -394.48,463.85 -682.17,547.07 v 0" /><path
         id="path148"
         style="fill:#ffffff;fill-opacity:1;fill-rule:nonzero;stroke:none"
         d="m 2603.23,4070 c 253.69,101.39 545.07,102.31 799.23,2 -19.23,-51.23 -38.61,-102.3 -58.15,-153.39 -109.99,-20.3 -220,-40.46 -330,-60.77 -136.31,72 -272.31,144.93 -411.08,212.16 v 0" /><path
         id="path150"
         style="fill:#ffffff;fill-opacity:1;fill-rule:nonzero;stroke:none"
         d="m 5619.38,4134.92 c 29.09,16.46 70.16,-9.23 68,-42.76 3.08,-34.32 -38.77,-59.39 -68.15,-43.23 -35.53,14.91 -35.69,71.23 0.15,85.99 v 0" /><path
         id="path152"
         style="fill:#ffffff;fill-opacity:1;fill-rule:nonzero;stroke:none"
         d="m 2547.23,4045.84 c 149.07,-66.14 290.77,-147.07 435.85,-221.38 2.3,-88.61 4.31,-177.38 6.3,-266.15 -153.53,-114.15 -306.61,-229.23 -460.3,-343.23 -80.93,48.76 -162.46,96.46 -243.39,145.08 -5.39,173.07 -13.23,347.22 6.47,519.54 77.38,66.31 163.38,121.84 255.07,166.14 v 0" /><path
         id="path154"
         style="fill:#ffffff;fill-opacity:1;fill-rule:nonzero;stroke:none"
         d="m 3443.39,4055.23 c 258.31,-114.3 470.3,-331.23 573.23,-594.77 10.3,-22.61 14.3,-49.69 34.46,-66.61 -4.01,-0.16 -11.85,-0.47 -15.7,-0.47 -134.46,93.23 -280.77,167.85 -424.61,245.39 -78.3,83.23 -150.76,172.31 -227.23,257.38 19.84,53.08 39.84,106.01 59.85,159.08 v 0" /><path
         id="path156"
         style="fill:#100f0d;fill-opacity:1;fill-rule:nonzero;stroke:none"
         d="m 612.77,3799.69 c 41.222,77.7 47.078,194.62 142.152,227.85 102.769,23.08 235.387,-40.77 255.388,-150.46 0.61,-75.08 -45.693,-140.31 -68.162,-210.16 -109.839,44.16 -219.687,88.47 -329.378,132.77 v 0" /><path
         id="path158"
         style="fill:#ffffff;fill-opacity:1;fill-rule:nonzero;stroke:none"
         d="m 280.918,3967.38 c 25.234,22 71.078,3.24 74.617,-29.99 8.16,-33.85 -29.844,-67.09 -62.152,-53.54 -36,9.69 -44.149,64.15 -12.465,83.53 v 0" /><path
         id="path160"
         style="fill:#ffffff;fill-opacity:1;fill-rule:nonzero;stroke:none"
         d="m 696.609,3844.16 c 20.621,42.61 28.934,111.68 88.313,114.91 55.539,-1.83 115.539,-25.38 149.078,-71.22 27.23,-42.93 -8.309,-89.39 -21.539,-130.61 -72,28.92 -143.992,57.84 -215.852,86.92 v 0" /><path
         id="path162"
         style="fill:#ffffff;fill-opacity:1;fill-rule:nonzero;stroke:none"
         d="m 5669.38,3948.62 c 37.7,48.15 113.38,-16.62 73.08,-61.54 -37.24,-50.62 -117.24,16.62 -73.08,61.54 v 0" /><path
         id="path164"
         style="fill:#100f0d;fill-opacity:1;fill-rule:nonzero;stroke:none"
         d="m 5222.77,3897.53 c 109.09,35.7 218.77,-65.84 210.93,-175.22 -0.16,-117.08 -132.94,-179.85 -235.4,-168.77 -108.46,14.93 -169.68,150.92 -121.99,245.84 27.38,56.01 88.78,84.47 146.46,98.15 v 0" /><path
         id="path166"
         style="fill:#ffffff;fill-opacity:1;fill-rule:nonzero;stroke:none"
         d="m 1918.47,2999.85 c -18.01,307.53 103.68,618 323.22,833.53 -11.07,-167.23 -6.46,-335.23 2.31,-502.46 -54.92,-115.53 -109.39,-231.38 -164.3,-347.07 -53.7,5.23 -107.55,10.6 -161.23,16 v 0" /><path
         id="path168"
         style="fill:#ffffff;fill-opacity:1;fill-rule:nonzero;stroke:none"
         d="m 5222.16,3820.62 c 56.14,23.99 135.68,0.77 145.54,-66.01 15.68,-78.61 -72.02,-123.99 -137.85,-128.45 -56,-9.08 -110.47,40.3 -105.54,96.92 2.31,52.46 52.15,84.46 97.85,97.54 v 0" /><path
         id="path170"
         style="fill:#ffffff;fill-opacity:1;fill-rule:nonzero;stroke:none"
         d="m 236.305,3794.92 c 27.39,12.77 66,-9.54 64.925,-40.93 5.844,-35.07 -39.234,-65.22 -69.226,-45.06 -35.996,15.53 -32.617,73.69 4.301,85.99 v 0" /><path
         id="path172"
         style="fill:#ffffff;fill-opacity:1;fill-rule:nonzero;stroke:none"
         d="m 5740.16,3782.31 c 34.92,18.61 78.45,-21.85 64.3,-58.31 -8,-31.08 -50.61,-43.23 -74.61,-22.93 -28.32,20.01 -22.93,69.39 10.31,81.24 v 0" /><path
         id="path174"
         style="fill:#100f0d;fill-opacity:1;fill-rule:nonzero;stroke:none"
         d="m 522.77,3450.92 c 19.996,84.77 40.152,169.38 60.304,254.16 20.465,-4.93 40.77,-9.69 61.235,-14.62 -14.614,-61.08 -29.075,-122.15 -43.696,-183.22 24.313,-5.7 48.465,-11.4 72.77,-17.24 13.226,56.15 26.617,112.16 40.008,168.31 15.222,-3.7 45.843,-10.92 61.066,-14.62 -13.535,-55.99 -26.762,-112 -40.148,-168.15 29.839,-7.23 59.539,-14.31 89.382,-21.69 15.387,63.84 30.618,127.68 45.852,191.69 15.223,-3.69 45.844,-10.93 61.066,-14.62 -20.761,-87.38 -41.687,-174.77 -62.613,-262.15 -115.074,27.24 -230.148,54.92 -345.226,82.15 v 0" /><path
         id="path176"
         style="fill:#ffffff;fill-opacity:1;fill-rule:nonzero;stroke:none"
         d="m 188.77,3611.39 c 49.843,29.85 98.769,-49.39 50.921,-80.93 -52.304,-40.92 -109.687,51.85 -50.921,80.93 v 0" /><path
         id="path178"
         style="fill:#ffffff;fill-opacity:1;fill-rule:nonzero;stroke:none"
         d="m 5773.22,3596.3 c 52.17,39.39 108.01,-51.22 51.56,-80.76 -50,-32 -100.79,49.08 -51.56,80.76 v 0" /><path
         id="path180"
         style="fill:#ffffff;fill-opacity:1;fill-rule:nonzero;stroke:none"
         d="m 3417.38,3404.92 c 63.54,62 127.4,123.39 191.08,185.08 155.08,-82 309.85,-166 453.54,-266.92 28.16,-114.77 37.53,-233.54 29.07,-351.38 -114.92,-104.93 -246.91,-189.23 -378.77,-270.94 -84.29,47.54 -168.91,94.63 -252.61,143.24 -9.99,187.24 -14.15,375.38 -42.31,560.92 v 0" /><path
         id="path182"
         style="fill:#100f0d;fill-opacity:1;fill-rule:nonzero;stroke:none"
         d="m 5419.53,3553.7 c 15.55,2.76 46.32,8.15 61.86,10.76 16.46,-94.76 33.08,-189.69 49.53,-284.46 -15.54,-2.77 -46.46,-8 -61.99,-10.62 -6.16,35.23 -12.15,70.31 -18.31,105.39 -96.01,-16.31 -192.01,-33.23 -288.17,-49.7 -4.14,24.31 -8.3,48.62 -12.45,72.93 95.85,16.93 191.85,33.39 287.84,50.15 -6.15,35.23 -12.15,70.46 -18.31,105.55 v 0" /><path
         id="path184"
         style="fill:#ffffff;fill-opacity:1;fill-rule:nonzero;stroke:none"
         d="m 3010.63,3519.54 c 122.13,-43.08 243.36,-88.92 365.38,-132.62 25.69,-182 29.07,-366.15 40.29,-549.37 -107.23,-83.56 -213.99,-167.4 -321.07,-250.94 -166,79.39 -326.62,169.55 -489.08,256 -17.23,111.85 -35.07,223.7 -52.45,335.54 152.45,113.7 305.06,226.93 456.93,341.39 v 0" /><path
         id="path186"
         style="fill:#ffffff;fill-opacity:1;fill-rule:nonzero;stroke:none"
         d="m 157.691,3427.23 c 50.153,30.61 99.079,-49.69 50.766,-80.61 -51.383,-41.23 -109.6875,51.84 -50.766,80.61 v 0" /><path
         id="path188"
         style="fill:#ffffff;fill-opacity:1;fill-rule:nonzero;stroke:none"
         d="m 5804.32,3413.08 c 26.45,18.61 67.53,2.15 73.07,-29.85 9.99,-34 -28.31,-69.08 -61.39,-55.38 -36.76,10.15 -44.3,65.23 -11.68,85.23 v 0" /><path
         id="path190"
         style="fill:#100f0d;fill-opacity:1;fill-rule:nonzero;stroke:none"
         d="m 510.922,3386.92 c 20.926,-2.15 41.691,-4.3 62.461,-6.46 -6,-59.23 -11.996,-118.46 -17.996,-177.69 26.461,-2.62 52.925,-5.38 79.379,-8 5.386,51.69 10.769,103.54 16,155.23 20.929,-2 41.691,-4.16 62.625,-6.31 -5.395,-51.69 -10.778,-103.54 -16.004,-155.38 49.531,-5.08 99.074,-10.31 148.621,-15.39 -2.625,-24.61 -5.078,-49.23 -7.547,-73.84 -117.848,12.15 -235.539,24.3 -353.231,36.61 8.461,83.69 17.075,167.54 25.692,251.23 v 0" /><path
         id="path192"
         style="fill:#ffffff;fill-opacity:1;fill-rule:nonzero;stroke:none"
         d="m 142.156,3243.54 c 41.383,21.39 88.465,-34.61 58.766,-70.77 -16.156,-27.85 -61.078,-27.38 -77.848,-0.46 -17.687,23.23 -7.539,59.69 19.082,71.23 v 0" /><path
         id="path194"
         style="fill:#ffffff;fill-opacity:1;fill-rule:nonzero;stroke:none"
         d="m 5820.15,3225.54 c 25.08,21.08 68.61,5.7 74.77,-26.61 11.69,-34.78 -29.69,-72.31 -62.92,-55.7 -34.46,10.62 -41.69,62.46 -11.85,82.31 v 0" /><path
         id="path196"
         style="fill:#100f0d;fill-opacity:1;fill-rule:nonzero;stroke:none"
         d="m 5182.92,3197.23 c 118.31,3.69 236.61,7.69 354.92,11.08 -1.23,-73.85 12.78,-149.08 -0.76,-222.31 -16.46,-68.47 -119.08,-85.53 -155.69,-24.61 -31.86,-81.23 -162.16,-64.77 -184.15,15.39 -16.17,72.15 -9.54,147.06 -14.32,220.45 v 0" /><path
         id="path198"
         style="fill:#ffffff;fill-opacity:1;fill-rule:nonzero;stroke:none"
         d="m 5401.08,3132.92 c 25.84,0.93 51.68,1.69 77.69,2.46 0.61,-39.37 6.14,-79.54 -1.23,-118.61 -9.69,-32.45 -63.85,-27.69 -69.39,5.54 -7.53,36.31 -5.39,73.84 -7.07,110.61 v 0" /><path
         id="path200"
         style="fill:#ffffff;fill-opacity:1;fill-rule:nonzero;stroke:none"
         d="m 5246.77,3128 c 31.53,1.08 63.07,2 94.77,2.92 0.76,-37.84 4.47,-76 0.76,-114 -4.6,-42.76 -71.84,-47.39 -86.3,-9.54 -11.69,38.92 -6.92,80.62 -9.23,120.62 v 0" /><path
         id="path202"
         style="fill:#ffffff;fill-opacity:1;fill-rule:nonzero;stroke:none"
         d="m 142.004,3059.07 c 33.996,12.16 70.301,-23.84 59.684,-58.15 -7.223,-31.39 -48.766,-46.15 -74.149,-26.31 -31.8515,20.62 -22.769,76.01 14.465,84.46 v 0" /><path
         id="path204"
         style="fill:#ffffff;fill-opacity:1;fill-rule:nonzero;stroke:none"
         d="m 5833.54,3044.16 c 35.99,19.68 81.84,-20.62 65.84,-58.93 -9.68,-35.85 -64,-43.54 -83.38,-12.01 -18.31,22.32 -8.3,58.93 17.54,70.94 v 0" /><path
         id="path206"
         style="fill:#ffffff;fill-opacity:1;fill-rule:nonzero;stroke:none"
         d="m 1921.69,2955.08 c 48.61,-4.78 97.08,-9.69 145.69,-14.15 74,-97.71 146.77,-196.31 219.7,-294.78 2,-137.22 5.68,-274.45 8,-411.69 -210.47,181.08 -347.55,444 -373.39,720.62 v 0" /><path
         id="path208"
         style="fill:#ffffff;fill-opacity:1;fill-rule:nonzero;stroke:none"
         d="M 0,2952.46 C 7.23828,2545.85 93.8477,2140.16 260.922,1768.93 463.695,1314.15 782.152,911.84 1177.54,609.07 1625.85,262.922 2174.31,50.7617 2738.15,0 H 0 v 2952.46" /><path
         id="path210"
         style="fill:#ffffff;fill-opacity:1;fill-rule:nonzero;stroke:none"
         d="m 3728.77,2656.92 c 120.93,78.77 244.45,154.77 355.08,248.16 -38.93,-276.31 -189.07,-533.54 -408.93,-704.93 -34.15,40.62 -68,81.24 -101.99,121.84 52.46,111.39 100.61,224.93 155.84,334.93 v 0" /><path
         id="path212"
         style="fill:#ffffff;fill-opacity:1;fill-rule:nonzero;stroke:none"
         d="m 144.309,2871.54 c 52.918,23.24 91.847,-62.31 39.23,-87.08 -57.383,-32.76 -101.3867,66.93 -39.23,87.08 v 0" /><path
         id="path214"
         style="fill:#100f0d;fill-opacity:1;fill-rule:nonzero;stroke:none"
         d="m 5192.46,2881.07 c 112.31,-56.46 224.45,-112.93 336.78,-169.53 -3.7,-28.31 -7.25,-56.61 -10.63,-85.08 -122.76,-26.46 -245.23,-53.38 -367.85,-80 3.23,26.76 6.63,53.39 9.87,79.85 25.06,4.76 50.14,9.22 75.37,13.85 5.39,43.22 10.92,86.62 16.46,129.84 -23.39,11.23 -46.46,22.61 -69.7,33.85 3.24,25.69 6.47,51.53 9.7,77.22 v 0" /><path
         id="path216"
         style="fill:#ffffff;fill-opacity:1;fill-rule:nonzero;stroke:none"
         d="m 5820.76,2853.69 c 50.62,39.23 106.78,-48.61 52.78,-80 -50.46,-33.99 -103.23,48.3 -52.78,80 v 0" /><path
         id="path218"
         style="fill:#ffffff;fill-opacity:1;fill-rule:nonzero;stroke:none"
         d="m 2594.46,2798 c 165.39,-86.46 327.39,-179.69 497.08,-257.69 18.3,-76.31 36.3,-152.61 54.47,-228.92 -155.86,-102.46 -313.7,-202.78 -480.17,-287.23 -115.38,40.15 -226.15,95.99 -322.15,171.99 -11.54,143.39 -6.61,288.76 -12.46,432.92 87.69,56.46 175.69,112.32 263.23,168.93 v 0" /><path
         id="path220"
         style="fill:#100f0d;fill-opacity:1;fill-rule:nonzero;stroke:none"
         d="m 684.922,2745.85 c 11.687,-2.01 35.074,-5.86 46.773,-7.85 -4.004,-21.7 -7.851,-43.38 -11.699,-65.07 24.16,3.53 48.473,7.07 72.77,10.61 2.464,-17.24 5.078,-34.62 7.543,-51.85 -24.153,-3.68 -48.461,-7.23 -72.618,-10.93 9.848,-19.53 19.696,-39.23 29.692,-58.92 -10.613,-5.23 -32,-15.53 -42.766,-20.77 -9.539,20.32 -19.082,40.79 -28.621,61.08 -17.691,-16.92 -35.383,-33.84 -53.07,-50.76 -10.922,11.38 -21.696,22.92 -32.617,34.3 16.308,16.77 32.765,33.39 49.226,50 -20.765,11.55 -41.539,22.92 -62.305,34.31 5.079,9.38 15.075,28.15 20.153,37.54 24.621,-3.08 45.39,-17.7 67.383,-28.16 3.23,22.15 6.765,44.31 10.156,66.47 v 0" /><path
         id="path222"
         style="fill:#ffffff;fill-opacity:1;fill-rule:nonzero;stroke:none"
         d="m 5310.77,2742.77 c 44.92,-20.92 89.85,-42.01 134.77,-63.23 -48.62,-9.08 -97.39,-17.7 -146.01,-26.46 3.7,30.01 7.39,59.84 11.24,89.69 v 0" /><path
         id="path224"
         style="fill:#ffffff;fill-opacity:1;fill-rule:nonzero;stroke:none"
         d="M 5548,1391.39 C 5803.54,1794 5959.07,2258.93 6000,2734 V 0 H 3264.92 c 475.39,40.6094 940.77,196.309 1343.69,452 377.7,238.16 701.23,561.69 939.39,939.39 v 0" /><path
         id="path226"
         style="fill:#ffffff;fill-opacity:1;fill-rule:nonzero;stroke:none"
         d="m 160.465,2685.23 c 32.918,16.16 73.844,-16.92 65.387,-52.47 -4.313,-36.14 -54.313,-52.29 -79.547,-26.3 -25.383,21.69 -17.227,67.39 14.16,78.77 v 0" /><path
         id="path228"
         style="fill:#ffffff;fill-opacity:1;fill-rule:nonzero;stroke:none"
         d="m 5804.61,2670.15 c 29.09,19.39 72.93,-4.15 72.17,-39.08 3.52,-30.31 -31.71,-59.22 -60.48,-47.37 -39.52,8.15 -46.6,67.69 -11.69,86.45 v 0" /><path
         id="path230"
         style="fill:#100f0d;fill-opacity:1;fill-rule:nonzero;stroke:none"
         d="m 541.688,2431.23 c 114.312,30.93 228.468,62.16 342.769,92.76 22.16,-81.07 44.156,-162.45 66.309,-243.69 -20.157,-5.38 -40.301,-10.92 -60.457,-16.45 -15.852,57.38 -31.383,114.92 -47.079,172.15 -25.691,-6.76 -51.542,-13.84 -77.23,-20.77 13.535,-50.31 27.383,-100.46 40.926,-150.76 -15.238,-4.17 -45.539,-12.47 -60.621,-16.62 -13.688,50.3 -27.383,100.62 -41.075,151.07 -47.996,-13.23 -95.996,-26.31 -143.843,-39.38 -6.617,24 -13.075,47.85 -19.699,71.69 v 0" /><path
         id="path232"
         style="fill:#100f0d;fill-opacity:1;fill-rule:nonzero;stroke:none"
         d="m 5141.85,2522.31 c 114.31,-31.08 228.46,-62.15 342.61,-93.38 -6.62,-23.85 -13.08,-47.7 -19.54,-71.7 -93.54,25.53 -186.91,51.08 -280.46,76.62 -15.53,-56.78 -31.08,-113.54 -46.46,-170.31 -15.54,4.16 -46.61,12.47 -62.16,16.76 22.01,80.62 44,161.39 66.01,242.01 v 0" /><path
         id="path234"
         style="fill:#ffffff;fill-opacity:1;fill-rule:nonzero;stroke:none"
         d="m 191.074,2501.39 c 54.156,25.68 93.391,-63.84 38.93,-87.24 -56.621,-30.61 -98.777,66.77 -38.93,87.24 v 0" /><path
         id="path236"
         style="fill:#ffffff;fill-opacity:1;fill-rule:nonzero;stroke:none"
         d="m 5774.78,2486.46 c 33.53,23.23 82.92,-14.76 69.53,-53.54 -6.61,-34.62 -55.85,-48.15 -79.08,-21.53 -23.54,20.61 -17.23,60.6 9.55,75.07 v 0" /><path
         id="path238"
         style="fill:#ffffff;fill-opacity:1;fill-rule:nonzero;stroke:none"
         d="m 232.309,2319.53 c 52.613,26.15 94.921,-61.38 41.382,-85.68 -56.308,-34.77 -101.074,64.15 -41.382,85.68 v 0" /><path
         id="path240"
         style="fill:#ffffff;fill-opacity:1;fill-rule:nonzero;stroke:none"
         d="m 5727.69,2302.46 c 52,40.62 109.39,-50.93 51.55,-80.61 -49.86,-30.92 -99.7,48.61 -51.55,80.61 v 0" /><path
         id="path242"
         style="fill:#ffffff;fill-opacity:1;fill-rule:nonzero;stroke:none"
         d="m 3133.09,2250.92 c 25.22,15.54 49.67,38.16 81.68,35.08 106.93,3.54 213.85,7.69 320.92,11.69 34.46,-41.23 69.08,-82.6 103.54,-124.15 -259.54,-187.39 -602.46,-250.32 -911.85,-167.99 138.62,75.98 274.47,157.07 405.71,245.37 v 0" /><path
         id="path244"
         style="fill:#100f0d;fill-opacity:1;fill-rule:nonzero;stroke:none"
         d="m 823.227,2203.38 c 106.308,45.09 223.383,-48.92 224.163,-158.46 8.3,-109.23 -104.624,-179.83 -201.699,-187.08 -114.304,-8.6 -200,123.55 -163.539,227.24 20.313,62.46 81.996,99.07 141.075,118.3 v 0" /><path
         id="path246"
         style="fill:#ffffff;fill-opacity:1;fill-rule:nonzero;stroke:none"
         d="m 281.227,2138.16 c 50.304,33.69 100.925,-51.23 49.691,-80.77 -51.223,-38.31 -107.074,52.91 -49.691,80.77 v 0" /><path
         id="path248"
         style="fill:#ffffff;fill-opacity:1;fill-rule:nonzero;stroke:none"
         d="m 836.465,2129.38 c 48.918,22.62 117.844,9.99 138.301,-44.76 C 1024.62,1961.84 794,1865.54 745.23,1990.46 c -26.761,64.76 34,121.54 91.235,138.92 v 0" /><path
         id="path250"
         style="fill:#ffffff;fill-opacity:1;fill-rule:nonzero;stroke:none"
         d="m 5684.91,2130.3 c 31.55,12.78 69.41,-16.76 63.7,-50.61 -2.46,-31.69 -41.83,-53.85 -69.23,-36.3 -37.22,16 -32.31,75.38 5.53,86.91 v 0" /><path
         id="path252"
         style="fill:#100f0d;fill-opacity:1;fill-rule:nonzero;stroke:none"
         d="m 5095.39,2018.93 c 11.69,-1.85 35.08,-5.54 46.77,-7.39 -4,-22.31 -8.01,-44.46 -11.86,-66.76 24.16,3.52 48.47,7.07 72.78,10.44 1.69,-11.68 4.91,-35.22 6.46,-46.91 -23.08,-3.99 -46.15,-7.84 -69.23,-11.85 9.99,-21.24 20.15,-42.47 30.31,-63.7 -14.16,-7.22 -28.16,-14.62 -42,-22.14 -11.38,21.68 -22.78,43.23 -34,64.77 -15.85,-15.85 -31.39,-32 -47.08,-48 -11.23,11.07 -22.46,22.14 -33.54,33.23 15.85,15.53 31.54,30.92 47.39,46.3 -21.85,11.39 -43.54,22.62 -65.24,33.85 7.84,15.69 15.85,31.08 23.85,46.61 21.85,-11.07 43.69,-22.29 65.53,-33.39 3.23,21.7 6.48,43.25 9.86,64.94 v 0" /><path
         id="path254"
         style="fill:#ffffff;fill-opacity:1;fill-rule:nonzero;stroke:none"
         d="m 343.848,1962.3 c 29.379,21.7 75.382,-3.23 73.843,-39.53 2.465,-37.39 -45.843,-62.31 -75.074,-39.39 -27.23,17.38 -26.926,62.77 1.231,78.92 v 0" /><path
         id="path256"
         style="fill:#ffffff;fill-opacity:1;fill-rule:nonzero;stroke:none"
         d="m 5604.15,1947.07 c 28.32,29.39 85.39,0.62 78.15,-39.53 0.17,-30.62 -35.99,-53.69 -63.69,-41.08 -33.38,10.16 -42.3,59.38 -14.46,80.61 v 0" /><path
         id="path258"
         style="fill:#100f0d;fill-opacity:1;fill-rule:nonzero;stroke:none"
         d="m 809.543,1734.32 c 99.223,64.45 198.607,128.75 297.997,192.91 14.15,-21.68 28.31,-43.53 42.46,-65.23 -43.85,-84.93 -88,-169.7 -131.69,-254.77 69.54,45.08 139.23,90.31 208.92,135.38 12.46,-19.23 25.07,-38.62 37.54,-57.84 -99.23,-64.46 -198.62,-128.77 -298,-193.08 -13.379,20.76 -26.77,41.54 -40.153,62.16 44.77,87.08 89.843,173.99 134.463,261.24 -71.236,-46.48 -142.775,-92.16 -213.693,-138.78 -12.621,19.37 -25.235,38.78 -37.844,58.01 v 0" /><path
         id="path260"
         style="fill:#100f0d;fill-opacity:1;fill-rule:nonzero;stroke:none"
         d="m 4808.15,1737.55 c 14.31,50.45 59.7,98.3 115.7,93.07 62.46,-5.4 116.61,-42.46 163.23,-81.7 44.31,-37.08 75.69,-101.85 46.92,-157.69 -23.08,-55.85 -89.69,-84.31 -145.39,-58.61 16.77,18.91 23.55,57.37 55.08,56.14 29.53,-2.3 51.38,30.17 41.69,57.25 -9.69,25.84 -32.3,43.69 -49.38,64.29 -2.77,-37.69 -12.15,-78 -45.23,-100.91 -79.85,-64 -212.47,32.77 -182.62,128.16 v 0" /><path
         id="path262"
         style="fill:#ffffff;fill-opacity:1;fill-rule:nonzero;stroke:none"
         d="m 420.77,1792.46 c 34.152,25.39 86.921,-13.84 71.082,-53.7 -7.543,-34.77 -58.161,-45.99 -80.313,-18.45 -20.156,20.3 -15.531,57.84 9.231,72.15 v 0" /><path
         id="path264"
         style="fill:#ffffff;fill-opacity:1;fill-rule:nonzero;stroke:none"
         d="m 5528.3,1779.24 c 46.78,39.84 108.78,-38.93 59.7,-75.09 -46.93,-41.53 -109.85,38.62 -59.7,75.09 v 0" /><path
         id="path266"
         style="fill:#ffffff;fill-opacity:1;fill-rule:nonzero;stroke:none"
         d="m 4895.39,1766.62 c 46,14.91 113.07,-35.23 83.85,-84.76 -21.85,-45.09 -80.94,-22.47 -104.16,9.07 -19.86,24.61 -5.38,61.83 20.31,75.69 v 0" /><path
         id="path268"
         style="fill:#ffffff;fill-opacity:1;fill-rule:nonzero;stroke:none"
         d="m 511.688,1630.3 c 49.699,29.39 98.468,-50.14 50.464,-80.92 -51.843,-41.39 -110.156,51.7 -50.464,80.92 v 0" /><path
         id="path270"
         style="fill:#100f0d;fill-opacity:1;fill-rule:nonzero;stroke:none"
         d="m 1033.23,1404.93 c 88.31,79.07 176.46,158.14 264.77,237.23 42.15,-51.85 94,-96.15 129.38,-153.08 36.93,-69.08 -8,-148.77 -63.68,-192.16 -53.85,-46.45 -140.01,-76.61 -202.62,-29.39 -47.54,40.78 -84.62,92.16 -127.85,137.4 v 0" /><path
         id="path272"
         style="fill:#ffffff;fill-opacity:1;fill-rule:nonzero;stroke:none"
         d="m 5455.08,1622.61 c 57.84,21.08 88.46,-74.92 28.77,-91.38 -57.39,-20.16 -88.31,75.23 -28.77,91.38 v 0" /><path
         id="path274"
         style="fill:#100f0d;fill-opacity:1;fill-rule:nonzero;stroke:none"
         d="m 4715.38,1605.84 c 50.62,21.85 104.15,-7.54 144.63,-37.37 43.22,-33.56 87.53,-71.85 108.13,-124.16 26.31,-67.85 -36.61,-148.63 -107.22,-148.46 -57.69,4.91 -104.92,42.91 -146.45,79.69 -36.93,34.47 -75.09,77.84 -72.93,131.54 5.23,42.77 35.53,80.3 73.84,98.76 v 0" /><path
         id="path276"
         style="fill:#ffffff;fill-opacity:1;fill-rule:nonzero;stroke:none"
         d="m 4729.38,1548.61 c 70.32,2.01 121.09,-66.92 168.31,-111.84 38.31,-30.46 0,-97.07 -44.61,-74 -54.61,28.77 -103.23,71.08 -141.39,119.53 -18.77,22.16 -7.37,55.08 17.69,66.31 v 0" /><path
         id="path278"
         style="fill:#ffffff;fill-opacity:1;fill-rule:nonzero;stroke:none"
         d="m 1127.08,1391.39 c 57.84,51.83 115.84,103.53 173.54,155.38 28.61,-37.23 85.54,-73.69 64.77,-127.69 -23.08,-48.32 -68.47,-87.08 -119.55,-102.78 -55.07,-15.38 -85.99,42.93 -118.76,75.09 v 0" /><path
         id="path280"
         style="fill:#ffffff;fill-opacity:1;fill-rule:nonzero;stroke:none"
         d="m 606.152,1468.77 c 32.77,26.62 86.922,-12.93 72,-52.47 -7.996,-34.44 -58.156,-48.16 -80.617,-19.23 -21.379,19.84 -16.004,56.92 8.617,71.7 v 0" /><path
         id="path282"
         style="fill:#ffffff;fill-opacity:1;fill-rule:nonzero;stroke:none"
         d="m 5343.39,1458.31 c 45.99,36.61 105.38,-39.84 58.61,-75.39 -47.23,-45.37 -112.77,40.16 -58.61,75.39 v 0" /><path
         id="path284"
         style="fill:#100f0d;fill-opacity:1;fill-rule:nonzero;stroke:none"
         d="m 4455.55,1345.54 c 28.45,46.31 88.9,78.45 141.69,53.23 67.68,-31.07 121.07,-92.31 151.68,-159.54 29.09,-62.61 -8.93,-139.99 -73.53,-160.3 -33.7,-14.01 -68.31,1.99 -97.85,17.69 16,15.68 32.47,31.22 49.08,46.46 22.15,-8.31 51.53,-10.93 64.77,13.53 22.46,36.31 -11.09,73.08 -28.62,103.08 -4,-43.84 -35.85,-81.23 -77.86,-93.23 -92.9,-25.85 -185.83,98.63 -129.36,179.08 v 0" /><path
         id="path286"
         style="fill:#ffffff;fill-opacity:1;fill-rule:nonzero;stroke:none"
         d="m 4526.78,1339.7 c 31.99,21.07 69.53,-7.4 85.84,-35.24 20.47,-32.3 -7.85,-74.92 -43.54,-77.68 -49.38,6.45 -96,79.38 -42.3,112.92 v 0" /><path
         id="path288"
         style="fill:#ffffff;fill-opacity:1;fill-rule:nonzero;stroke:none"
         d="m 712.77,1316 c 51.234,41.39 109.539,-51.69 51.074,-80.15 -49.532,-31.86 -100,49.38 -51.074,80.15 v 0" /><path
         id="path290"
         style="fill:#100f0d;fill-opacity:1;fill-rule:nonzero;stroke:none"
         d="m 1273.54,1141.85 c 107.85,64.61 215.84,128.91 323.69,193.38 22,-18.15 44.01,-36.46 65.85,-54.93 -43.23,-117.68 -86.31,-235.52 -129.54,-353.23 -20.77,17.239 -41.54,34.321 -62.15,51.391 9.69,23.689 19.38,47.379 29.07,70.919 -33.69,27.85 -67.38,55.7 -101.08,83.38 -22,-13.53 -44.15,-27.07 -66.3,-40.46 -19.85,16.63 -39.7,33.09 -59.54,49.55 v 0" /><path
         id="path292"
         style="fill:#ffffff;fill-opacity:1;fill-rule:nonzero;stroke:none"
         d="m 5234.46,1306.61 c 48.16,38.78 107.55,-45.69 54.77,-77.68 -48.16,-39.7 -106.76,45.06 -54.77,77.68 v 0" /><path
         id="path294"
         style="fill:#100f0d;fill-opacity:1;fill-rule:nonzero;stroke:none"
         d="m 4282.76,1214.62 c 14.62,10.92 29.24,21.53 43.86,32.15 68.45,-94.92 136.92,-189.99 205.38,-284.77 -18.77,-13.531 -37.38,-26.918 -56.16,-40.621 -47.38,65.391 -94.15,131.081 -141.84,196.151 -22.31,-16.3 -44.77,-32.62 -67.09,-49.06 -9.21,12.76 -18.3,25.37 -27.37,37.84 33.39,25.55 64.31,64.45 43.22,108.31 v 0" /><path
         id="path296"
         style="fill:#ffffff;fill-opacity:1;fill-rule:nonzero;stroke:none"
         d="m 1453.7,1167.53 c 41.84,26.78 83.69,53.54 125.68,80.16 -18.46,-45.99 -37.23,-91.85 -56.15,-137.68 -23.23,19.23 -46.46,38.46 -69.53,57.52 v 0" /><path
         id="path298"
         style="fill:#100f0d;fill-opacity:1;fill-rule:nonzero;stroke:none"
         d="m 1730.77,1223.54 c 81.53,-51.08 162.61,-103.08 244.16,-154.16 -11.09,-17.68 -22.32,-35.38 -33.55,-53.38 -30.3,19.23 -60.46,38.32 -90.61,57.38 -52.15,-82.15 -104,-164.61 -156.16,-246.919 -20.92,13.238 -41.84,26.469 -62.92,39.539 51.54,83.082 106.31,164.16 155.23,248.77 -30.15,17.99 -59.84,36.76 -89.39,55.69 10.93,17.7 22.16,35.38 33.24,53.08 v 0" /><path
         id="path300"
         style="fill:#ffffff;fill-opacity:1;fill-rule:nonzero;stroke:none"
         d="m 822.926,1164.47 c 36.922,47.07 111.539,-15.39 73.535,-59.86 -35.078,-54.14 -119.387,14.47 -73.535,59.86 v 0" /><path
         id="path302"
         style="fill:#ffffff;fill-opacity:1;fill-rule:nonzero;stroke:none"
         d="m 5124.92,1167.85 c 29.69,14.01 69.39,-12.16 65.54,-45.24 2.31,-37.08 -48,-61.99 -75.69,-36.92 -29.54,19.86 -22.76,69.86 10.15,82.16 v 0" /><path
         id="path304"
         style="fill:#ffffff;fill-opacity:1;fill-rule:nonzero;stroke:none"
         d="m 960.77,1037.23 c 50.31,34.93 103.85,-50.621 50.77,-80.308 -50.462,-37.692 -105.849,50.918 -50.77,80.308 v 0" /><path
         id="path306"
         style="fill:#100f0d;fill-opacity:1;fill-rule:nonzero;stroke:none"
         d="m 3936.93,1013.23 c 21.68,11.69 43.54,23.38 65.38,34.92 45.99,-85.228 91.23,-170.92 137.23,-256.298 51.85,27.847 103.68,55.527 155.69,83.07 9.99,-18.762 20.15,-37.692 30.31,-56.453 C 4251.85,778.93 4178.15,739.371 4104.46,700 c -55.99,104.461 -111.85,208.77 -167.53,313.23 v 0" /><path
         id="path308"
         style="fill:#100f0d;fill-opacity:1;fill-rule:nonzero;stroke:none"
         d="m 2056.31,1032 c 26.15,-11.85 52.15,-24.01 78,-36.461 -12.62,-124.609 -24.46,-249.527 -36.92,-374.309 -24.31,11.391 -48.77,22.77 -73.08,34.149 3.38,25.242 6.77,50.461 10.3,75.543 -39.84,19.23 -79.69,38.008 -120.3,55.226 -17.08,-18.617 -34.31,-36.906 -51.7,-55.378 -23.69,11.082 -47.22,22.16 -70.92,33.082 88.15,89.527 176.62,178.609 264.62,268.148 v 0" /><path
         id="path310"
         style="fill:#ffffff;fill-opacity:1;fill-rule:nonzero;stroke:none"
         d="m 4988.76,1027.07 c 50.62,39.55 107.09,-50.449 51.23,-80.148 -49.83,-34 -102.44,49.699 -51.23,80.148 v 0" /><path
         id="path312"
         style="fill:#100f0d;fill-opacity:1;fill-rule:nonzero;stroke:none"
         d="m 3815.23,962.77 c 23.7,8.46 47.39,16.921 71.23,25.539 27.85,-83.539 63.84,-164.618 86.47,-249.848 28.77,-136.309 -207.7,-217.391 -266.15,-89.992 -34.17,79.222 -59.09,161.992 -89.7,242.601 23.53,8.629 47.07,17.239 70.76,25.84 30.16,-77.539 53.7,-157.84 86.94,-234.148 26.92,-61.692 136.76,-25.371 124.75,39.226 -23.99,81.551 -56.92,160.313 -84.3,240.782 v 0" /><path
         id="path314"
         style="fill:#ffffff;fill-opacity:1;fill-rule:nonzero;stroke:none"
         d="m 1959.69,833.852 c 34,36.457 67.85,72.929 101.85,109.23 -6.62,-49.082 -13.23,-98.301 -19.85,-147.543 -27.38,12.77 -54.61,25.531 -82,38.313 v 0" /><path
         id="path316"
         style="fill:#ffffff;fill-opacity:1;fill-rule:nonzero;stroke:none"
         d="m 1095.23,909.23 c 32,22.461 79.23,-7.378 74,-45.539 -2.31,-34 -47.08,-55.992 -74.31,-34 -29.08,16.77 -27.23,62.469 0.31,79.539 v 0" /><path
         id="path318"
         style="fill:#100f0d;fill-opacity:1;fill-rule:nonzero;stroke:none"
         d="m 2373.84,906.781 c 23.55,-6.929 47.24,-13.699 70.93,-20.633 -32.62,-113.687 -65.54,-227.539 -98.16,-341.226 -23.69,6.777 -47.38,13.539 -70.92,20.168 31.85,114.152 65.38,227.832 98.15,341.691 v 0" /><path
         id="path320"
         style="fill:#ffffff;fill-opacity:1;fill-rule:nonzero;stroke:none"
         d="m 4851.39,899.082 c 23.69,20.617 63.84,6.297 72.77,-22.773 15.38,-35.539 -26.78,-76.778 -61.86,-60.161 -34.91,10.633 -41.68,63.704 -10.91,82.934 v 0" /><path
         id="path322"
         style="fill:#100f0d;fill-opacity:1;fill-rule:nonzero;stroke:none"
         d="m 3499.08,864.312 c 22.62,4.458 45.23,8.77 68,13.079 22.3,-116.149 44.46,-232.469 66.62,-348.77 -24.31,-4.633 -48.47,-9.242 -72.78,-14 -63.85,74.309 -127.54,148.609 -191.39,223.078 16.16,-83.379 32,-166.769 48,-250.32 -22.61,-4.289 -45.37,-8.609 -67.83,-13.219 -22.63,116.301 -44.62,232.621 -66.94,348.922 25.55,4.93 51.09,9.84 76.78,14.758 62,-72.61 124.16,-145.231 186.14,-218.141 -15.52,81.531 -31.21,163.063 -46.6,244.613 v 0" /><path
         id="path324"
         style="fill:#100f0d;fill-opacity:1;fill-rule:nonzero;stroke:none"
         d="m 2496.3,868.309 c 25.7,-4.618 51.4,-9.239 77.08,-13.848 32.16,-89.691 64.93,-179.379 96.92,-269.082 14.62,81.531 28.47,163.391 42.93,245.09 16.92,-3.078 50.92,-8.93 68,-11.86 -20,-116.609 -40.61,-233.23 -60.61,-349.839 -24.32,4.312 -48.62,8.46 -72.92,12.46 -33.7,91.852 -66.62,184 -100.17,275.852 -14.76,-83.391 -29.06,-166.922 -43.68,-250.473 -22.77,4.012 -45.7,8.012 -68.47,11.86 20.31,116.613 40.47,233.23 60.92,349.84 v 0" /><path
         id="path326"
         style="fill:#100f0d;fill-opacity:1;fill-rule:nonzero;stroke:none"
         d="m 3045.85,811.242 c 28.61,0.918 57.38,1.828 86.15,2.61 44.62,-117.231 91.22,-233.692 136.31,-350.622 -26.92,-0.781 -53.84,-1.691 -80.61,-2.769 -8.16,24.16 -16.47,48.469 -24.63,72.461 -43.84,-1.231 -87.68,-2.762 -131.54,-4.301 -7.54,-24.633 -14.91,-49.242 -22.3,-74.012 -26,-0.757 -52,-1.679 -77.84,-2.757 37.84,120 76.31,239.539 114.46,359.39 v 0" /><path
         id="path328"
         style="fill:#ffffff;fill-opacity:1;fill-rule:nonzero;stroke:none"
         d="m 1237.7,788.93 c 51.07,39.691 108.45,-48.77 52.3,-80.16 -50,-32.461 -101.85,48.769 -52.3,80.16 v 0" /><path
         id="path330"
         style="fill:#ffffff;fill-opacity:1;fill-rule:nonzero;stroke:none"
         d="m 4711.24,783.699 c 50.15,34 100.92,-50.609 50.15,-80.469 -51.09,-38.46 -107.85,51.989 -50.15,80.469 v 0" /><path
         id="path332"
         style="fill:#ffffff;fill-opacity:1;fill-rule:nonzero;stroke:none"
         d="m 3090.46,733.539 c 16.77,-46.457 33.08,-93.23 49.24,-140.148 -30.16,-0.782 -60.32,-1.7 -90.46,-2.621 13.68,47.539 27.38,95.23 41.22,142.769 v 0" /><path
         id="path334"
         style="fill:#ffffff;fill-opacity:1;fill-rule:nonzero;stroke:none"
         d="m 1393.85,683.23 c 50.76,30.461 100.31,-51.699 49.07,-82.152 -52.46,-37.539 -106.76,54.141 -49.07,82.152 v 0" /><path
         id="path336"
         style="fill:#ffffff;fill-opacity:1;fill-rule:nonzero;stroke:none"
         d="m 4557.39,675.082 c 26.15,18.609 66.3,1.227 71.68,-30.012 11.86,-37.84 -36.61,-74.609 -69.68,-52.3 -30.93,16.46 -32,64.152 -2,82.312 v 0" /><path
         id="path338"
         style="fill:#ffffff;fill-opacity:1;fill-rule:nonzero;stroke:none"
         d="m 1543.08,578.93 c 47.23,43.379 113.23,-38.321 60.31,-75.078 -46.15,-36.153 -106.78,37.078 -60.31,75.078 v 0" /><path
         id="path340"
         style="fill:#ffffff;fill-opacity:1;fill-rule:nonzero;stroke:none"
         d="m 4405.69,580 c 28.16,14.312 66.62,-9.238 66.47,-41.07 3.85,-34.942 -40.01,-63.848 -69.85,-44.77 -35.54,15.852 -33.23,72.75 3.38,85.84 v 0" /><path
         id="path342"
         style="fill:#ffffff;fill-opacity:1;fill-rule:nonzero;stroke:none"
         d="m 1710,492.609 c 31.85,26.161 85.39,-5.23 76.16,-45.687 -3.24,-33.692 -48.16,-52.922 -74.47,-31.543 -27.08,16.773 -26.15,58.781 -1.69,77.23 v 0" /><path
         id="path344"
         style="fill:#ffffff;fill-opacity:1;fill-rule:nonzero;stroke:none"
         d="m 4235.08,489.539 c 30.46,20.922 74.46,-6.16 72.62,-42.16 0,-34.609 -42.61,-58.617 -72.01,-39.988 -30.92,16.148 -31.37,65.539 -0.61,82.148 v 0" /><path
         id="path346"
         style="fill:#ffffff;fill-opacity:1;fill-rule:nonzero;stroke:none"
         d="m 1879.38,414.312 c 26.31,23.688 73.85,4.157 76.93,-30.933 4.31,-26.77 -19.85,-56.758 -47.85,-53.527 -43.69,-3.84 -65.08,60.308 -29.08,84.46 v 0" /><path
         id="path348"
         style="fill:#ffffff;fill-opacity:1;fill-rule:nonzero;stroke:none"
         d="m 4065.09,412.77 c 50.29,35.378 103.05,-50.61 50.59,-80.469 -51.06,-37.52 -105.84,51.398 -50.59,80.469 v 0" /><path
         id="path350"
         style="fill:#ffffff;fill-opacity:1;fill-rule:nonzero;stroke:none"
         d="m 2051.38,346.012 c 23.69,25.058 70.16,10.597 78,-22.321 12.16,-36.761 -30.76,-74.16 -65.38,-56.449 -31.23,11.688 -38.46,57.977 -12.62,78.77 v 0" /><path
         id="path352"
         style="fill:#ffffff;fill-opacity:1;fill-rule:nonzero;stroke:none"
         d="m 3896.92,351.078 c 54,25.543 94.47,-64.148 38.77,-87.078 -56.15,-30.77 -98.46,65.852 -38.77,87.078 v 0" /><path
         id="path354"
         style="fill:#ffffff;fill-opacity:1;fill-rule:nonzero;stroke:none"
         d="m 2238.31,298 c 50,31.379 100.3,-50.309 50.3,-80.918 -52.15,-39.391 -107.99,52.297 -50.3,80.918 v 0" /><path
         id="path356"
         style="fill:#ffffff;fill-opacity:1;fill-rule:nonzero;stroke:none"
         d="m 3710.46,292.609 c 23.54,18.313 62.76,5.391 70.77,-23.379 14.92,-34.148 -23.53,-75.839 -58.77,-61.531 -37.69,8.602 -46.15,66.461 -12,84.91 v 0" /><path
         id="path358"
         style="fill:#ffffff;fill-opacity:1;fill-rule:nonzero;stroke:none"
         d="m 2421.23,256.16 c 49.23,27.84 97.24,-48.461 50.92,-80.621 -52.46,-43.07 -112.3,52.152 -50.92,80.621 v 0" /><path
         id="path360"
         style="fill:#ffffff;fill-opacity:1;fill-rule:nonzero;stroke:none"
         d="m 3530.16,251.852 c 32.76,23.539 82.61,-12.012 71.07,-50.622 -5.38,-37.539 -59.54,-51.23 -82.46,-21.378 -19.53,21.226 -13.69,58.148 11.39,72 v 0" /><path
         id="path362"
         style="fill:#ffffff;fill-opacity:1;fill-rule:nonzero;stroke:none"
         d="m 2604.61,225.391 c 29.24,16 69.85,-6.309 69.85,-40.161 4,-35.699 -39.39,-62.769 -70.15,-44.621 -33.39,15.852 -33.08,69.403 0.3,84.782 v 0" /><path
         id="path364"
         style="fill:#ffffff;fill-opacity:1;fill-rule:nonzero;stroke:none"
         d="m 3345.85,221.699 c 27.53,19.531 72.76,-2.168 72.15,-36.789 5.54,-32.758 -34.15,-62.922 -63.85,-47.98 -36.77,10.312 -41.85,66.922 -8.3,84.769 v 0" /><path
         id="path366"
         style="fill:#ffffff;fill-opacity:1;fill-rule:nonzero;stroke:none"
         d="m 2791.69,207.082 c 32.77,17.84 76.46,-14.621 67.69,-51.242 -4.3,-31.379 -43.84,-50.149 -70.77,-33.07 -33.38,16.46 -30.77,70.152 3.08,84.312 v 0" /><path
         id="path368"
         style="fill:#ffffff;fill-opacity:1;fill-rule:nonzero;stroke:none"
         d="m 2973.54,197.691 c 51.24,37.079 104.76,-52.152 49.68,-80.921 -50.91,-34.3012 -103.22,51.839 -49.68,80.921 v 0" /><path
         id="path370"
         style="fill:#ffffff;fill-opacity:1;fill-rule:nonzero;stroke:none"
         d="m 3156.31,200.621 c 25.84,24.77 74.92,3.527 76.16,-32.012 4.46,-27.218 -20.78,-55.687 -48.62,-52.609 -43.24,-2.93 -64.15,61.84 -27.54,84.621 v 0" /></g></g></svg>