<?xml version="1.0" encoding="UTF-8" standalone="no"?>
<svg
   xmlns:dc="http://purl.org/dc/elements/1.1/"
   xmlns:cc="http://creativecommons.org/ns#"
   xmlns:rdf="http://www.w3.org/1999/02/22-rdf-syntax-ns#"
   xmlns:svg="http://www.w3.org/2000/svg"
   xmlns="http://www.w3.org/2000/svg"
   viewBox="0 0 733.33331 860.44"
   height="860.44"
   width="733.33331"
   xml:space="preserve"
   id="svg2"
   version="1.1"><metadata
     id="metadata8"><rdf:RDF><cc:Work
         rdf:about=""><dc:format>image/svg+xml</dc:format><dc:type
           rdf:resource="http://purl.org/dc/dcmitype/StillImage" /></cc:Work></rdf:RDF></metadata><defs
     id="defs6" /><g
     transform="matrix(1.3333333,0,0,-1.3333333,0,860.44)"
     id="g10"><g
       transform="scale(0.1)"
       id="g12"><path
         id="path14"
         style="fill:#c5701c;fill-opacity:1;fill-rule:nonzero;stroke:none"
         d="m 2724.39,6453.33 c 12.42,0 24.95,0 37.43,0 0,-17.03 0,-34.06 0,-51.09 15.94,0 31.83,0 47.79,0 0.06,-11.7 0.18,-23.45 0.3,-35.14 -16.07,-0.12 -32.09,-0.19 -48.09,-0.19 0,-20.2 0,-40.41 0,-60.62 -12.54,0 -24.95,0 -37.43,0 -0.05,20.21 -0.05,40.36 0,60.51 -16.85,0.11 -33.64,0.24 -50.37,0.48 1.98,11.15 -3.36,25.67 5.58,34.24 14.87,1.37 29.86,0.96 44.79,1.2 -0.05,16.85 -0.05,33.76 0,50.61 v 0" /><path
         id="path16"
         style="fill:#c5701c;fill-opacity:1;fill-rule:nonzero;stroke:none"
         d="m 2696.63,6260.65 c 15.41,36.82 74,47.86 97.81,13.67 18.9,-29.98 8.4,-67.16 -2.76,-97.98 -13.55,-38.32 -28.31,-76.29 -39.52,-115.38 -14.57,42.99 -32.8,84.49 -48.69,126.95 -7.5,23.02 -17.99,49.12 -6.84,72.74 v 0" /><path
         id="path18"
         style="fill:#c5701c;fill-opacity:1;fill-rule:nonzero;stroke:none"
         d="m 2618.37,6291.42 c 30.88,-16.38 46.29,-49.18 57.32,-80.66 23.94,-69.03 33.29,-141.89 43.97,-213.85 -13.2,-0.84 -26.45,-1.68 -39.64,-2.4 -15.72,99.85 -31.25,200.24 -61.65,296.91 v 0" /><path
         id="path20"
         style="fill:#c5701c;fill-opacity:1;fill-rule:nonzero;stroke:none"
         d="m 2814.59,6183.59 c 11.87,40.37 26.39,84.92 64.71,107.83 -25.67,-97.57 -46.17,-196.58 -59.32,-296.67 -11.75,0.6 -23.56,1.26 -35.31,1.98 3.78,63.02 13.31,125.94 29.92,186.86 v 0" /><path
         id="path22"
         style="fill:#c5701c;fill-opacity:1;fill-rule:nonzero;stroke:none"
         d="m 527.246,6275.16 c 105.242,-93.25 199.16,-198.55 286.41,-308.54 41.442,-51.87 76.524,-108.3 112.442,-164.01 60.449,-95.77 121.982,-191.24 174.092,-291.93 21.71,-37.54 13.98,-82.4 17.93,-123.78 -81.44,101.71 -160.893,204.85 -242.03,306.81 -53.555,69.38 -113.879,135.4 -188.785,182.24 45.16,-124.25 118.379,-239.93 218.531,-327.07 66.199,-64.05 131.264,-130.01 206.834,-183.26 13.01,-8.04 14.33,-24.47 18.82,-37.79 17.04,-68.3 59.26,-126.65 105.49,-178.35 -58.35,26.45 -118.38,50.2 -172.23,85.4 -120.477,75.5 -226.684,171.93 -322.098,276.88 -75.132,85.46 -146.203,176.43 -195.855,279.39 -68.785,151.79 -56.012,325.51 -19.551,484.01 v 0" /><path
         id="path24"
         style="fill:#c5701c;fill-opacity:1;fill-rule:nonzero;stroke:none"
         d="m 4736.42,6031.39 c 71.84,87.2 148.9,170.79 235.87,243.18 29.31,-130.91 44.36,-269.45 9.77,-400.84 -20.63,-80.84 -65.56,-152.5 -113.29,-219.96 -66.99,-93.44 -143.27,-180.15 -226.62,-259.31 -80,-74.36 -166.48,-143.57 -264.65,-192.32 -38.51,-17.99 -78.19,-33.35 -115.86,-53.13 54.76,59.31 97.57,130.36 115.99,209.47 80.41,56.25 149.98,125.93 220.13,194 97.51,86.77 170.92,200.18 212.72,323.59 -74.12,-49.23 -135.77,-114.72 -189.86,-184.82 -80,-100.75 -158.68,-202.58 -238.33,-303.56 2.53,35.13 -4.91,72.92 12.6,105.3 92.53,191.84 207.26,373.06 341.53,538.4 v 0" /><path
         id="path26"
         style="fill:#c5701c;fill-opacity:1;fill-rule:nonzero;stroke:none"
         d="m 2556.9,6245.18 c 17.46,4.37 41.38,3.36 50.5,-15 10.97,-20.32 15.94,-43.17 21.64,-65.41 12.72,-56.8 23.21,-114.25 28.37,-172.24 -23.75,-5.58 -46.72,-13.67 -69.14,-23.09 -24.59,58.59 -50.8,116.65 -70.11,177.27 -5.64,18.59 -11.09,37.6 -11.46,57.09 4.02,24.05 28.67,36.46 50.2,41.38 v 0" /><path
         id="path28"
         style="fill:#c5701c;fill-opacity:1;fill-rule:nonzero;stroke:none"
         d="m 2896.74,6241.1 c 26.87,6.67 59.13,8.51 81.08,-11.33 18.48,-18.84 13.74,-48.16 5.22,-70.52 -24.17,-63.39 -48.51,-126.72 -72.74,-190.05 -22.79,10.08 -46.35,18.53 -70.83,23.51 9.54,64.23 19.2,128.58 35.27,191.54 4.85,19.85 12.7,38.74 22,56.85 v 0" /><path
         id="path30"
         style="fill:#c5701c;fill-opacity:1;fill-rule:nonzero;stroke:none"
         d="m 2169.14,6144.25 c 12.47,0 24.95,0 37.48,0.07 0.3,-17.46 0.42,-34.91 0.48,-52.36 15.71,-0.18 31.43,-0.3 47.2,-0.3 0,-11.7 0,-23.33 0.06,-35.02 -15.24,0.06 -30.52,0.06 -45.76,0.12 0,-20.28 0,-40.54 -0.18,-60.81 -13.19,-0.12 -26.33,-0.18 -39.46,-0.24 0,20.33 0,40.66 0,60.93 -16.01,0.06 -31.96,0.06 -47.92,0.06 0,11.69 0,23.32 0.06,34.96 15.9,0 31.85,0 47.86,0 -0.06,17.57 0,35.08 0.18,52.59 v 0" /><path
         id="path32"
         style="fill:#c5701c;fill-opacity:1;fill-rule:nonzero;stroke:none"
         d="m 3291.04,6144.85 c 13.44,-0.71 26.93,-1.67 40.42,-2.46 -0.11,-16.91 -0.18,-33.76 -0.18,-50.67 15.77,0 31.6,-0.06 47.44,-0.18 -0.07,-11.58 -0.07,-23.15 0,-34.72 -15.84,-0.12 -31.6,-0.12 -47.37,-0.18 0,-20.27 -0.07,-40.54 0,-60.81 -13.56,-0.06 -27.05,-0.06 -40.48,-0.12 -0.07,20.33 -0.07,40.6 0,60.93 -15.71,0.06 -31.44,0.12 -47.08,0.3 0.59,11.63 1.43,23.2 2.34,34.78 14.87,0 29.74,-0.06 44.67,-0.06 0,17.75 0.07,35.5 0.24,53.19 v 0" /><path
         id="path34"
         style="fill:#c5701c;fill-opacity:1;fill-rule:nonzero;stroke:none"
         d="m 2145.81,5945.33 c -4.25,16.26 9.42,31.97 25.31,33.65 19.19,3.12 42.46,2.4 56.55,-13.08 9.12,-11.21 5.64,-26.38 0.78,-38.56 -10.55,-26.2 -26.2,-49.95 -39.28,-74.89 -16.79,29.67 -36.4,59 -43.36,92.88 v 0" /><path
         id="path36"
         style="fill:#c5701c;fill-opacity:1;fill-rule:nonzero;stroke:none"
         d="m 3266.57,5945.45 c -3.77,24.47 24.41,36.17 44.56,35.02 18.53,1.56 43.42,-6.53 43.42,-28.96 -4.08,-37.24 -28.54,-67.7 -43.36,-101.1 -14.45,31.77 -38.31,60.02 -44.62,95.04 v 0" /><path
         id="path38"
         style="fill:#c5701c;fill-opacity:1;fill-rule:nonzero;stroke:none"
         d="m 2622.63,5955.59 c 47.49,16.91 98.89,12.65 148.36,12.53 44.91,-2.75 92.9,-4.32 132.41,-28.55 -8.51,-10.61 -19.67,-19.06 -33.28,-21.52 -53.85,-12.53 -109.74,-12.3 -164.68,-10.43 -37.24,3.23 -76.93,4.31 -109.26,25.36 7.26,9.06 14.69,19.19 26.45,22.61 v 0" /><path
         id="path40"
         style="fill:#c5701c;fill-opacity:1;fill-rule:nonzero;stroke:none"
         d="m 2048.06,5948.51 c 31.6,20.33 78.32,-1.31 88.58,-36.28 9.83,-35.56 16.79,-71.84 26.08,-107.58 -15.65,-1.2 -31.24,-2.58 -46.83,-4.51 -24.11,34.43 -47.2,69.69 -68.06,106.15 -7.68,12.89 -14.76,31.67 0.23,42.22 v 0" /><path
         id="path42"
         style="fill:#c5701c;fill-opacity:1;fill-rule:nonzero;stroke:none"
         d="m 3173.5,5951.03 c 32.27,15.71 74.79,-5.15 84.73,-39.1 9.85,-35.5 16.74,-71.72 25.86,-107.34 -15.42,-1.14 -30.83,-2.52 -46.11,-4.32 -24.54,34 -47.56,69.27 -68.08,105.85 -8.15,13.25 -13.24,36.15 3.6,44.91 v 0" /><path
         id="path44"
         style="fill:#c5701c;fill-opacity:1;fill-rule:nonzero;stroke:none"
         d="m 3364.98,5922.18 c 13.2,29.81 51.46,40.18 80.78,31.07 18.06,-6.12 16.86,-28.97 8.4,-42.57 -21.05,-38.2 -45.58,-74.37 -70.05,-110.47 -15.65,1.98 -31.41,3.3 -47.14,4.44 6.61,39.64 10.63,80.78 28.01,117.53 v 0" /><path
         id="path46"
         style="fill:#c5701c;fill-opacity:1;fill-rule:nonzero;stroke:none"
         d="m 2240.21,5912.65 c 8.69,21.53 27.88,39.58 51.57,42.16 14.09,1.26 32.32,3.42 41.32,-10.31 8.39,-11.1 3.3,-26.15 -3,-37 -20.75,-36.89 -44.56,-71.97 -68.01,-107.17 -15.59,1.8 -31.18,3.05 -46.83,4.08 8.63,35.98 10.67,73.82 24.95,108.24 v 0" /><path
         id="path48"
         style="fill:#c5701c;fill-opacity:1;fill-rule:nonzero;stroke:none"
         d="m 2738.01,5894.48 c 18.29,6.48 42.87,-5.57 41.55,-26.8 0.55,-24.05 -30.82,-37.19 -49.41,-24.05 -16.79,12.77 -14.09,45.28 7.86,50.85 v 0" /><path
         id="path50"
         style="fill:#c5701c;fill-opacity:1;fill-rule:nonzero;stroke:none"
         d="m 2442,5749.3 c 44.98,85.09 140.57,144.88 238.31,132.71 -17.03,-37.91 -41.19,-75.2 -77.78,-96.73 -49.41,-25.07 -105.18,-37.06 -160.53,-35.98 v 0" /><path
         id="path52"
         style="fill:#c5701c;fill-opacity:1;fill-rule:nonzero;stroke:none"
         d="m 2818.91,5881.95 c 61.29,5.63 124.31,-13.08 171.86,-52.3 28.01,-21.65 49.48,-50.31 67.77,-80.35 -63.56,-3.24 -129.29,12.83 -181.16,50.37 -28.07,20.09 -47.74,49.72 -58.47,82.28 v 0" /><path
         id="path54"
         style="fill:#c5701c;fill-opacity:1;fill-rule:nonzero;stroke:none"
         d="m 214.691,5851.18 c 33.637,-7.86 64.524,-23.87 94.032,-41.49 83.175,-50.38 159.336,-111.49 232.742,-174.99 47.672,-40.06 89.945,-85.94 135.586,-128.28 86.777,-83.17 174.273,-165.87 266.867,-242.64 13.785,-12.47 32.738,-22.12 38.137,-41.25 11.39,-32.98 22.125,-66.21 33.945,-99.01 -141.352,111.96 -280.535,227.82 -434.539,322.33 -38.141,23.1 -77.481,44.5 -119.281,60.09 67.527,-89.29 151.004,-165.87 242.515,-230.1 104.344,-73.58 218.469,-131.75 333.135,-187.23 13.49,-21.28 27.46,-42.21 41.07,-63.44 -125.033,21.35 -244.67,67.16 -357.712,123.84 -115.68,59.12 -225.782,129.89 -324.016,215.11 -52.895,47.85 -105.781,98.94 -136.664,164.37 -47.797,99.91 -54.871,213.85 -45.817,322.69 v 0" /><path
         id="path56"
         style="fill:#c5701c;fill-opacity:1;fill-rule:nonzero;stroke:none"
         d="m 5094.85,5744.98 c 59.37,41.5 118.98,88.09 190.52,105.84 9.66,-118.37 -0.17,-244.07 -61.04,-348.71 -44.68,-73.11 -110.65,-129.84 -176.92,-182.67 -87.36,-67.95 -181.88,-126.54 -280.83,-175.83 -109.63,-54.16 -225.54,-97.69 -346.38,-118.33 19.55,25.01 30.04,60.99 61.71,73.53 173.01,83.36 345.3,178.23 479.1,318.68 27.52,27.82 53.24,57.39 76.51,88.81 -87.2,-33.76 -164.67,-87.5 -240.9,-140.74 -107.53,-76.53 -210.18,-159.65 -312.67,-242.64 13.13,36.52 23.38,74.12 38.2,110.04 10.55,15.05 27.23,24.47 40.78,36.64 101.77,85.64 198.5,177.09 293.42,270.22 73.83,74.61 154.36,142.43 238.5,205.16 v 0" /><path
         id="path58"
         style="fill:#c5701c;fill-opacity:1;fill-rule:nonzero;stroke:none"
         d="m 2089.32,5760.21 c 13.25,18.29 37.84,18.29 58.11,21.11 46.48,2.1 94.51,4.86 139.31,-10.32 -4.67,-19 -27.59,-17.51 -42.88,-20.14 -51.45,-2.64 -104.65,-6.12 -154.54,9.35 v 0" /><path
         id="path60"
         style="fill:#c5701c;fill-opacity:1;fill-rule:nonzero;stroke:none"
         d="m 3209.61,5765.55 c 21.83,11.87 46.59,16.25 71.3,16.49 42.09,0.78 86.35,4.38 125.75,-13.55 -0.54,-2.58 -1.49,-7.68 -2.03,-10.26 -46.24,-12.11 -94.57,-10.13 -141.9,-7.98 -18.82,0.25 -37.06,5.7 -53.12,15.3 v 0" /><path
         id="path62"
         style="fill:#c5701c;fill-opacity:1;fill-rule:nonzero;stroke:none"
         d="m 2345.51,5716.02 c 81.62,6.05 165.15,5.27 244.02,30.16 -12.3,-23.09 -30.11,-43.12 -53.98,-54.57 16.19,-6.12 31.85,-13.8 46.84,-22.49 -14.15,-20.99 -34.72,-36.05 -57.16,-47.14 41.74,-37.36 92.84,-66.75 149.99,-69.93 -17.99,-12.83 -36.88,-26.14 -59.31,-29.02 -65.84,-9.29 -136.13,21.29 -172.71,77.18 2.28,-19.13 3.35,-38.32 2.88,-57.57 -21.59,6 -41.5,16.85 -56.37,33.7 8.93,-19.3 15.35,-39.7 20.03,-60.5 -21.17,4.14 -41.5,11.63 -60.69,21.35 3.54,-14.81 6.29,-29.87 8.57,-44.98 -48.15,17.15 -95.95,37.9 -135.82,70.52 -0.37,-14.57 -0.49,-29.14 -0.61,-43.71 -40.05,8.21 -77.24,30.21 -101.7,63.14 -35.44,45.16 -47.02,103.39 -51.76,159.28 43.84,-12.05 88.1,-24.23 133.73,-27.17 47.98,-3.23 96.02,0.48 144.05,1.75 v 0" /><path
         id="path64"
         style="fill:#c5701c;fill-opacity:1;fill-rule:nonzero;stroke:none"
         d="m 2910.24,5745.64 c 102.85,-28.85 210.9,-26.69 316.69,-32.26 68.73,-5.1 137.09,7.61 202.46,27.94 -3.35,-62.25 -19.43,-127.92 -63.87,-173.97 -23.51,-25.24 -55.3,-41.2 -88.75,-48.33 0.3,12.77 0.71,25.54 1.33,38.32 -42.3,-28.97 -89.96,-48.64 -138.25,-65.25 2.46,15.11 5.4,30.04 8.28,45.03 -18.89,-9.59 -38.91,-16.91 -59.73,-21.1 4.45,19.97 10.98,39.46 20.63,57.5 -16.3,-15.16 -36.4,-25.18 -57.86,-30.52 -0.12,18.23 0.71,36.46 1.91,54.64 -37.53,-54.57 -107.28,-84.45 -172.65,-74.31 -21.83,3.48 -40.23,16.37 -57.99,28.72 49.95,3.49 97.16,24.65 134.99,57.1 4.15,4.31 10.79,7.79 10.92,14.51 -16.73,12.18 -36.16,22.49 -46.78,41.02 4.38,17.27 27.29,19.19 40.84,27.04 -23.45,11.22 -40.3,31.25 -52.17,53.92 v 0" /><path
         id="path66"
         style="fill:#c5701c;fill-opacity:1;fill-rule:nonzero;stroke:none"
         d="m 2003.63,5692.99 c -6.78,12.11 -4.08,26.2 -2.77,39.22 15.54,0.47 31.19,-0.49 46.54,-3.6 3.36,-42.1 14.22,-83 28.49,-122.64 -28.61,24.77 -55.47,52.77 -72.26,87.02 v 0" /><path
         id="path68"
         style="fill:#c5701c;fill-opacity:1;fill-rule:nonzero;stroke:none"
         d="m 3452.71,5728.91 c 16.98,3.89 53.33,11.21 48.77,-17.21 -10.2,-43.36 -44.93,-76.04 -76.88,-104.95 13.36,39.7 24.28,80.3 28.11,122.16 v 0" /><path
         id="path70"
         style="fill:#c5701c;fill-opacity:1;fill-rule:nonzero;stroke:none"
         d="m 1833.07,5666.42 c 30.65,28.49 75.81,24.76 113.77,17.51 8.69,-18.11 17.39,-36.94 32.56,-50.67 31.9,-30.35 76.64,-39.22 113.64,-61.17 18.53,-10.74 33.34,-26.45 48.16,-41.68 -26.75,-9.6 -53.38,-19.49 -78.8,-32.21 -33.59,20.82 -72.33,36.35 -112.62,31.61 -32.63,-0.9 -60.87,-18.47 -88.88,-33.11 -59.79,30.23 -77.48,122.52 -27.83,169.72 v 0" /><path
         id="path72"
         style="fill:#c5701c;fill-opacity:1;fill-rule:nonzero;stroke:none"
         d="m 3554.01,5683.03 c 42.87,11.21 100.86,8.45 127.85,-32.26 26.87,-46.24 12.41,-110.23 -27.89,-144.23 -6.12,-4.14 -12.94,-13.91 -20.56,-7.01 -28.73,17.09 -60.28,32.02 -94.45,30.76 -36.4,1.98 -70.29,-13.67 -100.69,-32.03 -27.29,11.64 -55.78,20.04 -84.5,27.11 18.41,19.92 39.22,37.72 62.85,51.22 34,20.57 73.17,32.5 103.93,58.29 15.64,12.58 22.55,32.02 33.46,48.15 v 0" /><path
         id="path74"
         style="fill:#ffffff;fill-opacity:1;fill-rule:nonzero;stroke:none"
         d="m 2154.51,5661.8 c 55.89,-1.98 111.66,0.9 167.37,3.54 -35.26,-9.42 -74.12,-7.74 -106.08,-27.71 -14.88,-7.25 -21.77,-22.9 -29.27,-36.64 -18.17,15.53 -26.14,38.33 -32.02,60.81 v 0" /><path
         id="path76"
         style="fill:#ffffff;fill-opacity:1;fill-rule:nonzero;stroke:none"
         d="m 3174.29,5664.32 c 21.71,3 43.35,-1.26 65.06,-2.21 34.3,-1.57 68.73,-1.21 103.03,-3.01 -5.94,-21.76 -15.42,-42.52 -30.53,-59.49 -20.21,56.49 -88.39,56.01 -137.56,64.71 v 0" /><path
         id="path78"
         style="fill:#ffffff;fill-opacity:1;fill-rule:nonzero;stroke:none"
         d="m 1916.97,5601.11 c 9.66,0.36 19.31,0.66 29.03,0.72 4.01,-10.31 11.81,-20.87 8.39,-32.57 -1.92,-10.37 -14.03,-11.99 -21.47,-16.96 -3.77,2.34 -11.27,7.01 -15.05,9.41 -4.62,12.84 -4.2,26.27 -0.9,39.4 v 0" /><path
         id="path80"
         style="fill:#ffffff;fill-opacity:1;fill-rule:nonzero;stroke:none"
         d="m 3548.97,5601.47 c 11.57,-0.59 27.59,4.62 34,-8.45 5.34,-9.9 1.33,-21.53 0.79,-32.09 -6.9,-2.39 -13.74,-4.73 -20.51,-7.08 -3.91,1.57 -11.7,4.69 -15.6,6.18 -4.98,13.86 -3.6,27.89 1.32,41.44 v 0" /><path
         id="path82"
         style="fill:#c5701c;fill-opacity:1;fill-rule:nonzero;stroke:none"
         d="m 1151.04,5532.81 c 87.92,-21.35 159.64,-85.58 207.68,-160.24 24.71,-36.58 38.08,-79.16 48.75,-121.62 22.25,-89.48 41.86,-182.72 96.13,-259.42 -123.65,58.76 -241.73,142.78 -311.18,263.44 -48.75,83 -63.14,184.22 -41.38,277.84 v 0" /><path
         id="path84"
         style="fill:#c5701c;fill-opacity:1;fill-rule:nonzero;stroke:none"
         d="m 4121.74,5338.33 c 46.41,90.19 126.36,170.26 227.45,194.12 16.2,-94.99 11.04,-199.64 -43.11,-282.4 -75.27,-114.66 -189.03,-198.85 -310.64,-259.18 77.47,100.8 75.67,234.83 126.3,347.46 v 0" /><path
         id="path86"
         style="fill:#c5701c;fill-opacity:1;fill-rule:nonzero;stroke:none"
         d="m 2908.97,5380.79 c 21.48,63.92 69.82,119.69 133.08,144.77 -17.26,-55.12 -40.41,-108.73 -71.12,-157.73 -25.67,-40.3 -41.44,-87.19 -43.24,-135.05 -17.39,46.54 -34.42,98.59 -18.72,148.01 v 0" /><path
         id="path88"
         style="fill:#c5701c;fill-opacity:1;fill-rule:nonzero;stroke:none"
         d="m 2456.69,5525.91 c 66.02,-26.32 116.4,-85.69 135.71,-153.52 10.55,-47.49 -4.49,-95.23 -19.79,-139.85 -7.25,108.37 -90.37,190.4 -115.92,293.37 v 0" /><path
         id="path90"
         style="fill:#c5701c;fill-opacity:1;fill-rule:nonzero;stroke:none"
         d="m 2027.73,5441.65 c 29.09,41.87 80.31,59.25 127.74,70.35 20.99,-24.46 42.45,-48.46 64.16,-72.26 -47.97,-8.28 -97.5,-21.71 -133.97,-55.78 -21.23,-18.17 -32.68,-43.95 -44.73,-68.42 -10.26,1.92 -12.48,13.79 -16.8,21.65 -14.8,32.8 -18.05,73.82 3.6,104.46 v 0" /><path
         id="path92"
         style="fill:#c5701c;fill-opacity:1;fill-rule:nonzero;stroke:none"
         d="m 3275.63,5435.54 c 23.03,25.48 45.57,51.45 69.26,76.4 51.34,-12.11 108.91,-32.5 134.21,-82.88 19.8,-40.12 2.1,-84.86 -18.47,-120.72 -12.59,35.86 -34.12,69.39 -66.38,90.56 -34.85,23.75 -76.99,34.12 -118.62,36.64 v 0" /><path
         id="path94"
         style="fill:#c5701c;fill-opacity:1;fill-rule:nonzero;stroke:none"
         d="m 2190.91,5502.28 c 62.07,-14.8 125.57,-40.17 168.33,-89.53 24.41,-27.76 34.67,-64.89 33.41,-101.41 -56.68,74.72 -150.82,110.83 -201.74,190.94 v 0" /><path
         id="path96"
         style="fill:#c5701c;fill-opacity:1;fill-rule:nonzero;stroke:none"
         d="m 2378.61,5502.04 c 15.83,-3.11 31.55,-6.42 47.38,-9.71 25.06,-50.97 49.29,-103.27 85.69,-147.4 -2.99,-18.53 -7.13,-37.13 -16.25,-53.68 -9.47,2.04 -11.81,12.71 -16.73,19.61 -37.12,70.22 -98.7,122.82 -161.49,169.42 20.5,-6.06 41.19,-11.94 61.76,-17.99 -0.12,13.31 -0.23,26.56 -0.36,39.75 v 0" /><path
         id="path98"
         style="fill:#c5701c;fill-opacity:1;fill-rule:nonzero;stroke:none"
         d="m 2551.32,5505.7 c 38.99,0.18 79.4,-10.14 109.03,-36.52 34.66,-29.92 51.69,-74.48 61.23,-118.08 -80.84,13.55 -142.67,80.12 -170.26,154.6 v 0" /><path
         id="path100"
         style="fill:#c5701c;fill-opacity:1;fill-rule:nonzero;stroke:none"
         d="m 2856.57,5484 c 26.86,17.26 59.66,19.36 90.67,21.4 -26.39,-74.9 -89.11,-139.84 -169.06,-154.72 9.9,51.04 31.73,105.37 78.39,133.32 v 0" /><path
         id="path102"
         style="fill:#c5701c;fill-opacity:1;fill-rule:nonzero;stroke:none"
         d="m 3150.05,5422.82 c 43,42.22 100.4,68.07 159.05,79.52 -51.87,-78.98 -142.55,-117.77 -203.24,-188.36 -0.06,40.48 15.28,80.3 44.19,108.84 v 0" /><path
         id="path104"
         style="fill:#c5701c;fill-opacity:1;fill-rule:nonzero;stroke:none"
         d="m 3072.16,5492.03 c 16.24,3.53 32.56,6.9 48.93,9.95 -0.18,-13.19 -0.24,-26.45 -0.24,-39.69 21.11,6.66 42.4,12.71 63.45,19.48 -72.27,-51.69 -139.08,-114.9 -177.99,-196.1 -8.75,18.95 -15.71,38.75 -17.93,59.55 35.79,43.9 60.03,95.71 83.78,146.81 v 0" /><path
         id="path106"
         style="fill:#c5701c;fill-opacity:1;fill-rule:nonzero;stroke:none"
         d="m 2192.59,5387.74 c 24.65,1.92 53.31,20.03 74.95,0.54 56.08,-34.12 89.18,-93.43 142.08,-131.27 -18.59,-46.83 -27.23,-96.73 -30.11,-146.86 -17.21,26.44 -33.52,53.91 -42.7,84.31 -15.64,45.22 -19.12,96.13 -49.11,135.29 -22.97,30.83 -59.97,45.82 -95.11,57.99 v 0" /><path
         id="path108"
         style="fill:#c5701c;fill-opacity:1;fill-rule:nonzero;stroke:none"
         d="m 3198.46,5362.61 c 16.42,13.08 32.6,27.18 52.11,35.57 18.16,-1.44 35.8,-6.48 53.73,-9.78 -39.71,-10.37 -77.12,-33.34 -98.83,-68.84 -15,-22.73 -20.1,-49.72 -26.33,-75.74 -11.82,-47.92 -34.72,-91.88 -56.31,-135.9 -3.72,51.16 -16.19,101.12 -32.62,149.57 42.46,28.25 68.54,73.7 108.25,105.12 v 0" /><path
         id="path110"
         style="fill:#c5701c;fill-opacity:1;fill-rule:nonzero;stroke:none"
         d="m 1517.22,5020.61 c -66.75,98.05 -78.08,222.25 -65.49,337.33 22.91,-48.99 50.26,-96.13 84.43,-138.11 72.21,-90.2 164.74,-161.14 258.83,-226.86 29.21,-20.27 55.11,-46.91 69.15,-80.01 16.31,-36.75 14.87,-79.87 0.36,-116.99 -30.22,-75.81 -72.57,-147.83 -87.56,-228.96 -5.45,-26.33 -1.56,-57.58 19.97,-75.99 31.13,-26.8 72.5,-37.18 112.03,-44.49 74.9,-10.97 152.68,-4.02 223.62,23.03 19.31,-50.38 43.96,-99.13 78.98,-140.58 -23.81,-30.03 -64.77,-32.73 -99.19,-22.72 13.61,-47.61 9.6,-98.89 -11.99,-143.51 -54.99,11.58 -103.99,46.84 -130.61,96.56 -24.83,-39.76 -62.67,-69.87 -106.27,-86.79 -45.52,33.05 -51.87,94.04 -48.34,145.85 -33.93,-66.32 -103.45,-112.02 -177.5,-118.43 -13.2,24.4 -24.3,50.67 -25.79,78.73 -4.38,51.94 16.13,102.67 46.71,143.69 -59.01,-37.18 -132.77,-44.2 -199.63,-27.58 -4.44,68.12 49.54,118.37 96.49,159.33 -75.56,6.54 -151.9,47.97 -183.57,119.52 49.9,46.78 122.04,61.53 188.42,54.03 -79.4,26.39 -138.7,100.27 -149.92,182.85 79.4,36.57 169.42,7.91 239.76,-35.44 -12,16.91 -23.87,33.88 -37.66,49.35 -29.27,34.6 -70.4,57.63 -95.23,96.19 v 0" /><path
         id="path112"
         style="fill:#c5701c;fill-opacity:1;fill-rule:nonzero;stroke:none"
         d="m 4046.11,5354.7 c 13.49,-82.63 5.76,-169.17 -21.53,-248.33 -18.9,-53.44 -48.21,-105.12 -93.72,-140.27 -32.16,-25.25 -58.72,-56.79 -80.73,-91.1 69.57,44.2 160.6,72.21 239.28,34.73 -9.84,-47.14 -29.62,-93.49 -64.34,-127.73 -24.12,-24.77 -54.64,-42.35 -86.73,-54.7 66.69,8.22 138.91,-7.19 189.51,-53.49 -31.36,-71.96 -108.31,-113.16 -183.93,-119.7 47.56,-40.42 100.21,-91.63 97.04,-159.33 -67.23,-16.02 -142.42,-10.68 -200.73,28.96 27.48,-36.82 46.91,-80.9 48.46,-127.32 1.09,-33.82 -10.25,-66.56 -26.02,-96.06 -74.13,5.21 -144.47,50.85 -178.41,117.17 3.35,-51.63 -3.84,-111.06 -47.62,-145.06 -44.79,15.83 -82.09,47.55 -108.24,86.77 -25.49,-49.95 -74.43,-84.37 -128.46,-96.91 -22.36,44.5 -26.21,96.49 -12.05,144.11 -34.6,-10.37 -76.58,-7.73 -99.78,23.45 34.96,40.72 59.24,89.35 77.48,139.48 89.18,-32.2 189.44,-38.5 280.22,-9.23 29.02,10.73 62.49,25.01 74.49,56.01 6.59,23.63 3.6,48.94 -1.86,72.44 -17.21,65.91 -48.81,126.66 -75.63,188.91 -22.06,45.33 -28.65,102.36 -2.27,147.34 31.36,54.87 90.32,83.06 138.35,120.66 110.57,81.44 206.77,185 267.22,309.2 v 0" /><path
         id="path114"
         style="fill:#c5701c;fill-opacity:1;fill-rule:nonzero;stroke:none"
         d="m 2667.49,5255.45 c -2.28,47.91 43.77,75.2 81.13,93.55 42.03,-17.98 90.62,-53.79 81.38,-105.9 -11.7,-56.61 -65.49,-93.55 -78.08,-150.22 -23.27,56.78 -77.06,99.37 -84.43,162.57 v 0" /><path
         id="path116"
         style="fill:#c5701c;fill-opacity:1;fill-rule:nonzero;stroke:none"
         d="m 2465.57,5213.95 c 10.37,19.61 27.47,34.24 43.48,49.12 24.28,-45.22 47.07,-96.13 36.76,-148.73 -12.11,-57.21 -57.27,-97.99 -85.52,-147.16 -9.05,53.79 -17.76,108.06 -15.53,162.76 1.02,28.96 6.9,58.35 20.81,84.01 v 0" /><path
         id="path118"
         style="fill:#c5701c;fill-opacity:1;fill-rule:nonzero;stroke:none"
         d="m 2990.42,5262.58 c 15.83,-13.24 31.72,-27.22 41.86,-45.51 20.26,-35.32 22.72,-77.36 22.54,-117.12 -1.98,-44.92 -6.6,-89.89 -16.79,-133.73 -21.95,48.99 -64.4,85.88 -82.87,136.55 -18.42,55.65 9.35,111.66 35.26,159.81 v 0" /><path
         id="path120"
         style="fill:#c5701c;fill-opacity:1;fill-rule:nonzero;stroke:none"
         d="m 2622.21,5260.9 c 26.93,-47.25 49.71,-97.02 66.8,-148.72 12.71,-34.24 9.24,-74 -12.05,-104.1 -28.06,-40.6 -65.12,-74.24 -90.67,-116.82 -14.51,23.03 -32.45,44.85 -39.64,71.54 -5.52,35.5 -1.08,72.02 8.76,106.45 18.28,65.24 46.29,127.13 66.8,191.65 v 0" /><path
         id="path122"
         style="fill:#c5701c;fill-opacity:1;fill-rule:nonzero;stroke:none"
         d="m 2875.94,5258.75 c 14.75,-32.68 25.12,-67.16 38.2,-100.57 20.69,-57.09 43.77,-115.98 40.18,-177.81 -0.9,-34.48 -23.69,-62.19 -42.45,-89.11 -20.82,36.4 -45.77,70.16 -73.84,101.23 -22.06,24.04 -40.54,55.23 -33.81,89.17 10.79,63.45 45.39,119.28 71.72,177.09 v 0" /><path
         id="path124"
         style="fill:#c5701c;fill-opacity:1;fill-rule:nonzero;stroke:none"
         d="m 0,5238.6 c 163.473,3.36 326.648,-21.41 483.77,-65.85 235.257,-66.5 465.718,-149.26 691.68,-242.27 -34.84,-3.48 -69.62,-11.22 -100.26,-28.91 -14.16,-10.13 -29.99,0.84 -44.15,5.22 -167.665,65.3 -341.157,121.26 -521.544,135.89 81.559,-52.36 173.731,-85.04 266.207,-112.32 90.785,-26.15 183.262,-46.24 276.157,-63.33 16.97,-53.85 53.43,-101.04 103.44,-127.91 -94.09,37.9 -192.917,62 -291.269,85.75 -129.652,31 -260.386,58.11 -388.48,95.23 -117.477,34.06 -232.016,83 -331.266,155.27 C 85.9922,5119.02 29.9844,5170.95 0,5238.6 v 0" /><path
         id="path126"
         style="fill:#c5701c;fill-opacity:1;fill-rule:nonzero;stroke:none"
         d="m 5014.2,5172.51 c 157.83,44.56 321.67,69.45 485.8,66.09 -35.62,-77.48 -102.54,-135.11 -171.62,-182.49 -90.26,-60.08 -191.18,-102.97 -295.06,-133.37 -158.55,-46.42 -321.07,-77.24 -481.01,-118.32 -70.88,-18.35 -141.52,-38.26 -209.35,-65.9 49.95,27.47 91.21,72.5 105.49,128.63 123.17,23.09 245.99,50.43 364.43,91.93 61.16,22.01 121.62,47.68 176.01,83.72 -123.3,-11.21 -244.8,-38.98 -361.92,-78.86 -60.39,-19.73 -119.64,-42.7 -179.26,-64.7 -13.66,-6.6 -25.94,4.49 -37.94,9.53 -26.82,14.15 -57.34,18.05 -86.96,21.77 226.32,91.87 456.24,175.71 691.39,241.97 v 0" /><path
         id="path128"
         style="fill:#c5701c;fill-opacity:1;fill-rule:nonzero;stroke:none"
         d="m 1019.23,5203.1 c 74.12,-12.84 142.25,-46.96 209.48,-79.34 89.83,-43.3 166.23,-108.37 244.25,-169.48 -23.45,-3.11 -48.63,-3.41 -69.26,-16.49 -11.28,-6.35 -21.41,-15.89 -34.85,-17.44 -53.49,-7.39 -111.72,-7.2 -159.75,20.69 -41.74,24.58 -79.58,57.03 -106.33,97.74 -34.12,51.27 -61.89,106.75 -83.54,164.32 v 0" /><path
         id="path130"
         style="fill:#c5701c;fill-opacity:1;fill-rule:nonzero;stroke:none"
         d="m 4307.7,5141.81 c 55.46,25.61 112.14,50.37 172.35,62.43 -37.91,-95.48 -84.73,-195.98 -174.09,-253.67 -51.7,-36.76 -118.74,-39.4 -179.25,-29.56 -11.63,2.27 -20.69,10.55 -30.65,16.18 -20.38,13.85 -45.98,13.85 -69.5,16.97 51.76,40.66 102.42,82.88 157.06,119.77 38.99,26.68 81.56,47.54 124.08,67.88 v 0" /><path
         id="path132"
         style="fill:#c5701c;fill-opacity:1;fill-rule:nonzero;stroke:none"
         d="m 2685.65,4932.82 c 4.2,47.67 51.82,74.84 62.38,120 9.24,-46.3 57.68,-70.95 66.74,-116.77 1.8,-46.77 -35.26,-81.73 -63.22,-114.78 -33.57,27.65 -69.38,64.65 -65.9,111.55 v 0" /><path
         id="path134"
         style="fill:#c5701c;fill-opacity:1;fill-rule:nonzero;stroke:none"
         d="m 3128.83,4839.33 c -53.92,49.59 -63.87,132.17 -47.02,200.35 20.45,-58.71 57.57,-114.9 114.12,-143.98 26.81,-14.99 57.38,-20.33 87.67,-22.49 -19.97,-63.75 -108.6,-76.7 -154.77,-33.88 v 0" /><path
         id="path136"
         style="fill:#c5701c;fill-opacity:1;fill-rule:nonzero;stroke:none"
         d="m 2348.99,4928.62 c 32.62,30.16 53.31,70.34 69.56,111.06 11.58,-56.97 10.32,-120.53 -21.7,-170.97 -20.52,-33.64 -58.36,-58.59 -98.89,-54.46 -37.36,-0.11 -66.75,27.47 -82.64,58.96 49.35,1.67 98.28,20.51 133.67,55.41 v 0" /><path
         id="path138"
         style="fill:#c5701c;fill-opacity:1;fill-rule:nonzero;stroke:none"
         d="m 3002.77,4972.88 c 50.61,-79.34 103.45,-161.5 182.43,-215.65 32.62,-21.35 75.38,-40.06 113.76,-22.61 37.6,18.59 57.33,58.23 73.34,94.93 14.75,-16.8 26.63,-36.7 29.57,-59.25 7.92,-51.45 -7.14,-106.33 -40.31,-146.56 -26.26,-31.85 -69.92,-50.08 -110.93,-41.02 -34.79,8.21 -63.39,31.84 -88.28,56.37 -77.35,81.26 -126.96,185.72 -153.35,294.03 -2.69,13.19 -4.62,26.45 -6.23,39.76 v 0" /><path
         id="path140"
         style="fill:#c5701c;fill-opacity:1;fill-rule:nonzero;stroke:none"
         d="m 2322.78,4763.28 c 73.05,54.87 125.39,131.64 172.65,208.64 -15.65,-127.32 -74.78,-250.44 -167.61,-339.49 -31.01,-27.94 -69.57,-57.39 -113.94,-51.09 -53.98,6.47 -93.01,53.31 -108.85,102.55 -15.53,47.85 -16.07,108 22.62,145.36 16.36,-37.84 37.17,-79.34 77.17,-96.61 41.26,-14.81 84.62,7.07 117.96,30.64 v 0" /><path
         id="path142"
         style="fill:#c5701c;fill-opacity:1;fill-rule:nonzero;stroke:none"
         d="m 2518.82,4945.83 c 36.4,-50.38 35.5,-117 18.59,-174.45 -18.65,-63.45 -49.66,-122.58 -82.16,-179.79 -1.62,-0.18 -4.91,-0.48 -6.53,-0.66 -19.01,25.31 -33.89,53.49 -47.32,82.04 62.19,79.11 96.01,175.65 117.42,272.86 v 0" /><path
         id="path144"
         style="fill:#c5701c;fill-opacity:1;fill-rule:nonzero;stroke:none"
         d="m 2950.65,4835.84 c -4.97,37.97 9.3,75.02 30.29,105.97 16.01,-68.06 34.07,-136.85 69.57,-197.84 12.88,-24.76 31.06,-46.35 44.43,-70.82 -8.46,-32.68 -30.7,-59.73 -47.5,-88.52 -43.29,78.57 -87.55,160.54 -96.79,251.21 v 0" /><path
         id="path146"
         style="fill:#c5701c;fill-opacity:1;fill-rule:nonzero;stroke:none"
         d="m 1079.02,4872.25 c 24.47,13.55 50.32,26.92 78.86,28.07 59.19,5.45 115.68,-19.07 174.63,-18.36 18.29,-0.17 36.4,3 54.45,5.82 12.89,-52.35 40,-101.17 79.89,-137.75 -38.03,-11.27 -76.41,-23.81 -116.53,-23.99 -67.34,-1.02 -136.37,12.84 -194.96,47.14 -36.76,21.77 -67.88,56.13 -76.34,99.07 v 0" /><path
         id="path148"
         style="fill:#c5701c;fill-opacity:1;fill-rule:nonzero;stroke:none"
         d="m 2554.8,4764.6 c 22.19,51.75 61.17,93.43 97.75,135.3 9.59,-24.29 17.81,-49.78 15.53,-76.22 -1.26,-47.2 -41.01,-83.78 -39.64,-131.52 -1.37,-43.05 21.47,-81.26 41.56,-117.66 -43.96,25.97 -81.49,62.19 -111.72,103.15 -19.13,25 -15.35,59.67 -3.48,86.95 v 0" /><path
         id="path150"
         style="fill:#c5701c;fill-opacity:1;fill-rule:nonzero;stroke:none"
         d="m 2831.55,4817.2 c -4.97,28.54 4.81,56.78 15.96,82.63 42.04,-49.41 91.15,-99.43 104.65,-165.21 8.09,-35.15 -15.05,-65.61 -37.48,-89.72 -24.66,-27.52 -53.5,-51.39 -85.58,-69.8 20.15,36.16 42.46,74.12 41.51,117 -0.26,45.22 -33.06,81.26 -39.06,125.1 v 0" /><path
         id="path152"
         style="fill:#c5701c;fill-opacity:1;fill-rule:nonzero;stroke:none"
         d="m 4180.63,4882.38 c 54.62,2.52 107.57,23.21 162.75,17.81 27.95,-1.44 53.13,-14.75 77.19,-27.76 -10.08,-52 -53.5,-89.11 -99.55,-110.35 -62.02,-28.72 -132.11,-40.71 -200.07,-33.88 -29.19,3.36 -57.08,12.78 -85.21,20.69 37,38.86 63.15,86.95 76.34,138.95 22.61,-3.66 45.52,-7.07 68.55,-5.46 v 0" /><path
         id="path154"
         style="fill:#c5701c;fill-opacity:1;fill-rule:nonzero;stroke:none"
         d="m 4.01172,4835.9 c 63.87108,14.88 129.42228,21.12 194.90228,23.27 79.703,6.18 159.578,0.42 239.277,-2.57 106.747,-6.54 213.192,-18.9 317.961,-40.6 118.914,-22.97 234.356,-60.03 350.158,-94.75 -17.94,-9.24 -36.16,-17.7 -54.63,-25.8 -178.227,51.58 -367.434,70.77 -551.539,44.56 52.89,-17.87 108.183,-26.86 162.933,-37 116.403,-18.95 233.942,-33.4 352.026,-34.18 -11.7,-14.75 -23.455,-29.44 -35.026,-44.31 -42.336,0 -84.679,-1.5 -126.894,-4.32 -121.739,-6.6 -244.735,-8.1 -365.274,12.59 -157.054,24.89 -304.761,90.61 -440.113,172.29 -15.4688,9 -30.2188,19.19 -43.78128,30.82 v 0" /><path
         id="path156"
         style="fill:#c5701c;fill-opacity:1;fill-rule:nonzero;stroke:none"
         d="m 5092.28,4857.8 c 135.28,7.31 272.55,6.17 405.62,-22.01 -88.62,-61.29 -185.72,-110.05 -286.11,-148.97 -135.05,-52.65 -281.02,-71.84 -425.36,-71 -89.6,-0.42 -178.89,8.76 -268.48,8.93 -10.62,15.47 -22.25,30.17 -34.6,44.26 127.91,0.6 255.22,17.09 381.03,38.98 45.46,8.82 91.28,16.98 135.19,32.02 -179.2,25.67 -363.12,7.68 -537.21,-40.05 -23.57,-9.3 -44.25,9.95 -63.51,20.87 106.21,33.58 212.47,67.58 321.61,90.25 122.28,26.45 246.9,41.44 371.82,46.72 v 0" /><path
         id="path158"
         style="fill:#c5701c;fill-opacity:1;fill-rule:nonzero;stroke:none"
         d="m 2662.45,4698.16 c 1.68,43.77 30.04,78.92 53.97,113.22 10.61,-9.54 21.29,-18.95 32.14,-28.25 11.99,8.7 23.45,18.06 34.72,27.65 18.22,-27.89 39.58,-54.87 48.59,-87.55 17.92,-64.84 -23.45,-137.87 -84.63,-161.62 -49.89,25.18 -84.08,80.6 -84.79,136.55 v 0" /><path
         id="path160"
         style="fill:#c5701c;fill-opacity:1;fill-rule:nonzero;stroke:none"
         d="m 1001.42,4606.89 c 34.67,56.73 97.45,91.33 162.16,100.44 60.57,7.44 121.26,-6.59 176.97,-29.86 16.67,-32.8 34.84,-65.18 61.95,-90.68 -58.47,-36.7 -128.28,-50.25 -196.34,-53.49 -74.84,-4.74 -147.35,27.47 -204.74,73.59 v 0" /><path
         id="path162"
         style="fill:#c5701c;fill-opacity:1;fill-rule:nonzero;stroke:none"
         d="m 4156.64,4676.39 c 59.19,25.79 124.97,39.88 189.43,29.44 60.64,-12.17 119.05,-45.15 151.55,-99.24 -56.14,-43.36 -124.68,-76.53 -197.12,-73.47 -70.46,2.1 -142.42,16.25 -203.61,52.72 24.66,26.81 44.99,57.21 59.75,90.55 v 0" /><path
         id="path164"
         style="fill:#c5701c;fill-opacity:1;fill-rule:nonzero;stroke:none"
         d="m 2457.83,4503.5 c 13.08,52.89 40.96,100.81 72.56,144.64 35.75,-22.43 69.99,-50.97 87.2,-90.55 15.47,-32.32 17.03,-69.5 11.81,-104.47 -3.05,-16.97 -16.43,-29.08 -26.38,-42.21 -22.67,-26.99 -37.96,-59.19 -48.58,-92.59 -23.86,37.48 -56.61,68.18 -81.37,104.88 -16.2,23.21 -22.13,52.77 -15.24,80.3 v 0" /><path
         id="path166"
         style="fill:#c5701c;fill-opacity:1;fill-rule:nonzero;stroke:none"
         d="m 2868.08,4512.26 c 6.77,59.54 50.13,107.58 100.93,135.7 31.24,-45.15 60.38,-93.43 73.33,-147.34 7.74,-29.33 -2.51,-59.79 -19.83,-83.59 -24.24,-34.07 -55.07,-63.04 -76.83,-98.96 -13.98,39.35 -31.25,78.74 -60.33,109.45 -22.36,21.47 -20.09,56.43 -17.27,84.74 v 0" /><path
         id="path168"
         style="fill:#c5701c;fill-opacity:1;fill-rule:nonzero;stroke:none"
         d="m 2315.88,4577.86 c 24.53,18.11 42.28,43.24 62.91,65.3 10.92,-21.28 22.01,-42.51 34.43,-62.96 8.45,-14.75 20.2,-29.69 17.44,-47.86 -4.07,-42.76 -0.41,-87.97 -19.24,-127.85 -15.17,-32.5 -34.66,-62.97 -56.67,-91.34 -14.7,38.87 -32.99,76.23 -47.26,115.21 -15.05,40.3 -16.13,84.25 -10.98,126.53 0.18,11.52 12.06,16.25 19.37,22.97 v 0" /><path
         id="path170"
         style="fill:#c5701c;fill-opacity:1;fill-rule:nonzero;stroke:none"
         d="m 3120.91,4643.29 c 23.63,-28.43 47.26,-57.81 79.29,-77.36 7.78,-46.96 9.7,-96.91 -8.94,-141.72 -15.48,-37.35 -32.99,-73.87 -46.95,-111.9 -30.3,44.26 -65.02,89.84 -70.3,145.07 -3.78,36.94 -16.85,78.86 5.7,112.38 14.63,23.99 28.97,48.22 41.2,73.53 v 0" /><path
         id="path172"
         style="fill:#c5701c;fill-opacity:1;fill-rule:nonzero;stroke:none"
         d="m 969.574,4582.96 c 22.492,3.24 38.326,-16.92 56.676,-26.21 -147.945,-16.31 -301.703,-17.57 -440.953,-76.28 94.453,-12.17 190.223,-4.2 284.254,7.86 69.328,8.75 137.029,26.08 204.739,42.51 27.59,-5.03 53.91,-15.29 80.95,-22.72 -25,-19.91 -40.84,-54.76 -75.2,-59.79 -180.505,-44.8 -366.349,-61.35 -551.235,-75.86 -142.426,-7.14 -287.551,-5.94 -425.957,32.26 59.847,37.72 125.035,66.26 190.761,92.05 70.161,26.21 142.004,50.2 216.668,58.95 152.743,15.24 306.621,12.06 459.297,27.23 v 0" /><path
         id="path174"
         style="fill:#c5701c;fill-opacity:1;fill-rule:nonzero;stroke:none"
         d="m 4473.33,4556.81 c 14.39,8.58 27.53,19.43 42.95,26.21 50.12,-1.8 99.96,-8.87 150.21,-9.36 63.93,-4.73 128.09,-4.02 192.03,-8.94 81.43,-3.35 163.88,-7.91 242.15,-32.62 102.54,-31.12 203.53,-70.94 294.93,-127.37 -137.45,-38.02 -281.62,-39.34 -423.08,-32.38 -176.37,13.55 -353.47,29.5 -526.17,69.38 -17.22,4.61 -35.39,6.96 -51.21,15.41 -18.77,16.73 -35.87,35.44 -56.56,49.89 30.16,4.75 59.91,12.18 87.8,24.89 118.8,-34.66 242.04,-53.55 365.76,-57.27 40.22,-0.72 80.64,0 120.65,5.7 -138.53,59.43 -292.12,59.85 -439.46,76.46 v 0" /><path
         id="path176"
         style="fill:#c5701c;fill-opacity:1;fill-rule:nonzero;stroke:none"
         d="m 2141.62,4560.77 c 40.35,-16.55 86.35,-25.25 128.33,-8.94 1.98,-34.3 5.52,-69.08 -0.42,-103.2 -6.48,-33.23 -26.75,-62.37 -53.85,-82.22 -36.04,59.66 -65.85,124.49 -74.06,194.36 v 0" /><path
         id="path178"
         style="fill:#c5701c;fill-opacity:1;fill-rule:nonzero;stroke:none"
         d="m 3230.18,4551.77 c 41.68,-16.55 87.73,-7.49 127.37,10.2 -3.48,-71.49 -36.05,-137.63 -75.38,-195.98 -18.36,17.33 -37.37,35.5 -46.3,59.67 -16.43,40.12 -10.08,84.32 -5.69,126.11 v 0" /><path
         id="path180"
         style="fill:#c5701c;fill-opacity:1;fill-rule:nonzero;stroke:none"
         d="m 1331.25,4530.61 c 51.88,7.19 105.19,6.47 156.58,-3.84 -27.41,-40.54 -47.38,-87.86 -86.77,-118.74 -53.37,-42.94 -120.12,-67.65 -187.82,-75.56 -43.66,-5.52 -90.02,1.55 -126.78,26.8 15.23,52.47 48.03,101.35 96.07,128.75 45.46,25.85 98.11,33.23 148.72,42.59 v 0" /><path
         id="path182"
         style="fill:#c5701c;fill-opacity:1;fill-rule:nonzero;stroke:none"
         d="m 2682.89,4505.47 c 20.22,14.46 45.1,20.39 66.34,33.29 27.52,-16.01 60.93,-24.77 81.9,-50.07 19.02,-25.01 7.08,-58.29 -7.43,-82.4 -24.22,-39.16 -55.34,-73.94 -74.77,-116.04 -19.8,49.53 -61.23,86.18 -83.36,134.45 -13.14,26.68 -4.26,61.22 17.32,80.77 v 0" /><path
         id="path184"
         style="fill:#c5701c;fill-opacity:1;fill-rule:nonzero;stroke:none"
         d="m 4011.88,4526.77 c 91.09,18.53 186.07,5.15 273.51,-23.75 64.17,-21.95 108.49,-79.76 128.64,-142.67 -49.9,-36.34 -116.05,-35.32 -173.68,-21.53 -65.85,15.89 -130.91,47.62 -173.67,101.65 -19.72,27.83 -36.46,57.63 -54.8,86.3 v 0" /><path
         id="path186"
         style="fill:#c5701c;fill-opacity:1;fill-rule:nonzero;stroke:none"
         d="m 630.094,4319.81 c 144.945,48.94 298.769,58.65 447.966,88.81 -8.69,-29.98 -43.18,-27.82 -67.22,-37.29 -121.797,-38.75 -242.102,-86.54 -349.379,-156.88 146.801,3.83 286.652,56.84 419.479,115.38 29.08,-15.47 61.05,-25.19 93.97,-27.29 -167.43,-49.05 -323.051,-129.77 -481.906,-200.47 -92.418,-39.1 -190.106,-68.91 -290.734,-75.08 -35.559,-3.6 -71.418,0.06 -106.317,7.25 35.68,66.26 80.649,128.51 138.582,177.09 57.031,48.93 124.735,84.19 195.559,108.48 v 0" /><path
         id="path188"
         style="fill:#c5701c;fill-opacity:1;fill-rule:nonzero;stroke:none"
         d="m 4426.97,4403.47 c 147.17,-22.91 297.76,-33.22 439.46,-82.03 143.92,-47.38 271.54,-150.59 336.07,-289 -97.16,-16.67 -196.29,1.68 -289.4,30.05 -101.55,30.64 -194.97,81.67 -291.7,124.13 -97.03,42.94 -194.12,87.13 -296.55,115.86 33.53,1.14 64.35,14.22 94.99,26.15 133.01,-56.85 272.03,-110.89 418.53,-114.12 -124.92,81.01 -266.08,133.01 -408.33,174.51 -0.79,3.59 -2.28,10.85 -3.07,14.45 v 0" /><path
         id="path190"
         style="fill:#c5701c;fill-opacity:1;fill-rule:nonzero;stroke:none"
         d="m 2281.52,4395.56 c 20.69,-35.62 41.74,-71.61 54.93,-110.83 -41.07,5.28 -74.48,33.17 -103.14,61.05 11.93,19.97 32.44,33.04 48.21,49.78 v 0" /><path
         id="path192"
         style="fill:#c5701c;fill-opacity:1;fill-rule:nonzero;stroke:none"
         d="m 2967.32,4280.47 c 25.91,41.32 62.07,75.14 86.84,117.3 23.88,-49.95 55.9,-95.71 92.47,-137.15 -14.51,-79.04 -60.56,-148.48 -118.54,-202.57 -29.82,48.21 -57.34,99.19 -69.76,154.9 -5.33,22.67 -4.01,47.67 8.99,67.52 v 0" /><path
         id="path194"
         style="fill:#c5701c;fill-opacity:1;fill-rule:nonzero;stroke:none"
         d="m 2444.22,4395.85 c 18.77,-25.42 34.96,-52.83 56.55,-76.16 22.07,-25.19 48.16,-53.61 43.84,-89.95 -8.34,-61.77 -43,-115.56 -71.31,-169.83 -23.2,16.01 -39.64,39.28 -56.37,61.46 -29.68,41.75 -55.83,87.68 -65.36,138.59 35.32,41.98 69.74,85.7 92.65,135.89 v 0" /><path
         id="path196"
         style="fill:#c5701c;fill-opacity:1;fill-rule:nonzero;stroke:none"
         d="m 3162.41,4285.09 c 14.04,39.16 35.08,75.2 53.67,112.32 17.21,-16.49 34.18,-33.22 51.21,-49.89 -29.57,-27.95 -62.31,-58.41 -104.88,-62.43 v 0" /><path
         id="path198"
         style="fill:#c5701c;fill-opacity:1;fill-rule:nonzero;stroke:none"
         d="m 1347.45,4335.41 c 30.7,14.09 59.48,31.84 86.89,51.45 0.9,-3.78 2.76,-11.4 3.66,-15.18 51.75,-10.91 105.78,-18.11 157.89,-5.03 -4.97,-17.28 -6.1,-36.94 -19.01,-50.68 -56.13,-65.12 -141.16,-102.96 -226.8,-104.46 -40.71,0.65 -78.08,22.61 -101.76,55.16 23.14,34.85 62.72,51.46 99.13,68.74 v 0" /><path
         id="path200"
         style="fill:#c5701c;fill-opacity:1;fill-rule:nonzero;stroke:none"
         d="m 2577.17,4218.28 c 1.68,61.9 19.43,127.26 65.13,171.52 25.12,-49.24 71.48,-86.72 86.66,-140.87 5.09,-71.43 -26.87,-137.75 -55.18,-201.32 -50.8,42.1 -99.13,100.93 -96.61,170.67 v 0" /><path
         id="path202"
         style="fill:#c5701c;fill-opacity:1;fill-rule:nonzero;stroke:none"
         d="m 2855.91,4388.84 c 48.81,-44.2 64.82,-113.04 66.62,-176.43 -0.07,-68.25 -48.81,-123.18 -96.9,-165.94 -25.01,60.76 -61.47,121.8 -55.18,189.99 7.26,60.81 61.83,98.64 85.46,152.38 v 0" /><path
         id="path204"
         style="fill:#c5701c;fill-opacity:1;fill-rule:nonzero;stroke:none"
         d="m 4065.78,4387.04 c 22.73,-16.61 46.42,-32.08 71.85,-44.38 40.53,-20.87 87.07,-36.58 114,-76.04 -23.56,-32.26 -60.75,-54.09 -101.1,-55.11 -86.97,1.14 -173.57,40.06 -229.75,106.98 -11.4,13.56 -13.13,32.03 -18.83,48.16 52.53,-12.83 106.86,-6.18 158.98,5.22 1.2,3.77 3.66,11.33 4.85,15.17 v 0" /><path
         id="path206"
         style="fill:#c5701c;fill-opacity:1;fill-rule:nonzero;stroke:none"
         d="m 2146.47,4272.98 c 31.43,0.06 61.53,12.35 83.18,35.32 21.77,-13.86 45.46,-26.33 63.15,-45.52 18.94,-36.82 22.48,-80.96 12.89,-121.02 -6.54,-30.88 -22.31,-58.52 -36.58,-86.29 -36.52,-72.26 -69.26,-146.38 -98.77,-221.76 -22.55,22.72 -31.3,54.27 -40.24,84.07 -15.95,53.62 -21.05,110.28 -42.82,162.16 -11.63,28.37 -29.8,53.43 -49.71,76.46 23.99,-12.65 50.07,-20.15 76.76,-24.41 22.55,43.36 36.1,91.81 32.14,140.99 v 0" /><path
         id="path208"
         style="fill:#c5701c;fill-opacity:1;fill-rule:nonzero;stroke:none"
         d="m 3258.54,4302 c 12.71,12.24 24.23,-5.75 35.01,-11.75 16.32,-13.56 38.15,-15.36 58.42,-17.15 -3.11,-49.3 10.55,-98.06 33.76,-141.29 26.33,4.74 52.06,12.54 76.35,23.93 -41.75,-44.2 -63.51,-102.61 -74.42,-161.5 -13.32,-55.17 -20.52,-116.11 -58,-161.26 -30.7,77.96 -65.19,154.43 -103.26,229.03 -34.12,57.5 -53.49,131.56 -24.52,195.02 14.44,19.55 37.59,30.4 56.66,44.97 v 0" /><path
         id="path210"
         style="fill:#c5701c;fill-opacity:1;fill-rule:nonzero;stroke:none"
         d="m 4265.42,4293.96 c 108.78,-41.31 217.45,-82.99 324.85,-127.73 57.33,-24.4 115.98,-48.15 165.64,-86.65 101.65,-75.99 170.67,-188.85 209.34,-308.49 -108.47,-4.07 -219.29,26.87 -306.84,91.88 -142.74,113.16 -268.85,245.63 -410.14,360.53 5.87,6.24 11.94,12.48 17.87,18.71 123.18,-101.65 256.85,-194.9 407.6,-250.55 -41.01,74.72 -108.95,130.25 -181.45,172.71 -67.36,39.34 -139.32,69.75 -210.33,101.65 -5.5,9.36 -11.08,18.65 -16.54,27.94 v 0" /><path
         id="path212"
         style="fill:#c5701c;fill-opacity:1;fill-rule:nonzero;stroke:none"
         d="m 1194.34,4279.1 c 13.01,4.97 26.27,9.11 39.7,12.71 -8.03,-11.46 -14.09,-26.15 -28.37,-31.13 -85.03,-38.38 -172.23,-74.3 -248.799,-128.45 -52.418,-37.06 -99.914,-83.36 -130.312,-140.51 150.281,56.07 284.131,148.61 406.821,250.49 5.52,-6.23 11.03,-12.53 16.62,-18.83 -105.31,-86.29 -201.68,-182.78 -304.348,-272.2 -48.816,-41.85 -95.472,-87.49 -152.082,-118.98 -78.863,-43.71 -169.953,-64.58 -259.91,-61.04 39.699,125.87 115.563,243.05 224.645,319.33 43.84,31.37 94.097,51.69 143.332,72.86 96.785,40.6 194.833,78.08 292.703,115.75 v 0" /><path
         id="path214"
         style="fill:#c5701c;fill-opacity:1;fill-rule:nonzero;stroke:none"
         d="m 1421.75,4182.3 c 45.81,42.16 103.5,69.21 162.4,87.92 4.07,-29.21 16.48,-55.96 28.36,-82.58 -26.39,-56.25 -77.42,-102.31 -138.05,-118.2 -26.09,-7.14 -53.43,-5.93 -80.12,-4.44 -13.91,40.54 -4.5,87.97 27.41,117.3 v 0" /><path
         id="path216"
         style="fill:#c5701c;fill-opacity:1;fill-rule:nonzero;stroke:none"
         d="m 3915.38,4270.4 c 57.81,-18.53 113.76,-45.64 159.64,-85.82 32.86,-29.62 44.68,-77.66 30.34,-119.39 -46.23,-5.22 -94.63,1.73 -134.32,27.04 -36.89,21.77 -64.9,54.99 -89.6,89.35 16.13,27.59 27.1,57.69 33.94,88.82 v 0" /><path
         id="path218"
         style="fill:#c5701c;fill-opacity:1;fill-rule:nonzero;stroke:none"
         d="m 3732.05,4219.13 c 33.47,-19.25 68.13,-37.91 106.87,-43.72 20.27,-0.84 33.17,-17.51 46.48,-30.59 36.57,-37.9 72.98,-77.36 96.43,-125.03 8.09,-15.72 11.03,-33.34 12.65,-50.85 -89.53,-9.18 -180.75,33.7 -236.7,102.96 -33.4,40.66 -43.24,97.57 -25.73,147.23 v 0" /><path
         id="path220"
         style="fill:#c5701c;fill-opacity:1;fill-rule:nonzero;stroke:none"
         d="m 1642.92,4172.17 c 42.39,5.1 82.51,21.4 118.37,44.32 21.65,-26.81 24.11,-64.59 9.54,-95.41 -27.65,-60.75 -83.06,-104.95 -142.67,-132.42 -38.8,-18.23 -82.28,-24.29 -124.74,-19.55 3.01,23.57 10.02,46.72 22.73,66.93 30.89,51.51 73.04,95.29 116.77,136.13 v 0" /><path
         id="path222"
         style="fill:#c5701c;fill-opacity:1;fill-rule:nonzero;stroke:none"
         d="m 3428.49,4033.4 c 23.69,65.25 58.05,126.96 102.91,180.03 9.05,-11.22 23.01,-20.27 25.37,-35.56 16.9,-106.27 10.13,-221.47 -44.74,-316.46 -22.55,-37.54 -49.23,-75.68 -89.3,-96.13 -26.5,-14.27 -56.85,-18.83 -86.6,-18.59 51.58,88.1 57.34,192.44 92.36,286.71 v 0" /><path
         id="path224"
         style="fill:#c5701c;fill-opacity:1;fill-rule:nonzero;stroke:none"
         d="m 1962.91,4208.27 c 36.64,-26.62 60.15,-66.62 79.04,-106.93 55.47,-113.04 62.96,-242.87 121.61,-354.65 -51.99,-5.88 -102.78,18.76 -135.83,58.11 -56.6,66.32 -85.69,153.4 -90.61,239.76 -2.76,44.01 0.54,88.15 4.8,131.92 0.78,13.62 13.31,21.84 20.99,31.79 v 0" /><path
         id="path226"
         style="fill:#c5701c;fill-opacity:1;fill-rule:nonzero;stroke:none"
         d="m 1030.15,3980.75 c 79.22,78.55 164.73,151.12 255.7,215.7 33.41,-9.65 67.95,-12.29 102.61,-10.13 -9.17,-15.23 -17.39,-31.06 -24.23,-47.56 -71.96,-40.05 -143.5,-81.85 -206.83,-134.92 -55.77,-46.6 -107.1,-100.99 -139.25,-166.84 84.92,37.07 157.37,96.49 226.33,157.24 40.66,35.86 76.57,76.76 116.82,113.1 2.99,-17.69 5.99,-35.38 9.59,-53.01 -92.65,-88.99 -167.31,-194.06 -242.28,-297.75 -67.15,-98.88 -181.223,-161.31 -299.54,-171.81 9.84,82.1 31.727,163.96 73.403,235.92 33.582,59.91 80.476,110.71 127.677,160.06 v 0" /><path
         id="path228"
         style="fill:#c5701c;fill-opacity:1;fill-rule:nonzero;stroke:none"
         d="m 4110.94,4186.2 c 34.25,-0.54 69.5,-2.27 101.71,11.58 98.88,-72.21 193.22,-151.25 277.59,-240.18 51.82,-53.85 99.02,-113.58 129.6,-182.24 27.41,-60.27 42.4,-125.34 51.09,-190.71 -95.46,8.82 -188.42,50.01 -256.06,118.38 -26.03,26.38 -46.43,57.51 -68.19,87.32 -67.11,92.23 -135.12,184.7 -217.63,263.92 3.36,18.29 6.66,36.52 9.66,54.81 72.5,-75.44 147.94,-149.02 233.81,-209.47 34.01,-23.75 69.34,-46.53 108.43,-61.29 -39.52,79.16 -105.13,141.65 -175.17,193.94 -53.61,40.06 -111.66,73.58 -169.95,106.15 -7.08,16.55 -15.3,32.62 -24.89,47.79 v 0" /><path
         id="path230"
         style="fill:#c5701c;fill-opacity:1;fill-rule:nonzero;stroke:none"
         d="m 1765.37,4032.5 c -0.6,52.95 21.11,103.51 52.89,144.95 10.25,-9.84 19.49,-21.17 31.9,-28.43 16.68,-5.64 33.35,4.08 49.18,8.33 22.07,-59.72 31.06,-124.73 21.89,-187.99 -9.12,-52.42 -38.86,-98.9 -75.92,-136.14 -47.26,55.23 -81.86,125.22 -79.94,199.28 v 0" /><path
         id="path232"
         style="fill:#c5701c;fill-opacity:1;fill-rule:nonzero;stroke:none"
         d="m 3646.43,4147.7 c 14.26,5.94 23.38,19.43 34.48,29.63 53.06,-66.99 61.94,-160.54 37.83,-240.72 -13.37,-39.33 -39.7,-72.39 -66.02,-103.81 -30.35,35.93 -58.17,75.98 -69.03,122.46 -12.7,66.93 -7.13,137.69 15.29,202.03 15.47,-3.96 31.01,-11.45 47.45,-9.59 v 0" /><path
         id="path234"
         style="fill:#c5701c;fill-opacity:1;fill-rule:nonzero;stroke:none"
         d="m 2311.87,3972.41 c -2.46,59.37 29.02,112.27 52.29,164.8 25.3,-49.48 72.32,-89.06 79.76,-146.51 5.94,-61.23 -34.72,-111.54 -60.09,-163.41 -31.42,43.71 -68.55,88.99 -71.96,145.12 v 0" /><path
         id="path236"
         style="fill:#c5701c;fill-opacity:1;fill-rule:nonzero;stroke:none"
         d="m 3054.82,3978.47 c 2.76,62.13 49.54,108.48 81.02,158.2 22.01,-48.46 48.15,-97.4 51.34,-151.55 0.9,-60.92 -37,-112.68 -72.8,-158.49 -15.66,52.41 -62.5,94.2 -59.56,151.84 v 0" /><path
         id="path238"
         style="fill:#c5701c;fill-opacity:1;fill-rule:nonzero;stroke:none"
         d="m 2470.91,3966.72 c 2.63,64.64 56.48,107.88 85.45,161.13 24.17,-52.53 75.86,-93.67 78.44,-154.84 0.6,-62.9 -43.9,-112.2 -72.45,-164.55 -43.77,42.63 -90.3,93.55 -91.44,158.26 v 0" /><path
         id="path240"
         style="fill:#c5701c;fill-opacity:1;fill-rule:nonzero;stroke:none"
         d="m 2865.08,3966.72 c 0.54,62.72 48.46,109.02 76.53,161.13 28.24,-49.41 77.66,-89.41 85.15,-148.66 6.6,-69.02 -43.12,-127.13 -91.34,-170.07 -26.32,50.91 -65.9,98.47 -70.34,157.6 v 0" /><path
         id="path242"
         style="fill:#c5701c;fill-opacity:1;fill-rule:nonzero;stroke:none"
         d="m 2681.75,3983.75 c 20.34,38.62 48.46,72.74 66.87,112.5 20.7,-54.03 73.53,-93.08 78.26,-153.29 1.14,-61.58 -49.36,-104.58 -75.08,-156.04 -20.87,39.76 -54.09,71.79 -71.66,113.35 -11.63,26.26 -11.76,57.81 1.61,83.48 v 0" /><path
         id="path244"
         style="fill:#c5701c;fill-opacity:1;fill-rule:nonzero;stroke:none"
         d="m 1418.03,4035.26 c 28.06,0.18 55.83,4.92 82.87,12.17 -7.37,-15.11 -14.02,-31.37 -26.86,-42.82 -56.67,-53.73 -109.87,-111.6 -154.36,-175.88 -33.7,-50.74 -66.38,-106.69 -68.19,-169.24 48.34,29.45 86.3,72.27 121.15,116.16 41.85,53.08 78.19,110.29 111.77,168.94 26.81,-0.42 53.62,-2.16 80.42,-3.73 -42.16,-41.97 -68.66,-95.94 -95.89,-148.05 -34.3,-66.33 -70.82,-133.02 -123.66,-186.69 -57.44,-60.57 -132.16,-103.63 -212.05,-126.96 -9.65,115.15 31.13,228.37 92.42,324.26 53.79,85.15 120.96,161.08 192.38,231.84 v 0" /><path
         id="path246"
         style="fill:#c5701c;fill-opacity:1;fill-rule:nonzero;stroke:none"
         d="m 3997.78,4047.55 c 27.52,-6.71 55.95,-7.67 84.02,-11.51 82.33,-83.12 160.94,-172.11 216,-276.1 45.93,-85.99 72.93,-183.39 67.59,-281.38 -107.95,32.63 -204.85,101.42 -266.81,196.16 -60.62,84.98 -90.25,190.11 -163.82,265.97 26.8,1.8 53.67,3.48 80.53,3.84 44.31,-77.06 92.72,-152.63 153.17,-218.24 23.26,-25 48.69,-48.15 77.71,-66.38 0.3,66.69 -37.24,125.51 -73.28,178.83 -42.76,60.09 -93.25,114.36 -146.62,165.04 -12.96,12.11 -20.1,28.6 -28.49,43.77 v 0" /><path
         id="path248"
         style="fill:#c5701c;fill-opacity:1;fill-rule:nonzero;stroke:none"
         d="m 1688.43,3973.31 c 1.92,28.01 31.9,38.98 50.19,55.29 1.02,-86.53 -5.09,-173 -16.97,-258.65 -10.01,-65.36 -21.83,-131.5 -48.45,-192.44 -32.99,-70.28 -96.25,-121.49 -163.48,-157.42 -39.88,70.71 -41.92,156.16 -23.69,233.7 24.65,108.25 77.78,207.14 134.21,301.83 12.11,4.86 24.23,9.78 36.41,14.69 -25.85,-92.83 -64.53,-182.96 -73.77,-279.69 -2.75,-27.71 -0.66,-55.65 4.98,-82.88 39.22,54.63 58.59,120.36 72.8,185.3 13.26,59.44 19.85,120 27.77,180.27 v 0" /><path
         id="path250"
         style="fill:#c5701c;fill-opacity:1;fill-rule:nonzero;stroke:none"
         d="m 3759.88,4028.49 c 16.31,-11.16 32.08,-23.09 47.38,-35.63 4.85,-84.08 21.4,-167.2 44.37,-248.15 14.87,-47.14 28.73,-96.73 60.52,-135.83 16.79,88.33 -12.54,176.25 -38.16,259.9 -10.72,33.89 -21.64,67.77 -31.53,101.95 11.57,-4.91 23.33,-9.83 35.08,-14.63 54.39,-87.68 103.46,-180.21 130.67,-280.29 22.49,-83.66 25.36,-177.93 -17.98,-255.59 -79.23,40.96 -152.04,105.97 -177.94,193.94 -41.37,133.73 -49.89,275.14 -52.41,414.33 v 0" /><path
         id="path252"
         style="fill:#c5701c;fill-opacity:1;fill-rule:nonzero;stroke:none"
         d="m 1760.39,3601.2 c -9.17,98.47 -1.56,197.48 7.44,295.65 13.19,-25.73 28.54,-50.37 47.43,-72.32 -8.03,-49.6 -10.07,-100.09 -7.61,-150.28 2.34,-29.33 6.95,-60.57 26.69,-83.78 31.9,70.76 36.33,150.04 31.96,226.44 17.57,19.19 34.24,39.16 49.59,60.15 -8.21,-121.07 -17.33,-242.88 -45.82,-361.2 -9.47,-36.81 -20.63,-74.24 -42.93,-105.6 -48.88,50.55 -60.15,123.9 -66.75,190.94 v 0" /><path
         id="path254"
         style="fill:#c5701c;fill-opacity:1;fill-rule:nonzero;stroke:none"
         d="m 3684.14,3827.59 c 15.24,21.47 28.79,44.37 46.84,63.74 9.83,-116.58 19.12,-235.08 -0.42,-351.17 -8.59,-47.08 -23.87,-95.36 -58.47,-130.02 -29.56,43.9 -41.33,96.43 -52.3,147.35 -20.63,105.36 -29.68,212.58 -35.74,319.57 15.11,-21.05 31.48,-41.26 49.24,-60.21 -5.04,-77 -1.14,-157.24 32.2,-228.18 8.88,14.51 16.97,29.87 20.33,46.72 13.79,63.38 4.97,128.51 -1.68,192.2 v 0" /><path
         id="path256"
         style="fill:#c5701c;fill-opacity:1;fill-rule:nonzero;stroke:none"
         d="m 1945.16,3883.54 c 13.91,-26.69 32.86,-50.85 44.25,-78.8 15.18,-72.45 21.11,-150.64 63.27,-213.91 8.52,53.07 3.72,107.22 -7.31,159.52 17.09,-8.88 34.48,-17.16 52.59,-23.81 18.83,-91.69 26.02,-194.54 -21.11,-279.22 -40.37,48.64 -70.47,105.49 -87.92,166.23 -24.94,87.92 -34,179.43 -43.77,269.99 v 0" /><path
         id="path258"
         style="fill:#c5701c;fill-opacity:1;fill-rule:nonzero;stroke:none"
         d="m 3509.08,3801.5 c 10.93,29.45 30.54,54.75 45.1,82.46 -13.49,-109.62 -20.21,-222.73 -63.55,-325.69 -17.77,-39.94 -39.9,-78.57 -70.23,-110.35 -44.07,85.52 -37.72,186.32 -20.46,278.08 19.02,6.53 37.19,15.23 54.34,25.79 -10.74,-52.65 -19.02,-107.53 -7.08,-160.78 39.34,63.2 48.45,138.83 61.88,210.49 v 0" /><path
         id="path260"
         style="fill:#c5701c;fill-opacity:1;fill-rule:nonzero;stroke:none"
         d="m 2385.21,3744.95 c 2.88,53.55 38.62,97.39 75.68,132.89 20.99,-33.59 42.82,-68.78 47.25,-109.02 2.41,-28.37 -9.83,-55.3 -23.51,-79.34 -17.38,-29.81 -35.44,-59.19 -53.49,-88.64 -21.35,45.58 -48.75,91.93 -45.93,144.11 v 0" /><path
         id="path262"
         style="fill:#c5701c;fill-opacity:1;fill-rule:nonzero;stroke:none"
         d="m 2997.56,3723.36 c -21.65,54.81 14.39,109.14 41.74,154.6 36.51,-35.98 72.15,-79.46 75.38,-132.95 1.5,-52.05 -24.84,-99.19 -47.86,-144.1 -22.38,41.19 -50.78,79.15 -69.26,122.45 v 0" /><path
         id="path264"
         style="fill:#c5701c;fill-opacity:1;fill-rule:nonzero;stroke:none"
         d="m 2578.31,3782.07 c 18.89,27.83 37.96,55.59 56.49,83.66 43,-39.7 73.1,-96.97 67.76,-156.7 -6.11,-74.31 -51.87,-137.16 -99.12,-191.78 -9.36,55.29 -52.6,97.51 -60.57,153.04 -4.8,40.3 12.77,79.46 35.44,111.78 v 0" /><path
         id="path266"
         style="fill:#c5701c;fill-opacity:1;fill-rule:nonzero;stroke:none"
         d="m 2796.6,3720.72 c -2.46,56.07 27.94,108.19 68.24,145.07 34.97,-48.82 78.68,-96.01 90.13,-156.88 9.66,-70.59 -39.64,-127.62 -59.77,-191.13 -49.07,57.16 -97.64,124.5 -98.6,202.94 v 0" /><path
         id="path268"
         style="fill:#c5701c;fill-opacity:1;fill-rule:nonzero;stroke:none"
         d="m 2673.6,3527.8 c 13.02,55.35 40.9,106.15 74.3,151.73 55.29,-59.86 88.52,-143.46 76.58,-225.31 -4.08,-34.19 -18.71,-65.55 -30.52,-97.45 -14.88,-39.28 -29.57,-78.62 -45.1,-117.66 -9.53,41.86 -32.14,78.98 -46.48,119.1 -19.85,53.85 -38.2,111.66 -28.78,169.59 v 0" /><path
         id="path270"
         style="fill:#c5701c;fill-opacity:1;fill-rule:nonzero;stroke:none"
         d="m 2498.85,3648.46 c 18.77,-44.5 45.28,-88.34 45.52,-138.05 -1.44,-43.41 -34.01,-76.22 -66.81,-100.39 -31.6,27.17 -65.06,62.13 -64.28,106.75 -1.26,23.57 15.89,41.68 29.86,58.53 20.21,23.08 39.1,47.31 55.71,73.16 v 0" /><path
         id="path272"
         style="fill:#c5701c;fill-opacity:1;fill-rule:nonzero;stroke:none"
         d="m 2953.78,3510.77 c -0.36,49.89 28.31,92.89 45.75,137.93 25.26,-42.1 69.69,-71.79 84.85,-119.76 10.93,-49.17 -27.64,-90.19 -62.72,-118.62 -33.76,23.21 -67.23,56.79 -67.88,100.45 v 0" /><path
         id="path274"
         style="fill:#c5701c;fill-opacity:1;fill-rule:nonzero;stroke:none"
         d="m 3089.79,3439.23 c 15.46,26.86 27.34,56.25 26.86,87.79 74.79,-50.73 155.67,-99.12 207.97,-174.99 -82.21,16.68 -162.03,45.4 -234.83,87.2 v 0" /><path
         id="path276"
         style="fill:#c5701c;fill-opacity:1;fill-rule:nonzero;stroke:none"
         d="m 2173.76,3351.91 c 54.27,74.72 133.61,124.92 209.41,175.17 -0.9,-31.48 9.96,-61.41 25.79,-88.21 -72.92,-41.8 -152.81,-70.64 -235.2,-86.96 v 0" /><path
         id="path278"
         style="fill:#c5701c;fill-opacity:1;fill-rule:nonzero;stroke:none"
         d="m 2466.29,3360.61 c 68.06,37.77 128.51,91.27 169.53,157.83 -4.74,-65.54 -17.39,-133.19 -54.63,-188.71 -21.89,-33.17 -48.7,-64.06 -82.1,-86 -23.87,-15.35 -53.55,-23.44 -81.5,-16.02 -23.03,6.9 -39.69,25.38 -58.59,39.16 6.6,18.84 13.92,38.14 28.37,52.48 20.63,23.02 53.37,26.03 78.92,41.26 v 0" /><path
         id="path280"
         style="fill:#c5701c;fill-opacity:1;fill-rule:nonzero;stroke:none"
         d="m 2864.84,3515.21 c 40.6,-64.41 99.37,-116.1 165.34,-153.46 20.74,-12.24 44.86,-17.39 65.72,-29.45 23.57,-14.21 35.2,-40.48 44.14,-65.3 -25.73,-22.73 -55.41,-48.82 -92.71,-41.32 -64.22,11.87 -108.43,68.18 -139.01,121.98 -30.47,50.72 -32.68,110.88 -43.48,167.55 v 0" /><path
         id="path282"
         style="fill:#c5701c;fill-opacity:1;fill-rule:nonzero;stroke:none"
         d="m 2229.23,3268.97 c 53.79,64.17 119.28,121.56 199.16,150.05 11.39,-10.13 22.91,-20.21 34.48,-30.29 -29.51,-15.23 -62.07,-24.82 -89.35,-44.14 -24.66,-17.81 -33.29,-48.45 -43.12,-75.67 -33.23,-8.88 -67.83,-7.02 -101.17,0.05 v 0" /><path
         id="path284"
         style="fill:#c5701c;fill-opacity:1;fill-rule:nonzero;stroke:none"
         d="m 3066.88,3413.44 c 22.01,1.26 41.62,-11.69 61.05,-20.39 57.8,-27.88 100.68,-77.06 142.72,-124.02 -33.7,-5.69 -70.16,-12.05 -102.72,1.86 -9.96,23.22 -15.77,49.66 -35.44,67.23 -27.35,24.94 -64.72,33.4 -96.62,50.73 10.19,8.4 19.67,17.75 31.01,24.59 v 0" /><path
         id="path286"
         style="fill:#c5701c;fill-opacity:1;fill-rule:nonzero;stroke:none"
         d="m 2612.55,3294.82 c 0,40.18 19.31,76.7 40,109.93 25.18,-83.78 55.35,-166.24 94.94,-244.37 42.93,76.51 73.52,159.27 97.8,243.35 24.47,-32.99 41.61,-73.05 39.16,-114.85 -0.36,-65.36 -44.56,-118.31 -59.97,-179.79 -9.41,-34.53 -16.49,-74 1.92,-106.92 16.97,-33.59 50.37,-54.27 83.73,-69.02 -31.74,-8.81 -66.11,-6.49 -95.36,8.98 -28.2,13.63 -48.75,38.22 -65.61,63.82 -28.18,-57.93 -98.05,-91.34 -160.48,-72.93 42.71,18.12 85.88,50.02 94.28,98.6 5.69,49.83 -12.06,98.59 -32.51,143.08 -17.57,38.09 -39.1,76.89 -37.9,120.12 v 0" /><path
         id="path288"
         style="fill:#c5701c;fill-opacity:1;fill-rule:nonzero;stroke:none"
         d="m 3238.21,3345.08 c 53.55,-16.62 109.08,-25.25 163.48,-38.44 59.9,-14.7 117.84,-44.98 156.87,-93.73 -33.22,-9.12 -66.56,-18 -99.13,-29.33 -30.57,18.52 -61.28,37.12 -94.32,50.85 -19.07,8.16 -39.65,14.63 -54.82,29.51 -26.38,24.88 -46.05,55.89 -72.08,81.14 v 0" /><path
         id="path290"
         style="fill:#c5701c;fill-opacity:1;fill-rule:nonzero;stroke:none"
         d="m 2075.35,3300.4 c 60.45,16.97 122.94,25.31 183.33,42.75 -35.51,-33.63 -58.18,-83.77 -106.75,-101.16 -39.16,-15.23 -75.81,-35.98 -111.18,-58.41 -33.35,11.15 -67.35,19.97 -100.87,30.4 36.64,40.06 82.94,71.49 135.47,86.42 v 0" /><path
         id="path292"
         style="fill:#c5701c;fill-opacity:1;fill-rule:nonzero;stroke:none"
         d="m 2066.23,3175.47 c 38.02,27.24 80.54,48.23 124.44,64.12 22.19,9.24 45.52,-1.14 68.12,-3.18 -50.25,-16.06 -62.18,-74.3 -102.96,-102.01 -29.51,14.46 -59.79,27.24 -89.6,41.07 v 0" /><path
         id="path294"
         style="fill:#c5701c;fill-opacity:1;fill-rule:nonzero;stroke:none"
         d="m 2276.78,3219.86 c 16.79,17.75 41.56,20.45 64.17,25.01 17.34,-10.74 33.88,-22.55 50.08,-34.96 -52.18,4.73 -106.15,-21.53 -132.3,-67.17 -13.01,-21.84 -14.03,-53.98 6.84,-71.3 25.54,-16.13 57.57,-6.73 85.22,-2.23 -17.94,-30.7 -44.56,-61.94 -82.82,-63.92 -40.96,-3.48 -76.1,33.58 -76.1,73.52 -4.86,60.09 43.84,104.77 84.91,141.05 v 0" /><path
         id="path296"
         style="fill:#c5701c;fill-opacity:1;fill-rule:nonzero;stroke:none"
         d="m 2541.19,3201.74 c 13.61,16.57 31.01,29.28 49.35,40.01 7.14,-38.62 29.21,-71.78 41.8,-108.24 -2.58,-26.82 -13.85,-51.83 -22.85,-76.95 -34.24,-85.69 -87.49,-169.11 -169.35,-216 -34.24,-19.97 -73.04,-31.25 -112.39,-35.27 6.61,52.54 48.58,88.87 87.8,119.46 51.99,41.02 110.76,79.58 140.99,140.75 14.21,27.1 17.45,57.98 15.95,88.03 -34.72,-16.67 -55.59,-50.25 -78.14,-79.81 -33.04,-44.03 -68.54,-89.18 -118.38,-114.9 -24.34,-13.14 -51.99,-18.41 -79.33,-20.04 7.79,21.48 18.29,42.34 34.18,58.96 44.73,48.33 105.96,77.12 151.78,124.19 23.33,23.75 36.4,55.17 58.59,79.81 v 0" /><path
         id="path298"
         style="fill:#c5701c;fill-opacity:1;fill-rule:nonzero;stroke:none"
         d="m 2908.92,3241.93 c 47.62,-22.13 67.64,-73.34 101.82,-109.81 35.93,-40.66 80,-72.98 125.28,-102.54 32.39,-21.23 54.09,-54.94 67.29,-90.8 -50.85,0.79 -98.71,24.17 -134.7,59.26 -40.71,38.2 -69.2,86.76 -105.59,128.62 -9.96,12.06 -23.82,19.67 -37.55,26.45 -1.8,-49.11 15.41,-98.41 48.93,-134.56 49.18,-57.82 119.94,-91.89 169.07,-149.63 15.89,-17.81 23.98,-40.71 28.78,-63.75 -77.01,6.36 -147.83,47.56 -197.12,106.09 -54.09,63.32 -89.3,141.1 -110.23,221.28 19.73,34.25 34.54,71.07 44.02,109.39 v 0" /><path
         id="path300"
         style="fill:#c5701c;fill-opacity:1;fill-rule:nonzero;stroke:none"
         d="m 3108.61,3209.66 c 16.5,12.3 31.91,27.17 51.7,34.01 41.5,-1.86 72.44,-32.08 100.03,-59.61 27.05,-28.01 51.88,-64.17 47.61,-105.07 -1.07,-41.08 -38.86,-79.82 -81.31,-73.16 -36.05,4.38 -61.36,33.71 -77.9,63.57 27.33,-6.06 59.91,-14.45 84.38,4.26 23.5,20.21 17.98,56.78 2.21,79.99 -27.59,40.78 -79.28,57.57 -126.72,56.01 v 0" /><path
         id="path302"
         style="fill:#c5701c;fill-opacity:1;fill-rule:nonzero;stroke:none"
         d="m 3240.19,3236.71 c 19.92,1.32 40.24,8.52 60.09,2.94 47.8,-13.73 93.02,-35.8 134.27,-63.57 -33.22,-9.42 -63.4,-26.39 -93.96,-41.92 -37.31,30.71 -51.64,85.57 -100.4,102.55 v 0" /><path
         id="path304"
         style="fill:#c5701c;fill-opacity:1;fill-rule:nonzero;stroke:none"
         d="m 1898.02,3131.77 c -2.64,23.21 13.25,41.01 26.39,57.98 70.64,-20.38 144.28,-35.08 208.75,-71.95 21.47,-13.14 47.56,-33.35 42.58,-61.9 -2.16,-7.25 -2.46,-21.05 -13.49,-17.63 -12.12,15.96 -21.23,35.14 -38.63,46.18 -23.68,15.9 -60.92,12.72 -78.2,-11.21 -28,-35.87 -54.15,-73.11 -82.39,-108.78 9.47,-7.14 18.83,-14.51 28.06,-22.07 17.03,2.99 37.06,8.09 52,-3.91 30.58,-22.84 45.57,-67.4 30.46,-103.14 -6.36,-15.72 -21.47,-24.52 -36.82,-29.68 -23.21,-6.66 -34.54,-31.6 -57.27,-39.1 -11.87,-4.62 -23.69,2.39 -35.08,5.15 12.83,8.82 27.47,17.82 29.33,34.85 -16.86,9.95 -33.89,23.38 -28.86,45.52 -18.28,-6.62 -40.18,-15.72 -58.4,-3.97 -14.76,10.38 -21.95,27.71 -31.49,42.4 -64.11,-11.1 -100.62,-79.58 -94.69,-140.39 5.04,-20.03 13.26,-40.17 9.95,-61.29 -2.21,-17.45 -8.15,-37.84 -25.48,-45.92 -16.97,-8.71 -36.34,-2.35 -54.03,0.04 -10.02,-21.94 -10.02,-46.05 -4.44,-69.2 -10.56,9.54 -22.55,18.66 -27.94,32.26 -6.24,14.28 -4.68,30.17 -5.16,45.28 -42.1,21.6 -44.44,92.78 -3,116.28 13.32,8.34 29.33,9.11 44.38,11.22 0.05,16.91 -2.47,35.62 8.09,50.19 10.32,17.64 30.28,24.95 48.28,32.03 -36.04,0.24 -74.12,0.89 -106.99,-16.2 -33.1,-16.13 -23.51,-63.69 -54.45,-82.57 -22.25,-17.76 -49.95,-3.6 -74.6,-3.49 -19.55,-11.86 -26.75,-34.83 -33.28,-55.41 -9,20.28 -20.15,41.51 -17.58,64.29 1.14,14.57 11.94,24.95 20.82,35.38 -6.3,22.85 -14.94,51.88 2.81,71.73 21.89,23.62 57.75,17.99 85.58,10.5 2.28,15.17 3.18,33.69 17.57,42.87 25.48,17.1 57.93,11.09 86.83,11.51 -29.14,13.73 -58.23,31.42 -91.63,30.88 -17.81,-26.91 -53.01,-46.11 -85.1,-34.36 -17.27,5.71 -22.78,24.53 -30.16,39.1 -25.91,1.38 -41.8,-19.6 -56.31,-37.47 0.06,20.62 -2.28,43.3 9.18,61.58 6.59,12.54 21.82,14.28 33.76,18.77 8.93,23.1 25.24,44.32 49.29,52.71 34.24,13.32 71.72,-1.67 99.49,-22.49 10.37,-6.41 19.07,-17.32 31.78,-19.07 17.46,1.75 31.13,14.76 48.1,18.42 13.37,-1.32 24.4,-10.01 36.1,-16.07 13.13,15.46 26.62,33.64 47.67,38.26 41.63,8.34 72.45,-39.77 113.89,-28.13 39.34,15.9 62.31,54.4 90.07,84.38 -25.37,-1.14 -50.91,0 -75.74,5.64 v 0" /><path
         id="path306"
         style="fill:#c5701c;fill-opacity:1;fill-rule:nonzero;stroke:none"
         d="m 3382.62,3127.08 c 60.87,30.35 127.79,44.51 192.85,62.55 12.42,-15.76 23.04,-33.1 28.73,-52.58 -18.42,-10.43 -39.76,-11.69 -60.38,-12.31 29.49,-28.54 49.23,-70.81 90.84,-83.9 39.77,-8.03 68.9,35.21 108.74,29.4 22.12,-3.24 36.57,-22.13 49.76,-38.32 11.17,5.76 21.77,13.19 34.37,15.47 19.06,-1.09 33.57,-18.6 53.12,-18.17 29.27,16.55 54.64,43.24 90.2,46.06 39.1,6.17 75.39,-21.48 87.86,-57.45 11.33,-4.2 25.6,-5.65 32.51,-17.04 12.88,-18.71 8.81,-42.57 8.93,-63.98 -12.89,19.67 -29.87,40.96 -56.44,37.6 -6.36,-13.86 -10.97,-31.25 -26.62,-37.42 -28.6,-12.48 -61.35,2.52 -80.42,24.95 -8.34,12.35 -24.47,8.2 -36.46,4.97 -21.89,-6.84 -42.05,-17.93 -62.79,-27.34 28.49,-0.3 59.96,5.33 85.64,-10.38 15.65,-9.12 16.97,-28.36 20.57,-44.25 27.64,8.5 64.82,13.24 85.45,-11.94 16.97,-20.04 7.62,-47.25 2.34,-69.8 30.29,-25.2 21.89,-68.43 2.15,-97.57 -7.12,19.84 -13.96,42.75 -33.64,53.79 -24.65,-2.17 -52.83,-14.57 -74.54,3.65 -25.3,16.8 -23.2,51.22 -41.13,72.87 -33.4,26.56 -78.93,25.19 -119.34,24.89 16.25,-6.25 33.63,-12.84 44.49,-27.35 13.27,-14.87 12.36,-35.98 13.01,-54.69 16.8,-2.53 35.02,-4.15 49,-15 35.74,-27.35 30.82,-92.35 -9.41,-113.22 -0.6,-13.79 0.54,-28.07 -3.42,-41.56 -5.51,-15.17 -18.11,-25.91 -29.21,-37.06 5.35,23.93 6.61,48.99 -5.4,71.19 -21.16,-4.26 -48.56,-10.8 -64.46,8.63 -22.2,28.08 -15.05,66.93 -3.96,98.05 6.12,60.69 -31.29,130.85 -96.19,140.27 -9.9,-16.19 -16.67,-37.72 -36.1,-44.92 -17.03,-7.02 -34.96,0.9 -51.09,6.42 3.17,-21.95 -13.62,-35.87 -30.71,-45.34 2.89,-16.91 16.56,-26.44 30.29,-34.6 -12.47,-2.7 -25.55,-10.5 -38.09,-4.25 -16.42,6.1 -26.56,21.29 -40.06,31.53 -17.02,8.64 -38.38,12.84 -48.45,30.95 -20.56,35.2 -4.74,82.81 25.43,107.4 15.53,13.32 36.82,8.1 55.1,5.22 8.47,7.5 17.16,14.76 25.98,21.83 -29.2,39.83 -59.31,79.04 -90.67,117.24 -23.46,4.02 -47.8,17.69 -71.55,7.5 -26.74,-9.29 -39.87,-36.29 -51.28,-60.15 -12.58,14.27 -19.29,34.66 -10.44,52.65 12.37,20.99 33.72,34.67 54.89,45.51 v 0" /><path
         id="path308"
         style="fill:#3a59b1;fill-opacity:1;fill-rule:nonzero;stroke:none"
         d="m 1934.54,2431.44 c 212.65,201.08 508.18,308.25 800.05,297.22 -1.68,-66.94 4.44,-133.86 0.36,-200.73 -1.56,-42.21 2.39,-84.49 -0.9,-126.7 -54.15,-19.32 -102.91,-50.33 -151.13,-80.96 -73.75,-48.28 -145.9,-99.43 -213.49,-156.16 -135.76,4.2 -272.79,10.86 -407.36,-12.11 -16.97,92.11 -28.55,185.72 -27.53,279.44 v 0" /><path
         id="path310"
         style="fill:#3a59b1;fill-opacity:1;fill-rule:nonzero;stroke:none"
         d="m 2778.37,2728.59 c 291.86,11.03 587.33,-96.18 799.98,-297.27 0.19,-93.72 -9.29,-187.88 -28.84,-279.63 -134.03,23.86 -270.82,16.37 -406.11,12.42 -76.47,63.75 -158.08,121.31 -242.34,174.44 -39.16,23.93 -78.97,47.44 -122.46,62.79 -0.59,109.08 -0.06,218.17 -0.23,327.25 v 0" /><path
         id="path312"
         style="fill:#ffffff;fill-opacity:1;fill-rule:nonzero;stroke:none"
         d="m 1953.07,2422.04 c 204.37,189.97 484.19,293.48 762.63,287.72 0.12,-97.99 0.24,-196.03 0,-294.09 -87.74,-37.24 -166.06,-92.76 -243.6,-147.4 -37.95,-27.29 -74.96,-55.77 -111.36,-84.97 -127.49,6.23 -256.13,9.11 -382.84,-8.64 -14.87,81.61 -23.45,164.43 -24.83,247.38 v 0" /><path
         id="path314"
         style="fill:#ffffff;fill-opacity:1;fill-rule:nonzero;stroke:none"
         d="m 2797.31,2709.76 c 278.32,5.46 558.44,-97.57 762.4,-288.03 -1.57,-82.82 -10.08,-165.57 -24.9,-247.07 -126.65,17.63 -255.29,15.1 -382.72,8.57 -74.66,60.03 -152.31,116.52 -233.4,167.56 -38.98,24.16 -78.74,47.55 -121.38,64.76 -0.17,98.12 -0.11,196.16 0,294.21 v 0" /><path
         id="path316"
         style="fill:#3a59b1;fill-opacity:1;fill-rule:nonzero;stroke:none"
         d="m 1868.63,2362.96 c 12.6,13.79 25.32,27.46 37.79,41.38 -2.23,-89.89 12.05,-179.19 30.23,-266.85 -37.61,-34.2 -73.35,-70.96 -101.12,-113.83 -65.06,-96.18 -108.96,-204.68 -146.74,-313.95 -39.94,4.5 -80.24,4.62 -120.18,9.37 32.5,238.26 137.69,466.26 300.02,643.88 v 0" /><path
         id="path318"
         style="fill:#3a59b1;fill-opacity:1;fill-rule:nonzero;stroke:none"
         d="m 3606.48,2404.82 c 130.26,-133.67 231.96,-295.77 289.11,-473.75 22.43,-69.09 38.2,-140.21 48.39,-212.12 -39.87,-4.49 -80.05,-4.74 -119.87,-9.24 -35.74,102.43 -76.23,204.27 -135,295.96 -31.18,49.05 -68.36,94.8 -113.93,131.14 20.03,87.8 33.34,177.82 31.3,268.01 v 0" /><path
         id="path320"
         style="fill:#3a59b1;fill-opacity:1;fill-rule:nonzero;stroke:none"
         d="m 2739.5,2367.05 c 21.23,13.31 42.59,-5.16 61.77,-13.57 108.37,-60.81 207.2,-136.97 304.95,-213.3 -33.06,-140.04 -96.55,-270.34 -157.41,-399.88 -128.29,0.3 -256.56,0.42 -384.89,-0.05 -46.18,95.53 -90.01,192.5 -126.06,292.34 -11.69,35.02 -24.05,70.11 -30.35,106.51 43.66,39.52 93.08,72.51 140.21,107.88 61.66,43.37 123.31,87.98 191.78,120.07 v 0" /><path
         id="path322"
         style="fill:#ffffff;fill-opacity:1;fill-rule:nonzero;stroke:none"
         d="m 1591.64,1735.33 c 32.74,229.98 139.19,447.23 294.87,618.99 4.74,-70.46 13.55,-140.86 29.26,-209.77 -65.19,-56.01 -113.4,-128.74 -152.56,-204.61 -34.84,-67.1 -62.73,-137.5 -87.56,-208.75 -28,1.37 -56,3.05 -84.01,4.14 v 0" /><path
         id="path324"
         style="fill:#ffffff;fill-opacity:1;fill-rule:nonzero;stroke:none"
         d="m 2718.1,2334.65 c 17.39,8.82 37.9,24.48 56.96,10.32 107.18,-56.43 203.19,-131.39 299.37,-204.44 13.43,-7.13 5.7,-22.73 3.54,-34.05 -34.37,-119.7 -88.87,-232.09 -139.79,-345.36 -121.19,-0.72 -242.39,-0.72 -363.59,0 -48.34,106.98 -99.25,213.3 -134.03,325.68 -4.38,14.76 -9.17,29.45 -10.43,44.8 5.75,7.92 13.91,13.62 21.58,19.56 86.18,64.76 172.35,130.37 266.39,183.49 v 0" /><path
         id="path326"
         style="fill:#ffffff;fill-opacity:1;fill-rule:nonzero;stroke:none"
         d="m 3626.39,2354.86 c 155.97,-171.75 262.24,-389.37 294.81,-619.53 -28.07,-1.09 -56.01,-2.77 -84.01,-4.2 -32.7,93.55 -70.71,185.85 -122.35,270.7 -32.13,53.08 -71.06,102.31 -117.96,143.09 16.62,68.84 24.17,139.42 29.51,209.94 v 0" /><path
         id="path328"
         style="fill:#3a59b1;fill-opacity:1;fill-rule:nonzero;stroke:none"
         d="m 1389.9,2323.21 c 7.68,-3.42 15.3,-6.84 22.97,-10.38 0.84,-10.92 -6.65,-27.71 7.92,-32.21 35.98,-18.64 74.06,-33.16 110.76,-50.49 5.04,6.42 10.08,12.96 15.05,19.37 7.86,-4.26 15.65,-8.69 23.51,-13.14 -18.05,-37.95 -31,-78.86 -56.25,-112.92 -11.81,-15.7 -28.73,-30.58 -49.48,-30.52 -27.58,-0.42 -58.16,20.27 -58.41,49.84 -2.45,28.24 12.72,53.07 21.35,78.86 -10.19,10.07 -24.17,14.93 -36.58,21.47 -6.65,-5.95 -12.95,-12.19 -18.71,-19.01 -7.97,3.36 -15.89,6.77 -23.87,10.01 12.66,30.28 27.29,59.66 41.74,89.12 v 0" /><path
         id="path330"
         style="fill:#3a59b1;fill-opacity:1;fill-rule:nonzero;stroke:none"
         d="m 4038.97,2309.83 c 29.04,20.75 70.47,7.37 91.87,-18.35 20.69,-23.98 26.88,-57.63 22.69,-88.4 -2.29,-16.18 -14.47,-34.48 -32.75,-33.34 -14.34,-1.92 -20.88,12.17 -28.61,21.17 9.6,19.31 33.4,35.56 26.8,59.61 -8.03,22.72 -47.91,34.06 -59.91,8.94 -5.33,-18.06 3.72,-36.11 7.56,-53.62 -7.67,-3.35 -15.23,-6.84 -22.72,-10.38 -8.1,12.43 -14.47,27.59 -28.13,34.73 -21.11,8.03 -35.75,-21.58 -25.25,-38.08 11.7,-26.03 43.18,-29.99 68.19,-33.46 1.56,-9 3.17,-18.12 4.8,-27.28 -25.49,-4.2 -50.8,-9.24 -76.41,-12.72 -1.55,8.76 -3,17.57 -4.2,26.27 -17.45,17.2 -33.99,38.13 -34.77,63.74 -2.71,23.39 4.49,52.53 28.48,62.14 16.61,6.77 32.98,-2.89 46.9,-11.28 -0.54,17.62 -1.44,39.45 15.46,50.31 v 0" /><path
         id="path332"
         style="fill:#ffffff;fill-opacity:1;fill-rule:nonzero;stroke:none"
         d="m 1456.94,2208.96 c 17.34,-7.85 34.55,-16.01 51.82,-24.04 -7.26,-13.08 -12.24,-28.67 -24.71,-37.91 -11.15,-2.93 -26.32,-4.49 -34.3,5.7 -7.91,18.58 1.2,38.55 7.19,56.25 v 0" /><path
         id="path334"
         style="fill:#3a59b1;fill-opacity:1;fill-rule:nonzero;stroke:none"
         d="m 4054.86,2107.55 c 29.98,29.56 78.98,40.78 117.73,22.67 60.09,-27.17 83.71,-113.76 43.47,-166.71 -11.57,-16.08 -29.38,-25.49 -46.59,-34.25 1.19,-6.17 3.66,-18.52 4.86,-24.7 16.97,2.69 33.93,5.87 50.79,9.54 2.04,9.53 3.72,19.07 5.1,28.59 8.03,2.16 16.07,4.34 24.22,6.36 8.34,-31.6 16.02,-63.44 24.11,-95.16 -8.87,-2.34 -17.75,-4.74 -26.5,-7.26 -3.49,7.08 -6.89,14.09 -10.31,21.05 -45.59,-4.62 -89.05,-20.87 -132.73,-34.01 0.61,-5.39 1.81,-16.18 2.42,-21.59 -9.13,-2.21 -18.19,-4.61 -27.12,-7.01 -7.74,31.66 -16.07,63.15 -23.51,94.87 8.71,2.57 17.46,5.1 26.27,7.56 3.07,-6.79 6.17,-13.68 9.36,-20.57 16.36,0.17 32.39,4.07 47.91,9.3 -2.51,8.93 -4.97,17.75 -7.5,26.5 -23.44,0.41 -48.03,4.37 -66.62,19.79 -49.12,37.96 -58.83,119.27 -15.36,165.03 v 0" /><path
         id="path336"
         style="fill:#3a59b1;fill-opacity:1;fill-rule:nonzero;stroke:none"
         d="m 2003.81,2107.08 c 116.76,15.83 235.14,9.11 352.32,2.09 37.89,-129.05 95.47,-251.03 151.17,-373.06 1.92,-5.89 7.2,-13.25 1.92,-19.2 -90.36,-126.29 -162.33,-264.58 -232.08,-403.05 -121.43,-0.24 -242.81,-1.5 -364.25,-2.87 -70.4,95.88 -135.41,197.77 -174.75,310.76 -7.97,27.1 -18.89,54.87 -17.99,83.36 22.91,70.81 56.97,137.75 94.81,201.67 35.62,58.47 75.5,115.07 125.34,162.33 17.87,17.15 37.06,36.64 63.51,37.97 v 0" /><path
         id="path338"
         style="fill:#3a59b1;fill-opacity:1;fill-rule:nonzero;stroke:none"
         d="m 3155.27,2108.75 c 96.55,7.08 193.52,10.55 290.26,5.22 29.07,-3.37 59.25,-3.23 87.25,-12.96 30.22,-18.41 53.84,-45.69 77.66,-71.53 73.63,-87.56 130.19,-188.79 172.34,-294.93 5.16,-15.11 13.92,-30.65 9.36,-47.13 -19.3,-96.25 -66.09,-184.3 -117.24,-267.11 -23.81,-36.58 -47.19,-73.7 -74.47,-107.77 -121.38,-2.34 -243.12,2.22 -364.63,1.26 -70.21,138.18 -141.46,276.82 -232.26,402.87 -2.99,4.74 -2.99,9.6 0,14.63 55.06,123.84 116.11,246.19 151.73,377.45 v 0" /><path
         id="path340"
         style="fill:#3a59b1;fill-opacity:1;fill-rule:nonzero;stroke:none"
         d="m 1333.59,2100.05 c 50.73,13.56 109.86,-17.2 126,-67.7 13.73,-50.19 -7.2,-111.42 -55.42,-135.04 -52.17,-25.5 -121.85,2.03 -142.66,56.19 -20.39,56.73 10.61,132.11 72.08,146.55 v 0" /><path
         id="path342"
         style="fill:#ffffff;fill-opacity:1;fill-rule:nonzero;stroke:none"
         d="m 4111.43,2079.97 c 23.43,7.61 51.03,7.73 72.01,-6.78 19.2,-13.37 23.93,-42.94 9.77,-61.7 -20.39,-27.24 -57.8,-38.09 -90.49,-32.28 -21.27,3.67 -41.86,21.12 -41.37,44.03 -2.82,29.21 25.37,48.93 50.08,56.73 v 0" /><path
         id="path344"
         style="fill:#ffffff;fill-opacity:1;fill-rule:nonzero;stroke:none"
         d="m 1316.38,2044.89 c 38.56,15.22 87.97,-2.64 108.25,-38.86 13.3,-23.75 -2.52,-55.29 -27.65,-62.73 -44.8,-11.58 -100.57,13.85 -109.8,61.89 6.65,14.99 12.11,33.52 29.2,39.7 v 0" /><path
         id="path346"
         style="fill:#3a59b1;fill-opacity:1;fill-rule:nonzero;stroke:none"
         d="m 1202.86,1765.67 c -1.02,51.4 42.1,98.05 92.95,102.62 46.6,4.36 95.35,-26.21 108.54,-71.8 9.78,-30.88 2.94,-64.11 -12.35,-91.93 0.78,-9.95 0.67,-19.91 -0.3,-29.98 -24.89,-1.51 -49.77,-3.67 -74.48,-6.84 -0.78,9.24 -1.56,18.41 -2.34,27.53 23.69,10.55 54.03,23.39 57.99,52.53 5.58,35.87 -31.79,62.97 -64.4,63.5 -30.11,1.68 -67.35,-13.67 -72.87,-46.6 -3.72,-27.57 12.77,-52.41 29.27,-72.91 -6.78,-6.54 -13.56,-13.07 -20.33,-19.73 -22.86,26.02 -42.88,57.69 -41.68,93.61 v 0" /><path
         id="path348"
         style="fill:#3a59b1;fill-opacity:1;fill-rule:nonzero;stroke:none"
         d="m 4176.13,1806.68 c 42.15,10.15 91.21,-8.51 112.13,-47.37 22.37,-40.42 22.61,-96.84 -10.49,-131.69 -36.52,-40.35 -106.14,-44.19 -146.44,-7.43 -32.09,29.26 -42.76,78.13 -30.7,119.15 10.07,34.37 40.78,60.27 75.5,67.34 v 0" /><path
         id="path350"
         style="fill:#ffffff;fill-opacity:1;fill-rule:nonzero;stroke:none"
         d="m 4198.86,1754.64 c 19.84,1.13 41.07,-3.18 56.78,-16.01 16.38,-13.32 18.59,-39.1 8.95,-56.97 -25.38,-34.85 -79.83,-42.16 -115.45,-19.44 -20.81,12.89 -26.75,43.71 -11.99,63.21 14.2,19.18 38.92,26.75 61.71,29.21 v 0" /><path
         id="path352"
         style="fill:#3a59b1;fill-opacity:1;fill-rule:nonzero;stroke:none"
         d="m 1574.79,1686.64 c 33.88,-0.54 67.71,-0.91 101.52,-0.96 27.65,-155.32 108.31,-294.52 195.57,-423.57 9.29,-11.1 2.15,-25.19 -0.24,-37.54 -19.19,-69.51 -23.7,-144.76 -2.4,-214.33 10.49,-38.201 28.78,-73.529 45.93,-109.092 -44.56,-4.437 -89.3,-9.226 -134.09,-6.226 -7.44,-0.481 -13.01,2.34 -16.67,8.449 -152.38,228.179 -220.21,510.699 -189.62,783.269 v 0" /><path
         id="path354"
         style="fill:#3a59b1;fill-opacity:1;fill-rule:nonzero;stroke:none"
         d="m 2563.74,1686.03 c 61.1,4.62 122.51,2.65 183.8,3.13 67.11,-0.55 134.39,1.67 201.43,-3.06 87.44,-124.44 158.44,-259.44 227.35,-394.79 -59.73,-123.71 -133.14,-243.94 -236.94,-335.83 -21.94,-15.89 -51.26,-13.07 -76.81,-17.199 -70.23,-4.859 -140.87,-4.859 -211.04,-0.121 -28.55,4.551 -62.73,0.84 -84.79,23.02 -100.15,91.39 -171.82,208.87 -230.22,330.07 68.66,135.41 139.9,270.22 227.22,394.78 v 0" /><path
         id="path356"
         style="fill:#3a59b1;fill-opacity:1;fill-rule:nonzero;stroke:none"
         d="m 3836.35,1685.61 c 33.86,0.12 67.76,0.49 101.71,1.03 19.6,-176.32 0,-357.18 -59.92,-524.32 -33.4,-94.15 -78.62,-184.101 -133.85,-267.289 -49,-2.511 -97.93,0.367 -146.51,6.188 17.51,36.57 36.1,72.972 46.84,112.201 20.33,69.56 15.3,144.34 -3.96,213.49 -2.33,11.45 -8.34,24.82 0.25,35.14 87.13,129.05 168.14,268.19 195.44,423.56 v 0" /><path
         id="path358"
         style="fill:#3a59b1;fill-opacity:1;fill-rule:nonzero;stroke:none"
         d="m 1187.2,1537.73 c 0.96,65.3 70.65,116.46 133.38,103.09 41.56,-8.94 72.86,-48.65 75.68,-90.44 1.8,-19.25 -2.64,-38.32 -8.21,-56.66 2.69,-9.18 4.91,-18.55 6.65,-28.08 -24.83,-6.53 -49.6,-13.56 -74.78,-18.83 -1.86,8.7 -3.72,17.39 -5.52,26.03 23.09,14.81 51.09,34.6 49,65.61 -6.72,37.12 -51.82,56.37 -85.58,45.52 -26.33,-6.85 -55.95,-27.66 -52.54,-58.35 0.55,-27.47 21.9,-47.51 40.18,-65.37 -5.75,-7.26 -11.5,-14.64 -17.2,-22.07 -31.13,24.46 -60.03,57.87 -61.06,99.55 v 0" /><path
         id="path360"
         style="fill:#3a59b1;fill-opacity:1;fill-rule:nonzero;stroke:none"
         d="m 4234.24,1555.72 c 5.51,7.5 11.08,14.99 16.73,22.36 29.26,-23.39 58.28,-54.27 60.46,-93.72 5.56,-72.45 -79.18,-130.74 -145.69,-105.24 -34.76,13.48 -59.96,48.69 -62,85.87 -3.48,28.96 13.74,56.97 1.56,85.27 24.23,6.3 48.4,12.83 72.44,19.97 2.77,-8.88 5.52,-17.74 8.28,-26.69 -23.27,-14.75 -51.81,-34.47 -49.72,-65.72 5.28,-36.1 48.59,-54.99 81.39,-46.59 27.63,5.62 58.95,26.74 57.08,58.29 -1.37,27.57 -21.64,48.39 -40.53,66.2 v 0" /><path
         id="path362"
         style="fill:#3a59b1;fill-opacity:1;fill-rule:nonzero;stroke:none"
         d="m 1372.64,1426.3 c 9.1,1.15 18.28,2.16 27.46,3.24 5.33,-32.02 11.81,-63.86 15.65,-96.19 -8.7,-1.2 -17.39,-2.52 -26.09,-3.89 -2.76,7.19 -5.57,14.27 -8.4,21.35 -29.5,1.26 -57.92,-7.5 -86.35,-14.11 32.93,-17.97 58.41,-55.34 98.53,-55.64 0.12,8.75 0.24,17.44 0.36,26.02 9.12,0.78 18.29,1.5 27.46,2.05 4.87,-32.03 10.44,-63.99 15.78,-95.95 -8.64,-1.02 -17.33,-2.04 -25.97,-3.06 -5.64,7.49 -6.53,23.03 -19.01,20.75 -41.62,-2.35 -81.8,-16.2 -123.17,-21.77 -1.56,-8.46 -3.18,-16.91 -4.74,-25.55 -8.1,-0.97 -16.14,-1.92 -24.17,-3.06 -5.58,31.97 -10.73,63.98 -16.79,95.83 8.87,2.09 17.69,4.27 26.51,6.3 3.29,-7.86 6.65,-15.77 9.95,-23.75 29.63,1.2 58.23,9.48 87.19,14.81 -31.72,21.29 -59.31,54.94 -99.49,58.41 -0.59,-9.47 -1.13,-19.01 -1.67,-28.6 -9.12,-0.79 -18.24,-1.62 -27.29,-2.53 -4.14,32.02 -9.95,63.75 -15.65,95.55 8.63,1.79 17.21,3.53 25.85,5.15 6.18,-9.72 9.41,-27.47 24.88,-22.01 40,6 79.64,14.93 119.17,23.74 0.05,7.68 0.05,15.36 0,22.91 v 0" /><path
         id="path364"
         style="fill:#3a59b1;fill-opacity:1;fill-rule:nonzero;stroke:none"
         d="m 4084.07,1278.3 c 7.69,-2.4 15.42,-4.91 23.16,-7.55 0.23,-11.76 -0.73,-27.95 13.97,-31.43 38.02,-13.61 77.59,-22.67 116.09,-35.19 3.54,6.95 7.14,13.84 10.68,20.74 8.82,-2.65 17.69,-5.46 26.56,-8.39 -10.13,-30.59 -20.14,-61.18 -29.68,-91.94 -8.69,1.73 -17.34,3.36 -25.9,5.04 0.24,8.81 0.59,17.63 0.89,26.32 -26.14,13.26 -55.05,19.13 -83.11,26.82 12.89,-27.05 23.81,-55.36 40.71,-80.3 4.74,-7.74 13.44,-11.35 21.23,-15.36 3.9,7.55 7.79,15 11.7,22.37 8.82,-2.76 17.7,-5.75 26.56,-8.63 -10.37,-31.07 -20.32,-62.26 -30.51,-93.44 -8.47,2.81 -16.79,5.4 -25.14,7.92 0.85,7.43 1.43,15.17 2.46,22.36 -40.13,22.79 -86.94,29.02 -130.31,43.37 -4.19,-6.43 -7.85,-13.26 -10.85,-20.4 -8.88,2.94 -17.64,5.89 -26.4,8.63 10.27,31.6 20.16,63.27 31.07,94.64 7.31,-3.24 14.94,-6.17 22.08,-10.19 1.01,-7.91 2.15,-15.9 3.46,-23.87 23.45,-15.29 52.66,-17.33 78.81,-26.38 -12.72,26.26 -23.46,53.6 -38.92,78.37 -4.44,8.46 -13.44,12.35 -21.18,16.79 -3.71,-7.2 -7.31,-14.44 -10.9,-21.77 -8.58,2.52 -17.09,5.05 -25.32,8.21 6.6,31.91 19.62,62.07 28.79,93.26 v 0" /><path
         id="path366"
         style="fill:#3a59b1;fill-opacity:1;fill-rule:nonzero;stroke:none"
         d="m 3983.57,1264.51 c 14.14,4.56 31.06,11.27 44.79,1.62 19.07,-12.12 19.37,-37.67 17.69,-57.76 -4.85,-39.88 -23.33,-83.78 -63.15,-99.72 -18.22,4.68 -33.76,15.59 -40.42,33.7 9.12,10.19 18.66,23.98 34.25,22.24 11.87,2.23 15.47,-9.64 19.18,-18.34 14.95,24.95 24.72,52.77 26.75,81.86 -5.99,-3.78 -11.87,-7.62 -17.75,-11.51 -17.68,10.01 -24.33,28.36 -21.34,47.91 v 0" /><path
         id="path368"
         style="fill:#d32724;fill-opacity:1;fill-rule:nonzero;stroke:none"
         d="m 2027.97,1251.01 c 85.04,0.84 170.14,1.08 254.99,7.26 61.29,-127.07 139.13,-247.73 241.56,-345.598 -30.23,-58.063 -70.77,-110.52 -113.22,-160.231 -25.49,-28.191 -52.48,-55.359 -83.84,-77.062 -110.34,33.453 -218.71,83.172 -303.92,162.332 -62.43,57.578 -108.67,134.859 -119.82,219.839 -10.8,63.87 0.95,128.64 17.21,190.53 35.5,4.68 71.36,2.51 107.04,2.93 v 0" /><path
         id="path370"
         style="fill:#d32724;fill-opacity:1;fill-rule:nonzero;stroke:none"
         d="m 3229.99,1258.27 c 120,-9.53 240.55,-4.26 360.6,-9.48 25.85,-82.63 32.39,-174.02 2.64,-256.548 -29.02,-84.191 -91.75,-152.562 -163.66,-202.992 -70.63,-49.398 -150.46,-84.5 -232.37,-110.469 -14.05,-7.191 -25.37,6.239 -35.57,13.86 -69.21,63.808 -128.15,138.769 -174.51,220.629 104.76,95.83 180.68,218.46 242.87,345 v 0" /><path
         id="path372"
         style="fill:#3a59b1;fill-opacity:1;fill-rule:nonzero;stroke:none"
         d="m 1417.79,1177.61 c 8.04,2.93 16.01,6.01 24.05,8.88 11.93,-30.66 24.4,-61.06 34.71,-92.35 -8.45,-3 -16.84,-6.12 -25.24,-9.36 -3.72,6.59 -7.37,13.19 -11.03,19.67 -29.09,-3.06 -54.22,-18.96 -80.9,-29.45 32.8,-16.49 65.18,-38.2 102.97,-40.12 -0.25,9.72 -0.73,19.43 -1.27,29.04 7.92,3.12 15.9,6.23 23.88,9.35 12.77,-30.58 24.7,-61.53 35.13,-93.008 -8.51,-2.832 -17.02,-5.821 -25.48,-8.821 -3.78,6.707 -7.56,13.321 -11.46,19.801 -44.07,-8.941 -83.05,-33.18 -125.57,-47.082 0.24,-8.578 0.6,-17.09 1.08,-25.851 -8.51,-2.649 -16.98,-5.399 -25.43,-8.157 -10.91,30.59 -22.66,60.868 -34.72,91.038 8.34,2.99 16.61,5.87 25.01,8.56 6.83,-7.85 13.61,-21.16 26.45,-16.051 24.7,6.581 47.07,19.781 70.93,28.661 -33.34,14.32 -64.88,36.39 -101.89,39.64 -10.01,-7.27 -4.13,-19.26 -3.59,-29.45 -8.45,-2.99 -16.85,-6.06 -25.31,-9.18 -11.33,30.59 -23.26,60.93 -34.9,91.4 8.88,3.23 17.75,6.35 26.75,9.3 1.98,-4.27 5.99,-12.84 7.98,-17.1 24.88,-0.67 46.95,11.64 69.2,20.93 20.21,8.64 40.65,16.73 60.87,25.48 -0.72,8.16 -1.44,16.26 -2.22,24.23 v 0" /><path
         id="path374"
         style="fill:#3a59b1;fill-opacity:1;fill-rule:nonzero;stroke:none"
         d="m 1502.47,1180.85 c 13.18,3.47 34,6.65 41.02,-8.63 8.27,-22.01 -15.48,-51.64 -37.61,-32.99 4.5,-28.78 14.58,-56.55 31.43,-80.6 1.08,4.98 3.24,15 4.32,19.97 17.51,3.37 39.75,-0.6 45.33,-20.32 -0.18,-24.78 -33.64,-42.1 -53.8,-26.33 -30.22,20.32 -44.97,57.1 -50.55,91.93 -3.6,20.15 0,46.42 19.86,56.97 v 0" /><path
         id="path376"
         style="fill:#3a59b1;fill-opacity:1;fill-rule:nonzero;stroke:none"
         d="m 4006.84,1039.75 c 7.54,-3.07 15.04,-6.25 22.66,-9.48 -0.42,-8.63 -0.96,-17.33 -0.3,-26.09 18.35,-14.52 41.32,-21.168 62.37,-30.821 19.44,-7.797 37.84,-18.828 58.53,-23.218 5.27,5.109 10.19,10.449 14.75,16.031 7.67,-3.121 15.4,-6.422 23.16,-9.781 -12.42,-30.399 -26.75,-59.981 -40.91,-89.59 -7.68,3.59 -15.28,7.129 -22.9,10.609 0.05,8.942 2.32,18.039 -0.07,26.692 -12.41,9.41 -27.17,14.808 -41.26,20.859 -27.34,10.859 -53.3,25.059 -81.74,32.871 -3.3,-6.062 -6.59,-12.184 -9.82,-18.352 -8.41,3.879 -16.74,7.672 -25.07,11.45 13.01,29.812 27.16,59.12 40.6,88.82 v 0" /><path
         id="path378"
         style="fill:#3a59b1;fill-opacity:1;fill-rule:nonzero;stroke:none"
         d="m 1400.4,784.52 c -37.78,67.16 22.25,165.039 100.08,157.722 51.82,-3 91.52,-50.082 96.32,-100.031 6.71,-7.199 13.31,-14.582 19.43,-22.43 -18.71,-17.39 -37.12,-35.09 -56.08,-52.289 -5.94,6.77 -12.11,13.238 -17.21,20.5 9.48,23.637 27.95,49.719 14.28,75.559 -13.86,29.09 -53.5,31.551 -79.58,19.129 -27.59,-13.969 -52,-44.551 -45.28,-76.989 9.17,-31.671 43.6,-43.839 72.21,-51.519 -1.27,-8.762 -2.52,-17.563 -3.72,-26.391 -38.75,5.039 -80.43,20.879 -100.45,56.739 v 0" /><path
         id="path380"
         style="fill:#d32724;fill-opacity:1;fill-rule:nonzero;stroke:none"
         d="m 2583.11,886.641 c 114.3,-20.512 232.25,-20.391 346.55,0 57.7,-93.551 132,-175.411 210.92,-251.391 -53.61,-90.91 -124.08,-170.191 -191.06,-251.27 -127.62,-20.269 -258.65,-20.32 -386.2,0.129 -67.17,80.77 -137.03,160.352 -191.06,250.789 80.66,74.543 154.18,157.293 210.85,251.743 v 0" /><path
         id="path382"
         style="fill:#d32724;fill-opacity:1;fill-rule:nonzero;stroke:none"
         d="m 3588.08,870.992 c 43.4,-1.023 86.52,-8.094 129.7,-12.89 -168.27,-235.09 -427.39,-401.012 -709.2,-462.961 66.16,72.621 133.08,145.55 186.63,228.179 147.22,50.25 294.62,123.18 392.87,247.672 v 0" /><path
         id="path384"
         style="fill:#d32724;fill-opacity:1;fill-rule:nonzero;stroke:none"
         d="m 1795.23,858.281 c 43.54,5.149 87.08,10.61 130.8,13.489 47.97,-66.079 114.41,-116.219 184.46,-156.879 65.55,-37.661 135.23,-67.641 206.95,-91.512 53.68,-82.527 120.42,-155.449 186.57,-228.059 -281.8,61.469 -540.74,227.879 -708.78,462.961 v 0" /><path
         id="path386"
         style="fill:#3a59b1;fill-opacity:1;fill-rule:nonzero;stroke:none"
         d="m 3861.71,783.68 c 17.03,28.179 36.1,55.05 54.5,82.332 7.2,-4.672 14.46,-9.403 21.78,-14.282 -0.48,-9.101 -11.52,-23.261 -0.55,-30.039 9.37,-7.312 19.8,-13.132 29.93,-19.539 16.32,21.528 31.73,45.219 55.42,59.368 27.29,17.031 65.48,-0.36 77.42,-28.43 9.41,-21 1.02,-44.371 -8.04,-64.039 -17.21,-34.25 -42.04,-63.813 -64.1,-94.93 -6.9,3.828 -13.8,7.66 -20.58,11.379 1.08,11.039 9.24,25.859 -4.25,32.27 -29.81,20.199 -57.94,42.941 -88.4,61.949 -11.15,10.5 -22.07,-2.16 -31,-8.699 -7.43,4.261 -14.82,8.519 -22.13,12.66 v 0" /><path
         id="path388"
         style="fill:#ffffff;fill-opacity:1;fill-rule:nonzero;stroke:none"
         d="m 3994.36,786.141 c 12.05,14.691 25.97,27.82 42.99,36.64 15.6,-8.34 29.56,-25.199 20.16,-43.66 -5.16,-8.332 -12.54,-31.492 -25.2,-20.449 -13.24,8.398 -25.66,17.867 -37.95,27.469 v 0" /><path
         id="path390"
         style="fill:#3a59b1;fill-opacity:1;fill-rule:nonzero;stroke:none"
         d="m 1606.93,777.559 c 6.84,5.812 13.61,11.582 20.45,17.211 19.73,-24.29 40.72,-47.731 58.17,-73.77 -0.78,-8.93 -10.79,-13.359 -15.89,-20.09 -8.46,4.391 -15.47,13.68 -25.73,12.961 -16.97,-9.121 -30.22,-23.449 -44.56,-36.039 30.46,-5.941 60.75,-13.91 91.94,-14.691 -2.77,6.238 -5.58,12.41 -8.52,18.41 7.25,5.758 14.51,11.39 21.77,16.969 18.95,-23.559 37.72,-47.309 56.49,-71.051 -6.84,-5.457 -13.67,-10.989 -20.44,-16.567 -25.49,19.547 -58.3,21.59 -89,24.77 -9.11,-41.25 -34.84,-82.34 -20.99,-125.512 -6.3,-5.039 -12.53,-10.191 -18.77,-15.41 -22.37,25.48 -42.52,52.762 -63.93,78.98 7.26,5.989 14.57,11.872 21.95,17.622 4.02,-3.543 12.11,-10.551 16.13,-14.032 8.76,21.711 13.85,44.559 19.07,67.282 -12.05,2.527 -24.04,5.109 -35.98,7.918 -8.7,-6.059 -17.27,-12.29 -25.67,-18.77 3.12,-8.031 6.42,-16.25 9.71,-24.41 -7.13,-5.149 -14.2,-10.371 -21.28,-15.699 -19.97,25.789 -40.18,51.339 -60.75,76.578 6.9,5.402 13.91,10.613 20.93,15.761 9.23,-6.468 21.59,-16.128 32.2,-6.23 32.39,24.281 62.37,51.82 93.25,77.961 -3.47,6.719 -7.01,13.309 -10.55,19.848 v 0" /><path
         id="path392"
         style="fill:#3a59b1;fill-opacity:1;fill-rule:nonzero;stroke:none"
         d="m 3790.47,691.25 c 22.24,23.699 43.06,48.711 65.48,72.219 6.66,-6 13.38,-12.188 20.15,-18.348 -4.15,-6 -8.28,-12.059 -12.36,-18.23 13.39,-23.332 36.89,-37.422 56.38,-55 14.87,-12.289 28.6,-26.032 44.56,-37.059 6.78,3.898 13.48,7.977 20.09,12.168 6.4,-5.699 12.83,-11.449 19.36,-17.328 -21.65,-24.75 -43.52,-49.293 -65.91,-73.402 -6.35,6.121 -12.7,12.171 -18.94,18.109 3.42,9.18 6.11,18.422 8.87,27.652 -12.89,10.129 -24.95,21.41 -39.27,29.449 -17.09,-16.019 -31.44,-34.668 -47.44,-51.761 11.39,-11.278 21.83,-23.75 35.02,-33.039 10.19,-3.668 18.76,6.41 27.58,9.902 6.07,-6.184 12.24,-12.543 18.35,-18.891 -22.12,-23.632 -43.89,-47.632 -65.18,-71.961 -7.01,6.231 -13.98,12.399 -20.93,18.582 4.14,5.879 8.34,11.747 12.54,17.508 -13.09,23.262 -36.11,37.539 -55.54,54.809 -15.95,13.742 -31.6,27.953 -49.34,39.281 -3.67,-3.781 -10.92,-11.328 -14.52,-15.051 -7.02,6.481 -13.98,12.891 -20.88,19.371 21.47,24.352 43.96,47.79 65.14,72.442 6.41,-5.453 12.95,-10.981 19.48,-16.613 -2.27,-8.567 -8.76,-17.45 -6.29,-26.747 7.61,-11.273 18.83,-20.203 31.18,-26.082 16.49,15.77 30.77,33.711 46.84,49.832 -9.66,11.208 -18.84,23.399 -31.73,30.95 -9.35,-0.782 -16.49,-7.551 -24.46,-11.703 -6.11,6.433 -12.24,12.711 -18.23,18.941 v 0" /><path
         id="path394"
         style="fill:#3a59b1;fill-opacity:1;fill-rule:nonzero;stroke:none"
         d="m 1752.77,594.352 c 5.82,6.847 11.7,13.429 17.51,20.089 25.43,-20.332 49.54,-42.222 74.72,-62.781 -5.15,-6.66 -10.31,-13.379 -15.4,-20.211 -10.5,2.281 -23.69,13.551 -32.51,2.34 -17.45,-17.148 -30.46,-38.207 -46.71,-56.488 36.46,0.48 73.52,0.121 108.9,10.359 -2.94,10.32 -7.97,19.852 -13.13,29.031 5.93,6.36 11.87,12.649 17.93,18.84 24.16,-21.89 49.71,-42.172 73.76,-64.23 -6.12,-6.77 -12.18,-13.551 -18.23,-20.512 -6.36,4.133 -12.71,8.152 -19.07,12.121 -27.77,-21.422 -45.7,-52.121 -68.79,-78.031 -6.3,-8.699 -16.06,-16.07 -18.41,-26.981 3.18,-6 6.78,-11.878 10.8,-17.578 -5.28,-7.011 -10.86,-13.789 -16.61,-20.5 -23.99,21.469 -50.08,40.719 -72.74,63.672 4.19,7.27 9.53,13.68 14.69,20.156 8.69,-2.507 16.91,-8.937 26.44,-7.546 21.65,18.218 35.87,43.347 54.28,64.519 -37.49,-4.133 -78.68,2.461 -112.45,-17.57 4.74,-8.219 9.42,-16.309 13.5,-25.012 -4.8,-6.59 -9.78,-13.129 -14.94,-19.598 -25.25,19.961 -48.63,42.149 -74.12,61.829 4.26,7.492 8.88,14.8 13.8,21.812 8.09,-2.992 16.31,-5.812 24.7,-8.152 15.05,9.609 24.89,24.781 35.86,38.332 16.73,21.937 35.39,42.328 51.04,65.058 -4.92,5.75 -9.89,11.45 -14.82,17.032 v 0" /><path
         id="path396"
         style="fill:#3a59b1;fill-opacity:1;fill-rule:nonzero;stroke:none"
         d="m 3637.49,536.539 c 4.97,-5.93 10.13,-11.75 14.44,-18.41 -0.71,-9.879 -10.31,-18.828 -6.71,-28.899 6.97,-10.558 16.25,-19.378 24.95,-28.668 21.77,17.629 44.25,37.309 72.61,42.7 28.68,5.828 54.89,-18.051 62.13,-44.321 5.88,-26.812 -11.75,-51.089 -29.26,-69.441 -25.9,-25.91 -55.77,-47.379 -85.27,-69.031 -5.28,6.902 -10.37,13.621 -15.55,20.39 2.89,3.903 8.65,11.762 11.53,15.723 -1.92,12.578 -12.95,21.047 -19.91,30.938 -21.23,23.812 -37.36,52.23 -61.7,73.101 -9.01,1.629 -16.79,-4.551 -25.07,-7.012 -5.58,6.231 -11.15,12.59 -16.61,18.7 23.74,22.621 49.76,42.703 74.42,64.23 v 0" /><path
         id="path398"
         style="fill:#3a59b1;fill-opacity:1;fill-rule:nonzero;stroke:none"
         d="m 2018.86,502.012 c 7.31,5.078 19.12,11.136 26.98,3.777 15.18,-9.367 10.26,-29.34 10.02,-44.258 -5.4,-0.609 -16.31,-1.812 -21.77,-2.41 21.35,-21.18 47.2,-37.66 76.52,-45.281 -3.18,5.582 -6.24,11.101 -9.29,16.558 9.77,11.692 24.1,23.211 40.42,17.153 19.37,-7.379 15.16,-34.301 3.42,-46.903 -12.66,-14.746 -34.55,-12.769 -51.52,-8.457 -32.26,9.43 -63.39,28.309 -81.98,56.868 -10.61,16.121 -10.8,42.031 7.2,52.953 v 0" /><path
         id="path400"
         style="fill:#ffffff;fill-opacity:1;fill-rule:nonzero;stroke:none"
         d="m 3690.2,436.449 c 14.1,10.25 29.38,18.903 45.93,24.653 3.84,-1.922 11.63,-5.75 15.54,-7.68 2.28,-8.563 5.33,-16.973 6.05,-26.07 -5.63,-14.821 -19.61,-23.704 -30.89,-33.95 -12.16,14.45 -24.53,28.657 -36.63,43.047 v 0" /><path
         id="path402"
         style="fill:#3a59b1;fill-opacity:1;fill-rule:nonzero;stroke:none"
         d="m 1945.04,434.359 c 2.27,7.731 5.99,14.86 9.23,22 28.37,-17.027 56.79,-33.929 85.04,-51.207 -4.38,-7.441 -8.76,-15.05 -13.14,-22.613 -7.55,1.859 -15.11,4.02 -22.72,5.16 -22.31,-18.539 -29.93,-48.519 -45.4,-72.207 34.19,9.067 71.06,11.528 102.37,29.149 3.59,11.629 -7.86,17.64 -14.16,25.14 4.08,7.719 8.16,15.399 12.29,22.949 28.61,-15.531 56.02,-33.148 84.33,-49.351 -3.96,-7.731 -7.98,-15.469 -12,-23.27 -8.63,1.563 -17.33,5.52 -26.21,3.653 -19.67,-22.481 -30.4,-50.961 -46.23,-76.09 -6.66,-13.012 -17.81,-25.18 -17.81,-40.59 4.37,-4.75 8.99,-9.363 13.73,-13.91 -4.62,-7.34 -9.17,-14.703 -13.73,-22.25 -28.31,16.789 -56.67,33.457 -84.38,51.09 4.74,7.547 9.54,14.8 14.39,22.129 9.78,-0.899 22.68,-10.911 29.57,1.019 15.89,20.742 25.66,45.449 38.98,67.809 -36.52,-8.867 -75.92,-11.867 -107.94,-33.457 5.69,-7.793 11.81,-15.473 18.16,-22.961 -4.07,-7.68 -8.16,-15.41 -12.17,-23.27 -28.01,16.25 -55.59,33.219 -83.42,49.711 3.66,8.457 7.67,16.789 11.82,24.949 6.95,-2.882 13.97,-5.871 20.99,-9 20.56,19.25 30.82,45.938 44.91,69.571 7.74,14.328 17.52,27.59 23.15,42.879 0.72,8.629 -6.83,15.281 -9.65,22.968 v 0" /><path
         id="path404"
         style="fill:#3a59b1;fill-opacity:1;fill-rule:nonzero;stroke:none"
         d="m 3379.49,355.379 c 51.58,30.34 102.56,61.762 154.13,92.113 4.38,-7.371 8.75,-14.82 13.2,-22.371 -7.99,-8.101 -18.54,-18.422 -11.22,-30.699 19.07,-35.453 43.78,-67.66 63.79,-102.68 8.11,2.289 16.09,4.879 24.13,7.438 3.89,-7.918 7.91,-16.059 11.69,-24.219 -27.89,-16.441 -55.53,-33.402 -83.61,-49.59 -4.36,8.328 -8.75,16.609 -13.01,24.828 4.2,2.863 12.59,8.68 16.79,11.633 -6.47,27.219 -25.18,48.566 -39.45,71.898 -9.66,14.512 -17.34,30.461 -28.84,43.532 -14.94,6.898 -27.24,-7.203 -38.51,-14.512 12.42,-42.449 50.32,-71.781 61.34,-114.84 15.19,-53.258 -52.7,-101.41 -100.2,-79.328 -17.39,7.359 -38.01,21.52 -37.11,42.68 -1.57,15.789 22.78,25.738 31.59,11.886 11.51,-10.019 20.45,-29.578 38.68,-25.199 17.88,2.531 38.74,18.672 31.49,38.801 -10.32,34.539 -33.7,63.031 -53.07,92.73 -5.59,13.54 -19.68,4.668 -30.06,4.012 -3.95,7.367 -7.9,14.688 -11.75,21.887 v 0" /><path
         id="path406"
         style="fill:#3a59b1;fill-opacity:1;fill-rule:nonzero;stroke:none"
         d="m 3211.58,292.711 c 26.68,8.109 56.61,4.789 80.36,-10.07 48.88,-29.512 66.09,-102.012 31.97,-148.852 -30.11,-40.5898 -89.95,-60.7499 -136.98,-38.9804 -48.45,22.1324 -71.9,84.5034 -52.7,133.6714 12.4,33.11 44.07,55.469 77.35,64.231 v 0" /><path
         id="path408"
         style="fill:#3a59b1;fill-opacity:1;fill-rule:nonzero;stroke:none"
         d="m 2319.18,272.621 c 30.77,-9.18 61.41,-19.012 92.06,-28.719 -1.81,-8.043 -3.6,-16.132 -5.34,-24.351 -8.52,0.301 -17.09,0.531 -25.55,0.648 -1.02,-4.25 -1.98,-8.629 -2.88,-13.058 26.39,-8.93 55.66,-17.27 74,-39.891 21.11,-25.059 4.8,-69.5 -27.04,-76.2812 -29.21,-5.8165 -57.63,6.1835 -86,11.3402 2.16,-12.0004 10.74,-19.3168 21.36,-24.1684 -2.52,-8.4609 -5.04,-16.9101 -7.45,-25.5508 -31.36,10.0821 -62.96,19.3086 -93.97,30.2305 2.82,8.3985 5.64,16.7891 8.46,25.1207 7.55,-0.781 15.11,-1.55 22.73,-2.332 0.72,3.172 2.1,9.59 2.82,12.762 -24.84,9.07 -52.17,16.629 -70.71,36.649 -23.33,23.8 -10.19,71.55 22.85,78.621 28.66,5.757 57.21,-3.411 84.98,-9.602 0.06,3.43 0.11,10.262 0.18,13.672 -6.42,3.25 -12.84,6.359 -19.19,9.309 2.82,8.628 5.76,17.14 8.69,25.601 v 0" /><path
         id="path410"
         style="fill:#ffffff;fill-opacity:1;fill-rule:nonzero;stroke:none"
         d="m 3205.82,256.012 c 15.42,8.75 34.61,5.82 48.22,-4.981 24,-18.711 36.89,-50.082 36.17,-80.242 -0.31,-19.91 -12.36,-41.078 -32.51,-46.539 -16.25,-6.711 -34.72,0.492 -47.19,11.582 -25.26,23.09 -36.41,60.449 -27.72,93.609 3.73,11.45 12.42,21.039 23.03,26.571 v 0" /><path
         id="path412"
         style="fill:#3a59b1;fill-opacity:1;fill-rule:nonzero;stroke:none"
         d="m 3008.58,228.902 c 10.15,1.68 19.67,5.52 28.61,10.496 4.02,0.774 12.12,2.332 16.19,3.114 11.93,-21.883 24.41,-43.532 35.68,-65.903 -8.21,-3.48 -16.18,-7.609 -24.59,-10.609 -14.14,13.969 -26.98,30.031 -45.98,37.719 -14.15,-3.957 -28.31,-7.969 -42.11,-12.957 1.99,-14.821 4.8,-29.5 7.87,-44.262 28.65,1.992 58.93,9 86.64,-2.09 27.24,-10.988 37.84,-46.7186 27.41,-72.7498 -8.28,-21.2305 -30.58,-31.8399 -50.92,-38.5508 -37.54,-11.5196 -76.99,-15.1172 -115.97,-18.3008 -1.26,8.6406 -2.41,17.0898 -3.48,25.5508 7.26,2.4023 14.34,5.2226 21.28,8.3906 -6.29,40.3008 -9.71,81.148 -17.99,121.02 -1.19,14.57 -18.51,13.14 -28.78,16.132 -1.26,8.278 -2.46,16.43 -3.65,24.52 36.44,6.91 73.15,12.539 109.79,18.48 v 0" /><path
         id="path414"
         style="fill:#3a59b1;fill-opacity:1;fill-rule:nonzero;stroke:none"
         d="m 2488.72,223.32 c 29.8,-2.82 59.42,-7.32 89.23,-10.129 -0.84,-9.171 -1.68,-18.472 -2.46,-27.89 -4.86,-0.301 -14.57,-1.02 -19.37,-1.321 2.52,-21.519 10.02,-41.91 17.16,-62.238 12.05,17.817 25.66,35.137 31.83,56.067 -4.68,1.433 -13.97,4.261 -18.59,5.703 0.61,9.289 1.33,18.527 2.04,27.707 26.09,-2.578 52.06,-6.43 78.09,-9.43 -1.5,-8.34 -3.07,-16.73 -4.62,-25.18 -7.8,-2.828 -17.63,-3.41 -21.65,-12 -30.04,-46.05 -55.05,-95.8785 -91.4,-137.6168 -16.13,-20.21095 -52.47,-25.91017 -69.02,-3.3711 -9.3,9.8398 -5.58,24.2383 -5.58,36.2891 17.87,3.9492 34.97,-0.5391 47.5,-14.3985 6.78,9.0078 13.43,18.0586 19.97,27.168 -12.11,39.7113 -23.45,79.7693 -39.94,117.8903 -5.4,2.168 -10.74,4.27 -16.07,6.309 0.72,6.601 2.16,19.781 2.88,26.441 v 0" /><path
         id="path416"
         style="fill:#3a59b1;fill-opacity:1;fill-rule:nonzero;stroke:none"
         d="m 2697.95,206.531 c 50.61,-8.39 103.55,-7.672 153.57,3.848 11.47,-22.387 18.78,-46.66 27.53,-70.297 -8.51,-3.172 -17.03,-6.531 -25.48,-9.953 -13.08,19.133 -28.55,36.832 -49.18,47.973 -5.7,-28.172 -0.47,-56.891 -2.99,-85.3325 -1.51,-19.0078 0.66,-38.0703 2.94,-57.0273 8.21,-2.2813 16.55,-4.6211 24.88,-6.961 -0.29,-8.9921 -0.48,-18.039 -0.71,-27.15229 C 2796.18,1.37109 2763.86,0.960938 2731.53,0 c -0.12,8.80859 -0.3,17.5 -0.36,26.1484 9.36,4.25 25.79,5.9922 24.64,19.6719 1.46,42.6406 -5.09,85.0197 -5.68,127.6097 -24.41,-5.399 -36.89,-28.121 -49.85,-47.25 -8.27,2.879 -16.49,5.64 -24.7,8.269 6.3,24.403 14.09,48.34 22.37,72.082 v 0" /><path
         id="path418"
         style="fill:#ffffff;fill-opacity:1;fill-rule:nonzero;stroke:none"
         d="m 2267.25,197.719 c 17.33,2.39 34.96,1.562 52.3,-0.969 -5.04,-16.73 -10.26,-33.328 -15.36,-50.129 -19.67,4.918 -38.44,14.578 -45.58,34.899 2.16,4.019 6.48,12.121 8.64,16.199 v 0" /><path
         id="path420"
         style="fill:#ffffff;fill-opacity:1;fill-rule:nonzero;stroke:none"
         d="m 2351.87,131.262 c 4.92,16.558 10.07,32.929 15.53,49.25 19.43,-7.442 52.23,-18.532 39.76,-46.18 -15.41,-14.391 -37.24,-6.301 -55.29,-3.07 v 0" /><path
         id="path422"
         style="fill:#ffffff;fill-opacity:1;fill-rule:nonzero;stroke:none"
         d="m 2989.87,114.59 c 19.97,-0.84 48.88,7.57 60.03,-14.8088 6.31,-30.8203 -27.82,-39.8007 -51.02,-41.789 -2.71,18.957 -6,37.7773 -9.01,56.5978 v 0" /></g></g></svg>