<?xml version="1.0" encoding="UTF-8" standalone="no"?>
<svg
   xmlns:dc="http://purl.org/dc/elements/1.1/"
   xmlns:cc="http://creativecommons.org/ns#"
   xmlns:rdf="http://www.w3.org/1999/02/22-rdf-syntax-ns#"
   xmlns:svg="http://www.w3.org/2000/svg"
   xmlns="http://www.w3.org/2000/svg"
   viewBox="0 0 653.33331 440.89334"
   height="440.89334"
   width="653.33331"
   xml:space="preserve"
   id="svg2"
   version="1.1"><metadata
     id="metadata8"><rdf:RDF><cc:Work
         rdf:about=""><dc:format>image/svg+xml</dc:format><dc:type
           rdf:resource="http://purl.org/dc/dcmitype/StillImage" /></cc:Work></rdf:RDF></metadata><defs
     id="defs6" /><g
     transform="matrix(1.3333333,0,0,-1.3333333,0,440.89333)"
     id="g10"><g
       transform="scale(0.1)"
       id="g12"><path
         id="path14"
         style="fill:#c81e37;fill-opacity:1;fill-rule:nonzero;stroke:none"
         d="m 1119.17,2788.28 c 112.24,29.87 229.77,45.85 350.62,45.85 v 105.92 c -127.7,0 -251.94,-16.83 -370.78,-47.87 l -0.2,0.59 c -5.02,-1.3 -9.85,-3 -14.8,-4.5 C 517.07,2733.95 77.8125,2249.04 0,1649.73 h 391.25 c 22.242,99.73 61.957,191.82 108.27,273.34 h 116.742 v 105.99 l -176.68,0.06 C 388.77,1948.7 342.141,1856.62 309.988,1755.46 H 126.012 c 87.586,395.1 346.578,725.31 691.519,912.49 -31.109,-60.46 -48.648,-128.55 -48.648,-200.03 0,-98.75 32.867,-189.85 88.109,-263.1 V 1755.45 H 594.094 V 1649.46 H 962.98 v 454.98 c 69.46,-46.63 153,-73.96 242.81,-73.96 h 264.01 v 105.98 h -264.01 c -182.49,0 -330.931,148.7 -330.931,331.45 0,149.69 100.18,280.39 244.311,320.37 z M 2492.19,2520.36 H 1204.41 v -105.98 h 265.64 c 182.88,0 331.51,-148.18 331.51,-330.41 0,-182.68 -148.63,-331.38 -331.51,-331.38 h -106.31 v -105.98 h 106.31 c 85.3,0 165,24.65 232.44,67.05 v -351.01 h 105.92 v 444.4 c 61.89,75.46 99.2,171.92 99.2,276.92 0,132.01 -59.16,250.38 -152.23,330.41 h 736.8 v 105.98 z m -456.42,-489.87 h 413.68 v 105.98 h -413.68 z m -6.84,-222.33 v -445.51 h 105.98 v 339.53 h 175.51 v 105.99 h -281.49" /><path
         id="path16"
         style="fill:#c81e37;fill-opacity:1;fill-rule:nonzero;stroke:none"
         d="M 835.918,1258.28 C 595,1258.28 399.082,1062.5 399.082,821.887 399.082,580.715 595,384.602 835.918,384.602 H 1102.41 V 490.52 H 835.918 C 653.43,490.52 505,639.152 505,821.887 505,1004.05 653.438,1152.3 835.918,1152.3 h 126.98 v 105.98 z M 2134.91,1150.73 v 105.99 H 1363.75 V 789.609 c -72.46,53.211 -161.94,84.793 -258.73,84.793 H 855.82 V 768.406 h 249.2 c 182.81,0 331.51,-148.238 331.51,-330.332 0,-182.683 -148.7,-331.383 -331.51,-331.383 V 0.714844 c 241.25,0 437.5,196.230156 437.5,437.359156 0,88.828 -26.87,171.516 -72.72,240.531 v 472.125 h 665.11 z M 1714.63,769.59 h 380.56 v 105.984 h -380.56 z m 0,-260.879 V 0 h 105.99 V 402.727 H 1988.1 V 508.711 Z M 3241.04,1316.6 c -9.45,-13.83 -18.97,-27.72 -28.68,-41.69 -98.5,-141.71 -230.64,-303.926 -383.24,-463.308 -16.63,-17.352 -32.94,-35.95 -49.24,-54.852 81.26,153.789 136.04,322.37 159.33,498.86 H 2544.82 C 2516.59,1107.26 2454.89,966.57 2365.74,844.289 V 1256.53 H 2259.75 V 567.297 l 91.05,93.848 c 133.24,137.48 228.86,306.796 278.56,489.605 h 183.85 c -88.83,-399.742 -353.37,-743.902 -721.98,-930.68 -0.65,-0.336 -1.17,-0.586 -9.33,-4.711 V 97.7656 c 8.15,4.0434 8.74,4.3754 9.33,4.6484 51.98,24.063 102,51.055 150.33,80.547 3,1.687 6.2,3.711 9.79,5.937 0.26,0.118 0.52,0.391 0.78,0.504 22.5,14.028 44.48,28.711 66.13,43.91 425.49,287.879 766.46,671.7 983.26,984.168 14.28,20.62 28.16,41.09 41.87,61.55 l -102.35,37.57" /><path
         id="path18"
         style="fill:#c81e37;fill-opacity:1;fill-rule:nonzero;stroke:none"
         d="m 4899.12,760.539 v 0 c -0.26,2.723 -0.46,5.488 -0.71,8.211 -17.36,183.398 -178.57,320.73 -363.28,307.71 -78.97,-5.53 -151.89,-37.76 -208.83,-91.179 l 79.77,-70.957 c 38.09,32.934 85.43,52.824 136.5,56.477 129.2,9.113 241.7,-88.567 250.83,-217.762 4.43,-62.539 -15.78,-123.144 -56.81,-170.5 -41.22,-47.391 -98.28,-75.984 -160.9,-80.41 -46.37,-3.25 -91.56,7.18 -131.22,29.473 -0.32,0.207 -0.65,0.382 -0.99,0.593 -7.5,4.321 -14.73,9.203 -21.84,14.36 -24,18.007 -49.3,39.843 -75.53,64.492 -231.2,539.513 -469.72,950.453 -704.65,1214.203 94.65,192.72 154.33,349.38 186.15,441.47 l -96.13,47.08 c -27.98,-81.06 -82.25,-225.85 -168.47,-405.8 -104.61,103.11 -208.31,176.48 -310.12,218.1 l -40.18,-98.09 c 213.98,-87.46 549.08,-378.47 950.45,-1250.139 -39.85,54.524 -81.59,121.453 -123.08,169.719 -115.57,134.16 -246.53,286.25 -387.08,427.58 -109.38,109.96 -229.82,166.78 -346.31,221.62 -87.33,41.14 -169.71,80.02 -246.28,139.69 l -1.37,1.04 -1.37,0.98 c -68.03,46.24 -108.53,122.88 -108.26,205.05 0.2,69.79 35.54,133.12 72.98,200.16 l 48.92,87.92 c 60.32,108.39 85.19,153.39 94.37,178.12 16.04,40.63 23.88,84.72 22.76,129.79 -4.76,192.47 -145.11,326.56 -341.36,325.97 h -569.7 c 178.9,90.72 444.48,175.63 723.3,163.57 163.5,-7.11 241.95,-44.16 304.96,-73.89 42.78,-20.22 83.15,-39.2 134.41,-39.2 112.37,0 147.72,79.44 166.64,122.16 l 6.19,13.56 0.98,1.83 c 6.41,14.28 14.02,27.92 22.76,40.5 37.64,54.33 94.31,90.79 159.34,102.59 65.02,11.81 130.83,-2.41 185.16,-40.04 54.39,-37.7 90.85,-94.24 102.59,-159.33 11.88,-65.02 -2.41,-130.83 -40.04,-185.16 -41.94,-60.52 -100.51,-100.31 -160.7,-109.18 -47.94,-7.1 -93.59,5.42 -132.33,36.2 -29.87,23.67 -47.61,61.7 -46.23,99.2 0.84,23.02 8.93,44.67 23.21,64.43 l -88.38,58.18 c -24.85,-35.67 -39.13,-75.91 -40.76,-118.76 -2.54,-71.55 29.68,-141.14 86.22,-186.07 61.39,-48.72 137.29,-69.33 213.73,-58.05 18.91,2.81 37.7,7.63 56.02,14.16 113.1,-104.74 270.15,-306.6 329.63,-424.98 17.8,-33.52 23.35,-69.91 16.44,-106.24 -8.03,-42.13 -31.97,-78.59 -67.44,-102.72 -35.41,-24.13 -78.19,-33 -120.38,-24.98 -37.12,7.05 -68.96,26.61 -92.17,53.94 l -84.46,-64.76 c 38.73,-47.55 93.46,-81.26 156.86,-93.27 69.98,-13.31 140.88,1.37 199.77,41.42 58.9,40.11 98.61,100.63 111.98,170.62 11.22,59.41 1.84,121.5 -26.47,174.72 -65.42,130.12 -216.27,320.56 -327.16,430.45 29.69,23.48 56.76,52.18 79.72,85.38 53.8,77.61 74.15,171.53 57.32,264.4 -16.89,92.94 -68.94,173.68 -146.61,227.49 -77.62,53.8 -171.46,74.16 -264.4,57.26 -92.94,-16.83 -173.75,-68.87 -227.55,-146.55 -12.46,-18 -23.29,-37.3 -32.35,-57.52 -0.13,0.06 -7.24,-15.65 -7.24,-15.65 -18.79,-42.13 -27.98,-59.28 -69.85,-59.28 -27.46,0 -51.98,11.61 -89.15,29.09 -67.83,32.09 -160.77,75.92 -345.61,83.94 -386.88,16.83 -752.31,-141.46 -923.12,-262.38 v -113.03 h 765.09 c 137.42,0.39 231.92,-89.09 235.19,-222.66 0.06,-1.96 0.06,-3.92 0.06,-5.87 0,-28.76 -5.34,-56.81 -15.78,-83.35 -7.17,-19.11 -41.08,-80.09 -88.05,-164.42 l -48.86,-87.85 c -42.38,-75.85 -86.15,-154.31 -86.41,-251.55 v -0.98 c 0,-116.62 57.39,-225.27 153.66,-291.21 85.3,-66.2 176.35,-109.17 264.39,-150.64 113.22,-53.42 220.12,-103.77 316.39,-200.49 137.87,-138.68 261.91,-282.74 381.87,-422.056 146.81,-170.464 274.44,-323.414 397.44,-416.289 65.1,-48.14 144.26,-71.422 225.92,-65.679 90.86,6.464 173.82,47.871 233.5,116.621 59.61,68.75 88.96,156.621 82.5,247.402 M 2998.1,1633.69 c -0.39,0.21 -0.65,0.46 -0.98,0.71 -0.6,0.46 -1.18,0.79 -1.83,1.24 l 2.81,-1.95" /><path
         id="path20"
         style="fill:#c81e37;fill-opacity:1;fill-rule:nonzero;stroke:none"
         d="m 0,1482.38 h 97.3086 v -18.2 H 59.0938 V 1362.2 H 38.0195 v 101.98 H 0 Z m 121.051,0 h 29.609 l 33.195,-94.11 h 0.325 l 32.289,94.11 h 29.351 v -120.2 h -20.019 v 92.73 h -0.403 l -33.328,-92.73 h -17.34 l -33.269,92.73 h -0.316 v -92.73 h -20.094 v 120.2" /></g></g></svg>