<?xml version="1.0" encoding="UTF-8" standalone="no"?>
<svg
   xmlns:dc="http://purl.org/dc/elements/1.1/"
   xmlns:cc="http://creativecommons.org/ns#"
   xmlns:rdf="http://www.w3.org/1999/02/22-rdf-syntax-ns#"
   xmlns:svg="http://www.w3.org/2000/svg"
   xmlns="http://www.w3.org/2000/svg"
   viewBox="0 0 800 800.09332"
   height="800.09332"
   width="800"
   xml:space="preserve"
   id="svg2"
   version="1.1"><metadata
     id="metadata8"><rdf:RDF><cc:Work
         rdf:about=""><dc:format>image/svg+xml</dc:format><dc:type
           rdf:resource="http://purl.org/dc/dcmitype/StillImage" /></cc:Work></rdf:RDF></metadata><defs
     id="defs6"><clipPath
       id="clipPath20"
       clipPathUnits="userSpaceOnUse"><path
         id="path18"
         d="M 0,6000.7 V 0 h 6000 v 6000.7 z" /></clipPath></defs><g
     transform="matrix(1.3333333,0,0,-1.3333333,0,800.09333)"
     id="g10"><g
       transform="scale(0.1)"
       id="g12"><g
         id="g14"><g
           clip-path="url(#clipPath20)"
           id="g16"><path
             id="path22"
             style="fill:#2a5aaa;fill-opacity:1;fill-rule:nonzero;stroke:none"
             d="m 1474.21,5583.78 c 400.62,237.69 857.53,379.45 1322.38,409.84 192.89,12.68 387.51,9.18 579.11,-17.41 -5.85,-6.09 -11.57,-12.18 -17.36,-18.27 17.91,-54.57 46.89,-104.6 67.08,-158.19 7.92,-17.84 -5.37,-34.46 -11.33,-50.58 -8.79,-15.32 0.31,-32.36 4.86,-47.5 18.52,-47.81 29.79,-97.95 44.12,-147.11 18.27,-63.99 24.97,-130.44 38.45,-195.47 7.88,-35.33 5.36,-71.57 5.05,-107.38 -2.22,-20.18 15.51,-33.22 29.1,-44.73 -145.58,32.73 -293.8,56.06 -443.13,60.86 -67.87,1.59 -135.79,1.35 -203.66,-0.43 -425.96,-19.39 -845.46,-162.69 -1193.84,-408.68 -348.8,-244.39 -626.18,-589.26 -790.024,-982.43 -88.176,-209.38 -142.071,-432.42 -165.328,-658.23 -58.266,20.74 -112.661,50.57 -166.622,80.48 -146.441,81.65 -283.156,181.08 -404.183,297.24 -12.242,11.02 -25.039,23.75 -42.207,26.09 -20.86,2.77 -41.8987,0.37 -62.7619,-1.17 92.7849,450.15 294.9729,876.66 579.7229,1237.1 229.136,290.29 512.353,537.64 830.573,725.97 v 0" /><path
             id="path24"
             style="fill:#2a5aaa;fill-opacity:1;fill-rule:nonzero;stroke:none"
             d="m 3358.34,5957.94 c 5.79,6.09 11.51,12.18 17.36,18.27 510.81,-62.82 1003.78,-261.43 1415.77,-569.75 369.67,-275.65 675.64,-636.95 884.04,-1048.57 174.19,-341.12 280.57,-716.38 313.06,-1097.92 52.06,-589.44 -74.51,-1193.72 -362.46,-1711.05 C 5395.06,1130.71 5062.32,769.469 4665.02,504.16 4227.5,210.73 3711.09,36.6719 3185.14,5.83984 2777.64,-19.6992 2364.84,38.7617 1980.72,177.5 1574.76,324.012 1201.09,559.539 894.184,863.129 531.656,1218.95 261.977,1668.77 120.152,2156.7 -19.2109,2630.23 -36.5,3137.71 63.9141,3620.71 c 20.8632,1.54 41.9019,3.94 62.7619,1.17 17.168,-2.34 29.965,-15.07 42.207,-26.09 121.027,-116.16 257.742,-215.59 404.183,-297.24 53.961,-29.91 108.356,-59.74 166.622,-80.48 -8.063,-54.02 -6.524,-108.66 -10.032,-162.93 -6.457,-61.9 3.016,-123.67 3.016,-185.57 16.859,-288.94 88.539,-574.8 212.332,-836.54 189.876,-404 502.016,-749.24 884.846,-978.8 280.45,-169.511 598.37,-276.199 924.22,-311.031 114.32,-13.84 229.63,-13.097 344.56,-11.07 370.54,15.441 736.87,123.73 1055.84,313.061 273.18,161.51 511.91,380.98 695.76,639.7 254.24,355.34 401.1,785.91 417.6,1222.47 2.03,114.74 2.27,229.92 -11.82,344 -48.42,449.96 -236.83,883.18 -532.16,1225.96 -306.97,359.07 -728.32,619.96 -1188.18,729.66 -13.59,11.51 -31.32,24.55 -29.1,44.73 0.31,35.81 2.83,72.05 -5.05,107.38 -13.48,65.03 -20.18,131.48 -38.45,195.47 -14.33,49.16 -25.6,99.3 -44.12,147.11 -4.55,15.14 -13.65,32.18 -4.86,47.5 5.96,16.12 19.25,32.74 11.33,50.58 -20.19,53.59 -49.17,103.62 -67.08,158.19 v 0" /><path
             id="path26"
             style="fill:#feffff;fill-opacity:1;fill-rule:nonzero;stroke:none"
             d="m 3008.62,5809.47 c 111.85,-6.09 223.59,-12.74 335.39,-19.19 -0.25,-15.21 0,-30.46 -1.72,-45.6 -7.27,-7.56 -19.01,-2.52 -28.12,-3.63 -36.73,1.91 -73.4,6.95 -110.2,5.23 -5.42,-14.33 -3.26,-30.21 -4.43,-45.22 -5.17,-95.43 -10.89,-190.8 -15.63,-286.23 -17.97,0.12 -35.87,0.73 -53.71,1.6 1.29,111.42 12.24,222.48 16.54,333.79 -46.57,4.19 -93.33,5.73 -139.97,8.19 0.49,17.04 1.23,34.02 1.85,51.06 v 0" /><path
             id="path28"
             style="fill:#feffff;fill-opacity:1;fill-rule:nonzero;stroke:none"
             d="m 2663.81,5787.81 c 18.21,3.2 36.49,6.22 54.82,8.92 12.92,-69.71 21.91,-140.1 33.96,-209.93 7.02,-40.3 13.61,-85.16 -8,-122.38 -25.96,-48.55 -79.49,-75.62 -132.59,-81.9 -54.57,-9.04 -114.31,7.33 -151.97,49.05 -23.87,26.27 -29.29,63 -34.64,96.72 -10.03,72.35 -24.86,143.97 -33.41,216.45 18.02,3.2 36.17,5.85 54.45,7.94 11.5,-72.18 23.81,-144.22 34.21,-216.52 4.86,-30.02 10.89,-64.54 38.46,-82.45 52.05,-35.62 133.02,-22.45 170.55,28.49 18.95,24.49 13.85,57.28 10.09,85.77 -12.36,73.22 -23.99,146.57 -35.93,219.84 v 0" /><path
             id="path30"
             style="fill:#feffff;fill-opacity:1;fill-rule:nonzero;stroke:none"
             d="m 3531.98,5366.22 c 37.28,122.75 67.8,247.53 105.21,370.28 39.07,-10.89 78.26,-21.59 117.21,-33.11 31.02,-9.29 61.53,-27.56 76.61,-57.27 16.43,-32.25 9.04,-72 -9.97,-101.47 -12.18,-19.26 -35.31,-25.41 -55.5,-32.24 19.2,-15.07 39.75,-31.25 48.67,-54.88 20.49,-49.59 -6.83,-114.26 -58.82,-130.82 -35.32,-10.76 -73.9,-6.21 -108.6,4.81 -38.14,12.12 -77.77,19.25 -114.81,34.7 v 0" /><path
             id="path32"
             style="fill:#2a5aaa;fill-opacity:1;fill-rule:nonzero;stroke:none"
             d="m 3677.37,5669.68 c 28.3,-6.34 58.08,-11.45 82.94,-27.26 39.07,-25.84 11.44,-98.26 -34.33,-94.01 -27.07,-1.85 -53.16,6.39 -78.76,13.97 9.97,35.8 19.2,71.8 30.15,107.3 v 0" /><path
             id="path34"
             style="fill:#feffff;fill-opacity:1;fill-rule:nonzero;stroke:none"
             d="m 1889.41,5578.86 c 67.8,28.06 136.1,55.19 205.38,79.37 5.79,-14.94 11.57,-29.96 17.48,-44.91 -49.53,-22.77 -101.83,-38.89 -151.43,-61.59 11.51,-34.58 25.54,-68.24 38.83,-102.14 50.82,15.44 98.14,40.48 149.39,54.51 5.97,-14.83 11.88,-29.71 17.79,-44.6 -47.26,-21.66 -96.61,-38.34 -144.84,-57.59 12.79,-56.3 41.77,-107.31 58.32,-162.5 -16.86,-7.08 -33.96,-13.48 -51.5,-18.7 -47.8,118.8 -94.01,238.36 -139.42,358.15 v 0" /><path
             id="path36"
             style="fill:#2a5aaa;fill-opacity:1;fill-rule:nonzero;stroke:none"
             d="m 3631.84,5509.21 c 36.91,-7.01 75.74,-14.15 107.62,-35.01 33.52,-21.1 26.45,-75.86 -5.3,-95 -44.86,-11.57 -88.97,8.8 -131.66,20.25 9.04,36.79 19.93,73.09 29.34,109.76 v 0" /><path
             id="path38"
             style="fill:#feffff;fill-opacity:1;fill-rule:nonzero;stroke:none"
             d="m 4223.93,5455.38 c 17.11,13.59 32.85,29.22 51.81,40.42 13.96,1.48 25.78,-10.28 38.33,-15.32 -7.76,-140.16 -18.39,-280.14 -27.82,-420.24 -17.71,7.69 -34.88,16.55 -51.99,25.47 2.16,41.1 5.91,82.02 8.07,123.12 -36.98,20.61 -74.88,39.44 -112.17,59.43 -10.89,5.11 -21.47,12.06 -33.65,13.29 -32.43,-23.01 -61.48,-50.39 -93.28,-74.26 -15.75,7.2 -31.81,13.85 -46.46,23.07 -3.87,7.51 3.58,11.45 8.37,15.69 86.39,69.59 172.35,139.74 258.79,209.33 v 0" /><path
             id="path40"
             style="fill:#2a5aaa;fill-opacity:1;fill-rule:nonzero;stroke:none"
             d="m 4143.64,5319.64 c 35.44,32 73.27,61.16 110.26,91.37 -0.25,-47.68 -4.74,-95.12 -8.25,-142.62 -35.5,14.03 -68.36,33.59 -102.01,51.25 v 0" /><path
             id="path42"
             style="fill:#feffff;fill-opacity:1;fill-rule:nonzero;stroke:none"
             d="m 1130.39,5268.76 c 11.94,9.9 24.12,19.57 36.8,28.54 2.89,-41.53 2.77,-83.3 2.15,-124.96 -7.5,-5.54 -15.01,-11.13 -22.52,-16.67 -7.87,37.29 -13.85,75 -16.43,113.09 v 0" /><path
             id="path44"
             style="fill:#feffff;fill-opacity:1;fill-rule:nonzero;stroke:none"
             d="m 1695.04,4858.73 c 348.38,245.99 767.88,389.29 1193.84,408.68 67.87,1.78 135.79,2.02 203.66,0.43 149.33,-4.8 297.55,-28.13 443.13,-60.86 459.86,-109.7 881.21,-370.59 1188.18,-729.66 295.33,-342.78 483.74,-776 532.16,-1225.96 14.09,-114.08 13.85,-229.26 11.82,-344 -16.5,-436.56 -163.36,-867.13 -417.6,-1222.47 -183.85,-258.72 -422.58,-478.19 -695.76,-639.7 -318.97,-189.331 -685.3,-297.62 -1055.84,-313.061 -114.93,-2.027 -230.24,-2.77 -344.56,11.07 -325.85,34.832 -643.77,141.52 -924.22,311.031 -382.83,229.56 -694.97,574.8 -884.846,978.8 -123.793,261.74 -195.473,547.6 -212.332,836.54 0,61.9 -9.473,123.67 -3.016,185.57 3.508,54.27 1.969,108.91 10.032,162.93 23.257,225.81 77.152,448.85 165.328,658.23 163.844,393.17 441.224,738.04 790.024,982.43 v 0" /><path
             id="path46"
             style="fill:#feffff;fill-opacity:1;fill-rule:nonzero;stroke:none"
             d="m 1286.55,5220.76 c 9.97,20.49 32.8,31.69 50.46,45.35 6.76,-78.51 2.77,-157.57 7.81,-236.15 0.43,-14.39 11.63,-24.66 19.81,-35.31 34.28,-39.57 67.75,-79.86 101.16,-120.11 -12.99,-13.9 -27.07,-26.7 -42.03,-38.45 -41.66,43.5 -77.28,92.29 -117.03,137.39 -6.82,8.8 -17.41,12.62 -27.93,14.89 -71.92,15.63 -144.1,30.45 -215.53,48.3 14.88,15.33 29.71,32.06 49.53,40.86 60.05,-6.83 117.64,-28.61 177.94,-35.07 -2.41,59.37 -5.91,118.87 -4.19,178.3 v 0" /><path
             id="path48"
             style="fill:#feffff;fill-opacity:1;fill-rule:nonzero;stroke:none"
             d="m 4665.95,5216.34 c 7.63,9.53 15.88,18.58 24.37,27.44 13.72,-11.94 27.57,-23.82 41.53,-35.57 -69.03,-87.05 -139.61,-173.01 -209.81,-259.22 45.84,-40.05 94.88,-76.23 140.95,-116.04 -10.14,-13.6 -20.85,-26.7 -31.98,-39.56 -61.9,49.83 -123.8,99.61 -185.02,150.19 72.11,91.86 147.3,181.33 219.96,272.76 v 0" /><path
             id="path50"
             style="fill:#2a5aaa;fill-opacity:1;fill-rule:nonzero;stroke:none"
             d="m 2941.8,5149.33 c 103.86,33.47 214.8,33.41 322.83,30.89 34.77,-2.59 70.08,-4.74 103.69,-14.95 33.72,-10.28 69.27,-9.91 103.85,-15.14 115.61,-13.91 227.1,-50.64 334.6,-94.14 57.16,-24.55 118.25,-47.31 161.76,-93.89 -80.42,32.18 -158.94,70.27 -242.43,94.02 -52.35,2.82 -104.66,-6.46 -155.42,-18.59 15.19,-24.05 36.37,-43.44 53.59,-66.02 68.42,-88.1 120.73,-187.6 166.38,-289.06 57.9,-128.78 102.2,-263.16 142.56,-398.33 332.25,-131 650.48,-309 911.54,-555.12 62.89,66.27 125.71,143.12 136.05,237.19 35.62,-71 74.14,-140.59 107.06,-212.95 16.24,-36.24 39.56,-72.05 38.33,-113.39 1.17,-63.19 -32.67,-119.06 -64.23,-171.23 61.03,-93.22 109.21,-195.91 133.33,-305.06 23.74,-104.85 23.92,-216.1 -6.59,-319.58 -5.9,41.4 -7.26,83.55 -19.13,123.91 -37.35,140.6 -122.63,262.98 -220.15,368.74 -216.52,-205.07 -470.52,-365.16 -729.24,-511.24 -24.62,-14.7 -51.75,-25.41 -74.64,-42.82 -4.36,-19.57 0,-39.8 -0.55,-59.69 3.76,-422.95 -22.52,-850.02 -131.43,-1260.28 70.33,-47.14 141.71,-93.71 219.72,-127.31 25.16,-10.45 51.38,-18.95 78.51,-22.51 20.73,-2.84 40.36,6.08 59.62,12.42 -68.42,-49.84 -136.35,-100.41 -204.58,-150.56 -23.99,-17.84 -49.4,-38.27 -80.98,-38.14 -62.08,-5.24 -120.22,20.85 -176.39,43.37 -38.27,-71.31 -79.68,-143.24 -141.03,-197.499 -36.73,-32.441 -81.22,-57.16 -130.01,-65.16 -108.66,-18.902 -217.01,-39.93 -325.6,-59.262 -31.02,-5.347 -63.63,-1.957 -91.81,12.43 51.62,4.371 103.18,9.66 154.32,18.101 19.01,2.02 33.16,15.872 46.33,28.422 55.75,51.797 93.59,119.238 125.64,187.418 34.95,77.21 62.64,157.63 83.93,239.65 -269.62,185.82 -519.56,398.58 -760.44,619.9 35.26,91.06 58.58,187.11 60.36,285.06 0.25,53.53 1.97,107.31 -4.25,160.59 -4.61,39.45 -5.9,79.68 -17.84,117.83 -7.57,26.82 -20.79,51.99 -24.67,79.74 -2.34,19.38 11.69,35.13 20.73,50.88 285.13,104.85 564.89,224.4 838.33,356.75 -6.02,147.36 -23.01,294.1 -39.31,440.6 -26.27,208.65 -58.71,416.8 -105.59,621.87 -277.25,80.23 -561.5,136.78 -848.78,165.76 -48.92,4.68 -97.84,10.95 -147.06,10.34 -211.04,-273.06 -390.64,-569.64 -543.17,-879 44.54,-58.82 94.75,-113.03 141.2,-170.25 9.73,-16.73 18.41,-34.09 27.57,-51.13 -70.88,7.26 -141.15,22.34 -212.7,21.16 -101.34,-2.39 -203.48,-16.49 -298.24,-53.83 -47.99,-14.58 -90.99,-40.86 -137.45,-59.19 -1.36,15.32 -2.64,30.64 -2.28,46.02 19.94,55.44 41.97,110.2 65.35,164.28 -72.36,94.7 -145.7,188.71 -213.57,286.73 -92.84,133.64 -182.37,270.97 -247.59,420.54 -100.41,-68.23 -179.17,-169.26 -217.01,-285.06 -1.847,53.96 10.336,107.18 26.211,158.38 29.599,95.31 83.799,181.32 149.759,255.53 8.8,24.73 4.31,55 22.4,76.97 71.74,96.35 144.41,192.09 215.54,288.94 9.9,15.32 26.39,23.44 44.17,25.53 -14.21,-21.84 -33.53,-39.5 -50.7,-58.88 4.06,-43.62 17.84,-85.47 34.95,-125.52 40.79,18.64 79.93,40.85 121.27,58.39 280.88,122.26 588.59,170.19 893.03,180.09 8,-1.04 14.39,3.33 19.44,9.05 162.13,179.35 341.61,346.9 551.11,469.71 49.78,30.02 102.88,53.77 155.73,77.71 -19.75,13.97 -39.62,28.73 -62.57,36.98 -47.5,6.7 -95.68,0.49 -143.36,2.89 v 0" /><path
             id="path52"
             style="fill:#feffff;fill-opacity:1;fill-rule:nonzero;stroke:none"
             d="m 2852.46,4540.87 c 134.38,142.56 283.15,273.56 450.2,376.8 61.28,-101.52 106.69,-211.84 147.79,-322.83 20.12,-56.55 39.94,-113.34 56.12,-171.18 -155.61,39.38 -313,72.3 -472.11,94.08 -60.42,9.72 -121.64,13.66 -182,23.13 v 0" /><path
             id="path54"
             style="fill:#feffff;fill-opacity:1;fill-rule:nonzero;stroke:none"
             d="m 850.496,4805.69 c 10.152,19.57 26.707,34.83 41.227,51.13 15.875,-79.55 23.32,-160.59 39.625,-240.08 93.702,8.43 187.052,20.61 280.812,28.18 -15.56,-21.41 -28.48,-49.1 -53.22,-60.79 -83.73,-10.71 -168.217,-16.49 -252.022,-27.57 46.086,-41.41 97.652,-76.17 144.222,-116.9 -10.64,-14.89 -21.96,-29.23 -33.47,-43.38 -87.494,65.53 -171.658,135.36 -258.174,202.18 -15.379,11.76 -30.086,24.31 -44.301,37.42 10.957,14.45 22.399,28.54 34.028,42.45 45.347,-33.23 87.925,-70.14 133.273,-103.43 -7.203,57.53 -16.676,114.75 -25.598,172.03 -2.402,19.51 -9.226,39.07 -6.402,58.76 v 0" /><path
             id="path56"
             style="fill:#feffff;fill-opacity:1;fill-rule:nonzero;stroke:none"
             d="m 5008.24,4823.6 c 40.3,4.86 82.62,1.84 119.61,-16.19 65.28,-29.71 112.65,-95 120.96,-166.25 4.25,-38.08 -1.66,-77.58 -18.27,-112.22 -32.74,-67.44 -106.08,-113.46 -181.51,-110.32 -94.08,1.29 -179.6,74.26 -198.56,165.88 -6.88,42.15 -5.96,87.49 12.49,126.75 26.03,58.2 81.9,102.81 145.28,112.35 v 0" /><path
             id="path58"
             style="fill:#2a5aaa;fill-opacity:1;fill-rule:nonzero;stroke:none"
             d="m 5002.57,4761.64 c 77.9,28.18 171.85,-25.41 187.67,-106.69 20.43,-82.02 -43.99,-172.28 -128.97,-176.96 -80.04,-9.97 -158.86,59.13 -158.32,139.92 -4.85,63.43 40.32,123.85 99.62,143.73 v 0" /><path
             id="path60"
             style="fill:#feffff;fill-opacity:1;fill-rule:nonzero;stroke:none"
             d="m 5212.57,4073.13 c 83.86,94.14 164.96,190.8 249.56,284.26 9.23,-17.1 17.54,-34.57 25.04,-52.54 -63.43,-75.19 -131.41,-146.68 -192.33,-223.84 49.34,-2.77 98.5,4.3 147.85,3.57 49.78,0.12 99.49,1.91 149.27,1.78 7.32,-16.92 15.32,-33.65 23.07,-50.51 -96.41,-3.82 -192.83,-5.85 -289.3,-6.65 -47.2,0.92 -94.4,-8.3 -141.46,-1.54 2.03,18.89 16.61,31.88 28.3,45.47 v 0" /><path
             id="path62"
             style="fill:#feffff;fill-opacity:1;fill-rule:nonzero;stroke:none"
             d="m 483.355,4249.29 c 7.938,43.38 38.333,79 74.266,102.81 19.258,-7.93 38.149,-16.85 56.484,-26.76 -23.933,-18.15 -53.902,-30.7 -69.339,-57.96 -12.067,-19.38 -18.707,-45.9 -4.246,-65.96 9.66,-15.32 30.148,-18.03 46.203,-12.86 52.117,14.77 92.355,56.17 145.461,68.54 37.097,7.88 76.171,-6.15 103.613,-31.38 31.746,-31.81 35.008,-83.8 15.625,-122.87 -15.934,-34.58 -43.008,-66.94 -79.559,-80.05 -24.914,1.72 -45.711,19.38 -67.183,30.95 29.535,10.22 61.648,20.43 81.707,46.09 14.457,18.21 25.66,42.39 20.058,66.02 -7.566,27.62 -41.597,41.84 -67.312,30.45 -39.813,-15.75 -74.508,-41.96 -114.074,-58.51 -31.071,-15.26 -70.579,-14.46 -99.305,5.72 -34.824,21.54 -50.766,66.39 -42.399,105.77 v 0" /><path
             id="path64"
             style="fill:#feffff;fill-opacity:1;fill-rule:nonzero;stroke:none"
             d="m 2112.21,4255.38 c 27.68,2.71 55.5,3.07 83.24,3.14 -93.58,-131.55 -182.68,-266.42 -263.4,-406.28 -36.92,-60.66 -67.49,-124.96 -105.15,-185.08 -98.69,127.86 -193.51,258.86 -280.82,394.78 -16.3,25.9 -32.98,51.62 -47.13,78.81 197.51,67.81 405.53,99.74 613.26,114.63 v 0" /><path
             id="path66"
             style="fill:#feffff;fill-opacity:1;fill-rule:nonzero;stroke:none"
             d="m 2602.71,4253.29 c 49.22,0.61 98.14,-5.66 147.06,-10.34 287.28,-28.98 571.53,-85.53 848.78,-165.76 46.88,-205.07 79.32,-413.22 105.59,-621.87 16.3,-146.5 33.29,-293.24 39.31,-440.6 -273.44,-132.35 -553.2,-251.9 -838.33,-356.75 -52.29,-17.47 -103.12,-39.13 -156.16,-54.14 -147.48,151.3 -289.3,308.01 -429.4,466.14 -39.94,44.42 -77.41,91 -118.82,134.07 -46.45,57.22 -96.66,111.43 -141.2,170.25 152.53,309.36 332.13,605.94 543.17,879 v 0" /><path
             id="path68"
             style="fill:#e31e29;fill-opacity:1;fill-rule:nonzero;stroke:none"
             d="m 2632.25,4167.52 c 8.12,15.68 27.44,8.55 41.34,8.24 290.67,-25.47 578.87,-78.81 859.8,-157.7 28.31,-118.38 47.02,-238.85 66.46,-358.95 30.89,-197.7 50.39,-396.98 67.92,-596.28 -19.68,-11.93 -40.67,-21.47 -61.9,-30.33 -39.86,47.99 -97.95,86.82 -162.8,82.76 -78.08,3.75 -143.24,-47.32 -197.32,-97.53 -25.04,84.6 -63.01,167.73 -125.76,231.23 -32.92,33.96 -72.06,62.08 -115.38,81.09 11.64,51.93 20.86,104.41 33.17,156.28 95.43,-11.38 188.95,-34.88 284.08,-48.55 10.27,51.45 19.93,103.01 26.83,155 -92.24,19.38 -185.64,32.67 -278.05,51.19 8.06,37.35 16.11,74.76 24.74,111.98 67.49,-7.75 133.57,-24.61 200.7,-34.58 6.89,0.37 20.86,-4.3 21.84,6.46 10.28,48.24 19.32,96.97 24.56,146.07 -70.71,14.09 -142.02,24.92 -212.71,38.89 7.31,39.75 18.52,78.7 24.3,118.75 -52.54,11.01 -105.52,20.74 -158.93,26.52 -8.86,-38.76 -16.18,-77.9 -26.21,-116.35 -68.42,6.52 -135.49,22.39 -203.72,30.21 -13.72,-50.95 -25.9,-102.39 -36.79,-154.07 67.31,-12.12 135.54,-19.56 202.55,-33.35 l 2.21,-4.98 c -4.18,-36.55 -14.58,-72.12 -22.09,-108.11 -91.06,11.26 -180.77,32 -272.01,41.59 -12.93,-49.96 -25.66,-100.04 -37.6,-150.25 91.31,-17.78 183.54,-30.39 275.1,-46.63 -7.32,-53.41 -21.41,-105.59 -31.26,-158.56 -89.65,-9.05 -173.82,-50.21 -240.15,-110.39 -34.88,-29.53 -62.26,-66.26 -92.1,-100.54 -26.03,55.87 -59.44,112.17 -113.9,144.53 -53.1,33.72 -122.69,36 -179.29,9.42 -24.24,26.15 -46.39,54.21 -69.53,81.34 15.82,39.69 37.54,76.6 57.1,114.5 123.92,234.25 265.13,459.5 424.8,671.1 v 0" /><path
             id="path70"
             style="fill:#feffff;fill-opacity:1;fill-rule:nonzero;stroke:none"
             d="m 2995.14,4058.06 c 53.41,-5.78 106.39,-15.51 158.93,-26.52 -5.78,-40.05 -16.99,-79 -24.3,-118.75 70.69,-13.97 142,-24.8 212.71,-38.89 -5.24,-49.1 -14.28,-97.83 -24.56,-146.07 -0.98,-10.76 -14.95,-6.09 -21.84,-6.46 -67.13,9.97 -133.21,26.83 -200.7,34.58 -8.63,-37.22 -16.68,-74.63 -24.74,-111.98 92.41,-18.52 185.81,-31.81 278.05,-51.19 -6.9,-51.99 -16.56,-103.55 -26.83,-155 -95.13,13.67 -188.65,37.17 -284.08,48.55 -12.31,-51.87 -21.53,-104.35 -33.17,-156.28 -50.2,20.86 -105.15,29.35 -159.29,27.51 9.85,52.97 23.94,105.15 31.26,158.56 -91.56,16.24 -183.79,28.85 -275.1,46.63 11.94,50.21 24.67,100.29 37.6,150.25 91.24,-9.59 180.95,-30.33 272.01,-41.59 7.51,35.99 17.91,71.56 22.09,108.11 l -2.21,4.98 c -67.01,13.79 -135.24,21.23 -202.55,33.35 10.89,51.68 23.07,103.12 36.79,154.07 68.23,-7.82 135.3,-23.69 203.72,-30.21 10.03,38.45 17.35,77.59 26.21,116.35 v 0" /><path
             id="path72"
             style="fill:#feffff;fill-opacity:1;fill-rule:nonzero;stroke:none"
             d="m 4020.45,3927.93 c 229.2,-93.71 451.68,-207.36 652.88,-352.44 -136.77,-111.92 -287.14,-206.12 -438.63,-296.63 -38.4,-21.23 -74.76,-46.52 -115.43,-63.44 -9.23,133.82 -27.19,266.91 -45.47,399.82 -14.76,104.72 -35.44,208.46 -53.35,312.69 v 0" /><path
             id="path74"
             style="fill:#feffff;fill-opacity:1;fill-rule:nonzero;stroke:none"
             d="m 319.387,3842.4 c 3.812,17.72 8.855,35.19 14.949,52.3 123.551,-31.93 246.543,-66.21 370.277,-97.65 -3.383,-15.75 -5.722,-32.05 -12.246,-46.94 -21.101,-15.08 -46.449,-22.71 -69.34,-34.64 -93.398,-45.35 -188.648,-86.88 -281.125,-134.14 94.754,-26.39 190.496,-49.22 284.875,-76.9 -3.75,-16.5 -7.441,-32.98 -11.132,-49.48 -34.825,2.71 -67.684,15.26 -101.282,23.63 -90.562,23.26 -180.457,48.73 -271.086,71.68 3.2,15.69 4.243,32.49 12.364,46.52 13.597,9.66 29.472,15.44 44.421,22.7 72.301,34.15 144.532,68.54 216.649,103.06 28.363,13.97 58.262,25.1 84.719,42.64 -93.332,28.18 -188.582,49.47 -282.043,77.22 v 0" /><path
             id="path76"
             style="fill:#feffff;fill-opacity:1;fill-rule:nonzero;stroke:none"
             d="m 5540.58,3646.18 c 50.09,59.38 95.19,123.12 147.98,180.16 5.22,-20.98 10.21,-42.02 14.95,-63.13 -37.28,-47.87 -78.82,-92.66 -113.03,-142.8 55.07,-24.8 109.52,-51.01 164.9,-75.38 6.28,-21.6 11.63,-43.5 16.67,-65.53 -76.42,30.58 -149.02,70.15 -225,101.53 -62.58,-9.72 -123.5,-29.05 -185.39,-42.4 -5.48,18.34 -9.48,37.1 -12.8,56 53.71,13.16 107.62,25.53 161.46,38.26 10.45,3.14 22.58,4.56 30.26,13.29 v 0" /><path
             id="path78"
             style="fill:#feffff;fill-opacity:1;fill-rule:nonzero;stroke:none"
             d="m 5756.55,3699.22 c 34.76,-12 70.82,-20.55 104.96,-34.39 8.92,-13.41 8.87,-30.58 11.58,-46.02 -38.28,14.45 -74.45,33.65 -111.07,51.74 -1.84,9.6 -3.63,19.13 -5.47,28.67 v 0" /><path
             id="path80"
             style="fill:#2a5aaa;fill-opacity:1;fill-rule:nonzero;stroke:none"
             d="m 2605.17,3247.17 c 66.33,60.18 150.5,101.34 240.15,110.39 54.14,1.84 109.09,-6.65 159.29,-27.51 43.32,-19.01 82.46,-47.13 115.38,-81.09 62.75,-63.5 100.72,-146.63 125.76,-231.23 54.08,50.21 119.24,101.28 197.32,97.53 64.85,4.06 122.94,-34.77 162.8,-82.76 -272.45,-127.43 -551.04,-241.81 -834.26,-343.08 -190.25,197.81 -373.85,402.09 -551.73,611.16 56.6,26.58 126.19,24.3 179.29,-9.42 54.46,-32.36 87.87,-88.66 113.9,-144.53 29.84,34.28 57.22,71.01 92.1,100.54 v 0" /><path
             id="path82"
             style="fill:#feffff;fill-opacity:1;fill-rule:nonzero;stroke:none"
             d="m 190.543,2997.05 c 0.734,77.78 6.152,155.37 8.613,233.08 16.739,-0.49 33.41,-1.11 50.145,-2.15 -0.86,-58.82 -4.922,-117.59 -5.043,-176.47 37.777,-0.37 75.433,-4.43 113.215,-3.75 -0.926,57.1 6.086,113.82 6.707,170.86 16.855,-0.73 33.773,-1.23 50.632,-1.66 -1.535,-57.29 -3.074,-114.57 -3.624,-171.85 38.886,-0.74 77.89,-7.32 116.718,-1.97 2.332,59.81 0.672,119.92 6.153,179.54 17.168,0.25 34.332,0 51.375,-1.54 -0.43,-79.31 -8,-158.31 -8.43,-237.68 -128.899,0.07 -257.617,9.78 -386.461,13.59 v 0" /><path
             id="path84"
             style="fill:#2a5aaa;fill-opacity:1;fill-rule:nonzero;stroke:none"
             d="m 2200.74,3204.04 c 41.41,-43.07 78.88,-89.65 118.82,-134.07 140.1,-158.13 281.92,-314.84 429.4,-466.14 53.04,15.01 103.87,36.67 156.16,54.14 -9.04,-15.75 -23.07,-31.5 -20.73,-50.88 3.88,-27.75 17.1,-52.92 24.67,-79.74 11.94,-38.15 13.23,-78.38 17.84,-117.83 6.22,-53.28 4.5,-107.06 4.25,-160.59 -1.78,-97.95 -25.1,-194 -60.36,-285.06 -71.86,60.3 -136.83,128.29 -206.12,191.41 -6.95,7.76 -17.72,1.85 -25.96,0.43 -327.27,-99.61 -661.19,-183.59 -1002.18,-218.11 -9.05,-90.39 -5.35,-181.7 2.22,-272.08 14.2,-134.69 47.74,-272.88 130.49,-382.9 22.34,-31.87 58.65,-48.42 90.33,-69.16 35.56,-23.19 74.94,-40.48 108.9,-66.08 -43.13,6.22 -80.97,29.23 -118.5,49.91 -87.12,47.99 -171.85,100.84 -250.6,161.75 -45.35,36.36 -90.63,74.7 -122.08,124.29 -87.06,131.43 -116.35,291.03 -126.62,445.77 -84.12,7.94 -171.61,17.85 -246.12,60.79 -30.7,17.67 -57.77,43.57 -71.25,76.86 -37.655,86.93 -70.327,176.15 -96.722,267.16 79.802,-48.49 175.052,-59.33 266.482,-63.32 53.96,-0.19 108.22,-2.52 161.88,4.49 28.98,265.93 101.4,525.33 190.49,776.92 6.52,18.7 13.66,37.23 22.21,55.07 -0.36,-15.38 0.92,-30.7 2.28,-46.02 46.46,18.33 89.46,44.61 137.45,59.19 94.76,37.34 196.9,51.44 298.24,53.83 71.55,1.18 141.82,-13.9 212.7,-21.16 -9.16,17.04 -17.84,34.4 -27.57,51.13 v 0" /><path
             id="path86"
             style="fill:#feffff;fill-opacity:1;fill-rule:nonzero;stroke:none"
             d="m 1887.26,2974.66 c 77.28,-86.33 152.71,-174.31 231.96,-258.92 73.28,-81.88 150.81,-159.78 225.07,-240.76 -22.58,-9.83 -46.27,-16.85 -70.08,-23.18 -156.47,-44.74 -314.35,-84.85 -473.96,-116.6 -36.79,-6.84 -73.28,-15.57 -110.62,-19.2 3.69,36.67 13.78,72.11 22.33,107.79 45.29,187.48 104.66,371.46 175.3,550.87 v 0" /><path
             id="path88"
             style="fill:#feffff;fill-opacity:1;fill-rule:nonzero;stroke:none"
             d="m 5426.69,2917.26 c 104.42,-91.81 202.68,-190.56 306.91,-282.54 9.23,76.47 16.11,153.2 24.85,229.74 15.7,-1.1 31.39,-2.46 47.2,-3.87 -2.83,-77.1 -15.63,-153.45 -22.09,-230.31 -4.74,-33.4 -5.04,-67.37 -11.63,-100.6 -20.92,13.17 -37.96,31.26 -55.81,48 -84.17,77.16 -166.87,155.92 -251.34,232.7 -11.57,-81.09 -17.05,-162.93 -26.95,-244.27 -16.24,1.05 -32.37,3.38 -48.3,6.09 13.29,114.94 23.26,230.24 37.16,345.06 v 0" /><path
             id="path90"
             style="fill:#feffff;fill-opacity:1;fill-rule:nonzero;stroke:none"
             d="m 200.203,2723.01 c 137.152,-34.45 273.613,-71.68 410.332,-107.86 0.86,-3.81 2.524,-11.45 3.328,-15.27 -94.57,-61.76 -189.883,-122.37 -284.57,-183.9 -23.879,-15.07 -46.949,-31.56 -72.059,-44.48 -3.683,18.82 -6.582,37.78 -9.593,56.67 81.832,54.57 165.945,105.7 247.343,161.01 -94.504,27.27 -190.058,51.01 -285.121,76.24 -4.121,19.02 -7.261,38.27 -9.66,57.59 v 0" /><path
             id="path92"
             style="fill:#feffff;fill-opacity:1;fill-rule:nonzero;stroke:none"
             d="m 3427.32,2443.18 c 111.67,46.33 221.69,96.35 331.83,146.19 1.28,-80.67 0.54,-161.33 -0.99,-242 -4.37,-42.88 -3.32,-85.95 -4.81,-128.96 -9.34,-172.89 -22.63,-345.97 -49.33,-517.15 -186.87,153.52 -364.5,317.92 -539,485.28 -37.1,36.43 -76.6,70.57 -110.82,109.71 124.91,47.62 249.99,94.75 373.12,146.93 v 0" /><path
             id="path94"
             style="fill:#feffff;fill-opacity:1;fill-rule:nonzero;stroke:none"
             d="m 5586.91,2281.06 c 44.92,3.43 89.59,9.77 134.76,10.27 -4.87,-17.72 -10.35,-35.26 -16,-52.79 -98.2,-11.08 -196.9,-17.85 -294.91,-30.1 71.92,-67.79 146.92,-132.34 219.04,-199.96 -5.6,-18.34 -11.45,-36.67 -18.46,-54.51 -101.65,92.16 -203.97,183.59 -305,276.44 -10.27,5.6 -13.1,21.72 1.36,22.89 92.91,10.52 186.25,17.72 279.21,27.76 v 0" /><path
             id="path96"
             style="fill:#feffff;fill-opacity:1;fill-rule:nonzero;stroke:none"
             d="m 530.859,2200.2 c 61.157,16.92 128.473,-0.86 176.957,-40.74 74.817,-60.84 98.446,-175.72 51.809,-260.5 -32.063,-62.7 -101.219,-103.99 -171.484,-103.5 -99.801,-2.09 -190.067,79.81 -203.164,177.76 -18.09,98.27 47.312,204.46 145.882,226.98 v 0" /><path
             id="path98"
             style="fill:#2a5aaa;fill-opacity:1;fill-rule:nonzero;stroke:none"
             d="m 541.688,2140.52 c 83.25,28.8 180.281,-38.03 185.753,-125.27 5.911,-47.02 -13.843,-95.75 -50.39,-125.78 -40.797,-34.75 -101.77,-45.58 -150.934,-22.69 -50.019,20.67 -85.89,70.63 -88.847,124.77 -3.813,65.53 40.488,131.31 104.418,148.97 v 0" /><path
             id="path100"
             style="fill:#feffff;fill-opacity:1;fill-rule:nonzero;stroke:none"
             d="m 5187.35,1942.46 c 82.57,-106.02 159.54,-216.39 240.39,-323.71 17.04,-15.68 -2.95,-33.41 -9.9,-48.79 -139.61,15.44 -279.22,31.02 -418.65,47.93 9.98,16.56 16.19,36.67 31.07,49.29 39.75,-3.02 79.19,-9.54 118.93,-13.66 28.49,46.21 54.96,93.64 82.52,140.41 -23.44,33.59 -48.48,65.95 -72.36,99.18 8.74,16.74 18.09,33.29 28,49.35 v 0" /><path
             id="path102"
             style="fill:#2a5aaa;fill-opacity:1;fill-rule:nonzero;stroke:none"
             d="m 5207.65,1648.11 c 16.8,34.45 37.35,66.81 57.03,99.67 30.34,-37.35 59.19,-75.93 86.39,-115.61 -47.86,4.92 -95.73,9.47 -143.42,15.94 v 0" /><path
             id="path104"
             style="fill:#feffff;fill-opacity:1;fill-rule:nonzero;stroke:none"
             d="m 896.461,1694.25 c 12.367,11.13 26.891,19.44 41.16,27.69 45.531,-64.73 91.069,-129.4 136.349,-194.31 -91.493,-66.09 -184.829,-129.58 -276.751,-195.05 -13.047,-9.36 -26.52,-18.02 -40.367,-26.14 -10.032,14.95 -20.18,29.77 -30.332,44.55 89.769,65.64 181.878,128.09 272.628,192.39 -32.425,51.5 -72.105,98.45 -102.687,150.87 v 0" /><path
             id="path106"
             style="fill:#feffff;fill-opacity:1;fill-rule:nonzero;stroke:none"
             d="m 5517.51,1619.68 c 21.97,3.13 41.1,-25.35 26.7,-43.45 -11.87,-20.97 -49.77,-14.58 -51,10.34 -3.52,15.76 7.56,32.74 24.3,33.11 v 0" /><path
             id="path108"
             style="fill:#feffff;fill-opacity:1;fill-rule:nonzero;stroke:none"
             d="m 5452.53,1525.67 c 18.89,11.5 46.64,-4.44 43.26,-27.2 0.31,-26.83 -42.21,-32.92 -53.53,-10.83 -6.65,12.92 -2.59,30.63 10.27,38.03 v 0" /><path
             id="path110"
             style="fill:#feffff;fill-opacity:1;fill-rule:nonzero;stroke:none"
             d="m 4668.35,1234.14 c 77.22,87.25 156.65,172.52 236.09,257.68 26.94,-136.47 49.96,-273.74 77.28,-410.15 54.63,55.2 104.41,115.06 158.86,170.43 11.82,-11.32 23.57,-22.82 35.14,-34.38 -36.74,-41.18 -74.7,-81.1 -111.61,-122.14 -39.02,-39.93 -73.6,-84.17 -114.94,-121.83 -28.68,135.85 -50.51,273.06 -78.27,409.16 -56.67,-59.12 -110.5,-120.9 -166.73,-180.33 -12.07,10.39 -24.01,20.91 -35.82,31.56 v 0" /><path
             id="path112"
             style="fill:#feffff;fill-opacity:1;fill-rule:nonzero;stroke:none"
             d="m 1172.23,1296.16 c 39.32,27.01 94.76,17.36 128.97,-13.73 30.45,-27.13 56.23,-65.77 54.39,-108.03 -12.86,-19.26 -31.26,-34.03 -48.36,-49.42 -2.16,31.63 -1.66,66.33 -21.29,93.1 -12.99,16.92 -29.78,33.96 -51.87,37.1 -28.73,4.5 -55.38,-24.11 -52.8,-52.24 1.86,-56.84 28.8,-111.67 19.82,-169.27 -7.44,-32.16 -33.54,-58.44 -64.05,-70.01 -39.38,-12.918 -83.93,0.551 -112.47,29.84 -23.88,21.6 -37.418,51.5 -47.261,81.52 13.843,16.01 28.731,30.96 44.611,44.85 7.01,-31.86 13.9,-66.87 39.25,-89.88 15.14,-14.59 39.38,-26.95 59.81,-15.69 17.84,7.87 23.57,29.22 22.7,47.13 -3.44,50.02 -25.22,97.53 -23.07,148.09 1.54,35.26 23.87,66.46 51.62,86.64 v 0" /><path
             id="path114"
             style="fill:#feffff;fill-opacity:1;fill-rule:nonzero;stroke:none"
             d="m 3319.64,615.832 c 136.54,29.469 272.51,61.48 409.35,89.527 C 3677.5,569.07 3622.3,434.141 3568.77,298.602 c 80.24,13.527 158.44,38.148 239.11,48.968 6.27,-27.808 13.47,-55.429 17.22,-83.8 -94.38,-21.899 -189.26,-41.719 -283.77,-63.188 -48.54,-10.09 -96.54,-23.203 -145.57,-30.582 53.65,136.781 109.09,272.879 161.32,410.152 -73.96,-13.781 -146.5,-34.402 -220.7,-46.832 -6.21,27.379 -13.41,54.641 -16.74,82.512 v 0" /><path
             id="path116"
             style="fill:#feffff;fill-opacity:1;fill-rule:nonzero;stroke:none"
             d="m 2276.05,635.16 c 29.29,34.582 76.86,48.301 120.91,47.07 70.27,-3.691 137.64,-33.41 191.85,-77.46 -1.23,-31.258 -13.48,-61.11 -19.44,-91.75 -45.48,32.062 -90.58,71.32 -147.73,78.832 -17.97,0.418 -42.65,5.339 -53.85,-12.75 -12.48,-16.981 1.36,-37.282 14.47,-48.973 45.4,-39.067 102.93,-63.75 140.96,-111.367 32.18,-42.891 28.11,-104.66 1.66,-149.391 -23.69,-39.691 -71.25,-56.242 -115.31,-58.211 -79.43,0.121 -159.05,30.391 -215.65,86.82 5.72,33.54 13.72,66.7 22.64,99.489 41.04,-37.778 83.56,-79.367 140.34,-90.879 23.39,-6.09 58.15,-8.238 69.29,18.519 11.19,19.262 -5.36,39.012 -20.62,49.532 -48.79,34.281 -103.8,64.109 -138.07,114.57 -29.35,43.871 -24.42,105.531 8.55,145.949 v 0" /><path
             id="path118"
             style="fill:#feffff;fill-opacity:1;fill-rule:nonzero;stroke:none"
             d="m 2830.74,605.129 c 97.89,-1.098 195.72,-2.387 293.61,-3.75 0.13,-28 0.13,-55.93 -0.13,-83.988 -60.41,-0.981 -120.78,2.281 -181.13,1.109 -0.86,-31.879 -0.61,-63.738 -0.25,-95.68 55.38,-0.308 110.7,-2.949 166.06,-2.64 0.31,-28.489 0.19,-56.981 0.07,-85.461 -56,-1.297 -111.98,2.761 -168.03,0.672 -0.87,-61.161 -0.81,-122.379 -1.24,-183.539 -38.7,-1.911 -77.34,0.871 -115.98,1.23 3.94,105.891 0.37,212.027 5.97,317.918 -0.43,44.73 1.42,89.398 1.05,134.129 v 0" /></g></g></g></g></svg>