<?xml version="1.0" encoding="UTF-8" standalone="no"?>
<svg
   xmlns:dc="http://purl.org/dc/elements/1.1/"
   xmlns:cc="http://creativecommons.org/ns#"
   xmlns:rdf="http://www.w3.org/1999/02/22-rdf-syntax-ns#"
   xmlns:svg="http://www.w3.org/2000/svg"
   xmlns="http://www.w3.org/2000/svg"
   xmlns:sodipodi="http://sodipodi.sourceforge.net/DTD/sodipodi-0.dtd"
   xmlns:inkscape="http://www.inkscape.org/namespaces/inkscape"
   viewBox="0 0 581.01605 938.21242"
   height="938.21246"
   width="581.01605"
   xml:space="preserve"
   id="svg2"
   version="1.1"
   inkscape:version="0.48.5 r10040"
   sodipodi:docname="swe.svg"><sodipodi:namedview
     pagecolor="#ffffff"
     bordercolor="#666666"
     borderopacity="1"
     objecttolerance="10"
     gridtolerance="10"
     guidetolerance="10"
     inkscape:pageopacity="0"
     inkscape:pageshadow="2"
     inkscape:window-width="640"
     inkscape:window-height="480"
     id="namedview129"
     showgrid="false"
     fit-margin-top="0"
     fit-margin-left="0"
     fit-margin-right="0"
     fit-margin-bottom="0"
     inkscape:zoom="0.20858131"
     inkscape:cx="374.18008"
     inkscape:cy="388.52254"
     inkscape:window-x="0"
     inkscape:window-y="0"
     inkscape:window-maximized="0"
     inkscape:current-layer="svg2" /><metadata
     id="metadata8"><rdf:RDF><cc:Work
         rdf:about=""><dc:format>image/svg+xml</dc:format><dc:type
           rdf:resource="http://purl.org/dc/dcmitype/StillImage" /></cc:Work></rdf:RDF></metadata><defs
     id="defs6"><clipPath
       id="clipPath20"
       clipPathUnits="userSpaceOnUse"><path
         id="path18"
         d="M 161.449,8397.75 V 1290.06 H 4583.45 v 7107.69"
         inkscape:connector-curvature="0" /></clipPath><clipPath
       id="clipPath32"
       clipPathUnits="userSpaceOnUse"><path
         id="path30"
         d="M 0,8485.94 V 0 h 6000 v 8485.94 z"
         inkscape:connector-curvature="0" /></clipPath><clipPath
       id="clipPath46"
       clipPathUnits="userSpaceOnUse"><path
         id="path44"
         d="M 161.449,8397.75 V 1290.06 H 4583.45 v 7107.69"
         inkscape:connector-curvature="0" /></clipPath><clipPath
       id="clipPath56"
       clipPathUnits="userSpaceOnUse"><path
         id="path54"
         d="M 0,8485.94 V 0 h 6000 v 8485.94 z"
         inkscape:connector-curvature="0" /></clipPath><clipPath
       id="clipPath82"
       clipPathUnits="userSpaceOnUse"><path
         id="path80"
         d="M 161.449,8397.75 V 1290.06 H 4583.45 v 7107.69"
         inkscape:connector-curvature="0" /></clipPath><clipPath
       id="clipPath94"
       clipPathUnits="userSpaceOnUse"><path
         id="path92"
         d="M 0,8485.94 V 0 h 6000 v 8485.94 z"
         inkscape:connector-curvature="0" /></clipPath><clipPath
       id="clipPath106"
       clipPathUnits="userSpaceOnUse"><path
         id="path104"
         d="M 161.449,8397.75 V 1290.06 H 4583.45 v 7107.69"
         inkscape:connector-curvature="0" /></clipPath><clipPath
       id="clipPath118"
       clipPathUnits="userSpaceOnUse"><path
         id="path116"
         d="M 0,8485.94 V 0 h 6000 v 8485.94 z"
         inkscape:connector-curvature="0" /></clipPath><clipPath
       id="clipPath130"
       clipPathUnits="userSpaceOnUse"><path
         id="path128"
         d="m 1739.16,7779.99 c 101.83,176.35 266.19,302.44 462.9,355.15 196.71,52.65 402.18,25.69 578.52,-76.15 364.07,-210.26 489.19,-677.43 279,-1041.5 -101.69,-176.26 -266.19,-302.51 -462.83,-355.15 -196.7,-52.71 -402.18,-25.68 -578.52,76.16 -363.99,210.26 -489.19,677.43 -279.07,1041.49"
         inkscape:connector-curvature="0" /></clipPath><clipPath
       id="clipPath172"
       clipPathUnits="userSpaceOnUse"><path
         id="path170"
         d="M 0,8485.94 V 0 h 6000 v 8485.94 z"
         inkscape:connector-curvature="0" /></clipPath></defs><g
     transform="matrix(1.3333333,0,0,-1.3333333,-25.819917,1115.4166)"
     id="g10"><g
       transform="scale(0.1,0.1)"
       id="g12"><g
         id="g14"><g
           clip-path="url(#clipPath20)"
           id="g16"><path
             id="path22"
             style="fill:#3167ba;fill-opacity:1;fill-rule:nonzero;stroke:none"
             d="M 4213.77,4384.22 C 3912.6,3092.77 3297.54,2124.73 2386.71,1504.51 313.598,3008.61 276.836,5468.47 360.328,6469.68 H 4399.17 c 32.34,-704.54 -31.46,-1424.95 -185.4,-2085.46 m 322.96,2118.93 c -0.76,16.85 -1.58,31.38 -1.65,36.32 l -0.61,68.66 H 227.191 l -0.597,-68.66 c -0.074,-5.62 -1.867,-27.19 -3.821,-50.17 C 135.984,5463.07 169.16,2909.24 2345.31,1362.61 l 38.77,-27.57 39.7,26.3 c 527.16,349.61 965.34,817.91 1302.68,1391.33 273.97,466.04 483.33,1004.27 622.24,1600.16 158.9,681.19 223.82,1424.81 188.03,2150.32"
             inkscape:connector-curvature="0" /><path
             id="path24"
             style="fill:none;stroke:#3167ba;stroke-width:9.89999962;stroke-linecap:butt;stroke-linejoin:miter;stroke-miterlimit:4;stroke-opacity:1;stroke-dasharray:none"
             d="M 4213.77,4384.22 C 3912.6,3092.77 3297.54,2124.73 2386.71,1504.51 313.598,3008.61 276.836,5468.47 360.328,6469.68 H 4399.17 c 32.34,-704.54 -31.46,-1424.95 -185.4,-2085.46 z m 322.96,2118.93 c -0.76,16.85 -1.58,31.38 -1.65,36.32 l -0.61,68.66 H 227.191 l -0.597,-68.66 c -0.074,-5.62 -1.867,-27.19 -3.821,-50.17 C 135.984,5463.07 169.16,2909.24 2345.31,1362.61 l 38.77,-27.57 39.7,26.3 c 527.16,349.61 965.34,817.91 1302.68,1391.33 273.97,466.04 483.33,1004.27 622.24,1600.16 158.9,681.19 223.82,1424.81 188.03,2150.32 z"
             inkscape:connector-curvature="0" /></g></g><g
         id="g26"><g
           clip-path="url(#clipPath32)"
           id="g28"><path
             id="path34"
             style="fill:#3167ba;fill-opacity:1;fill-rule:nonzero;stroke:none"
             d="m 4273.37,7032.62 c -23.44,33.02 -96.67,60.05 -166.38,76.75 l 37.37,-10.7 -1053.85,319.28 -45.45,-158.6 1017.83,-305.95 32.34,-9.21 28.24,-7.64 c 21.93,-7.86 24.48,-9.43 28.89,-11.68 12.43,-6.29 15.43,-18.35 18.35,-43.73 l -51.97,-344.67 H 633.262 l -50.84,332.54 c 0.742,16.47 0,32.65 13.176,50.69 6.515,8.69 16.55,14.53 44.031,21.42 l 18.723,4.42 13.25,3.37 1070.628,299.44 1.34,186.37 L 671.898,7134.6 c -160.316,-36.24 -252.64,-134.92 -252.64,-256.3 v -6.3 l 1.047,-6.28 63.949,-424.41 10.629,-70.1 H 4257.27 l 10.63,70.1 63.8,424.41 1.05,6.28 v 6.3 c 0,61.77 -23.81,104.37 -59.38,154.32"
             inkscape:connector-curvature="0" /><path
             id="path36"
             style="fill:none;stroke:#3167ba;stroke-width:9.89999962;stroke-linecap:butt;stroke-linejoin:miter;stroke-miterlimit:4;stroke-opacity:1;stroke-dasharray:none"
             d="m 4273.37,7032.62 c -23.44,33.02 -96.67,60.05 -166.38,76.75 l 37.37,-10.7 -1053.85,319.28 -45.45,-158.6 1017.83,-305.95 32.34,-9.21 28.24,-7.64 c 21.93,-7.86 24.48,-9.43 28.89,-11.68 12.43,-6.29 15.43,-18.35 18.35,-43.73 l -51.97,-344.67 H 633.262 l -50.84,332.54 c 0.742,16.47 0,32.65 13.176,50.69 6.515,8.69 16.55,14.53 44.031,21.42 l 18.723,4.42 13.25,3.37 1070.628,299.44 1.34,186.37 L 671.898,7134.6 c -160.316,-36.24 -252.64,-134.92 -252.64,-256.3 v -6.3 l 1.047,-6.28 63.949,-424.41 10.629,-70.1 H 4257.27 l 10.63,70.1 63.8,424.41 1.05,6.28 v 6.3 c 0,61.77 -23.81,104.37 -59.38,154.32 z"
             inkscape:connector-curvature="0" /><path
             id="path38"
             style="fill:#3167ba;fill-opacity:1;fill-rule:nonzero;stroke:none"
             d="m 1417.7,7412.41 c 0.82,522.73 428.38,947.52 954.71,948.27 528.72,-0.75 956.28,-425.54 957.64,-948.27"
             inkscape:connector-curvature="0" /></g></g><g
         id="g40"><g
           clip-path="url(#clipPath46)"
           id="g42"><path
             id="path48"
             style="fill:none;stroke:#3167ba;stroke-width:9.89999962;stroke-linecap:butt;stroke-linejoin:miter;stroke-miterlimit:4;stroke-opacity:1;stroke-dasharray:none"
             d="m 1417.7,7412.41 c 0.82,522.73 428.38,947.52 954.71,948.27 528.72,-0.75 956.28,-425.54 957.64,-948.27"
             inkscape:connector-curvature="0" /></g></g><g
         id="g50"><g
           clip-path="url(#clipPath56)"
           id="g52"><path
             id="path58"
             style="fill:#3167ba;fill-opacity:1;fill-rule:nonzero;stroke:none"
             d="m 3330.05,7412.41 c -1.36,-525.13 -428.92,-950 -957.64,-951.19 -526.33,1.19 -953.89,426.06 -954.71,951.19"
             inkscape:connector-curvature="0" /><path
             id="path60"
             style="fill:none;stroke:#3167ba;stroke-width:9.89999962;stroke-linecap:butt;stroke-linejoin:miter;stroke-miterlimit:4;stroke-opacity:1;stroke-dasharray:none"
             d="m 3330.05,7412.41 c -1.36,-525.13 -428.92,-950 -957.64,-951.19 -526.33,1.19 -953.89,426.06 -954.71,951.19"
             inkscape:connector-curvature="0" /><path
             id="path62"
             style="fill:#f9e10e;fill-opacity:1;fill-rule:nonzero;stroke:none"
             d="m 686.426,6923.15 h 11.683 l 11.227,3.37 944.084,285.66 h 1451.53 l 944.23,-285.66 11.15,-3.37 h 11.69 c 16.85,0 32.65,-6.52 44.55,-18.42 11.16,-11.24 17.15,-26.07 17.82,-41.78 l -50.76,-329.4 H 674.895 l -50.762,329.4 c 0.672,15.8 6.66,30.54 17.816,41.78 11.903,11.9 27.707,18.42 44.477,18.42"
             inkscape:connector-curvature="0" /><path
             id="path64"
             style="fill:#ec1b2e;fill-opacity:1;fill-rule:nonzero;stroke:none"
             d="m 3297.62,7215.55 c -87.32,-437.97 -475.33,-755.9 -922.75,-755.9 -442.68,0 -829.95,313.89 -920.78,746.39 l -154.63,-32.42 c 106.18,-505.21 558.46,-871.9 1075.41,-871.9 522.43,0 975.69,371.33 1077.67,882.91 l -154.92,30.92"
             inkscape:connector-curvature="0" /><path
             id="path66"
             style="fill:#ec1b2e;fill-opacity:1;fill-rule:nonzero;stroke:none"
             d="M 3558.95,7101.36 C 3422.22,6558.71 2935.27,6179.6 2374.87,6179.6 c -559.57,0 -1046.2,378.28 -1183.61,919.89 l -153.13,-38.79 c 155.16,-611.84 704.84,-1039.03 1336.74,-1039.03 632.97,0 1182.81,428.09 1337.21,1041.13 l -153.13,38.56"
             inkscape:connector-curvature="0" /><path
             id="path68"
             style="fill:#ec1b2e;fill-opacity:1;fill-rule:nonzero;stroke:none"
             d="M 3793.99,7042.58 C 3630.23,6391.87 3046.77,5937.44 2374.87,5937.44 c -668.51,0 -1251.45,451.67 -1417.386,1098.4 L 804.512,6996.6 C 988.414,6279.93 1634.1,5779.52 2374.87,5779.52 c 744.38,0 1390.97,503.49 1572.18,1224.5 l -153.06,38.56"
             inkscape:connector-curvature="0" /><path
             id="path70"
             style="fill:#ec1b2e;fill-opacity:1;fill-rule:nonzero;stroke:none"
             d="M 4050.23,6978.48 C 3866.25,6209.47 3168.38,5673.26 2374.87,5673.26 1595.54,5673.26 909.719,6198.09 707.02,6949.5 L 554.492,6908.4 C 775.758,6088.17 1524.33,5515.34 2374.87,5515.34 c 866.14,0 1662.78,549.77 1828.57,1424.73 l -153.21,38.41"
             inkscape:connector-curvature="0" /><path
             id="path72"
             style="fill:#f9e10e;fill-opacity:1;fill-rule:nonzero;stroke:none"
             d="m 4234.88,7007.76 c -22.99,31.52 -94.58,57.36 -162.86,73.38 l 36.61,-10.33 -1030.56,305.21 -44.62,-151.63 995.51,-292.33 31.75,-8.91 27.48,-7.26 c 21.5,-7.49 23.9,-8.99 28.38,-11.16 12.13,-6 15.06,-17.45 17.82,-41.78 l -50.76,-329.4 H 674.895 l -49.793,317.79 c 0.75,15.72 0,31.15 12.878,48.44 6.29,8.39 16.168,14.01 43.055,20.45 l 18.344,4.26 12.883,3.22 1047.188,286.19 1.27,178.14 L 712.637,7105.18 C 555.762,7070.66 465.531,6976.24 465.531,6860.24 v -5.98 l 0.973,-5.99 62.601,-405.7 10.333,-66.94 H 4219.08 l 10.27,66.94 62.58,405.7 0.83,5.99 v 5.98 c 0,59.09 -23.21,99.83 -57.88,147.52"
             inkscape:connector-curvature="0" /><path
             id="path74"
             style="fill:none;stroke:#f9e10e;stroke-width:6.5999999;stroke-linecap:butt;stroke-linejoin:miter;stroke-miterlimit:4;stroke-opacity:1;stroke-dasharray:none"
             d="m 4234.88,7007.76 c -22.99,31.52 -94.58,57.36 -162.86,73.38 l 36.61,-10.33 -1030.56,305.21 -44.62,-151.63 995.51,-292.33 31.75,-8.91 27.48,-7.26 c 21.5,-7.49 23.9,-8.99 28.38,-11.16 12.13,-6 15.06,-17.45 17.82,-41.78 l -50.76,-329.4 H 674.895 l -49.793,317.79 c 0.75,15.72 0,31.15 12.878,48.44 6.29,8.39 16.168,14.01 43.055,20.45 l 18.344,4.26 12.883,3.22 1047.188,286.19 1.27,178.14 L 712.637,7105.18 C 555.762,7070.66 465.531,6976.24 465.531,6860.24 v -5.98 l 0.973,-5.99 62.601,-405.7 10.333,-66.94 H 4219.08 l 10.27,66.94 62.58,405.7 0.83,5.99 v 5.98 c 0,59.09 -23.21,99.83 -57.88,147.52 z"
             inkscape:connector-curvature="0" /></g></g><g
         id="g76"><g
           clip-path="url(#clipPath82)"
           id="g78"><path
             id="path84"
             style="fill:#3167ba;fill-opacity:1;fill-rule:nonzero;stroke:none"
             d="M 316.973,6522.92 C 315.703,6384.91 -116.211,3232.12 2383.42,1453.21 4724.45,3008.46 4442,6384.91 4440.81,6522.92 H 316.973"
             inkscape:connector-curvature="0" /><path
             id="path86"
             style="fill:#f9e10e;fill-opacity:1;fill-rule:nonzero;stroke:none"
             d="M 4191.46,4389.29 C 3893.66,3110.66 3285.48,2152.06 2384.69,1537.82 334.492,3027.33 298.254,5462.92 380.691,6454.33 H 4374.83 c 31.97,-697.5 -31.08,-1410.96 -183.37,-2065.04 m 319.36,2098.29 c -0.75,16.69 -1.44,30.99 -1.5,35.94 l -0.69,67.91 H 249.133 l -0.672,-67.91 c -0.149,-5.54 -1.875,-27.03 -3.82,-49.65 C 158.824,5457.61 191.695,2928.86 2343.73,1397.36 l 38.48,-27.41 39.1,26.13 c 521.31,346.39 954.71,809.89 1288.3,1377.78 270.91,461.41 477.95,994.48 615.36,1584.38 157.09,674.5 221.42,1410.86 185.85,2129.34"
             inkscape:connector-curvature="0" /></g></g><g
         id="g88"><g
           clip-path="url(#clipPath94)"
           id="g90"><path
             id="path96"
             style="fill:#f9e10e;fill-opacity:1;fill-rule:nonzero;stroke:none"
             d="m 297.578,5603.77 h 4120.23 v 116.02 H 297.578 z"
             inkscape:connector-curvature="0" /><path
             id="path98"
             style="fill:#f9e10e;fill-opacity:1;fill-rule:nonzero;stroke:none"
             d="M 1990.15,5632.75 V 4713.89 H 413.645 l 58.027,-309.45 87.012,-338.53 H 1990.15 V 1754.29 l 396.49,-270.82 357.91,290.23 v 2292.21 h 1450.71 l 87.08,338.53 48.39,309.45 H 2744.55 v 918.86 h -754.4"
             inkscape:connector-curvature="0" /></g></g><g
         id="g100"><g
           clip-path="url(#clipPath106)"
           id="g102"><path
             id="path108"
             style="fill:none;stroke:#f9e10e;stroke-width:12.35000038;stroke-linecap:butt;stroke-linejoin:miter;stroke-miterlimit:3.86400008;stroke-opacity:1;stroke-dasharray:none"
             d="M 1990.15,5632.75 V 4713.89 H 413.645 l 58.027,-309.45 87.012,-338.53 H 1990.15 V 1754.29 l 396.49,-270.82 357.91,290.23 v 2292.21 h 1450.71 l 87.08,338.53 48.39,309.45 H 2744.55 v 918.86 z"
             inkscape:connector-curvature="0" /><path
             id="path110"
             style="fill:none;stroke:#3167ba;stroke-width:40.81999969;stroke-linecap:butt;stroke-linejoin:miter;stroke-miterlimit:3.86400008;stroke-opacity:1;stroke-dasharray:none"
             d="m 1858.81,7933.64 v 0"
             inkscape:connector-curvature="0" /></g></g><g
         id="g112"><g
           clip-path="url(#clipPath118)"
           id="g114"><path
             id="path120"
             style="fill:#f9e10e;fill-opacity:1;fill-rule:nonzero;stroke:none"
             d="m 1653.42,7829.56 c 237.74,411.99 764.67,553.14 1176.73,315.25 411.98,-237.98 553.21,-764.83 315.24,-1176.88 -237.9,-411.99 -764.67,-553.13 -1176.73,-315.24 -412.06,237.96 -553.13,764.81 -315.24,1176.87"
             inkscape:connector-curvature="0" /><path
             id="path122"
             style="fill:#3167ba;fill-opacity:1;fill-rule:nonzero;stroke:none"
             d="m 1739.16,7779.99 c 101.83,176.35 266.19,302.44 462.9,355.15 196.71,52.65 402.18,25.69 578.52,-76.15 364.07,-210.26 489.19,-677.43 279,-1041.5 -101.69,-176.26 -266.19,-302.51 -462.83,-355.15 -196.7,-52.71 -402.18,-25.68 -578.52,76.16 -363.99,210.26 -489.19,677.43 -279.07,1041.49"
             inkscape:connector-curvature="0" /></g></g><g
         id="g124"><g
           clip-path="url(#clipPath130)"
           id="g126"><path
             id="path132"
             style="fill:#3167ba;fill-opacity:1;fill-rule:nonzero;stroke:none"
             d="m 2045.03,7432.7 -407.18,14.08 -1.65,-49.05 407.12,-14.08 1.71,49.05"
             inkscape:connector-curvature="0" /><path
             id="path134"
             style="fill:#3167ba;fill-opacity:1;fill-rule:nonzero;stroke:none"
             d="m 2508.76,7041.91 155.61,-368.33 45.14,19.02 -155.59,368.47 -45.16,-19.16"
             inkscape:connector-curvature="0" /><path
             id="path136"
             style="fill:#3167ba;fill-opacity:1;fill-rule:nonzero;stroke:none"
             d="m 2533.93,7075.83 c -213.33,22.84 -379.35,144.37 -467.4,342.27 l -44.78,-19.84 c 94.05,-211.46 278.85,-346.7 506.93,-371.18 l 5.25,48.75"
             inkscape:connector-curvature="0" /><path
             id="path138"
             style="fill:#3167ba;fill-opacity:1;fill-rule:nonzero;stroke:none"
             d="m 2686.07,7260.4 -1.56,3.3 c -85.81,185.55 -310.97,340.7 -512.7,353.2 l -3,-48.97 c 182.18,-11.31 393.56,-156.95 471.21,-324.83 l 1.35,-2.99 44.7,20.29"
             inkscape:connector-curvature="0" /><path
             id="path140"
             style="fill:#3167ba;fill-opacity:1;fill-rule:nonzero;stroke:none"
             d="m 2110.49,7527.73 1.57,-3.3 c 85.8,-185.63 310.97,-340.7 512.7,-353.21 l 2.99,48.98 c -182.26,11.22 -393.64,156.94 -471.22,324.74 l -1.34,3 -44.7,-20.21"
             inkscape:connector-curvature="0" /><path
             id="path142"
             style="fill:#3167ba;fill-opacity:1;fill-rule:nonzero;stroke:none"
             d="m 2506.82,8161.87 -103.94,-473.83 47.78,-10.55 104.01,473.83 -47.85,10.55 m -56.16,-484.38 101.23,456.83 -47.91,10.56 -101.1,-456.84 47.78,-10.55"
             inkscape:connector-curvature="0" /><path
             id="path144"
             style="fill:#3167ba;fill-opacity:1;fill-rule:nonzero;stroke:none"
             d="m 2333.85,7096.79 -105.13,-460.58 47.85,-10.93 105.13,460.58 -47.85,10.93 m -57.28,-471.51 105.13,460.58 -47.85,10.93 -105.13,-460.58 47.85,-10.93"
             inkscape:connector-curvature="0" /><path
             id="path146"
             style="fill:#3167ba;fill-opacity:1;fill-rule:nonzero;stroke:none"
             d="m 3057.18,7802.08 -414.68,-267.62 26.44,-41.33 414.6,267.62 -26.36,41.33"
             inkscape:connector-curvature="0" /><path
             id="path148"
             style="fill:#3167ba;fill-opacity:1;fill-rule:nonzero;stroke:none"
             d="m 2126.58,7278.83 -400.53,-256.32 26.43,-41.33 400.54,256.39 -26.44,41.26"
             inkscape:connector-curvature="0" /><path
             id="path150"
             style="fill:#3167ba;fill-opacity:1;fill-rule:nonzero;stroke:none"
             d="m 1832.68,7413.91 c 19.24,104.83 60.2,202.54 121.9,290.61 61.1,87.3 138.24,158.81 229.13,212.58 l -24.86,42.23 c -97.04,-57.28 -179.33,-133.59 -244.41,-226.66 -65.74,-93.83 -109.46,-198.21 -129.99,-310 l 48.23,-8.76"
             inkscape:connector-curvature="0" /><path
             id="path152"
             style="fill:#3167ba;fill-opacity:1;fill-rule:nonzero;stroke:none"
             d="m 2630.37,6824.38 c 98.23,57.44 181.29,134.18 246.88,228.09 65.29,93.07 108.79,196.33 129.45,307.15 l -48.14,8.98 c -19.39,-103.86 -60.35,-200.75 -121.38,-287.99 -61.61,-88.05 -139.57,-160.01 -231.52,-214 l 24.71,-42.23"
             inkscape:connector-curvature="0" /><path
             id="path154"
             style="fill:#3167ba;fill-opacity:1;fill-rule:nonzero;stroke:none"
             d="m 2747.33,7341.79 427.11,-14.07 1.64,48.97 -427.03,14.16 -1.72,-49.06"
             inkscape:connector-curvature="0" /><path
             id="path156"
             style="fill:#3167ba;fill-opacity:1;fill-rule:nonzero;stroke:none"
             d="m 2283.68,7732.52 -161.3,382.55 -45.15,-19.16 161.22,-382.49 45.23,19.1"
             inkscape:connector-curvature="0" /><path
             id="path158"
             style="fill:#3167ba;fill-opacity:1;fill-rule:nonzero;stroke:none"
             d="m 2258.45,7698.6 c 213.4,-22.84 379.4,-144.44 467.47,-342.27 l 44.7,19.91 c -94.05,211.46 -278.85,346.69 -506.93,371.1 l -5.24,-48.74"
             inkscape:connector-curvature="0" /><path
             id="path160"
             style="fill:#f9e10e;fill-opacity:1;fill-rule:nonzero;stroke:none"
             d="m 2256.65,7715.75 -214.31,-306.11 214.31,306.11"
             inkscape:connector-curvature="0" /><path
             id="path162"
             style="fill:none;stroke:#3167ba;stroke-width:16.71999931;stroke-linecap:butt;stroke-linejoin:miter;stroke-miterlimit:3.86400008;stroke-opacity:1;stroke-dasharray:none"
             d="M 2256.65,7715.75 2042.34,7409.64 z"
             inkscape:connector-curvature="0" /><path
             id="path164"
             style="fill:#3167ba;fill-opacity:1;fill-rule:nonzero;stroke:none"
             d="m 2554.29,7042.28 214.38,306.18 -40.07,28.16 -214.36,-306.19 40.05,-28.15 m 174.31,334.34 -214.36,-306.19 40.05,-28.15 214.38,306.18 -40.07,28.16"
             inkscape:connector-curvature="0" /></g></g><g
         id="g166"><g
           clip-path="url(#clipPath172)"
           id="g168"><path
             id="path174"
             style="fill:#3167ba;fill-opacity:1;fill-rule:nonzero;stroke:none"
             d="m 3310.35,7403.2 c -1.13,-517.72 -419.85,-936.37 -937.49,-937.64 -515.32,1.27 -933.97,419.92 -934.79,937.64 0.82,515.24 419.47,933.9 934.79,934.72 517.64,-0.82 936.36,-419.48 937.49,-934.72"
             inkscape:connector-curvature="0" /><path
             id="path176"
             style="fill:none;stroke:#f9e10e;stroke-width:3.96000004;stroke-linecap:butt;stroke-linejoin:miter;stroke-miterlimit:4;stroke-opacity:1;stroke-dasharray:none"
             d="m 3310.35,7403.2 c -1.13,-517.72 -419.85,-936.37 -937.49,-937.64 -515.32,1.27 -933.97,419.92 -934.79,937.64 0.82,515.24 419.47,933.9 934.79,934.72 517.64,-0.82 936.36,-419.48 937.49,-934.72"
             inkscape:connector-curvature="0" /><path
             id="path178"
             style="fill:#f9e10e;fill-opacity:1;fill-rule:nonzero;stroke:none"
             d="m 1830.43,7720.54 c 174.1,300.78 557.26,403.37 856.86,230.77 299.51,-173.35 402.23,-556.42 227.85,-856.84 -171.62,-298.84 -554.63,-401.43 -853.86,-227.86 -300.04,172.38 -402.7,555.46 -230.85,853.93"
             inkscape:connector-curvature="0" /><path
             id="path180"
             style="fill:none;stroke:#3167ba;stroke-width:5.78000021;stroke-linecap:butt;stroke-linejoin:miter;stroke-miterlimit:3.86400008;stroke-opacity:1;stroke-dasharray:none"
             d="m 1830.43,7720.54 c 174.1,300.78 557.26,403.37 856.86,230.77 299.51,-173.35 402.23,-556.42 227.85,-856.84 -171.62,-298.84 -554.63,-401.43 -853.86,-227.86 -300.04,172.38 -402.7,555.46 -230.85,853.93 z"
             inkscape:connector-curvature="0" /><path
             id="path182"
             style="fill:none;stroke:#3167ba;stroke-width:3.29999995;stroke-linecap:butt;stroke-linejoin:miter;stroke-miterlimit:3.86400008;stroke-opacity:1;stroke-dasharray:none"
             d="m 1937.21,6955.94 876.91,897.29 m -262.46,155.74 -346.24,-1205.86 m -438.41,444.26 1214.54,326.03 m -764.51,438.49 323.17,-1208.78"
             inkscape:connector-curvature="0" /><path
             id="path184"
             style="fill:#f9dd06;fill-opacity:1;fill-rule:nonzero;stroke:none"
             d="m 1937.21,7293.5 -2.92,23.06 -5.76,37.59 -2.85,37.44 v 69.34 l 5.77,37.44 8.68,34.59 14.38,37.52 14.45,34.59 14.45,28.9 17.3,23.07 17.29,25.98 20.15,28.83 23.13,20.15 28.83,25.98 23.06,17.37 26,14.38 25.98,14.37 25.9,14.52 23.14,11.47 25.91,5.76 17.38,5.77 550.96,-317.35 2.91,-20.13 5.77,-25.99 2.93,-23.06 2.75,-25.98 v -25.91 l -2.75,-25.99 v -17.29 l -2.93,-25.98 -3,-20.22 -5.68,-28.83 -8.4,-27.26 -8.91,-21.79 -11.52,-23.05 -17.38,-31.76 -14.37,-23.06 -17.31,-25.98 -20.29,-25.91 -14.37,-14.46 -23.07,-20.21 -23.05,-17.3 -25.99,-20.22 -20.15,-14.45 -23.05,-11.45 -25.99,-11.61 -23.06,-8.61 -31.75,-14.45 h -5.69 l -556.88,320.18"
             inkscape:connector-curvature="0" /><path
             id="path186"
             style="fill:none;stroke:#3167ba;stroke-width:3.29999995;stroke-linecap:butt;stroke-linejoin:miter;stroke-miterlimit:3.86400008;stroke-opacity:1;stroke-dasharray:none"
             d="m 2672.82,7071.41 c -138.23,23.43 -283.48,70.54 -412.51,144.21 -126.54,73.84 -235.87,166.39 -326.02,271.22 m 167.28,274.06 c 138.46,-25.61 264.99,-72.41 392.52,-147.14 127.97,-72.78 237.44,-165.33 325.96,-271.21 m -980.93,-74.95 c -35.95,135.6 -20.37,285.88 54.88,418.27 77.88,132.61 201.73,221.72 340.33,256.76 m 675.1,-389.44 c 35.8,-138.08 20.38,-288.74 -54.87,-421.2 -77.21,-131.42 -198.81,-219.93 -334.72,-256.76 m -582.63,418.27 -2.92,23.06 -5.76,37.59 -2.85,37.44 v 69.34 l 5.77,37.44 8.68,34.59 14.38,37.52 14.45,34.59 14.45,28.9 17.3,23.07 17.29,25.98 20.15,28.83 23.13,20.15 28.83,25.98 23.06,17.37 26,14.38 25.98,14.37 25.9,14.52 23.14,11.47 25.91,5.76 17.38,5.77 550.96,-317.35 2.91,-20.13 5.77,-25.99 2.93,-23.06 2.75,-25.98 v -25.91 l -2.75,-25.99 v -17.29 l -2.93,-25.98 -3,-20.22 -5.68,-28.83 -8.4,-27.26 -8.91,-21.79 -11.52,-23.05 -17.38,-31.76 -14.37,-23.06 -17.31,-25.98 -20.29,-25.91 -14.37,-14.46 -23.07,-20.21 -23.05,-17.3 -25.99,-20.22 -20.15,-14.45 -23.05,-11.45 -25.99,-11.61 -23.06,-8.61 -31.75,-14.45 h -5.69 z"
             inkscape:connector-curvature="0" /><path
             id="path188"
             style="fill:#f9dd06;fill-opacity:1;fill-rule:nonzero;stroke:none"
             d="m 2173.68,7527.2 c 14.3,24.26 116.89,-7.79 227.94,-72.11 113.28,-65.22 192.43,-138.08 178.96,-164.43 -15.51,-23.89 -118.24,8.23 -230.85,72.1 -111.66,65.6 -190.73,138.45 -176.05,164.44"
             inkscape:connector-curvature="0" /><path
             id="path190"
             style="fill:none;stroke:#3167ba;stroke-width:3.29999995;stroke-linecap:butt;stroke-linejoin:miter;stroke-miterlimit:3.86400008;stroke-opacity:1;stroke-dasharray:none"
             d="m 2173.68,7527.2 c 14.3,24.26 116.89,-7.79 227.94,-72.11 113.28,-65.22 192.43,-138.08 178.96,-164.43 -15.51,-23.89 -118.24,8.23 -230.85,72.1 -111.66,65.6 -190.73,138.45 -176.05,164.44 z"
             inkscape:connector-curvature="0" /><path
             id="path192"
             style="fill:none;stroke:#3167ba;stroke-width:1.98000002;stroke-linecap:butt;stroke-linejoin:miter;stroke-miterlimit:3.86400008;stroke-opacity:1;stroke-dasharray:none"
             d="m 2196.89,7512.82 360.47,-207.71"
             inkscape:connector-curvature="0" /><path
             id="path194"
             style="fill:none;stroke:#3167ba;stroke-width:3.29999995;stroke-linecap:butt;stroke-linejoin:miter;stroke-miterlimit:3.86400008;stroke-opacity:1;stroke-dasharray:none"
             d="m 2352.65,7440.64 -14.38,-25.91 m -23.15,46.2 -14.45,-23.13 m -23.13,46.2 -14.38,-26.06 m -17.23,43.27 -11.6,-25.9 m -20.14,43.28 -14.45,-23.14 m 351.92,-170.2 -14.44,-25.91 m -20.14,46.13 -14.46,-25.99 m -23.06,46.13 -14.36,-23.06 m -17.39,40.43 -14.46,-23.06 m -49.04,60.58 -14.37,-23.14 m 46.12,5.84 -14.44,-25.99"
             inkscape:connector-curvature="0" /><path
             id="path196"
             style="fill:none;stroke:#f9e10e;stroke-width:3.96000004;stroke-linecap:butt;stroke-linejoin:miter;stroke-miterlimit:3.86400008;stroke-opacity:1;stroke-dasharray:none"
             d="m 1697.74,7403.2 c -0.6,372.53 302.44,675.64 675.12,675.04 375.07,0.6 678.04,-302.51 677.88,-675.04 0.16,-375.15 -302.81,-678.18 -677.88,-677.96 -372.68,-0.22 -675.72,302.81 -675.12,677.96 z"
             inkscape:connector-curvature="0" /><path
             id="path198"
             style="fill:#f9e10e;fill-opacity:1;fill-rule:nonzero;stroke:none"
             d="m 1776.45,6901.14 -19.17,27.25 c 9.36,6.81 7.48,11.08 1.94,18.86 l -23.43,33.55 c -4.05,5.77 -8.76,11.23 -15.73,6.37 -7.63,-5.39 -5.92,-8.91 18.72,-44.11 28.83,-41.03 27.18,-49.11 5.39,-64.4 -16.03,-11.3 -29.43,-18.42 -53.54,15.96 l -26.8,38.12 c -22.09,31.44 -13.48,41.85 2.1,52.78 l 2.84,2.03 19.09,-27.33 c -6.43,-4.65 -8.68,-7.2 0.16,-19.7 l 21.18,-30.33 c 4.34,-6.06 9.36,-8.76 14.15,-5.46 7.72,5.39 5.7,8.91 -14.97,38.11 -29.96,42.31 -34.3,53.84 -8.39,72.03 23.89,16.78 33.47,11.38 58.94,-24.93 l 23.2,-33.02 c 17.38,-24.79 19.7,-37.97 0.46,-51.52 l -6.14,-4.26"
             inkscape:connector-curvature="0" /><path
             id="path200"
             style="fill:#f9e10e;fill-opacity:1;fill-rule:nonzero;stroke:none"
             d="m 1624.07,6994.44 -14.46,33.46 57.14,70.84 -90.76,7.11 -14.45,33.55 122.58,-10.71 16.25,-37.74 -76.3,-96.51"
             inkscape:connector-curvature="0" /><path
             id="path202"
             style="fill:#f9e10e;fill-opacity:1;fill-rule:nonzero;stroke:none"
             d="m 1554.8,7166.51 -25.23,116.13 24.56,5.32 18.19,-83.64 17,3.67 -17.22,79.22 21.86,4.79 17.3,-79.21 16.92,3.73 -18.57,85.45 25.46,5.53 25.54,-118.01 -105.81,-22.98"
             inkscape:connector-curvature="0" /><path
             id="path204"
             style="fill:#f9e10e;fill-opacity:1;fill-rule:nonzero;stroke:none"
             d="m 1523.8,7320.9 -0.6,51.67 77.96,63.58 v 0.29 l -78.71,-0.97 -0.45,33.32 108.28,1.35 0.75,-51.74 -78.03,-63.5 0.08,-0.3 78.62,0.97 0.38,-33.39 -108.28,-1.28"
             inkscape:connector-curvature="0" /><path
             id="path206"
             style="fill:#f9e10e;fill-opacity:1;fill-rule:nonzero;stroke:none"
             d="m 1597.48,7491.85 6.67,32.65 c 11.23,-2.09 13.18,2.25 14.98,11.68 l 8.08,39.98 c 1.43,6.97 2.1,14.16 -6.14,15.81 -9.21,1.87 -10.56,-1.8 -19.09,-43.96 -9.96,-49.12 -16.85,-53.53 -43.06,-48.22 -19.17,3.89 -33.62,8.69 -25.23,49.87 l 9.21,45.6 c 7.55,37.67 21.04,38.56 39.68,34.83 l 3.37,-0.68 -6.52,-32.65 c -7.86,1.57 -11.23,1.35 -14.29,-13.63 l -7.34,-36.24 c -1.5,-7.33 0,-12.8 5.69,-14 9.28,-1.87 10.33,2.02 17.29,37.07 10.11,50.76 15.58,61.99 46.51,55.71 28.52,-5.77 31.37,-16.47 22.61,-59.83 l -8.01,-39.62 c -5.99,-29.72 -14.01,-40.5 -37.07,-35.86 l -7.34,1.49"
             inkscape:connector-curvature="0" /><path
             id="path208"
             style="fill:#f9e10e;fill-opacity:1;fill-rule:nonzero;stroke:none"
             d="m 1564.46,7675.84 12.88,30.7 36.69,-15.51 6.15,14.38 -20.3,54.21 17.75,41.71 25.75,-74.8 76.61,38.93 -18.43,-43.35 -56.98,-28.08 -5.69,-13.55 38.19,-16.25 -12.95,-30.62 -99.67,42.23"
             inkscape:connector-curvature="0" /><path
             id="path210"
             style="fill:#f9e10e;fill-opacity:1;fill-rule:nonzero;stroke:none"
             d="m 1716.77,7835.85 24.33,35.04 -45.83,5.47 21.5,-40.51 m -54.44,36.92 24.71,35.71 123.03,-12.43 -21.12,-30.55 -21.64,2.4 -38.41,-55.55 10.26,-18.96 -21.2,-30.55 -55.63,109.93"
             inkscape:connector-curvature="0" /><path
             id="path212"
             style="fill:#f9e10e;fill-opacity:1;fill-rule:nonzero;stroke:none"
             d="m 1798.6,8035.62 88.52,71.07 16.32,-20.29 -62.52,-50.17 12.58,-15.8 59.67,47.77 15.73,-19.54 -59.61,-47.77 23.06,-28.83 -25.9,-20.82 -67.85,84.38"
             inkscape:connector-curvature="0" /><path
             id="path214"
             style="fill:#f9e10e;fill-opacity:1;fill-rule:nonzero;stroke:none"
             d="m 1972.71,8089.25 c 7.26,-13.93 12.94,-17.68 26.95,-10.41 l 37.82,19.77 c 13.92,7.26 14.07,14.14 6.81,28 l -5.47,10.41 c -6.14,11.9 -12.88,17.66 -28.45,9.5 l -34.67,-18.04 c -15.5,-8.16 -14.53,-17 -8.39,-28.9 l 5.4,-10.33 m -40.52,3.66 c -14.67,28.08 -2.32,43.05 24.34,56.91 l 47.4,24.79 c 26.51,13.85 45.82,15.42 60.57,-12.66 l 14.91,-28.68 c 14.67,-28 2.32,-42.9 -24.26,-56.83 l -47.41,-24.71 c -26.57,-13.93 -45.89,-15.58 -60.57,12.5 l -14.98,28.68"
             inkscape:connector-curvature="0" /><path
             id="path216"
             style="fill:#f9e10e;fill-opacity:1;fill-rule:nonzero;stroke:none"
             d="m 2073.12,8205.15 121.83,36.03 7.64,-25.84 -45,-13.26 23.13,-78.09 -31.97,-9.44 -23.14,78.02 -44.85,-13.25 -7.64,25.83"
             inkscape:connector-curvature="0" /><path
             id="path218"
             style="fill:#f9e10e;fill-opacity:1;fill-rule:nonzero;stroke:none"
             d="m 2265.7,8168.84 59.47,5.77 c 7.18,0.75 11.75,2.77 11.15,9.13 -0.75,7.26 -5.63,8.39 -12.81,7.64 l -59.45,-5.69 1.64,-16.85 m -3.89,39.16 58.79,5.77 c 6.13,0.59 9.5,3.06 8.83,9.21 -0.6,6.21 -4.35,8.16 -10.49,7.56 l -58.7,-5.77 z m -37.37,39.46 95.47,9.36 c 26.59,2.55 40.07,-3.37 42.17,-24.49 1.79,-18.41 -4.57,-22.68 -13.63,-26.2 l 0.07,-0.53 c 14.68,-0.29 20.83,-7.56 22.38,-23.73 2.33,-23.66 -11.22,-30.03 -30.25,-31.9 l -105.57,-10.33 -10.64,107.82"
             inkscape:connector-curvature="0" /><path
             id="path220"
             style="fill:#f9e10e;fill-opacity:1;fill-rule:nonzero;stroke:none"
             d="m 2425.35,8197.67 c -1.73,-15.65 0.83,-22.01 16.48,-23.81 l 42.3,-4.95 c 15.72,-1.72 19.7,3.74 21.41,19.4 l 1.43,11.6 c 1.57,13.26 -0.75,21.87 -18.27,23.89 l -38.72,4.5 c -17.52,2.09 -21.72,-5.7 -23.28,-19.18 l -1.35,-11.45 m -31.44,25.76 c 3.74,31.45 22.22,36.76 52.11,33.39 l 53.08,-6.14 c 29.87,-3.52 46.8,-12.95 43.06,-44.55 l -3.82,-32.05 c -3.45,-31.53 -22.16,-36.84 -51.89,-33.47 l -53.17,6.22 c -29.8,3.52 -46.72,13.02 -43.06,44.47 l 3.69,32.13"
             inkscape:connector-curvature="0" /><path
             id="path222"
             style="fill:#f9e10e;fill-opacity:1;fill-rule:nonzero;stroke:none"
             d="m 2580.64,8234.28 31.76,-10.03 -24.2,-76.75 71.53,-22.54 -8.4,-26.51 -103.19,32.5 32.5,103.33"
             inkscape:connector-curvature="0" /><path
             id="path224"
             style="fill:#f9e10e;fill-opacity:1;fill-rule:nonzero;stroke:none"
             d="m 2709.22,8190.7 29.73,-14.82 -35.86,-72.04 66.93,-33.54 -12.43,-24.86 -96.81,48.44 48.44,96.82"
             inkscape:connector-curvature="0" /><path
             id="path226"
             style="fill:#f9e10e;fill-opacity:1;fill-rule:nonzero;stroke:none"
             d="m 2829.78,8127.58 91.71,-66.87 -15.35,-21.04 -64.76,47.25 -11.99,-16.25 61.78,-45.08 -14.9,-20.29 -61.62,45 -21.86,-29.87 -26.81,19.69 63.8,87.46"
             inkscape:connector-curvature="0" /><path
             id="path228"
             style="fill:#f9e10e;fill-opacity:1;fill-rule:nonzero;stroke:none"
             d="m 3026.78,8002.08 19.47,-21.19 -16.47,-15.2 -19.62,21.27 16.62,15.12 m -27.64,30.1 19.48,-21.26 -16.47,-15.2 -19.48,21.26 z m -72.25,-58.77 c -11.38,-10.57 -13.71,-17.07 -2.99,-28.69 l 28.82,-31.44 c 10.64,-11.54 17.3,-9.96 28.9,0.67 l 8.55,7.94 c 9.96,9.06 13.78,17.07 1.94,30.03 l -26.44,28.75 c -12.06,12.88 -20.14,9.74 -30.02,0.6 z m -6.88,40.13 c 23.28,21.41 41.03,13.33 61.32,-8.77 l 36.08,-39.38 c 20.3,-22.09 26.97,-40.28 3.45,-61.69 l -23.73,-21.95 c -23.37,-21.41 -40.89,-13.32 -61.25,8.77 l -36.09,39.37 c -20.37,22.1 -26.96,40.29 -3.52,61.71 l 23.74,21.94"
             inkscape:connector-curvature="0" /><path
             id="path230"
             style="fill:#f9e10e;fill-opacity:1;fill-rule:nonzero;stroke:none"
             d="m 3041.45,7843.11 27.93,-47.47 c 4.58,-7.72 9.44,-8.76 16.11,-4.79 l 3.06,1.79 c 8.25,4.88 7.35,9.97 2.04,18.95 l -26.37,44.85 -22.77,-13.33 m 28.98,55.78 51.07,-86.69 c 13.03,-22.09 5.54,-34.53 -11.23,-44.34 l -5.91,-3.52 c -12.44,-7.41 -21.57,-8.83 -32.28,2.47 l -0.3,-0.14 c 3.44,-9.45 3.97,-18.8 -11.53,-27.87 l -15.8,-9.28 -16.77,28.68 11.16,6.66 c 9.66,5.77 11.31,10.49 5.98,19.48 l -26.66,45.07 -24.1,-14.3 -17.01,28.75 93.38,55.03"
             inkscape:connector-curvature="0" /><path
             id="path232"
             style="fill:#f9e10e;fill-opacity:1;fill-rule:nonzero;stroke:none"
             d="m 3124.65,7703.17 19.09,-55.87 c 1.94,-5.76 5.24,-8.38 11.16,-6.51 5.84,2.02 6.81,6.21 4.79,12.06 l -19.02,55.7 -16.02,-5.38 m -37.22,-12.66 19.25,-56.54 c 2.47,-6.88 5.54,-10.85 11.38,-8.83 6.96,2.32 6.96,7.41 4.79,14.3 l -19.39,56.46 z m 67.16,58.03 30.86,-90.75 c 8.68,-25.16 6.14,-39.69 -14,-46.58 -17.68,-5.91 -23.22,-0.67 -28.76,7.26 l -0.37,-0.14 c 2.99,-14.38 -2.62,-22.02 -18.12,-27.34 -22.54,-7.63 -31.67,4.2 -37.89,22.17 l -34.38,100.48 102.66,34.9"
             inkscape:connector-curvature="0" /><path
             id="path234"
             style="fill:#f9e10e;fill-opacity:1;fill-rule:nonzero;stroke:none"
             d="m 3207.54,7580.66 4.2,-33.02 -62.09,-7.63 c -13.7,-1.73 -18.41,-7.27 -16.76,-20.9 l 4.03,-32.72 c 1.65,-13.63 7.73,-17.9 21.42,-16.1 l 61.99,7.56 4.06,-33.02 -69.19,-8.53 c -26.81,-3.3 -41.25,8.91 -44.93,39.38 l -5.91,47.25 c -3.74,30.4 7.33,45.9 34.06,49.19 l 69.12,8.54"
             inkscape:connector-curvature="0" /><path
             id="path236"
             style="fill:#f9e10e;fill-opacity:1;fill-rule:nonzero;stroke:none"
             d="m 3225.65,7404.84 -4.63,-51.51 -84.1,-55.19 v -0.22 l 78.48,-7.12 -3.22,-33.31 -107.89,9.88 4.86,51.44 83.94,55.19 v 0.29 l -78.4,7.19 3.14,33.17 107.82,-9.81"
             inkscape:connector-curvature="0" /><path
             id="path238"
             style="fill:#f9e10e;fill-opacity:1;fill-rule:nonzero;stroke:none"
             d="m 3116.86,7209.71 -18.05,-56.24 c -4.34,-13.62 -2.17,-20.14 12.44,-24.78 l 14,-4.49 c 14.74,-4.8 20.14,-0.68 24.63,12.88 l 18.04,56.38 -51.06,16.25 m 86.64,7.27 -30.55,-95.78 c -10.19,-31.75 -24.04,-39.61 -49.65,-31.45 l -31.38,10.11 c -25.46,8.16 -32.19,22.62 -22.09,54.37 l 30.71,95.77 102.96,-33.02"
             inkscape:connector-curvature="0" /><path
             id="path240"
             style="fill:#f9e10e;fill-opacity:1;fill-rule:nonzero;stroke:none"
             d="m 3143.52,7045.65 -57.74,-103.93 -22.01,12.13 41.48,74.87 -15.12,8.4 -39.39,-70.92 -19.55,10.93 39.32,70.84 -15.27,8.46 -42.39,-76.52 -22.75,12.65 58.63,105.66 94.79,-52.57"
             inkscape:connector-curvature="0" /><path
             id="path242"
             style="fill:#f9e10e;fill-opacity:1;fill-rule:nonzero;stroke:none"
             d="m 3069.9,6917.68 -80.19,-98.39 -20.96,17 29.57,36.31 -62.97,51.45 21.05,25.83 63.04,-51.44 29.65,36.32 20.81,-17.08"
             inkscape:connector-curvature="0" /><path
             id="path244"
             style="fill:#f9e10e;fill-opacity:1;fill-rule:nonzero;stroke:none"
             d="m 2272.52,6579.9 24.48,-74.88 h 161.66 l 20.37,75.85 -8.53,0.23 c 0,0 -4.71,-0.37 -8.62,-2.55 -3.74,-2.17 -4.18,-2.47 -5.52,-4.19 -1.36,-1.65 -0.91,-2.92 0,-4.64 0.95,-1.8 2.3,-3.52 2.3,-3.52 l -8.52,0.22 c 0,0 -10.35,0.15 -13.64,-1.94 -3.22,-2.18 -6.05,-4.72 -4.7,-7.34 1.48,-2.62 1.48,-6.29 7.56,-7.79 6.13,-1.5 12.73,-2.17 18.34,-1.12 5.77,1.12 2.99,-3.82 2.99,-3.82 0,0 -1.57,-3.67 -7.64,-5.62 -6.06,-1.95 -13.26,-2.91 -17.96,-2.24 -4.64,0.66 -8.02,0.89 -10.34,3.52 -2.32,2.61 -3.3,5.39 -3.3,5.39 l -4.18,-3.9 -2.86,-2.77 c 0,0 -3.29,-4.34 -12.26,-2.91 -8.93,1.56 -15.97,1.79 -18.44,6.13 -2.32,4.35 -1.34,10.4 -1.34,10.4 l 6.59,-2.91 c 0,0 8.01,-4.64 17.82,-1.87 9.97,2.77 17.53,9.06 10.93,13.4 -6.59,4.34 -18.42,6.89 -23.06,5.54 -4.8,-1.2 1.8,1.13 2.32,3.74 0.44,2.55 -2.77,9.29 -12.66,9.96 -9.95,0.6 -21.26,0 -24.1,-3.44 -2.86,-3.44 -5.62,-5.39 -2.33,-7.64 3.15,-2.09 5.17,-3.15 5.17,-3.15 l -8.02,0.53 c 0,0 -15.57,0.22 -18.49,-4.72 -2.69,-4.94 -3.66,-7.78 3.37,-10.48 7.04,-2.85 6.59,-3.36 14.24,-3.14 7.4,0.29 16.39,4.34 16.39,4.34 l -0.37,-10.33 c 0,0 -2.47,-4.8 -9.53,-5.92 -7.1,-0.97 -16.98,-2.1 -21.63,0.52 -4.72,2.55 -8.01,8.47 -8.01,8.47 l -4.79,-5.24 c 0,0 -2.32,-5.62 -13.63,-4.19 -11.31,1.56 -20.22,1.56 -20.74,7.18 -0.45,5.61 -0.45,6.44 -0.45,6.44 0,0 6.06,-3.14 12.73,-2.32 6.58,0.83 16.03,3.22 15.05,7.71 -0.9,4.56 -0.37,6.96 -8.47,8.69 -8,1.79 -15.49,2.46 -17.43,1.95 -1.88,-0.38 2.32,4.34 2.32,4.34 l 1.41,3.66 c 0,0 0,2.55 -3.29,3.67 -3.29,1.13 -12.2,3.07 -12.2,3.07 l -8.99,-0.37"
             inkscape:connector-curvature="0" /><path
             id="path246"
             style="fill:#f9e10e;fill-opacity:1;fill-rule:nonzero;stroke:none"
             d="m 2519.63,6700.31 24.39,-74.81 h 161.61 l 20.37,75.86 -8.47,0.22 c 0,0 -4.65,-0.45 -8.55,-2.54 -3.73,-2.11 -4.11,-2.4 -5.53,-4.13 -1.5,-1.79 -0.97,-2.99 0,-4.79 0.83,-1.72 2.18,-3.44 2.18,-3.44 l -8.39,0.23 c 0,0 -10.35,0.21 -13.64,-1.96 -3.21,-2.16 -6.14,-4.71 -4.56,-7.34 1.35,-2.62 1.35,-6.28 7.42,-7.78 6.14,-1.5 12.72,-2.1 18.41,-1.12 5.62,1.12 2.77,-3.82 2.77,-3.82 0,0 -1.42,-3.67 -7.48,-5.62 -6.07,-1.95 -13.27,-2.92 -17.9,-2.25 -4.8,0.68 -8.09,0.91 -10.4,3.52 -2.33,2.55 -3.31,5.4 -3.31,5.4 l -4.34,-3.9 -2.76,-2.77 c 0,0 -3.3,-4.34 -12.29,-2.92 -8.83,1.58 -16.03,1.88 -18.34,6.06 -2.4,4.35 -1.43,10.49 -1.43,10.49 l 6.61,-2.84 c 0,0 7.99,-4.8 17.88,-1.95 9.89,2.84 17.53,9.13 10.86,13.33 -6.59,4.33 -18.42,6.96 -23.06,5.68 -4.73,-1.35 1.79,1.06 2.31,3.68 0.45,2.55 -2.84,9.29 -12.8,9.88 -9.81,0.68 -21.03,0 -24.04,-3.37 -2.77,-3.52 -5.54,-5.39 -2.17,-7.56 3.3,-2.17 5.18,-3.22 5.18,-3.22 l -8.09,0.59 c 0,0 -15.51,0.23 -18.43,-4.71 -2.77,-5.02 -3.66,-7.78 3.29,-10.64 7.03,-2.84 6.67,-3.21 14.16,-3.06 7.56,0.22 16.55,4.41 16.55,4.41 l -0.53,-10.48 c 0,0 -2.32,-4.71 -9.36,-5.76 -7.11,-1.13 -17.07,-2.17 -21.71,0.44 -4.71,2.55 -8.01,8.39 -8.01,8.39 l -4.72,-5.17 c 0,0 -2.32,-5.61 -13.63,-4.19 -11.38,1.58 -20.22,1.58 -20.81,7.19 -0.53,5.69 -0.53,6.52 -0.53,6.52 0,0 6.21,-3.3 12.88,-2.33 6.51,0.83 16.03,3.22 15.05,7.72 -0.9,4.49 -0.52,6.96 -8.54,8.68 -8.01,1.64 -15.42,2.4 -17.45,1.87 -1.94,-0.37 2.34,4.35 2.34,4.35 l 1.4,3.74 c 0,0 0,2.55 -3.35,3.67 -3.15,1.05 -12.13,2.92 -12.13,2.92 l -8.91,-0.37"
             inkscape:connector-curvature="0" /><path
             id="path248"
             style="fill:#f9e10e;fill-opacity:1;fill-rule:nonzero;stroke:none"
             d="m 2008.12,6700.31 24.56,-74.81 h 161.67 l 20.21,75.86 -8.46,0.22 c 0,0 -4.57,-0.45 -8.39,-2.54 -3.81,-2.11 -4.34,-2.4 -5.68,-4.13 -1.43,-1.79 -0.98,-2.99 0,-4.79 0.9,-1.72 2.32,-3.44 2.32,-3.44 l -8.46,0.23 c 0,0 -10.34,0.21 -13.63,-1.96 -3.38,-2.16 -6.22,-4.71 -4.73,-7.34 1.35,-2.62 1.35,-6.28 7.42,-7.78 6.3,-1.5 12.88,-2.1 18.42,-1.12 5.7,1.12 2.92,-3.82 2.92,-3.82 0,0 -1.42,-3.67 -7.55,-5.62 -6.15,-1.95 -13.19,-2.92 -17.9,-2.25 -4.8,0.68 -8.02,0.91 -10.42,3.52 -2.39,2.55 -3.29,5.4 -3.29,5.4 l -4.27,-3.9 -2.77,-2.77 c 0,0 -3.28,-4.34 -12.27,-2.92 -8.92,1.58 -16.03,1.88 -18.43,6.06 -2.31,4.35 -1.34,10.49 -1.34,10.49 l 6.58,-2.84 c 0,0 7.94,-4.8 17.9,-1.95 9.89,2.84 17.45,9.13 10.78,13.33 -6.5,4.33 -18.34,6.96 -23.07,5.68 -4.7,-1.35 1.88,1.06 2.33,3.68 0.53,2.55 -2.77,9.29 -12.66,9.88 -9.88,0.68 -21.19,0 -24.1,-3.37 -2.77,-3.52 -5.62,-5.39 -2.32,-7.56 3.36,-2.17 5.23,-3.22 5.23,-3.22 l -8.01,0.59 c 0,0 -15.56,0.23 -18.34,-4.71 -2.92,-5.02 -3.89,-7.78 3.22,-10.64 7.03,-2.84 6.59,-3.21 14.15,-3.06 7.5,0.22 16.47,4.41 16.47,4.41 l -0.44,-10.48 c 0,0 -2.32,-4.71 -9.52,-5.76 -7.03,-1.13 -16.84,-2.17 -21.56,0.44 -4.71,2.55 -8.09,8.39 -8.09,8.39 l -4.79,-5.17 c 0,0 -2.32,-5.61 -13.55,-4.19 -11.31,1.58 -20.3,1.58 -20.82,7.19 -0.38,5.69 -0.38,6.52 -0.38,6.52 0,0 6.07,-3.3 12.66,-2.33 6.67,0.83 16.03,3.22 15.13,7.72 -0.9,4.49 -0.46,6.96 -8.46,8.68 -8.09,1.64 -15.58,2.4 -17.45,1.87 -1.88,-0.37 2.32,4.35 2.32,4.35 l 1.42,3.74 c 0,0 0,2.55 -3.37,3.67 -3.22,1.05 -12.2,2.92 -12.2,2.92 l -8.99,-0.37"
             inkscape:connector-curvature="0" /><path
             id="path250"
             style="fill:#f9e10e;fill-opacity:1;fill-rule:nonzero;stroke:none"
             d="m 1328.29,5970.98 h 136.29 c 0.67,-47.32 19.69,-51 58.92,-51 h 166.98 c 28.83,0 58.33,3.08 58.33,37.45 0,38.64 -15.95,41.11 -191.53,41.11 -205.03,0 -228.39,24.63 -228.39,133.81 0,80.42 7.34,142.5 179.26,142.5 h 190.35 c 157.16,0 171.84,-53.4 171.84,-131.42 v -14.08 h -136.2 c 0,32.5 -3.74,46.05 -66.35,46.05 h -151.03 c -30.7,0 -51.51,-10.41 -51.51,-34.45 0,-38.63 16.55,-39.91 162.63,-39.23 211.76,0.6 260.88,-12.35 260.88,-141.82 0,-119.73 -40.51,-139.35 -221.64,-139.35 h -165.11 c -124.07,0 -173.72,23.29 -173.72,119.73 v 30.7"
             inkscape:connector-curvature="0" /><path
             id="path252"
             style="fill:#f9e10e;fill-opacity:1;fill-rule:nonzero;stroke:none"
             d="m 1933.62,6138.49 h 128.27 l 95.77,-220.89 95.76,220.89 h 128.28 l -150.37,-313 h -147.35 l -150.36,313"
             inkscape:connector-curvature="0" /><path
             id="path254"
             style="fill:#f9e10e;fill-opacity:1;fill-rule:nonzero;stroke:none"
             d="m 2434.49,6269.9 h 464.09 v -106.85 h -327.74 v -82.82 h 312.55 v -103.18 h -312.55 v -151.56 h -136.35 v 444.41"
             inkscape:connector-curvature="0" /><path
             id="path256"
             style="fill:#f9e10e;fill-opacity:1;fill-rule:nonzero;stroke:none"
             d="m 2983.95,6269.9 h 464.18 v -106.85 h -327.9 v -82.82 h 312.54 v -103.18 h -312.54 v -151.56 h -136.28 v 444.41"
             inkscape:connector-curvature="0" /></g></g></g></g></svg>