<?xml version="1.0" encoding="UTF-8" standalone="no"?>
<svg
   xmlns:dc="http://purl.org/dc/elements/1.1/"
   xmlns:cc="http://creativecommons.org/ns#"
   xmlns:rdf="http://www.w3.org/1999/02/22-rdf-syntax-ns#"
   xmlns:svg="http://www.w3.org/2000/svg"
   xmlns="http://www.w3.org/2000/svg"
   viewBox="0 0 800 944.84003"
   height="944.84003"
   width="800"
   xml:space="preserve"
   id="svg2"
   version="1.1"><metadata
     id="metadata8"><rdf:RDF><cc:Work
         rdf:about=""><dc:format>image/svg+xml</dc:format><dc:type
           rdf:resource="http://purl.org/dc/dcmitype/StillImage" /></cc:Work></rdf:RDF></metadata><defs
     id="defs6" /><g
     transform="matrix(1.3333333,0,0,-1.3333333,0,944.84)"
     id="g10"><g
       transform="scale(0.1)"
       id="g12"><path
         id="path14"
         style="fill:#d91e25;fill-opacity:1;fill-rule:nonzero;stroke:none"
         d="m 1402.99,7080.12 c 70.19,20.19 141.27,-13.82 208.17,-32.46 863.86,-276.18 1808.22,-287.37 2678.23,-31.36 100.69,23.02 197.66,79.41 303.6,67.77 182.3,-154.43 351.22,-325.1 530.22,-483.69 249.19,-238.67 512,-463.75 756.16,-707.25 115.83,-461.98 131.61,-943.48 115.16,-1417.97 C 5965.57,3720.32 5741.59,2977.56 5370.21,2320.98 4983.24,1635.7 4457.42,1029.6 3837.72,544.57 3598.4,355.039 3343.49,185.922 3083.75,25.7617 3038.57,-5.80859 2974.74,-9.53906 2928.02,21.1484 2489.29,286.359 2072.5,590.633 1701.98,945.582 1086.23,1542.47 581.25,2265.05 286.637,3073.42 41.6055,3736.78 -35.1758,4454.09 14.1836,5157.16 c 16.457,234.51 47.6016,467.92 97.3944,697.81 10.098,63.84 72.387,98.05 114.297,140.61 393.98,359.54 782.255,726.33 1177.115,1084.54 v 0" /><path
         id="path16"
         style="fill:#ffffff;fill-opacity:1;fill-rule:nonzero;stroke:none"
         d="m 3112.72,6019.06 c 78.08,89.72 155.1,180.74 229.24,273.98 -0.44,-117.14 -11.18,-234.28 -11.18,-351.43 97.38,-62.29 217.17,-82.7 315.45,-145.87 -110.8,-29.39 -221.37,-59.66 -332.35,-87.96 -10.97,-118.9 -19.96,-237.8 -27.64,-356.91 -67.34,99.16 -130.52,200.93 -196.76,300.75 -114.74,-30.5 -230.78,-55.51 -345.07,-87.75 71.29,94.76 147.4,185.79 224.63,275.75 -57.92,104.19 -125.48,202.47 -186.9,304.69 111.66,-38.16 220.67,-83.14 330.58,-125.25 v 0" /><path
         id="path18"
         style="fill:#ffffff;fill-opacity:1;fill-rule:nonzero;stroke:none"
         d="m 1054.64,5847.95 c 259.73,268.06 656.34,397.93 1023.77,329.71 164.74,-25.89 318.3,-97.18 459.13,-184.05 -189.08,73.27 -398.8,104.42 -597.54,52.43 -310.84,-75.9 -567.94,-336.29 -640.33,-648.01 -60.99,-240.65 -9.21,-506.07 133.82,-708.55 192.15,-276.62 547.75,-430.83 880.52,-364.15 293.08,52.87 550.83,264.78 659.2,541.83 31.8,79.41 51.56,162.77 66.68,246.58 21.94,-327.08 -100.91,-664.02 -335.4,-894.58 -168.26,-173.3 -392.45,-292.19 -631.56,-329.27 -351.21,-62.52 -729.17,51.12 -986.05,299.22 -235.157,216.73 -374.239,536.57 -365.681,856.84 -2.637,297.68 124.375,591.62 333.441,802 v 0" /><path
         id="path20"
         style="fill:#ffffff;fill-opacity:1;fill-rule:nonzero;stroke:none"
         d="M 753.438,2472.36 C 2418.21,3544.61 4080.12,4621.48 5742.93,5696.81 5862.46,4981.24 5865.55,4238.03 5678.43,3533.43 5478.57,2767.39 5072.32,2065.86 4556.82,1469.42 4115.87,955 3581.5,525.281 2999.76,179.98 2513.41,474.152 2056.92,820.742 1662.07,1230.52 1310.63,1604.98 989.922,2014.98 753.438,2472.36 v 0" /><path
         id="path22"
         style="fill:#d91e25;fill-opacity:1;fill-rule:nonzero;stroke:none"
         d="m 5001.03,4414.18 c -22.83,134.46 98.49,302.06 245.02,244.15 89.51,-40.8 71.09,-148.51 32.24,-219.58 69.33,30.93 161.25,30.05 204.67,-41.91 81.84,-142.8 -36.85,-329.7 -180.76,-375.99 -50.87,-22.8 -125.69,21.29 -92.57,80.29 27.42,74.14 104.65,15.8 154.88,6.59 41.46,13.16 42.56,67.55 35.1,102.88 -16.9,55.49 -48.7,112.32 -101.56,140.17 -59.9,20.19 -96.53,-47.38 -141.93,-73.05 9.86,75.9 67.34,157.29 22.15,231.21 -16.67,36.64 -71.95,39.7 -99.17,13.17 -25.87,-35.98 -36.63,-84.68 -78.07,-107.93 v 0" /><path
         id="path24"
         style="fill:#d91e25;fill-opacity:1;fill-rule:nonzero;stroke:none"
         d="m 4668.04,4338.72 c 42.76,74.36 140.82,112.53 220.89,78.09 45.41,-28.3 71.07,-85.99 64.49,-138.64 -12.73,-63.18 -46.72,-118.67 -74.14,-175.93 69.09,39.71 137.32,88.41 151.35,172.86 5.48,-0.87 16.24,-2.19 21.72,-3.07 17.54,-53.3 20.85,-109.9 27.43,-165.41 -110.35,-57.68 -201.62,-146.53 -315.91,-196.55 24.58,88.84 66.48,172.65 80.53,264.12 10.09,54.63 -32.47,127.46 -94.56,113.85 -69.31,-20.4 -55.93,-113.18 -118.46,-140.39 -1.53,64.92 0.23,134.47 36.66,191.07 v 0" /><path
         id="path26"
         style="fill:#d91e25;fill-opacity:1;fill-rule:nonzero;stroke:none"
         d="m 4205.38,3821.45 c -97.39,186.69 130.52,404.07 316.31,331.47 117.17,-52.22 175.5,-192.4 155.1,-315.46 -20.6,-136 -92.78,-263.24 -190.39,-359.09 -7.25,0.22 -21.73,0.42 -28.98,0.42 19.77,73.06 75.91,131.62 89.08,207.53 42.34,141.72 -35.11,287.8 -135.13,384.77 -32.7,46.06 -115.82,22.15 -114.74,-35.32 0,-84.45 62.09,-152.45 119.35,-207.73 31.58,13.15 63.59,25.66 96.08,37.28 -5.27,-158.6 -248.54,-179.87 -306.68,-43.87 v 0" /><path
         id="path28"
         style="fill:#d91e25;fill-opacity:1;fill-rule:nonzero;stroke:none"
         d="m 3861.63,3812.45 c 68.23,40.81 129.85,91.48 199.63,129.88 1.09,-47.39 -42.35,-78.77 -46.95,-123.94 42.35,-78.97 90.59,-155.76 147.85,-224.64 39.94,-17.12 84.47,11.85 126.14,11.41 -23.49,-44.76 -70.62,-64.71 -111.22,-89.94 -71.3,-41.91 -134.24,-96.53 -209.04,-132.72 0.63,50.67 73.92,89.05 44.29,138.87 -44.54,76.55 -94.32,150.25 -150.46,218.7 -38.84,-10.09 -77.9,-17.99 -117.38,-23.91 26.12,46.28 73.94,69.54 117.14,96.29 v 0" /><path
         id="path30"
         style="fill:#d91e25;fill-opacity:1;fill-rule:nonzero;stroke:none"
         d="m 2414.48,3169.71 c 240.87,132.93 527.8,184.72 798.72,133.16 331.23,-55.71 629.57,-261.27 808.58,-544.02 153.98,-243.5 219.59,-543.81 172.19,-828.77 -58.13,-395.94 -330.81,-751.53 -696.47,-913.2 -80.97,-38.4 -167.38,-62.54 -253.61,-86.001 -13.81,11.851 -27.43,23.691 -41,35.523 67.12,3.957 133.38,19.317 193.46,50.238 -37.29,23.05 -64.71,73.92 -113.4,73.04 -182.95,1.55 -365.9,0.23 -548.86,0.67 -58.12,8.54 -91.25,-48.48 -130.07,-80.5 193.69,-66.03 402.1,-86.659 604.11,-51.549 -4.81,-10.961 -14.69,-32.692 -19.51,-43.66 -129.66,-1.532 -260.83,-14.911 -389.16,11.398 -370.28,61.211 -703.06,306.241 -872.19,641.001 -147.63,283.42 -172.42,626.95 -70.41,929.22 93.88,283.42 297.02,528.23 557.62,673.45 v 0" /><path
         id="path32"
         style="fill:#ffffff;fill-opacity:1;fill-rule:nonzero;stroke:none"
         d="m 2061.97,2812.58 c 153.76,217.84 390.69,376.66 649.97,438.09 -29.83,-51.35 -57.69,-107.71 -109.68,-140.4 -119.77,-83.57 -239.33,-167.58 -359.32,-250.73 -51.77,-39.48 -119.33,-39.06 -180.97,-46.96 v 0" /><path
         id="path34"
         style="fill:#ffffff;fill-opacity:1;fill-rule:nonzero;stroke:none"
         d="m 3290.63,3250.01 c 264.55,-56.82 492.47,-226.18 656.56,-437.2 -65.6,7.67 -138.2,6.14 -192.4,50.01 -116.47,81.83 -233.18,163.43 -350.1,244.15 -53.3,33.78 -82.9,90.83 -114.06,143.04 v 0" /><path
         id="path36"
         style="fill:#ffffff;fill-opacity:1;fill-rule:nonzero;stroke:none"
         d="m 2238.99,2817.64 c 136.45,90.8 265.21,196.09 408.02,275.29 117.8,-45.84 225.06,-115.15 338.7,-170 -5.7,-124.83 11.18,-252.7 -8.12,-375.34 -82.47,-67.57 -173.95,-123.72 -257.76,-189.95 -30.47,-19.09 -61.64,-57.05 -101.34,-37.31 -126.14,41.24 -252.48,82.05 -377.74,126.15 1.53,123.7 -12.29,247.88 -1.76,371.16 v 0" /><path
         id="path38"
         style="fill:#ffffff;fill-opacity:1;fill-rule:nonzero;stroke:none"
         d="m 3248.96,3044.46 c 37.95,17.32 73.91,45.41 116.91,46.5 139.52,-86.2 269.81,-187.34 406.49,-278.38 -8.78,-121.95 6.58,-246.12 -15.57,-366.77 -133.61,-52.2 -272.24,-90.81 -408.25,-136 -106.83,87.52 -229.66,155.75 -330.36,249.63 -5.47,119.34 -6.35,239.99 0.43,359.33 71.97,50 154.44,82.47 230.35,125.69 v 0" /><path
         id="path40"
         style="fill:#ffffff;fill-opacity:1;fill-rule:nonzero;stroke:none"
         d="m 1993.3,2168.97 c 75.24,83.36 153.78,165.18 237.36,240.21 141.92,-37.3 281.44,-86.44 419.2,-137.77 34.01,-123.29 80.73,-242.82 116.05,-365.89 9.65,-26.34 -15.37,-48.06 -25.9,-69.76 -77.43,-113.2 -152.68,-228.14 -229.23,-342.01 -125.92,30.51 -250.51,65.82 -375.12,100.47 -43.21,192.4 -114.5,380.17 -142.36,574.75 v 0" /><path
         id="path42"
         style="fill:#ffffff;fill-opacity:1;fill-rule:nonzero;stroke:none"
         d="m 3363.69,2282.82 c 137.31,35.55 268.26,91.27 405.37,127.24 86.65,-79.63 173.53,-162.56 246.79,-254.7 -48.92,-187.98 -98.26,-375.98 -150.49,-563.11 -123.06,-30.69 -243.91,-69.75 -368.08,-96.29 -98.08,123.29 -175.94,262.36 -267.63,390.68 46.05,131.62 83.13,266.32 134.04,396.18 v 0" /><path
         id="path44"
         style="fill:#ffffff;fill-opacity:1;fill-rule:nonzero;stroke:none"
         d="m 1842.81,2290.5 c 46.73,-56.39 108.81,-106.63 123.5,-182.07 41.25,-155.98 81.4,-312.39 123.51,-468.34 27.43,-94.34 21.72,-193.7 24.56,-290.66 -222.42,252.92 -329.48,608.07 -271.57,941.07 v 0" /><path
         id="path46"
         style="fill:#ffffff;fill-opacity:1;fill-rule:nonzero;stroke:none"
         d="m 4031,2086.49 c 11.61,84.9 74.57,145.22 132.92,201.82 47.39,-332.78 -48.48,-688.6 -276.85,-938.45 -14.02,254.69 90.84,492.26 143.93,736.63 v 0" /><path
         id="path48"
         style="fill:#ffffff;fill-opacity:1;fill-rule:nonzero;stroke:none"
         d="m 2801.66,1872.4 c 132.06,2.39 264.13,0.42 395.97,1.51 93,-132.7 180.52,-269.14 271.77,-402.97 -58.11,-114.3 -112.74,-230.1 -168.68,-345.51 -199.64,-0.42 -399.47,-1.08 -599.09,0.46 -51.33,115.17 -113.42,225.52 -161.67,341.77 75.46,141.26 178.12,267.63 261.7,404.74 v 0" /></g></g></svg>