<?xml version="1.0" encoding="UTF-8" standalone="no"?>
<svg
   xmlns:dc="http://purl.org/dc/elements/1.1/"
   xmlns:cc="http://creativecommons.org/ns#"
   xmlns:rdf="http://www.w3.org/1999/02/22-rdf-syntax-ns#"
   xmlns:svg="http://www.w3.org/2000/svg"
   xmlns="http://www.w3.org/2000/svg"
   viewBox="0 0 800 917.5733"
   height="917.5733"
   width="800"
   xml:space="preserve"
   id="svg2"
   version="1.1"><metadata
     id="metadata8"><rdf:RDF><cc:Work
         rdf:about=""><dc:format>image/svg+xml</dc:format><dc:type
           rdf:resource="http://purl.org/dc/dcmitype/StillImage" /></cc:Work></rdf:RDF></metadata><defs
     id="defs6"><clipPath
       id="clipPath20"
       clipPathUnits="userSpaceOnUse"><path
         id="path18"
         d="M 0,6881.85 V 0 h 6000 v 6881.85 z" /></clipPath></defs><g
     transform="matrix(1.3333333,0,0,-1.3333333,0,917.57333)"
     id="g10"><g
       transform="scale(0.1)"
       id="g12"><g
         id="g14"><g
           clip-path="url(#clipPath20)"
           id="g16"><path
             id="path22"
             style="fill:#27883d;fill-opacity:1;fill-rule:nonzero;stroke:none"
             d="m 2911.2,6881.85 h 174.56 c 410.84,-5.34 821.62,-44.23 1224.87,-124.26 278.98,-56.49 555.61,-130.17 820,-236.66 29.16,-13.16 60.82,-22.33 87.55,-40.4 21.13,-29.52 34.72,-63.8 51.22,-96.1 -2.06,-36.21 18.15,-67.85 29.59,-100.93 212.61,-552.12 344.77,-1141.01 336.89,-1734.74 -2.5,-287.52 -38.28,-574.96 -108.13,-853.93 -119.57,-483.76 -343.48,-938.93 -637.9,-1339.96 -301.18,-411.92 -673.4,-768.86 -1082.83,-1072.15 -230.18,-169.23 -472.03,-323.091 -725.46,-455.169 -26.03,-13.301 -50.8,-31.082 -79.74,-37.492 -13.59,1.421 -25.82,8.472 -37.91,14.082 -244.05,122.429 -476.79,266.729 -698.79,425.439 -410.35,293.91 -785.71,639.97 -1093.14,1041.21 -169.94,219.52 -318.168,456.02 -439.019,706.04 -136.645,277.06 -235.875,572.32 -297.684,874.91 -68.222,336.45 -87.636,682.22 -63.027,1024.43 34.43,486.25 155.641,963.54 331.188,1417.22 10.175,23.9 22.05,48.65 18.132,75.46 16.657,34.29 32.942,68.79 51.789,101.93 8.18,16.79 27.817,21.06 43.18,28.74 274.771,116.52 564.281,194.97 856.271,254.93 407.51,82.09 822.99,121.85 1238.39,127.4 v 0" /><path
             id="path24"
             style="fill:#d7cd10;fill-opacity:1;fill-rule:nonzero;stroke:none"
             d="m 2288.66,6709.57 c 10.17,20.2 20.56,41.26 38.56,55.69 24.75,-5.55 33.78,-35.63 45.52,-55.69 23.69,1.64 47.44,0.14 70.85,-4.34 -3.2,-24.32 -15.87,-45.23 -28.1,-65.86 9.74,-21.77 24.11,-42.26 29.02,-66.37 -23.47,-7.61 -48.16,-9.54 -72.62,-7.11 -10.75,-19.64 -20.14,-49.16 -44.46,-53.64 -18.92,12.38 -28.46,33.72 -37.56,53.42 -23.68,-1.63 -47.44,-0.14 -70.56,5.33 1.85,25.12 13.8,47.32 28.17,67.38 -14.66,19.76 -25.89,42.1 -28.81,66.78 23.05,4.69 46.59,6.05 69.99,4.41 v 0" /><path
             id="path26"
             style="fill:#d7cd10;fill-opacity:1;fill-rule:nonzero;stroke:none"
             d="m 3625.93,6709.57 c 8.82,21.84 22.61,41.12 38.69,58.26 21.27,-13.94 31.93,-37.27 45.46,-57.69 22.97,-0.64 46.07,-0.85 68.78,-5.55 -2.71,-24.68 -13.52,-47.02 -28.74,-66.36 13.59,-19.99 24.04,-41.83 30.88,-65.01 -22.97,-9.9 -48.3,-8.11 -72.64,-9.54 -11.16,-21.06 -23.68,-41.83 -42.68,-56.9 -16.93,16.93 -30.86,36.49 -40.25,58.54 -22.33,-1 -45.53,-2.85 -66.87,5.19 -5.98,25.33 13.23,46.95 25.32,67.22 -14.09,18.92 -24.54,40.12 -31.08,62.81 22.91,10.6 48.44,10.03 73.13,9.03 v 0" /><path
             id="path28"
             style="fill:#27883d;fill-opacity:1;fill-rule:nonzero;stroke:none"
             d="m 2315.19,6664.61 c 10.03,0.22 20.06,0.36 30.17,0.58 5.54,-8.96 11.02,-18 16.64,-26.96 -7.83,-10.53 -11.95,-29.44 -28.6,-27.82 -19.34,-4.33 -26.46,15.16 -34,28.39 5.19,8.54 10.53,17.14 15.79,25.81 v 0" /><path
             id="path30"
             style="fill:#27883d;fill-opacity:1;fill-rule:nonzero;stroke:none"
             d="m 3649.39,6663.48 c 10.61,0.57 21.35,1.21 32.02,1.85 5.19,-8.75 10.74,-17.36 14.79,-26.75 -2.49,-15.44 -14.73,-33.64 -32.66,-28.81 -12.23,-1.71 -18.69,10.82 -23.39,19.71 -5.98,11.95 5.83,23.04 9.24,34 v 0" /><path
             id="path32"
             style="fill:#ffffff;fill-opacity:1;fill-rule:nonzero;stroke:none"
             d="m 2172.66,6419.36 c 251.15,35.21 504.52,55.13 758.17,55.91 42.68,3.77 85.58,3.06 128.25,-0.07 264.33,-0.15 528.37,-21.27 789.85,-58.97 322.13,-48.3 641.59,-122.84 945.89,-240.13 11.45,-2.35 16.64,-12.6 19.98,-22.84 113.88,-307.86 202.44,-625.67 254.02,-950.03 51.48,-321.58 65.57,-649.64 34.64,-973.99 -30.1,-312.98 -102.85,-621.9 -217.17,-914.89 -195.32,-504.38 -509.3,-957.34 -887,-1342.25 -297.54,-303.14 -633.99,-568.11 -998.25,-786.62 -235.44,139.06 -457.38,300.53 -666.35,476.57 -394.78,334.11 -740.76,729.95 -996.76,1180.48 -156.06,275.29 -277.27,570.83 -353.875,878.12 -81.164,321.23 -113.317,654.19 -102.004,985.02 18.207,501.83 133.229,997.19 310.559,1465.94 315.1,121.99 646.08,199.31 980.05,247.75 v 0" /><path
             id="path34"
             style="fill:#d7cd10;fill-opacity:1;fill-rule:nonzero;stroke:none"
             d="m 967.832,6400.73 c 10.027,19.84 18.922,48.08 42.608,54.19 19.49,-12.44 29.45,-34.21 39.05,-54.34 24.54,2.56 49.15,0.15 72.77,-7.04 -5.98,-23.76 -16.5,-45.95 -31.3,-65.44 15.37,-19.35 26.04,-41.9 30.08,-66.23 -23.03,-5.62 -46.79,-8.89 -70.41,-5.04 -10.45,-21.71 -23.75,-41.9 -40.62,-59.19 -19.701,15.44 -33.783,36.13 -42.959,59.19 -23.754,-3.35 -47.875,-1.15 -70.989,4.97 3.485,24.55 14.372,46.88 29.02,66.51 -10.949,17.57 -24.609,34.78 -26.891,56.05 -5.046,13.8 11.606,12.52 19.993,15.36 16.363,2.99 33.078,1.5 49.648,1.01 v 0" /><path
             id="path36"
             style="fill:#d7cd10;fill-opacity:1;fill-rule:nonzero;stroke:none"
             d="m 4987.09,6454.14 c 23.54,-5.33 32.5,-34.57 42.82,-54.2 21.06,0.64 43.17,3.34 63.31,-4.77 12.37,-2.2 4.4,-15.29 3.47,-23.26 -4.97,-16.21 -15.22,-30.08 -24.03,-44.38 14.5,-19.71 25.03,-42.11 28.95,-66.44 -23.54,-5.76 -47.73,-7.61 -71.84,-6.91 -10.76,-19.55 -19.28,-45.94 -41.91,-54.11 -19.49,12.51 -29.66,34.07 -39.48,54.05 -24.18,-0.64 -48.29,1.56 -71.85,6.83 3.86,24.54 14.67,47.23 30.1,66.58 -15.15,19.27 -25.53,41.68 -30.73,65.58 23.48,6.76 47.95,9.31 72.34,6.83 9.4,20.13 19.37,41.9 38.85,54.2 v 0" /><path
             id="path38"
             style="fill:#1f6430;fill-opacity:1;fill-rule:nonzero;stroke:none"
             d="m 5298.99,6283.5 c -11.44,33.08 -31.65,64.72 -29.59,100.93 108.98,-216.95 199.45,-443.29 270.3,-675.45 191.99,-626.39 232.81,-1300.78 99.51,-1943.16 C 5531.38,3238.45 5307.32,2736.99 4996.4,2298.31 4751.71,1951.76 4454.95,1643.56 4126.68,1375.54 3780.7,1092.5 3399.01,855.219 3000.61,653.48 2397.92,954.73 1834.63,1346.02 1374.56,1840.8 998.848,2244.25 696.25,2718.84 508.754,3238.24 362.09,3641.56 285.332,4070.05 281.562,4499.11 c -6.257,646.72 152.43,1291.52 440.008,1869.74 3.918,-26.81 -7.957,-51.56 -18.132,-75.46 C 527.891,5839.71 406.68,5362.42 372.25,4876.17 c -24.609,-342.21 -5.195,-687.98 63.027,-1024.43 61.809,-302.59 161.039,-597.85 297.684,-874.91 120.851,-250.02 269.079,-486.52 439.019,-706.04 307.43,-401.24 682.79,-747.3 1093.14,-1041.21 222,-158.71 454.74,-303.01 698.79,-425.439 12.09,-5.61 24.32,-12.661 37.91,-14.082 28.94,6.41 53.71,24.191 79.74,37.492 253.43,132.078 495.28,285.939 725.46,455.169 409.43,303.29 781.65,660.23 1082.83,1072.15 294.42,401.03 518.33,856.2 637.9,1339.96 69.85,278.97 105.63,566.41 108.13,853.93 7.88,593.73 -124.28,1182.62 -336.89,1734.74 v 0" /><path
             id="path40"
             style="fill:#27883d;fill-opacity:1;fill-rule:nonzero;stroke:none"
             d="m 992.309,6352.85 c 10.451,2.13 21.121,2.13 31.721,2.85 4.91,-9.25 9.88,-18.43 14.86,-27.67 -5.26,-8.97 -10.53,-17.99 -15.86,-27.03 -10.03,0.06 -20.05,0.14 -30.018,0.21 -5.336,9.1 -10.668,18.13 -16.074,27.17 4.98,8.26 9.679,16.72 15.371,24.47 v 0" /><path
             id="path42"
             style="fill:#27883d;fill-opacity:1;fill-rule:nonzero;stroke:none"
             d="m 4972.65,6354.2 c 10.81,-0.14 21.75,-0.22 32.72,-0.43 4.82,-8.75 9.6,-17.49 14.5,-26.24 -4.9,-8.82 -9.74,-17.71 -14.58,-26.53 -10.81,-0.21 -21.55,-0.36 -32.28,-0.5 -4.48,9.03 -9.47,17.85 -12.6,27.45 3.06,9.18 7.83,17.64 12.24,26.25 v 0" /><path
             id="path44"
             style="fill:#e21e26;fill-opacity:1;fill-rule:nonzero;stroke:none"
             d="m 3726.72,6002.81 c 148.94,51.29 297.24,122.21 405.1,240.21 5.83,-116.94 -33.72,-229.75 -76.19,-336.87 -17.44,-41.47 -35.65,-82.65 -56.7,-122.42 -31.51,16.93 -60.46,38.49 -93.25,53 -25.25,-22.62 -43.96,-51.5 -69.42,-73.98 -141.55,-136.57 -339.38,-222.29 -537.75,-206.99 181.09,35.35 359.14,122.84 473.94,270.87 17.58,25.18 38.77,49.71 46.95,79.87 -29.02,33.86 -63.25,62.82 -92.68,96.31 v 0" /><path
             id="path46"
             style="fill:#e21e26;fill-opacity:1;fill-rule:nonzero;stroke:none"
             d="m 3338.49,6047.99 c 54.98,23.18 116.08,37.05 175.47,25.1 44.82,-10.88 79.11,-50 88.07,-94.74 11.22,-39.84 6.48,-81.8 -3.28,-121.42 -12.23,17.21 -26.96,35.98 -49.85,37.27 -35,1.21 -69.22,-12.37 -98.75,-30.09 -1.69,-23.05 0.22,-47.02 -9.1,-68.85 -10.87,-25.26 -6.32,-53.71 -15.37,-79.46 -8.54,-29.87 -27.16,-55.34 -48.57,-77.25 5.48,38.63 10.09,78.82 -3.27,116.44 -8.11,-0.63 -16.3,-0.92 -24.26,-2.48 -11.94,-17.57 -13.1,-39.62 -20.14,-59.19 -5.96,-19.56 -19.34,-35.42 -31.73,-51.21 -5.4,32.15 -9.88,64.87 -22.81,95.1 -45.4,-12.8 -78.18,-51.64 -124.98,-61.74 -2.5,13.73 -8.04,34.64 -26.75,28.31 -75.76,-15.72 -125.05,-92.54 -129.88,-166.66 2.48,-7.11 4.83,-14.3 7.39,-21.48 20.92,2.34 41.47,7.25 61.53,13.8 51.57,16.36 106.48,21.13 160.18,14.8 -31.65,-7.4 -64.87,-16.58 -89.32,-39.2 -12.24,-10.25 -12.45,-32.01 0.41,-41.83 19.64,-16.36 44.54,-24.04 67.73,-33.93 -43.41,-0.78 -88.92,-3.34 -129.96,13.17 -15.65,5.05 -17.36,22.19 -19.71,35.85 -46.74,-14.37 -95.24,-4.49 -142.55,-0.36 -38.34,3.84 -76.25,-3.7 -113.67,-11.02 -16.42,35.06 -23.11,76.03 -8.39,112.95 21.2,60.18 76.19,100.22 131.74,126.61 37.05,16.79 77.46,34.78 119.07,27.1 12.03,-1.98 10.31,-16.5 14.52,-25.17 36.41,3.98 61.88,32.79 92.75,49.28 34,20.42 74.05,28.03 113.38,27.68 23.6,-2.56 40.26,17.29 50.64,35.85 13.24,24.97 22.2,55.77 8.62,82.51 -15.66,-4.34 -32.86,-17.28 -48.94,-7.97 -23.54,12.66 -50.72,34.57 -42.19,64.88 24.62,4.33 47.44,-5.76 68.79,-16.79 6.61,16.86 17.2,31.65 32.15,42.03 1.78,-21.47 -5.41,-46.16 8.04,-65.08 17.28,-18.28 44.52,-8.03 65.79,-4.2 55.2,13.23 117.72,41.26 171.37,8.26 -5.77,33.5 -12.03,70.49 -39.35,93.82 -23.4,23.33 -58.68,24.68 -89.62,21.55 -40.83,-5.19 -78.67,-22.91 -114.16,-42.89 -103.5,21.34 -193.48,-48.79 -291.65,-66.72 -32.28,33.08 -80.45,44.74 -125.19,36.27 -86.21,-16.14 -161.67,-63.59 -239.85,-100.87 -13.02,-6.53 -27.67,0.16 -41.11,1.58 -55.91,11.45 -113.24,16.57 -170.29,12.16 67.57,-22.83 141.98,-46.17 183.44,-109.12 -11.66,-8.88 -24.39,-16.5 -38.76,-19.77 -61.88,-15.37 -125.33,-26.82 -183.65,-53.7 -29.6,-15.37 -63.81,-7.9 -95.61,-7.11 -57.05,5.97 -117.29,13.58 -165.59,47.08 21.62,9.1 44.17,18.14 60.46,35.78 -51.5,9.11 -82.37,55.91 -101.93,100.22 -22.41,51.08 -37.98,105.14 -47.45,160.05 106.91,-58.76 219.52,-109.61 339.08,-136.36 -33.99,47.8 -39.4,110.83 -17.57,164.88 21.13,-18.06 43.61,-35.14 69.5,-46.09 85.29,-39.19 183.73,-34.92 267.95,-77.03 88.34,37.91 179.32,89.62 278.9,78.52 29.96,-0.78 55.34,-30.16 85.64,-18.28 53.71,15.29 105.77,37.71 161.42,45.88 27.08,5.19 55.61,-11.03 81.22,3.28 v 0" /><path
             id="path48"
             style="fill:#e21e26;fill-opacity:1;fill-rule:nonzero;stroke:none"
             d="m 1778.23,6059.37 c 44.74,0.49 95.67,-3.92 128.24,-38.42 23.33,-24.04 27.25,-58.75 26.97,-90.69 19.2,-10.17 40.18,-22.12 47.73,-43.96 7.89,-32.72 -6.62,-66.08 -24.47,-92.97 -22.34,-31.93 -58.47,-48.86 -91.76,-66.79 -33.23,-17.78 -52.43,-52.2 -67.86,-85.14 -31.59,-71 -49.08,-147.81 -55.84,-225.06 -3.91,-45.17 9.32,-89.62 25.75,-131.16 29.02,-71.64 69.35,-137.92 111.04,-202.8 42.03,-65.94 73.62,-137.64 106.13,-208.48 18.7,-21.13 45.87,-32.51 68.56,-48.8 3.98,77.25 28.67,151.3 59.89,221.51 14.94,26.03 -0.35,55.19 -13.8,78.23 -17.28,29.88 -45.31,50.73 -71.84,71.64 41.47,8.82 89.77,1.06 118.44,-32.51 6.68,-4.83 10.38,-17.22 20.2,-15.37 19.35,27.89 37.12,56.98 59.03,83.01 -17,56.27 -59.68,108.33 -119.64,119.79 60.32,15.72 134.8,7.75 172.85,-47.37 13.37,10.74 32.3,18.35 39.55,34.56 1.56,44.89 -8.75,101.44 -53.85,122.64 -35.63,11.52 -71.48,-3.99 -104.56,-16.36 16.51,99.22 95.96,177.04 187.29,212.46 -35.28,-37.13 -73.27,-77.46 -80.52,-130.52 109.68,82.73 250.52,132.23 388.23,105.2 -119.92,-12.16 -246.11,-45.45 -334.88,-131.52 38.34,-37.7 70.92,-85.22 74.54,-140.48 19.42,42.96 54.06,76.32 89.42,106.4 61.24,49.59 132.09,86.72 206.49,112.54 -49.23,-38.13 -102.36,-71.64 -146.39,-116.02 -63.53,-60.32 -110.68,-137.35 -136.08,-221.15 29.46,48.3 73.35,85.72 119.58,117.3 31.5,19.99 68,41.4 106.84,32.65 15.58,-11.02 17.21,-31.72 20.48,-49.01 3.13,-31.44 1.71,-63.09 2.21,-94.67 72.83,72.34 165.3,127.38 267.52,144.1 77.32,15.01 156.28,2.99 234.24,7.47 7.25,-7.11 8.1,-28.95 22.75,-21.69 40.12,14.37 53.15,59.61 75.55,91.68 5.76,-23.61 6.04,-48.22 -0.15,-71.84 15.51,1.07 31.17,1 46.74,0.08 17.64,24.75 21.12,55.41 25.18,84.72 10.17,-18.15 20.98,-37.42 19.42,-59.05 0.42,-23.61 -13.45,-43.67 -21.62,-64.94 -6.27,-27.81 -2.99,-58.18 -16.87,-83.94 -11.16,-24.25 -32.08,-41.82 -52.35,-58.25 -1.99,29.81 0.86,65.8 -26.25,85.65 -20.26,-12.52 -34.35,-31.87 -51.22,-48.23 -22.68,-21.13 -54.12,-27.32 -83.43,-33.37 8.26,24.12 20.42,51.15 7.63,75.97 -18.01,33.72 -58.55,45.53 -93.91,49.73 -63.45,8.18 -124.63,-23.26 -170.36,-64.88 -40.26,-36.98 -65.08,-87.2 -79.73,-139.27 -1.35,-0.5 -4.06,-1.49 -5.41,-1.99 -23.76,34.85 -22.98,79.03 -25.89,119.43 -91.12,-94.18 -167.09,-208.27 -196.46,-337.45 -10.39,-42.67 -10.67,-87.14 -0.43,-129.81 61.1,1.14 120.99,19.77 175.76,46.23 35.28,18.28 72.63,45.02 81.38,86.36 6.61,24.97 -9.54,48.36 -9.89,73.05 9.03,20.76 32.01,28.8 51.92,35.21 46.74,13.37 95.11,19.05 142.98,27.1 167.22,25.32 334.74,60.61 489.88,130.03 185,80.73 347.97,209.9 469.6,371.01 -14.28,-119.14 -46.94,-236.58 -99.94,-344.41 100.23,41.97 193.55,99.16 281.82,162.18 132.31,95.67 251.02,210.69 346.55,343.27 63.96,86.64 113.32,182.6 157.63,280.33 5.76,-249.46 78.18,-495.64 198.59,-713.52 12.16,-24.1 30.88,-44.95 39.91,-70.55 -115.51,-172.43 -184.17,-376.58 -194.04,-584.06 -3.21,-68.5 3.49,-137.64 24.96,-203.01 -130.02,-13.02 -263.54,-39.97 -374,-113.31 -73.13,-47.88 -133.87,-120.7 -151.23,-207.98 -126.47,6.68 -261.76,-16.58 -363.12,-97.31 -30.87,-22.9 -53.42,-54.35 -77.47,-83.8 -35.77,57.26 -95.37,96.18 -159.12,115.95 -77.6,24.97 -162.17,21.41 -240.13,0 -31.44,-7.83 -60.89,-21.7 -92.04,-30.02 -37.99,57.69 -80.52,114.23 -137.5,154.57 -58.89,43.24 -129.17,67.85 -200.38,81.45 l -10.59,7.46 c 1.56,-6.4 7.11,-10.24 13.09,-12.8 143.96,-70.92 265.24,-197.18 310.69,-353.24 77.69,85.29 209.62,113.88 317.53,76.47 73.62,-109.48 108.55,-238.72 138.15,-365.69 17.42,-71.98 31.71,-145.18 57.68,-214.75 36.05,-100.08 124.34,-181.23 229.04,-203.28 79.95,-17.64 166.15,0.92 233.6,46.8 23.82,15.44 40.46,38.9 56.69,61.68 -104.35,-25.19 -224.06,-1.72 -299.33,78.16 56.63,-23.69 117.8,-41.89 179.75,-33.79 54.7,6.9 106.06,31.59 148.8,65.88 13.95,9.32 9.34,28.09 12.18,42.17 -44.32,-19.34 -91.41,-33.14 -139.99,-34.06 -3.21,-22.27 -12.09,-43.32 -26.32,-60.82 -0.35,20.49 0.49,40.97 0.93,61.45 -19.57,9.33 -39.41,19.06 -60.96,22.05 -17.43,-11.24 -32.08,-27.53 -52.64,-33 -16,-3.91 -32.59,-3.28 -48.8,-3.63 23.46,13.3 51.71,24.05 64.37,49.72 5.48,13.02 -7.04,22.84 -12.79,33.01 -29.46,39.33 -37.5,89.76 -37.35,137.78 -53.14,-40.41 -76.9,-107.7 -74.27,-172.92 -29.52,71.84 -20.55,155.42 18.86,221.64 75.39,132.66 256.49,191.85 395.7,129.96 67.5,-30.3 120.13,-87.21 154.2,-152.01 56.69,85.93 107.78,179.39 123.34,282.46 -65.28,-11.95 -132.21,-13.3 -198.16,-7.25 69.65,62.16 139.56,124.83 198.73,197.52 51.8,60.61 95.11,127.69 134.23,196.9 39.7,-65.66 54.91,-143.05 68.86,-217.59 17.35,-97.17 18.71,-196.04 21.77,-294.41 -49.52,24.25 -91.42,61.17 -131.37,98.51 -34.16,-132.73 -76.56,-265.53 -149.32,-382.68 -12.95,-19.77 -31.23,-39.33 -24.26,-65.16 12.59,-134.43 -20.34,-275.48 -105.27,-382.18 -143.55,-185.15 -410.93,-253.51 -629.15,-174.56 -55.05,25.19 -124.19,9.25 -172.35,51.93 -25.25,25.89 -64.44,31.23 -87.91,59.18 -13.46,12.46 -18.78,30.23 -23.91,47.09 13.23,-12.52 25.67,-26.25 41.54,-35.72 28.17,-17.06 61.82,-21.39 90.76,-36.9 74.33,-40.06 164.17,-49.94 245.83,-29.24 -32.93,12.87 -62.3,32.58 -93.81,48.08 -40.2,-4.06 -80.52,-11.89 -121.01,-4.41 29.53,5.55 58.61,13.73 84.79,28.88 -27.02,29.37 -58.39,54.48 -85.72,83.65 -37.75,-9.75 -75.81,-22.76 -115.51,-15.72 30.74,12.02 61.61,24.97 87.36,46.24 -15.86,25.39 -34.22,49 -50.43,74.12 -56.5,-16.93 -109.41,-58.05 -125.76,-116.66 -16.59,-62.09 3.12,-128.54 38.04,-180.74 49.51,-77.39 122.22,-135.08 189.64,-195.83 -52.07,-9.74 -102.93,9.11 -151.37,25.68 29.74,-41.18 70.79,-73.19 118.3,-91.34 -47.87,-23.67 -103.07,-20.12 -154.72,-16.07 -19.11,-51.21 -39.4,-104.28 -38.26,-159.89 -0.42,-22.14 12.94,-49.94 38.54,-49.16 48.82,-5.77 85.79,30.08 123.58,54.34 24.81,17.36 54.4,3.64 74.74,-13.65 51.51,-5.06 106.78,-26.11 134.16,-72.63 17.85,-29.09 15.78,-64.66 10.3,-97.02 -11.09,20.63 -22.33,44.32 -45.59,53.49 -28.8,13.38 -60.95,5.54 -89.9,-2.71 -5.4,-25.67 -20.77,-53.69 -50.51,-54.4 -42.03,-0.08 -78.45,28.15 -120.7,29.38 -70.79,5.39 -132.51,-39.13 -180.82,-86.08 -54.77,-50.78 -92.26,-127.4 -77.03,-203.21 10.73,-51.09 33.78,-102.86 20.48,-155.94 -3.34,-27.31 -20.26,-53.61 -49.36,-57.76 -11.74,-58.75 -2.21,-119.35 19.56,-174.61 -72.2,28.37 -119.64,95.88 -141.06,168.29 -14.09,4.34 -30.71,8.4 -36.9,23.4 -14.24,31.44 -5.99,67.51 3.05,99.23 25.96,84.44 70.27,165.66 70.48,256.08 -89.41,-65.51 -131.09,-176.34 -219.71,-242.28 -24.12,-20.06 -55.84,-11.6 -84.08,-11.45 -38.84,-23.18 -65.23,-65.36 -70.14,-110.26 -4.62,-24.39 1.71,-48.86 3.06,-73.19 -30.8,30.01 -61.73,64.31 -69.64,108.13 -10.45,52.43 11.52,104.48 41.33,146.51 17.22,18.93 -4.13,46.17 10.17,66.39 9.82,17.12 26.68,29.08 45.38,34.83 59.11,18.72 109.12,56.85 159.76,91.27 -73.05,-11.88 -147.74,-22.11 -221.5,-10.18 -28.02,-22.97 -64.02,-26.67 -98.8,-26.09 -38.83,-27.32 -71.77,-65.3 -83.51,-112.26 -17.85,33.01 -30.72,71.63 -20.48,109.13 7.82,37.12 31.94,67.35 52.35,98.3 -12.31,21.69 -16.28,52.49 3.49,71.21 30.59,29.65 79.52,32.93 117.86,17.69 33.64,-13.44 65.8,-31.64 101.86,-38.33 60.82,-11.17 122.92,1.27 181.17,19.13 51.65,15.87 102.22,40.41 139.71,80.17 31.28,32.51 50.28,74.18 67.56,115.24 22.91,54.7 47.31,108.82 74.13,161.74 -52.86,39.2 -103.58,81.16 -151.24,126.47 -22.82,23.12 -56.97,26.97 -83.57,44.18 -65.93,36.48 -106.7,106.26 -121.77,178.46 -28.82,123.27 20.34,245.83 54.2,362.84 -63.03,-45.81 -90.62,-124.2 -108.41,-197.03 -35.42,-0.7 -75.26,-2.99 -102.29,-28.95 -29.87,-27.31 -34.84,-71.34 -29.37,-109.47 13.44,-86.78 66.36,-164.23 136.93,-215.25 -29.45,-2.76 -60.61,-6.25 -88.78,5.14 -22.04,8.02 -40.11,23.32 -57.75,38.26 -6.19,-38.85 3.91,-77.39 23.55,-111.04 -54.64,30.8 -109.13,66.22 -145.83,118.15 -67.5,-22.27 -134.93,-45.52 -199.38,-75.75 -24.89,-12.38 -50.92,-24.47 -70.56,-44.67 -9.96,-8.82 -5.48,-23.33 -5.19,-34.85 3.35,-23.2 7.75,-47.59 21.48,-67.01 19.21,-26.26 62.67,-4.7 79.66,-34.08 14.95,-25.67 27.11,-58.96 14.02,-87.92 -19.34,-45.73 -26.32,-99.5 -64.52,-134.86 -13.79,-15.22 -33.92,-21.27 -53.7,-23.75 19.56,33.01 43.68,75.54 20.91,112.95 -18.77,29.88 -57.82,10.6 -84.93,22.34 -27.6,16 -24.75,52.28 -28.95,79.58 -6.33,63.11 -11.45,138.29 -67.79,178.69 -58.67,38.84 -134.93,52.07 -202.94,33 -64.29,-15.36 -123.69,-56.04 -192.12,-49.78 -21.41,0.63 -38.62,13.51 -53.27,27.74 -35.99,-5.48 -64.59,-32.44 -82.37,-62.81 -15.08,-25.54 -18.85,-55.34 -24.47,-83.87 -23.97,42.04 -38.91,91.54 -26.17,139.78 10.73,38.9 35.84,73.27 68.7,96.6 30.17,18.55 39.41,60.46 76.12,70.06 76.04,18.14 146.17,-34.64 222.13,-28.17 -49.15,35.35 -91.83,78.46 -134.36,121.2 -12.66,11.46 -26.6,27.67 -45.67,23.2 -33.22,-4.27 -71.2,-14.87 -100.5,7.53 -39.98,28.6 -43.75,84.01 -30.23,127.54 -42.26,22.54 -90.84,8.62 -135.3,2.63 18.42,37.98 52.64,70.64 95.6,77.11 23.62,6.11 47.3,-3.19 71,-3.92 20.62,5.55 40.61,18.08 62.8,13.03 49.15,-9.89 82.44,-51.07 115.16,-85.64 45.6,-48.52 81.09,-106.21 130.82,-150.73 -16.72,63.09 -46.17,123.62 -50.59,189.42 -20.55,21.4 -54.55,30.94 -64.72,60.96 -9.1,23.62 1.42,48.22 7.96,70.99 -12.16,17.35 -25.74,35.78 -46.73,42.75 -28.1,8.88 -57.97,4.13 -86.84,4.55 42.67,34.28 96.44,64.16 153.07,55.69 24.39,-2.76 43.81,-18.92 61.18,-35.06 26.37,7.04 57.04,5.47 77.31,-15.09 40.83,-42.1 50.79,-104.48 41.19,-160.67 -11.03,-65.6 -1.07,-133.66 23.75,-194.98 13.59,-36.56 47.51,-65.72 87.63,-66.22 104.21,-2.77 210.13,18 303.09,66.16 -30.66,51.27 -60.39,103.13 -87.13,156.54 -11.66,25.2 -36.99,40.7 -47.81,66.38 -24.25,53.27 -15.71,115.23 5.41,168.01 27.96,68.57 80.24,129.95 150.02,157.98 39.68,16.72 83.5,16.08 125.54,21.41 -6.47,11.74 -13.37,27.45 -29.66,25.04 -85.64,-0.43 -167.09,47.79 -210.97,120.85 -91.83,33.85 -168.73,125.97 -162.25,226.97 37.21,-84.21 104.42,-158.76 195.11,-184.94 21.2,-39.19 50.72,-75.96 91.62,-95.81 42.11,-20.98 90.61,-20.34 136.49,-20.2 51.51,-63.09 130.81,-92.83 208.49,-108.05 27.74,-66.5 92.97,-118.57 166.53,-119.63 20.61,15.57 37.62,35.56 58.45,50.99 75.4,59.05 169.09,85.5 258,116.66 -63.24,10.6 -126.04,-5.19 -186.5,-21.77 -20.5,11.17 -36.36,29.52 -57.91,38.91 -9.73,2.56 -18.05,-4.98 -26.53,-8.32 -36.84,-20.35 -79.23,-28.74 -121.06,-28.81 38.76,12.52 77.82,29.31 105.42,60.46 -34.36,28.81 -76.54,46.09 -114.31,69.78 -16.79,8.61 -36.42,25.54 -55.12,11.67 -45.03,-26.97 -98.1,-32.01 -148.82,-40.34 35.43,17.92 70.64,36.99 101.51,62.1 7.47,4.34 14.09,17.85 3.2,22.12 -35.21,22.05 -69.79,46.24 -106.98,64.59 -19.63,-7.18 -35.28,-22.12 -55.05,-29.09 -43.4,-17.07 -90.63,-22.2 -136.93,-22.12 46.8,14.3 93.46,32.51 132.16,63.23 7.47,6.48 16,13.45 17.21,24.05 -22.12,28.66 -47.23,55.05 -72.41,81.08 -5.05,-32.94 -12.38,-66.15 -29.59,-95.17 -16.01,11.45 -29.94,25.4 -45.17,37.71 -40.9,35.56 -91.47,57.96 -142.9,73.47 -27.81,9.25 -57.4,5.97 -86.07,7.61 -118.44,5.83 -234.94,29.87 -349.82,57.76 28.95,-45.68 79.45,-72.2 110.11,-116.8 32.15,-39.34 43.31,-97.52 17.78,-143.11 -15.01,-26.68 -16.22,-59.97 -37.41,-83.3 -33.36,-41.11 -87.99,-58.32 -139.49,-57.97 31.58,26.24 63.67,60.89 62.73,104.63 -18.05,19.13 -39.68,35.92 -50.28,60.75 -25.89,47.59 -23.33,103.64 -42.47,153.43 -15.79,44.31 -45.24,84.79 -86.92,107.83 -61.46,33.72 -137.14,38.56 -203.29,16.43 -63.24,-19.91 -115.45,-62.09 -169.22,-99.23 -35.57,-22.33 -79.38,-40.46 -121.78,-30.22 -21.06,4.33 -33.5,23.33 -44.1,40.25 -28.45,-6.4 -57.47,-13.94 -81.66,-30.87 -25.68,-16.78 -42.74,-42.89 -61.17,-66.72 -5.41,45.25 -2.7,93.69 23.26,132.66 21.98,37.63 60.53,61.24 100.15,76.82 12.52,34.44 36,65.95 70.85,79.74 86.21,38.41 182.38,3.49 271.86,20.92 -64.24,60.32 -157.77,55.9 -239.35,64.51 -50.51,3.41 -103.92,41.62 -103.65,96.17 -42.81,2.13 -89.26,-1.71 -124.76,-28.17 -17.29,-12.45 -25.82,-32.43 -35.28,-50.72 -4.56,36.07 -5.33,75.19 15.08,106.91 17.93,31.44 47.38,54.63 79.89,69.57 27.88,13.3 59.81,11.81 88.62,22.34 42.61,14.93 87.28,-4.56 124.34,-25.18 43.1,-23.77 82.37,-55.85 130.38,-69.57 -31.3,37.13 -55.91,78.88 -80.09,120.77 -16.93,31.16 -52.49,53.5 -53.64,91.7 -4.48,25.61 8.26,48.3 17.36,71.05 -5.55,21.92 -27.02,37.49 -48.3,42.62 -25.25,7.32 -50.86,-4.13 -75.39,-8.83 32.5,30.87 71.48,61.39 118.21,63.45 36.56,1.42 68.43,-21.34 90.98,-48.22 15.79,-19.21 41.97,-28.52 52.71,-52.14 20.41,-43.18 23.47,-91.76 32.72,-138.07 10.03,-57.26 29.66,-115.8 70.7,-158.55 33.65,-35.21 81.87,-48.65 126.11,-65.01 30.03,-10.25 57.69,-27.11 88.92,-33.58 84.51,-14.37 170.72,-5.48 255.08,5.48 -9.47,17.5 -17.21,35.92 -21.55,55.34 65.01,-55.91 154.99,-60.74 236.64,-57.05 -74.47,-25.89 -152.85,-40.69 -231.6,-43.53 -63.87,-2.84 -127.67,2.42 -191.48,0.14 63.38,-21.62 130.24,-31.37 196.96,-33.57 108.98,-8.25 218.52,21.98 326.63,0.21 15.37,144.47 75.48,285.74 176.98,390.73 -93.11,-36.85 -165.88,-115.66 -201.87,-208.35 -9.88,-24.61 -16.36,-50.35 -24.47,-75.53 -27.45,28.09 -40.05,65.79 -52.28,102.13 -5.26,21.98 -33.58,15.8 -50.08,19.57 -62.88,4.55 -124.9,32.72 -163.1,84 59.68,-30.94 129.31,-52.57 196.53,-36.2 1.93,38.97 2.21,78.02 4.56,116.94 1.92,12.72 -13.67,15.22 -22.83,16.28 -60.68,5.69 -121.86,33.58 -159.05,83.08 54.91,-23.75 112.81,-46.8 173.7,-45.02 16.28,0.36 20.62,18.14 24.18,30.73 5.27,21.83 14.16,43.32 14.3,66.01 -14.23,13.44 -32.51,21.34 -48.37,32.51 -28.74,19.27 -50.36,47.02 -68.14,76.25 41.82,-24.54 85.49,-53.28 134.93,-56.34 21.05,22.41 28.03,53.78 43.89,79.67 7.33,17.21 25.18,35.78 16.01,55.48 -24.97,22.26 -51.65,43.6 -67.8,73.63 32.65,-14.31 64.02,-37 100.58,-38.07 29.66,16.86 49.37,46.88 70.92,72.63 -20.77,22.48 -40.4,46.88 -48.87,76.75 22.84,-17.72 45.88,-35.85 72.98,-46.8 13.88,17.78 29.88,34.07 41.55,53.49 9.17,17.64 -2.14,42.4 -22.62,44.03 -49.51,7.75 -90.34,-26.11 -134.37,-41.9 -43.82,-16.64 -81.23,-45.38 -116.73,-75.25 -45.02,-26.39 -92.68,-53.92 -120.42,-99.94 -14.3,-21.84 -17.64,-51.44 -41.83,-65.58 -49.57,-35.86 -83.85,-95.25 -76.67,-157.85 -30.73,-39.47 -56.19,-88.62 -47.45,-140.27 2.63,-21.41 23.98,-41.68 11.81,-63.59 -26.04,-55.41 -16.29,-123.34 24.33,-169.22 -75.61,44.6 -149.81,91.9 -227.33,133.09 -32.52,-36.49 -74.2,-67.36 -123.77,-74.41 16.07,50.94 32.86,101.93 40.75,154.85 0.93,21.92 -3.77,43.68 -6.11,65.37 -21.34,149.45 -52.64,300.75 -123.21,435.47 -17.99,-23.9 -36.91,-47.74 -48.36,-75.61 -8.68,-21.55 -7.83,-45.31 -12.87,-67.72 -13.67,-43.68 -64.74,-68.79 -108.2,-55.69 -31.01,10.87 -62.66,21.55 -91.4,37.69 -37.85,21.13 -59.32,62.39 -61.6,104.92 30.73,-24.96 73.34,-42.61 111.53,-23.54 16.08,66.51 92.76,94.17 109.19,160.68 16.79,62.95 -7.83,127.26 -32.3,184.8 -28.38,67.86 -73.83,128.11 -130.59,174.91 -31.09,28.38 -68.5,51.15 -91.62,87.06 -15.22,22.63 -10.53,51.08 -2.21,75.19 -8.32,12.45 -17.49,25.89 -32.5,30.8 -31.37,13.66 -65.01,-0.35 -92.54,-16.07 16.71,36.42 45.02,71.05 85.93,80.23 28.16,9.6 57.04,-0.85 85.35,-3.62 31.66,8.32 67.86,24.89 98.59,4.26 33.43,-23.19 26.89,-68.64 41.83,-102.21 26.74,-66.3 62.52,-128.89 103.14,-187.58 -5.55,53.92 -4.7,108.27 -5.27,162.39 1.92,64.16 -45.24,120.36 -34.5,185.23 2.99,20.55 20.77,32.65 37.7,41.47 -1.34,27.46 -6.04,56.19 -23.04,78.67 -11.16,16.51 -31.65,21.56 -49.02,28.67 65.09,26.17 140.06,-12.95 171.65,-72.06 41.18,-8.46 56.48,-53.84 54.83,-91.33 2.28,-39.98 -27.66,-70.21 -40.61,-105.7 -20.91,-47.59 -22.83,-100.79 -16.22,-151.65 11.03,25.54 20.07,52.06 35,75.61 17.36,29.24 46.23,49.72 61.46,80.24 18.14,32.72 18,71.41 31.36,105.7 10.18,26.1 38.49,39.83 47.66,66.29 5.9,25.46 6.76,55.2 -9.03,77.39 -12.17,18.43 -32.37,28.45 -50.43,39.91 v 0" /><path
             id="path50"
             style="fill:#e21e26;fill-opacity:1;fill-rule:nonzero;stroke:none"
             d="m 2926,5917.81 c 17.56,-6.47 36.34,-11.45 51.07,-23.54 13.59,-26.81 -22.76,-38.41 -39.62,-50.01 -9.74,-17.85 -21.7,-37.41 -43.04,-42.46 -26.6,-11.17 -59.61,3.7 -64.22,33.36 -31.59,-3.49 -61.18,-15.37 -90.77,-26.32 27.31,24.61 48.37,55.91 78.46,77.4 35.27,20.41 77.17,5.05 115.08,3.41 -2.34,9.39 -4.62,18.77 -6.96,28.16 v 0" /><path
             id="path52"
             style="fill:#ffffff;fill-opacity:1;fill-rule:nonzero;stroke:none"
             d="m 4358.13,5468.41 c 77.48,74.05 147.33,156.2 206.94,245.26 -47.59,-132.59 -133.95,-248.18 -235.87,-344.13 -173.13,-163.25 -388.53,-275.49 -611.73,-353.74 -104.28,-35.35 -210.48,-66.01 -319.02,-85 127.54,-20.62 257.42,-18.49 386.25,-17.43 298.45,8.97 593.72,63.52 882.44,137.36 -129.82,-64.66 -271.37,-101.5 -412.21,-133.38 -280.81,-59.39 -569.54,-84.78 -856.2,-66.51 101.5,-65.79 212.26,-115.72 322.66,-164.59 157.05,-67.86 317.95,-127.46 482.61,-174.27 76.76,-20.77 154.01,-40.75 232.95,-51.21 -27.45,-5.26 -55.48,-7.97 -83.36,-4.13 -149.23,7.33 -295.26,43.96 -437.67,87.5 -144.67,45.45 -286.44,100.36 -423.36,165.66 -41.82,19.92 -82.44,42.4 -121.36,67.57 32.44,-103.56 97.17,-193.69 168.52,-274.06 133.93,-145.83 299.24,-259.7 473.8,-351.61 -247.18,56.91 -465.71,213.39 -614.65,416.83 -37.55,48.3 -66.01,102.65 -99.37,153.72 -41.18,-207.07 -57.47,-418.11 -59.17,-628.94 -41.62,210.04 -42.4,429.06 1.48,638.75 -167.3,-78.67 -361.06,-69.63 -537.88,-32.58 114.37,2.99 229.75,5.98 341.85,31.45 51.44,12.3 105.07,27.38 145.82,62.59 21.06,17.99 40.47,46.87 29.38,75.4 -4.62,22.97 -26.6,50.5 -6.06,71.2 30.25,29.66 73.99,38.06 112.89,50.86 136.01,35.49 273.93,64.8 406.88,111.1 229.82,77.53 448.25,197.11 623.44,366.33 v 0" /><path
             id="path54"
             style="fill:#d7cd10;fill-opacity:1;fill-rule:nonzero;stroke:none"
             d="m 576.395,4886.06 c 7.902,23.12 22.554,42.96 41.332,58.47 16.925,-16.93 30.941,-36.56 40.187,-58.75 24.473,2.77 49.227,0.56 72.699,-7.11 -6.476,-23.55 -16.718,-45.96 -31.011,-65.8 15.648,-18.93 25.675,-41.61 29.8,-65.87 -22.98,-6.12 -46.734,-8.53 -70.347,-4.7 -10.102,-21.83 -23.684,-41.96 -40.477,-59.25 -19.769,15.08 -33.851,35.78 -42.742,58.83 -23.832,-3.27 -47.883,-1.14 -70.918,5.19 3.195,24.4 13.797,46.81 28.449,66.29 -14.156,20.06 -25.824,42.19 -28.094,67.01 23.258,5.9 47.231,7.75 71.122,5.69 v 0" /><path
             id="path56"
             style="fill:#d7cd10;fill-opacity:1;fill-rule:nonzero;stroke:none"
             d="m 5340.53,4885.27 c 9.89,20.07 19,48.38 43.26,54.28 18.98,-12.88 28.81,-34.36 38.27,-54.48 24.4,2.77 49.07,0.42 72.47,-7.19 -5.98,-23.4 -16.36,-45.45 -30.3,-65.16 14.66,-19.56 25.17,-42.03 28.95,-66.36 -22.83,-5.9 -46.52,-8.32 -69.93,-4.55 -9.45,-17.93 -18.05,-36.99 -33.27,-50.86 -8.61,-12.6 -20.15,1.2 -26.19,8.25 -10.73,12.73 -17.65,28.03 -25.31,42.61 -23.69,-3.85 -47.67,-1.35 -70.72,4.76 4.78,24.12 15.01,46.59 30.03,66.01 -14.38,19.7 -24.32,42.04 -30.66,65.52 23.68,7.39 48.58,9.74 73.4,7.17 v 0" /><path
             id="path58"
             style="fill:#27883d;fill-opacity:1;fill-rule:nonzero;stroke:none"
             d="m 600.371,4837.55 c 10.602,2.56 21.621,2.35 32.438,3.13 4.836,-9.25 9.742,-18.5 14.586,-27.74 -5.344,-8.89 -10.75,-17.71 -16.079,-26.61 -9.964,0.15 -19.925,0.29 -29.808,0.36 -5.403,8.96 -10.809,17.86 -16.215,26.67 4.84,8.18 9.312,16.65 15.078,24.19 v 0" /><path
             id="path60"
             style="fill:#27883d;fill-opacity:1;fill-rule:nonzero;stroke:none"
             d="m 5364,4839.48 c 11.03,-0.15 22.13,-0.36 33.22,-0.58 4.69,-8.75 9.47,-17.57 14.3,-26.32 -5.05,-8.82 -10.08,-17.64 -15.01,-26.45 -10.67,-0.15 -21.2,-0.22 -31.65,-0.44 -4.63,8.97 -9.67,17.71 -12.96,27.18 3,9.31 7.77,17.85 12.1,26.61 v 0" /><path
             id="path62"
             style="fill:#e48a94;fill-opacity:1;fill-rule:nonzero;stroke:none"
             d="m 1911.1,4295.03 c 63.81,2.28 127.61,-2.98 191.48,-0.14 -42.53,-10.02 -86.35,-2.49 -129.39,-6.68 41.33,-22.91 90.06,-17.21 134.87,-26.75 -66.72,2.2 -133.58,11.95 -196.96,33.57 v 0" /><path
             id="path64"
             style="fill:#e21e26;fill-opacity:1;fill-rule:nonzero;stroke:none"
             d="m 5770.53,3809.07 c 24.96,-196.11 16.42,-394.92 -8.2,-590.6 -31.29,-240.15 -91.04,-476.15 -171.28,-704.48 -91.67,-259.72 -209.26,-510.72 -355.99,-744.03 80.58,43.02 145.39,108.9 206.4,175.62 78.4,89.55 147.25,187.07 208.56,288.95 71.13,118.7 133.52,243.96 169.87,377.97 -14.29,-228.32 -80.74,-451.47 -180.61,-656.6 -68.64,-138.36 -151.01,-272.36 -259.11,-383.41 -67.23,-19.19 -139.14,-13.44 -208.43,-19.27 -73.76,2.92 -149.59,3.98 -219.37,30.8 -28.02,11.09 -56.27,29.45 -67.29,58.83 -8.62,30.09 1.07,61.8 17.21,87.48 26.76,43.34 59.76,82.37 90.41,123.06 133.8,171.43 257.93,350.88 362.85,541.54 240.27,433.17 382.82,919.85 414.98,1414.14 v 0" /><path
             id="path66"
             style="fill:#e21e26;fill-opacity:1;fill-rule:nonzero;stroke:none"
             d="m 216.758,3624.12 c 1.07,60.4 4.351,120.93 13.09,180.61 21.269,-288.22 75.972,-574.38 168.437,-848.45 92.184,-275.7 221.363,-538.75 379.84,-782.31 83.375,-129.59 176.91,-252.15 271.085,-373.92 27.09,-37.07 59.39,-73.2 69.42,-119.29 6.69,-30.8 -10.31,-62.45 -36.13,-78.95 -42.47,-27.89 -94.031,-36 -143.477,-42.48 -99.507,-9.1 -200.023,-5.25 -299.175,7.05 -17.137,0.07 -27.739,14.94 -38.547,25.9 -84.508,93.04 -153.508,199.17 -212.473,309.83 -67.574,128.55 -121.351,264.55 -158.199,405.1 -25.531,100.16 -45.094,202.72 -47.801,306.29 27.82,-120.7 84.789,-232.31 144.969,-339.78 73.902,-128.12 159.117,-250.24 259.625,-359.09 52.5,-55.83 110.68,-107.47 177.973,-144.96 -163.176,262.04 -292.282,544.8 -387.309,838.35 -105.199,327.56 -170.43,671.12 -161.328,1016.1 v 0" /><path
             id="path68"
             style="fill:#ffffff;fill-opacity:1;fill-rule:nonzero;stroke:none"
             d="m 4031.8,3598.66 c 13.65,34.43 49.22,59.4 86.49,58.61 50.14,-1.92 99.15,-27.95 126.96,-70.06 21.91,-31.23 29.96,-69.35 34.86,-106.48 -55.47,-25.26 -120.21,-44.04 -180.02,-22.69 -52.15,21.12 -90.48,85.64 -68.29,140.62 v 0" /><path
             id="path70"
             style="fill:#d7cd10;fill-opacity:1;fill-rule:nonzero;stroke:none"
             d="m 816.324,3338.11 c 8.891,20.34 19.203,41.33 37.629,54.78 23.973,-5.49 33.719,-34.79 44.527,-54.93 23.614,1.35 47.227,-0.21 70.489,-4.68 -2.199,-24.83 -13.508,-47.09 -28.657,-66.44 14.43,-20.49 26.383,-43.04 28.165,-68.51 -23.047,-4.76 -46.598,-6.18 -69.997,-4.41 -9.316,-22.68 -23.328,-43.1 -42.816,-58.32 -16.644,16.99 -30.598,36.43 -39.836,58.4 -24.473,-2.42 -49.297,-1 -72.558,7.4 6.261,23.48 16.933,45.31 30.73,65.23 -14.012,18.91 -24.469,40.04 -30.938,62.66 22.973,10.45 48.583,9.88 73.262,8.82 v 0" /><path
             id="path72"
             style="fill:#d7cd10;fill-opacity:1;fill-rule:nonzero;stroke:none"
             d="m 5098.98,3339.17 c 11.37,21.06 23.74,41.9 42.89,56.92 16.64,-17.3 30.66,-36.99 40.54,-58.98 24.25,2.06 49.3,1.5 72.13,-7.96 -5.85,-22.91 -17.94,-42.91 -29.81,-62.96 11.03,-21.25 23.89,-41.82 29.81,-65.43 -23.11,-9.11 -48.15,-7.76 -72.41,-9.25 -11.52,-20.21 -23.69,-40.19 -40.12,-56.91 -19.21,15.3 -33.58,35.43 -42.54,58.11 -23.62,-1.06 -47.23,0.16 -70.19,5.13 0,25.83 16.71,46.24 25.93,68.64 -11.79,20.62 -24.46,41.33 -26.59,65.66 23.05,5.33 46.81,5.19 70.36,7.03 v 0" /><path
             id="path74"
             style="fill:#27883d;fill-opacity:1;fill-rule:nonzero;stroke:none"
             d="m 839.578,3292.08 c 10.813,0.51 21.699,1.08 32.512,1.58 5.691,-12.16 20.637,-25.4 10.101,-39.06 -7.613,-22.55 -41.898,-22.4 -49.929,-0.28 -9.746,12.59 3.125,25.97 7.316,37.76 v 0" /><path
             id="path76"
             style="fill:#27883d;fill-opacity:1;fill-rule:nonzero;stroke:none"
             d="m 5109.43,3262.85 c 5.05,10.25 10.6,20.27 16.71,30.02 10.54,-0.49 21.14,-0.92 31.81,-1.49 6.03,-13.16 17.49,-29.24 4.54,-42.32 -5.98,-13.81 -22.97,-9.75 -34.78,-12.52 -6.12,8.81 -12.3,17.63 -18.28,26.31 v 0" /><path
             id="path78"
             style="fill:#d7cd10;fill-opacity:1;fill-rule:nonzero;stroke:none"
             d="m 1731.28,2076.25 c 20.63,-14.02 34.43,-35.07 43.53,-57.97 24.26,2.34 48.66,-0.14 72.2,-6.76 -4.98,-23.98 -15.01,-46.59 -30.44,-65.72 15.51,-19.36 26.03,-42.12 30.09,-66.72 -23.62,-5.48 -47.81,-7.11 -71.92,-6.48 -10.66,-19.57 -20.13,-47.59 -43.53,-53.78 -18.56,13.01 -28.45,34.14 -37.98,53.85 -24.12,-0.92 -48.3,0.77 -71.78,6.83 4.13,24.18 14.59,46.52 28.96,66.14 -12.81,19.51 -25.9,40.06 -27.75,63.88 21.34,12.39 46.88,9.68 70.49,8.68 8.9,21.63 22.34,40.91 38.13,58.05 v 0" /><path
             id="path80"
             style="fill:#d7cd10;fill-opacity:1;fill-rule:nonzero;stroke:none"
             d="m 4221.78,2017.36 c 10.17,21.46 23.47,41.38 40.19,58.39 19.79,-14.8 33.23,-35.78 42.9,-58.26 24.18,2.48 48.44,0 71.83,-6.83 -5.26,-23.6 -15.15,-45.95 -29.66,-65.37 14.51,-20.05 25.55,-42.54 28.54,-67.42 -23.33,-5.06 -47.23,-6.63 -71.08,-5.41 -9.02,-22.49 -22.83,-42.83 -41.94,-57.9 -16.88,16.71 -30.81,36.14 -40.15,57.96 -24.17,-1.71 -48.35,0.5 -71.82,6.41 4.69,24.26 15.21,46.74 30.08,66.3 -14.87,19.34 -25.32,41.6 -29.94,65.57 23.04,6.84 47.08,9.11 71.05,6.56 v 0" /><path
             id="path82"
             style="fill:#27883d;fill-opacity:1;fill-rule:nonzero;stroke:none"
             d="m 1717.19,1971.54 c 11.04,0.5 22.06,0.86 33.08,1.14 4.49,-8.89 9.4,-17.71 12.59,-27.32 -3.41,-9.23 -8.32,-17.78 -12.87,-26.52 -10.67,0.28 -21.41,0.42 -32.01,0.56 -4.91,8.83 -9.82,17.57 -14.72,26.24 4.62,8.76 9.31,17.28 13.93,25.9 v 0" /><path
             id="path84"
             style="fill:#27883d;fill-opacity:1;fill-rule:nonzero;stroke:none"
             d="m 4247.39,1971.97 c 10.68,-0.06 21.49,-0.29 32.3,-0.57 4.84,-8.67 9.6,-17.35 14.58,-26.11 -4.91,-8.74 -9.68,-17.5 -14.51,-26.38 -10.88,-0.15 -21.77,-0.29 -32.57,-0.58 -4.43,9.04 -9.41,17.8 -12.46,27.31 3.2,9.26 8.19,17.72 12.66,26.33 v 0" /><path
             id="path86"
             style="fill:#27883d;fill-opacity:1;fill-rule:nonzero;stroke:none"
             d="m 1172.69,1664.12 c 25.89,-25.04 46.88,-58.27 46.09,-95.45 -2.13,-43.12 -25.96,-81.31 -50.93,-115.09 -57.33,-74.62 -125.9,-140.07 -180.955,-216.53 -47.442,-64.81 -86.422,-137.44 -103.067,-216.53 -25.969,3.42 -50.855,11.67 -75.535,20.06 -131.598,44.52 -260.699,103.14 -369.391,190.92 -46.093,39.69 -92.613,84.93 -110.605,144.81 -9.602,32.73 -5.41,75.76 26.461,94.96 36.488,22.27 80.804,25.62 122.488,28.81 176.051,6.41 352.445,-21.34 528.144,-2.05 50.36,7.25 107.27,13.43 143.69,53.14 28.45,29.52 36.34,74.39 23.61,112.95 v 0" /><path
             id="path88"
             style="fill:#27883d;fill-opacity:1;fill-rule:nonzero;stroke:none"
             d="m 4782.52,1575.42 c 0.57,34 20.83,63.01 43.17,86.91 -17.43,-60.39 19.35,-127.02 79.16,-145.31 99.72,-31.09 205.87,-25.9 309.08,-24.41 113.94,2.21 228.1,14.87 341.99,4.77 41.82,-5.97 94.74,-12.73 115.23,-55.48 13.72,-45.24 -2.99,-93.11 -30.88,-129.31 -52.69,-71.56 -128.24,-121.93 -204.14,-165.95 -99.78,-56.27 -207.56,-96.67 -317.17,-129.12 -19.27,80.39 -56.83,155.44 -106.26,221.31 -54.43,75.11 -121.57,139.55 -178.19,212.75 -26.54,36.13 -53.56,77.16 -51.99,123.84 v 0" /><path
             id="path90"
             style="fill:#e21e26;fill-opacity:1;fill-rule:nonzero;stroke:none"
             d="M 4.86328,850.23 C 86.5195,1025.21 177.996,1196.14 245.141,1377.46 258.023,1281.85 328.93,1208.31 402.77,1152.68 501.5,1077.13 619.648,1035.18 734.098,990.012 1299.09,774.27 1895.73,644.66 2497.79,591.742 c 250.59,-20.703 502.61,-29.023 753.91,-15.933 424.37,18.921 846.6,81.371 1259.51,180.832 302.11,73.328 599.36,167.441 886.52,286.649 91.19,37.19 179.1,86.21 251.16,154.13 51.64,47.45 95.45,108.19 103.84,179.68 68.79,-179.68 157.64,-350.75 240.22,-524.291 14.44,-28.399 4.76,-61.758 -11.53,-87 -31.29,-49.008 -78.74,-84.508 -125.76,-117.45 -101.07,-68.07 -212.4,-119.211 -325.07,-164.73 C 5225.01,361.711 4909.4,265.969 4589.11,191.199 4193.69,99.9414 3791.09,38.9883 3386.07,13.0195 2887.66,-21.6914 2386.4,15.4414 1893.89,95.3203 1387.36,179.609 887.027,310.629 411.938,506.75 287.891,561.09 162.914,620.84 61.6992,712.52 25.2109,747.301 -13.9102,796.742 4.86328,850.23 v 0" /><path
             id="path92"
             style="fill:#d7cd10;fill-opacity:1;fill-rule:nonzero;stroke:none"
             d="m 2958.36,1072.38 c 10.88,19.28 19.56,47.95 43.17,53.84 18.77,-12.73 28.39,-34.2 38.28,-53.84 24.33,1.13 48.65,-1.15 72.27,-7.11 -4.98,-24.05 -15.3,-46.59 -30.08,-66.301 13.27,-19.36 27.23,-40.117 28.43,-64.52 -21.97,-10.519 -46.8,-9.027 -70.41,-7.879 -9.32,-21.781 -23.05,-41.191 -39.62,-58.058 -19.36,15.008 -33.22,35.418 -42.33,57.91 -24.32,-2.07 -48.72,0.348 -72.2,6.887 5.2,23.843 15.31,46.3 29.96,65.871 -14.59,19.64 -25.47,41.97 -29.31,66.21 23.47,6.06 47.66,7.98 71.84,6.99 v 0" /><path
             id="path94"
             style="fill:#27883d;fill-opacity:1;fill-rule:nonzero;stroke:none"
             d="m 2983.18,1025.79 c 10.38,0.21 20.85,0.35 31.37,0.28 4.91,-8.9 9.88,-17.92 14.87,-26.949 -4.99,-8.82 -9.82,-17.641 -14.73,-26.621 -10.53,0.082 -20.97,0.082 -31.36,0.082 -5.05,8.969 -10.03,17.84 -14.94,26.598 4.91,8.97 9.81,17.87 14.79,26.61 v 0" /><path
             id="path96"
             style="fill:#ffffff;fill-opacity:1;fill-rule:nonzero;stroke:none"
             d="m 5466.72,874.781 c 38.91,20.34 77.74,41.18 118.08,58.528 17.7,8.543 22.41,-17.629 16.07,-28.739 -22.55,-17.488 -49.93,-27.242 -74.97,-40.398 7.67,-16.652 15.79,-33.141 24.12,-49.652 20.77,9.39 40.46,21.269 62.24,28.25 10.1,-6.411 12.86,-19.489 19.55,-29.02 -21.91,-11.238 -44.04,-22.07 -65.85,-33.359 9.87,-18.352 19.26,-37.141 29.23,-55.551 24.47,12.219 47.94,26.879 73.97,35.691 17.43,7.27 24.04,-12 31.65,-23.39 -44.61,-21.129 -88.06,-44.743 -133.16,-64.879 -33.85,67.437 -66.21,135.59 -100.93,202.519 v 0" /><path
             id="path98"
             style="fill:#ffffff;fill-opacity:1;fill-rule:nonzero;stroke:none"
             d="m 339.531,902.082 c 49.438,48.449 141.414,23.539 168.297,-37.48 6.332,-17.993 -13.867,-23.461 -26.031,-29.223 -12.586,27.152 -37.129,50.992 -68.359,52.492 -26.676,-0.219 -46.661,-22.133 -59.106,-43.609 -13.73,-25.172 -24.621,-57.121 -11.309,-84.711 11.161,-22.551 36.844,-29.809 59.395,-35.43 8.105,15.649 15.926,31.52 23.328,47.449 -11.238,5.18 -22.34,10.391 -33.578,15.442 4.348,10.797 8.816,21.539 13.312,32.207 25.672,-11.528 50.997,-23.68 75.672,-37.188 -15.925,-30.672 -30.871,-61.82 -46.015,-92.972 -60.18,-9.469 -135.082,23.89 -145.039,89.332 -3.629,45.668 17.351,91.91 49.433,123.691 v 0" /><path
             id="path100"
             style="fill:#ffffff;fill-opacity:1;fill-rule:nonzero;stroke:none"
             d="m 579.887,837.641 c 55.551,17.23 127.394,-18.481 133.226,-79.942 2.992,-47.308 -16.07,-96.668 -50.433,-129.539 -54.414,-52.48 -160.825,-10.531 -165.164,65.078 -1.204,56.832 25.113,123.793 82.371,144.403 v 0" /><path
             id="path102"
             style="fill:#ffffff;fill-opacity:1;fill-rule:nonzero;stroke:none"
             d="m 5330.58,819.871 c 15.5,11.738 42.03,21.969 57.12,4.328 48.87,-55.48 95.82,-112.679 144.75,-168.14 -14.15,-6.067 -28.31,-12.098 -42.75,-17.157 -16.08,12.11 -27.89,28.539 -40.69,43.68 -24.75,-9.312 -49.44,-18.781 -73.77,-29.172 1.14,-17.769 3.63,-35.621 3.06,-53.551 -9.67,-13.449 -29.58,-13.8 -44.25,-19.289 0.51,79.75 -6.38,159.7 -3.47,239.301 v 0" /><path
             id="path104"
             style="fill:#e21e26;fill-opacity:1;fill-rule:nonzero;stroke:none"
             d="m 593.547,797.031 c 28.879,17.989 72.976,-4.91 72.902,-39.679 0.43,-38.153 -15.359,-78.192 -44.168,-103.711 -29.527,-24.25 -80.093,0.98 -77.75,39.539 1.352,38.422 15.864,81.511 49.016,103.851 v 0" /><path
             id="path106"
             style="fill:#ffffff;fill-opacity:1;fill-rule:nonzero;stroke:none"
             d="m 776.062,777.469 c 38.485,-4.489 77.321,-16.36 109.192,-38.91 40.684,-28.59 23.254,-98.168 -20.852,-113.379 -7.386,-2.571 -14.785,-5.129 -22.179,-7.621 7.816,-35.489 15.289,-71.047 22.402,-106.7 -17.219,4.133 -40.117,4.2 -49.016,22.571 -11.8,30.57 -14.574,63.652 -22.832,95.172 -4.191,-0.582 -12.589,-1.633 -16.785,-2.211 -10.812,-24.262 -17.637,-50.071 -26.461,-75.18 -14.797,4.328 -29.511,8.809 -44.238,13.148 20.914,71.911 49.219,141.411 70.769,213.11 v 0" /><path
             id="path108"
             style="fill:#e21e26;fill-opacity:1;fill-rule:nonzero;stroke:none"
             d="m 5366.92,789.43 c 20.07,-26.11 40.98,-51.649 60.67,-78.121 -18.06,-7.11 -36.26,-13.93 -54.54,-20.407 -4.62,32.657 -5.64,65.649 -6.13,98.528 v 0" /><path
             id="path110"
             style="fill:#ffffff;fill-opacity:1;fill-rule:nonzero;stroke:none"
             d="m 5086.24,733.23 c 42.4,15.649 89.13,43.95 135.01,26.598 43.24,-21.047 43.54,-82.09 15.79,-116.219 25.04,-24.05 52.84,-45.109 79.59,-67.289 -13.73,-15.23 -37.2,-23.34 -56.05,-12.742 -23.25,16.363 -43.81,36.133 -65.08,54.844 -4.05,0.07 -12.16,0.137 -16.21,0.137 1.19,-30.43 16.71,-57.539 21.69,-87.278 -14.52,-4.129 -28.96,-8.39 -43.39,-12.66 -21.92,72.211 -51.22,141.969 -71.35,214.609 v 0" /><path
             id="path112"
             style="fill:#e21e26;fill-opacity:1;fill-rule:nonzero;stroke:none"
             d="m 811.484,735.289 c 17.008,-5.277 38.133,-8.82 46.52,-27.027 3.988,-19.422 -3.199,-42.543 -21.332,-52.43 -16.715,-6.191 -34.289,0.508 -50.363,5.27 8.75,24.617 17.57,49.23 25.175,74.187 v 0" /><path
             id="path114"
             style="fill:#e21e26;fill-opacity:1;fill-rule:nonzero;stroke:none"
             d="m 5138.82,718.719 c 17.2,5.679 37.61,14.511 54.91,4.472 13.43,-12.089 21.05,-32.722 14.71,-50.293 -8.17,-17.429 -27.66,-22.906 -44.46,-28.359 -8.03,24.883 -16.42,49.633 -25.16,74.18 v 0" /><path
             id="path116"
             style="fill:#ffffff;fill-opacity:1;fill-rule:nonzero;stroke:none"
             d="m 882.117,504.551 c 46.594,65.07 94.821,129.019 142.053,193.609 19.35,-3.769 49.08,-6.68 49.94,-32.441 5.47,-73.758 4.9,-147.949 10.17,-221.789 -15.79,4.199 -31.45,8.601 -47.1,13.019 -0.78,19.922 -1.56,39.762 -2.48,59.551 -24.9,7.242 -49.723,14.719 -74.548,21.969 -10.109,-14.09 -19.132,-29.098 -31.16,-41.758 -15.496,-5.262 -31.789,4.711 -46.875,7.84 v 0" /><path
             id="path118"
             style="fill:#ffffff;fill-opacity:1;fill-rule:nonzero;stroke:none"
             d="m 4928.48,665.152 c -2.99,24.969 26.31,31.02 45.16,30.657 11.31,-4.559 18.65,-14.938 26.05,-24.321 40.24,-55.347 80.87,-110.398 121.77,-165.316 -15.09,-5.332 -30.09,-10.512 -45.11,-15.852 -11.74,15.442 -23.25,31 -34.28,46.789 -25.68,-5.328 -50.71,-13.3 -75.68,-21.117 -1.57,-19.773 -2.43,-39.551 -2.99,-59.461 -14.58,-4.211 -29.09,-8.461 -43.61,-12.672 3.42,73.77 6.05,147.532 8.69,221.293 v 0" /><path
             id="path120"
             style="fill:#ffffff;fill-opacity:1;fill-rule:nonzero;stroke:none"
             d="m 4826.69,653.641 c 12.44,3.898 24.96,7.23 37.91,9.718 0.07,-80.648 -5.91,-161.097 -10.61,-241.55 -12.8,-1.989 -25.46,-4.129 -38.18,-6.168 -21.48,33.839 -42.75,67.851 -65.66,100.781 -2.85,-41.27 -2.77,-82.66 -5.62,-123.91 -13.09,-1.211 -26.4,-5.981 -39.4,-2.711 -44.68,63.519 -85.08,130.097 -129.53,193.91 15.99,8.75 39.89,21.117 54.19,2.418 29.45,-42.328 53.35,-88.348 83.22,-130.539 1.23,35.371 6.78,70.64 4.56,105.922 -7.47,19.636 -19.71,36.988 -29.38,55.547 16.22,3.433 37.63,16.652 50.22,-1.059 29.02,-41.461 51.36,-87.34 79.45,-129.52 5.13,55.54 -5.84,112.809 8.83,167.161 v 0" /><path
             id="path122"
             style="fill:#e21e26;fill-opacity:1;fill-rule:nonzero;stroke:none"
             d="m 980.641,568.332 c 16.004,28.977 36.339,55.219 54.979,82.387 0.85,-32.93 0.64,-65.938 0.49,-98.949 -18.56,5.402 -37.051,10.949 -55.469,16.562 v 0" /><path
             id="path124"
             style="fill:#ffffff;fill-opacity:1;fill-rule:nonzero;stroke:none"
             d="m 1133,523.25 c 12.31,44.73 23.83,89.762 37.2,134.219 13.3,-6.258 38.06,-7.317 37.49,-27.317 -6.2,-51.281 -29.74,-99.222 -35.42,-150.722 2.84,-37.121 65.51,-48.731 78.09,-11.809 19.22,49.789 26.68,103.488 45.1,153.508 14.87,-0.57 31.16,-5.27 38.13,-19.859 -3.13,-36.641 -17.5,-71.34 -25.75,-107.051 -8.54,-33.297 -18.85,-73.539 -55.06,-86.418 -36.2,-10.321 -77.45,-0.422 -106.55,23.039 -26.24,23.269 -21.34,62.039 -13.23,92.41 v 0" /><path
             id="path126"
             style="fill:#e21e26;fill-opacity:1;fill-rule:nonzero;stroke:none"
             d="m 4965.25,650.719 c 19.63,-26.61 37.77,-54.199 56.55,-81.449 -19.13,-6.481 -38.48,-12.391 -58.05,-17.43 0.29,33.012 0.36,65.949 1.5,98.879 v 0" /><path
             id="path128"
             style="fill:#ffffff;fill-opacity:1;fill-rule:nonzero;stroke:none"
             d="m 4503.04,573.691 c 16.15,1.329 41.26,9.801 47.45,-11.75 17,-67.371 32.36,-135.429 45.37,-203.793 -14.79,-3.058 -29.58,-6.257 -44.24,-9.609 -6.89,31.731 -14.17,63.332 -20.49,95.109 -28.31,-4.539 -56.19,-11.296 -84.08,-18.066 6.27,-32.293 15.37,-64 19.99,-96.66 -14.77,-2.922 -29.51,-6.043 -44.16,-9.172 -15.22,75.461 -37,149.648 -48.09,225.75 14.72,-0.129 34.57,7.902 44.31,-7.539 10.6,-24.039 13.44,-50.563 18.93,-76.09 27.95,5.82 55.77,12.231 83.72,17.77 -6.12,31.371 -14.52,62.32 -18.71,94.05 v 0" /><path
             id="path130"
             style="fill:#ffffff;fill-opacity:1;fill-rule:nonzero;stroke:none"
             d="m 1561.78,482.91 c 16.36,36.36 55.91,60.61 95.81,56.77 31.01,-3.2 65.94,-15.078 81.37,-44.309 3.63,-13.883 -11.59,-21.129 -19.27,-30.019 -16.43,17.707 -36.14,36.347 -62.24,34.418 -31.65,2.062 -53.42,-27.95 -59.97,-55.77 -9.88,-30.66 -11.51,-71.98 17.65,-92.879 23.68,-18.289 55.33,-10.68 80.8,-0.512 2.84,-9.461 5.26,-19.121 7.25,-28.949 -7.39,-17.359 -28.66,-19.699 -45.09,-21.199 -40.12,0.219 -85.43,16.078 -104,54.359 -18.7,40.602 -10.6,88.828 7.69,128.09 v 0" /><path
             id="path132"
             style="fill:#ffffff;fill-opacity:1;fill-rule:nonzero;stroke:none"
             d="m 4192.84,479 c 26.74,43.891 89.2,59.32 135,38.281 18.21,-7.332 9.11,-29.742 2.35,-42.539 -24.55,13.867 -56.12,21.199 -80.67,2.918 -29.31,-20.07 -25.6,-60.262 -19.33,-90.691 5.75,-28.887 27.52,-58.989 59.45,-59.477 25.18,-2.062 44.74,15.508 61.33,31.867 9.39,-9.668 26.02,-19.359 17.92,-35.218 -41.47,-49.282 -135.51,-50.993 -168.45,9.179 -24.03,43.391 -32.85,101.078 -7.6,145.68 v 0" /><path
             id="path134"
             style="fill:#ffffff;fill-opacity:1;fill-rule:nonzero;stroke:none"
             d="m 1418.74,505.32 c 14.86,5.899 36.56,-0.711 37.12,-19.058 4.56,-20.481 -22.4,-38.41 -38.91,-24.621 -17.28,8.461 -14.36,36.281 1.79,43.679 v 0" /><path
             id="path136"
             style="fill:#ffffff;fill-opacity:1;fill-rule:nonzero;stroke:none"
             d="m 1783.07,501.199 c 5.62,20.699 32.21,2.922 41.75,-6.25 2.27,-28.39 -7.19,-56.058 -10.17,-84.097 28.09,-5.262 56.19,-10.801 84.57,-14.082 4.05,29.812 9.96,59.261 13.8,89 17.15,1.121 46.24,-2.278 42.04,-26.54 -8.46,-68.5 -24.04,-136 -34.07,-204.351 -15.65,2.48 -31.16,5.172 -46.66,8.031 6.04,32.442 12.58,64.719 16.71,97.379 -28.17,4.762 -56.19,10.231 -84.65,12.871 -4.27,-32.082 -10.17,-63.941 -16.85,-95.668 -14.94,2.988 -29.81,5.828 -44.74,8.539 12.66,71.77 24.54,143.68 38.27,215.168 v 0" /><path
             id="path138"
             style="fill:#ffffff;fill-opacity:1;fill-rule:nonzero;stroke:none"
             d="m 1987.49,471.469 c 16.65,-1.559 40.76,4.191 48.87,-15.438 12.45,-51.07 16.86,-103.851 26.54,-155.511 18.14,28.621 31.65,59.832 45.09,90.851 4.48,21.688 -2.7,43.949 -4.69,65.578 15.79,-1.988 38.98,1.992 45.95,-16.859 11.1,-50.781 13.37,-103.211 24.46,-154.141 14.44,36.641 30.87,72.492 45.95,108.903 6.41,13.867 11.6,29.597 24.11,39.199 13.31,3.41 27.04,0.281 40.49,-0.43 -10.32,-35.769 -30.31,-67.57 -45.39,-101.43 -19.77,-39.269 -36.7,-79.882 -58.25,-118.222 -12.09,2.562 -24.12,4.84 -36.21,6.89 -8.04,39.633 -13.44,79.743 -22.26,119.141 -18.64,-35.34 -34.57,-72.109 -51.57,-108.379 -12.88,1.34 -25.68,2.539 -38.55,3.758 -15.37,78.609 -29.32,157.492 -44.54,236.09 v 0" /><path
             id="path140"
             style="fill:#ffffff;fill-opacity:1;fill-rule:nonzero;stroke:none"
             d="m 3739.31,434.051 c 42.11,10.308 87.57,22.621 130.24,8.39 33.43,-10.671 55.4,-43.261 61.04,-76.89 10.66,-43.469 2.83,-96.879 -35.5,-124.699 -36.28,-26.672 -84.08,-22.332 -126.41,-29.59 -8.89,74.34 -18.56,148.679 -29.37,222.789 v 0" /><path
             id="path142"
             style="fill:#ffffff;fill-opacity:1;fill-rule:nonzero;stroke:none"
             d="m 3662.98,424.379 c 12.52,9.953 29.24,6.82 43.96,7.043 -15.21,-49.16 -40.4,-94.613 -55.77,-143.621 -1.55,-29.879 4.34,-59.602 4.56,-89.551 -15.01,-0.93 -30.03,-1.918 -44.96,-2.629 -2.92,28.449 -3.12,57.68 -10.37,85.348 -25.98,44.242 -57.56,84.941 -84.31,128.672 15.8,3.929 35.86,15.941 50.23,2.07 22.55,-22.75 32.94,-57.551 55.26,-78.602 18.42,26.25 20.84,64.602 41.4,91.27 v 0" /><path
             id="path144"
             style="fill:#ffffff;fill-opacity:1;fill-rule:nonzero;stroke:none"
             d="m 2250.61,207.359 c 34.42,72.61 68.43,145.532 102.92,218.153 15.23,-0.992 32.3,1.929 45.67,-7.473 9.68,-8.238 11.02,-21.629 14.44,-33.141 14.94,-66.648 32.79,-132.668 46.66,-199.589 -16.22,2.191 -32.29,4.621 -48.43,6.82 -3.77,18.851 -8.26,37.551 -12.53,56.191 -25.96,2.711 -51.85,6.129 -77.88,8.262 -8.04,-17.434 -15.94,-34.934 -23.69,-52.492 -15.72,0.98 -31.52,2.058 -47.16,3.269 v 0" /><path
             id="path146"
             style="fill:#ffffff;fill-opacity:1;fill-rule:nonzero;stroke:none"
             d="m 2514.86,409.082 c 43.89,0.367 93.61,4.258 131.38,-22.184 37.13,-33.378 18.99,-100.726 -26.96,-116.808 15.65,-32.848 33.07,-64.86 48.22,-98.02 -18.35,-1.269 -41.61,-6.468 -54.41,10.891 -17.49,25.098 -28.24,54.07 -42.46,81.019 -6.41,0.352 -12.74,0.571 -18.99,0.629 -1.22,-28.66 -2.64,-57.468 -7.19,-85.918 -15.07,2.211 -30.16,4.27 -45.17,6.188 5.62,74.68 10.24,149.441 15.58,224.203 v 0" /><path
             id="path148"
             style="fill:#ffffff;fill-opacity:1;fill-rule:nonzero;stroke:none"
             d="m 3349.66,374.301 c 33.63,42.449 105.49,51.347 146.52,15.008 4.98,-12.52 -4.13,-24.258 -8.32,-35.567 -23.48,15.43 -53.77,26.238 -80.88,13.586 -28.87,-14.156 -34.78,-50.156 -32.36,-79.18 1.35,-29.847 14.23,-66.136 46.74,-73.968 26.8,-7.539 51.99,6.679 72.4,22.691 6.19,-9.32 12.38,-18.699 18.5,-28.23 -41.55,-54.629 -143.76,-46.461 -171.57,18.488 -19.49,46.242 -22.19,105.34 8.97,147.172 v 0" /><path
             id="path150"
             style="fill:#e21e26;fill-opacity:1;fill-rule:nonzero;stroke:none"
             d="m 3792.37,410 c 25.89,2.57 58.04,6.402 75.76,-17.488 19.19,-27.672 23.33,-64.883 16.22,-97.321 -9.05,-31.64 -44.25,-41.461 -73.48,-41.82 -5.84,52.289 -15.36,104.141 -18.5,156.629 v 0" /><path
             id="path152"
             style="fill:#ffffff;fill-opacity:1;fill-rule:nonzero;stroke:none"
             d="m 2773.06,392.582 c 16.86,2.777 35.93,6.969 50.65,-4.691 11.17,-16.86 14.86,-37.282 21.34,-56.27 16.43,-56.262 36.13,-111.601 51.21,-168.301 -15.65,0.36 -31.23,0.641 -46.8,0.922 -6.05,18.578 -11.88,37.219 -17.29,55.91 -26.46,1.496 -52.92,1.989 -79.38,2.418 -6.33,-17.711 -12.8,-35.418 -19.21,-53.121 -15.36,0.121 -30.65,0.41 -45.95,0.633 26.18,75.047 57.77,148.02 85.43,222.5 v 0" /><path
             id="path154"
             style="fill:#ffffff;fill-opacity:1;fill-rule:nonzero;stroke:none"
             d="m 4028.3,381.199 c 6.06,7.961 11.46,16.711 19.8,22.543 11.08,3.348 21.75,-3.691 32.35,-6.183 1.2,-16.297 4.41,-41.829 -18.92,-42.829 -18.49,-5.55 -25.96,14.02 -33.23,26.469 v 0" /><path
             id="path156"
             style="fill:#ffffff;fill-opacity:1;fill-rule:nonzero;stroke:none"
             d="m 2935.96,390.66 c 48,0.07 96.1,0.289 144.11,-0.058 -2.85,-11.321 0.7,-26.973 -11.59,-33.731 -27.96,-5.121 -56.63,-1.781 -84.87,-2.422 -0.21,-18.699 -0.21,-37.398 -0.21,-56.258 23.83,0.071 47.73,0.071 71.63,0.071 0.14,-11.961 0.36,-23.973 0.57,-36.071 -24.12,-0.55 -48.15,-0.351 -72.27,-0.55 0,-20.719 0.14,-41.551 0.36,-62.411 28.66,-0.699 57.68,2.43 86.13,-1.91 14.58,-4.691 13.52,-21.398 16.43,-33.711 -50.08,-0.847 -100.15,-0.57 -150.22,-0.148 0.07,75.758 -0.22,151.449 -0.07,227.199 v 0" /><path
             id="path158"
             style="fill:#e21e26;fill-opacity:1;fill-rule:nonzero;stroke:none"
             d="m 2375.09,380.551 c 5.55,-32.492 11.95,-64.789 18.99,-97.02 -20.06,1.918 -40.05,4.141 -59.97,6.848 12.96,30.359 25.97,60.742 40.98,90.172 v 0" /><path
             id="path160"
             style="fill:#e21e26;fill-opacity:1;fill-rule:nonzero;stroke:none"
             d="m 2554.98,296.27 c 1.13,26.96 2.77,53.839 4.34,80.73 18.84,-2.852 44.02,-1.508 54.26,-21.41 3.85,-15.938 4.21,-35.559 -7.75,-48.508 -13.01,-13.863 -33.93,-8.961 -50.85,-10.812 v 0" /><path
             id="path162"
             style="fill:#e21e26;fill-opacity:1;fill-rule:nonzero;stroke:none"
             d="m 2763.54,257.219 c 11.3,31.301 22.4,62.672 33.21,94.101 10.53,-31.351 18.7,-63.429 26.75,-95.601 -19.99,0.429 -39.98,0.922 -59.96,1.5 v 0" /><path
             id="path164"
             style="fill:#ffffff;fill-opacity:1;fill-rule:nonzero;stroke:none"
             d="m 3182.42,306.871 c 9.18,16.777 29.59,9.598 43.88,4.969 0.94,-15.43 5.49,-41.82 -16.86,-43.168 -21.9,-7.192 -39.9,20.687 -27.02,38.199 v 0" /></g></g></g></g></svg>